<?xml version="1.0" standalone="no"?>
<!DOCTYPE svg PUBLIC "-//W3C//DTD SVG 1.1//EN" "http://www.w3.org/Graphics/SVG/1.1/DTD/svg11.dtd" >
<svg xmlns="http://www.w3.org/2000/svg" xmlns:xlink="http://www.w3.org/1999/xlink" version="1.1">
<metadata>
Created by FontForge 20170731 at Thu Jun 10 16:22:20 2021
 By Aleksey,,,
Copyright 2018 IBM Corp. All rights reserved.
</metadata>
<defs>
<font id="IBMPlexSans-MediumItalic" horiz-adv-x="0" >
  <font-face 
    font-family="IBM Plex Sans Medium"
    font-weight="500"
    font-style="italic"
    font-stretch="normal"
    units-per-em="1000"
    panose-1="2 11 6 3 5 2 3 0 2 3"
    ascent="780"
    descent="-220"
    x-height="520"
    cap-height="698"
    bbox="-265 -258 1223 1137"
    underline-thickness="77"
    underline-position="-197"
    slope="-11"
    unicode-range="U+000D-FB02"
  />
<missing-glyph horiz-adv-x="472" 
d="M32 0v780h408v-780h-408zM109 77h254v626h-254v-626z" />
    <glyph glyph-name="fi" unicode="fi" horiz-adv-x="588" 
d="M81 520h78l18 91q13 62 47 95.5t100 33.5h81l-17 -87h-99l-27 -133h289l-87 -433h67l-17 -87h-78q-37 0 -57 19.5t-20 50.5q0 6 1 12.5t2 10.5l68 340h-185l-101 -503q-13 -63 -46.5 -96.5t-99.5 -33.5h-78l17 87h95l110 546h-78zM520 614q-29 0 -42 12t-13 30
q0 6 1.5 14t3.5 19q5 23 21 38.5t51 15.5q29 0 42 -12t13 -30q0 -6 -1.5 -14t-3.5 -19q-5 -23 -21 -38.5t-51 -15.5z" />
    <glyph glyph-name=".notdef" horiz-adv-x="472" 
d="M32 0v780h408v-780h-408zM109 77h254v626h-254v-626z" />
    <glyph glyph-name=".null" 
 />
    <glyph glyph-name=".null" 
 />
    <glyph glyph-name="uni000D" unicode="&#xd;" horiz-adv-x="233" 
 />
    <glyph glyph-name="space" unicode=" " horiz-adv-x="236" 
 />
    <glyph glyph-name="exclam" unicode="!" horiz-adv-x="290" 
d="M110 200l27 298l40 200h112l-40 -200l-91 -298h-48zM96 -12q-32 0 -47 14t-15 35q0 8 1.5 19.5t3.5 19.5q5 26 23.5 44.5t55.5 18.5q32 0 47 -14t15 -35q0 -7 -1.5 -18.5t-3.5 -20.5q-5 -26 -23 -44.5t-56 -18.5z" />
    <glyph glyph-name="quotedbl" unicode="&#x22;" horiz-adv-x="443" 
d="M110 440l60 300h97l-60 -300h-97zM307 440l60 300h97l-60 -300h-97z" />
    <glyph glyph-name="numbersign" unicode="#" horiz-adv-x="663" 
d="M360 191h-142l-71 -191h-77l70 191h-117l15 72h129l63 172h-117l15 72h129l70 191h78l-71 -191h142l71 191h78l-71 -191h117l-14 -72h-129l-64 -172h117l-14 -72h-129l-71 -191h-78zM386 263l64 172h-142l-64 -172h142z" />
    <glyph glyph-name="dollar" unicode="$" horiz-adv-x="571" 
d="M187 6q-61 9 -109 37t-74 73l74 65q21 -38 55 -60t78 -29l45 228q-85 17 -125 59.5t-40 110.5q0 42 15.5 78t45.5 63.5t74 44.5t100 20l17 84h82l-18 -90q54 -9 94.5 -34t63.5 -65l-76 -63q-14 26 -41 47t-65 29l-41 -207q87 -18 129 -60t42 -111q0 -42 -16 -81
t-46.5 -69t-76.5 -49.5t-106 -23.5l-16 -85h-82zM408 212q0 34 -19 58t-66 35l-42 -214q66 7 96.5 42t30.5 79zM195 502q0 -69 80 -89l38 195q-57 -5 -87.5 -34t-30.5 -72z" />
    <glyph glyph-name="percent" unicode="%" horiz-adv-x="918" 
d="M130 0l587 698h99l-587 -698h-99zM236 314q-64 0 -101 38.5t-37 112.5q0 51 14.5 96t40.5 78t62 52t78 19q64 0 101 -38.5t37 -112.5q0 -51 -14.5 -95.5t-40.5 -78t-62 -52.5t-78 -19zM242 380q33 0 52.5 26t30.5 76l13 61q2 9 3 19.5t1 18.5q0 29 -14.5 46t-40.5 17
q-33 0 -52.5 -26t-30.5 -76l-13 -61q-2 -9 -3 -19.5t-1 -18.5q0 -29 14.5 -46t40.5 -17zM652 -12q-64 0 -101 38.5t-37 112.5q0 51 14.5 96t40.5 78t62 52t78 19q64 0 101 -38.5t37 -112.5q0 -51 -14.5 -95.5t-40.5 -78t-62 -52.5t-78 -19zM658 54q33 0 52.5 26t30.5 76
l13 61q2 9 3 19.5t1 18.5q0 29 -14.5 46t-40.5 17q-33 0 -52.5 -26t-30.5 -76l-13 -61q-2 -9 -3 -19.5t-1 -18.5q0 -29 14.5 -46t40.5 -17z" />
    <glyph glyph-name="ampersand" unicode="&#x26;" horiz-adv-x="685" 
d="M434 73q-41 -38 -93 -61.5t-118 -23.5q-93 0 -141 46.5t-48 119.5q0 44 15 77.5t39.5 60.5t57.5 48t69 39q-19 27 -34.5 60.5t-15.5 74.5q0 40 15 75.5t42.5 62.5t66 42.5t85.5 15.5q33 0 62 -8.5t51 -26t35 -43.5t13 -61q0 -38 -16 -68.5t-42 -56t-59.5 -46t-68.5 -38.5
l102 -143q19 35 33 74.5t23 81.5h150l-18 -90h-73q-12 -37 -28 -72.5t-36 -65.5l105 -147h-121zM361 625q-35 0 -59 -21.5t-32 -55.5q-3 -14 -3 -29q0 -22 8.5 -43.5t29.5 -52.5q55 27 90.5 57.5t35.5 77.5q0 32 -19.5 49.5t-50.5 17.5zM247 78q43 0 78 15.5t64 42.5
l-131 182q-44 -22 -74 -47.5t-41 -70.5q-3 -14 -3 -29q0 -45 27.5 -69t79.5 -24z" />
    <glyph glyph-name="quotesingle" unicode="'" horiz-adv-x="246" 
d="M110 440l60 300h97l-60 -300h-97z" />
    <glyph glyph-name="parenleft" unicode="(" horiz-adv-x="339" 
d="M70 208q0 91 23.5 173t62.5 152.5t90 128t106 98.5h108q-50 -39 -94.5 -84.5t-80.5 -96t-61.5 -104t-35.5 -107.5l-19 -91q-4 -20 -5 -38t-1 -35q0 -100 31 -187.5t86 -154.5h-95q-24 28 -44.5 65.5t-36.5 81.5t-25 94.5t-9 104.5z" />
    <glyph glyph-name="parenright" unicode=")" horiz-adv-x="339" 
d="M292 414q0 -91 -23.5 -173t-62.5 -152.5t-90 -128t-106 -98.5h-108q50 39 94.5 84.5t80.5 96t61.5 104t35.5 107.5l19 91q4 20 5 38t1 35q0 100 -31 187.5t-86 154.5h95q24 -28 44.5 -65.5t36.5 -81.5t25 -94.5t9 -104.5z" />
    <glyph glyph-name="asterisk" unicode="*" horiz-adv-x="512" 
d="M178 320l-69 60l130 130l-144 44l40 87l140 -61l27 167h94l-38 -166l152 58l20 -85l-163 -49l76 -132l-79 -50l-66 141z" />
    <glyph glyph-name="plus" unicode="+" horiz-adv-x="600" 
d="M213 62l39 200h-180l17 87h181l40 199h95l-39 -199h179l-17 -87h-180l-40 -200h-95z" />
    <glyph glyph-name="comma" unicode="," horiz-adv-x="288" 
d="M115 139q32 0 47 -14.5t15 -36.5q0 -7 -1.5 -17.5t-3.5 -18.5q-11 -47 -41.5 -99.5t-84.5 -90.5h-83q39 32 65.5 63.5t44.5 67.5q-41 9 -41 46q0 7 1.5 17.5t3.5 19.5q6 27 23.5 45t54.5 18z" />
    <glyph glyph-name="hyphen" unicode="-" horiz-adv-x="391" 
d="M59 252l21 105h270l-21 -105h-270z" />
    <glyph glyph-name="period" unicode="." horiz-adv-x="288" 
d="M93 -12q-32 0 -47 14t-15 35q0 8 1.5 19.5t3.5 19.5q5 26 23.5 44.5t55.5 18.5q32 0 47 -14t15 -35q0 -7 -1.5 -18.5t-3.5 -20.5q-5 -26 -23 -44.5t-56 -18.5z" />
    <glyph glyph-name="slash" unicode="/" horiz-adv-x="421" 
d="M-71 -151l448 891h96l-449 -891h-95z" />
    <glyph glyph-name="zero" unicode="0" horiz-adv-x="600" 
d="M258 -12q-55 0 -93 20t-61.5 54t-34 78.5t-10.5 94.5q0 84 19.5 168.5t58 153t97 111t136.5 42.5q55 0 93 -20t61.5 -54t34 -79t10.5 -94q0 -84 -19.5 -168.5t-58.5 -153t-97 -111t-136 -42.5zM269 80q33 0 59 15t46 42.5t34 66t23 84.5l23 113q5 22 6.5 42.5t1.5 40.5
q0 62 -25 98t-79 36q-33 0 -59 -15t-45.5 -42.5t-33.5 -66t-23 -84.5l-23 -113q-5 -22 -6.5 -42.5t-1.5 -40.5q0 -62 24.5 -98t78.5 -36z" />
    <glyph glyph-name="one" unicode="1" horiz-adv-x="600" 
d="M48 0l18 93h192l106 523h-8l-194 -174l-60 63l212 193h172l-121 -605h167l-17 -93h-467z" />
    <glyph glyph-name="two" unicode="2" horiz-adv-x="600" 
d="M478 0h-453l22 109l255 198q65 50 96.5 94t39.5 82q2 8 3 19t1 20q0 16 -5.5 32.5t-16.5 30t-28.5 21.5t-42.5 8q-53 0 -86.5 -30.5t-54.5 -81.5l-93 39q17 37 40 68.5t52.5 53.5t66.5 34.5t84 12.5q46 0 83.5 -13.5t63.5 -38t40 -58t14 -72.5q0 -45 -14.5 -83t-41 -72.5
t-64 -68t-84.5 -68.5l-189 -142h331z" />
    <glyph glyph-name="three" unicode="3" horiz-adv-x="600" 
d="M299 410q115 0 134 99q3 15 3 26q0 40 -25 61t-70 21t-81 -19.5t-66 -65.5l-66 67q39 48 93 79.5t137 31.5q43 0 79 -11.5t62 -32.5t40 -50.5t14 -64.5q0 -36 -12 -66.5t-33.5 -54t-51 -39.5t-63.5 -23l-1 -5q51 -9 82.5 -47t31.5 -98q0 -50 -17.5 -92t-51.5 -73
t-82.5 -48t-109.5 -17q-46 0 -82 10.5t-62.5 28t-44.5 40.5t-28 48l83 58q16 -42 48 -67t94 -25q63 0 95 28.5t43 83.5q2 8 3 16t1 16q0 42 -28 66.5t-82 24.5h-73l19 94h68z" />
    <glyph glyph-name="four" unicode="4" horiz-adv-x="600" 
d="M307 0l27 136h-311l20 99l366 463h140l-95 -474h92l-18 -88h-92l-27 -136h-102zM135 224h217l71 355h-7z" />
    <glyph glyph-name="five" unicode="5" horiz-adv-x="600" 
d="M560 602h-299l-63 -253h8q27 48 60.5 71.5t91.5 23.5q38 0 70 -12.5t55 -36t36 -58t13 -78.5q0 -54 -18.5 -103.5t-53 -86.5t-85.5 -59t-115 -22q-48 0 -84 10.5t-62.5 28.5t-44.5 41t-28 48l88 58q15 -42 47 -67t92 -25t96 33t48 95q2 11 4 22.5t2 22.5q0 45 -26 71
t-79 26q-42 0 -72.5 -17.5t-53.5 -42.5l-87 13l98 393h381z" />
    <glyph glyph-name="six" unicode="6" horiz-adv-x="600" 
d="M266 -12q-100 0 -153.5 59t-53.5 164q0 75 27.5 147.5t73.5 136.5t104.5 116t121.5 87h153q-131 -81 -222.5 -167t-125.5 -190l6 -2q30 48 67 75.5t92 27.5q40 0 72 -13.5t55 -38.5t35.5 -60.5t12.5 -78.5q0 -55 -19 -103t-53.5 -83.5t-83.5 -56t-109 -20.5zM273 79
q59 0 95 34t48 91q2 9 3 19t1 20q0 52 -27.5 80.5t-80.5 28.5q-60 0 -95.5 -34t-47.5 -91q-2 -9 -3 -19t-1 -20q0 -52 27.5 -80.5t80.5 -28.5z" />
    <glyph glyph-name="seven" unicode="7" horiz-adv-x="600" 
d="M121 0l364 606h-254l-26 -131h-94l44 223h458l-20 -99l-357 -599h-115z" />
    <glyph glyph-name="eight" unicode="8" horiz-adv-x="600" 
d="M261 -12q-53 0 -93.5 13.5t-68 37.5t-41.5 57t-14 72q0 36 11.5 68.5t33.5 58.5t54 44t73 25l2 7q-88 34 -88 134q0 42 16.5 79t48 65t76.5 44.5t103 16.5q95 0 145 -44t50 -115q0 -31 -10 -59.5t-29 -52.5t-46.5 -42.5t-61.5 -28.5l-1 -8q50 -13 77.5 -50t27.5 -93
q0 -48 -18 -90t-52 -72.5t-83 -48.5t-112 -18zM268 77q58 0 95 28t48 82q2 11 3 19t1 20q0 44 -29 69t-84 25q-58 0 -95 -29t-48 -82q-2 -11 -3 -19.5t-1 -19.5q0 -45 29 -69t84 -24zM331 404q53 0 84.5 26t42.5 73q2 9 3 17.5t1 16.5q0 39 -26 61.5t-76 22.5
q-54 0 -85 -25.5t-42 -72.5q-2 -9 -3 -17.5t-1 -16.5q0 -39 26 -62t76 -23z" />
    <glyph glyph-name="nine" unicode="9" horiz-adv-x="600" 
d="M573 487q0 -75 -27.5 -147.5t-73.5 -136.5t-104.5 -116t-121.5 -87h-153q66 40 122 81.5t100.5 85.5t76.5 91t49 99l-6 2q-30 -48 -67 -75.5t-91 -27.5q-81 0 -128.5 51.5t-47.5 139.5q0 55 19 103t54 83.5t83.5 56t108.5 20.5q100 0 153.5 -59t53.5 -164zM320 346
q60 0 95.5 34t47.5 91q2 9 3 19t1 20q0 52 -27.5 80.5t-80.5 28.5q-59 0 -95.5 -34t-47.5 -91q-2 -9 -3 -19t-1 -20q0 -52 27.5 -80.5t80.5 -28.5z" />
    <glyph glyph-name="colon" unicode=":" horiz-adv-x="308" 
d="M103 -12q-32 0 -47 14t-15 35q0 8 1.5 19.5t3.5 19.5q5 26 23.5 44.5t55.5 18.5q32 0 47 -14t15 -35q0 -7 -1.5 -18.5t-3.5 -20.5q-5 -26 -23 -44.5t-56 -18.5zM183 381q-32 0 -47 14t-15 35q0 8 1.5 19.5t3.5 19.5q5 26 23.5 44.5t55.5 18.5q32 0 47 -14t15 -35
q0 -7 -1.5 -18.5t-3.5 -20.5q-5 -26 -23 -44.5t-56 -18.5z" />
    <glyph glyph-name="semicolon" unicode=";" horiz-adv-x="308" 
d="M125 139q32 0 47 -14.5t15 -36.5q0 -7 -1.5 -17.5t-3.5 -18.5q-11 -47 -41.5 -99.5t-84.5 -90.5h-83q39 32 65.5 63.5t44.5 67.5q-41 9 -41 46q0 7 1.5 17.5t3.5 19.5q6 27 23.5 45t54.5 18zM183 381q-32 0 -47 14t-15 35q0 8 1.5 19.5t3.5 19.5q5 26 23.5 44.5
t55.5 18.5q32 0 47 -14t15 -35q0 -7 -1.5 -18.5t-3.5 -20.5q-5 -26 -23 -44.5t-56 -18.5z" />
    <glyph glyph-name="less" unicode="&#x3c;" horiz-adv-x="600" 
d="M96 249l17 81l451 252l-23 -117l-328 -178l-2 -8l257 -182l-22 -105z" />
    <glyph glyph-name="equal" unicode="=" horiz-adv-x="600" 
d="M95 370l17 87h456l-18 -87h-455zM52 155l18 87h455l-17 -87h-456z" />
    <glyph glyph-name="greater" unicode="&#x3e;" horiz-adv-x="600" 
d="M72 109l329 182l2 8l-257 178l21 105l350 -253l-16 -81l-452 -256z" />
    <glyph glyph-name="question" unicode="?" horiz-adv-x="478" 
d="M160 219l33 160q81 5 129.5 37t59.5 82q2 7 3 18t1 19q0 39 -24.5 60.5t-66.5 21.5q-51 0 -82 -29.5t-50 -77.5l-87 38q31 73 86.5 117.5t144.5 44.5q88 0 139 -44t51 -120q0 -41 -15.5 -79.5t-44 -69.5t-68.5 -53t-88 -31l-19 -94h-102zM172 -12q-32 0 -47 14t-15 35
q0 8 1.5 19.5t3.5 19.5q5 26 23.5 44.5t55.5 18.5q32 0 47 -14t15 -35q0 -7 -1.5 -18.5t-3.5 -20.5q-5 -26 -23 -44.5t-56 -18.5z" />
    <glyph glyph-name="at" unicode="@" horiz-adv-x="875" 
d="M370 -121q-73 0 -130.5 22.5t-97 64.5t-60 101.5t-20.5 133.5q0 23 2.5 50.5t8.5 59.5q18 87 57.5 159.5t97 125.5t131 82.5t159.5 29.5q69 0 126.5 -21.5t99.5 -61t65 -96.5t23 -127q0 -17 -2 -38.5t-7 -46.5q-11 -51 -29.5 -95.5t-45.5 -77t-61.5 -51.5t-77.5 -19
q-49 0 -74 22.5t-25 64.5v12h-4q-15 -41 -49 -70t-80 -29q-57 0 -93.5 39t-36.5 117q0 14 1.5 31.5t6.5 39.5q20 100 70 151.5t119 51.5q45 0 70 -20.5t34 -58.5h4l14 70h87l-57 -284q-2 -8 -3 -16.5t-1 -16.5q0 -34 34 -34q40 0 70 43t47 123l9 43q2 11 3 23t1 35
q0 52 -17.5 94t-49.5 71.5t-77.5 45.5t-101.5 16q-66 0 -124.5 -22.5t-104.5 -63.5t-78 -98.5t-46 -127.5l-10 -51q-8 -43 -8 -74q0 -58 16 -104.5t46.5 -79t75.5 -50t102 -17.5h212l-14 -71h-207zM409 149q21 0 38.5 8t31.5 21t23.5 30.5t13.5 35.5l22 110q5 28 -16.5 51
t-62.5 23q-42 0 -69 -26.5t-35 -68.5l-17 -84q-3 -15 -3 -25q0 -35 19.5 -55t54.5 -20z" />
    <glyph glyph-name="A" unicode="A" horiz-adv-x="638" 
d="M455 0l-22 189h-250l-97 -189h-116l367 698h140l88 -698h-110zM391 598h-7l-156 -315h196z" />
    <glyph glyph-name="B" unicode="B" horiz-adv-x="637" 
d="M172 698h274q79 0 124.5 -38t45.5 -108q0 -33 -9 -63t-26.5 -55t-43.5 -42.5t-60 -26.5l-1 -5q102 -26 102 -129q0 -49 -16.5 -91.5t-47 -73.5t-73.5 -48.5t-96 -17.5h-313zM344 95q45 0 74 22t39 69q5 26 7 38.5t2 19.5q0 31 -20.5 49t-61.5 18h-182l-43 -216h185z
M377 401q47 0 77 19.5t39 64.5q5 24 6.5 36t1.5 19q0 29 -18.5 46t-55.5 17h-166l-41 -202h157z" />
    <glyph glyph-name="C" unicode="C" horiz-adv-x="616" 
d="M297 -12q-53 0 -97 18t-76 53.5t-50 88t-18 121.5q0 91 25.5 171.5t71 140.5t109 94.5t139.5 34.5q179 0 229 -164l-97 -42q-15 51 -47.5 80t-93.5 29q-76 0 -128.5 -53t-70.5 -142l-23 -113q-4 -17 -5 -31.5t-1 -27.5q0 -75 36.5 -118t104.5 -43q33 0 59 8.5t47 24
t38 37.5t32 49l90 -43q-46 -89 -113.5 -131t-160.5 -42z" />
    <glyph glyph-name="D" unicode="D" horiz-adv-x="665" 
d="M172 698h213q117 0 184 -67.5t67 -199.5q0 -86 -23.5 -164t-68.5 -137.5t-111.5 -94.5t-151.5 -35h-249zM287 97q81 0 136.5 49t75.5 146l20 100q3 17 4.5 33.5t1.5 28.5q0 75 -37.5 111t-100.5 36h-126l-101 -504h127z" />
    <glyph glyph-name="E" unicode="E" horiz-adv-x="571" 
d="M32 0l140 698h427l-20 -96h-318l-40 -202h284l-19 -96h-284l-42 -208h332l-19 -96h-441z" />
    <glyph glyph-name="F" unicode="F" horiz-adv-x="548" 
d="M32 0l140 698h416l-20 -96h-307l-40 -202h277l-19 -96h-277l-62 -304h-108z" />
    <glyph glyph-name="G" unicode="G" horiz-adv-x="678" 
d="M483 106h-6q-24 -49 -73 -83.5t-123 -34.5q-50 0 -91 18t-71 53t-46.5 87t-16.5 121q0 91 24.5 171.5t70.5 141t112.5 95.5t149.5 35q92 0 156 -42.5t87 -119.5l-94 -46q-17 53 -56 82t-102 29q-85 0 -139.5 -53.5t-72.5 -146.5l-21 -107q-6 -30 -6 -58q0 -79 39.5 -121
t105.5 -42q69 0 121.5 38.5t66.5 107.5l9 46h-139l19 94h243l-74 -371h-95z" />
    <glyph glyph-name="H" unicode="H" horiz-adv-x="691" 
d="M508 304h-306l-62 -304h-108l140 698h108l-59 -298h306l59 298h108l-140 -698h-108z" />
    <glyph glyph-name="I" unicode="I" horiz-adv-x="398" 
d="M3 0l18 90h90l104 518h-90l18 90h288l-18 -90h-90l-104 -518h90l-18 -90h-288z" />
    <glyph glyph-name="J" unicode="J" horiz-adv-x="514" 
d="M518 698l-103 -512q-19 -94 -75.5 -146t-149.5 -52q-85 0 -133 48.5t-53 128.5l101 20q3 -45 23 -72.5t64 -27.5q46 0 75.5 27t41.5 87l81 407h-221l19 92h330z" />
    <glyph glyph-name="K" unicode="K" horiz-adv-x="633" 
d="M303 324l-121 -116l-42 -208h-108l140 698h109l-70 -347h6l115 122l223 225h134l-302 -302l182 -396h-119z" />
    <glyph glyph-name="L" unicode="L" horiz-adv-x="498" 
d="M32 0l140 698h109l-121 -602h274l-19 -96h-383z" />
    <glyph glyph-name="M" unicode="M" horiz-adv-x="792" 
d="M657 533h-5l-87 -125l-190 -264l-89 271l-38 118h-5l-106 -533h-105l140 698h125l111 -359h3l250 359h134l-140 -698h-105z" />
    <glyph glyph-name="N" unicode="N" horiz-adv-x="691" 
d="M298 385l-49 155h-6l-108 -540h-103l140 698h120l136 -385l49 -155h6l108 540h103l-140 -698h-120z" />
    <glyph glyph-name="O" unicode="O" horiz-adv-x="687" 
d="M303 -12q-51 0 -96 17t-78.5 51.5t-53 86.5t-19.5 122q0 88 25 168.5t71.5 142t112.5 98t147 36.5q51 0 96.5 -17t79 -51.5t53 -86.5t19.5 -122q0 -88 -25.5 -168.5t-72 -142t-112.5 -98t-147 -36.5zM313 85q84 0 137 53.5t73 151.5l22 106q4 17 5 33t1 29q0 73 -38 114
t-109 41q-83 0 -137.5 -54t-74.5 -153l-21 -104q-4 -18 -5 -33.5t-1 -28.5q0 -73 38 -114t110 -41z" />
    <glyph glyph-name="P" unicode="P" horiz-adv-x="609" 
d="M32 0l140 698h255q98 0 145.5 -48t47.5 -128q0 -52 -18 -96.5t-51 -77t-79 -51t-102 -18.5h-174l-56 -279h-108zM216 375h169q43 0 71.5 22.5t39.5 67.5q6 27 9 42.5t3 25.5q0 30 -18.5 49.5t-63.5 19.5h-165z" />
    <glyph glyph-name="Q" unicode="Q" horiz-adv-x="687" 
d="M414 -173h-97q-49 0 -69 20t-20 54q0 9 1.5 18t3.5 19l11 56q-41 9 -75 30t-59.5 54.5t-39.5 80t-14 106.5q0 88 25 168.5t71.5 142t112.5 98t147 36.5q51 0 96.5 -17t79 -51.5t53 -86.5t19.5 -122q0 -83 -22.5 -159t-64 -136t-100.5 -99.5t-132 -48.5l-14 -70h106z
M313 85q84 0 137 53.5t73 151.5l22 106q4 17 5 33t1 29q0 73 -38 114t-109 41q-83 0 -137.5 -54t-74.5 -153l-21 -104q-4 -18 -5 -33.5t-1 -28.5q0 -73 38 -114t110 -41z" />
    <glyph glyph-name="R" unicode="R" horiz-adv-x="638" 
d="M140 0h-108l140 698h259q96 0 142.5 -47.5t46.5 -125.5q0 -40 -12 -76.5t-35 -67t-56 -53t-75 -32.5l94 -296h-116l-84 283h-139zM385 375q43 0 71.5 22.5t39.5 67.5q6 27 9 42.5t3 25.5q0 30 -18.5 49.5t-63.5 19.5h-165l-45 -227h169z" />
    <glyph glyph-name="S" unicode="S" horiz-adv-x="580" 
d="M251 -12q-81 0 -146.5 29t-100.5 96l83 63q29 -48 69.5 -69.5t95.5 -21.5q78 0 119 37t41 91q0 39 -24 61.5t-71 32.5l-58 11q-75 16 -117 59.5t-42 118.5q0 45 17.5 84t50 68t79.5 45.5t106 16.5q80 0 138 -27.5t93 -75.5l-78 -69q-27 37 -64 56t-94 19
q-64 0 -101.5 -28.5t-37.5 -79.5q0 -39 23 -60.5t70 -31.5l57 -11q77 -16 120.5 -60t43.5 -120q0 -46 -18 -88.5t-53 -74.5t-85.5 -51.5t-115.5 -19.5z" />
    <glyph glyph-name="T" unicode="T" horiz-adv-x="561" 
d="M403 602l-121 -602h-108l120 602h-200l19 96h509l-19 -96h-200z" />
    <glyph glyph-name="U" unicode="U" horiz-adv-x="665" 
d="M276 698l-85 -425q-4 -19 -6.5 -36t-2.5 -33q0 -57 30.5 -88t86.5 -31q73 0 116 44t63 146l85 423h108l-84 -421q-16 -78 -40 -132.5t-59.5 -89.5t-84 -51t-111.5 -16q-103 0 -158.5 54.5t-55.5 157.5q0 22 2 45.5t8 52.5l80 400h108z" />
    <glyph glyph-name="V" unicode="V" horiz-adv-x="609" 
d="M188 0l-82 698h109l32 -315l23 -269h5l124 258l166 326h115l-364 -698h-128z" />
    <glyph glyph-name="W" unicode="W" horiz-adv-x="896" 
d="M131 0l-22 698h107l3 -322l-1 -257h7l120 291l126 288h123l11 -289l5 -293h7l98 248l136 334h110l-303 -698h-125l-14 335l-6 241h-6l-101 -235l-148 -341h-127z" />
    <glyph glyph-name="X" unicode="X" horiz-adv-x="615" 
d="M536 0h-116l-111 268h-6l-208 -268h-126l289 363l-144 335h115l109 -263h6l207 263h125l-290 -353z" />
    <glyph glyph-name="Y" unicode="Y" horiz-adv-x="597" 
d="M191 0l55 272l-147 426h110l107 -321h5l229 321h122l-319 -431l-54 -267h-108z" />
    <glyph glyph-name="Z" unicode="Z" horiz-adv-x="566" 
d="M478 0h-491l20 99l456 503h-344l19 96h473l-20 -99l-456 -503h362z" />
    <glyph glyph-name="bracketleft" unicode="[" horiz-adv-x="320" 
d="M5 -138l180 898h184l-16 -78h-90l-149 -742h90l-15 -78h-184z" />
    <glyph glyph-name="backslash" unicode="\" horiz-adv-x="421" 
d="M235 -151l-90 891h87l90 -891h-87z" />
    <glyph glyph-name="bracketright" unicode="]" horiz-adv-x="319" 
d="M336 760l-180 -898h-184l16 78h90l149 742h-91l16 78h184z" />
    <glyph glyph-name="asciicircum" unicode="^" horiz-adv-x="600" 
d="M481 289l-109 302h-7l-225 -302l-77 47l267 362h105l132 -373z" />
    <glyph glyph-name="underscore" unicode="_" horiz-adv-x="548" 
d="M-57 -173l18 88h489l-18 -88h-489z" />
    <glyph glyph-name="grave" unicode="`" horiz-adv-x="590" 
d="M192 750l93 44l64 -183l-64 -29z" />
    <glyph glyph-name="a" unicode="a" horiz-adv-x="586" 
d="M434 0q-35 0 -55.5 18t-20.5 50q0 17 3 29l4 19h-4q-32 -64 -70.5 -96t-98.5 -32q-72 0 -111 52t-39 139q0 68 17 132t49.5 113t78.5 78.5t104 29.5q51 0 88 -26.5t45 -72.5h5l17 87h104l-87 -433h67l-17 -87h-79zM232 77q32 0 56.5 14t44.5 36q43 46 57 116l21 105
q3 17 -2 34t-18 30.5t-33.5 22t-46.5 8.5q-58 0 -93 -35.5t-49 -104.5l-15 -73q-2 -12 -3.5 -27t-1.5 -27q0 -44 20.5 -71.5t62.5 -27.5z" />
    <glyph glyph-name="b" unicode="b" horiz-adv-x="577" 
d="M175 740h104l-67 -336h4q32 64 70.5 96t98.5 32q72 0 111 -52t39 -139q0 -68 -17 -132t-49.5 -113t-78.5 -78.5t-104 -29.5q-51 0 -88 26t-45 73h-5l-17 -87h-104zM267 77q57 0 92 35.5t49 104.5l15 73q2 12 3.5 26.5t1.5 27.5q0 44 -21 71.5t-64 27.5q-31 0 -55 -14.5
t-44 -35.5q-21 -23 -35.5 -51.5t-21.5 -63.5l-19 -95q-9 -45 16 -75.5t83 -30.5z" />
    <glyph glyph-name="c" unicode="c" horiz-adv-x="491" 
d="M237 -12q-87 0 -141 55.5t-54 162.5q0 68 19 127.5t54 103.5t83.5 69.5t107.5 25.5q72 0 118.5 -35t59.5 -92l-87 -35q-11 35 -32.5 54.5t-63.5 19.5q-54 0 -88 -34t-46 -97l-17 -86q-5 -25 -5 -44q0 -48 25 -77.5t77 -29.5q38 0 65.5 22t54.5 71l80 -38
q-33 -70 -86 -106.5t-124 -36.5z" />
    <glyph glyph-name="d" unicode="d" horiz-adv-x="586" 
d="M434 0q-35 0 -55.5 18t-20.5 50q0 17 3 29l4 19h-4q-32 -64 -70.5 -96t-98.5 -32q-72 0 -111 52t-39 139q0 68 17 132t49.5 113t78.5 78.5t104 29.5q51 0 88 -26.5t45 -72.5h5l61 307h104l-131 -653h67l-17 -87h-79zM234 77q31 0 55 14.5t44 35.5q44 47 57 115l19 95
q9 45 -16 75.5t-84 30.5q-56 0 -91 -35.5t-49 -104.5l-15 -73q-2 -12 -3.5 -26.5t-1.5 -27.5q0 -44 21 -71.5t64 -27.5z" />
    <glyph glyph-name="e" unicode="e" horiz-adv-x="512" 
d="M248 -12q-101 0 -153.5 57.5t-52.5 162.5q0 64 19.5 122.5t55.5 103.5t87 71.5t114 26.5q31 0 62.5 -8t56.5 -25t40.5 -44t15.5 -65q0 -83 -83.5 -127t-261.5 -48q-3 -20 -3 -33q0 -48 26.5 -77t83.5 -29q43 0 78 19t67 59l66 -55q-49 -61 -103 -86t-115 -25zM310 449
q-54 0 -93.5 -36.5t-51.5 -98.5l-5 -26q71 3 116 10t70.5 19t34.5 29t9 39q0 19 -7 31.5t-18.5 20t-25.5 10t-29 2.5z" />
    <glyph glyph-name="f" unicode="f" horiz-adv-x="326" 
d="M144 -71q-12 -62 -48 -95.5t-106 -33.5h-70l17 87h94l110 546h-78l17 87h79l18 91q12 62 48 95.5t106 33.5h77l-17 -87h-102l-26 -133h101l-17 -87h-102z" />
    <glyph glyph-name="g" unicode="g" horiz-adv-x="521" 
d="M477 -31q0 -34 -13 -66.5t-45.5 -58t-87.5 -41t-138 -15.5q-115 0 -164.5 31t-49.5 84q0 44 28 71t79 41l2 7q-27 8 -38.5 26t-11.5 44q0 40 29.5 65t78.5 35l1 7q-71 38 -71 131q0 41 15 77.5t44.5 64.5t72 44t97.5 16q27 0 50.5 -5t43.5 -13l3 16q14 73 78 73h76
l-17 -86h-97l-6 -29q46 -40 46 -109q0 -41 -15.5 -77t-45.5 -64t-73 -44t-98 -16q-30 0 -57 6q-28 -7 -46 -20.5t-18 -35.5q0 -35 62 -35h121q87 0 126 -31.5t39 -92.5zM372 -53q0 25 -16.5 39t-61.5 14h-175q-24 -13 -35 -31t-11 -39q0 -29 22 -47t78 -18h55q78 0 111 23.5
t33 58.5zM262 254q49 0 76 23.5t35 62.5q4 20 5 30.5t1 17.5q0 32 -20.5 50t-64.5 18q-49 0 -76 -23t-35 -63q-5 -23 -5.5 -32t-0.5 -16q0 -32 20.5 -50t64.5 -18z" />
    <glyph glyph-name="h" unicode="h" horiz-adv-x="573" 
d="M175 740h104l-66 -331h5q29 60 68 91.5t97 31.5q65 0 97.5 -37t32.5 -103q0 -17 -2 -33.5t-6 -36.5l-47 -235h63l-17 -87h-79q-33 0 -52.5 17t-19.5 49q0 6 0.5 12.5t1.5 11.5l45 225q6 30 6 55q0 35 -16 53.5t-52 18.5q-52 0 -91 -44q-22 -24 -38 -55.5t-22 -62.5
l-56 -280h-104z" />
    <glyph glyph-name="i" unicode="i" horiz-adv-x="271" 
d="M204 613q-29 0 -42 12t-13 30q0 10 5 35q5 23 21 38.5t51 15.5q29 0 42 -12t13 -30q0 -10 -5 -35q-5 -23 -21 -38.5t-51 -15.5zM121 0q-38 0 -58 19.5t-20 50.5q0 10 3 25l85 425h104l-87 -433h67l-17 -87h-77z" />
    <glyph glyph-name="j" unicode="j" horiz-adv-x="263" 
d="M133 520h104l-121 -603q-12 -59 -42.5 -88t-92.5 -29h-72l17 86h80zM206 613q-29 0 -42 12t-13 30q0 10 5 35q5 23 21 38.5t51 15.5q29 0 42 -12t13 -30q0 -10 -5 -35q-5 -23 -21 -38.5t-51 -15.5z" />
    <glyph glyph-name="k" unicode="k" horiz-adv-x="532" 
d="M175 740h104l-90 -451h6l83 88l153 143h123l-223 -210l91 -223h63l-17 -87h-57q-35 0 -56.5 15.5t-34.5 49.5l-71 178l-86 -81l-32 -162h-104z" />
    <glyph glyph-name="l" unicode="l" horiz-adv-x="270" 
d="M120 0q-38 0 -58 19.5t-20 50.5q0 10 3 25l129 645h104l-131 -653h72l-17 -87h-82z" />
    <glyph glyph-name="m" unicode="m" horiz-adv-x="859" 
d="M27 0l104 520h104l-22 -111h5q29 60 66.5 91.5t95.5 31.5q57 0 87 -32.5t34 -90.5h5q28 59 67.5 91t99.5 32q63 0 94.5 -36.5t31.5 -101.5q0 -36 -9 -78l-46 -229h63l-17 -87h-79q-34 0 -53.5 16.5t-19.5 48.5q0 13 3 25l45 226q3 15 5 29t2 26q0 34 -15.5 52.5
t-48.5 18.5q-46 0 -85 -44q-22 -24 -37 -56t-21 -62l-56 -280h-104l63 315q3 15 5 29.5t2 27.5q0 33 -14.5 51.5t-46.5 18.5q-26 0 -48 -12t-39 -32q-23 -26 -39 -57t-22 -61l-56 -280h-104z" />
    <glyph glyph-name="n" unicode="n" horiz-adv-x="573" 
d="M27 0l104 520h104l-22 -111h5q29 60 68 91.5t97 31.5q65 0 97.5 -37t32.5 -103q0 -17 -2 -33.5t-6 -36.5l-47 -235h63l-17 -87h-79q-33 0 -52.5 17t-19.5 49v10.5t2 13.5l45 225q6 30 6 55q0 35 -16 53.5t-52 18.5q-52 0 -91 -44q-22 -24 -38 -55.5t-22 -62.5l-56 -280
h-104z" />
    <glyph glyph-name="o" unicode="o" horiz-adv-x="548" 
d="M238 -12q-88 0 -142 55t-54 160q0 67 20 127t55.5 105t84.5 71t108 26q88 0 142 -55t54 -160q0 -68 -20 -127.5t-55.5 -104.5t-84.5 -71t-108 -26zM246 76q49 0 85.5 36t50.5 105l17 83q2 8 3 18t1 21q0 48 -25.5 76.5t-75.5 28.5q-49 0 -85.5 -36t-50.5 -105l-17 -83
q-2 -9 -3 -18.5t-1 -20.5q0 -48 25.5 -76.5t75.5 -28.5z" />
    <glyph glyph-name="p" unicode="p" horiz-adv-x="577" 
d="M131 520h104l-23 -116h4q32 64 70.5 96t98.5 32q72 0 111 -52t39 -139q0 -68 -17 -132t-49.5 -113t-78.5 -78.5t-104 -29.5q-51 0 -88 26t-45 73h-5l-57 -287h-104zM267 77q57 0 92 35.5t49 104.5l15 73q2 12 3.5 26.5t1.5 27.5q0 44 -21 71.5t-64 27.5q-31 0 -55.5 -14
t-43.5 -36q-21 -24 -35.5 -52t-21.5 -63l-19 -95q-9 -45 16 -75.5t83 -30.5z" />
    <glyph glyph-name="q" unicode="q" horiz-adv-x="576" 
d="M365 116h-4q-32 -64 -70.5 -96t-98.5 -32q-72 0 -111 52t-39 139q0 68 17 132t49.5 113t78.5 78.5t104 29.5q51 0 88 -26.5t45 -72.5h5l17 87h104l-144 -720h-104zM234 77q31 0 55 14t44 36q21 23 35.5 51.5t21.5 63.5l19 95q9 45 -16 75.5t-84 30.5q-56 0 -91 -35.5
t-49 -104.5l-15 -73q-2 -12 -3.5 -26.5t-1.5 -27.5q0 -44 21 -71.5t64 -27.5z" />
    <glyph glyph-name="r" unicode="r" horiz-adv-x="377" 
d="M27 0l104 520h104l-22 -111h6q9 20 22.5 40t32.5 35.5t43.5 25.5t55.5 10h29l-21 -103h-35q-69 0 -107 -33t-49 -90l-59 -294h-104z" />
    <glyph glyph-name="s" unicode="s" horiz-adv-x="482" 
d="M210 -12q-62 0 -115.5 24t-85.5 69l68 62q25 -33 57.5 -51t77.5 -18q50 0 77.5 22t27.5 59q0 21 -13 36.5t-51 22.5l-45 8q-63 11 -101 42t-38 94q0 34 12.5 65.5t37.5 55.5t63 38.5t89 14.5q116 0 180 -79l-68 -62q-18 24 -47 39.5t-71 15.5q-48 0 -71.5 -21t-23.5 -54
q0 -22 13.5 -37t50.5 -22l45 -7q65 -11 102 -43t37 -95q0 -39 -14.5 -71.5t-41.5 -56.5t-65.5 -37.5t-86.5 -13.5z" />
    <glyph glyph-name="t" unicode="t" horiz-adv-x="333" 
d="M158 0q-48 0 -70.5 21t-22.5 58q0 8 1 18t3 20l63 316h-76l17 87h39q29 0 39.5 12t15.5 39l18 91h97l-28 -142h104l-17 -87h-105l-69 -346h101l-17 -87h-93z" />
    <glyph glyph-name="u" unicode="u" horiz-adv-x="570" 
d="M229 520l-63 -316q-3 -14 -4.5 -28t-1.5 -25q0 -35 15 -54t50 -19q50 0 89 44q23 26 38.5 57.5t21.5 62.5l56 278h104l-87 -433h67l-17 -87h-80q-35 0 -54.5 18.5t-19.5 50.5q0 13 3 30l2 12h-5q-29 -60 -67 -91.5t-94 -31.5q-64 0 -96.5 37t-32.5 103q0 17 2 34t6 37
l64 321h104z" />
    <glyph glyph-name="v" unicode="v" horiz-adv-x="496" 
d="M131 0l-73 520h102l29 -231l19 -194h5l91 194l119 231h111l-279 -520h-124z" />
    <glyph glyph-name="w" unicode="w" horiz-adv-x="762" 
d="M67 520h102l8 -225l5 -186h5l73 162l115 249h99l18 -230l12 -181h5l70 167l106 244h102l-237 -520h-116l-21 235l-10 150h-5l-63 -141l-115 -244h-120z" />
    <glyph glyph-name="x" unicode="x" horiz-adv-x="504" 
d="M-38 0l232 270l-120 250h112l80 -188h5l152 188h116l-226 -263l127 -257h-113l-86 194h-5l-158 -194h-116z" />
    <glyph glyph-name="y" unicode="y" horiz-adv-x="495" 
d="M425 520h111l-338 -623q-14 -26 -27.5 -44t-30 -30t-37.5 -17.5t-48 -5.5h-79l17 86h95l49 92l-79 542h102l31 -231l19 -191h5l91 191z" />
    <glyph glyph-name="z" unicode="z" horiz-adv-x="466" 
d="M-8 0l17 86l326 348h-256l17 86h381l-17 -86l-327 -348h271l-17 -86h-395z" />
    <glyph glyph-name="braceleft" unicode="{" horiz-adv-x="343" 
d="M125 -138q-35 0 -54 18t-19 50q0 11 3 26l42 212q3 15 3 28q0 34 -19.5 51.5t-55.5 17.5l19 94q48 0 74 22t35 66l45 223q8 45 33 67.5t63 22.5h100l-15 -81h-85l-47 -237q-5 -23 -13.5 -44.5t-22.5 -38.5t-35 -28.5t-51 -14.5l-2 -10q35 -7 55.5 -31t20.5 -61
q0 -8 -1.5 -17.5t-3.5 -17.5l-47 -236h85l-17 -81h-90z" />
    <glyph glyph-name="bar" unicode="|" horiz-adv-x="344" 
d="M47 -138l180 898h91l-180 -898h-91z" />
    <glyph glyph-name="braceright" unicode="}" horiz-adv-x="344" 
d="M-16 -57h84l47 237q4 22 13 44t23 39t35.5 28.5t51.5 14.5l1 10q-34 7 -54.5 31t-20.5 62q0 8 1 17t3 17l47 236h-85l17 81h91q35 0 53.5 -18t18.5 -50v-11.5t-2 -14.5l-43 -212q-3 -15 -3 -28q0 -35 20 -51.5t56 -16.5l-19 -94q-48 0 -74.5 -23t-35.5 -66l-44 -223
q-9 -45 -33.5 -67.5t-62.5 -22.5h-101z" />
    <glyph glyph-name="asciitilde" unicode="~" horiz-adv-x="600" 
d="M406 225q-37 0 -62.5 11t-54.5 28q-24 14 -47.5 24t-53.5 10q-23 0 -42 -8t-44 -24l-30 63q23 24 54 40t79 16q37 0 62.5 -11t54.5 -27q25 -14 48.5 -24t53.5 -10q23 0 42 7.5t43 24.5l30 -64q-23 -24 -54 -40t-79 -16z" />
    <glyph glyph-name="uni00A0" unicode="&#xa0;" horiz-adv-x="236" 
 />
    <glyph glyph-name="exclamdown" unicode="&#xa1;" horiz-adv-x="290" 
d="M0 -178l40 200l92 298h48l-28 -298l-40 -200h-112zM169 381q-32 0 -47 14t-15 35q0 8 1.5 19.5t3.5 19.5q5 26 23.5 44.5t55.5 18.5q32 0 47 -14t15 -35q0 -7 -1.5 -18.5t-3.5 -20.5q-5 -26 -23 -44.5t-56 -18.5z" />
    <glyph glyph-name="cent" unicode="&#xa2;" horiz-adv-x="517" 
d="M179 -4q-64 17 -100.5 72.5t-36.5 140.5q0 60 16.5 115t48 98t76.5 70.5t102 33.5l21 104h86l-22 -108q49 -12 81 -43t46 -75l-85 -40q-8 28 -23.5 46.5t-41.5 26.5l-71 -361q32 6 57 27.5t48 60.5l75 -42q-33 -59 -79.5 -92.5t-112.5 -39.5l-21 -104h-86zM143 183
q0 -35 14.5 -62t43.5 -39l71 355q-44 -11 -71 -44.5t-37 -84.5l-17 -86q-4 -17 -4 -39z" />
    <glyph glyph-name="sterling" unicode="&#xa3;" horiz-adv-x="584" 
d="M28 0l23 116q30 12 49.5 32.5t31.5 44t16.5 49t4.5 48.5h-93l18 89h67q-2 17 -4 35.5t-2 37.5q0 55 19 102.5t53.5 82t82.5 54t107 19.5q77 0 125.5 -30.5t79.5 -87.5l-88 -56q-20 38 -49 58t-76 20q-67 0 -106 -44.5t-39 -125.5q0 -17 1.5 -34.5t3.5 -30.5h201l-18 -89
h-174q-1 -35 -11 -64.5t-25 -53t-33.5 -41.5t-36.5 -28l-2 -7h339l-19 -96h-446z" />
    <glyph glyph-name="currency" unicode="&#xa4;" horiz-adv-x="617" 
d="M286 114q-41 0 -72.5 10t-54.5 28l-115 -94l-54 67l117 96q-12 33 -12 73q0 15 1.5 31.5t4.5 31.5q6 32 19.5 67.5t35.5 61.5l-82 101l70 57l79 -97q60 37 139 37q41 0 72.5 -10t54.5 -28l115 94l54 -67l-117 -96q12 -33 12 -73q0 -15 -1.5 -31.5t-4.5 -31.5
q-6 -32 -19.5 -67.5t-35.5 -61.5l82 -101l-70 -57l-79 97q-60 -37 -139 -37zM293 198q53 0 90.5 30.5t49.5 90.5l12 60q2 10 3 20t1 17q0 42 -25 63t-69 21q-53 0 -90.5 -30.5t-49.5 -90.5l-12 -60q-2 -10 -3 -20t-1 -17q0 -42 25 -63t69 -21z" />
    <glyph glyph-name="yen" unicode="&#xa5;" horiz-adv-x="608" 
d="M334 142l-28 -142h-108l28 142h-165l15 76h166l16 83h-165l15 76h120l-109 321h115l93 -296h4l211 296h126l-240 -321h122l-15 -76h-169l-16 -83h168l-15 -76h-169z" />
    <glyph glyph-name="brokenbar" unicode="&#xa6;" horiz-adv-x="344" 
d="M155 404l72 356h91l-71 -356h-92zM47 -138l72 356h91l-71 -356h-92z" />
    <glyph glyph-name="section" unicode="&#xa7;" horiz-adv-x="556" 
d="M417 30q0 -42 -16.5 -77t-45.5 -59.5t-68.5 -38t-85.5 -13.5q-54 0 -101.5 16t-79.5 50l65 64q20 -23 52 -35.5t74 -12.5q44 0 75.5 25t31.5 66q0 29 -17.5 48t-56.5 32l-63 20q-66 21 -93 54.5t-27 76.5q0 59 35 100t98 57l2 9q-29 23 -41.5 51t-12.5 61q0 42 16.5 76.5
t45.5 58.5t68.5 37.5t85.5 13.5q54 0 101.5 -16t79.5 -51l-65 -63q-42 48 -126 48q-22 0 -41.5 -6.5t-34 -18t-23 -27.5t-8.5 -36q0 -29 17.5 -48t56.5 -32l63 -20q66 -21 93.5 -55t27.5 -77q0 -58 -35 -99.5t-99 -56.5l-1 -10q28 -22 40.5 -50.5t12.5 -61.5zM401 272
q0 34 -18.5 55t-62.5 35l-63 19q-15 5 -25 11q-38 -20 -56 -48.5t-18 -60.5q0 -35 18.5 -55.5t62.5 -34.5l63 -20q8 -2 14.5 -4.5t11.5 -5.5q37 20 55 48.5t18 60.5z" />
    <glyph glyph-name="dieresis" unicode="&#xa8;" horiz-adv-x="589" 
d="M212 610q-26 0 -38.5 11t-12.5 29q0 8 4 31q5 23 21 38t48 15q51 0 51 -40q0 -5 -1 -11.5t-3 -18.5q-5 -24 -21 -39t-48 -15zM401 610q-26 0 -38.5 11t-12.5 29q0 8 4 31q5 23 21 38t48 15q51 0 51 -40q0 -5 -1 -11.5t-3 -18.5q-5 -24 -21 -39t-48 -15z" />
    <glyph glyph-name="copyright" unicode="&#xa9;" horiz-adv-x="778" 
d="M354 -12q-66 0 -119.5 22t-91.5 62.5t-59 96.5t-21 124q0 89 30 165t82.5 131.5t125 87t156.5 31.5q66 0 119.5 -22t91.5 -62t59 -96t21 -123q0 -90 -30 -166.5t-82.5 -132t-125 -87t-156.5 -31.5zM358 48q57 0 108.5 19.5t92 53t68.5 79t38 97.5q7 32 11 60.5t4 47.5
q0 55 -17 100t-47 77t-71.5 49t-91.5 17q-57 0 -108.5 -19.5t-92 -53t-68.5 -78.5t-38 -96q-7 -32 -11 -60.5t-4 -47.5q0 -56 17 -101.5t47 -77.5t71.5 -49t91.5 -17zM381 145q-69 0 -109.5 43t-40.5 117q0 50 15 95t42 78.5t64.5 53.5t82.5 20q63 0 97 -30.5t47 -73.5
l-75 -32q-6 27 -24 42.5t-47 15.5q-38 0 -60.5 -25t-30.5 -65l-13 -66q-3 -15 -3 -27q0 -30 17 -49t49 -19q27 0 49.5 16t42.5 45l66 -41q-26 -41 -67.5 -69.5t-101.5 -28.5z" />
    <glyph glyph-name="ordfeminine" unicode="&#xaa;" horiz-adv-x="412" 
d="M389 342h-44q-55 0 -55 46v6t1 7h-4q-16 -28 -45 -46.5t-69 -18.5q-42 0 -69 23t-27 64q0 60 43 91.5t125 31.5h68l4 21q3 15 3 25q0 51 -59 51q-31 0 -54 -14t-40 -36l-45 40q23 29 60 50t90 21q57 0 92 -26t35 -79q0 -8 -0.5 -16t-2.5 -18l-32 -159h37zM238 497
q-70 0 -79 -46q-2 -10 -2.5 -15t-0.5 -8q0 -17 12.5 -25.5t35.5 -8.5q32 0 58.5 16.5t31.5 45.5l9 41h-65z" />
    <glyph glyph-name="guillemotleft" unicode="&#xab;" horiz-adv-x="526" 
d="M187 67l-154 167l19 97l211 161l26 -73l-159 -145l100 -142zM409 67l-154 167l19 97l211 161l26 -73l-159 -145l100 -142z" />
    <glyph glyph-name="logicalnot" unicode="&#xac;" horiz-adv-x="600" 
d="M395 77l37 184h-365l18 88h454l-55 -272h-89z" />
    <glyph glyph-name="uni00AD" unicode="&#xad;" horiz-adv-x="391" 
d="M59 252l21 105h270l-21 -105h-270z" />
    <glyph glyph-name="registered" unicode="&#xae;" horiz-adv-x="462" 
d="M256 297q-38 0 -70.5 13.5t-56 36.5t-36.5 55t-13 70q0 52 17 95.5t47 75t71 49.5t88 18q38 0 70 -13.5t55.5 -36.5t36.5 -55.5t13 -69.5q0 -52 -17 -95.5t-47 -75t-70.5 -49.5t-87.5 -18zM261 338q62 0 107 38.5t58 102.5q4 20 5.5 35t1.5 22q0 61 -38 97t-97 36
q-62 0 -107 -38.5t-58 -102.5q-5 -20 -6 -35.5t-1 -21.5q0 -62 38 -97.5t97 -35.5zM231 400h-48l42 209h85q33 0 48.5 -17t15.5 -42q0 -24 -14 -44t-39 -26l29 -80h-51l-25 73h-28zM289 509q26 0 30 22q4 17 4 21q0 18 -21 18h-37l-12 -61h36z" />
    <glyph glyph-name="macron" unicode="&#xaf;" horiz-adv-x="591" 
d="M190 714h275l-17 -82h-275z" />
    <glyph glyph-name="degree" unicode="&#xb0;" horiz-adv-x="456" 
d="M263 352q-33 0 -61 12t-49 33t-32.5 50t-11.5 64q0 43 14.5 79.5t40.5 63t61.5 41.5t76.5 15q33 0 61 -12t49 -33t32.5 -50.5t11.5 -63.5q0 -43 -14.5 -79.5t-40.5 -63t-61.5 -41.5t-76.5 -15zM272 428q23 0 42 9.5t32.5 26t20.5 38.5t7 48q0 35 -21.5 59.5t-59.5 24.5
q-23 0 -42 -9.5t-32.5 -26t-20.5 -39t-7 -47.5q0 -35 22 -59.5t59 -24.5z" />
    <glyph glyph-name="plusminus" unicode="&#xb1;" horiz-adv-x="600" 
d="M234 166l37 186h-181l17 87h181l37 186h96l-37 -186h179l-17 -87h-180l-37 -186h-95zM21 0l17 87h455l-17 -87h-455z" />
    <glyph glyph-name="twosuperior" unicode="&#xb2;" horiz-adv-x="339" 
d="M312 329h-270l14 71l136 93q36 26 56 44t25 45q2 10 2 16q0 20 -14.5 30.5t-35.5 10.5q-28 0 -45.5 -16.5t-26.5 -37.5l-65 26q18 38 52 65.5t91 27.5q53 0 89.5 -26t36.5 -75q0 -27 -11 -49t-29 -41t-41 -35t-48 -31l-84 -56h180z" />
    <glyph glyph-name="threesuperior" unicode="&#xb3;" horiz-adv-x="336" 
d="M202 550q38 0 53 14t18 29q2 10 2 15q0 14 -13 25t-36 11q-25 0 -46.5 -11t-39.5 -35l-43 45q25 28 57 44.5t80 16.5q57 0 88 -25.5t31 -64.5q0 -37 -24.5 -61.5t-63.5 -32.5v-2q29 -5 45.5 -24t16.5 -50q0 -52 -40.5 -86.5t-112.5 -34.5q-58 0 -90 21.5t-44 49.5l55 39
q10 -22 29 -35.5t51 -13.5q62 0 72 52q2 10 2 12q0 19 -15 30t-44 11h-42l12 61h42z" />
    <glyph glyph-name="acute" unicode="&#xb4;" horiz-adv-x="589" 
d="M318 582l-63 34l110 179l87 -46z" />
    <glyph glyph-name="mu" unicode="&#xb5;" horiz-adv-x="576" 
d="M-13 -200l144 720h104l-63 -316q-3 -14 -4.5 -28t-1.5 -25q0 -35 15 -54t50 -19q50 0 89 44q23 26 38.5 57.5t21.5 62.5l56 278h104l-87 -433h67l-17 -87h-79q-35 0 -55 18.5t-20 50.5q0 13 3 30l2 12h-5q-31 -67 -63 -95t-77 -28q-41 0 -61 23.5t-25 65.5h-5l-1 -147
l-26 -130h-104z" />
    <glyph glyph-name="paragraph" unicode="&#xb6;" horiz-adv-x="636" 
d="M237 285q-32 0 -60 14.5t-49 39t-33.5 57.5t-12.5 70q0 49 18.5 91.5t51.5 73.5t77.5 49t96.5 18h326l-16 -82h-62l-154 -765h-84l153 765h-101l-154 -765h-84z" />
    <glyph glyph-name="periodcentered" unicode="&#xb7;" horiz-adv-x="332" 
d="M158 229q-32 0 -47 14t-15 35q0 8 1.5 19.5t3.5 19.5q5 26 23.5 44.5t55.5 18.5q32 0 47 -14t15 -35q0 -7 -1.5 -18.5t-3.5 -20.5q-5 -26 -23 -44.5t-56 -18.5z" />
    <glyph glyph-name="cedilla" unicode="&#xb8;" horiz-adv-x="590" 
d="M274 -209q-39 0 -66 12t-39 29l45 45q7 -9 22 -17.5t37 -8.5q21 0 34.5 9.5t13.5 24.5q0 14 -13 24.5t-47 13.5l-24 2l35 99h57l-30 -83l2 -3q8 2 17 3.5t20 1.5q25 0 42.5 -13.5t17.5 -42.5q0 -46 -35 -71t-89 -25z" />
    <glyph glyph-name="onesuperior" unicode="&#xb9;" horiz-adv-x="341" 
d="M65 329l12 60h95l50 251h-6l-85 -78l-43 42l103 94h118l-62 -309h86l-12 -60h-256z" />
    <glyph glyph-name="ordmasculine" unicode="&#xba;" horiz-adv-x="405" 
d="M226 336q-62 0 -99.5 39.5t-37.5 104.5q0 31 6 61q7 34 22.5 63.5t39.5 51.5t55.5 35t70.5 13q62 0 99.5 -39.5t37.5 -103.5q0 -33 -6 -61q-7 -34 -22.5 -64t-39 -52t-55.5 -35t-71 -13zM235 399q36 0 60 25t32 67l12 60q3 15 3 25q0 30 -18 48t-50 18q-36 0 -59.5 -25.5
t-32.5 -67.5l-12 -59q-3 -15 -3 -26q0 -30 18 -47.5t50 -17.5z" />
    <glyph glyph-name="guillemotright" unicode="&#xbb;" horiz-adv-x="526" 
d="M241 140l158 144l-100 142l43 66l155 -167l-20 -97l-211 -161zM19 140l158 144l-100 142l43 66l155 -167l-20 -97l-211 -161z" />
    <glyph glyph-name="onequarter" unicode="&#xbc;" horiz-adv-x="870" 
d="M65 329l12 60h95l50 251h-6l-85 -78l-43 42l103 94h118l-62 -309h86l-12 -60h-256zM101 0l630 698h90l-629 -698h-91zM639 0l14 72h-177l13 65l206 232h90l-48 -240h49l-12 -57h-48l-14 -72h-73zM695 282h-5l-136 -153h110z" />
    <glyph glyph-name="onehalf" unicode="&#xbd;" horiz-adv-x="867" 
d="M65 329l12 60h95l50 251h-6l-85 -78l-43 42l103 94h118l-62 -309h86l-12 -60h-256zM101 0l630 698h90l-629 -698h-91zM778 0h-270l14 71l136 93q36 26 56 44t25 45q2 10 2 16q0 20 -14.5 30.5t-35.5 10.5q-28 0 -45.5 -16.5t-26.5 -37.5l-65 26q18 38 52 65.5t91 27.5
q53 0 89.5 -26t36.5 -75q0 -27 -11 -49t-29 -41t-41 -35t-48 -31l-84 -56h180z" />
    <glyph glyph-name="threequarters" unicode="&#xbe;" horiz-adv-x="849" 
d="M202 550q38 0 53 14t18 29q2 10 2 15q0 14 -13 25t-36 11q-25 0 -46.5 -11t-39.5 -35l-43 45q25 28 57 44.5t80 16.5q57 0 88 -25.5t31 -64.5q0 -37 -24.5 -61.5t-63.5 -32.5v-2q29 -5 45.5 -24t16.5 -50q0 -52 -40.5 -86.5t-112.5 -34.5q-58 0 -90 21.5t-44 49.5l55 39
q10 -22 29 -35.5t51 -13.5q62 0 72 52q2 10 2 12q0 19 -15 30t-44 11h-42l12 61h42zM80 0l630 698h90l-629 -698h-91zM618 0l14 72h-177l13 65l206 232h90l-48 -240h49l-12 -57h-48l-14 -72h-73zM674 282h-5l-136 -153h110z" />
    <glyph glyph-name="questiondown" unicode="&#xbf;" horiz-adv-x="480" 
d="M173 -190q-88 0 -139 43.5t-51 120.5q0 41 15.5 79.5t44 69.5t68.5 53t88 31l20 94h101l-32 -160q-81 -5 -130 -37t-59 -82q-2 -7 -3 -18t-1 -20q0 -38 24.5 -59.5t66.5 -21.5q50 0 81.5 29t50.5 77l87 -37q-32 -73 -87.5 -117.5t-144.5 -44.5zM286 381q-32 0 -47 14
t-15 35q0 8 1.5 19.5t3.5 19.5q5 26 23.5 44.5t55.5 18.5q32 0 47 -14t15 -35q0 -7 -1.5 -18.5t-3.5 -20.5q-5 -26 -23 -44.5t-56 -18.5z" />
    <glyph glyph-name="Agrave" unicode="&#xc0;" horiz-adv-x="638" 
d="M455 0l-22 189h-250l-97 -189h-116l367 698h140l88 -698h-110zM391 598h-7l-156 -315h196zM308 918l92 43l65 -183l-64 -29z" />
    <glyph glyph-name="Aacute" unicode="&#xc1;" horiz-adv-x="638" 
d="M455 0l-22 189h-250l-97 -189h-116l367 698h140l88 -698h-110zM391 598h-7l-156 -315h196zM429 749l-64 34l110 179l87 -46z" />
    <glyph glyph-name="Acircumflex" unicode="&#xc2;" horiz-adv-x="638" 
d="M455 0l-22 189h-250l-97 -189h-116l367 698h140l88 -698h-110zM391 598h-7l-156 -315h196zM498 944l90 -150l-57 -42l-95 115l-137 -116l-53 43l146 150h106z" />
    <glyph glyph-name="Atilde" unicode="&#xc3;" horiz-adv-x="638" 
d="M455 0l-22 189h-250l-97 -189h-116l367 698h140l88 -698h-110zM391 598h-7l-156 -315h196zM495 774q-24 0 -41.5 8t-34.5 16q-39 23 -68 23q-16 0 -29 -6.5t-30 -19.5l-34 52q19 24 45 40.5t61 16.5q24 0 41.5 -7.5t34.5 -16.5q39 -23 68 -23q17 0 29.5 6.5t29.5 19.5
l34 -51q-19 -24 -45 -41t-61 -17z" />
    <glyph glyph-name="Adieresis" unicode="&#xc4;" horiz-adv-x="638" 
d="M455 0l-22 189h-250l-97 -189h-116l367 698h140l88 -698h-110zM391 598h-7l-156 -315h196zM323 776q-26 0 -38.5 11t-12.5 29q0 10 4 33q5 23 21 38t48 15q51 0 51 -40q0 -5 -1 -12.5t-3 -19.5q-5 -24 -21 -39t-48 -15zM512 776q-26 0 -38.5 11t-12.5 29q0 10 4 33
q5 23 21 38t48 15q51 0 51 -40q0 -5 -1 -12.5t-3 -19.5q-5 -24 -21 -39t-48 -15z" />
    <glyph glyph-name="Aring" unicode="&#xc5;" horiz-adv-x="638" 
d="M455 0l-22 189h-250l-97 -189h-116l367 698h140l88 -698h-110zM391 598h-7l-156 -315h196zM414 734q-50 0 -81 31t-31 78q0 33 11 60t30.5 45.5t46 29t57.5 10.5q50 0 81 -30.5t31 -78.5q0 -33 -11 -60t-30.5 -45.5t-46 -29t-57.5 -10.5zM420 793q26 0 41 14t20 39
q6 28 6 41q0 20 -11.5 31t-34.5 11q-26 0 -41 -14t-20 -39q-3 -14 -4.5 -23.5t-1.5 -17.5q0 -20 11.5 -31t34.5 -11z" />
    <glyph glyph-name="AE" unicode="&#xc6;" horiz-adv-x="900" 
d="M400 189h-206l-123 -189h-119l466 698h510l-19 -96h-318l-40 -202h284l-19 -96h-284l-42 -208h332l-19 -96h-441zM465 605l-209 -322h163l64 322h-18z" />
    <glyph glyph-name="Ccedilla" unicode="&#xc7;" horiz-adv-x="616" 
d="M392 613q-76 0 -128.5 -53.5t-70.5 -141.5l-23 -113q-4 -17 -5 -31.5t-1 -27.5q0 -75 36.5 -118t105.5 -43q66 0 105.5 32t69.5 87l90 -43q-45 -86 -109 -128t-152 -45l-16 -47l2 -3q17 5 36 5q26 0 43 -13.5t17 -42.5q0 -46 -35 -71t-88 -25q-40 0 -67 12t-39 29l45 45
q7 -9 22 -17.5t37 -8.5t35 9.5t13 24.5q0 14 -13 24.5t-47 13.5l-24 2l23 66q-44 7 -80.5 28t-62.5 56t-40.5 83.5t-14.5 110.5q0 91 25.5 171.5t71.5 140.5t109.5 94.5t139.5 34.5q176 0 228 -164l-97 -42q-16 51 -47.5 80t-93.5 29z" />
    <glyph glyph-name="Egrave" unicode="&#xc8;" horiz-adv-x="571" 
d="M32 0l140 698h427l-20 -96h-318l-40 -202h284l-19 -96h-284l-42 -208h332l-19 -96h-441zM286 918l92 43l65 -183l-64 -29z" />
    <glyph glyph-name="Eacute" unicode="&#xc9;" horiz-adv-x="571" 
d="M32 0l140 698h427l-20 -96h-318l-40 -202h284l-19 -96h-284l-42 -208h332l-19 -96h-441zM407 749l-64 34l110 179l87 -46z" />
    <glyph glyph-name="Ecircumflex" unicode="&#xca;" horiz-adv-x="571" 
d="M32 0l140 698h427l-20 -96h-318l-40 -202h284l-19 -96h-284l-42 -208h332l-19 -96h-441zM476 944l90 -150l-57 -42l-95 115l-137 -116l-53 43l146 150h106z" />
    <glyph glyph-name="Edieresis" unicode="&#xcb;" horiz-adv-x="571" 
d="M32 0l140 698h427l-20 -96h-318l-40 -202h284l-19 -96h-284l-42 -208h332l-19 -96h-441zM301 776q-26 0 -38.5 11t-12.5 29q0 10 4 33q5 23 21 38t48 15q51 0 51 -40q0 -5 -1 -12.5t-3 -19.5q-5 -24 -21 -39t-48 -15zM490 776q-26 0 -38.5 11t-12.5 29q0 10 4 33
q5 23 21 38t48 15q51 0 51 -40q0 -5 -1 -12.5t-3 -19.5q-5 -24 -21 -39t-48 -15z" />
    <glyph glyph-name="Igrave" unicode="&#xcc;" horiz-adv-x="398" 
d="M3 0l18 90h90l104 518h-90l18 90h288l-18 -90h-90l-104 -518h90l-18 -90h-288zM191 918l92 43l65 -183l-64 -29z" />
    <glyph glyph-name="Iacute" unicode="&#xcd;" horiz-adv-x="398" 
d="M3 0l18 90h90l104 518h-90l18 90h288l-18 -90h-90l-104 -518h90l-18 -90h-288zM312 749l-64 34l110 179l87 -46z" />
    <glyph glyph-name="Icircumflex" unicode="&#xce;" horiz-adv-x="398" 
d="M3 0l18 90h90l104 518h-90l18 90h288l-18 -90h-90l-104 -518h90l-18 -90h-288zM381 944l90 -150l-57 -42l-95 115l-137 -116l-53 43l146 150h106z" />
    <glyph glyph-name="Idieresis" unicode="&#xcf;" horiz-adv-x="398" 
d="M3 0l18 90h90l104 518h-90l18 90h288l-18 -90h-90l-104 -518h90l-18 -90h-288zM206 776q-26 0 -38.5 11t-12.5 29q0 10 4 33q5 23 21 38t48 15q51 0 51 -40q0 -5 -1 -12.5t-3 -19.5q-5 -24 -21 -39t-48 -15zM395 776q-26 0 -38.5 11t-12.5 29q0 10 4 33q5 23 21 38t48 15
q51 0 51 -40q0 -5 -1 -12.5t-3 -19.5q-5 -24 -21 -39t-48 -15z" />
    <glyph glyph-name="Eth" unicode="&#xd0;" horiz-adv-x="669" 
d="M100 319h-75l17 84h75l59 295h213q117 0 184 -67.5t67 -199.5q0 -86 -23.5 -164t-69 -137.5t-112 -94.5t-151.5 -35h-248zM291 97q81 0 136.5 49t75.5 146l20 100q3 17 4.5 33.5t1.5 28.5q0 75 -37.5 111t-101.5 36h-125l-39 -198h124l-17 -84h-124l-45 -222h127z" />
    <glyph glyph-name="Ntilde" unicode="&#xd1;" horiz-adv-x="691" 
d="M298 385l-49 155h-6l-108 -540h-103l140 698h120l136 -385l49 -155h6l108 540h103l-140 -698h-120zM525 774q-24 0 -41.5 8t-34.5 16q-39 23 -68 23q-16 0 -29 -6.5t-30 -19.5l-34 52q19 24 45 40.5t61 16.5q24 0 41.5 -7.5t34.5 -16.5q39 -23 68 -23q17 0 29.5 6.5
t29.5 19.5l34 -51q-19 -24 -45 -41t-61 -17z" />
    <glyph glyph-name="Ograve" unicode="&#xd2;" horiz-adv-x="687" 
d="M303 -12q-51 0 -96 17t-78.5 51.5t-53 86.5t-19.5 122q0 88 25 168.5t71.5 142t112.5 98t147 36.5q51 0 96.5 -17t79 -51.5t53 -86.5t19.5 -122q0 -88 -25.5 -168.5t-72 -142t-112.5 -98t-147 -36.5zM313 85q84 0 137 53.5t73 151.5l22 106q4 17 5 33t1 29q0 73 -38 114
t-109 41q-83 0 -137.5 -54t-74.5 -153l-21 -104q-4 -18 -5 -33.5t-1 -28.5q0 -73 38 -114t110 -41zM325 918l92 43l65 -183l-64 -29z" />
    <glyph glyph-name="Oacute" unicode="&#xd3;" horiz-adv-x="687" 
d="M303 -12q-51 0 -96 17t-78.5 51.5t-53 86.5t-19.5 122q0 88 25 168.5t71.5 142t112.5 98t147 36.5q51 0 96.5 -17t79 -51.5t53 -86.5t19.5 -122q0 -88 -25.5 -168.5t-72 -142t-112.5 -98t-147 -36.5zM313 85q84 0 137 53.5t73 151.5l22 106q4 17 5 33t1 29q0 73 -38 114
t-109 41q-83 0 -137.5 -54t-74.5 -153l-21 -104q-4 -18 -5 -33.5t-1 -28.5q0 -73 38 -114t110 -41zM446 749l-64 34l110 179l87 -46z" />
    <glyph glyph-name="Ocircumflex" unicode="&#xd4;" horiz-adv-x="687" 
d="M303 -12q-51 0 -96 17t-78.5 51.5t-53 86.5t-19.5 122q0 88 25 168.5t71.5 142t112.5 98t147 36.5q51 0 96.5 -17t79 -51.5t53 -86.5t19.5 -122q0 -88 -25.5 -168.5t-72 -142t-112.5 -98t-147 -36.5zM313 85q84 0 137 53.5t73 151.5l22 106q4 17 5 33t1 29q0 73 -38 114
t-109 41q-83 0 -137.5 -54t-74.5 -153l-21 -104q-4 -18 -5 -33.5t-1 -28.5q0 -73 38 -114t110 -41zM515 944l90 -150l-57 -42l-95 115l-137 -116l-53 43l146 150h106z" />
    <glyph glyph-name="Otilde" unicode="&#xd5;" horiz-adv-x="687" 
d="M303 -12q-51 0 -96 17t-78.5 51.5t-53 86.5t-19.5 122q0 88 25 168.5t71.5 142t112.5 98t147 36.5q51 0 96.5 -17t79 -51.5t53 -86.5t19.5 -122q0 -88 -25.5 -168.5t-72 -142t-112.5 -98t-147 -36.5zM313 85q84 0 137 53.5t73 151.5l22 106q4 17 5 33t1 29q0 73 -38 114
t-109 41q-83 0 -137.5 -54t-74.5 -153l-21 -104q-4 -18 -5 -33.5t-1 -28.5q0 -73 38 -114t110 -41zM512 774q-24 0 -41.5 8t-34.5 16q-39 23 -68 23q-16 0 -29 -6.5t-30 -19.5l-34 52q19 24 45 40.5t61 16.5q24 0 41.5 -7.5t34.5 -16.5q39 -23 68 -23q17 0 29.5 6.5
t29.5 19.5l34 -51q-19 -24 -45 -41t-61 -17z" />
    <glyph glyph-name="Odieresis" unicode="&#xd6;" horiz-adv-x="687" 
d="M303 -12q-51 0 -96 17t-78.5 51.5t-53 86.5t-19.5 122q0 88 25 168.5t71.5 142t112.5 98t147 36.5q51 0 96.5 -17t79 -51.5t53 -86.5t19.5 -122q0 -88 -25.5 -168.5t-72 -142t-112.5 -98t-147 -36.5zM313 85q84 0 137 53.5t73 151.5l22 106q4 17 5 33t1 29q0 73 -38 114
t-109 41q-83 0 -137.5 -54t-74.5 -153l-21 -104q-4 -18 -5 -33.5t-1 -28.5q0 -73 38 -114t110 -41zM340 776q-26 0 -38.5 11t-12.5 29q0 10 4 33q5 23 21 38t48 15q51 0 51 -40q0 -5 -1 -12.5t-3 -19.5q-5 -24 -21 -39t-48 -15zM529 776q-26 0 -38.5 11t-12.5 29q0 10 4 33
q5 23 21 38t48 15q51 0 51 -40q0 -5 -1 -12.5t-3 -19.5q-5 -24 -21 -39t-48 -15z" />
    <glyph glyph-name="multiply" unicode="&#xd7;" horiz-adv-x="600" 
d="M302 240l-178 -155l-55 68l179 157l-117 154l72 61l116 -154l178 154l55 -68l-179 -156l116 -154l-72 -61z" />
    <glyph glyph-name="Oslash" unicode="&#xd8;" horiz-adv-x="687" 
d="M302 -12q-45 0 -85 13t-72 40l-80 -93l-62 54l89 104q-17 32 -26.5 71t-9.5 88q0 88 25.5 168.5t72 142t112.5 98t147 36.5q45 0 85 -13t72 -40l80 93l62 -54l-89 -104q17 -32 26.5 -71t9.5 -88q0 -88 -25.5 -168.5t-72 -142t-112.5 -98t-147 -36.5zM169 301
q-4 -17 -5.5 -33t-1.5 -30q0 -29 7 -51l339 390q-39 37 -104 37q-84 0 -139 -54.5t-75 -154.5zM311 84q84 0 139 54.5t75 154.5l21 104q4 17 5.5 33t1.5 30q0 29 -7 51l-339 -390q39 -37 104 -37z" />
    <glyph glyph-name="Ugrave" unicode="&#xd9;" horiz-adv-x="665" 
d="M276 698l-85 -425q-4 -19 -6.5 -36t-2.5 -33q0 -57 30.5 -88t86.5 -31q73 0 116 44t63 146l85 423h108l-84 -421q-16 -78 -40 -132.5t-59.5 -89.5t-84 -51t-111.5 -16q-103 0 -158.5 54.5t-55.5 157.5q0 22 2 45.5t8 52.5l80 400h108zM319 918l92 43l65 -183l-64 -29z
" />
    <glyph glyph-name="Uacute" unicode="&#xda;" horiz-adv-x="665" 
d="M276 698l-85 -425q-4 -19 -6.5 -36t-2.5 -33q0 -57 30.5 -88t86.5 -31q73 0 116 44t63 146l85 423h108l-84 -421q-16 -78 -40 -132.5t-59.5 -89.5t-84 -51t-111.5 -16q-103 0 -158.5 54.5t-55.5 157.5q0 22 2 45.5t8 52.5l80 400h108zM440 749l-64 34l110 179l87 -46z
" />
    <glyph glyph-name="Ucircumflex" unicode="&#xdb;" horiz-adv-x="665" 
d="M276 698l-85 -425q-4 -19 -6.5 -36t-2.5 -33q0 -57 30.5 -88t86.5 -31q73 0 116 44t63 146l85 423h108l-84 -421q-16 -78 -40 -132.5t-59.5 -89.5t-84 -51t-111.5 -16q-103 0 -158.5 54.5t-55.5 157.5q0 22 2 45.5t8 52.5l80 400h108zM509 944l90 -150l-57 -42l-95 115
l-137 -116l-53 43l146 150h106z" />
    <glyph glyph-name="Udieresis" unicode="&#xdc;" horiz-adv-x="665" 
d="M276 698l-85 -425q-4 -19 -6.5 -36t-2.5 -33q0 -57 30.5 -88t86.5 -31q73 0 116 44t63 146l85 423h108l-84 -421q-16 -78 -40 -132.5t-59.5 -89.5t-84 -51t-111.5 -16q-103 0 -158.5 54.5t-55.5 157.5q0 22 2 45.5t8 52.5l80 400h108zM334 776q-26 0 -38.5 11t-12.5 29
q0 10 4 33q5 23 21 38t48 15q51 0 51 -40q0 -5 -1 -12.5t-3 -19.5q-5 -24 -21 -39t-48 -15zM523 776q-26 0 -38.5 11t-12.5 29q0 10 4 33q5 23 21 38t48 15q51 0 51 -40q0 -5 -1 -12.5t-3 -19.5q-5 -24 -21 -39t-48 -15z" />
    <glyph glyph-name="Yacute" unicode="&#xdd;" horiz-adv-x="597" 
d="M191 0l55 272l-147 426h110l107 -321h5l229 321h122l-319 -431l-54 -267h-108zM397 749l-64 34l110 179l87 -46z" />
    <glyph glyph-name="Thorn" unicode="&#xde;" horiz-adv-x="606" 
d="M31 0l140 698h109l-27 -134h147q98 0 145.5 -48t47.5 -127q0 -53 -18 -97.5t-50.5 -77t-78.5 -51t-102 -18.5h-176l-29 -145h-108zM189 242h169q43 0 72.5 22t38.5 66q7 31 9.5 44.5t2.5 24.5q0 30 -18.5 49t-63.5 19h-166z" />
    <glyph glyph-name="germandbls" unicode="&#xdf;" horiz-adv-x="653" 
d="M604 169q0 -38 -14 -71t-39.5 -57.5t-61 -38.5t-79.5 -14q-61 0 -110 22.5t-77 64.5l68 60q44 -62 121 -62q42 0 67.5 22t25.5 61q0 25 -11.5 38.5t-42.5 26.5l-39 16q-21 8 -39.5 18t-32 24.5t-21.5 35t-8 49.5q0 32 13.5 60.5t38.5 50t61 35t82 15.5l1 6q2 13 3.5 24
t1.5 22q0 45 -26.5 67.5t-77.5 22.5q-63 0 -100.5 -30.5t-52.5 -107.5l-106 -529h-104l87 433h-80l17 87h81l2 10q22 110 91 166t174 56q45 0 81 -12t61.5 -34.5t39.5 -54t14 -69.5q0 -33 -7 -67l-13 -66h-58q-63 0 -94 -18.5t-31 -51.5q0 -23 12.5 -38.5t41.5 -26.5l39 -16
q22 -9 40.5 -19.5t32 -25.5t21 -35.5t7.5 -48.5z" />
    <glyph glyph-name="agrave" unicode="&#xe0;" horiz-adv-x="586" 
d="M434 0q-35 0 -55.5 18t-20.5 50q0 17 3 29l4 19h-4q-32 -64 -70.5 -96t-98.5 -32q-72 0 -111 52t-39 139q0 68 17 132t49.5 113t78.5 78.5t104 29.5q51 0 88 -26.5t45 -72.5h5l17 87h104l-87 -433h67l-17 -87h-79zM232 77q32 0 56.5 14t44.5 36q43 46 57 116l21 105
q3 17 -2 34t-18 30.5t-33.5 22t-46.5 8.5q-58 0 -93 -35.5t-49 -104.5l-15 -73q-2 -12 -3.5 -27t-1.5 -27q0 -44 20.5 -71.5t62.5 -27.5zM232 750l93 44l64 -183l-64 -29z" />
    <glyph glyph-name="aacute" unicode="&#xe1;" horiz-adv-x="586" 
d="M434 0q-35 0 -55.5 18t-20.5 50q0 17 3 29l4 19h-4q-32 -64 -70.5 -96t-98.5 -32q-72 0 -111 52t-39 139q0 68 17 132t49.5 113t78.5 78.5t104 29.5q51 0 88 -26.5t45 -72.5h5l17 87h104l-87 -433h67l-17 -87h-79zM232 77q32 0 56.5 14t44.5 36q43 46 57 116l21 105
q3 17 -2 34t-18 30.5t-33.5 22t-46.5 8.5q-58 0 -93 -35.5t-49 -104.5l-15 -73q-2 -12 -3.5 -27t-1.5 -27q0 -44 20.5 -71.5t62.5 -27.5zM359 582l-63 34l110 179l87 -46z" />
    <glyph glyph-name="acircumflex" unicode="&#xe2;" horiz-adv-x="586" 
d="M434 0q-35 0 -55.5 18t-20.5 50q0 17 3 29l4 19h-4q-32 -64 -70.5 -96t-98.5 -32q-72 0 -111 52t-39 139q0 68 17 132t49.5 113t78.5 78.5t104 29.5q51 0 88 -26.5t45 -72.5h5l17 87h104l-87 -433h67l-17 -87h-79zM232 77q32 0 56.5 14t44.5 36q43 46 57 116l21 105
q3 17 -2 34t-18 30.5t-33.5 22t-46.5 8.5q-58 0 -93 -35.5t-49 -104.5l-15 -73q-2 -12 -3.5 -27t-1.5 -27q0 -44 20.5 -71.5t62.5 -27.5zM426 778l90 -150l-57 -43l-95 116l-137 -115l-52 43l145 149h106z" />
    <glyph glyph-name="atilde" unicode="&#xe3;" horiz-adv-x="586" 
d="M434 0q-35 0 -55.5 18t-20.5 50q0 17 3 29l4 19h-4q-32 -64 -70.5 -96t-98.5 -32q-72 0 -111 52t-39 139q0 68 17 132t49.5 113t78.5 78.5t104 29.5q51 0 88 -26.5t45 -72.5h5l17 87h104l-87 -433h67l-17 -87h-79zM232 77q32 0 56.5 14t44.5 36q43 46 57 116l21 105
q3 17 -2 34t-18 30.5t-33.5 22t-46.5 8.5q-58 0 -93 -35.5t-49 -104.5l-15 -73q-2 -12 -3.5 -27t-1.5 -27q0 -44 20.5 -71.5t62.5 -27.5zM424 607q-24 0 -41 7.5t-34 16.5q-39 23 -68 23q-17 0 -29.5 -6.5t-29.5 -19.5l-35 51q20 24 45.5 40.5t60.5 16.5q24 0 41 -7t34 -16
q39 -23 68 -23q17 0 29.5 6.5t29.5 19.5l35 -52q-20 -24 -45.5 -40.5t-60.5 -16.5z" />
    <glyph glyph-name="adieresis" unicode="&#xe4;" horiz-adv-x="586" 
d="M434 0q-35 0 -55.5 18t-20.5 50q0 17 3 29l4 19h-4q-32 -64 -70.5 -96t-98.5 -32q-72 0 -111 52t-39 139q0 68 17 132t49.5 113t78.5 78.5t104 29.5q51 0 88 -26.5t45 -72.5h5l17 87h104l-87 -433h67l-17 -87h-79zM232 77q32 0 56.5 14t44.5 36q43 46 57 116l21 105
q3 17 -2 34t-18 30.5t-33.5 22t-46.5 8.5q-58 0 -93 -35.5t-49 -104.5l-15 -73q-2 -12 -3.5 -27t-1.5 -27q0 -44 20.5 -71.5t62.5 -27.5zM253 610q-26 0 -38.5 11t-12.5 29q0 8 4 31q5 23 21 38t48 15q51 0 51 -40q0 -5 -1 -11.5t-3 -18.5q-5 -24 -21 -39t-48 -15zM442 610
q-26 0 -38.5 11t-12.5 29q0 8 4 31q5 23 21 38t48 15q51 0 51 -40q0 -5 -1 -11.5t-3 -18.5q-5 -24 -21 -39t-48 -15z" />
    <glyph glyph-name="aring" unicode="&#xe5;" horiz-adv-x="586" 
d="M434 0q-35 0 -55.5 18t-20.5 50q0 17 3 29l4 19h-4q-32 -64 -70.5 -96t-98.5 -32q-72 0 -111 52t-39 139q0 68 17 132t49.5 113t78.5 78.5t104 29.5q51 0 88 -26.5t45 -72.5h5l17 87h104l-87 -433h67l-17 -87h-79zM232 77q32 0 56.5 14t44.5 36q43 46 57 116l21 105
q3 17 -2 34t-18 30.5t-33.5 22t-46.5 8.5q-58 0 -93 -35.5t-49 -104.5l-15 -73q-2 -12 -3.5 -27t-1.5 -27q0 -44 20.5 -71.5t62.5 -27.5zM343 568q-50 0 -81 31t-31 78q0 33 11 60t30.5 45.5t46 29t57.5 10.5q50 0 81 -30.5t31 -78.5q0 -33 -11 -60t-30.5 -45.5t-46 -29
t-57.5 -10.5zM349 627q26 0 41 14t20 39q6 28 6 41q0 20 -11.5 31t-34.5 11q-26 0 -41 -14t-20 -39q-3 -14 -4.5 -23.5t-1.5 -17.5q0 -20 11.5 -31t34.5 -11z" />
    <glyph glyph-name="ae" unicode="&#xe6;" horiz-adv-x="814" 
d="M204 70q22 0 43.5 6t39 17t29.5 26.5t16 34.5l14 70l-91 -4q-47 -2 -79.5 -13.5t-40.5 -45.5q-4 -16 -4.5 -24t-0.5 -12q0 -26 19.5 -40.5t54.5 -14.5zM615 449q-58 0 -96 -36.5t-52 -98.5l-5 -22q71 3 115.5 10t70 18t35 26t9.5 35q0 21 -7 34.5t-18.5 21t-25 10
t-26.5 2.5zM174 -12q-73 0 -112 35.5t-39 99.5q0 155 237 164l100 4l8 45q3 16 3 29q0 79 -94 79q-47 0 -76.5 -19.5t-53.5 -51.5l-62 60q31 45 83.5 72t119.5 27q60 0 96.5 -23t53.5 -64h7q32 41 76 64t100 23q30 0 61 -7.5t56 -24.5t41 -44t16 -65q0 -84 -85 -124.5
t-260 -43.5q-3 -23 -3 -44q0 -45 26.5 -74t83.5 -29q43 0 78 19t67 59l66 -55q-49 -61 -103 -86t-116 -25q-70 0 -116 27.5t-68 77.5h-7q-28 -54 -76.5 -79.5t-107.5 -25.5z" />
    <glyph glyph-name="ccedilla" unicode="&#xe7;" horiz-adv-x="490" 
d="M305 532q72 0 118.5 -35t59.5 -92l-87 -35q-11 35 -32.5 54.5t-63.5 19.5q-54 0 -87.5 -34t-46.5 -97l-17 -86q-5 -25 -5 -44q0 -48 25 -77.5t77 -29.5q38 0 65.5 22t54.5 71l80 -38q-62 -130 -188 -142l-17 -48l2 -3q8 2 16.5 3.5t19.5 1.5q26 0 43.5 -13.5t17.5 -42.5
q0 -46 -35 -71t-89 -25q-39 0 -66 12t-39 29l45 45q7 -9 22 -17.5t37 -8.5q21 0 34 9.5t13 24.5q0 14 -12.5 24.5t-46.5 13.5l-25 2l23 65q-72 10 -116 64.5t-44 151.5q0 68 19 127.5t54 103.5t83.5 69.5t107.5 25.5z" />
    <glyph glyph-name="egrave" unicode="&#xe8;" horiz-adv-x="512" 
d="M248 -12q-101 0 -153.5 57.5t-52.5 162.5q0 64 19.5 122.5t55.5 103.5t87 71.5t114 26.5q31 0 62.5 -8t56.5 -25t40.5 -44t15.5 -65q0 -83 -83.5 -127t-261.5 -48q-3 -20 -3 -33q0 -48 26.5 -77t83.5 -29q43 0 78 19t67 59l66 -55q-49 -61 -103 -86t-115 -25zM310 449
q-54 0 -93.5 -36.5t-51.5 -98.5l-5 -26q71 3 116 10t70.5 19t34.5 29t9 39q0 19 -7 31.5t-18.5 20t-25.5 10t-29 2.5zM222 750l93 44l64 -183l-64 -29z" />
    <glyph glyph-name="eacute" unicode="&#xe9;" horiz-adv-x="512" 
d="M248 -12q-101 0 -153.5 57.5t-52.5 162.5q0 64 19.5 122.5t55.5 103.5t87 71.5t114 26.5q31 0 62.5 -8t56.5 -25t40.5 -44t15.5 -65q0 -83 -83.5 -127t-261.5 -48q-3 -20 -3 -33q0 -48 26.5 -77t83.5 -29q43 0 78 19t67 59l66 -55q-49 -61 -103 -86t-115 -25zM310 449
q-54 0 -93.5 -36.5t-51.5 -98.5l-5 -26q71 3 116 10t70.5 19t34.5 29t9 39q0 19 -7 31.5t-18.5 20t-25.5 10t-29 2.5zM349 582l-63 34l110 179l87 -46z" />
    <glyph glyph-name="ecircumflex" unicode="&#xea;" horiz-adv-x="512" 
d="M248 -12q-101 0 -153.5 57.5t-52.5 162.5q0 64 19.5 122.5t55.5 103.5t87 71.5t114 26.5q31 0 62.5 -8t56.5 -25t40.5 -44t15.5 -65q0 -83 -83.5 -127t-261.5 -48q-3 -20 -3 -33q0 -48 26.5 -77t83.5 -29q43 0 78 19t67 59l66 -55q-49 -61 -103 -86t-115 -25zM310 449
q-54 0 -93.5 -36.5t-51.5 -98.5l-5 -26q71 3 116 10t70.5 19t34.5 29t9 39q0 19 -7 31.5t-18.5 20t-25.5 10t-29 2.5zM416 778l90 -150l-57 -43l-95 116l-137 -115l-52 43l145 149h106z" />
    <glyph glyph-name="edieresis" unicode="&#xeb;" horiz-adv-x="512" 
d="M248 -12q-101 0 -153.5 57.5t-52.5 162.5q0 64 19.5 122.5t55.5 103.5t87 71.5t114 26.5q31 0 62.5 -8t56.5 -25t40.5 -44t15.5 -65q0 -83 -83.5 -127t-261.5 -48q-3 -20 -3 -33q0 -48 26.5 -77t83.5 -29q43 0 78 19t67 59l66 -55q-49 -61 -103 -86t-115 -25zM310 449
q-54 0 -93.5 -36.5t-51.5 -98.5l-5 -26q71 3 116 10t70.5 19t34.5 29t9 39q0 19 -7 31.5t-18.5 20t-25.5 10t-29 2.5zM243 610q-26 0 -38.5 11t-12.5 29q0 8 4 31q5 23 21 38t48 15q51 0 51 -40q0 -5 -1 -11.5t-3 -18.5q-5 -24 -21 -39t-48 -15zM432 610q-26 0 -38.5 11
t-12.5 29q0 8 4 31q5 23 21 38t48 15q51 0 51 -40q0 -5 -1 -11.5t-3 -18.5q-5 -24 -21 -39t-48 -15z" />
    <glyph glyph-name="igrave" unicode="&#xec;" horiz-adv-x="271" 
d="M121 0q-38 0 -58 19.5t-20 51.5q0 5 0.5 11t1.5 11l86 427h104l-87 -433h67l-17 -87h-77zM87 750l93 44l64 -183l-64 -29z" />
    <glyph glyph-name="iacute" unicode="&#xed;" horiz-adv-x="271" 
d="M121 0q-38 0 -58 19.5t-20 51.5q0 5 0.5 11t1.5 11l86 427h104l-87 -433h67l-17 -87h-77zM214 582l-63 34l110 179l87 -46z" />
    <glyph glyph-name="icircumflex" unicode="&#xee;" horiz-adv-x="271" 
d="M121 0q-38 0 -58 19.5t-20 51.5q0 5 0.5 11t1.5 11l86 427h104l-87 -433h67l-17 -87h-77zM281 778l90 -150l-57 -43l-95 116l-137 -115l-52 43l145 149h106z" />
    <glyph glyph-name="idieresis" unicode="&#xef;" horiz-adv-x="271" 
d="M121 0q-38 0 -58 19.5t-20 51.5q0 5 0.5 11t1.5 11l86 427h104l-87 -433h67l-17 -87h-77zM108 610q-26 0 -38.5 11t-12.5 29q0 8 4 31q5 23 21 38t48 15q51 0 51 -40q0 -5 -1 -11.5t-3 -18.5q-5 -24 -21 -39t-48 -15zM297 610q-26 0 -38.5 11t-12.5 29q0 8 4 31
q5 23 21 38t48 15q51 0 51 -40q0 -5 -1 -11.5t-3 -18.5q-5 -24 -21 -39t-48 -15z" />
    <glyph glyph-name="eth" unicode="&#xf0;" horiz-adv-x="567" 
d="M429 649q41 -54 66.5 -128.5t25.5 -169.5q0 -88 -22 -156t-60 -114t-89.5 -69.5t-110.5 -23.5q-94 0 -146 58t-52 158q0 61 18.5 115.5t50.5 95t75 64t93 23.5q53 0 87 -25.5t48 -69.5l7 1q-7 53 -26.5 102t-48.5 91l-97 -56l-29 52l87 51q-27 29 -56.5 52t-58.5 40h149
q12 -10 24.5 -21t24.5 -24l95 57l30 -53zM250 73q52 0 87.5 38t49.5 102l12 57q2 12 3.5 22.5t1.5 20.5q0 49 -28 76.5t-77 27.5q-52 0 -87.5 -38t-49.5 -102l-12 -57q-2 -12 -3.5 -22.5t-1.5 -20.5q0 -49 28 -76.5t77 -27.5z" />
    <glyph glyph-name="ntilde" unicode="&#xf1;" horiz-adv-x="573" 
d="M27 0l104 520h104l-22 -111h5q29 60 68 91.5t97 31.5q65 0 97.5 -37t32.5 -103q0 -17 -2 -33.5t-6 -36.5l-47 -235h63l-17 -87h-79q-33 0 -52.5 17t-19.5 49v10.5t2 13.5l45 225q6 30 6 55q0 35 -16 53.5t-52 18.5q-52 0 -91 -44q-22 -24 -38 -55.5t-22 -62.5l-56 -280
h-104zM433 607q-24 0 -41 7.5t-34 16.5q-39 23 -68 23q-17 0 -29.5 -6.5t-29.5 -19.5l-35 51q20 24 45.5 40.5t60.5 16.5q24 0 41 -7t34 -16q39 -23 68 -23q17 0 29.5 6.5t29.5 19.5l35 -52q-20 -24 -45.5 -40.5t-60.5 -16.5z" />
    <glyph glyph-name="ograve" unicode="&#xf2;" horiz-adv-x="548" 
d="M238 -12q-88 0 -142 55t-54 160q0 67 20 127t55.5 105t84.5 71t108 26q88 0 142 -55t54 -160q0 -68 -20 -127.5t-55.5 -104.5t-84.5 -71t-108 -26zM246 76q49 0 85.5 36t50.5 105l17 83q2 8 3 18t1 21q0 48 -25.5 76.5t-75.5 28.5q-49 0 -85.5 -36t-50.5 -105l-17 -83
q-2 -9 -3 -18.5t-1 -20.5q0 -48 25.5 -76.5t75.5 -28.5zM218 750l93 44l64 -183l-64 -29z" />
    <glyph glyph-name="oacute" unicode="&#xf3;" horiz-adv-x="548" 
d="M238 -12q-88 0 -142 55t-54 160q0 67 20 127t55.5 105t84.5 71t108 26q88 0 142 -55t54 -160q0 -68 -20 -127.5t-55.5 -104.5t-84.5 -71t-108 -26zM246 76q49 0 85.5 36t50.5 105l17 83q2 8 3 18t1 21q0 48 -25.5 76.5t-75.5 28.5q-49 0 -85.5 -36t-50.5 -105l-17 -83
q-2 -9 -3 -18.5t-1 -20.5q0 -48 25.5 -76.5t75.5 -28.5zM345 582l-63 34l110 179l87 -46z" />
    <glyph glyph-name="ocircumflex" unicode="&#xf4;" horiz-adv-x="548" 
d="M238 -12q-88 0 -142 55t-54 160q0 67 20 127t55.5 105t84.5 71t108 26q88 0 142 -55t54 -160q0 -68 -20 -127.5t-55.5 -104.5t-84.5 -71t-108 -26zM246 76q49 0 85.5 36t50.5 105l17 83q2 8 3 18t1 21q0 48 -25.5 76.5t-75.5 28.5q-49 0 -85.5 -36t-50.5 -105l-17 -83
q-2 -9 -3 -18.5t-1 -20.5q0 -48 25.5 -76.5t75.5 -28.5zM412 778l90 -150l-57 -43l-95 116l-137 -115l-52 43l145 149h106z" />
    <glyph glyph-name="otilde" unicode="&#xf5;" horiz-adv-x="548" 
d="M238 -12q-88 0 -142 55t-54 160q0 67 20 127t55.5 105t84.5 71t108 26q88 0 142 -55t54 -160q0 -68 -20 -127.5t-55.5 -104.5t-84.5 -71t-108 -26zM246 76q49 0 85.5 36t50.5 105l17 83q2 8 3 18t1 21q0 48 -25.5 76.5t-75.5 28.5q-49 0 -85.5 -36t-50.5 -105l-17 -83
q-2 -9 -3 -18.5t-1 -20.5q0 -48 25.5 -76.5t75.5 -28.5zM410 607q-24 0 -41 7.5t-34 16.5q-39 23 -68 23q-17 0 -29.5 -6.5t-29.5 -19.5l-35 51q20 24 45.5 40.5t60.5 16.5q24 0 41 -7t34 -16q39 -23 68 -23q17 0 29.5 6.5t29.5 19.5l35 -52q-20 -24 -45.5 -40.5
t-60.5 -16.5z" />
    <glyph glyph-name="odieresis" unicode="&#xf6;" horiz-adv-x="548" 
d="M238 -12q-88 0 -142 55t-54 160q0 67 20 127t55.5 105t84.5 71t108 26q88 0 142 -55t54 -160q0 -68 -20 -127.5t-55.5 -104.5t-84.5 -71t-108 -26zM246 76q49 0 85.5 36t50.5 105l17 83q2 8 3 18t1 21q0 48 -25.5 76.5t-75.5 28.5q-49 0 -85.5 -36t-50.5 -105l-17 -83
q-2 -9 -3 -18.5t-1 -20.5q0 -48 25.5 -76.5t75.5 -28.5zM239 610q-26 0 -38.5 11t-12.5 29q0 8 4 31q5 23 21 38t48 15q51 0 51 -40q0 -5 -1 -11.5t-3 -18.5q-5 -24 -21 -39t-48 -15zM428 610q-26 0 -38.5 11t-12.5 29q0 8 4 31q5 23 21 38t48 15q51 0 51 -40q0 -5 -1 -11.5
t-3 -18.5q-5 -24 -21 -39t-48 -15z" />
    <glyph glyph-name="divide" unicode="&#xf7;" horiz-adv-x="600" 
d="M72 262l18 88h456l-18 -88h-456zM260 42q-34 0 -47.5 12.5t-13.5 30.5q0 7 1 17t3 18q6 28 24 43.5t54 15.5q34 0 47.5 -12.5t13.5 -31.5q0 -7 -1 -17t-3 -18q-6 -27 -24 -42.5t-54 -15.5zM337 431q-34 0 -47.5 12.5t-13.5 31.5q0 7 1 17t3 18q6 27 24 42.5t54 15.5
q34 0 47.5 -12.5t13.5 -30.5q0 -7 -1 -17t-3 -18q-6 -28 -24 -43.5t-54 -15.5z" />
    <glyph glyph-name="oslash" unicode="&#xf8;" horiz-adv-x="548" 
d="M-24 7l86 89q-20 43 -20 107q0 67 20 127t55.5 105t84.5 71t108 26q80 0 133 -48l75 78l53 -49l-86 -89q21 -45 21 -107q0 -68 -20 -127.5t-55.5 -104.5t-85 -71t-108.5 -26q-80 0 -133 48l-75 -78zM245 74q50 0 88 36.5t52 106.5q8 38 12 63.5t5 31.5q2 16 0 29
l-233 -235q27 -32 76 -32zM302 446q-49 0 -86.5 -36.5t-51.5 -106.5q-8 -38 -12 -63.5t-5 -32.5q-1 -13 0 -28l231 235q-27 32 -76 32z" />
    <glyph glyph-name="ugrave" unicode="&#xf9;" horiz-adv-x="570" 
d="M229 520l-63 -316q-3 -14 -4.5 -28t-1.5 -25q0 -35 15 -54t50 -19q50 0 89 44q23 26 38.5 57.5t21.5 62.5l56 278h104l-87 -433h67l-17 -87h-80q-35 0 -54.5 18.5t-19.5 50.5q0 13 3 30l2 12h-5q-29 -60 -67 -91.5t-94 -31.5q-64 0 -96.5 37t-32.5 103q0 17 2 34t6 37
l64 321h104zM231 750l93 44l64 -183l-64 -29z" />
    <glyph glyph-name="uacute" unicode="&#xfa;" horiz-adv-x="570" 
d="M229 520l-63 -316q-3 -14 -4.5 -28t-1.5 -25q0 -35 15 -54t50 -19q50 0 89 44q23 26 38.5 57.5t21.5 62.5l56 278h104l-87 -433h67l-17 -87h-80q-35 0 -54.5 18.5t-19.5 50.5q0 13 3 30l2 12h-5q-29 -60 -67 -91.5t-94 -31.5q-64 0 -96.5 37t-32.5 103q0 17 2 34t6 37
l64 321h104zM358 582l-63 34l110 179l87 -46z" />
    <glyph glyph-name="ucircumflex" unicode="&#xfb;" horiz-adv-x="570" 
d="M229 520l-63 -316q-3 -14 -4.5 -28t-1.5 -25q0 -35 15 -54t50 -19q50 0 89 44q23 26 38.5 57.5t21.5 62.5l56 278h104l-87 -433h67l-17 -87h-80q-35 0 -54.5 18.5t-19.5 50.5q0 13 3 30l2 12h-5q-29 -60 -67 -91.5t-94 -31.5q-64 0 -96.5 37t-32.5 103q0 17 2 34t6 37
l64 321h104zM425 778l90 -150l-57 -43l-95 116l-137 -115l-52 43l145 149h106z" />
    <glyph glyph-name="udieresis" unicode="&#xfc;" horiz-adv-x="570" 
d="M229 520l-63 -316q-3 -14 -4.5 -28t-1.5 -25q0 -35 15 -54t50 -19q50 0 89 44q23 26 38.5 57.5t21.5 62.5l56 278h104l-87 -433h67l-17 -87h-80q-35 0 -54.5 18.5t-19.5 50.5q0 13 3 30l2 12h-5q-29 -60 -67 -91.5t-94 -31.5q-64 0 -96.5 37t-32.5 103q0 17 2 34t6 37
l64 321h104zM252 610q-26 0 -38.5 11t-12.5 29q0 8 4 31q5 23 21 38t48 15q51 0 51 -40q0 -5 -1 -11.5t-3 -18.5q-5 -24 -21 -39t-48 -15zM441 610q-26 0 -38.5 11t-12.5 29q0 8 4 31q5 23 21 38t48 15q51 0 51 -40q0 -5 -1 -11.5t-3 -18.5q-5 -24 -21 -39t-48 -15z" />
    <glyph glyph-name="yacute" unicode="&#xfd;" horiz-adv-x="495" 
d="M425 520h111l-338 -623q-14 -26 -27.5 -44t-30 -30t-37.5 -17.5t-48 -5.5h-79l17 86h95l49 92l-79 542h102l31 -231l19 -191h5l91 191zM318 582l-63 34l110 179l87 -46z" />
    <glyph glyph-name="thorn" unicode="&#xfe;" horiz-adv-x="578" 
d="M175 740h104l-67 -336h4q32 64 70.5 96t98.5 32q72 0 111 -52t39 -139q0 -68 -17 -132t-49.5 -113t-78.5 -78.5t-104 -29.5q-51 0 -88 26t-45 73h-5l-57 -287h-104zM267 77q57 0 92 35.5t49 104.5l15 73q2 12 3.5 26.5t1.5 27.5q0 43 -21 71t-63 28q-32 0 -56 -14
t-44 -36q-21 -23 -35.5 -51.5t-21.5 -63.5l-19 -95q-9 -45 16 -75.5t83 -30.5z" />
    <glyph glyph-name="ydieresis" unicode="&#xff;" horiz-adv-x="495" 
d="M425 520h111l-338 -623q-14 -26 -27.5 -44t-30 -30t-37.5 -17.5t-48 -5.5h-79l17 86h95l49 92l-79 542h102l31 -231l19 -191h5l91 191zM212 610q-26 0 -38.5 11t-12.5 29q0 8 4 31q5 23 21 38t48 15q51 0 51 -40q0 -5 -1 -11.5t-3 -18.5q-5 -24 -21 -39t-48 -15zM401 610
q-26 0 -38.5 11t-12.5 29q0 8 4 31q5 23 21 38t48 15q51 0 51 -40q0 -5 -1 -11.5t-3 -18.5q-5 -24 -21 -39t-48 -15z" />
    <glyph glyph-name="Amacron" unicode="&#x100;" horiz-adv-x="638" 
d="M455 0l-22 189h-250l-97 -189h-116l367 698h140l88 -698h-110zM391 598h-7l-156 -315h196zM301 881h274l-16 -81h-275z" />
    <glyph glyph-name="amacron" unicode="&#x101;" horiz-adv-x="586" 
d="M434 0q-35 0 -55.5 18t-20.5 50q0 17 3 29l4 19h-4q-32 -64 -70.5 -96t-98.5 -32q-72 0 -111 52t-39 139q0 68 17 132t49.5 113t78.5 78.5t104 29.5q51 0 88 -26.5t45 -72.5h5l17 87h104l-87 -433h67l-17 -87h-79zM232 77q32 0 56.5 14t44.5 36q43 46 57 116l21 105
q3 17 -2 34t-18 30.5t-33.5 22t-46.5 8.5q-58 0 -93 -35.5t-49 -104.5l-15 -73q-2 -12 -3.5 -27t-1.5 -27q0 -44 20.5 -71.5t62.5 -27.5zM230 714h275l-17 -82h-275z" />
    <glyph glyph-name="Abreve" unicode="&#x102;" horiz-adv-x="638" 
d="M455 0l-22 189h-250l-97 -189h-116l367 698h140l88 -698h-110zM391 598h-7l-156 -315h196zM419 755q-39 0 -65.5 14t-43.5 36t-26 48.5t-13 51.5l60 29l14 -31q15 -33 31.5 -51.5t46.5 -18.5q27 0 49.5 16.5t49.5 54.5l22 30l63 -31q-13 -26 -29.5 -52t-39 -47.5t-52 -35
t-67.5 -13.5z" />
    <glyph glyph-name="abreve" unicode="&#x103;" horiz-adv-x="586" 
d="M434 0q-35 0 -55.5 18t-20.5 50q0 17 3 29l4 19h-4q-32 -64 -70.5 -96t-98.5 -32q-72 0 -111 52t-39 139q0 68 17 132t49.5 113t78.5 78.5t104 29.5q51 0 88 -26.5t45 -72.5h5l17 87h104l-87 -433h67l-17 -87h-79zM232 77q32 0 56.5 14t44.5 36q43 46 57 116l21 105
q3 17 -2 34t-18 30.5t-33.5 22t-46.5 8.5q-58 0 -93 -35.5t-49 -104.5l-15 -73q-2 -12 -3.5 -27t-1.5 -27q0 -44 20.5 -71.5t62.5 -27.5zM346 589q-39 0 -65.5 14t-43 36t-25.5 48.5t-13 51.5l60 29l14 -29q15 -34 31.5 -52.5t46.5 -18.5q27 0 48.5 17t50.5 55l22 28l63 -31
q-14 -26 -30.5 -52t-39 -47.5t-52 -35t-67.5 -13.5z" />
    <glyph glyph-name="Aogonek" unicode="&#x104;" horiz-adv-x="638" 
d="M337 698h140l88 -698q-40 -26 -63.5 -44.5t-35.5 -32t-15.5 -23.5t-3.5 -17q0 -30 33 -30q14 0 28.5 6t25.5 21l44 -47q-16 -17 -42 -29.5t-66 -12.5q-21 0 -40.5 4.5t-34 14t-23 24.5t-8.5 35q0 80 130 126l-1 5h-38l-22 189h-250l-97 -189h-116zM391 598h-7l-156 -315
h196z" />
    <glyph glyph-name="aogonek" unicode="&#x105;" horiz-adv-x="586" 
d="M513 0q-40 -26 -63.5 -44.5t-35.5 -32t-15.5 -23.5t-3.5 -17q0 -30 34 -30q14 0 28 6t26 21l43 -47q-15 -17 -41.5 -29.5t-66.5 -12.5q-21 0 -40.5 4.5t-34 14t-23 24.5t-8.5 35q0 80 130 126l-1 5h-7q-35 0 -55.5 18t-20.5 50q0 17 3 29l4 19h-4q-32 -64 -70.5 -96
t-98.5 -32q-72 0 -111 52t-39 139q0 68 17 132t49.5 113t78.5 78.5t104 29.5q51 0 88 -26.5t45 -72.5h5l17 87h104l-87 -433h67zM232 77q32 0 57 14.5t44 35.5q43 48 57 116l21 105q3 17 -2 34t-18 30.5t-33.5 22t-46.5 8.5q-58 0 -93 -35.5t-49 -104.5l-15 -73
q-2 -12 -3.5 -27t-1.5 -27q0 -44 20.5 -71.5t62.5 -27.5z" />
    <glyph glyph-name="Cacute" unicode="&#x106;" horiz-adv-x="616" 
d="M297 -12q-53 0 -97 18t-76 53.5t-50 88t-18 121.5q0 91 25.5 171.5t71 140.5t109 94.5t139.5 34.5q179 0 229 -164l-97 -42q-15 51 -47.5 80t-93.5 29q-76 0 -128.5 -53t-70.5 -142l-23 -113q-4 -17 -5 -31.5t-1 -27.5q0 -75 36.5 -118t104.5 -43q33 0 59 8.5t47 24
t38 37.5t32 49l90 -43q-46 -89 -113.5 -131t-160.5 -42zM431 749l-64 34l110 179l87 -46z" />
    <glyph glyph-name="cacute" unicode="&#x107;" horiz-adv-x="491" 
d="M237 -12q-87 0 -141 55.5t-54 162.5q0 68 19 127.5t54 103.5t83.5 69.5t107.5 25.5q72 0 118.5 -35t59.5 -92l-87 -35q-11 35 -32.5 54.5t-63.5 19.5q-54 0 -88 -34t-46 -97l-17 -86q-5 -25 -5 -44q0 -48 25 -77.5t77 -29.5q38 0 65.5 22t54.5 71l80 -38
q-33 -70 -86 -106.5t-124 -36.5zM336 582l-63 34l110 179l87 -46z" />
    <glyph glyph-name="Ccircumflex" unicode="&#x108;" horiz-adv-x="616" 
d="M297 -12q-53 0 -97 18t-76 53.5t-50 88t-18 121.5q0 91 25.5 171.5t71 140.5t109 94.5t139.5 34.5q179 0 229 -164l-97 -42q-15 51 -47.5 80t-93.5 29q-76 0 -128.5 -53t-70.5 -142l-23 -113q-4 -17 -5 -31.5t-1 -27.5q0 -75 36.5 -118t104.5 -43q33 0 59 8.5t47 24
t38 37.5t32 49l90 -43q-46 -89 -113.5 -131t-160.5 -42zM500 944l90 -150l-57 -42l-95 115l-137 -116l-53 43l146 150h106z" />
    <glyph glyph-name="ccircumflex" unicode="&#x109;" horiz-adv-x="491" 
d="M237 -12q-87 0 -141 55.5t-54 162.5q0 68 19 127.5t54 103.5t83.5 69.5t107.5 25.5q72 0 118.5 -35t59.5 -92l-87 -35q-11 35 -32.5 54.5t-63.5 19.5q-54 0 -88 -34t-46 -97l-17 -86q-5 -25 -5 -44q0 -48 25 -77.5t77 -29.5q38 0 65.5 22t54.5 71l80 -38
q-33 -70 -86 -106.5t-124 -36.5zM403 778l90 -150l-57 -43l-95 116l-137 -115l-52 43l145 149h106z" />
    <glyph glyph-name="Cdotaccent" unicode="&#x10a;" horiz-adv-x="616" 
d="M297 -12q-53 0 -97 18t-76 53.5t-50 88t-18 121.5q0 91 25.5 171.5t71 140.5t109 94.5t139.5 34.5q179 0 229 -164l-97 -42q-15 51 -47.5 80t-93.5 29q-76 0 -128.5 -53t-70.5 -142l-23 -113q-4 -17 -5 -31.5t-1 -27.5q0 -75 36.5 -118t104.5 -43q33 0 59 8.5t47 24
t38 37.5t32 49l90 -43q-46 -89 -113.5 -131t-160.5 -42zM421 772q-29 0 -42.5 12t-13.5 33q0 5 1 11t4 20q5 26 21 41t51 15q29 0 42.5 -12t13.5 -33q0 -5 -1 -11t-4 -20q-5 -26 -21 -41t-51 -15z" />
    <glyph glyph-name="cdotaccent" unicode="&#x10b;" horiz-adv-x="491" 
d="M237 -12q-87 0 -141 55.5t-54 162.5q0 68 19 127.5t54 103.5t83.5 69.5t107.5 25.5q72 0 118.5 -35t59.5 -92l-87 -35q-11 35 -32.5 54.5t-63.5 19.5q-54 0 -88 -34t-46 -97l-17 -86q-5 -25 -5 -44q0 -48 25 -77.5t77 -29.5q38 0 65.5 22t54.5 71l80 -38
q-33 -70 -86 -106.5t-124 -36.5zM326 605q-29 0 -42.5 12t-13.5 33q0 5 1 11t4 20q5 26 21 41t51 15q29 0 42.5 -12t13.5 -33q0 -5 -1 -11t-4 -20q-5 -26 -21 -41t-51 -15z" />
    <glyph glyph-name="Ccaron" unicode="&#x10c;" horiz-adv-x="616" 
d="M297 -12q-53 0 -97 18t-76 53.5t-50 88t-18 121.5q0 91 25.5 171.5t71 140.5t109 94.5t139.5 34.5q179 0 229 -164l-97 -42q-15 51 -47.5 80t-93.5 29q-76 0 -128.5 -53t-70.5 -142l-23 -113q-4 -17 -5 -31.5t-1 -27.5q0 -75 36.5 -118t104.5 -43q33 0 59 8.5t47 24
t38 37.5t32 49l90 -43q-46 -89 -113.5 -131t-160.5 -42zM365 760l-91 150l57 43l93 -116l139 116l54 -43l-146 -150h-106z" />
    <glyph glyph-name="ccaron" unicode="&#x10d;" horiz-adv-x="491" 
d="M237 -12q-87 0 -141 55.5t-54 162.5q0 68 19 127.5t54 103.5t83.5 69.5t107.5 25.5q72 0 118.5 -35t59.5 -92l-87 -35q-11 35 -32.5 54.5t-63.5 19.5q-54 0 -88 -34t-46 -97l-17 -86q-5 -25 -5 -44q0 -48 25 -77.5t77 -29.5q38 0 65.5 22t54.5 71l80 -38
q-33 -70 -86 -106.5t-124 -36.5zM269 594l-90 150l57 42l92 -116l139 116l54 -42l-145 -150h-107z" />
    <glyph glyph-name="Dcaron" unicode="&#x10e;" horiz-adv-x="665" 
d="M172 698h213q117 0 184 -67.5t67 -199.5q0 -86 -23.5 -164t-68.5 -137.5t-111.5 -94.5t-151.5 -35h-249zM287 97q81 0 136.5 49t75.5 146l20 100q3 17 4.5 33.5t1.5 28.5q0 75 -37.5 111t-100.5 36h-126l-101 -504h127zM345 760l-91 150l57 43l93 -116l139 116l54 -43
l-146 -150h-106z" />
    <glyph glyph-name="dcaron" unicode="&#x10f;" horiz-adv-x="620" 
d="M434 0q-35 0 -55.5 18t-20.5 50q0 17 3 29l4 19h-4q-32 -64 -70.5 -96t-98.5 -32q-72 0 -111 52t-39 139q0 68 17 132t49.5 113t78.5 78.5t104 29.5q51 0 88 -26.5t45 -72.5h5l61 307h104l-131 -653h67l-17 -87h-79zM234 77q31 0 55 14.5t44 35.5q44 47 57 115l19 95
q9 45 -16 75.5t-84 30.5q-56 0 -91 -35.5t-49 -104.5l-15 -73q-2 -12 -3.5 -26.5t-1.5 -27.5q0 -44 21 -71.5t64 -27.5zM688 542h-72l42 198h120z" />
    <glyph glyph-name="Dcroat" unicode="&#x110;" horiz-adv-x="669" 
d="M100 319h-75l17 84h75l59 295h213q117 0 184 -67.5t67 -199.5q0 -86 -23.5 -164t-69 -137.5t-112 -94.5t-151.5 -35h-248zM291 97q81 0 136.5 49t75.5 146l20 100q3 17 4.5 33.5t1.5 28.5q0 75 -37.5 111t-101.5 36h-125l-39 -198h124l-17 -84h-124l-45 -222h127z" />
    <glyph glyph-name="dcroat" unicode="&#x111;" horiz-adv-x="589" 
d="M434 0q-35 0 -55.5 18t-20.5 50q0 17 3 29l4 19h-4q-32 -64 -70.5 -96t-98.5 -32q-72 0 -111 52t-39 139q0 68 17 132t49.5 113t78.5 78.5t104 29.5q51 0 88 -26.5t45 -72.5h5l33 167h-149l15 75h149l13 65h104l-13 -65h59l-16 -75h-58l-103 -513h67l-17 -87h-79zM234 77
q31 0 55 14.5t44 35.5q44 47 57 115l19 95q9 45 -16 75.5t-84 30.5q-56 0 -91 -35.5t-49 -104.5l-15 -73q-2 -12 -3.5 -26.5t-1.5 -27.5q0 -44 21 -71.5t64 -27.5z" />
    <glyph glyph-name="Emacron" unicode="&#x112;" horiz-adv-x="571" 
d="M32 0l140 698h427l-20 -96h-318l-40 -202h284l-19 -96h-284l-42 -208h332l-19 -96h-441zM279 881h274l-16 -81h-275z" />
    <glyph glyph-name="emacron" unicode="&#x113;" horiz-adv-x="512" 
d="M248 -12q-101 0 -153.5 57.5t-52.5 162.5q0 64 19.5 122.5t55.5 103.5t87 71.5t114 26.5q31 0 62.5 -8t56.5 -25t40.5 -44t15.5 -65q0 -83 -83.5 -127t-261.5 -48q-3 -20 -3 -33q0 -48 26.5 -77t83.5 -29q43 0 78 19t67 59l66 -55q-49 -61 -103 -86t-115 -25zM310 449
q-54 0 -93.5 -36.5t-51.5 -98.5l-5 -26q71 3 116 10t70.5 19t34.5 29t9 39q0 19 -7 31.5t-18.5 20t-25.5 10t-29 2.5zM220 714h275l-17 -82h-275z" />
    <glyph glyph-name="Ebreve" unicode="&#x114;" horiz-adv-x="571" 
d="M32 0l140 698h427l-20 -96h-318l-40 -202h284l-19 -96h-284l-42 -208h332l-19 -96h-441zM397 755q-39 0 -65.5 14t-43.5 36t-26 48.5t-13 51.5l60 29l14 -31q15 -33 31.5 -51.5t46.5 -18.5q27 0 49.5 16.5t49.5 54.5l22 30l63 -31q-13 -26 -29.5 -52t-39 -47.5t-52 -35
t-67.5 -13.5z" />
    <glyph glyph-name="ebreve" unicode="&#x115;" horiz-adv-x="512" 
d="M248 -12q-101 0 -153.5 57.5t-52.5 162.5q0 64 19.5 122.5t55.5 103.5t87 71.5t114 26.5q31 0 62.5 -8t56.5 -25t40.5 -44t15.5 -65q0 -83 -83.5 -127t-261.5 -48q-3 -20 -3 -33q0 -48 26.5 -77t83.5 -29q43 0 78 19t67 59l66 -55q-49 -61 -103 -86t-115 -25zM310 449
q-54 0 -93.5 -36.5t-51.5 -98.5l-5 -26q71 3 116 10t70.5 19t34.5 29t9 39q0 19 -7 31.5t-18.5 20t-25.5 10t-29 2.5zM336 589q-39 0 -65.5 14t-43 36t-25.5 48.5t-13 51.5l60 29l14 -29q15 -34 31.5 -52.5t46.5 -18.5q27 0 48.5 17t50.5 55l22 28l63 -31q-14 -26 -30.5 -52
t-39 -47.5t-52 -35t-67.5 -13.5z" />
    <glyph glyph-name="Edotaccent" unicode="&#x116;" horiz-adv-x="571" 
d="M32 0l140 698h427l-20 -96h-318l-40 -202h284l-19 -96h-284l-42 -208h332l-19 -96h-441zM397 772q-29 0 -42.5 12t-13.5 33q0 5 1 11t4 20q5 26 21 41t51 15q29 0 42.5 -12t13.5 -33q0 -5 -1 -11t-4 -20q-5 -26 -21 -41t-51 -15z" />
    <glyph glyph-name="edotaccent" unicode="&#x117;" horiz-adv-x="512" 
d="M248 -12q-101 0 -153.5 57.5t-52.5 162.5q0 64 19.5 122.5t55.5 103.5t87 71.5t114 26.5q31 0 62.5 -8t56.5 -25t40.5 -44t15.5 -65q0 -83 -83.5 -127t-261.5 -48q-3 -20 -3 -33q0 -48 26.5 -77t83.5 -29q43 0 78 19t67 59l66 -55q-49 -61 -103 -86t-115 -25zM310 449
q-54 0 -93.5 -36.5t-51.5 -98.5l-5 -26q71 3 116 10t70.5 19t34.5 29t9 39q0 19 -7 31.5t-18.5 20t-25.5 10t-29 2.5zM339 605q-29 0 -42.5 12t-13.5 33q0 5 1 11t4 20q5 26 21 41t51 15q29 0 42.5 -12t13.5 -33q0 -5 -1 -11t-4 -20q-5 -26 -21 -41t-51 -15z" />
    <glyph glyph-name="Eogonek" unicode="&#x118;" horiz-adv-x="571" 
d="M172 698h427l-19 -96h-319l-40 -202h284l-19 -96h-284l-42 -208h332l-19 -96q-40 -26 -63.5 -44.5t-35.5 -32t-15.5 -23.5t-3.5 -17q0 -30 34 -30q14 0 28 6t26 21l43 -47q-15 -17 -41.5 -29.5t-66.5 -12.5q-21 0 -40.5 4.5t-34 14t-23 24.5t-8.5 35q0 80 130 126l-1 5
h-369z" />
    <glyph glyph-name="eogonek" unicode="&#x119;" horiz-adv-x="512" 
d="M233 -209q-21 0 -40.5 4.5t-34 14t-23 24.5t-8.5 35q0 37 29.5 66.5t84.5 49.5l-1 3q-97 2 -147.5 59.5t-50.5 160.5q0 64 19.5 122.5t55.5 103.5t87 71.5t114 26.5q31 0 62.5 -8t56.5 -25t40.5 -44t15.5 -65q0 -83 -83.5 -127t-261.5 -48q-3 -20 -3 -33q0 -48 26.5 -77
t83.5 -29q43 0 78 19t67 59l66 -55q-18 -23 -35.5 -39t-35 -27t-35.5 -20t-36 -19q-60 -32 -87 -59.5t-27 -51.5q0 -30 34 -30q14 0 28 6t26 21l44 -47q-16 -17 -42.5 -29.5t-66.5 -12.5zM310 449q-54 0 -93.5 -36.5t-51.5 -98.5l-5 -26q71 3 116 10t70.5 19t34.5 29t9 39
q0 19 -7 31.5t-18.5 20t-25.5 10t-29 2.5z" />
    <glyph glyph-name="Ecaron" unicode="&#x11a;" horiz-adv-x="571" 
d="M32 0l140 698h427l-20 -96h-318l-40 -202h284l-19 -96h-284l-42 -208h332l-19 -96h-441zM341 760l-91 150l57 43l93 -116l139 116l54 -43l-146 -150h-106z" />
    <glyph glyph-name="ecaron" unicode="&#x11b;" horiz-adv-x="512" 
d="M248 -12q-101 0 -153.5 57.5t-52.5 162.5q0 64 19.5 122.5t55.5 103.5t87 71.5t114 26.5q31 0 62.5 -8t56.5 -25t40.5 -44t15.5 -65q0 -83 -83.5 -127t-261.5 -48q-3 -20 -3 -33q0 -48 26.5 -77t83.5 -29q43 0 78 19t67 59l66 -55q-49 -61 -103 -86t-115 -25zM310 449
q-54 0 -93.5 -36.5t-51.5 -98.5l-5 -26q71 3 116 10t70.5 19t34.5 29t9 39q0 19 -7 31.5t-18.5 20t-25.5 10t-29 2.5zM282 594l-90 150l57 42l92 -116l139 116l54 -42l-145 -150h-107z" />
    <glyph glyph-name="Gcircumflex" unicode="&#x11c;" horiz-adv-x="678" 
d="M483 106h-6q-24 -49 -73 -83.5t-123 -34.5q-50 0 -91 18t-71 53t-46.5 87t-16.5 121q0 91 24.5 171.5t70.5 141t112.5 95.5t149.5 35q92 0 156 -42.5t87 -119.5l-94 -46q-17 53 -56 82t-102 29q-85 0 -139.5 -53.5t-72.5 -146.5l-21 -107q-6 -30 -6 -58q0 -79 39.5 -121
t105.5 -42q69 0 121.5 38.5t66.5 107.5l9 46h-139l19 94h243l-74 -371h-95zM514 944l90 -150l-57 -42l-95 115l-137 -116l-53 43l146 150h106z" />
    <glyph glyph-name="gcircumflex" unicode="&#x11d;" horiz-adv-x="519" 
d="M477 -31q0 -34 -13 -66.5t-45.5 -58t-87.5 -41t-138 -15.5q-115 0 -164.5 31t-49.5 84q0 44 28 71t79 41l2 7q-27 8 -38.5 26t-11.5 44q0 40 29.5 65t78.5 35l1 7q-71 38 -71 131q0 41 15 77.5t44.5 64.5t72 44t97.5 16q22 0 41.5 -3.5t36.5 -8.5h166l-14 -78h-69
q16 -29 16 -63q0 -41 -15.5 -77t-45.5 -64t-73 -44t-98 -16q-30 0 -57 6q-28 -7 -46 -20.5t-18 -35.5q0 -35 62 -35h121q87 0 126 -31.5t39 -92.5zM262 254q49 0 76 23.5t35 62.5q4 20 5 30t1 18q0 32 -20.5 50t-64.5 18q-49 0 -76 -23t-35 -63q-5 -23 -5.5 -32t-0.5 -16
q0 -32 20.5 -50t64.5 -18zM372 -53q0 25 -16.5 39t-61.5 14h-175q-24 -13 -35 -31t-11 -39q0 -29 22 -47t78 -18h55q78 0 111 23.5t33 58.5zM402 778l90 -150l-57 -43l-95 116l-137 -115l-52 43l145 149h106z" />
    <glyph glyph-name="Gbreve" unicode="&#x11e;" horiz-adv-x="678" 
d="M483 106h-6q-24 -49 -73 -83.5t-123 -34.5q-50 0 -91 18t-71 53t-46.5 87t-16.5 121q0 91 24.5 171.5t70.5 141t112.5 95.5t149.5 35q92 0 156 -42.5t87 -119.5l-94 -46q-17 53 -56 82t-102 29q-85 0 -139.5 -53.5t-72.5 -146.5l-21 -107q-6 -30 -6 -58q0 -79 39.5 -121
t105.5 -42q69 0 121.5 38.5t66.5 107.5l9 46h-139l19 94h243l-74 -371h-95zM435 755q-39 0 -65.5 14t-43.5 36t-26 48.5t-13 51.5l60 29l14 -31q15 -33 31.5 -51.5t46.5 -18.5q27 0 49.5 16.5t49.5 54.5l22 30l63 -31q-13 -26 -29.5 -52t-39 -47.5t-52 -35t-67.5 -13.5z" />
    <glyph glyph-name="gbreve" unicode="&#x11f;" horiz-adv-x="519" 
d="M477 -31q0 -34 -13 -66.5t-45.5 -58t-87.5 -41t-138 -15.5q-115 0 -164.5 31t-49.5 84q0 44 28 71t79 41l2 7q-27 8 -38.5 26t-11.5 44q0 40 29.5 65t78.5 35l1 7q-71 38 -71 131q0 41 15 77.5t44.5 64.5t72 44t97.5 16q22 0 41.5 -3.5t36.5 -8.5h166l-14 -78h-69
q16 -29 16 -63q0 -41 -15.5 -77t-45.5 -64t-73 -44t-98 -16q-30 0 -57 6q-28 -7 -46 -20.5t-18 -35.5q0 -35 62 -35h121q87 0 126 -31.5t39 -92.5zM262 254q49 0 76 23.5t35 62.5q4 20 5 30t1 18q0 32 -20.5 50t-64.5 18q-49 0 -76 -23t-35 -63q-5 -23 -5.5 -32t-0.5 -16
q0 -32 20.5 -50t64.5 -18zM372 -53q0 25 -16.5 39t-61.5 14h-175q-24 -13 -35 -31t-11 -39q0 -29 22 -47t78 -18h55q78 0 111 23.5t33 58.5zM320 589q-39 0 -65.5 14t-43 36t-25.5 48.5t-13 51.5l60 29l14 -29q15 -34 31.5 -52.5t46.5 -18.5q27 0 48.5 17t50.5 55l22 28
l63 -31q-14 -26 -30.5 -52t-39 -47.5t-52 -35t-67.5 -13.5z" />
    <glyph glyph-name="Gdotaccent" unicode="&#x120;" horiz-adv-x="678" 
d="M483 106h-6q-24 -49 -73 -83.5t-123 -34.5q-50 0 -91 18t-71 53t-46.5 87t-16.5 121q0 91 24.5 171.5t70.5 141t112.5 95.5t149.5 35q92 0 156 -42.5t87 -119.5l-94 -46q-17 53 -56 82t-102 29q-85 0 -139.5 -53.5t-72.5 -146.5l-21 -107q-6 -30 -6 -58q0 -79 39.5 -121
t105.5 -42q69 0 121.5 38.5t66.5 107.5l9 46h-139l19 94h243l-74 -371h-95zM435 772q-29 0 -42.5 12t-13.5 33q0 5 1 11t4 20q5 26 21 41t51 15q29 0 42.5 -12t13.5 -33q0 -5 -1 -11t-4 -20q-5 -26 -21 -41t-51 -15z" />
    <glyph glyph-name="gdotaccent" unicode="&#x121;" horiz-adv-x="519" 
d="M477 -31q0 -34 -13 -66.5t-45.5 -58t-87.5 -41t-138 -15.5q-115 0 -164.5 31t-49.5 84q0 44 28 71t79 41l2 7q-27 8 -38.5 26t-11.5 44q0 40 29.5 65t78.5 35l1 7q-71 38 -71 131q0 41 15 77.5t44.5 64.5t72 44t97.5 16q22 0 41.5 -3.5t36.5 -8.5h166l-14 -78h-69
q16 -29 16 -63q0 -41 -15.5 -77t-45.5 -64t-73 -44t-98 -16q-30 0 -57 6q-28 -7 -46 -20.5t-18 -35.5q0 -35 62 -35h121q87 0 126 -31.5t39 -92.5zM262 254q49 0 76 23.5t35 62.5q4 20 5 30t1 18q0 32 -20.5 50t-64.5 18q-49 0 -76 -23t-35 -63q-5 -23 -5.5 -32t-0.5 -16
q0 -32 20.5 -50t64.5 -18zM372 -53q0 25 -16.5 39t-61.5 14h-175q-24 -13 -35 -31t-11 -39q0 -29 22 -47t78 -18h55q78 0 111 23.5t33 58.5zM317 605q-29 0 -42.5 12t-13.5 33q0 5 1 11t4 20q5 26 21 41t51 15q29 0 42.5 -12t13.5 -33q0 -5 -1 -11t-4 -20q-5 -26 -21 -41
t-51 -15z" />
    <glyph glyph-name="Gcommaaccent" unicode="&#x122;" horiz-adv-x="678" 
d="M483 106h-6q-24 -49 -73 -83.5t-123 -34.5q-50 0 -91 18t-71 53t-46.5 87t-16.5 121q0 91 24.5 171.5t70.5 141t112.5 95.5t149.5 35q92 0 156 -42.5t87 -119.5l-94 -46q-17 53 -56 82t-102 29q-85 0 -139.5 -53.5t-72.5 -146.5l-21 -107q-6 -30 -6 -58q0 -79 39.5 -121
t105.5 -42q69 0 121.5 38.5t66.5 107.5l9 46h-139l19 94h243l-74 -371h-95zM270 -56q51 0 51 -43q0 -5 -0.5 -9.5t-2.5 -15.5q-8 -38 -30.5 -74.5t-50.5 -59.5h-68q26 23 40.5 41.5t25.5 44.5q-17 2 -24.5 12t-7.5 26q0 3 0.5 8.5t2.5 16.5q11 53 64 53z" />
    <glyph glyph-name="gcommaaccent" unicode="&#x123;" horiz-adv-x="519" 
d="M477 -31q0 -34 -13 -66.5t-45.5 -58t-87.5 -41t-138 -15.5q-115 0 -164.5 31t-49.5 84q0 44 28 71t79 41l2 7q-27 8 -38.5 26t-11.5 44q0 40 29.5 65t78.5 35l1 7q-71 38 -71 131q0 41 15 77.5t44.5 64.5t72 44t97.5 16q22 0 41.5 -3.5t36.5 -8.5h166l-14 -78h-69
q16 -29 16 -63q0 -41 -15.5 -77t-45.5 -64t-73 -44t-98 -16q-30 0 -57 6q-28 -7 -46 -20.5t-18 -35.5q0 -35 62 -35h121q87 0 126 -31.5t39 -92.5zM262 254q49 0 76 23.5t35 62.5q4 20 5 30t1 18q0 32 -20.5 50t-64.5 18q-49 0 -76 -23t-35 -63q-5 -23 -5.5 -32t-0.5 -16
q0 -32 20.5 -50t64.5 -18zM372 -53q0 25 -16.5 39t-61.5 14h-175q-24 -13 -35 -31t-11 -39q0 -29 22 -47t78 -18h55q78 0 111 23.5t33 58.5zM312 587q-26 0 -38.5 11t-12.5 31q0 5 0.5 10t2.5 16q8 38 30.5 74.5t50.5 59.5h68q-26 -23 -40.5 -42t-25.5 -44q17 -2 24.5 -12
t7.5 -26q0 -3 -0.5 -8.5t-2.5 -16.5q-11 -53 -64 -53z" />
    <glyph glyph-name="Hcircumflex" unicode="&#x124;" horiz-adv-x="691" 
d="M508 304h-306l-62 -304h-108l140 698h108l-59 -298h306l59 298h108l-140 -698h-108zM524 944l90 -150l-57 -42l-95 115l-137 -116l-53 43l146 150h106z" />
    <glyph glyph-name="hcircumflex" unicode="&#x125;" horiz-adv-x="573" 
d="M175 740h104l-66 -331h5q29 60 68 91.5t97 31.5q65 0 97.5 -37t32.5 -103q0 -17 -2 -33.5t-6 -36.5l-47 -235h63l-17 -87h-79q-33 0 -52.5 17t-19.5 49q0 6 0.5 12.5t1.5 11.5l45 225q6 30 6 55q0 35 -16 53.5t-52 18.5q-52 0 -91 -44q-22 -24 -38 -55.5t-22 -62.5
l-56 -280h-104zM314 936l90 -150l-57 -43l-95 116l-137 -115l-52 43l145 149h106z" />
    <glyph glyph-name="Hbar" unicode="&#x126;" horiz-adv-x="698" 
d="M512 304h-306l-62 -304h-108l103 517h-69l17 82h69l20 99h108l-20 -99h306l20 99h108l-20 -99h68l-16 -82h-69l-103 -517h-108zM531 400l22 117h-305l-23 -117h306z" />
    <glyph glyph-name="hbar" unicode="&#x127;" horiz-adv-x="573" 
d="M147 600h-65l15 76h65l13 64h104l-13 -64h143l-15 -76h-143l-38 -191h5q29 60 68 91.5t97 31.5q65 0 97.5 -37t32.5 -103q0 -17 -2 -33.5t-6 -36.5l-47 -235h63l-17 -87h-79q-33 0 -52.5 17t-19.5 49q0 6 0.5 12.5t1.5 11.5l45 225q6 30 6 55q0 35 -16 53.5t-52 18.5
q-27 0 -49 -12t-42 -32q-23 -23 -38.5 -55t-21.5 -63l-56 -280h-104z" />
    <glyph glyph-name="Itilde" unicode="&#x128;" horiz-adv-x="398" 
d="M3 0l18 90h90l104 518h-90l18 90h288l-18 -90h-90l-104 -518h90l-18 -90h-288zM378 774q-24 0 -41.5 8t-34.5 16q-39 23 -68 23q-16 0 -29 -6.5t-30 -19.5l-34 52q19 24 45 40.5t61 16.5q24 0 41.5 -7.5t34.5 -16.5q39 -23 68 -23q17 0 29.5 6.5t29.5 19.5l34 -51
q-19 -24 -45 -41t-61 -17z" />
    <glyph glyph-name="itilde" unicode="&#x129;" horiz-adv-x="271" 
d="M121 0q-38 0 -58 19.5t-20 51.5q0 5 0.5 11t1.5 11l86 427h104l-87 -433h67l-17 -87h-77zM279 607q-24 0 -41 7.5t-34 16.5q-39 23 -68 23q-17 0 -29.5 -6.5t-29.5 -19.5l-35 51q20 24 45.5 40.5t60.5 16.5q24 0 41 -7t34 -16q39 -23 68 -23q17 0 29.5 6.5t29.5 19.5
l35 -52q-20 -24 -45.5 -40.5t-60.5 -16.5z" />
    <glyph glyph-name="Imacron" unicode="&#x12a;" horiz-adv-x="398" 
d="M3 0l18 90h90l104 518h-90l18 90h288l-18 -90h-90l-104 -518h90l-18 -90h-288zM184 881h274l-16 -81h-275z" />
    <glyph glyph-name="imacron" unicode="&#x12b;" horiz-adv-x="271" 
d="M121 0q-38 0 -58 19.5t-20 51.5q0 5 0.5 11t1.5 11l86 427h104l-87 -433h67l-17 -87h-77zM85 714h275l-17 -82h-275z" />
    <glyph glyph-name="Ibreve" unicode="&#x12c;" horiz-adv-x="398" 
d="M3 0l18 90h90l104 518h-90l18 90h288l-18 -90h-90l-104 -518h90l-18 -90h-288zM302 755q-39 0 -65.5 14t-43.5 36t-26 48.5t-13 51.5l60 29l14 -31q15 -33 31.5 -51.5t46.5 -18.5q27 0 49.5 16.5t49.5 54.5l22 30l63 -31q-13 -26 -29.5 -52t-39 -47.5t-52 -35
t-67.5 -13.5z" />
    <glyph glyph-name="ibreve" unicode="&#x12d;" horiz-adv-x="271" 
d="M121 0q-38 0 -58 19.5t-20 51.5q0 5 0.5 11t1.5 11l86 427h104l-87 -433h67l-17 -87h-77zM201 589q-39 0 -65.5 14t-43 36t-25.5 48.5t-13 51.5l60 29l14 -29q15 -34 31.5 -52.5t46.5 -18.5q27 0 48.5 17t50.5 55l22 28l63 -31q-14 -26 -30.5 -52t-39 -47.5t-52 -35
t-67.5 -13.5z" />
    <glyph glyph-name="Iogonek" unicode="&#x12e;" horiz-adv-x="398" 
d="M21 90h90l104 518h-90l18 90h288l-18 -90h-90l-104 -518h90l-18 -90q-40 -26 -63.5 -44.5t-35.5 -32t-15.5 -23.5t-3.5 -17q0 -30 34 -30q14 0 28 6t26 21l43 -47q-15 -17 -41.5 -29.5t-66.5 -12.5q-21 0 -40.5 4.5t-34 14t-23 24.5t-8.5 35q0 40 33.5 71.5t97.5 54.5
l-1 5h-217z" />
    <glyph glyph-name="iogonek" unicode="&#x12f;" horiz-adv-x="271" 
d="M198 0q-40 -26 -63.5 -44.5t-35.5 -32t-15.5 -23.5t-3.5 -17q0 -30 34 -30q14 0 28 6t26 21l43 -47q-15 -17 -41.5 -29.5t-66.5 -12.5q-21 0 -40.5 4.5t-34 14t-23 24.5t-8.5 35q0 40 34 71.5t98 54.5l-1 5h-7q-38 0 -58 19.5t-20 50.5q0 10 3 25l85 425h104l-87 -433h67
zM204 613q-29 0 -42 12t-13 30q0 10 5 35q5 23 21 38.5t51 15.5q29 0 42 -12t13 -30q0 -10 -5 -35q-5 -23 -21 -38.5t-51 -15.5z" />
    <glyph glyph-name="Idotaccent" unicode="&#x130;" horiz-adv-x="398" 
d="M3 0l18 90h90l104 518h-90l18 90h288l-18 -90h-90l-104 -518h90l-18 -90h-288zM302 772q-29 0 -42.5 12t-13.5 33q0 5 1 11t4 20q5 26 21 41t51 15q29 0 42.5 -12t13.5 -33q0 -5 -1 -11t-4 -20q-5 -26 -21 -41t-51 -15z" />
    <glyph glyph-name="dotlessi" unicode="&#x131;" horiz-adv-x="271" 
d="M121 0q-38 0 -58 19.5t-20 51.5q0 5 0.5 11t1.5 11l86 427h104l-87 -433h67l-17 -87h-77z" />
    <glyph glyph-name="IJ" unicode="&#x132;" horiz-adv-x="643" 
d="M646 698l-97 -481q-22 -109 -91 -169t-180 -60q-47 0 -85 13t-65.5 37t-42.5 56.5t-15 71.5l102 23q1 -50 30 -76t84 -26q62 0 102 34.5t54 102.5l76 382h-127l18 92h237zM170 698h109l-80 -400h-109z" />
    <glyph glyph-name="ij" unicode="&#x133;" horiz-adv-x="530" 
d="M204 613q-29 0 -42 12t-13 30q0 10 5 35q5 23 21 38.5t51 15.5q29 0 42 -12t13 -30q0 -10 -5 -35q-5 -23 -21 -38.5t-51 -15.5zM121 0q-38 0 -58 19.5t-20 50.5q0 10 3 25l85 425h104l-87 -433h67l-17 -87h-77zM400 520h104l-121 -603q-12 -59 -42.5 -88t-92.5 -29h-72
l17 86h80zM473 613q-29 0 -42 12t-13 30q0 10 5 35q5 23 21 38.5t51 15.5q29 0 42 -12t13 -30q0 -10 -5 -35q-5 -23 -21 -38.5t-51 -15.5z" />
    <glyph glyph-name="Jcircumflex" unicode="&#x134;" horiz-adv-x="514" 
d="M518 698l-103 -512q-19 -94 -75.5 -146t-149.5 -52q-85 0 -133 48.5t-53 128.5l101 20q3 -45 23 -72.5t64 -27.5q46 0 75.5 27t41.5 87l81 407h-221l19 92h330zM445 944l90 -150l-57 -42l-95 115l-137 -116l-53 43l146 150h106z" />
    <glyph glyph-name="jcircumflex" unicode="&#x135;" horiz-adv-x="263" 
d="M-74 -113h80l127 633h104l-122 -602q-11 -60 -42 -89t-92 -29h-72zM284 778l90 -150l-57 -43l-95 116l-137 -115l-52 43l145 149h106z" />
    <glyph glyph-name="Kcommaaccent" unicode="&#x136;" horiz-adv-x="633" 
d="M303 324l-121 -116l-42 -208h-108l140 698h109l-70 -347h6l115 122l223 225h134l-302 -302l182 -396h-119zM262 -56q51 0 51 -43q0 -5 -0.5 -9.5t-2.5 -15.5q-8 -38 -30.5 -74.5t-50.5 -59.5h-68q26 23 40.5 41.5t25.5 44.5q-17 2 -24.5 12t-7.5 26q0 3 0.5 8.5t2.5 16.5
q11 53 64 53z" />
    <glyph glyph-name="kcommaaccent" unicode="&#x137;" horiz-adv-x="532" 
d="M175 740h104l-90 -451h6l83 88l153 143h123l-223 -210l91 -223h63l-17 -87h-57q-35 0 -56.5 15.5t-34.5 49.5l-71 178l-86 -81l-32 -162h-104zM232 -56q51 0 51 -43q0 -5 -0.5 -9.5t-2.5 -15.5q-8 -38 -30.5 -74.5t-50.5 -59.5h-68q26 23 40.5 41.5t25.5 44.5
q-17 2 -24.5 12t-7.5 26q0 3 0.5 8.5t2.5 16.5q11 53 64 53z" />
    <glyph glyph-name="kgreenlandic" unicode="&#x138;" horiz-adv-x="543" 
d="M131 520h104l-50 -248h6l93 95l166 153h123l-235 -220l84 -213h64l-17 -87h-58q-35 0 -56 15.5t-34 49.5l-67 169l-94 -85l-30 -149h-103z" />
    <glyph glyph-name="Lacute" unicode="&#x139;" horiz-adv-x="498" 
d="M32 0l140 698h109l-121 -602h274l-19 -96h-383zM254 749l-64 34l110 179l87 -46z" />
    <glyph glyph-name="lacute" unicode="&#x13a;" horiz-adv-x="270" 
d="M120 0q-38 0 -58 19.5t-20 50.5q0 10 3 25l129 645h104l-131 -653h72l-17 -87h-82zM252 782l-63 34l110 179l87 -46z" />
    <glyph glyph-name="Lcommaaccent" unicode="&#x13b;" horiz-adv-x="498" 
d="M32 0l140 698h109l-121 -602h274l-19 -96h-383zM210 -56q51 0 51 -43q0 -5 -0.5 -9.5t-2.5 -15.5q-8 -38 -30.5 -74.5t-50.5 -59.5h-68q26 23 40.5 41.5t25.5 44.5q-17 2 -24.5 12t-7.5 26q0 3 0.5 8.5t2.5 16.5q11 53 64 53z" />
    <glyph glyph-name="lcommaaccent" unicode="&#x13c;" horiz-adv-x="270" 
d="M120 0q-38 0 -58 19.5t-20 50.5q0 10 3 25l129 645h104l-131 -653h72l-17 -87h-82zM108 -56q51 0 51 -43q0 -5 -0.5 -9.5t-2.5 -15.5q-8 -38 -30.5 -74.5t-50.5 -59.5h-68q26 23 40.5 41.5t25.5 44.5q-17 2 -24.5 12t-7.5 26q0 3 0.5 8.5t2.5 16.5q11 53 64 53z" />
    <glyph glyph-name="Lcaron" unicode="&#x13d;" horiz-adv-x="498" 
d="M32 0l140 698h109l-121 -602h274l-19 -96h-383zM396 542h-72l42 198h120z" />
    <glyph glyph-name="lcaron" unicode="&#x13e;" horiz-adv-x="304" 
d="M120 0q-38 0 -58 19.5t-20 50.5q0 10 3 25l129 645h104l-131 -653h72l-17 -87h-82zM372 542h-72l42 198h120z" />
    <glyph glyph-name="Ldot" unicode="&#x13f;" horiz-adv-x="498" 
d="M32 0l140 698h109l-121 -602h274l-19 -96h-383zM393 298q-29 0 -42.5 12t-13.5 33q0 5 1 11t4 20q5 26 21 41t51 15q29 0 42.5 -12t13.5 -33q0 -5 -1 -11t-4 -20q-5 -26 -21 -41t-51 -15z" />
    <glyph glyph-name="ldot" unicode="&#x140;" horiz-adv-x="372" 
d="M120 0q-38 0 -58 19.5t-20 50.5q0 10 3 25l129 645h104l-131 -653h72l-17 -87h-82zM320 262q-29 0 -42.5 12t-13.5 33q0 5 1 11t4 20q5 26 21 41t51 15q29 0 42.5 -12t13.5 -33q0 -5 -1 -11t-4 -20q-5 -26 -21 -41t-51 -15z" />
    <glyph glyph-name="Lslash" unicode="&#x141;" horiz-adv-x="507" 
d="M419 0h-382l53 261l-95 -29l17 87l95 30l70 349h108l-62 -314l179 57l-18 -91l-179 -55l-40 -199h273z" />
    <glyph glyph-name="lslash" unicode="&#x142;" horiz-adv-x="278" 
d="M207 0h-83q-38 0 -58 19.5t-20 50.5q0 10 3 25l43 216l-72 -23l17 84l72 24l69 344h104l-61 -307l106 35l-17 -85l-106 -34l-52 -262h72z" />
    <glyph glyph-name="Nacute" unicode="&#x143;" horiz-adv-x="691" 
d="M298 385l-49 155h-6l-108 -540h-103l140 698h120l136 -385l49 -155h6l108 540h103l-140 -698h-120zM459 749l-64 34l110 179l87 -46z" />
    <glyph glyph-name="nacute" unicode="&#x144;" horiz-adv-x="573" 
d="M27 0l104 520h104l-22 -111h5q29 60 68 91.5t97 31.5q65 0 97.5 -37t32.5 -103q0 -17 -2 -33.5t-6 -36.5l-47 -235h63l-17 -87h-79q-33 0 -52.5 17t-19.5 49v10.5t2 13.5l45 225q6 30 6 55q0 35 -16 53.5t-52 18.5q-52 0 -91 -44q-22 -24 -38 -55.5t-22 -62.5l-56 -280
h-104zM368 582l-63 34l110 179l87 -46z" />
    <glyph glyph-name="Ncommaaccent" unicode="&#x145;" horiz-adv-x="691" 
d="M298 385l-49 155h-6l-108 -540h-103l140 698h120l136 -385l49 -155h6l108 540h103l-140 -698h-120zM280 -56q51 0 51 -43q0 -5 -0.5 -9.5t-2.5 -15.5q-8 -38 -30.5 -74.5t-50.5 -59.5h-68q26 23 40.5 41.5t25.5 44.5q-17 2 -24.5 12t-7.5 26q0 3 0.5 8.5t2.5 16.5
q11 53 64 53z" />
    <glyph glyph-name="ncommaaccent" unicode="&#x146;" horiz-adv-x="573" 
d="M27 0l104 520h104l-22 -111h5q29 60 68 91.5t97 31.5q65 0 97.5 -37t32.5 -103q0 -17 -2 -33.5t-6 -36.5l-47 -235h63l-17 -87h-79q-33 0 -52.5 17t-19.5 49v10.5t2 13.5l45 225q6 30 6 55q0 35 -16 53.5t-52 18.5q-52 0 -91 -44q-22 -24 -38 -55.5t-22 -62.5l-56 -280
h-104zM243 -56q51 0 51 -43q0 -5 -0.5 -9.5t-2.5 -15.5q-8 -38 -30.5 -74.5t-50.5 -59.5h-68q26 23 40.5 41.5t25.5 44.5q-17 2 -24.5 12t-7.5 26q0 3 0.5 8.5t2.5 16.5q11 53 64 53z" />
    <glyph glyph-name="Ncaron" unicode="&#x147;" horiz-adv-x="691" 
d="M298 385l-49 155h-6l-108 -540h-103l140 698h120l136 -385l49 -155h6l108 540h103l-140 -698h-120zM393 760l-91 150l57 43l93 -116l139 116l54 -43l-146 -150h-106z" />
    <glyph glyph-name="ncaron" unicode="&#x148;" horiz-adv-x="573" 
d="M27 0l104 520h104l-22 -111h5q29 60 68 91.5t97 31.5q65 0 97.5 -37t32.5 -103q0 -17 -2 -33.5t-6 -36.5l-47 -235h63l-17 -87h-79q-33 0 -52.5 17t-19.5 49v10.5t2 13.5l45 225q6 30 6 55q0 35 -16 53.5t-52 18.5q-52 0 -91 -44q-22 -24 -38 -55.5t-22 -62.5l-56 -280
h-104zM301 594l-90 150l57 42l92 -116l139 116l54 -42l-145 -150h-107z" />
    <glyph glyph-name="napostrophe" unicode="&#x149;" horiz-adv-x="833" 
d="M235 750q32 0 47 -14.5t15 -36.5q0 -7 -1.5 -17.5t-3.5 -18.5q-11 -47 -41.5 -99.5t-84.5 -90.5h-83q39 32 65.5 63.5t44.5 67.5q-41 9 -41 46q0 7 1.5 17.5t3.5 19.5q6 27 23.5 45t54.5 18zM287 0l104 520h104l-22 -111h5q29 60 68 91.5t97 31.5q65 0 97.5 -37
t32.5 -103q0 -17 -2 -33.5t-6 -36.5l-47 -235h63l-17 -87h-79q-33 0 -52.5 17t-19.5 49v10.5t2 13.5l45 225q6 30 6 55q0 35 -16 53.5t-52 18.5q-52 0 -91 -44q-22 -24 -38 -55.5t-22 -62.5l-56 -280h-104z" />
    <glyph glyph-name="Eng" unicode="&#x14a;" horiz-adv-x="691" 
d="M32 0l140 698h120l136 -385l49 -155h6l108 540h103l-156 -778q-13 -62 -45 -91t-92 -29h-78l18 88h88l22 112h-17l-136 385l-49 155h-6l-108 -540h-103z" />
    <glyph glyph-name="eng" unicode="&#x14b;" horiz-adv-x="573" 
d="M315 -114l86 432q3 14 4 26.5t1 22.5q0 75 -67 75q-54 0 -93 -45q-20 -23 -36 -52t-22 -58l-57 -287h-104l104 520h104l-22 -111h5q28 59 68 91t97 32q66 0 98 -37.5t32 -103.5q0 -15 -1.5 -32.5t-5.5 -36.5l-81 -404q-11 -60 -42 -89t-93 -29h-72l17 86h80z" />
    <glyph glyph-name="Omacron" unicode="&#x14c;" horiz-adv-x="687" 
d="M303 -12q-51 0 -96 17t-78.5 51.5t-53 86.5t-19.5 122q0 88 25 168.5t71.5 142t112.5 98t147 36.5q51 0 96.5 -17t79 -51.5t53 -86.5t19.5 -122q0 -88 -25.5 -168.5t-72 -142t-112.5 -98t-147 -36.5zM313 85q84 0 137 53.5t73 151.5l22 106q4 17 5 33t1 29q0 73 -38 114
t-109 41q-83 0 -137.5 -54t-74.5 -153l-21 -104q-4 -18 -5 -33.5t-1 -28.5q0 -73 38 -114t110 -41zM318 881h274l-16 -81h-275z" />
    <glyph glyph-name="omacron" unicode="&#x14d;" horiz-adv-x="548" 
d="M238 -12q-88 0 -142 55t-54 160q0 67 20 127t55.5 105t84.5 71t108 26q88 0 142 -55t54 -160q0 -68 -20 -127.5t-55.5 -104.5t-84.5 -71t-108 -26zM246 76q49 0 85.5 36t50.5 105l17 83q2 8 3 18t1 21q0 48 -25.5 76.5t-75.5 28.5q-49 0 -85.5 -36t-50.5 -105l-17 -83
q-2 -9 -3 -18.5t-1 -20.5q0 -48 25.5 -76.5t75.5 -28.5zM216 714h275l-17 -82h-275z" />
    <glyph glyph-name="Obreve" unicode="&#x14e;" horiz-adv-x="687" 
d="M303 -12q-51 0 -96 17t-78.5 51.5t-53 86.5t-19.5 122q0 88 25 168.5t71.5 142t112.5 98t147 36.5q51 0 96.5 -17t79 -51.5t53 -86.5t19.5 -122q0 -88 -25.5 -168.5t-72 -142t-112.5 -98t-147 -36.5zM313 85q84 0 137 53.5t73 151.5l22 106q4 17 5 33t1 29q0 73 -38 114
t-109 41q-83 0 -137.5 -54t-74.5 -153l-21 -104q-4 -18 -5 -33.5t-1 -28.5q0 -73 38 -114t110 -41zM436 755q-39 0 -65.5 14t-43.5 36t-26 48.5t-13 51.5l60 29l14 -31q15 -33 31.5 -51.5t46.5 -18.5q27 0 49.5 16.5t49.5 54.5l22 30l63 -31q-13 -26 -29.5 -52t-39 -47.5
t-52 -35t-67.5 -13.5z" />
    <glyph glyph-name="obreve" unicode="&#x14f;" horiz-adv-x="548" 
d="M238 -12q-88 0 -142 55t-54 160q0 67 20 127t55.5 105t84.5 71t108 26q88 0 142 -55t54 -160q0 -68 -20 -127.5t-55.5 -104.5t-84.5 -71t-108 -26zM246 76q49 0 85.5 36t50.5 105l17 83q2 8 3 18t1 21q0 48 -25.5 76.5t-75.5 28.5q-49 0 -85.5 -36t-50.5 -105l-17 -83
q-2 -9 -3 -18.5t-1 -20.5q0 -48 25.5 -76.5t75.5 -28.5zM332 589q-39 0 -65.5 14t-43 36t-25.5 48.5t-13 51.5l60 29l14 -29q15 -34 31.5 -52.5t46.5 -18.5q27 0 48.5 17t50.5 55l22 28l63 -31q-14 -26 -30.5 -52t-39 -47.5t-52 -35t-67.5 -13.5z" />
    <glyph glyph-name="Ohungarumlaut" unicode="&#x150;" horiz-adv-x="687" 
d="M303 -12q-51 0 -96 17t-78.5 51.5t-53 86.5t-19.5 122q0 88 25 168.5t71.5 142t112.5 98t147 36.5q51 0 96.5 -17t79 -51.5t53 -86.5t19.5 -122q0 -88 -25.5 -168.5t-72 -142t-112.5 -98t-147 -36.5zM313 85q84 0 137 53.5t73 151.5l22 106q4 17 5 33t1 29q0 73 -38 114
t-109 41q-83 0 -137.5 -54t-74.5 -153l-21 -104q-4 -18 -5 -33.5t-1 -28.5q0 -73 38 -114t110 -41zM343 749l-59 29l108 180l82 -43zM516 749l-58 29l108 180l81 -43z" />
    <glyph glyph-name="ohungarumlaut" unicode="&#x151;" horiz-adv-x="548" 
d="M238 -12q-88 0 -142 55t-54 160q0 67 20 127t55.5 105t84.5 71t108 26q88 0 142 -55t54 -160q0 -68 -20 -127.5t-55.5 -104.5t-84.5 -71t-108 -26zM246 76q49 0 85.5 36t50.5 105l17 83q2 8 3 18t1 21q0 48 -25.5 76.5t-75.5 28.5q-49 0 -85.5 -36t-50.5 -105l-17 -83
q-2 -9 -3 -18.5t-1 -20.5q0 -48 25.5 -76.5t75.5 -28.5zM256 583l-59 29l109 181l81 -44zM429 583l-58 29l108 181l81 -44z" />
    <glyph glyph-name="OE" unicode="&#x152;" horiz-adv-x="947" 
d="M409 0q-28 -5 -56.5 -8.5t-52.5 -3.5q-53 0 -97.5 17.5t-77 53t-51 88.5t-18.5 124q0 88 25 168t72.5 140t115 95.5t151.5 35.5q13 0 29.5 -1t34 -2.5t34.5 -3.5t32 -5h425l-20 -96h-318l-40 -202h284l-19 -96h-284l-42 -208h332l-19 -96h-440zM324 85q23 0 51 3.5
t53 10.5l100 502q-11 3 -26 5t-30.5 3.5t-30 2.5t-26.5 1q-95 0 -149.5 -54.5t-74.5 -154.5l-20 -102q-6 -33 -6 -61q0 -72 38.5 -114t120.5 -42z" />
    <glyph glyph-name="oe" unicode="&#x153;" horiz-adv-x="858" 
d="M246 76q49 0 85.5 36t50.5 105l17 83q2 8 3 18t1 21q0 48 -25.5 76.5t-75.5 28.5q-49 0 -85.5 -36t-50.5 -105l-17 -83q-2 -8 -3 -18t-1 -21q0 -48 25.5 -76.5t75.5 -28.5zM655 449q-54 0 -93.5 -36.5t-51.5 -98.5l-5 -26q72 3 117 10t70.5 19t34.5 29t9 39q0 19 -7 31.5
t-18.5 20t-26 10t-29.5 2.5zM595 -12q-63 0 -106 24t-66 75h-6q-33 -48 -77.5 -73.5t-104.5 -25.5q-42 0 -77.5 14t-61 41.5t-40 67.5t-14.5 92q0 67 20 127t55.5 105t85 71t108.5 26q54 0 95 -23.5t63 -76.5h6q35 48 82 74t107 26q33 0 64 -8.5t56 -25.5t40 -43t15 -60
q0 -43 -19.5 -76t-61.5 -55.5t-107.5 -34.5t-157.5 -14q-2 -10 -2 -18.5v-16.5q0 -47 26.5 -75.5t84.5 -28.5q82 0 144 78l65 -55q-48 -61 -102 -86t-114 -25z" />
    <glyph glyph-name="Racute" unicode="&#x154;" horiz-adv-x="638" 
d="M140 0h-108l140 698h259q96 0 142.5 -47.5t46.5 -125.5q0 -40 -12 -76.5t-35 -67t-56 -53t-75 -32.5l94 -296h-116l-84 283h-139zM385 375q43 0 71.5 22.5t39.5 67.5q6 27 9 42.5t3 25.5q0 30 -18.5 49.5t-63.5 19.5h-165l-45 -227h169zM415 749l-64 34l110 179l87 -46z
" />
    <glyph glyph-name="racute" unicode="&#x155;" horiz-adv-x="377" 
d="M27 0l104 520h104l-22 -111h6q9 20 22.5 40t32.5 35.5t43.5 25.5t55.5 10h29l-21 -103h-35q-69 0 -107 -33t-49 -90l-59 -294h-104zM287 582l-63 34l110 179l87 -46z" />
    <glyph glyph-name="Rcommaaccent" unicode="&#x156;" horiz-adv-x="638" 
d="M140 0h-108l140 698h259q96 0 142.5 -47.5t46.5 -125.5q0 -40 -12 -76.5t-35 -67t-56 -53t-75 -32.5l94 -296h-116l-84 283h-139zM385 375q43 0 71.5 22.5t39.5 67.5q6 27 9 42.5t3 25.5q0 30 -18.5 49.5t-63.5 19.5h-165l-45 -227h169zM264 -56q51 0 51 -43
q0 -5 -0.5 -9.5t-2.5 -15.5q-8 -38 -30.5 -74.5t-50.5 -59.5h-68q26 23 40.5 41.5t25.5 44.5q-17 2 -24.5 12t-7.5 26q0 3 0.5 8.5t2.5 16.5q11 53 64 53z" />
    <glyph glyph-name="rcommaaccent" unicode="&#x157;" horiz-adv-x="377" 
d="M27 0l104 520h104l-22 -111h6q9 20 22.5 40t32.5 35.5t43.5 25.5t55.5 10h29l-21 -103h-35q-69 0 -107 -33t-49 -90l-59 -294h-104zM65 -56q51 0 51 -43q0 -5 -0.5 -9.5t-2.5 -15.5q-8 -38 -30.5 -74.5t-50.5 -59.5h-68q26 23 40.5 41.5t25.5 44.5q-17 2 -24.5 12
t-7.5 26q0 3 0.5 8.5t2.5 16.5q11 53 64 53z" />
    <glyph glyph-name="Rcaron" unicode="&#x158;" horiz-adv-x="638" 
d="M140 0h-108l140 698h259q96 0 142.5 -47.5t46.5 -125.5q0 -40 -12 -76.5t-35 -67t-56 -53t-75 -32.5l94 -296h-116l-84 283h-139zM385 375q43 0 71.5 22.5t39.5 67.5q6 27 9 42.5t3 25.5q0 30 -18.5 49.5t-63.5 19.5h-165l-45 -227h169zM349 760l-91 150l57 43l93 -116
l139 116l54 -43l-146 -150h-106z" />
    <glyph glyph-name="rcaron" unicode="&#x159;" horiz-adv-x="377" 
d="M27 0l104 520h104l-22 -111h6q9 20 22.5 40t32.5 35.5t43.5 25.5t55.5 10h29l-21 -103h-35q-69 0 -107 -33t-49 -90l-59 -294h-104zM220 594l-90 150l57 42l92 -116l139 116l54 -42l-145 -150h-107z" />
    <glyph glyph-name="Sacute" unicode="&#x15a;" horiz-adv-x="580" 
d="M251 -12q-81 0 -146.5 29t-100.5 96l83 63q29 -48 69.5 -69.5t95.5 -21.5q78 0 119 37t41 91q0 39 -24 61.5t-71 32.5l-58 11q-75 16 -117 59.5t-42 118.5q0 45 17.5 84t50 68t79.5 45.5t106 16.5q80 0 138 -27.5t93 -75.5l-78 -69q-27 37 -64 56t-94 19
q-64 0 -101.5 -28.5t-37.5 -79.5q0 -39 23 -60.5t70 -31.5l57 -11q77 -16 120.5 -60t43.5 -120q0 -46 -18 -88.5t-53 -74.5t-85.5 -51.5t-115.5 -19.5zM379 749l-64 34l110 179l87 -46z" />
    <glyph glyph-name="sacute" unicode="&#x15b;" horiz-adv-x="482" 
d="M210 -12q-62 0 -115.5 24t-85.5 69l68 62q25 -33 57.5 -51t77.5 -18q50 0 77.5 22t27.5 59q0 21 -13 36.5t-51 22.5l-45 8q-63 11 -101 42t-38 94q0 34 12.5 65.5t37.5 55.5t63 38.5t89 14.5q116 0 180 -79l-68 -62q-18 24 -47 39.5t-71 15.5q-48 0 -71.5 -21t-23.5 -54
q0 -22 13.5 -37t50.5 -22l45 -7q65 -11 102 -43t37 -95q0 -39 -14.5 -71.5t-41.5 -56.5t-65.5 -37.5t-86.5 -13.5zM302 582l-63 34l110 179l87 -46z" />
    <glyph glyph-name="Scircumflex" unicode="&#x15c;" horiz-adv-x="580" 
d="M251 -12q-81 0 -146.5 29t-100.5 96l83 63q29 -48 69.5 -69.5t95.5 -21.5q78 0 119 37t41 91q0 39 -24 61.5t-71 32.5l-58 11q-75 16 -117 59.5t-42 118.5q0 45 17.5 84t50 68t79.5 45.5t106 16.5q80 0 138 -27.5t93 -75.5l-78 -69q-27 37 -64 56t-94 19
q-64 0 -101.5 -28.5t-37.5 -79.5q0 -39 23 -60.5t70 -31.5l57 -11q77 -16 120.5 -60t43.5 -120q0 -46 -18 -88.5t-53 -74.5t-85.5 -51.5t-115.5 -19.5zM448 944l90 -150l-57 -42l-95 115l-137 -116l-53 43l146 150h106z" />
    <glyph glyph-name="scircumflex" unicode="&#x15d;" horiz-adv-x="482" 
d="M210 -12q-62 0 -115.5 24t-85.5 69l68 62q25 -33 57.5 -51t77.5 -18q50 0 77.5 22t27.5 59q0 21 -13 36.5t-51 22.5l-45 8q-63 11 -101 42t-38 94q0 34 12.5 65.5t37.5 55.5t63 38.5t89 14.5q116 0 180 -79l-68 -62q-18 24 -47 39.5t-71 15.5q-48 0 -71.5 -21t-23.5 -54
q0 -22 13.5 -37t50.5 -22l45 -7q65 -11 102 -43t37 -95q0 -39 -14.5 -71.5t-41.5 -56.5t-65.5 -37.5t-86.5 -13.5zM369 778l90 -150l-57 -43l-95 116l-137 -115l-52 43l145 149h106z" />
    <glyph glyph-name="Scedilla" unicode="&#x15e;" horiz-adv-x="580" 
d="M348 613q-64 0 -101.5 -28.5t-37.5 -79.5q0 -39 23 -60.5t70 -31.5l57 -11q77 -16 120.5 -60t43.5 -120q0 -45 -17 -86t-49.5 -73t-80 -52t-108.5 -23l-17 -47l2 -3q8 2 16.5 3.5t19.5 1.5q26 0 43 -13.5t17 -42.5q0 -46 -34.5 -71t-88.5 -25q-39 0 -66 12t-39 29l45 45
q6 -9 21 -17.5t37 -8.5t35 9.5t13 24.5q0 14 -12.5 24.5t-47.5 13.5l-24 2l23 65q-69 6 -123 35t-84 88l83 63q29 -48 69.5 -69.5t95.5 -21.5q78 0 119 37t41 91q0 39 -24 61.5t-71 32.5l-58 11q-75 16 -117 59.5t-42 118.5q0 45 17.5 84t50 68t79.5 45.5t106 16.5
q80 0 138 -27.5t93 -75.5l-78 -69q-27 37 -64 56t-94 19z" />
    <glyph glyph-name="scedilla" unicode="&#x15f;" horiz-adv-x="482" 
d="M177 -209q-39 0 -66.5 12t-39.5 29l46 45q6 -9 21 -17.5t37 -8.5t35 9.5t13 24.5q0 14 -12.5 24.5t-47.5 13.5l-24 2l24 66q-48 8 -88 31t-66 59l68 62q25 -33 57.5 -51t77.5 -18q50 0 77.5 22t27.5 59q0 21 -13 36.5t-51 22.5l-45 8q-63 11 -101 42t-38 94
q0 34 12.5 65.5t37.5 55.5t63 38.5t89 14.5q116 0 180 -79l-68 -62q-18 24 -47 39.5t-71 15.5q-48 0 -71.5 -21t-23.5 -54q0 -22 13.5 -37t50.5 -22l45 -7q65 -11 102 -43t37 -95q0 -38 -14 -70t-40 -56t-63 -38t-83 -15l-16 -47l2 -3q8 2 16.5 3.5t19.5 1.5q26 0 43 -13.5
t17 -42.5q0 -46 -34.5 -71t-88.5 -25z" />
    <glyph glyph-name="Scaron" unicode="&#x160;" horiz-adv-x="580" 
d="M251 -12q-81 0 -146.5 29t-100.5 96l83 63q29 -48 69.5 -69.5t95.5 -21.5q78 0 119 37t41 91q0 39 -24 61.5t-71 32.5l-58 11q-75 16 -117 59.5t-42 118.5q0 45 17.5 84t50 68t79.5 45.5t106 16.5q80 0 138 -27.5t93 -75.5l-78 -69q-27 37 -64 56t-94 19
q-64 0 -101.5 -28.5t-37.5 -79.5q0 -39 23 -60.5t70 -31.5l57 -11q77 -16 120.5 -60t43.5 -120q0 -46 -18 -88.5t-53 -74.5t-85.5 -51.5t-115.5 -19.5zM313 760l-91 150l57 43l93 -116l139 116l54 -43l-146 -150h-106z" />
    <glyph glyph-name="scaron" unicode="&#x161;" horiz-adv-x="482" 
d="M210 -12q-62 0 -115.5 24t-85.5 69l68 62q25 -33 57.5 -51t77.5 -18q50 0 77.5 22t27.5 59q0 21 -13 36.5t-51 22.5l-45 8q-63 11 -101 42t-38 94q0 34 12.5 65.5t37.5 55.5t63 38.5t89 14.5q116 0 180 -79l-68 -62q-18 24 -47 39.5t-71 15.5q-48 0 -71.5 -21t-23.5 -54
q0 -22 13.5 -37t50.5 -22l45 -7q65 -11 102 -43t37 -95q0 -39 -14.5 -71.5t-41.5 -56.5t-65.5 -37.5t-86.5 -13.5zM235 594l-90 150l57 42l92 -116l139 116l54 -42l-145 -150h-107z" />
    <glyph glyph-name="uni0162" unicode="&#x162;" horiz-adv-x="561" 
d="M212 -209q-39 0 -66 12t-39 29l45 45q7 -9 22 -17.5t37 -8.5q21 0 34.5 9.5t13.5 24.5q0 14 -13 24.5t-47 13.5l-24 2l26 75h-27l120 602h-200l19 96h509l-19 -96h-200l-121 -602h-24l-21 -59l2 -3q8 2 17 3.5t20 1.5q25 0 42.5 -13.5t17.5 -42.5q0 -46 -35 -71t-89 -25z
" />
    <glyph glyph-name="uni0163" unicode="&#x163;" horiz-adv-x="333" 
d="M129 -209q-39 0 -66 12t-39 29l45 45q7 -9 22 -17.5t37 -8.5q21 0 34.5 9.5t13.5 24.5q0 14 -13 24.5t-47 13.5l-24 2l28 79q-29 8 -42 27t-13 48q0 8 1 18.5t3 19.5l63 316h-76l17 87h39q29 0 39.5 12t15.5 39l18 91h97l-28 -142h104l-17 -87h-105l-69 -346h101l-17 -87
h-76l-21 -59l2 -3q8 2 17 3.5t20 1.5q25 0 42.5 -13.5t17.5 -42.5q0 -46 -35 -71t-89 -25z" />
    <glyph glyph-name="Tcaron" unicode="&#x164;" horiz-adv-x="561" 
d="M403 602l-121 -602h-108l120 602h-200l19 96h509l-19 -96h-200zM329 760l-91 150l57 43l93 -116l139 116l54 -43l-146 -150h-106z" />
    <glyph glyph-name="tcaron" unicode="&#x165;" horiz-adv-x="341" 
d="M158 0q-48 0 -70.5 21t-22.5 58q0 8 1 18t3 20l63 316h-76l17 87h39q29 0 39.5 12t15.5 39l18 91h97l-28 -142h104l-17 -87h-105l-69 -346h101l-17 -87h-93zM394 570h-72l42 198h120z" />
    <glyph glyph-name="Tbar" unicode="&#x166;" horiz-adv-x="561" 
d="M344 312l-62 -312h-108l62 312h-151l17 83h151l41 207h-200l19 96h509l-19 -96h-200l-42 -207h152l-17 -83h-152z" />
    <glyph glyph-name="tbar" unicode="&#x167;" horiz-adv-x="339" 
d="M253 0h-93q-48 0 -70.5 21t-22.5 58q0 8 1 18.5t3 19.5l25 124h-55l14 72h55l24 120h-76l17 87h39q29 0 39.5 12t15.5 39l18 91h97l-28 -142h104l-17 -87h-105l-24 -120h90l-14 -72h-90l-31 -154h101z" />
    <glyph glyph-name="Utilde" unicode="&#x168;" horiz-adv-x="665" 
d="M276 698l-85 -425q-4 -19 -6.5 -36t-2.5 -33q0 -57 30.5 -88t86.5 -31q73 0 116 44t63 146l85 423h108l-84 -421q-16 -78 -40 -132.5t-59.5 -89.5t-84 -51t-111.5 -16q-103 0 -158.5 54.5t-55.5 157.5q0 22 2 45.5t8 52.5l80 400h108zM506 774q-24 0 -41.5 8t-34.5 16
q-39 23 -68 23q-16 0 -29 -6.5t-30 -19.5l-34 52q19 24 45 40.5t61 16.5q24 0 41.5 -7.5t34.5 -16.5q39 -23 68 -23q17 0 29.5 6.5t29.5 19.5l34 -51q-19 -24 -45 -41t-61 -17z" />
    <glyph glyph-name="utilde" unicode="&#x169;" horiz-adv-x="570" 
d="M229 520l-63 -316q-3 -14 -4.5 -28t-1.5 -25q0 -35 15 -54t50 -19q50 0 89 44q23 26 38.5 57.5t21.5 62.5l56 278h104l-87 -433h67l-17 -87h-80q-35 0 -54.5 18.5t-19.5 50.5q0 13 3 30l2 12h-5q-29 -60 -67 -91.5t-94 -31.5q-64 0 -96.5 37t-32.5 103q0 17 2 34t6 37
l64 321h104zM423 607q-24 0 -41 7.5t-34 16.5q-39 23 -68 23q-17 0 -29.5 -6.5t-29.5 -19.5l-35 51q20 24 45.5 40.5t60.5 16.5q24 0 41 -7t34 -16q39 -23 68 -23q17 0 29.5 6.5t29.5 19.5l35 -52q-20 -24 -45.5 -40.5t-60.5 -16.5z" />
    <glyph glyph-name="Umacron" unicode="&#x16a;" horiz-adv-x="665" 
d="M276 698l-85 -425q-4 -19 -6.5 -36t-2.5 -33q0 -57 30.5 -88t86.5 -31q73 0 116 44t63 146l85 423h108l-84 -421q-16 -78 -40 -132.5t-59.5 -89.5t-84 -51t-111.5 -16q-103 0 -158.5 54.5t-55.5 157.5q0 22 2 45.5t8 52.5l80 400h108zM312 881h274l-16 -81h-275z" />
    <glyph glyph-name="umacron" unicode="&#x16b;" horiz-adv-x="570" 
d="M229 520l-63 -316q-3 -14 -4.5 -28t-1.5 -25q0 -35 15 -54t50 -19q50 0 89 44q23 26 38.5 57.5t21.5 62.5l56 278h104l-87 -433h67l-17 -87h-80q-35 0 -54.5 18.5t-19.5 50.5q0 13 3 30l2 12h-5q-29 -60 -67 -91.5t-94 -31.5q-64 0 -96.5 37t-32.5 103q0 17 2 34t6 37
l64 321h104zM229 714h275l-17 -82h-275z" />
    <glyph glyph-name="Ubreve" unicode="&#x16c;" horiz-adv-x="665" 
d="M276 698l-85 -425q-4 -19 -6.5 -36t-2.5 -33q0 -57 30.5 -88t86.5 -31q73 0 116 44t63 146l85 423h108l-84 -421q-16 -78 -40 -132.5t-59.5 -89.5t-84 -51t-111.5 -16q-103 0 -158.5 54.5t-55.5 157.5q0 22 2 45.5t8 52.5l80 400h108zM430 755q-39 0 -65.5 14t-43.5 36
t-26 48.5t-13 51.5l60 29l14 -31q15 -33 31.5 -51.5t46.5 -18.5q27 0 49.5 16.5t49.5 54.5l22 30l63 -31q-13 -26 -29.5 -52t-39 -47.5t-52 -35t-67.5 -13.5z" />
    <glyph glyph-name="ubreve" unicode="&#x16d;" horiz-adv-x="570" 
d="M229 520l-63 -316q-3 -14 -4.5 -28t-1.5 -25q0 -35 15 -54t50 -19q50 0 89 44q23 26 38.5 57.5t21.5 62.5l56 278h104l-87 -433h67l-17 -87h-80q-35 0 -54.5 18.5t-19.5 50.5q0 13 3 30l2 12h-5q-29 -60 -67 -91.5t-94 -31.5q-64 0 -96.5 37t-32.5 103q0 17 2 34t6 37
l64 321h104zM345 589q-39 0 -65.5 14t-43 36t-25.5 48.5t-13 51.5l60 29l14 -29q15 -34 31.5 -52.5t46.5 -18.5q27 0 48.5 17t50.5 55l22 28l63 -31q-14 -26 -30.5 -52t-39 -47.5t-52 -35t-67.5 -13.5z" />
    <glyph glyph-name="Uring" unicode="&#x16e;" horiz-adv-x="665" 
d="M276 698l-85 -425q-4 -19 -6.5 -36t-2.5 -33q0 -57 30.5 -88t86.5 -31q73 0 116 44t63 146l85 423h108l-84 -421q-16 -78 -40 -132.5t-59.5 -89.5t-84 -51t-111.5 -16q-103 0 -158.5 54.5t-55.5 157.5q0 22 2 45.5t8 52.5l80 400h108zM425 734q-50 0 -81 31t-31 78
q0 33 11 60t30.5 45.5t46 29t57.5 10.5q50 0 81 -30.5t31 -78.5q0 -33 -11 -60t-30.5 -45.5t-46 -29t-57.5 -10.5zM431 793q26 0 41 14t20 39q6 28 6 41q0 20 -11.5 31t-34.5 11q-26 0 -41 -14t-20 -39q-3 -14 -4.5 -23.5t-1.5 -17.5q0 -20 11.5 -31t34.5 -11z" />
    <glyph glyph-name="uring" unicode="&#x16f;" horiz-adv-x="570" 
d="M229 520l-63 -316q-3 -14 -4.5 -28t-1.5 -25q0 -35 15 -54t50 -19q50 0 89 44q23 26 38.5 57.5t21.5 62.5l56 278h104l-87 -433h67l-17 -87h-80q-35 0 -54.5 18.5t-19.5 50.5q0 13 3 30l2 12h-5q-29 -60 -67 -91.5t-94 -31.5q-64 0 -96.5 37t-32.5 103q0 17 2 34t6 37
l64 321h104zM342 568q-50 0 -81 31t-31 78q0 33 11 60t30.5 45.5t46 29t57.5 10.5q50 0 81 -30.5t31 -78.5q0 -33 -11 -60t-30.5 -45.5t-46 -29t-57.5 -10.5zM348 627q26 0 41 14t20 39q6 28 6 41q0 20 -11.5 31t-34.5 11q-26 0 -41 -14t-20 -39q-3 -14 -4.5 -23.5
t-1.5 -17.5q0 -20 11.5 -31t34.5 -11z" />
    <glyph glyph-name="Uhungarumlaut" unicode="&#x170;" horiz-adv-x="665" 
d="M276 698l-85 -425q-4 -19 -6.5 -36t-2.5 -33q0 -57 30.5 -88t86.5 -31q73 0 116 44t63 146l85 423h108l-84 -421q-16 -78 -40 -132.5t-59.5 -89.5t-84 -51t-111.5 -16q-103 0 -158.5 54.5t-55.5 157.5q0 22 2 45.5t8 52.5l80 400h108zM337 749l-59 29l108 180l82 -43z
M510 749l-58 29l108 180l81 -43z" />
    <glyph glyph-name="uhungarumlaut" unicode="&#x171;" horiz-adv-x="570" 
d="M229 520l-63 -316q-3 -14 -4.5 -28t-1.5 -25q0 -35 15 -54t50 -19q50 0 89 44q23 26 38.5 57.5t21.5 62.5l56 278h104l-87 -433h67l-17 -87h-80q-35 0 -54.5 18.5t-19.5 50.5q0 13 3 30l2 12h-5q-29 -60 -67 -91.5t-94 -31.5q-64 0 -96.5 37t-32.5 103q0 17 2 34t6 37
l64 321h104zM269 583l-59 29l109 181l81 -44zM442 583l-58 29l108 181l81 -44z" />
    <glyph glyph-name="Uogonek" unicode="&#x172;" horiz-adv-x="665" 
d="M276 698l-85 -425q-4 -19 -6.5 -36t-2.5 -33q0 -57 30.5 -88t86.5 -31q73 0 116 44t63 146l85 423h108l-84 -421q-16 -81 -38 -129t-48.5 -77t-58 -46t-67.5 -36q-35 -18 -56.5 -34t-33.5 -29.5t-16 -24.5t-4 -18q0 -30 33 -30q14 0 28.5 6t25.5 21l44 -47
q-16 -17 -42 -29.5t-67 -12.5q-21 0 -40 4.5t-33.5 14t-23 24.5t-8.5 35q0 36 28 66t83 49l-1 4q-106 2 -160 56t-54 156q0 22 2 45.5t8 52.5l80 400h108z" />
    <glyph glyph-name="uogonek" unicode="&#x173;" horiz-adv-x="570" 
d="M229 520l-63 -316q-3 -14 -4.5 -28t-1.5 -25q0 -35 15 -54t50 -19q50 0 89 44q23 26 38.5 58t21.5 62l56 278h104l-87 -433h67l-17 -87q-40 -26 -63.5 -44.5t-35.5 -32t-15.5 -23.5t-3.5 -17q0 -30 33 -30q14 0 28.5 6t25.5 21l44 -47q-16 -17 -42 -29.5t-67 -12.5
q-21 0 -40 4.5t-33.5 14t-23 24.5t-8.5 35q0 82 126 126l-1 5q-38 0 -58.5 18.5t-20.5 50.5q0 16 4 29l2 13h-5q-29 -60 -67 -91.5t-94 -31.5q-64 0 -96.5 37t-32.5 103q0 17 2 34t6 37l64 321h104z" />
    <glyph glyph-name="Wcircumflex" unicode="&#x174;" horiz-adv-x="896" 
d="M131 0l-22 698h107l3 -322l-1 -257h7l120 291l126 288h123l11 -289l5 -293h7l98 248l136 334h110l-303 -698h-125l-14 335l-6 241h-6l-101 -235l-148 -341h-127zM625 944l90 -150l-57 -42l-95 115l-137 -116l-53 43l146 150h106z" />
    <glyph glyph-name="wcircumflex" unicode="&#x175;" horiz-adv-x="762" 
d="M67 520h102l8 -225l5 -186h5l73 162l115 249h99l18 -230l12 -181h5l70 167l106 244h102l-237 -520h-116l-21 235l-10 150h-5l-63 -141l-115 -244h-120zM520 778l90 -150l-57 -43l-95 116l-137 -115l-52 43l145 149h106z" />
    <glyph glyph-name="Ycircumflex" unicode="&#x176;" horiz-adv-x="597" 
d="M191 0l55 272l-147 426h110l107 -321h5l229 321h122l-319 -431l-54 -267h-108zM466 944l90 -150l-57 -42l-95 115l-137 -116l-53 43l146 150h106z" />
    <glyph glyph-name="ycircumflex" unicode="&#x177;" horiz-adv-x="495" 
d="M425 520h111l-338 -623q-14 -26 -27.5 -44t-30 -30t-37.5 -17.5t-48 -5.5h-79l17 86h95l49 92l-79 542h102l31 -231l19 -191h5l91 191zM385 778l90 -150l-57 -43l-95 116l-137 -115l-52 43l145 149h106z" />
    <glyph glyph-name="Ydieresis" unicode="&#x178;" horiz-adv-x="597" 
d="M191 0l55 272l-147 426h110l107 -321h5l229 321h122l-319 -431l-54 -267h-108zM291 776q-26 0 -38.5 11t-12.5 29q0 10 4 33q5 23 21 38t48 15q51 0 51 -40q0 -5 -1 -12.5t-3 -19.5q-5 -24 -21 -39t-48 -15zM480 776q-26 0 -38.5 11t-12.5 29q0 10 4 33q5 23 21 38t48 15
q51 0 51 -40q0 -5 -1 -12.5t-3 -19.5q-5 -24 -21 -39t-48 -15z" />
    <glyph glyph-name="Zacute" unicode="&#x179;" horiz-adv-x="566" 
d="M478 0h-491l20 99l456 503h-344l19 96h473l-20 -99l-456 -503h362zM391 749l-64 34l110 179l87 -46z" />
    <glyph glyph-name="zacute" unicode="&#x17a;" horiz-adv-x="466" 
d="M-8 0l17 86l326 348h-256l17 86h381l-17 -86l-327 -348h271l-17 -86h-395zM316 582l-63 34l110 179l87 -46z" />
    <glyph glyph-name="Zdotaccent" unicode="&#x17b;" horiz-adv-x="566" 
d="M478 0h-491l20 99l456 503h-344l19 96h473l-20 -99l-456 -503h362zM381 772q-29 0 -42.5 12t-13.5 33q0 5 1 11t4 20q5 26 21 41t51 15q29 0 42.5 -12t13.5 -33q0 -5 -1 -11t-4 -20q-5 -26 -21 -41t-51 -15z" />
    <glyph glyph-name="zdotaccent" unicode="&#x17c;" horiz-adv-x="466" 
d="M-8 0l17 86l326 348h-256l17 86h381l-17 -86l-327 -348h271l-17 -86h-395zM306 605q-29 0 -42.5 12t-13.5 33q0 5 1 11t4 20q5 26 21 41t51 15q29 0 42.5 -12t13.5 -33q0 -5 -1 -11t-4 -20q-5 -26 -21 -41t-51 -15z" />
    <glyph glyph-name="Zcaron" unicode="&#x17d;" horiz-adv-x="566" 
d="M478 0h-491l20 99l456 503h-344l19 96h473l-20 -99l-456 -503h362zM325 760l-91 150l57 43l93 -116l139 116l54 -43l-146 -150h-106z" />
    <glyph glyph-name="zcaron" unicode="&#x17e;" horiz-adv-x="466" 
d="M-8 0l17 86l326 348h-256l17 86h381l-17 -86l-327 -348h271l-17 -86h-395zM249 594l-90 150l57 42l92 -116l139 116l54 -42l-145 -150h-107z" />
    <glyph glyph-name="uni017F" unicode="&#x17f;" horiz-adv-x="288" 
d="M144 -71q-12 -62 -48 -95.5t-106 -33.5h-70l17 87h94l110 546h-78l17 87h79l18 91q12 62 48 95.5t106 33.5h77l-17 -87h-102z" />
    <glyph glyph-name="uni018F" unicode="&#x18f;" horiz-adv-x="686" 
d="M301 -12q-53 0 -98 17.5t-77.5 52t-51 85.5t-18.5 117q0 22 2.5 44t7.5 45l6 32h468q5 23 6.5 42.5t1.5 33.5q0 71 -39.5 113.5t-115.5 42.5q-57 0 -104 -29.5t-84 -99.5l-90 43q20 41 49.5 74.5t67 57.5t81.5 37.5t94 13.5q58 0 104.5 -19t79.5 -54t50.5 -85.5
t17.5 -113.5q0 -89 -24.5 -170.5t-70.5 -143.5t-112.5 -99t-150.5 -37zM310 85q83 0 136.5 53t74.5 155h-352q-5 -28 -5 -55q0 -72 37 -112.5t109 -40.5z" />
    <glyph glyph-name="florin" unicode="&#x192;" horiz-adv-x="478" 
d="M-47 -47h131l89 328h-113l18 90h121l55 202q16 59 55 92t105 33h113l-18 -87h-139l-64 -240h152l-18 -90h-159l-79 -291q-17 -61 -56 -92.5t-105 -31.5h-106z" />
    <glyph glyph-name="Ohorn" unicode="&#x1a0;" horiz-adv-x="687" 
d="M751 807l-20 -101q-7 -35 -25.5 -54.5t-65.5 -19.5h-45q64 -75 64 -199q0 -88 -25.5 -168.5t-72 -142t-112.5 -98t-147 -36.5q-51 0 -96 17t-78.5 51.5t-52.5 86.5t-19 122q0 88 25 168.5t71.5 142t112.5 98t147 36.5q43 0 82 -12h143l22 109h92zM313 85q84 0 137 53.5
t73 151.5l22 106q4 17 5 33t1 29q0 73 -38 114t-109 41q-83 0 -137.5 -54t-74.5 -153l-21 -104q-4 -18 -5 -33.5t-1 -28.5q0 -73 38 -114t110 -41z" />
    <glyph glyph-name="ohorn" unicode="&#x1a1;" horiz-adv-x="548" 
d="M238 -12q-88 0 -142 55t-54 160q0 67 20 127t55.5 105t84.5 71t108 26q41 0 74 -12h88l22 109h91l-19 -98q-4 -18 -9.5 -32t-14.5 -24t-23 -15t-35 -5h-16q20 -28 29 -63.5t9 -74.5q0 -68 -20 -127.5t-55.5 -104.5t-84.5 -71t-108 -26zM246 76q49 0 85.5 36t50.5 105
l17 83q2 9 3 18.5t1 20.5q0 48 -25.5 76.5t-75.5 28.5q-49 0 -85.5 -36t-50.5 -105l-17 -83q-2 -9 -3 -18.5t-1 -20.5q0 -48 25.5 -76.5t75.5 -28.5z" />
    <glyph glyph-name="Uhorn" unicode="&#x1af;" horiz-adv-x="665" 
d="M276 698l-85 -425q-4 -19 -6.5 -36t-2.5 -33q0 -57 30.5 -88t86.5 -31q73 0 116 44t63 146l85 423h91l22 109h92l-20 -100q-8 -39 -25.5 -58t-54.5 -19h-12l-69 -353q-15 -78 -39.5 -132.5t-60 -89.5t-84 -51t-111.5 -16q-103 0 -158.5 54.5t-55.5 157.5q0 22 2 45.5
t8 52.5l80 400h108z" />
    <glyph glyph-name="uhorn" unicode="&#x1b0;" horiz-adv-x="573" 
d="M417 0q-35 0 -55 18.5t-20 50.5q0 16 4 29l2 13h-5q-29 -60 -66.5 -91.5t-96.5 -31.5q-63 0 -95 36.5t-32 102.5q0 17 2 34.5t6 37.5l64 321h104l-63 -316q-6 -29 -6 -54q0 -35 15.5 -53.5t50.5 -18.5q49 0 88 44q23 25 38.5 57.5t21.5 62.5l56 278h90l22 109h92
l-20 -100q-7 -36 -23.5 -56.5t-57.5 -20.5h-13l-73 -365h67l-17 -87h-80z" />
    <glyph glyph-name="uni01CD" unicode="&#x1cd;" horiz-adv-x="638" 
d="M455 0l-22 189h-250l-97 -189h-116l367 698h140l88 -698h-110zM391 598h-7l-156 -315h196zM364 760l-91 150l57 43l93 -116l139 116l54 -43l-146 -150h-106z" />
    <glyph glyph-name="uni01CE" unicode="&#x1ce;" horiz-adv-x="586" 
d="M434 0q-35 0 -55.5 18t-20.5 50q0 17 3 29l4 19h-4q-32 -64 -70.5 -96t-98.5 -32q-72 0 -111 52t-39 139q0 68 17 132t49.5 113t78.5 78.5t104 29.5q51 0 88 -26.5t45 -72.5h5l17 87h104l-87 -433h67l-17 -87h-79zM232 77q32 0 56.5 14t44.5 36q43 46 57 116l21 105
q3 17 -2 34t-18 30.5t-33.5 22t-46.5 8.5q-58 0 -93 -35.5t-49 -104.5l-15 -73q-2 -12 -3.5 -27t-1.5 -27q0 -44 20.5 -71.5t62.5 -27.5zM292 594l-90 150l57 42l92 -116l139 116l54 -42l-145 -150h-107z" />
    <glyph glyph-name="uni01CF" unicode="&#x1cf;" horiz-adv-x="398" 
d="M3 0l18 90h90l104 518h-90l18 90h288l-18 -90h-90l-104 -518h90l-18 -90h-288zM247 760l-91 150l57 43l93 -116l139 116l54 -43l-146 -150h-106z" />
    <glyph glyph-name="uni01D0" unicode="&#x1d0;" horiz-adv-x="271" 
d="M121 0q-38 0 -58 19.5t-20 51.5q0 5 0.5 11t1.5 11l86 427h104l-87 -433h67l-17 -87h-77zM147 594l-90 150l57 42l92 -116l139 116l54 -42l-145 -150h-107z" />
    <glyph glyph-name="uni01D1" unicode="&#x1d1;" horiz-adv-x="687" 
d="M303 -12q-51 0 -96 17t-78.5 51.5t-53 86.5t-19.5 122q0 88 25 168.5t71.5 142t112.5 98t147 36.5q51 0 96.5 -17t79 -51.5t53 -86.5t19.5 -122q0 -88 -25.5 -168.5t-72 -142t-112.5 -98t-147 -36.5zM313 85q84 0 137 53.5t73 151.5l22 106q4 17 5 33t1 29q0 73 -38 114
t-109 41q-83 0 -137.5 -54t-74.5 -153l-21 -104q-4 -18 -5 -33.5t-1 -28.5q0 -73 38 -114t110 -41zM382 760l-91 150l57 43l93 -116l139 116l54 -43l-146 -150h-106z" />
    <glyph glyph-name="uni01D2" unicode="&#x1d2;" horiz-adv-x="548" 
d="M238 -12q-88 0 -142 55t-54 160q0 67 20 127t55.5 105t84.5 71t108 26q88 0 142 -55t54 -160q0 -68 -20 -127.5t-55.5 -104.5t-84.5 -71t-108 -26zM246 76q49 0 85.5 36t50.5 105l17 83q2 8 3 18t1 21q0 48 -25.5 76.5t-75.5 28.5q-49 0 -85.5 -36t-50.5 -105l-17 -83
q-2 -9 -3 -18.5t-1 -20.5q0 -48 25.5 -76.5t75.5 -28.5zM278 594l-90 150l57 42l92 -116l139 116l54 -42l-145 -150h-107z" />
    <glyph glyph-name="uni01D3" unicode="&#x1d3;" horiz-adv-x="665" 
d="M276 698l-85 -425q-4 -19 -6.5 -36t-2.5 -33q0 -57 30.5 -88t86.5 -31q73 0 116 44t63 146l85 423h108l-84 -421q-16 -78 -40 -132.5t-59.5 -89.5t-84 -51t-111.5 -16q-103 0 -158.5 54.5t-55.5 157.5q0 22 2 45.5t8 52.5l80 400h108zM376 760l-91 150l57 43l93 -116
l139 116l54 -43l-146 -150h-106z" />
    <glyph glyph-name="uni01D4" unicode="&#x1d4;" horiz-adv-x="570" 
d="M229 520l-63 -316q-3 -14 -4.5 -28t-1.5 -25q0 -35 15 -54t50 -19q50 0 89 44q23 26 38.5 57.5t21.5 62.5l56 278h104l-87 -433h67l-17 -87h-80q-35 0 -54.5 18.5t-19.5 50.5q0 13 3 30l2 12h-5q-29 -60 -67 -91.5t-94 -31.5q-64 0 -96.5 37t-32.5 103q0 17 2 34t6 37
l64 321h104zM291 594l-90 150l57 42l92 -116l139 116l54 -42l-145 -150h-107z" />
    <glyph glyph-name="uni01D5" unicode="&#x1d5;" horiz-adv-x="665" 
d="M276 698l-85 -425q-4 -19 -6.5 -36t-2.5 -33q0 -57 30.5 -88t86.5 -31q73 0 116 44t63 146l85 423h108l-84 -421q-16 -78 -40 -132.5t-59.5 -89.5t-84 -51t-111.5 -16q-103 0 -158.5 54.5t-55.5 157.5q0 22 2 45.5t8 52.5l80 400h108zM340 1014h274l-17 -81h-274z
M331 759q-29 0 -40 11.5t-11 28.5q0 5 1 11t4 23q4 21 19.5 35t48.5 14q29 0 40.5 -12t11.5 -29q0 -4 -1 -10.5t-4 -22.5q-4 -22 -20 -35.5t-49 -13.5zM527 759q-29 0 -40.5 11.5t-11.5 28.5q0 5 1 11t4 23q4 21 19.5 35t48.5 14q29 0 40.5 -12t11.5 -29q0 -4 -1 -10.5
t-4 -22.5q-4 -22 -19.5 -35.5t-48.5 -13.5z" />
    <glyph glyph-name="uni01D6" unicode="&#x1d6;" horiz-adv-x="570" 
d="M229 520l-63 -316q-3 -14 -4.5 -28t-1.5 -25q0 -35 15 -54t50 -19q50 0 89 44q23 26 38.5 57.5t21.5 62.5l56 278h104l-87 -433h67l-17 -87h-80q-35 0 -54.5 18.5t-19.5 50.5q0 13 3 30l2 12h-5q-29 -60 -67 -91.5t-94 -31.5q-64 0 -96.5 37t-32.5 103q0 17 2 34t6 37
l64 321h104zM257 848h273l-16 -81h-274zM248 593q-30 0 -41 12t-11 29q0 4 1 10.5t4 22.5q4 22 19.5 35.5t48.5 13.5q29 0 40.5 -12t11.5 -29q0 -4 -1 -10.5t-4 -22.5q-4 -22 -20 -35.5t-48 -13.5zM443 593q-29 0 -40.5 12t-11.5 29q0 4 1 10.5t4 22.5q4 22 19.5 35.5
t48.5 13.5q29 0 40.5 -12t11.5 -29q0 -4 -1 -10.5t-4 -22.5q-4 -22 -19.5 -35.5t-48.5 -13.5z" />
    <glyph glyph-name="uni01D7" unicode="&#x1d7;" horiz-adv-x="665" 
d="M276 698l-85 -425q-4 -19 -6.5 -36t-2.5 -33q0 -57 30.5 -88t86.5 -31q73 0 116 44t63 146l85 423h108l-84 -421q-16 -78 -40 -132.5t-59.5 -89.5t-84 -51t-111.5 -16q-103 0 -158.5 54.5t-55.5 157.5q0 22 2 45.5t8 52.5l80 400h108zM459 880l-59 31l105 180l83 -45z
M331 759q-29 0 -40 11.5t-11 28.5q0 5 1 11t4 23q4 21 19.5 35t48.5 14q29 0 40.5 -12t11.5 -29q0 -4 -1 -10.5t-4 -22.5q-4 -22 -20 -35.5t-49 -13.5zM527 759q-29 0 -40.5 11.5t-11.5 28.5q0 5 1 11t4 23q4 21 19.5 35t48.5 14q29 0 40.5 -12t11.5 -29q0 -4 -1 -10.5
t-4 -22.5q-4 -22 -19.5 -35.5t-48.5 -13.5z" />
    <glyph glyph-name="uni01D8" unicode="&#x1d8;" horiz-adv-x="570" 
d="M229 520l-63 -316q-3 -14 -4.5 -28t-1.5 -25q0 -35 15 -54t50 -19q50 0 89 44q23 26 38.5 57.5t21.5 62.5l56 278h104l-87 -433h67l-17 -87h-80q-35 0 -54.5 18.5t-19.5 50.5q0 13 3 30l2 12h-5q-29 -60 -67 -91.5t-94 -31.5q-64 0 -96.5 37t-32.5 103q0 17 2 34t6 37
l64 321h104zM375 713l-59 31l105 180l83 -44zM248 593q-30 0 -41 12t-11 29q0 4 1 10.5t4 22.5q4 22 19.5 35.5t48.5 13.5q29 0 40.5 -12t11.5 -29q0 -4 -1 -10.5t-4 -22.5q-4 -22 -20 -35.5t-48 -13.5zM443 593q-29 0 -40.5 12t-11.5 29q0 4 1 10.5t4 22.5q4 22 19.5 35.5
t48.5 13.5q29 0 40.5 -12t11.5 -29q0 -4 -1 -10.5t-4 -22.5q-4 -22 -19.5 -35.5t-48.5 -13.5z" />
    <glyph glyph-name="uni01D9" unicode="&#x1d9;" horiz-adv-x="665" 
d="M276 698l-85 -425q-4 -19 -6.5 -36t-2.5 -33q0 -57 30.5 -88t86.5 -31q73 0 116 44t63 146l85 423h108l-84 -421q-16 -78 -40 -132.5t-59.5 -89.5t-84 -51t-111.5 -16q-103 0 -158.5 54.5t-55.5 157.5q0 22 2 45.5t8 52.5l80 400h108zM406 905l-101 139l57 46l98 -106
l135 106l50 -46l-145 -139h-94zM331 759q-29 0 -40 11.5t-11 28.5q0 5 1 11t4 23q4 21 19.5 35t48.5 14q29 0 40.5 -12t11.5 -29q0 -4 -1 -10.5t-4 -22.5q-4 -22 -20 -35.5t-49 -13.5zM527 759q-29 0 -40.5 11.5t-11.5 28.5q0 5 1 11t4 23q4 21 19.5 35t48.5 14
q29 0 40.5 -12t11.5 -29q0 -4 -1 -10.5t-4 -22.5q-4 -22 -19.5 -35.5t-48.5 -13.5z" />
    <glyph glyph-name="uni01DA" unicode="&#x1da;" horiz-adv-x="570" 
d="M229 520l-63 -316q-3 -14 -4.5 -28t-1.5 -25q0 -35 15 -54t50 -19q50 0 89 44q23 26 38.5 57.5t21.5 62.5l56 278h104l-87 -433h67l-17 -87h-80q-35 0 -54.5 18.5t-19.5 50.5q0 13 3 30l2 12h-5q-29 -60 -67 -91.5t-94 -31.5q-64 0 -96.5 37t-32.5 103q0 17 2 34t6 37
l64 321h104zM323 739l-101 140l57 45l97 -106l135 106l51 -45l-145 -140h-94zM248 593q-30 0 -41 12t-11 29q0 4 1 10.5t4 22.5q4 22 19.5 35.5t48.5 13.5q29 0 40.5 -12t11.5 -29q0 -4 -1 -10.5t-4 -22.5q-4 -22 -20 -35.5t-48 -13.5zM443 593q-29 0 -40.5 12t-11.5 29
q0 4 1 10.5t4 22.5q4 22 19.5 35.5t48.5 13.5q29 0 40.5 -12t11.5 -29q0 -4 -1 -10.5t-4 -22.5q-4 -22 -19.5 -35.5t-48.5 -13.5z" />
    <glyph glyph-name="uni01DB" unicode="&#x1db;" horiz-adv-x="665" 
d="M276 698l-85 -425q-4 -19 -6.5 -36t-2.5 -33q0 -57 30.5 -88t86.5 -31q73 0 116 44t63 146l85 423h108l-84 -421q-16 -78 -40 -132.5t-59.5 -89.5t-84 -51t-111.5 -16q-103 0 -158.5 54.5t-55.5 157.5q0 22 2 45.5t8 52.5l80 400h108zM348 1048l90 42l60 -183l-60 -29z
M331 759q-29 0 -40 11.5t-11 28.5q0 5 1 11t4 23q4 21 19.5 35t48.5 14q29 0 40.5 -12t11.5 -29q0 -4 -1 -10.5t-4 -22.5q-4 -22 -20 -35.5t-49 -13.5zM527 759q-29 0 -40.5 11.5t-11.5 28.5q0 5 1 11t4 23q4 21 19.5 35t48.5 14q29 0 40.5 -12t11.5 -29q0 -4 -1 -10.5
t-4 -22.5q-4 -22 -19.5 -35.5t-48.5 -13.5z" />
    <glyph glyph-name="uni01DC" unicode="&#x1dc;" horiz-adv-x="570" 
d="M229 520l-63 -316q-3 -14 -4.5 -28t-1.5 -25q0 -35 15 -54t50 -19q50 0 89 44q23 26 38.5 57.5t21.5 62.5l56 278h104l-87 -433h67l-17 -87h-80q-35 0 -54.5 18.5t-19.5 50.5q0 13 3 30l2 12h-5q-29 -60 -67 -91.5t-94 -31.5q-64 0 -96.5 37t-32.5 103q0 17 2 34t6 37
l64 321h104zM267 882l90 42l60 -183l-60 -28zM248 593q-30 0 -41 12t-11 29q0 4 1 10.5t4 22.5q4 22 19.5 35.5t48.5 13.5q29 0 40.5 -12t11.5 -29q0 -4 -1 -10.5t-4 -22.5q-4 -22 -20 -35.5t-48 -13.5zM443 593q-29 0 -40.5 12t-11.5 29q0 4 1 10.5t4 22.5q4 22 19.5 35.5
t48.5 13.5q29 0 40.5 -12t11.5 -29q0 -4 -1 -10.5t-4 -22.5q-4 -22 -19.5 -35.5t-48.5 -13.5z" />
    <glyph glyph-name="Aringacute" unicode="&#x1fa;" horiz-adv-x="638" 
d="M455 0l-22 189h-250l-97 -189h-116l367 698h140l88 -698h-110zM391 598h-7l-156 -315h196zM458 981l-41 40l113 116l57 -55zM415 731q-50 0 -81 27.5t-31 72.5q0 31 11 56t30.5 42t46 26.5t58.5 9.5q50 0 81 -27.5t31 -72.5q0 -31 -11 -56t-30.5 -42t-46.5 -26.5
t-58 -9.5zM423 788q49 0 61 51q2 10 3 17t1 11q0 41 -47 41q-49 0 -61 -51q-2 -10 -3 -17t-1 -11q0 -41 47 -41z" />
    <glyph glyph-name="aringacute" unicode="&#x1fb;" horiz-adv-x="586" 
d="M434 0q-35 0 -55.5 18t-20.5 50q0 17 3 29l4 19h-4q-32 -64 -70.5 -96t-98.5 -32q-72 0 -111 52t-39 139q0 68 17 132t49.5 113t78.5 78.5t104 29.5q51 0 88 -26.5t45 -72.5h5l17 87h104l-87 -433h67l-17 -87h-79zM232 77q32 0 56.5 14t44.5 36q43 46 57 116l21 105
q3 17 -2 34t-18 30.5t-33.5 22t-46.5 8.5q-58 0 -93 -35.5t-49 -104.5l-15 -73q-2 -12 -3.5 -27t-1.5 -27q0 -44 20.5 -71.5t62.5 -27.5zM386 814l-40 40l112 116l57 -55zM343 565q-50 0 -81 27.5t-31 72.5q0 31 11 56t30.5 42t46 26.5t58.5 9.5q50 0 81 -27.5t31 -72.5
q0 -31 -11 -56t-30.5 -42t-46.5 -26.5t-58 -9.5zM351 622q49 0 61 50q2 10 3 18t1 12q0 40 -47 40q-49 0 -61 -50q-2 -10 -3 -18t-1 -12q0 -40 47 -40z" />
    <glyph glyph-name="AEacute" unicode="&#x1fc;" horiz-adv-x="900" 
d="M400 189h-206l-123 -189h-119l466 698h510l-19 -96h-318l-40 -202h284l-19 -96h-284l-42 -208h332l-19 -96h-441zM465 605l-209 -322h163l64 322h-18zM677 749l-64 34l110 179l87 -46z" />
    <glyph glyph-name="aeacute" unicode="&#x1fd;" horiz-adv-x="814" 
d="M204 70q22 0 43.5 6t39 17t29.5 26.5t16 34.5l14 70l-91 -4q-47 -2 -79.5 -13.5t-40.5 -45.5q-4 -16 -4.5 -24t-0.5 -12q0 -26 19.5 -40.5t54.5 -14.5zM615 449q-58 0 -96 -36.5t-52 -98.5l-5 -22q71 3 115.5 10t70 18t35 26t9.5 35q0 21 -7 34.5t-18.5 21t-25 10
t-26.5 2.5zM174 -12q-73 0 -112 35.5t-39 99.5q0 155 237 164l100 4l8 45q3 16 3 29q0 79 -94 79q-47 0 -76.5 -19.5t-53.5 -51.5l-62 60q31 45 83.5 72t119.5 27q60 0 96.5 -23t53.5 -64h7q32 41 76 64t100 23q30 0 61 -7.5t56 -24.5t41 -44t16 -65q0 -84 -85 -124.5
t-260 -43.5q-3 -23 -3 -44q0 -45 26.5 -74t83.5 -29q43 0 78 19t67 59l66 -55q-49 -61 -103 -86t-116 -25q-70 0 -116 27.5t-68 77.5h-7q-28 -54 -76.5 -79.5t-107.5 -25.5zM489 582l-63 34l110 179l87 -46z" />
    <glyph glyph-name="Oslashacute" unicode="&#x1fe;" horiz-adv-x="687" 
d="M302 -12q-45 0 -85 13t-72 40l-80 -93l-62 54l89 104q-17 32 -26.5 71t-9.5 88q0 88 25.5 168.5t72 142t112.5 98t147 36.5q45 0 85 -13t72 -40l80 93l62 -54l-89 -104q17 -32 26.5 -71t9.5 -88q0 -88 -25.5 -168.5t-72 -142t-112.5 -98t-147 -36.5zM169 301
q-4 -17 -5.5 -33t-1.5 -30q0 -29 7 -51l339 390q-39 37 -104 37q-84 0 -139 -54.5t-75 -154.5zM311 84q84 0 139 54.5t75 154.5l21 104q4 17 5.5 33t1.5 30q0 29 -7 51l-339 -390q39 -37 104 -37zM429 749l-64 34l110 179l87 -46z" />
    <glyph glyph-name="oslashacute" unicode="&#x1ff;" horiz-adv-x="548" 
d="M-24 7l86 89q-20 43 -20 107q0 67 20 127t55.5 105t84.5 71t108 26q80 0 133 -48l75 78l53 -49l-86 -89q21 -45 21 -107q0 -68 -20 -127.5t-55.5 -104.5t-85 -71t-108.5 -26q-80 0 -133 48l-75 -78zM245 74q50 0 88 36.5t52 106.5q8 38 12 63.5t5 31.5q2 16 0 29
l-233 -235q27 -32 76 -32zM302 446q-49 0 -86.5 -36.5t-51.5 -106.5q-8 -38 -12 -63.5t-5 -32.5q-1 -13 0 -28l231 235q-27 32 -76 32zM347 582l-63 34l110 179l87 -46z" />
    <glyph glyph-name="Scommaaccent" unicode="&#x218;" horiz-adv-x="580" 
d="M251 -12q-81 0 -146.5 29t-100.5 96l83 63q29 -48 69.5 -69.5t95.5 -21.5q78 0 119 37t41 91q0 39 -24 61.5t-71 32.5l-58 11q-75 16 -117 59.5t-42 118.5q0 45 17.5 84t50 68t79.5 45.5t106 16.5q80 0 138 -27.5t93 -75.5l-78 -69q-27 37 -64 56t-94 19
q-64 0 -101.5 -28.5t-37.5 -79.5q0 -39 23 -60.5t70 -31.5l57 -11q77 -16 120.5 -60t43.5 -120q0 -46 -18 -88.5t-53 -74.5t-85.5 -51.5t-115.5 -19.5zM230 -56q51 0 51 -43q0 -5 -0.5 -9.5t-2.5 -15.5q-8 -38 -30.5 -74.5t-50.5 -59.5h-68q26 23 40.5 41.5t25.5 44.5
q-17 2 -24.5 12t-7.5 26q0 3 0.5 8.5t2.5 16.5q11 53 64 53z" />
    <glyph glyph-name="scommaaccent" unicode="&#x219;" horiz-adv-x="482" 
d="M210 -12q-62 0 -115.5 24t-85.5 69l68 62q25 -33 57.5 -51t77.5 -18q50 0 77.5 22t27.5 59q0 21 -13 36.5t-51 22.5l-45 8q-63 11 -101 42t-38 94q0 34 12.5 65.5t37.5 55.5t63 38.5t89 14.5q116 0 180 -79l-68 -62q-18 24 -47 39.5t-71 15.5q-48 0 -71.5 -21t-23.5 -54
q0 -22 13.5 -37t50.5 -22l45 -7q65 -11 102 -43t37 -95q0 -39 -14.5 -71.5t-41.5 -56.5t-65.5 -37.5t-86.5 -13.5zM180 -56q51 0 51 -43q0 -5 -0.5 -9.5t-2.5 -15.5q-8 -38 -30.5 -74.5t-50.5 -59.5h-68q26 23 40.5 41.5t25.5 44.5q-17 2 -24.5 12t-7.5 26q0 3 0.5 8.5
t2.5 16.5q11 53 64 53z" />
    <glyph glyph-name="uni021A" unicode="&#x21a;" horiz-adv-x="561" 
d="M403 602l-121 -602h-108l120 602h-200l19 96h509l-19 -96h-200zM215 -56q51 0 51 -43q0 -5 -0.5 -9.5t-2.5 -15.5q-8 -38 -30.5 -74.5t-50.5 -59.5h-68q26 23 40.5 41.5t25.5 44.5q-17 2 -24.5 12t-7.5 26q0 3 0.5 8.5t2.5 16.5q11 53 64 53z" />
    <glyph glyph-name="uni021B" unicode="&#x21b;" horiz-adv-x="333" 
d="M158 0q-48 0 -70.5 21t-22.5 58q0 8 1 18t3 20l63 316h-76l17 87h39q29 0 39.5 12t15.5 39l18 91h97l-28 -142h104l-17 -87h-105l-69 -346h101l-17 -87h-93zM135 -56q51 0 51 -43q0 -5 -0.5 -9.5t-2.5 -15.5q-8 -38 -30.5 -74.5t-50.5 -59.5h-68q26 23 40.5 41.5
t25.5 44.5q-17 2 -24.5 12t-7.5 26q0 3 0.5 8.5t2.5 16.5q11 53 64 53z" />
    <glyph glyph-name="uni0237" unicode="&#x237;" horiz-adv-x="263" 
d="M-74 -113h80l127 633h104l-122 -602q-11 -60 -42 -89t-92 -29h-72z" />
    <glyph glyph-name="uni0259" unicode="&#x259;" horiz-adv-x="512" 
d="M195 -12q-32 0 -63 7.5t-56.5 24.5t-41 44t-15.5 65q0 83 83.5 127.5t262.5 47.5q3 21 3 34q0 48 -27 77t-84 29q-82 0 -145 -78l-65 55q48 61 102.5 86t115.5 25q101 0 153.5 -57.5t52.5 -162.5q0 -64 -19.5 -122.5t-55.5 -103.5t-87 -71.5t-114 -26.5zM203 71
q54 0 93.5 36t51.5 99l5 26q-72 -3 -116.5 -10.5t-70 -19.5t-34.5 -28.5t-9 -38.5q0 -20 7 -32t18.5 -19.5t25.5 -10t29 -2.5z" />
    <glyph glyph-name="uni02BB" unicode="&#x2bb;" horiz-adv-x="600" 
d="M312 587q-26 0 -38.5 11t-12.5 31q0 5 0.5 10t2.5 16q8 38 30.5 74.5t50.5 59.5h68q-26 -23 -40.5 -42t-25.5 -44q17 -2 24.5 -12t7.5 -26q0 -3 -0.5 -8.5t-2.5 -16.5q-11 -53 -64 -53z" />
    <glyph glyph-name="uni02BC" unicode="&#x2bc;" horiz-adv-x="591" 
d="M328 542h-72l42 198h120z" />
    <glyph glyph-name="circumflex" unicode="&#x2c6;" horiz-adv-x="590" 
d="M385 778l90 -150l-57 -43l-95 116l-137 -115l-52 43l145 149h106z" />
    <glyph glyph-name="caron" unicode="&#x2c7;" horiz-adv-x="589" 
d="M251 594l-90 150l57 42l92 -116l139 116l54 -42l-145 -150h-107z" />
    <glyph glyph-name="breve" unicode="&#x2d8;" horiz-adv-x="590" 
d="M305 589q-39 0 -65.5 14t-43 36t-25.5 48.5t-13 51.5l60 29l14 -29q15 -34 31.5 -52.5t46.5 -18.5q27 0 48.5 17t50.5 55l22 28l63 -31q-14 -26 -30.5 -52t-39 -47.5t-52 -35t-67.5 -13.5z" />
    <glyph glyph-name="dotaccent" unicode="&#x2d9;" horiz-adv-x="589" 
d="M308 605q-29 0 -42.5 12t-13.5 33q0 5 1 11t4 20q5 26 21 41t51 15q29 0 42.5 -12t13.5 -33q0 -5 -1 -11t-4 -20q-5 -26 -21 -41t-51 -15z" />
    <glyph glyph-name="ring" unicode="&#x2da;" horiz-adv-x="591" 
d="M303 568q-50 0 -81 31t-31 78q0 33 11 60t30.5 45.5t46 29t57.5 10.5q50 0 81 -30.5t31 -78.5q0 -33 -11 -60t-30.5 -45.5t-46 -29t-57.5 -10.5zM309 627q26 0 41 14t20 39q6 28 6 41q0 20 -11.5 31t-34.5 11q-26 0 -41 -14t-20 -39q-3 -14 -4.5 -23.5t-1.5 -17.5
q0 -20 11.5 -31t34.5 -11z" />
    <glyph glyph-name="ogonek" unicode="&#x2db;" horiz-adv-x="589" 
d="M196 -209q-21 0 -40.5 4.5t-34 14t-23 24.5t-8.5 35q0 40 33.5 71.5t97.5 54.5l-3 17l58 6l15 -18q-40 -26 -63.5 -44.5t-35.5 -32t-15.5 -23.5t-3.5 -17q0 -30 34 -30q14 0 28 6t26 21l43 -47q-15 -17 -41.5 -29.5t-66.5 -12.5z" />
    <glyph glyph-name="tilde" unicode="&#x2dc;" horiz-adv-x="591" 
d="M384 607q-24 0 -41 7.5t-34 16.5q-39 23 -68 23q-17 0 -29.5 -6.5t-29.5 -19.5l-35 51q20 24 45.5 40.5t60.5 16.5q24 0 41 -7t34 -16q39 -23 68 -23q17 0 29.5 6.5t29.5 19.5l35 -52q-20 -24 -45.5 -40.5t-60.5 -16.5z" />
    <glyph glyph-name="hungarumlaut" unicode="&#x2dd;" horiz-adv-x="590" 
d="M230 583l-59 29l109 181l81 -44zM403 583l-58 29l108 181l81 -44z" />
    <glyph glyph-name="uni0300" unicode="&#x300;" 
d="M-99 750l93 44l64 -183l-64 -29z" />
    <glyph glyph-name="uni0301" unicode="&#x301;" 
d="M28 582l-63 34l110 179l87 -46z" />
    <glyph glyph-name="uni0302" unicode="&#x302;" 
d="M95 778l90 -150l-57 -43l-95 116l-137 -115l-52 43l145 149h106z" />
    <glyph glyph-name="uni0303" unicode="&#x303;" 
d="M93 607q-24 0 -41 7.5t-34 16.5q-39 23 -68 23q-17 0 -29.5 -6.5t-29.5 -19.5l-35 51q20 24 45.5 40.5t60.5 16.5q24 0 41 -7t34 -16q39 -23 68 -23q17 0 29.5 6.5t29.5 19.5l35 -52q-20 -24 -45.5 -40.5t-60.5 -16.5z" />
    <glyph glyph-name="uni0304" unicode="&#x304;" 
d="M-101 714h275l-17 -82h-275z" />
    <glyph glyph-name="uni0306" unicode="&#x306;" 
d="M15 589q-39 0 -65.5 14t-43 36t-25.5 48.5t-13 51.5l60 29l14 -29q15 -34 31.5 -52.5t46.5 -18.5q27 0 48.5 17t50.5 55l22 28l63 -31q-14 -26 -30.5 -52t-39 -47.5t-52 -35t-67.5 -13.5z" />
    <glyph glyph-name="uni0307" unicode="&#x307;" 
d="M18 605q-29 0 -42.5 12t-13.5 33q0 5 1 11t4 20q5 26 21 41t51 15q29 0 42.5 -12t13.5 -33q0 -5 -1 -11t-4 -20q-5 -26 -21 -41t-51 -15z" />
    <glyph glyph-name="uni0308" unicode="&#x308;" 
d="M-78 610q-26 0 -38.5 11t-12.5 29q0 8 4 31q5 23 21 38t48 15q51 0 51 -40q0 -5 -1 -11.5t-3 -18.5q-5 -24 -21 -39t-48 -15zM111 610q-26 0 -38.5 11t-12.5 29q0 8 4 31q5 23 21 38t48 15q51 0 51 -40q0 -5 -1 -11.5t-3 -18.5q-5 -24 -21 -39t-48 -15z" />
    <glyph glyph-name="uni0309" unicode="&#x309;" 
d="M-55 781h123q38 0 53.5 -16t15.5 -36q0 -28 -16 -54t-41 -55l-40 -46l-53 28l61 101h-117z" />
    <glyph glyph-name="uni030A" unicode="&#x30a;" 
d="M12 568q-50 0 -81 31t-31 78q0 33 11 60t30.5 45.5t46 29t57.5 10.5q50 0 81 -30.5t31 -78.5q0 -33 -11 -60t-30.5 -45.5t-46 -29t-57.5 -10.5zM18 627q26 0 41 14t20 39q6 28 6 41q0 20 -11.5 31t-34.5 11q-26 0 -41 -14t-20 -39q-3 -14 -4.5 -23.5t-1.5 -17.5
q0 -20 11.5 -31t34.5 -11z" />
    <glyph glyph-name="uni030B" unicode="&#x30b;" 
d="M-61 583l-59 29l109 181l81 -44zM112 583l-58 29l108 181l81 -44z" />
    <glyph glyph-name="uni030C" unicode="&#x30c;" 
d="M-39 594l-90 150l57 42l92 -116l139 116l54 -42l-145 -150h-107z" />
    <glyph glyph-name="uni0312" unicode="&#x312;" 
d="M13 587q-26 0 -38.5 11t-12.5 31q0 5 0.5 10t2.5 16q8 38 30.5 74.5t50.5 59.5h68q-26 -23 -40.5 -42t-25.5 -44q17 -2 24.5 -12t7.5 -26q0 -3 -0.5 -8.5t-2.5 -16.5q-11 -53 -64 -53z" />
    <glyph glyph-name="uni0315" unicode="&#x315;" 
d="M37 542h-72l42 198h120z" />
    <glyph glyph-name="uni031B" unicode="&#x31b;" 
d="M98 529q-8 -38 -24.5 -57.5t-60.5 -19.5h-122l14 68h99l22 109h92z" />
    <glyph glyph-name="uni0323" unicode="&#x323;" 
d="M-33 -184q-54 0 -54 43q0 4 1.5 10t3.5 19q5 24 20.5 38t46.5 14q54 0 54 -43q0 -4 -1.5 -10t-3.5 -19q-5 -24 -20.5 -38t-46.5 -14z" />
    <glyph glyph-name="uni0326" unicode="&#x326;" 
d="M-13 -56q51 0 51 -43q0 -5 -0.5 -9.5t-2.5 -15.5q-8 -38 -30.5 -74.5t-50.5 -59.5h-68q26 23 40.5 41.5t25.5 44.5q-17 2 -24.5 12t-7.5 26q0 3 0.5 8.5t2.5 16.5q11 53 64 53z" />
    <glyph glyph-name="uni0327" unicode="&#x327;" 
d="M-16 -209q-39 0 -66 12t-39 29l45 45q7 -9 22 -17.5t37 -8.5q21 0 34.5 9.5t13.5 24.5q0 14 -13 24.5t-47 13.5l-24 2l35 99h57l-30 -83l2 -3q8 2 17 3.5t20 1.5q25 0 42.5 -13.5t17.5 -42.5q0 -46 -35 -71t-89 -25z" />
    <glyph glyph-name="uni0328" unicode="&#x328;" 
d="M-94 -209q-21 0 -40.5 4.5t-34 14t-23 24.5t-8.5 35q0 40 33.5 71.5t97.5 54.5l-3 17l58 6l15 -18q-40 -26 -63.5 -44.5t-35.5 -32t-15.5 -23.5t-3.5 -17q0 -30 34 -30q14 0 28 6t26 21l43 -47q-15 -17 -41.5 -29.5t-66.5 -12.5z" />
    <glyph glyph-name="uni037E" unicode="&#x37e;" horiz-adv-x="308" 
d="M125 139q32 0 47 -14.5t15 -36.5q0 -7 -1.5 -17.5t-3.5 -18.5q-11 -47 -41.5 -99.5t-84.5 -90.5h-83q39 32 65.5 63.5t44.5 67.5q-41 9 -41 46q0 7 1.5 17.5t3.5 19.5q6 27 23.5 45t54.5 18zM183 381q-32 0 -47 14t-15 35q0 8 1.5 19.5t3.5 19.5q5 26 23.5 44.5
t55.5 18.5q32 0 47 -14t15 -35q0 -7 -1.5 -18.5t-3.5 -20.5q-5 -26 -23 -44.5t-56 -18.5z" />
    <glyph glyph-name="tonos" unicode="&#x384;" horiz-adv-x="591" 
d="M368 582l-68 20l68 193l96 -24z" />
    <glyph glyph-name="dieresistonos" unicode="&#x385;" horiz-adv-x="591" 
d="M360 582l-50 16l65 197l78 -21zM237 612q-21 0 -32.5 11t-11.5 29q0 8 4 27q5 23 19.5 38t40.5 15q20 0 32 -11t12 -29q0 -4 -1 -10t-3 -17q-5 -23 -19.5 -38t-40.5 -15zM485 612q-21 0 -32.5 11t-11.5 29q0 8 4 27q5 23 19.5 38t40.5 15q20 0 32 -11t12 -29q0 -8 -4 -27
q-5 -23 -19.5 -38t-40.5 -15z" />
    <glyph glyph-name="Alphatonos" unicode="&#x386;" horiz-adv-x="638" 
d="M455 0l-22 189h-250l-97 -189h-116l367 698h140l88 -698h-110zM391 598h-7l-156 -315h196zM171 582l-68 20l68 193l96 -24z" />
    <glyph glyph-name="anoteleia" unicode="&#x387;" horiz-adv-x="308" 
d="M183 381q-32 0 -47 14t-15 35q0 8 1.5 19.5t3.5 19.5q5 26 23.5 44.5t55.5 18.5q32 0 47 -14t15 -35q0 -7 -1.5 -18.5t-3.5 -20.5q-5 -26 -23 -44.5t-56 -18.5z" />
    <glyph glyph-name="Epsilontonos" unicode="&#x388;" horiz-adv-x="631" 
d="M92 0l140 698h427l-20 -96h-318l-40 -202h284l-19 -96h-284l-42 -208h332l-19 -96h-441zM123 582l-68 20l68 193l96 -24z" />
    <glyph glyph-name="Etatonos" unicode="&#x389;" horiz-adv-x="751" 
d="M568 304h-306l-62 -304h-108l140 698h108l-59 -298h306l59 298h108l-140 -698h-108zM123 582l-68 20l68 193l96 -24z" />
    <glyph glyph-name="Iotatonos" unicode="&#x38a;" horiz-adv-x="487" 
d="M92 0l18 90h90l104 518h-90l18 90h288l-18 -90h-90l-104 -518h90l-18 -90h-288zM123 582l-68 20l68 193l96 -24z" />
    <glyph glyph-name="Omicrontonos" unicode="&#x38c;" horiz-adv-x="727" 
d="M343 -12q-51 0 -96 17t-78.5 51.5t-53 86.5t-19.5 122q0 88 25 168.5t71.5 142t112.5 98t147 36.5q51 0 96.5 -17t79 -51.5t53 -86.5t19.5 -122q0 -88 -25.5 -168.5t-72 -142t-112.5 -98t-147 -36.5zM353 85q84 0 137 53.5t73 151.5l22 106q4 17 5 33t1 29q0 73 -38 114
t-109 41q-83 0 -137.5 -54t-74.5 -153l-21 -104q-4 -18 -5 -33.5t-1 -28.5q0 -73 38 -114t110 -41zM123 582l-68 20l68 193l96 -24z" />
    <glyph glyph-name="Upsilontonos" unicode="&#x38e;" horiz-adv-x="709" 
d="M303 0l55 272l-147 426h110l107 -321h5l229 321h122l-319 -431l-54 -267h-108zM123 582l-68 20l68 193l96 -24z" />
    <glyph glyph-name="Omegatonos" unicode="&#x38f;" horiz-adv-x="730" 
d="M50 96h156l2 11q-48 30 -71.5 88t-23.5 133q0 78 25.5 147.5t72 121.5t110.5 82.5t141 30.5q54 0 98.5 -18.5t76 -52t49 -81.5t17.5 -107q0 -51 -11.5 -103t-36 -98t-64 -83.5t-95.5 -59.5l-2 -11h156l-20 -96h-240l31 145q57 19 96.5 64.5t51.5 107.5l21 100q4 20 4 54
q0 29 -9.5 55t-28 45.5t-45.5 30.5t-63 11q-42 0 -77 -14.5t-61 -40t-44 -61t-26 -76.5l-16 -83q-2 -13 -3 -26.5t-1 -25.5q0 -48 22 -87.5t59 -53.5l-31 -145h-240zM123 582l-68 20l68 193l96 -24z" />
    <glyph glyph-name="iotadieresistonos" unicode="&#x390;" horiz-adv-x="293" 
d="M230 0h-90q-48 0 -70.5 21t-22.5 58q0 8 1.5 19.5t3.5 19.5l80 402h104l-86 -433h97zM213 582l-50 16l65 197l78 -21zM90 612q-21 0 -32.5 11t-11.5 29q0 8 4 27q5 23 19.5 38t40.5 15q20 0 32 -11t12 -29q0 -4 -1 -10t-3 -17q-5 -23 -19.5 -38t-40.5 -15zM338 612
q-21 0 -32.5 11t-11.5 29q0 8 4 27q5 23 19.5 38t40.5 15q20 0 32 -11t12 -29q0 -8 -4 -27q-5 -23 -19.5 -38t-40.5 -15z" />
    <glyph glyph-name="Alpha" unicode="&#x391;" horiz-adv-x="638" 
d="M455 0l-22 189h-250l-97 -189h-116l367 698h140l88 -698h-110zM391 598h-7l-156 -315h196z" />
    <glyph glyph-name="Beta" unicode="&#x392;" horiz-adv-x="637" 
d="M172 698h274q79 0 124.5 -38t45.5 -108q0 -33 -9 -63t-26.5 -55t-43.5 -42.5t-60 -26.5l-1 -5q102 -26 102 -129q0 -49 -16.5 -91.5t-47 -73.5t-73.5 -48.5t-96 -17.5h-313zM344 95q45 0 74 22t39 69q5 26 7 38.5t2 19.5q0 31 -20.5 49t-61.5 18h-182l-43 -216h185z
M377 401q47 0 77 19.5t39 64.5q5 24 6.5 36t1.5 19q0 29 -18.5 46t-55.5 17h-166l-41 -202h157z" />
    <glyph glyph-name="Gamma" unicode="&#x393;" horiz-adv-x="490" 
d="M172 698h378l-19 -96h-270l-121 -602h-108z" />
    <glyph glyph-name="uni0394" unicode="&#x394;" horiz-adv-x="645" 
d="M11 95l329 603h140l88 -603l-19 -95h-557zM393 598h-6l-263 -502h335z" />
    <glyph glyph-name="Epsilon" unicode="&#x395;" horiz-adv-x="571" 
d="M32 0l140 698h427l-20 -96h-318l-40 -202h284l-19 -96h-284l-42 -208h332l-19 -96h-441z" />
    <glyph glyph-name="Zeta" unicode="&#x396;" horiz-adv-x="566" 
d="M478 0h-491l20 99l456 503h-344l19 96h473l-20 -99l-456 -503h362z" />
    <glyph glyph-name="Eta" unicode="&#x397;" horiz-adv-x="691" 
d="M508 304h-306l-62 -304h-108l140 698h108l-59 -298h306l59 298h108l-140 -698h-108z" />
    <glyph glyph-name="Theta" unicode="&#x398;" horiz-adv-x="690" 
d="M304 -12q-52 0 -97.5 17t-79 51.5t-52.5 86.5t-19 122q0 88 25.5 168.5t72.5 142t113 98t148 36.5q52 0 97.5 -17t79 -51.5t52.5 -86.5t19 -122q0 -88 -25.5 -168.5t-72.5 -142t-113 -98t-148 -36.5zM313 85q85 0 140 55t75 154l20 102q4 18 5 33.5t1 28.5q0 73 -38 114
t-110 41q-85 0 -140 -55t-75 -154l-20 -102q-4 -18 -5 -33.5t-1 -28.5q0 -73 38 -114t110 -41zM228 306l19 96h246l-19 -96h-246z" />
    <glyph glyph-name="Iota" unicode="&#x399;" horiz-adv-x="398" 
d="M3 0l18 90h90l104 518h-90l18 90h288l-18 -90h-90l-104 -518h90l-18 -90h-288z" />
    <glyph glyph-name="Kappa" unicode="&#x39a;" horiz-adv-x="633" 
d="M303 324l-121 -116l-42 -208h-108l140 698h109l-70 -347h6l115 122l223 225h134l-302 -302l182 -396h-119z" />
    <glyph glyph-name="Lambda" unicode="&#x39b;" horiz-adv-x="625" 
d="M465 698l86 -698h-110l-33 315l-26 273h-6l-128 -262l-164 -326h-115l365 698h131z" />
    <glyph glyph-name="Mu" unicode="&#x39c;" horiz-adv-x="792" 
d="M657 533h-5l-87 -125l-190 -264l-89 271l-38 118h-5l-106 -533h-105l140 698h125l111 -359h3l250 359h134l-140 -698h-105z" />
    <glyph glyph-name="Nu" unicode="&#x39d;" horiz-adv-x="691" 
d="M298 385l-49 155h-6l-108 -540h-103l140 698h120l136 -385l49 -155h6l108 540h103l-140 -698h-120z" />
    <glyph glyph-name="Xi" unicode="&#x39e;" horiz-adv-x="586" 
d="M147 698h467l-20 -96h-466zM145 400h352l-19 -96h-353zM27 96h466l-19 -96h-467z" />
    <glyph glyph-name="Omicron" unicode="&#x39f;" horiz-adv-x="687" 
d="M303 -12q-51 0 -96 17t-78.5 51.5t-53 86.5t-19.5 122q0 88 25 168.5t71.5 142t112.5 98t147 36.5q51 0 96.5 -17t79 -51.5t53 -86.5t19.5 -122q0 -88 -25.5 -168.5t-72 -142t-112.5 -98t-147 -36.5zM313 85q84 0 137 53.5t73 151.5l22 106q4 17 5 33t1 29q0 73 -38 114
t-109 41q-83 0 -137.5 -54t-74.5 -153l-21 -104q-4 -18 -5 -33.5t-1 -28.5q0 -73 38 -114t110 -41z" />
    <glyph glyph-name="Pi" unicode="&#x3a0;" horiz-adv-x="675" 
d="M172 698h506l-140 -698h-108l121 602h-290l-121 -602h-108z" />
    <glyph glyph-name="Rho" unicode="&#x3a1;" horiz-adv-x="609" 
d="M32 0l140 698h255q98 0 145.5 -48t47.5 -128q0 -52 -18 -96.5t-51 -77t-79 -51t-102 -18.5h-174l-56 -279h-108zM216 375h169q43 0 71.5 22.5t39.5 67.5q6 27 9 42.5t3 25.5q0 30 -18.5 49.5t-63.5 19.5h-165z" />
    <glyph glyph-name="Sigma" unicode="&#x3a3;" horiz-adv-x="566" 
d="M-9 0l20 99l278 255l-171 245l21 99h459l-20 -96h-339l178 -255l-274 -251h344l-19 -96h-477z" />
    <glyph glyph-name="Tau" unicode="&#x3a4;" horiz-adv-x="561" 
d="M403 602l-121 -602h-108l120 602h-200l19 96h509l-19 -96h-200z" />
    <glyph glyph-name="Upsilon" unicode="&#x3a5;" horiz-adv-x="597" 
d="M191 0l55 272l-147 426h110l107 -321h5l229 321h122l-319 -431l-54 -267h-108z" />
    <glyph glyph-name="Phi" unicode="&#x3a6;" horiz-adv-x="806" 
d="M299 31h-6q-57 0 -102.5 17t-77 49t-48 77.5t-16.5 102.5q0 84 24.5 157t72.5 127t117.5 85t159.5 31h6l11 54h108l-11 -54h7q57 0 102.5 -17t76.5 -49t47.5 -77.5t16.5 -102.5q0 -84 -24.5 -157t-72 -127t-117 -85t-159.5 -31h-7l-13 -66h-108zM413 587h-6
q-92 0 -152.5 -53t-81.5 -154l-10 -50q-3 -14 -4 -27.5t-1 -30.5q0 -75 37.5 -113t118.5 -38h6zM429 121q92 0 152.5 53t81.5 154l10 50q3 14 4 27.5t1 30.5q0 75 -37.5 113t-118.5 38h-6l-93 -466h6z" />
    <glyph glyph-name="Chi" unicode="&#x3a7;" horiz-adv-x="615" 
d="M536 0h-116l-111 268h-6l-208 -268h-126l289 363l-144 335h115l109 -263h6l207 263h125l-290 -353z" />
    <glyph glyph-name="Psi" unicode="&#x3a8;" horiz-adv-x="784" 
d="M325 192q-55 0 -96.5 16t-69.5 43t-42 64t-14 79q0 27 3.5 56.5t10.5 64.5l37 183h108l-40 -199q-8 -37 -10.5 -60t-2.5 -40q0 -117 134 -117l83 416h108l-83 -416q42 0 74.5 10.5t57.5 34.5t42.5 63.5t29.5 98.5l42 209h108l-44 -219q-29 -148 -108.5 -217.5
t-219.5 -69.5l-39 -192h-108z" />
    <glyph glyph-name="uni03A9" unicode="&#x3a9;" horiz-adv-x="687" 
d="M7 96h156l2 11q-48 30 -71.5 88t-23.5 133q0 78 25.5 147.5t72 121.5t110.5 82.5t141 30.5q54 0 98.5 -18.5t76 -52t49 -81.5t17.5 -107q0 -51 -11.5 -103t-36 -98t-64 -83.5t-95.5 -59.5l-2 -11h156l-20 -96h-240l31 145q57 19 96.5 64.5t51.5 107.5l21 100q4 20 4 54
q0 29 -9.5 55t-28 45.5t-45.5 30.5t-63 11q-42 0 -77 -14.5t-61 -40t-44 -61t-26 -76.5l-16 -83q-2 -13 -3 -26.5t-1 -25.5q0 -48 22 -87.5t59 -53.5l-31 -145h-240z" />
    <glyph glyph-name="Iotadieresis" unicode="&#x3aa;" horiz-adv-x="398" 
d="M3 0l18 90h90l104 518h-90l18 90h288l-18 -90h-90l-104 -518h90l-18 -90h-288zM206 776q-26 0 -38.5 11t-12.5 29q0 10 4 33q5 23 21 38t48 15q51 0 51 -40q0 -5 -1 -12.5t-3 -19.5q-5 -24 -21 -39t-48 -15zM395 776q-26 0 -38.5 11t-12.5 29q0 10 4 33q5 23 21 38t48 15
q51 0 51 -40q0 -5 -1 -12.5t-3 -19.5q-5 -24 -21 -39t-48 -15z" />
    <glyph glyph-name="Upsilondieresis" unicode="&#x3ab;" horiz-adv-x="597" 
d="M191 0l55 272l-147 426h110l107 -321h5l229 321h122l-319 -431l-54 -267h-108zM290 776q-26 0 -38.5 11t-12.5 29q0 10 4 33q5 23 21 38t48 15q51 0 51 -40q0 -5 -1 -12.5t-3 -19.5q-5 -24 -21 -39t-48 -15zM479 776q-26 0 -38.5 11t-12.5 29q0 10 4 33q5 23 21 38t48 15
q51 0 51 -40q0 -5 -1 -12.5t-3 -19.5q-5 -24 -21 -39t-48 -15z" />
    <glyph glyph-name="alphatonos" unicode="&#x3ac;" horiz-adv-x="637" 
d="M562 0h-61q-39 0 -60.5 21.5t-20.5 63.5l1 84h-4q-27 -54 -52.5 -89t-51.5 -55.5t-53.5 -28.5t-57.5 -8q-77 0 -118.5 48.5t-41.5 142.5q0 72 17.5 136t50 112.5t79 76.5t103.5 28q76 0 114.5 -42.5t44.5 -138.5h4l44 95l38 74h116l-161 -259l28 -174h59zM222 77
q13 0 26 4.5t27.5 16.5t30.5 32.5t35 53.5l46 76l-13 76q-10 63 -29 85t-50 22q-43 0 -77.5 -35.5t-48.5 -104.5l-15 -73q-3 -16 -4 -29.5t-1 -27.5q0 -52 19.5 -74t53.5 -22zM368 582l-68 20l68 193l96 -24z" />
    <glyph glyph-name="epsilontonos" unicode="&#x3ad;" horiz-adv-x="518" 
d="M465 91q-50 -56 -106.5 -79.5t-132.5 -23.5q-96 0 -144.5 39t-48.5 98q0 57 36.5 95t107.5 47l1 5q-43 9 -64.5 34.5t-21.5 60.5q0 31 14.5 60.5t43 53t71 37.5t98.5 14q66 0 111.5 -19.5t80.5 -59.5l-68 -62q-23 27 -54 40.5t-76 13.5q-55 0 -82.5 -18t-33.5 -47
q-3 -12 -3 -24q0 -23 18 -36.5t59 -13.5h107l-16 -79h-118q-46 0 -73 -17.5t-34 -48.5q-1 -6 -1.5 -11.5t-0.5 -13.5q0 -28 23.5 -44.5t76.5 -16.5q52 0 90.5 15.5t75.5 56.5zM364 582l-68 20l68 193l96 -24z" />
    <glyph glyph-name="etatonos" unicode="&#x3ae;" horiz-adv-x="583" 
d="M38 0l87 433h-67l17 87h80q35 0 55 -18.5t20 -50.5q0 -14 -3 -30l-3 -12h5q29 60 68 91.5t97 31.5q65 0 97.5 -37t32.5 -103q0 -17 -2 -33.5t-6 -36.5l-104 -522h-104l103 515q6 30 6 55q0 35 -16 53.5t-52 18.5q-52 0 -91 -44q-22 -24 -38 -55.5t-22 -62.5l-56 -280
h-104zM390 582l-68 20l68 193l96 -24z" />
    <glyph glyph-name="iotatonos" unicode="&#x3af;" horiz-adv-x="293" 
d="M230 0h-90q-48 0 -70.5 21t-22.5 58q0 8 1.5 19.5t3.5 19.5l80 402h104l-86 -433h97zM231 582l-68 20l68 193l96 -24z" />
    <glyph glyph-name="upsilondieresistonos" unicode="&#x3b0;" horiz-adv-x="558" 
d="M172 244q-5 -26 -8 -44.5t-3 -38.5q0 -85 87 -85q24 0 43.5 6.5t35.5 24.5t28.5 49.5t22.5 80.5l56 283h104l-58 -290q-26 -126 -84.5 -184t-155.5 -58q-42 0 -75.5 13t-57 36t-35.5 55t-12 70q0 39 10 92l53 266h104zM354 582l-50 16l65 197l78 -21zM231 612
q-21 0 -32.5 11t-11.5 29q0 8 4 27q5 23 19.5 38t40.5 15q20 0 32 -11t12 -29q0 -4 -1 -10t-3 -17q-5 -23 -19.5 -38t-40.5 -15zM479 612q-21 0 -32.5 11t-11.5 29q0 8 4 27q5 23 19.5 38t40.5 15q20 0 32 -11t12 -29q0 -8 -4 -27q-5 -23 -19.5 -38t-40.5 -15z" />
    <glyph glyph-name="alpha" unicode="&#x3b1;" horiz-adv-x="637" 
d="M562 0h-61q-39 0 -60.5 21.5t-20.5 63.5l1 84h-4q-27 -54 -52.5 -89t-51.5 -55.5t-53.5 -28.5t-57.5 -8q-77 0 -118.5 48.5t-41.5 142.5q0 72 17.5 136t50 112.5t79 76.5t103.5 28q76 0 114.5 -42.5t44.5 -138.5h4l44 95l38 74h116l-161 -259l28 -174h59zM222 77
q13 0 26 4.5t27.5 16.5t30.5 32.5t35 53.5l46 76l-13 76q-10 63 -29 85t-50 22q-43 0 -77.5 -35.5t-48.5 -104.5l-15 -73q-3 -16 -4 -29.5t-1 -27.5q0 -52 19.5 -74t53.5 -22z" />
    <glyph glyph-name="beta" unicode="&#x3b2;" horiz-adv-x="563" 
d="M129 512q23 117 87 178.5t161 61.5q83 0 128 -42.5t45 -120.5q0 -42 -12 -74.5t-32.5 -56t-49 -39t-61.5 -22.5l-1 -5q60 -12 91 -51.5t31 -111.5q0 -49 -16.5 -92.5t-46 -76.5t-71.5 -52.5t-93 -19.5q-54 0 -91 26t-46 73h-4l-58 -287h-104zM284 436h37q54 0 80.5 25.5
t36.5 72.5q5 18 6.5 31.5t1.5 24.5q0 34 -19 54t-60 20q-45 0 -80.5 -33t-51.5 -111l-67 -331q-10 -50 14 -81.5t87 -31.5q54 0 89.5 26.5t46.5 88.5q4 17 5.5 30.5t1.5 28.5q0 99 -106 99h-40z" />
    <glyph glyph-name="gamma" unicode="&#x3b3;" horiz-adv-x="513" 
d="M158 0l-60 433h-55l17 87h58q71 0 79 -67l20 -175l14 -164h6q62 94 111.5 197t80.5 209h109q-35 -114 -101 -244t-175 -276l-40 -200h-104z" />
    <glyph glyph-name="delta" unicode="&#x3b4;" horiz-adv-x="545" 
d="M360 653l-89 7l-1 -4l95 -80q40 -33 66.5 -63.5t43 -61t23.5 -63.5t7 -72q0 -68 -20 -127.5t-55 -104t-84.5 -70.5t-107.5 -26q-44 0 -80 14t-61.5 41.5t-40 67.5t-14.5 92q0 67 21.5 122.5t56.5 95.5t81 62.5t95 22.5l1 5l-124 116l22 113h366l-18 -87h-183zM400 334
q0 37 -12 66.5t-47 67.5q-70 -8 -115 -55.5t-62 -120.5q-9 -42 -14 -69.5t-5 -41.5q0 -48 25.5 -76.5t75.5 -28.5q49 0 84 34t50 97q11 43 15.5 75t4.5 52z" />
    <glyph glyph-name="epsilon" unicode="&#x3b5;" horiz-adv-x="518" 
d="M465 91q-50 -56 -106.5 -79.5t-132.5 -23.5q-96 0 -144.5 39t-48.5 98q0 57 36.5 95t107.5 47l1 5q-43 9 -64.5 34.5t-21.5 60.5q0 31 14.5 60.5t43 53t71 37.5t98.5 14q66 0 111.5 -19.5t80.5 -59.5l-68 -62q-23 27 -54 40.5t-76 13.5q-55 0 -82.5 -18t-33.5 -47
q-3 -12 -3 -24q0 -23 18 -36.5t59 -13.5h107l-16 -79h-118q-46 0 -73 -17.5t-34 -48.5q-1 -6 -1.5 -11.5t-0.5 -13.5q0 -28 23.5 -44.5t76.5 -16.5q52 0 90.5 15.5t75.5 56.5z" />
    <glyph glyph-name="zeta" unicode="&#x3b6;" horiz-adv-x="423" 
d="M163 740h345l-17 -86l-210 -210q-42 -42 -69.5 -76t-43.5 -63t-22.5 -55t-6.5 -51q0 -35 22.5 -59.5t73.5 -41.5l55 -16q64 -20 64 -74q0 -26 -15 -59l-56 -120l-87 36l57 122l-52 16q-85 27 -125 74t-40 119q0 34 8 67t27.5 69t52.5 75.5t82 87.5l167 160l1 5l-84 -7
h-144z" />
    <glyph glyph-name="eta" unicode="&#x3b7;" horiz-adv-x="583" 
d="M38 0l87 433h-67l17 87h80q35 0 55 -18.5t20 -50.5q0 -14 -3 -30l-3 -12h5q29 60 68 91.5t97 31.5q65 0 97.5 -37t32.5 -103q0 -17 -2 -33.5t-6 -36.5l-104 -522h-104l103 515q6 30 6 55q0 35 -16 53.5t-52 18.5q-52 0 -91 -44q-22 -24 -38 -55.5t-22 -62.5l-56 -280
h-104z" />
    <glyph glyph-name="theta" unicode="&#x3b8;" horiz-adv-x="585" 
d="M121 388q36 0 56 -19.5t20 -49.5q0 -7 -1.5 -14.5t-3.5 -18.5l-10 -51q-3 -17 -5 -34t-2 -31q0 -45 22 -69.5t67 -24.5q55 0 90 41.5t54 137.5l22 111h-81q-53 0 -90 13t-60.5 35.5t-34 52.5t-10.5 64q0 39 16.5 83t48.5 76q31 31 70 46.5t90 15.5q89 0 136.5 -53.5
t47.5 -147.5q0 -58 -10 -131.5t-29 -143.5t-45 -129t-59 -93q-35 -35 -74 -50.5t-90 -15.5q-89 0 -136 52.5t-47 137.5q0 16 2.5 34t8.5 47l8 42h-61l17 87h73zM257 528q0 -38 21.5 -56.5t80.5 -18.5h88l5 23q8 48 8 94q0 45 -22 69.5t-67 24.5q-47 0 -73.5 -26t-35.5 -67
q-3 -14 -4 -23.5t-1 -19.5z" />
    <glyph glyph-name="iota" unicode="&#x3b9;" horiz-adv-x="293" 
d="M230 0h-90q-48 0 -70.5 21t-22.5 58q0 8 1.5 19.5t3.5 19.5l80 402h104l-86 -433h97z" />
    <glyph glyph-name="kappa" unicode="&#x3ba;" horiz-adv-x="542" 
d="M242 232l-79 -70l-32 -162h-104l104 520h104l-48 -239h5l90 91l126 116q20 18 38.5 25t46.5 7h58l-18 -87h-58l-154 -139l149 -294h-119z" />
    <glyph glyph-name="lambda" unicode="&#x3bb;" horiz-adv-x="511" 
d="M241 653h-95l17 87h96q38 0 56.5 -18t23.5 -51l69 -584h63l-17 -87h-64q-38 0 -57 18t-23 51l-20 172l-7 158h-8l-73 -158l-133 -241h-111l299 520z" />
    <glyph glyph-name="uni03BC" unicode="&#x3bc;" horiz-adv-x="576" 
d="M-13 -200l144 720h104l-63 -316q-3 -14 -4.5 -28t-1.5 -25q0 -35 15 -54t50 -19q50 0 89 44q23 26 38.5 57.5t21.5 62.5l56 278h104l-87 -433h67l-17 -87h-79q-35 0 -55 18.5t-20 50.5q0 13 3 30l2 12h-5q-31 -67 -63 -95t-77 -28q-41 0 -61 23.5t-25 65.5h-5l-1 -147
l-26 -130h-104z" />
    <glyph glyph-name="nu" unicode="&#x3bd;" horiz-adv-x="518" 
d="M148 0l-50 433h-55l17 87h58q71 0 79 -67l17 -164l11 -192h5q72 111 122.5 214t81.5 209h108q-34 -113 -100 -242.5t-174 -277.5h-120z" />
    <glyph glyph-name="xi" unicode="&#x3be;" horiz-adv-x="434" 
d="M380 653q-54 0 -91.5 -28.5t-48.5 -84.5q-2 -11 -3 -20.5t-1 -20.5q0 -38 21.5 -56.5t62.5 -18.5h71l-18 -86h-82q-66 0 -101.5 -28t-45.5 -79q-2 -11 -2.5 -19t-0.5 -17q0 -34 21.5 -57.5t72.5 -40.5l53 -15q63 -21 63 -74q0 -14 -3.5 -28t-11.5 -31l-56 -120l-87 36
l57 122l-49 15q-86 28 -125 73.5t-39 114.5q0 36 12 68.5t35.5 59t58.5 43.5t82 21l1 5q-47 12 -70 41.5t-23 71.5q0 51 26.5 88.5t77.5 57.5l2 7h-122l17 87h381l-17 -87h-118z" />
    <glyph glyph-name="omicron" unicode="&#x3bf;" horiz-adv-x="548" 
d="M238 -12q-88 0 -142 55t-54 160q0 67 20 127t55.5 105t84.5 71t108 26q88 0 142 -55t54 -160q0 -68 -20 -127.5t-55.5 -104.5t-84.5 -71t-108 -26zM246 76q49 0 85.5 36t50.5 105l17 83q2 8 3 18t1 21q0 48 -25.5 76.5t-75.5 28.5q-49 0 -85.5 -36t-50.5 -105l-17 -83
q-2 -9 -3 -18.5t-1 -20.5q0 -48 25.5 -76.5t75.5 -28.5z" />
    <glyph glyph-name="pi" unicode="&#x3c0;" horiz-adv-x="619" 
d="M457 0q-48 0 -70.5 21t-22.5 58q0 8 1.5 19.5t3.5 19.5l63 315h-185l-87 -433h-104l87 433h-81l17 87h556l-17 -87h-82l-69 -346h82l-17 -87h-75z" />
    <glyph glyph-name="rho" unicode="&#x3c1;" horiz-adv-x="549" 
d="M63 282q24 121 87.5 185.5t161.5 64.5q93 0 143.5 -53t50.5 -156q0 -62 -16 -122t-47 -107t-76 -76.5t-103 -29.5q-51 0 -87.5 26t-44.5 73h-5l-57 -287h-104zM244 76q110 0 137 139l17 80q2 9 3 20.5t1 25.5q0 45 -25 74t-73 29t-83.5 -36t-49.5 -105l-23 -114
q-5 -23 -2 -43.5t15 -36t32.5 -24.5t50.5 -9z" />
    <glyph glyph-name="sigma1" unicode="&#x3c2;" horiz-adv-x="480" 
d="M268 -13l-54 17q-91 28 -132 77t-41 135q0 64 18.5 121.5t53 101t82.5 68.5t108 25q72 0 118.5 -35.5t59.5 -92.5l-87 -35q-11 36 -32.5 55.5t-62.5 19.5q-54 0 -90 -35t-50 -105q-5 -26 -9.5 -49.5t-4.5 -39.5q0 -47 23 -72.5t80 -43.5l58 -17q63 -21 63 -74
q0 -14 -3.5 -28t-11.5 -31l-56 -120l-87 36z" />
    <glyph glyph-name="sigma" unicode="&#x3c3;" horiz-adv-x="570" 
d="M456 433l-2 -7q26 -23 38.5 -54.5t12.5 -76.5q0 -59 -19.5 -114t-55 -98t-84.5 -69t-108 -26q-44 0 -80 14t-61.5 41.5t-40 67.5t-14.5 92q0 67 20.5 124.5t57 100.5t87.5 67.5t113 24.5h273l-17 -87h-120zM315 433q-60 0 -98 -35t-52 -102l-16 -76q-2 -9 -3 -18.5
t-1 -20.5q0 -48 25.5 -76.5t75.5 -28.5q49 0 85.5 36t50.5 105l15 74q5 25 5 48q0 33 -6 54t-22 40h-59z" />
    <glyph glyph-name="tau" unicode="&#x3c4;" horiz-adv-x="466" 
d="M230 0q-48 0 -70.5 21t-22.5 58q0 8 1.5 18.5t3.5 19.5l64 316h-152l18 87h417l-18 -87h-162l-69 -346h108l-17 -87h-101z" />
    <glyph glyph-name="upsilon" unicode="&#x3c5;" horiz-adv-x="558" 
d="M172 244q-5 -26 -8 -44.5t-3 -38.5q0 -85 87 -85q24 0 43.5 6.5t35.5 24.5t28.5 49.5t22.5 80.5l56 283h104l-58 -290q-26 -126 -84.5 -184t-155.5 -58q-42 0 -75.5 13t-57 36t-35.5 55t-12 70q0 39 10 92l53 266h104z" />
    <glyph glyph-name="phi" unicode="&#x3c6;" horiz-adv-x="721" 
d="M246 -12q-50 0 -88 14.5t-64 40t-39 60.5t-13 76q0 119 50.5 212.5t144.5 140.5l52 -72q-53 -27 -83 -71.5t-44 -113.5l-10 -48q-3 -17 -5 -30t-2 -24q0 -48 27 -73t92 -25l42 209q25 130 77.5 189t144.5 59q72 0 111.5 -43.5t39.5 -129.5q0 -85 -21 -153.5t-63 -117
t-103.5 -74.5t-142.5 -26l-38 -188h-103zM367 75q157 0 187 159l14 72q4 19 6 37.5t2 32.5q0 35 -16 52t-45 17q-36 0 -60.5 -28.5t-38.5 -94.5z" />
    <glyph glyph-name="chi" unicode="&#x3c7;" horiz-adv-x="505" 
d="M135 520q35 0 54.5 -15.5t25.5 -50.5l34 -205h5l167 271h115l-237 -356l56 -277h69l-17 -87h-69q-35 0 -55 15.5t-25 50.5l-38 224h-5l-178 -290h-115l249 376l-53 257h-69l17 87h69z" />
    <glyph glyph-name="psi" unicode="&#x3c8;" horiz-adv-x="717" 
d="M214 -200l38 188q-44 0 -79.5 13t-60.5 36.5t-38.5 55.5t-13.5 71q0 19 2 41t7 49l53 266h104l-55 -276q-6 -28 -8 -45t-2 -31q0 -48 26 -70.5t83 -22.5l127 635h103l-127 -635q37 0 63.5 7t45.5 26t32 50.5t23 81.5l56 280h104l-57 -285q-14 -68 -37.5 -115t-58.5 -76.5
t-82 -42.5t-107 -13l-38 -188h-103z" />
    <glyph glyph-name="omega" unicode="&#x3c9;" horiz-adv-x="732" 
d="M411 211q-4 -20 -5.5 -37.5t-1.5 -28.5q0 -69 61 -69q16 0 30.5 6.5t27 21.5t23 41t18.5 65l14 73q3 14 5 28.5t2 26.5q0 42 -13.5 72.5t-42.5 56.5l72 64q45 -36 66 -82.5t21 -111.5q0 -70 -15 -133t-43.5 -111t-69 -76.5t-92.5 -28.5q-123 0 -126 131h-4
q-22 -69 -60 -100t-90 -31q-67 0 -105.5 43.5t-38.5 129.5q0 63 13 120t37.5 105t61.5 85.5t85 60.5l52 -72q-53 -27 -83 -71.5t-44 -113.5l-12 -60q-4 -19 -5.5 -37.5t-1.5 -32.5q0 -69 59 -69q35 0 60 28.5t38 95.5l32 158h104z" />
    <glyph glyph-name="iotadieresis" unicode="&#x3ca;" horiz-adv-x="293" 
d="M230 0h-90q-48 0 -70.5 21t-22.5 58q0 8 1.5 19.5t3.5 19.5l80 402h104l-86 -433h97zM116 610q-26 0 -38.5 11t-12.5 29q0 8 4 31q5 23 21 38t48 15q51 0 51 -40q0 -5 -1 -11.5t-3 -18.5q-5 -24 -21 -39t-48 -15zM305 610q-26 0 -38.5 11t-12.5 29q0 8 4 31q5 23 21 38
t48 15q51 0 51 -40q0 -5 -1 -11.5t-3 -18.5q-5 -24 -21 -39t-48 -15z" />
    <glyph glyph-name="upsilondieresis" unicode="&#x3cb;" horiz-adv-x="558" 
d="M172 244q-5 -26 -8 -44.5t-3 -38.5q0 -85 87 -85q24 0 43.5 6.5t35.5 24.5t28.5 49.5t22.5 80.5l56 283h104l-58 -290q-26 -126 -84.5 -184t-155.5 -58q-42 0 -75.5 13t-57 36t-35.5 55t-12 70q0 39 10 92l53 266h104zM255 610q-26 0 -38.5 11t-12.5 29q0 8 4 31
q5 23 21 38t48 15q51 0 51 -40q0 -5 -1 -11.5t-3 -18.5q-5 -24 -21 -39t-48 -15zM444 610q-26 0 -38.5 11t-12.5 29q0 8 4 31q5 23 21 38t48 15q51 0 51 -40q0 -5 -1 -11.5t-3 -18.5q-5 -24 -21 -39t-48 -15z" />
    <glyph glyph-name="omicrontonos" unicode="&#x3cc;" horiz-adv-x="548" 
d="M238 -12q-88 0 -142 55t-54 160q0 67 20 127t55.5 105t84.5 71t108 26q88 0 142 -55t54 -160q0 -68 -20 -127.5t-55.5 -104.5t-84.5 -71t-108 -26zM246 76q49 0 85.5 36t50.5 105l17 83q2 8 3 18t1 21q0 48 -25.5 76.5t-75.5 28.5q-49 0 -85.5 -36t-50.5 -105l-17 -83
q-2 -9 -3 -18.5t-1 -20.5q0 -48 25.5 -76.5t75.5 -28.5zM355 582l-68 20l68 193l96 -24z" />
    <glyph glyph-name="upsilontonos" unicode="&#x3cd;" horiz-adv-x="558" 
d="M172 244q-5 -26 -8 -44.5t-3 -38.5q0 -85 87 -85q24 0 43.5 6.5t35.5 24.5t28.5 49.5t22.5 80.5l56 283h104l-58 -290q-26 -126 -84.5 -184t-155.5 -58q-42 0 -75.5 13t-57 36t-35.5 55t-12 70q0 39 10 92l53 266h104zM370 582l-68 20l68 193l96 -24z" />
    <glyph glyph-name="omegatonos" unicode="&#x3ce;" horiz-adv-x="732" 
d="M411 211q-4 -20 -5.5 -37.5t-1.5 -28.5q0 -69 61 -69q16 0 30.5 6.5t27 21.5t23 41t18.5 65l14 73q3 14 5 28.5t2 26.5q0 42 -13.5 72.5t-42.5 56.5l72 64q45 -36 66 -82.5t21 -111.5q0 -70 -15 -133t-43.5 -111t-69 -76.5t-92.5 -28.5q-123 0 -126 131h-4
q-22 -69 -60 -100t-90 -31q-67 0 -105.5 43.5t-38.5 129.5q0 63 13 120t37.5 105t61.5 85.5t85 60.5l52 -72q-53 -27 -83 -71.5t-44 -113.5l-12 -60q-4 -19 -5.5 -37.5t-1.5 -32.5q0 -69 59 -69q35 0 60 28.5t38 95.5l32 158h104zM462 582l-68 20l68 193l96 -24z" />
    <glyph glyph-name="uni0400" unicode="&#x400;" horiz-adv-x="571" 
d="M32 0l140 698h427l-20 -96h-318l-40 -202h284l-19 -96h-284l-42 -208h332l-19 -96h-441zM286 918l92 43l65 -183l-64 -29z" />
    <glyph glyph-name="uni0401" unicode="&#x401;" horiz-adv-x="571" 
d="M32 0l140 698h427l-20 -96h-318l-40 -202h284l-19 -96h-284l-42 -208h332l-19 -96h-441zM301 776q-26 0 -38.5 11t-12.5 29q0 10 4 33q5 23 21 38t48 15q51 0 51 -40q0 -5 -1 -12.5t-3 -19.5q-5 -24 -21 -39t-48 -15zM490 776q-26 0 -38.5 11t-12.5 29q0 10 4 33
q5 23 21 38t48 15q51 0 51 -40q0 -5 -1 -12.5t-3 -19.5q-5 -24 -21 -39t-48 -15z" />
    <glyph glyph-name="uni0402" unicode="&#x402;" horiz-adv-x="770" 
d="M412 -74h89q23 20 40 58.5t28 90.5l20 99q5 21 7.5 39.5t2.5 33.5q0 51 -28 75t-86 24q-81 0 -138 -23l-65 -323h-108l120 602h-200l19 96h509l-19 -96h-200l-37 -187h5q27 12 64 19.5t76 7.5q97 0 146.5 -46.5t49.5 -133.5q0 -36 -11 -91l-21 -104q-24 -118 -81.5 -179
t-154.5 -61h-47z" />
    <glyph glyph-name="uni0403" unicode="&#x403;" horiz-adv-x="490" 
d="M172 698h378l-19 -96h-270l-121 -602h-108zM380 749l-64 34l110 179l87 -46z" />
    <glyph glyph-name="uni0404" unicode="&#x404;" horiz-adv-x="630" 
d="M304 -12q-56 0 -102 18t-78.5 53.5t-50 88t-17.5 121.5q0 91 25.5 171.5t71.5 140.5t111 94.5t144 34.5q95 0 151.5 -39.5t84.5 -120.5l-95 -44q-8 25 -20 45t-29.5 33.5t-42 21t-58.5 7.5q-83 0 -134.5 -52t-71.5 -141l-4 -18h261l-18 -96h-262q-4 -18 -5 -32.5
t-1 -27.5q0 -75 36.5 -118t111.5 -43q36 0 63 8t48.5 23t38.5 36.5t33 49.5l90 -45q-50 -88 -116.5 -128.5t-164.5 -40.5z" />
    <glyph glyph-name="uni0405" unicode="&#x405;" horiz-adv-x="580" 
d="M251 -12q-81 0 -146.5 29t-100.5 96l83 63q29 -48 69.5 -69.5t95.5 -21.5q78 0 119 37t41 91q0 39 -24 61.5t-71 32.5l-58 11q-75 16 -117 59.5t-42 118.5q0 45 17.5 84t50 68t79.5 45.5t106 16.5q80 0 138 -27.5t93 -75.5l-78 -69q-27 37 -64 56t-94 19
q-64 0 -101.5 -28.5t-37.5 -79.5q0 -39 23 -60.5t70 -31.5l57 -11q77 -16 120.5 -60t43.5 -120q0 -46 -18 -88.5t-53 -74.5t-85.5 -51.5t-115.5 -19.5z" />
    <glyph glyph-name="uni0406" unicode="&#x406;" horiz-adv-x="398" 
d="M3 0l18 90h90l104 518h-90l18 90h288l-18 -90h-90l-104 -518h90l-18 -90h-288z" />
    <glyph glyph-name="uni0407" unicode="&#x407;" horiz-adv-x="398" 
d="M3 0l18 90h90l104 518h-90l18 90h288l-18 -90h-90l-104 -518h90l-18 -90h-288zM206 776q-26 0 -38.5 11t-12.5 29q0 10 4 33q5 23 21 38t48 15q51 0 51 -40q0 -5 -1 -12.5t-3 -19.5q-5 -24 -21 -39t-48 -15zM395 776q-26 0 -38.5 11t-12.5 29q0 10 4 33q5 23 21 38t48 15
q51 0 51 -40q0 -5 -1 -12.5t-3 -19.5q-5 -24 -21 -39t-48 -15z" />
    <glyph glyph-name="uni0408" unicode="&#x408;" horiz-adv-x="514" 
d="M518 698l-103 -512q-19 -94 -75.5 -146t-149.5 -52q-85 0 -133 48.5t-53 128.5l101 20q3 -45 23 -72.5t64 -27.5q46 0 75.5 27t41.5 87l81 407h-221l19 92h330z" />
    <glyph glyph-name="uni0409" unicode="&#x409;" horiz-adv-x="997" 
d="M-16 96h74q21 18 39.5 44t36.5 69t36 107t37 159l45 223h414l-53 -269h152q98 0 145 -48t47 -132q0 -56 -18 -101.5t-51 -78.5t-79 -51t-102 -18h-289l120 602h-201l-25 -130q-21 -102 -40 -172t-38 -117t-38 -76t-38 -49q-33 -33 -69 -47t-82 -14h-42zM722 96
q43 0 72.5 22t38.5 67q6 26 9 47t3 33q0 31 -18 49.5t-62 18.5h-172l-47 -237h176z" />
    <glyph glyph-name="uni040A" unicode="&#x40a;" horiz-adv-x="1005" 
d="M172 698h108l-59 -298h285l60 298h108l-53 -269h152q98 0 145 -48t47 -132q0 -56 -18 -101.5t-51 -78.5t-79 -51t-102 -18h-289l61 304h-285l-62 -304h-108zM730 96q42 0 72 22t39 67q5 26 8.5 47t3.5 33q0 31 -18.5 49.5t-62.5 18.5h-171l-47 -237h176z" />
    <glyph glyph-name="uni040B" unicode="&#x40b;" horiz-adv-x="781" 
d="M294 602h-200l19 96h509l-19 -96h-200l-37 -187h5q27 12 64 19.5t80 7.5q100 0 150.5 -46.5t50.5 -133.5q0 -42 -13 -104l-32 -158h-108l36 174q9 42 9 73q0 51 -28.5 75t-90.5 24q-45 0 -79.5 -6t-62.5 -17l-65 -323h-108z" />
    <glyph glyph-name="uni040C" unicode="&#x40c;" horiz-adv-x="646" 
d="M172 698h108l-59 -298h111l173 232q28 37 52.5 51.5t59.5 14.5h56l-19 -96h-55l-143 -192q-19 -26 -35.5 -36.5t-41.5 -15.5l-1 -5q18 -7 30 -19t23 -39l81 -199h58l-19 -96h-49q-37 0 -57 15t-37 57l-95 233h-111l-62 -305h-108zM431 749l-64 34l110 179l87 -46z" />
    <glyph glyph-name="uni040D" unicode="&#x40d;" horiz-adv-x="691" 
d="M172 698h105l-80 -399l-41 -142h3l92 129l346 412h97l-140 -698h-105l80 399l41 142h-3l-92 -129l-346 -412h-97zM337 918l92 43l65 -183l-64 -29z" />
    <glyph glyph-name="uni040E" unicode="&#x40e;" horiz-adv-x="577" 
d="M91 96h104l37 65l-128 537h110l63 -272l27 -145h6l71 144l153 273h114l-353 -615q-14 -24 -27.5 -40t-28.5 -25.5t-33 -13.5t-41 -4h-93zM381 755q-49 0 -81 21t-49 71l-15 46l87 34l19 -90q10 -3 23.5 -5t24.5 -2q13 0 24.5 2t19.5 5l50 90l82 -38l-27 -42
q-32 -48 -70 -70t-88 -22z" />
    <glyph glyph-name="uni040F" unicode="&#x40f;" horiz-adv-x="675" 
d="M235 0h-203l140 698h108l-121 -602h290l121 602h108l-140 -698h-203l-30 -150h-100z" />
    <glyph glyph-name="uni0410" unicode="&#x410;" horiz-adv-x="638" 
d="M455 0l-22 189h-250l-97 -189h-116l367 698h140l88 -698h-110zM391 598h-7l-156 -315h196z" />
    <glyph glyph-name="uni0411" unicode="&#x411;" horiz-adv-x="618" 
d="M172 698h428l-19 -96h-320l-36 -179h149q98 0 145 -48.5t47 -129.5q0 -53 -17.5 -98t-50 -77.5t-78.5 -51t-102 -18.5h-286zM333 96q42 0 71.5 21.5t37.5 64.5q6 26 9 46.5t3 31.5q0 29 -18 48t-62 19h-168l-46 -231h173z" />
    <glyph glyph-name="uni0412" unicode="&#x412;" horiz-adv-x="637" 
d="M172 698h274q79 0 124.5 -38t45.5 -108q0 -33 -9 -63t-26.5 -55t-43.5 -42.5t-60 -26.5l-1 -5q102 -26 102 -129q0 -49 -16.5 -91.5t-47 -73.5t-73.5 -48.5t-96 -17.5h-313zM344 95q45 0 74 22t39 69q5 26 7 38.5t2 19.5q0 31 -20.5 49t-61.5 18h-182l-43 -216h185z
M377 401q47 0 77 19.5t39 64.5q5 24 6.5 36t1.5 19q0 29 -18.5 46t-55.5 17h-166l-41 -202h157z" />
    <glyph glyph-name="uni0413" unicode="&#x413;" horiz-adv-x="490" 
d="M172 698h378l-19 -96h-270l-121 -602h-108z" />
    <glyph glyph-name="uni0414" unicode="&#x414;" horiz-adv-x="735" 
d="M-19 96h79q20 18 39.5 45t38.5 71t38 110.5t39 164.5l42 211h437l-120 -602h102l-50 -246h-100l30 150h-493l-31 -150h-100zM466 96l102 506h-226l-23 -118q-18 -94 -35.5 -159t-34 -108.5t-32.5 -70.5t-32 -45l-1 -5h282z" />
    <glyph glyph-name="uni0415" unicode="&#x415;" horiz-adv-x="571" 
d="M32 0l140 698h427l-20 -96h-318l-40 -202h284l-19 -96h-284l-42 -208h332l-19 -96h-441z" />
    <glyph glyph-name="uni0416" unicode="&#x416;" horiz-adv-x="955" 
d="M10 96h58l124 186q21 32 43.5 48.5t51.5 21.5l1 6q-17 6 -28.5 19.5t-20.5 43.5l-54 181h-58l20 96h39q39 0 61 -16.5t35 -58.5l67 -223h102l59 298h108l-59 -298h102l153 233q24 36 50.5 50.5t70.5 14.5h49l-20 -96h-55l-119 -182q-20 -32 -39.5 -44.5t-43.5 -17.5
l-1 -5q17 -7 29.5 -21.5t23.5 -46.5l60 -189h58l-19 -96h-47q-40 0 -60.5 16t-34.5 59l-74 230h-102l-61 -305h-108l61 305h-102l-157 -236q-26 -38 -53 -53.5t-69 -15.5h-60z" />
    <glyph glyph-name="uni0417" unicode="&#x417;" horiz-adv-x="586" 
d="M247 -12q-163 0 -242 123l84 65q29 -48 68.5 -69.5t90.5 -21.5q60 0 98.5 24t50.5 78q5 23 5 42q0 39 -27 59t-84 20h-97l20 96h88q66 0 100 23.5t43 66.5q5 22 5 42q0 35 -26.5 56t-80.5 21t-96.5 -20t-72.5 -55l-67 71q45 47 106 74t141 27q103 0 157 -43t54 -119
q0 -72 -39.5 -120t-112.5 -66l-1 -5q54 -13 78.5 -47t24.5 -83q0 -53 -19.5 -96.5t-55 -75.5t-85 -49.5t-108.5 -17.5z" />
    <glyph glyph-name="uni0418" unicode="&#x418;" horiz-adv-x="691" 
d="M172 698h105l-80 -399l-41 -142h3l92 129l346 412h97l-140 -698h-105l80 399l41 142h-3l-92 -129l-346 -412h-97z" />
    <glyph glyph-name="uni0419" unicode="&#x419;" horiz-adv-x="691" 
d="M172 698h105l-80 -399l-41 -142h3l92 129l346 412h97l-140 -698h-105l80 399l41 142h-3l-92 -129l-346 -412h-97zM446 755q-49 0 -81 21t-49 71l-15 46l87 34l19 -90q10 -3 23.5 -5t24.5 -2q13 0 24.5 2t19.5 5l50 90l82 -38l-27 -42q-32 -48 -70 -70t-88 -22z" />
    <glyph glyph-name="uni041A" unicode="&#x41a;" horiz-adv-x="646" 
d="M172 698h108l-59 -298h111l173 232q28 37 52.5 51.5t59.5 14.5h56l-19 -96h-55l-143 -192q-19 -26 -35.5 -36.5t-41.5 -15.5l-1 -5q18 -7 30 -19t23 -39l81 -199h58l-19 -96h-49q-37 0 -57 15t-37 57l-95 233h-111l-62 -305h-108z" />
    <glyph glyph-name="uni041B" unicode="&#x41b;" horiz-adv-x="687" 
d="M-16 96h74q21 18 39.5 44t36.5 69t36 107t37 159l45 223h438l-140 -698h-108l121 602h-226l-25 -130q-21 -102 -40 -172t-38 -117t-38 -76t-38 -49q-33 -33 -69 -47t-82 -14h-42z" />
    <glyph glyph-name="uni041C" unicode="&#x41c;" horiz-adv-x="792" 
d="M657 533h-5l-87 -125l-190 -264l-89 271l-38 118h-5l-106 -533h-105l140 698h125l111 -359h3l250 359h134l-140 -698h-105z" />
    <glyph glyph-name="uni041D" unicode="&#x41d;" horiz-adv-x="691" 
d="M508 304h-306l-62 -304h-108l140 698h108l-59 -298h306l59 298h108l-140 -698h-108z" />
    <glyph glyph-name="uni041E" unicode="&#x41e;" horiz-adv-x="687" 
d="M303 -12q-51 0 -96 17t-78.5 51.5t-53 86.5t-19.5 122q0 88 25 168.5t71.5 142t112.5 98t147 36.5q51 0 96.5 -17t79 -51.5t53 -86.5t19.5 -122q0 -88 -25.5 -168.5t-72 -142t-112.5 -98t-147 -36.5zM313 85q84 0 137 53.5t73 151.5l22 106q4 17 5 33t1 29q0 73 -38 114
t-109 41q-83 0 -137.5 -54t-74.5 -153l-21 -104q-4 -18 -5 -33.5t-1 -28.5q0 -73 38 -114t110 -41z" />
    <glyph glyph-name="uni041F" unicode="&#x41f;" horiz-adv-x="675" 
d="M172 698h506l-140 -698h-108l121 602h-290l-121 -602h-108z" />
    <glyph glyph-name="uni0420" unicode="&#x420;" horiz-adv-x="609" 
d="M32 0l140 698h255q98 0 145.5 -48t47.5 -128q0 -52 -18 -96.5t-51 -77t-79 -51t-102 -18.5h-174l-56 -279h-108zM216 375h169q43 0 71.5 22.5t39.5 67.5q6 27 9 42.5t3 25.5q0 30 -18.5 49.5t-63.5 19.5h-165z" />
    <glyph glyph-name="uni0421" unicode="&#x421;" horiz-adv-x="616" 
d="M297 -12q-53 0 -97 18t-76 53.5t-50 88t-18 121.5q0 91 25.5 171.5t71 140.5t109 94.5t139.5 34.5q179 0 229 -164l-97 -42q-15 51 -47.5 80t-93.5 29q-76 0 -128.5 -53t-70.5 -142l-23 -113q-4 -17 -5 -31.5t-1 -27.5q0 -75 36.5 -118t104.5 -43q33 0 59 8.5t47 24
t38 37.5t32 49l90 -43q-46 -89 -113.5 -131t-160.5 -42z" />
    <glyph glyph-name="uni0422" unicode="&#x422;" horiz-adv-x="561" 
d="M403 602l-121 -602h-108l120 602h-200l19 96h509l-19 -96h-200z" />
    <glyph glyph-name="uni0423" unicode="&#x423;" horiz-adv-x="577" 
d="M91 96h104l37 65l-128 537h110l63 -272l27 -145h6l71 144l153 273h114l-353 -615q-14 -24 -27.5 -40t-28.5 -25.5t-33 -13.5t-41 -4h-93z" />
    <glyph glyph-name="uni0424" unicode="&#x424;" horiz-adv-x="823" 
d="M317 55h-30q-59 0 -104 18.5t-75 50.5t-45.5 74t-15.5 90q0 70 23.5 134t69 113t111.5 77.5t151 28.5h32l18 90h108l-18 -90h30q59 0 104 -18.5t75 -50.5t45.5 -74t15.5 -90q0 -71 -23.5 -134.5t-69 -112.5t-111.5 -77.5t-151 -28.5h-32l-18 -90h-108zM337 144l81 408
h-34q-43 0 -79 -13.5t-63.5 -37t-45.5 -55t-25 -68.5l-11 -54q-3 -14 -4 -26t-1 -23q0 -27 9.5 -51t28 -41.5t47 -28t66.5 -10.5h31zM475 144q43 0 79 13.5t63.5 37t45.5 55t25 68.5l11 54q3 14 4 26t1 23q0 27 -9.5 51t-28 41.5t-47 28t-66.5 10.5h-31l-81 -408h34z" />
    <glyph glyph-name="uni0425" unicode="&#x425;" horiz-adv-x="615" 
d="M536 0h-116l-111 268h-6l-208 -268h-126l289 363l-144 335h115l109 -263h6l207 263h125l-290 -353z" />
    <glyph glyph-name="uni0426" unicode="&#x426;" horiz-adv-x="720" 
d="M541 0h-509l140 698h108l-121 -602h290l121 602h108l-121 -602h104l-50 -246h-100z" />
    <glyph glyph-name="uni0427" unicode="&#x427;" horiz-adv-x="638" 
d="M447 266h-5q-26 -12 -64.5 -19.5t-81.5 -7.5q-100 0 -150.5 46.5t-50.5 133.5q0 23 3 47.5t10 57.5l35 174h108l-38 -190q-5 -22 -7.5 -40.5t-2.5 -32.5q0 -51 28.5 -75t90.5 -24q45 0 80 5.5t63 16.5l68 340h108l-140 -698h-108z" />
    <glyph glyph-name="uni0428" unicode="&#x428;" horiz-adv-x="952" 
d="M172 698h108l-120 -602h229l120 602h108l-120 -602h229l121 602h108l-140 -698h-783z" />
    <glyph glyph-name="uni0429" unicode="&#x429;" horiz-adv-x="996" 
d="M817 0h-785l140 698h108l-120 -602h229l120 602h108l-120 -602h229l121 602h108l-121 -602h103l-50 -246h-100z" />
    <glyph glyph-name="uni042A" unicode="&#x42a;" horiz-adv-x="716" 
d="M252 602h-163l19 96h271l-53 -269h158q98 0 145 -48t47 -132q0 -56 -18 -101.5t-51 -78.5t-79 -51t-102 -18h-295zM441 96q42 0 72 22t39 67q6 26 9 47t3 33q0 31 -18.5 49.5t-62.5 18.5h-177l-47 -237h182z" />
    <glyph glyph-name="uni042B" unicode="&#x42b;" horiz-adv-x="875" 
d="M172 698h108l-53 -269h153q97 0 144.5 -48t47.5 -132q0 -56 -18 -101.5t-51 -78.5t-79.5 -51t-102.5 -18h-289zM336 96q43 0 72.5 22t39.5 67q5 26 8.5 47t3.5 33q0 31 -18.5 49.5t-62.5 18.5h-172l-47 -237h176zM770 698h108l-140 -698h-108z" />
    <glyph glyph-name="uni042C" unicode="&#x42c;" horiz-adv-x="617" 
d="M172 698h108l-53 -269h158q98 0 145 -48t47 -132q0 -56 -18 -101.5t-51 -78.5t-79 -51t-102 -18h-295zM342 96q42 0 72 22t39 67q5 26 8.5 47t3.5 33q0 31 -18.5 49.5t-62.5 18.5h-177l-47 -237h182z" />
    <glyph glyph-name="uni042D" unicode="&#x42d;" horiz-adv-x="630" 
d="M229 402h261q2 14 3.5 26.5t1.5 23.5q0 75 -37 118t-112 43q-32 0 -57.5 -7t-46.5 -21t-39 -35t-34 -48l-90 44q46 80 111.5 122t161.5 42q55 0 101.5 -17.5t79.5 -52t51.5 -87.5t18.5 -123q0 -94 -25.5 -174.5t-72 -140t-111 -93.5t-142.5 -34q-95 0 -152 40.5
t-87 127.5l94 45q20 -60 55.5 -88t98.5 -28q78 0 132.5 50.5t72.5 144.5l5 26h-261z" />
    <glyph glyph-name="uni042E" unicode="&#x42e;" horiz-adv-x="952" 
d="M578 -12q-51 0 -95 17t-75.5 51.5t-49.5 86.5t-18 122v19t1 20h-139l-62 -304h-108l140 698h108l-59 -298h135q16 67 47.5 124t74.5 98t96 64.5t114 23.5q51 0 94.5 -17t75 -51.5t49.5 -86.5t18 -122q0 -89 -25.5 -169.5t-71 -141.5t-109.5 -97.5t-141 -36.5zM586 85
q76 0 129.5 54.5t73.5 154.5l21 102q6 34 6 62q0 76 -35 115.5t-102 39.5q-76 0 -129.5 -54.5t-73.5 -154.5l-21 -102q-6 -35 -6 -62q0 -76 35 -115.5t102 -39.5z" />
    <glyph glyph-name="uni042F" unicode="&#x42f;" horiz-adv-x="639" 
d="M17 96h58l94 139q36 52 85 58l1 6q-72 8 -107 48.5t-35 106.5q0 53 18 97.5t51 77t79 51t102 18.5h279l-140 -698h-108l57 281h-126l-148 -215q-26 -38 -53 -52t-67 -14h-59zM348 602q-43 0 -73 -22t-39 -67q-5 -23 -8 -41t-3 -30q0 -30 18 -49t62 -19h164l46 228h-167z
" />
    <glyph glyph-name="uni0430" unicode="&#x430;" horiz-adv-x="586" 
d="M434 0q-35 0 -55.5 18t-20.5 50q0 17 3 29l4 19h-4q-32 -64 -70.5 -96t-98.5 -32q-72 0 -111 52t-39 139q0 68 17 132t49.5 113t78.5 78.5t104 29.5q51 0 88 -26.5t45 -72.5h5l17 87h104l-87 -433h67l-17 -87h-79zM232 77q32 0 56.5 14t44.5 36q43 46 57 116l21 105
q3 17 -2 34t-18 30.5t-33.5 22t-46.5 8.5q-58 0 -93 -35.5t-49 -104.5l-15 -73q-2 -12 -3.5 -27t-1.5 -27q0 -44 20.5 -71.5t62.5 -27.5z" />
    <glyph glyph-name="uni0431" unicode="&#x431;" horiz-adv-x="549" 
d="M239 -12q-88 0 -142 56t-54 159q0 39 10 99t30 123.5t49 122.5t68 98q38 38 87 59t125 29l151 16l-21 -104l-156 -16q-39 -4 -68.5 -17t-53 -38.5t-42.5 -65.5t-36 -100h5q27 54 63.5 79t93.5 25q33 0 62 -13t50.5 -37.5t34 -60t12.5 -79.5q0 -71 -19.5 -132t-55 -106
t-84.5 -71t-109 -26zM248 76q49 0 86.5 35.5t51.5 105.5l12 60q2 11 3.5 23.5t1.5 26.5q0 45 -24.5 72t-75.5 27t-88.5 -36t-51.5 -107l-11 -54q-6 -27 -6 -48q0 -49 26 -77t76 -28z" />
    <glyph glyph-name="uni0432" unicode="&#x432;" horiz-adv-x="543" 
d="M131 520h243q62 0 97 -30.5t35 -83.5q0 -52 -33 -87t-87 -45l-1 -4q46 -8 68 -34t22 -63q0 -35 -12.5 -66t-35.5 -55t-56 -38t-73 -14h-271zM281 82q36 0 58 16t29 45q2 10 3.5 20.5t1.5 16.5q0 25 -16.5 37.5t-45.5 12.5h-136l-30 -148h136zM316 303q31 0 54.5 15.5
t29.5 47.5q2 8 3 16.5t1 14.5q0 20 -16 30.5t-43 10.5h-128l-27 -135h126z" />
    <glyph glyph-name="uni0433" unicode="&#x433;" horiz-adv-x="423" 
d="M131 520h323l-17 -87h-219l-87 -433h-104z" />
    <glyph glyph-name="uni0434" unicode="&#x434;" horiz-adv-x="556" 
d="M235 -12q-42 0 -77.5 14t-61 41.5t-40 67.5t-14.5 92q0 65 18.5 122.5t50.5 101t75.5 68.5t93.5 25q49 0 80.5 -25t43.5 -65h5v29q0 58 -10 95t-32 59q-23 23 -52 33.5t-63 10.5q-49 0 -80 -7l19 96q27 6 69 6q63 0 106.5 -16.5t75.5 -47.5q36 -36 54 -93t18 -153
q0 -97 -17 -180t-52 -144t-87.5 -95.5t-122.5 -34.5zM242 76q52 0 86.5 37t51.5 121l9 44q4 17 6 30t2 24q0 45 -24.5 72.5t-72.5 27.5q-47 0 -84.5 -35.5t-51.5 -105.5l-15 -71q-2 -9 -3 -18.5t-1 -20.5q0 -48 25 -76.5t72 -28.5z" />
    <glyph glyph-name="uni0435" unicode="&#x435;" horiz-adv-x="512" 
d="M248 -12q-101 0 -153.5 57.5t-52.5 162.5q0 64 19.5 122.5t55.5 103.5t87 71.5t114 26.5q31 0 62.5 -8t56.5 -25t40.5 -44t15.5 -65q0 -83 -83.5 -127t-261.5 -48q-3 -20 -3 -33q0 -48 26.5 -77t83.5 -29q43 0 78 19t67 59l66 -55q-49 -61 -103 -86t-115 -25zM310 449
q-54 0 -93.5 -36.5t-51.5 -98.5l-5 -26q71 3 116 10t70.5 19t34.5 29t9 39q0 19 -7 31.5t-18.5 20t-25.5 10t-29 2.5z" />
    <glyph glyph-name="uni0436" unicode="&#x436;" horiz-adv-x="789" 
d="M7 87h91q14 17 29.5 53.5t27.5 100.5q16 83 16 127t-10 65h-74l18 87h40q58 0 87.5 -34t29.5 -118q0 -12 -1.5 -28t-3.5 -32h97l42 212h100l-42 -212h94q14 58 31.5 98.5t40 66t50.5 36.5t63 11h56l-18 -87h-80q-14 -17 -29.5 -53.5t-28.5 -100.5q-8 -43 -11.5 -75
t-3.5 -52q0 -43 9 -65h85l-18 -87h-50q-59 0 -88 34t-29 118q0 14 1.5 36t4.5 38h-96l-45 -226h-100l45 226h-94q-14 -63 -31.5 -106t-40.5 -70t-51.5 -38.5t-63.5 -11.5h-66z" />
    <glyph glyph-name="uni0437" unicode="&#x437;" horiz-adv-x="489" 
d="M192 -12q-73 0 -120.5 24.5t-75.5 70.5l70 59q20 -33 51 -50t76 -17q55 0 85.5 19t36.5 51q2 8 3 17t1 15q0 23 -18.5 37t-59.5 14h-98l16 79h97q33 0 59.5 15t31.5 44q3 16 3 26q0 24 -22 38.5t-64 14.5q-45 0 -78 -15t-64 -48l-60 61q39 44 89.5 66.5t120.5 22.5
q91 0 135.5 -36.5t44.5 -92.5q0 -53 -32.5 -87t-89.5 -43l-1 -4q44 -6 68 -31t24 -67q0 -41 -17 -74.5t-48 -57.5t-73 -37.5t-91 -13.5z" />
    <glyph glyph-name="uni0438" unicode="&#x438;" horiz-adv-x="570" 
d="M229 520l-63 -316q-3 -14 -4.5 -28t-1.5 -25q0 -35 15 -54t50 -19q50 0 89 44q23 26 38.5 57.5t21.5 62.5l56 278h104l-87 -433h67l-17 -87h-80q-35 0 -54.5 18.5t-19.5 50.5q0 13 3 30l2 12h-5q-29 -60 -67 -91.5t-94 -31.5q-64 0 -96.5 37t-32.5 103q0 17 2 34t6 37
l64 321h104z" />
    <glyph glyph-name="uni0439" unicode="&#x439;" horiz-adv-x="570" 
d="M229 520l-63 -316q-3 -14 -4.5 -28t-1.5 -25q0 -35 15 -54t50 -19q50 0 89 44q23 26 38.5 57.5t21.5 62.5l56 278h104l-87 -433h67l-17 -87h-80q-35 0 -54.5 18.5t-19.5 50.5q0 13 3 30l2 12h-5q-29 -60 -67 -91.5t-94 -31.5q-64 0 -96.5 37t-32.5 103q0 17 2 34t6 37
l64 321h104zM344 589q-49 0 -81 21t-49 71l-15 46l87 34l19 -90q10 -3 23.5 -5t24.5 -2q13 0 24.5 2t19.5 5l50 90l82 -38l-27 -42q-32 -48 -70 -70t-88 -22z" />
    <glyph glyph-name="uni043A" unicode="&#x43a;" horiz-adv-x="549" 
d="M131 520h104l-42 -211h84l123 160q22 29 43.5 40t56.5 11h53l-18 -87h-53l-95 -123q-16 -20 -29.5 -28.5t-32.5 -11.5l-1 -5q17 -5 28.5 -16t21.5 -37l50 -125h53l-17 -87h-47q-36 0 -57.5 18.5t-36.5 56.5l-59 149h-84l-45 -224h-104z" />
    <glyph glyph-name="uni043B" unicode="&#x43b;" horiz-adv-x="560" 
d="M-25 87h65q14 18 27.5 42t26.5 58t25.5 79t24.5 104l30 150h360l-104 -520h-104l87 433h-158l-12 -59q-15 -77 -30.5 -132.5t-30.5 -94t-30.5 -63t-30.5 -39.5q-27 -27 -58 -37.5t-69 -10.5h-37z" />
    <glyph glyph-name="uni043C" unicode="&#x43c;" horiz-adv-x="689" 
d="M131 520h120l92 -252h2l195 252h123l-104 -520h-100l78 388h-5l-47 -64l-172 -222l-80 221l-23 65h-5l-78 -388h-100z" />
    <glyph glyph-name="uni043D" unicode="&#x43d;" horiz-adv-x="570" 
d="M131 520h104l-42 -210h205l42 210h104l-104 -520h-104l44 223h-205l-44 -223h-104z" />
    <glyph glyph-name="uni043E" unicode="&#x43e;" horiz-adv-x="548" 
d="M238 -12q-88 0 -142 55t-54 160q0 67 20 127t55.5 105t84.5 71t108 26q88 0 142 -55t54 -160q0 -68 -20 -127.5t-55.5 -104.5t-84.5 -71t-108 -26zM246 76q49 0 85.5 36t50.5 105l17 83q2 8 3 18t1 21q0 48 -25.5 76.5t-75.5 28.5q-49 0 -85.5 -36t-50.5 -105l-17 -83
q-2 -9 -3 -18.5t-1 -20.5q0 -48 25.5 -76.5t75.5 -28.5z" />
    <glyph glyph-name="uni043F" unicode="&#x43f;" horiz-adv-x="573" 
d="M27 0l104 520h104l-22 -111h5q29 60 68 91.5t97 31.5q65 0 97.5 -37t32.5 -103q0 -17 -2 -33.5t-6 -36.5l-47 -235h63l-17 -87h-79q-33 0 -52.5 17t-19.5 49v10.5t2 13.5l45 225q6 30 6 55q0 35 -16 53.5t-52 18.5q-52 0 -91 -44q-22 -24 -38 -55.5t-22 -62.5l-56 -280
h-104z" />
    <glyph glyph-name="uni0440" unicode="&#x440;" horiz-adv-x="577" 
d="M131 520h104l-23 -116h4q32 64 70.5 96t98.5 32q72 0 111 -52t39 -139q0 -68 -17 -132t-49.5 -113t-78.5 -78.5t-104 -29.5q-51 0 -88 26t-45 73h-5l-57 -287h-104zM267 77q57 0 92 35.5t49 104.5l15 73q2 12 3.5 26.5t1.5 27.5q0 44 -21 71.5t-64 27.5q-31 0 -55.5 -14
t-43.5 -36q-21 -24 -35.5 -52t-21.5 -63l-19 -95q-9 -45 16 -75.5t83 -30.5z" />
    <glyph glyph-name="uni0441" unicode="&#x441;" horiz-adv-x="491" 
d="M237 -12q-87 0 -141 55.5t-54 162.5q0 68 19 127.5t54 103.5t83.5 69.5t107.5 25.5q72 0 118.5 -35t59.5 -92l-87 -35q-11 35 -32.5 54.5t-63.5 19.5q-54 0 -88 -34t-46 -97l-17 -86q-5 -25 -5 -44q0 -48 25 -77.5t77 -29.5q38 0 65.5 22t54.5 71l80 -38
q-33 -70 -86 -106.5t-124 -36.5z" />
    <glyph glyph-name="uni0442" unicode="&#x442;" horiz-adv-x="460" 
d="M213 433h-159l18 87h422l-18 -87h-159l-87 -433h-104z" />
    <glyph glyph-name="uni0443" unicode="&#x443;" horiz-adv-x="495" 
d="M425 520h111l-338 -623q-14 -26 -27.5 -44t-30 -30t-37.5 -17.5t-48 -5.5h-79l17 86h95l49 92l-79 542h102l31 -231l19 -191h5l91 191z" />
    <glyph glyph-name="uni0444" unicode="&#x444;" horiz-adv-x="780" 
d="M302 80h-5q-27 -49 -57 -70.5t-72 -21.5q-59 0 -91 41t-32 117q0 71 15.5 140t44.5 124t70.5 88.5t93.5 33.5q41 0 66.5 -23t33.5 -69h5l54 270h104l-54 -270h5q27 49 57 70.5t72 21.5q58 0 90.5 -41t32.5 -117q0 -71 -15.5 -140t-44.5 -124t-70.5 -88.5t-93.5 -33.5
q-41 0 -67 23t-34 69h-4l-56 -280h-104zM209 71q20 0 35.5 7.5t31.5 22.5q20 20 31.5 42.5t17.5 53.5l29 145q10 47 -6 77t-53 30q-91 0 -121 -149l-14 -68q-6 -28 -8.5 -50t-2.5 -42q0 -69 60 -69zM485 71q91 0 121 149l14 68q6 28 8.5 50t2.5 42q0 69 -60 69
q-37 0 -67 -30q-20 -20 -31.5 -42.5t-17.5 -53.5l-30 -145q-9 -47 7 -77t53 -30z" />
    <glyph glyph-name="uni0445" unicode="&#x445;" horiz-adv-x="504" 
d="M-38 0l232 270l-120 250h112l80 -188h5l152 188h116l-226 -263l127 -257h-113l-86 194h-5l-158 -194h-116z" />
    <glyph glyph-name="uni0446" unicode="&#x446;" horiz-adv-x="594" 
d="M424 0h-7q-35 0 -54.5 18.5t-19.5 50.5q0 13 3 30l2 12h-5q-29 -60 -67 -91.5t-94 -31.5q-64 0 -96.5 37t-32.5 103q0 17 2 34t6 37l64 321h104l-63 -316q-3 -14 -4.5 -28t-1.5 -25q0 -35 15 -54t50 -19q50 0 89 44q23 26 38.5 57.5t21.5 62.5l56 278h104l-87 -433h88
l-46 -227h-93z" />
    <glyph glyph-name="uni0447" unicode="&#x447;" horiz-adv-x="537" 
d="M357 268h-6q-27 -51 -64 -76t-91 -25q-32 0 -57 9.5t-42 26t-26 38.5t-9 47q0 17 2 35t5 35l33 162h104l-32 -159q-2 -12 -3.5 -24t-1.5 -23q0 -27 17.5 -42t51.5 -15q30 0 54 9.5t41.5 25.5t28.5 37.5t16 44.5l29 146h104l-104 -520h-104z" />
    <glyph glyph-name="uni0448" unicode="&#x448;" horiz-adv-x="841" 
d="M174 -12q-61 0 -91 36.5t-30 99.5q0 20 2.5 39.5t6.5 39.5l63 317h104l-63 -316q-3 -15 -5 -29t-2 -28q0 -32 14 -50.5t47 -18.5q23 0 42 11.5t38 32.5q21 23 36.5 55.5t20.5 62.5l56 280h104l-63 -316q-3 -14 -5 -29t-2 -29q0 -32 12.5 -50t43.5 -18q23 0 43.5 12
t37.5 31q23 25 39 57.5t22 61.5l56 280h104l-87 -433h67l-17 -87h-80q-35 0 -55 18.5t-20 50.5q0 14 3 29l3 13h-6q-28 -60 -64.5 -91.5t-93.5 -31.5q-54 0 -82 32.5t-31 90.5h-6q-27 -59 -66 -91t-96 -32z" />
    <glyph glyph-name="uni0449" unicode="&#x449;" horiz-adv-x="865" 
d="M695 0h-7q-36 0 -55.5 18t-19.5 50q0 15 3 30l3 13h-6q-28 -60 -64.5 -91.5t-93.5 -31.5q-54 0 -82 32.5t-31 90.5h-6q-27 -59 -66 -91t-96 -32q-61 0 -91 36.5t-30 99.5q0 20 2.5 39.5t6.5 39.5l63 317h104l-63 -316q-3 -15 -5 -29t-2 -28q0 -32 14 -50.5t47 -18.5
q23 0 42 11.5t38 32.5q21 23 36.5 55.5t20.5 62.5l56 280h104l-63 -316q-3 -14 -5 -29t-2 -29q0 -32 12.5 -50t43.5 -18q23 0 43.5 12t37.5 31q23 25 39 57.5t22 61.5l56 280h104l-87 -433h88l-46 -227h-93z" />
    <glyph glyph-name="uni044A" unicode="&#x44a;" horiz-adv-x="589" 
d="M182 433h-127l17 87h231l-35 -174h125q74 0 110 -36.5t36 -101.5q0 -49 -15.5 -87.5t-43.5 -65.5t-65.5 -41t-80.5 -14h-239zM327 83q41 0 68 21t36 60q3 11 3.5 20.5t0.5 20.5q0 27 -17.5 43t-54.5 16h-112l-36 -181h112z" />
    <glyph glyph-name="uni044B" unicode="&#x44b;" horiz-adv-x="732" 
d="M131 520h104l-35 -174h116q74 0 110 -36.5t36 -101.5q0 -49 -15.5 -87.5t-43.5 -65.5t-65.5 -41t-80.5 -14h-230zM250 83q41 0 67.5 21t35.5 60q3 11 4 20.5t1 20.5q0 27 -17.5 43t-54.5 16h-103l-36 -181h103zM601 520h104l-104 -520h-104z" />
    <glyph glyph-name="uni044C" unicode="&#x44c;" horiz-adv-x="521" 
d="M131 520h104l-35 -174h126q73 0 109 -36.5t36 -101.5q0 -49 -15.5 -87.5t-43.5 -65.5t-65.5 -41t-80.5 -14h-239zM259 83q41 0 68 21t36 60q4 20 4 41q0 27 -17 43t-55 16h-112l-36 -181h112z" />
    <glyph glyph-name="uni044D" unicode="&#x44d;" horiz-adv-x="503" 
d="M166 303h190q3 18 3 36q0 47 -26.5 76t-84.5 29q-42 0 -72 -18.5t-56 -56.5l-72 51q38 54 87 83t124 29q93 0 148 -55.5t55 -162.5q0 -68 -19.5 -127.5t-54.5 -103.5t-85.5 -69.5t-111.5 -25.5q-76 0 -124 35t-65 95l84 39q14 -42 41 -61.5t69 -19.5q60 0 93.5 33
t47.5 96l4 19h-191z" />
    <glyph glyph-name="uni044E" unicode="&#x44e;" horiz-adv-x="775" 
d="M469 -12q-88 0 -139 54.5t-51 160.5v20h-104l-44 -223h-104l104 520h104l-42 -210h98q12 48 35.5 89t55.5 70.5t72.5 46t87.5 16.5q88 0 139 -54.5t51 -160.5q0 -68 -19 -127.5t-53.5 -104.5t-83 -71t-107.5 -26zM477 76q49 0 83.5 36t48.5 105l16 83q4 20 4 43
q0 45 -23.5 73t-71.5 28q-49 0 -83.5 -36t-48.5 -105l-16 -83q-4 -20 -4 -43q0 -45 23.5 -73t71.5 -28z" />
    <glyph glyph-name="uni044F" unicode="&#x44f;" horiz-adv-x="541" 
d="M11 87h55l51 76q26 38 65 41l1 5q-52 8 -81.5 40t-29.5 86q0 37 14.5 71t40.5 59t63.5 40t84.5 15h239l-104 -520h-104l39 193h-93l-85 -127q-24 -36 -50 -51t-61 -15h-62zM282 437q-45 0 -70.5 -20.5t-32.5 -51.5q-3 -14 -3 -28q0 -62 73 -62h112l32 162h-111z" />
    <glyph glyph-name="uni0450" unicode="&#x450;" horiz-adv-x="512" 
d="M248 -12q-101 0 -153.5 57.5t-52.5 162.5q0 64 19.5 122.5t55.5 103.5t87 71.5t114 26.5q31 0 62.5 -8t56.5 -25t40.5 -44t15.5 -65q0 -83 -83.5 -127t-261.5 -48q-3 -20 -3 -33q0 -48 26.5 -77t83.5 -29q43 0 78 19t67 59l66 -55q-49 -61 -103 -86t-115 -25zM310 449
q-54 0 -93.5 -36.5t-51.5 -98.5l-5 -26q71 3 116 10t70.5 19t34.5 29t9 39q0 19 -7 31.5t-18.5 20t-25.5 10t-29 2.5zM222 750l93 44l64 -183l-64 -29z" />
    <glyph glyph-name="uni0451" unicode="&#x451;" horiz-adv-x="512" 
d="M248 -12q-101 0 -153.5 57.5t-52.5 162.5q0 64 19.5 122.5t55.5 103.5t87 71.5t114 26.5q31 0 62.5 -8t56.5 -25t40.5 -44t15.5 -65q0 -83 -83.5 -127t-261.5 -48q-3 -20 -3 -33q0 -48 26.5 -77t83.5 -29q43 0 78 19t67 59l66 -55q-49 -61 -103 -86t-115 -25zM310 449
q-54 0 -93.5 -36.5t-51.5 -98.5l-5 -26q71 3 116 10t70.5 19t34.5 29t9 39q0 19 -7 31.5t-18.5 20t-25.5 10t-29 2.5zM243 610q-26 0 -38.5 11t-12.5 29q0 8 4 31q5 23 21 38t48 15q51 0 51 -40q0 -5 -1 -11.5t-3 -18.5q-5 -24 -21 -39t-48 -15zM432 610q-26 0 -38.5 11
t-12.5 29q0 8 4 31q5 23 21 38t48 15q51 0 51 -40q0 -5 -1 -11.5t-3 -18.5q-5 -24 -21 -39t-48 -15z" />
    <glyph glyph-name="uni0452" unicode="&#x452;" horiz-adv-x="570" 
d="M234 -114h80l86 429q6 30 6 55q0 35 -16 53.5t-52 18.5q-27 0 -49 -12t-42 -32q-23 -24 -38.5 -55.5t-21.5 -62.5l-56 -280h-104l120 600h-65l15 76h65l13 64h104l-13 -64h143l-15 -76h-143l-38 -191h5q29 60 67.5 91.5t97.5 31.5q64 0 97 -37t33 -103q0 -17 -2 -33.5
t-6 -36.5l-81 -404q-12 -60 -42.5 -89t-92.5 -29h-72z" />
    <glyph glyph-name="uni0453" unicode="&#x453;" horiz-adv-x="423" 
d="M131 520h323l-17 -87h-219l-87 -433h-104zM309 582l-63 34l110 179l87 -46z" />
    <glyph glyph-name="uni0454" unicode="&#x454;" horiz-adv-x="503" 
d="M243 -12q-94 0 -147.5 55t-53.5 163q0 68 18.5 127.5t53.5 103.5t85 69.5t113 25.5q78 0 123 -34t61 -88l-86 -40q-12 37 -34.5 55.5t-68.5 18.5q-61 0 -94 -34t-46 -97l-2 -10h188l-16 -79h-187q-5 -23 -5 -41q0 -48 24.5 -77.5t83.5 -29.5q40 0 68 19t57 69l80 -42
q-37 -65 -88 -99.5t-127 -34.5z" />
    <glyph glyph-name="uni0455" unicode="&#x455;" horiz-adv-x="482" 
d="M210 -12q-62 0 -115.5 24t-85.5 69l68 62q25 -33 57.5 -51t77.5 -18q50 0 77.5 22t27.5 59q0 21 -13 36.5t-51 22.5l-45 8q-63 11 -101 42t-38 94q0 34 12.5 65.5t37.5 55.5t63 38.5t89 14.5q116 0 180 -79l-68 -62q-18 24 -47 39.5t-71 15.5q-48 0 -71.5 -21t-23.5 -54
q0 -22 13.5 -37t50.5 -22l45 -7q65 -11 102 -43t37 -95q0 -39 -14.5 -71.5t-41.5 -56.5t-65.5 -37.5t-86.5 -13.5z" />
    <glyph glyph-name="uni0456" unicode="&#x456;" horiz-adv-x="271" 
d="M204 613q-29 0 -42 12t-13 30q0 10 5 35q5 23 21 38.5t51 15.5q29 0 42 -12t13 -30q0 -10 -5 -35q-5 -23 -21 -38.5t-51 -15.5zM121 0q-38 0 -58 19.5t-20 50.5q0 10 3 25l85 425h104l-87 -433h67l-17 -87h-77z" />
    <glyph glyph-name="uni0457" unicode="&#x457;" horiz-adv-x="271" 
d="M121 0q-38 0 -58 19.5t-20 51.5q0 5 0.5 11t1.5 11l86 427h104l-87 -433h67l-17 -87h-77zM108 610q-26 0 -38.5 11t-12.5 29q0 8 4 31q5 23 21 38t48 15q51 0 51 -40q0 -5 -1 -11.5t-3 -18.5q-5 -24 -21 -39t-48 -15zM297 610q-26 0 -38.5 11t-12.5 29q0 8 4 31
q5 23 21 38t48 15q51 0 51 -40q0 -5 -1 -11.5t-3 -18.5q-5 -24 -21 -39t-48 -15z" />
    <glyph glyph-name="uni0458" unicode="&#x458;" horiz-adv-x="263" 
d="M133 520h104l-121 -603q-12 -59 -42.5 -88t-92.5 -29h-72l17 86h80zM206 613q-29 0 -42 12t-13 30q0 10 5 35q5 23 21 38.5t51 15.5q29 0 42 -12t13 -30q0 -10 -5 -35q-5 -23 -21 -38.5t-51 -15.5z" />
    <glyph glyph-name="uni0459" unicode="&#x459;" horiz-adv-x="797" 
d="M-25 87h65q14 18 27.5 42t26.5 58t25.5 79t24.5 104l30 150h344l-35 -174h117q75 0 111 -36.5t36 -101.5q0 -49 -15.5 -87.5t-43.5 -65.5t-65.5 -41t-80.5 -14h-232l87 433h-142l-12 -59q-15 -77 -30.5 -132.5t-30.5 -94t-30.5 -63t-30.5 -39.5q-27 -27 -58 -37.5
t-69 -10.5h-37zM535 83q41 0 68 21t36 60q3 11 3.5 20.5t0.5 20.5q0 27 -17.5 43t-55.5 16h-104l-36 -181h105z" />
    <glyph glyph-name="uni045A" unicode="&#x45a;" horiz-adv-x="807" 
d="M131 520h104l-42 -210h190l42 210h104l-35 -174h116q74 0 110.5 -36.5t36.5 -101.5q0 -49 -16 -87.5t-43.5 -65.5t-65.5 -41t-81 -14h-230l44 223h-190l-44 -223h-104zM545 83q41 0 68 21t36 60q3 11 3.5 20.5t0.5 20.5q0 27 -17.5 43t-54.5 16h-104l-36 -181h104z" />
    <glyph glyph-name="uni045B" unicode="&#x45b;" horiz-adv-x="573" 
d="M147 600h-65l15 76h65l13 64h104l-13 -64h143l-15 -76h-143l-38 -191h5q29 60 68 91.5t97 31.5q65 0 97.5 -37t32.5 -103q0 -17 -2 -33.5t-6 -36.5l-47 -235h63l-17 -87h-79q-33 0 -52.5 17t-19.5 49q0 6 0.5 12.5t1.5 11.5l45 225q6 30 6 55q0 35 -16 53.5t-52 18.5
q-27 0 -49 -12t-42 -32q-23 -23 -38.5 -55t-21.5 -63l-56 -280h-104z" />
    <glyph glyph-name="uni045C" unicode="&#x45c;" horiz-adv-x="549" 
d="M131 520h104l-42 -211h84l123 160q22 29 43.5 40t56.5 11h53l-18 -87h-53l-95 -123q-16 -20 -29.5 -28.5t-32.5 -11.5l-1 -5q17 -5 28.5 -16t21.5 -37l50 -125h53l-17 -87h-47q-36 0 -57.5 18.5t-36.5 56.5l-59 149h-84l-45 -224h-104zM357 582l-63 34l110 179l87 -46z
" />
    <glyph glyph-name="uni045D" unicode="&#x45d;" horiz-adv-x="570" 
d="M229 520l-63 -316q-3 -14 -4.5 -28t-1.5 -25q0 -35 15 -54t50 -19q50 0 89 44q23 26 38.5 57.5t21.5 62.5l56 278h104l-87 -433h67l-17 -87h-80q-35 0 -54.5 18.5t-19.5 50.5q0 13 3 30l2 12h-5q-29 -60 -67 -91.5t-94 -31.5q-64 0 -96.5 37t-32.5 103q0 17 2 34t6 37
l64 321h104zM231 750l93 44l64 -183l-64 -29z" />
    <glyph glyph-name="uni045E" unicode="&#x45e;" horiz-adv-x="495" 
d="M425 520h111l-338 -623q-14 -26 -27.5 -44t-30 -30t-37.5 -17.5t-48 -5.5h-79l17 86h95l49 92l-79 542h102l31 -231l19 -191h5l91 191zM305 589q-49 0 -81 21t-49 71l-15 46l87 34l19 -90q10 -3 23.5 -5t24.5 -2q13 0 24.5 2t19.5 5l50 90l82 -38l-27 -42
q-32 -48 -70 -70t-88 -22z" />
    <glyph glyph-name="uni045F" unicode="&#x45f;" horiz-adv-x="570" 
d="M182 -12q-64 0 -96.5 37t-32.5 103q0 17 2 34t6 37l64 321h104l-63 -316q-3 -14 -4.5 -28t-1.5 -25q0 -35 15 -54t50 -19q50 0 89 44q23 26 38.5 57.5t21.5 62.5l56 278h104l-87 -433h67l-17 -87h-80q-35 0 -54.5 18.5t-19.5 50.5q0 13 3 30l2 12h-5q-29 -60 -67 -91.5
t-94 -31.5zM168 -50h93l-30 -150h-93z" />
    <glyph glyph-name="uni0472" unicode="&#x472;" horiz-adv-x="685" 
d="M302 -12q-51 0 -96 17t-78.5 51.5t-52.5 86.5t-19 122q0 88 25.5 168.5t72 142t112 98t146.5 36.5q51 0 96 -17t78.5 -51.5t52.5 -86.5t19 -122q0 -88 -25.5 -168.5t-72 -142t-112 -98t-146.5 -36.5zM310 81q85 0 141 56t76 157l2 10h-362q-4 -20 -5.5 -36t-1.5 -30
q0 -74 38.5 -115.5t111.5 -41.5zM186 400h363q3 17 4 32t1 28q0 74 -38.5 115.5t-111.5 41.5q-85 0 -141 -56t-76 -156z" />
    <glyph glyph-name="uni0473" unicode="&#x473;" horiz-adv-x="548" 
d="M238 -12q-44 0 -80 14t-61.5 41.5t-40 67.5t-14.5 92q0 67 20 127t55.5 105t84.5 71t108 26q88 0 142 -55t54 -160q0 -68 -20 -127.5t-55.5 -104.5t-84.5 -71t-108 -26zM246 72q51 0 89 36t52 107l2 10h-243l-1 -6q-2 -9 -3 -19.5t-1 -21.5q0 -48 26.5 -77t78.5 -29z
M404 301q2 9 3 19.5t1 21.5q0 48 -26.5 77t-78.5 29q-51 0 -89 -37t-53 -110h243z" />
    <glyph glyph-name="uni0490" unicode="&#x490;" horiz-adv-x="491" 
d="M172 698h277l31 150h100l-49 -246h-270l-121 -602h-108z" />
    <glyph glyph-name="uni0491" unicode="&#x491;" horiz-adv-x="423" 
d="M131 520h230l28 140h93l-45 -227h-219l-87 -433h-104z" />
    <glyph glyph-name="uni0492" unicode="&#x492;" horiz-adv-x="519" 
d="M123 314h-91l17 83h91l60 301h378l-19 -96h-270l-41 -205h180l-16 -83h-181l-63 -314h-108z" />
    <glyph glyph-name="uni0493" unicode="&#x493;" horiz-adv-x="439" 
d="M86 220h-67l15 76h67l45 224h323l-17 -87h-219l-28 -137h143l-15 -76h-143l-44 -220h-104z" />
    <glyph glyph-name="uni0494" unicode="&#x494;" horiz-adv-x="628" 
d="M253 -74h90q29 22 51 60t33 92l11 54q5 21 7.5 39.5t2.5 32.5q0 51 -27.5 75t-85.5 24q-85 0 -138 -22l-57 -281h-108l140 698h378l-19 -96h-270l-46 -229h5q26 12 63.5 19t77.5 7q97 0 146 -46t49 -133q0 -18 -2.5 -40.5t-7.5 -49.5l-11 -54q-13 -64 -37.5 -111
t-57.5 -77.5t-73.5 -45.5t-85.5 -15h-48z" />
    <glyph glyph-name="uni0495" unicode="&#x495;" horiz-adv-x="536" 
d="M196 -112h84q35 32 53 117l22 106q2 13 3 24.5t1 21.5q0 27 -17.5 42t-51.5 15q-29 0 -52 -8.5t-41 -23t-29.5 -34t-15.5 -41.5l-21 -107h-104l103 520h324l-17 -87h-219l-45 -220h6q29 45 64.5 68.5t89.5 23.5q32 0 56.5 -9.5t41.5 -26t26 -38.5t9 -47q0 -17 -1.5 -35
t-5.5 -35l-24 -119q-22 -104 -73 -149.5t-128 -45.5h-56z" />
    <glyph glyph-name="uni0496" unicode="&#x496;" horiz-adv-x="969" 
d="M801 0q-35 2 -53.5 18t-31.5 57l-74 230h-102l-61 -305h-108l61 305h-102l-157 -236q-26 -38 -53 -53.5t-69 -15.5h-60l19 96h58l124 186q21 32 43.5 48.5t51.5 21.5l1 6q-17 6 -28.5 19.5t-20.5 43.5l-54 181h-58l20 96h39q39 0 61 -16.5t35 -58.5l67 -223h102l59 298
h108l-59 -298h102l153 233q24 36 50.5 50.5t70.5 14.5h49l-20 -96h-55l-119 -182q-20 -32 -39.5 -44.5t-43.5 -17.5l-1 -5q17 -7 29.5 -21.5t23.5 -46.5l60 -189h103l-50 -246h-100z" />
    <glyph glyph-name="uni0497" unicode="&#x497;" horiz-adv-x="796" 
d="M632 0q-53 3 -79 37.5t-26 114.5q0 14 1.5 36t4.5 38h-96l-45 -226h-100l45 226h-94q-14 -63 -31.5 -106t-40.5 -70t-51.5 -38.5t-63.5 -11.5h-66l17 87h91q14 17 29.5 53.5t27.5 100.5q16 83 16 127t-10 65h-74l18 87h40q58 0 87.5 -34t29.5 -118q0 -12 -1.5 -28
t-3.5 -32h97l42 212h100l-42 -212h94q14 58 31.5 98.5t40 66t50.5 36.5t63 11h56l-18 -87h-80q-14 -17 -29.5 -53.5t-28.5 -100.5q-8 -43 -11.5 -75t-3.5 -52q0 -43 9 -65h116l-45 -227h-93z" />
    <glyph glyph-name="uni0498" unicode="&#x498;" horiz-adv-x="586" 
d="M179 -6q-114 21 -174 117l84 65q29 -48 68.5 -69.5t90.5 -21.5q60 0 98.5 24t50.5 78q5 23 5 42q0 39 -27 59t-84 20h-97l20 96h88q66 0 100 23.5t43 66.5q5 22 5 42q0 35 -26.5 56t-80.5 21t-96.5 -20t-72.5 -55l-67 71q45 47 106 74t141 27q103 0 157 -43t54 -119
q0 -72 -39.5 -120t-112.5 -66l-1 -5q54 -13 78.5 -47t24.5 -83t-17 -90.5t-48 -72.5t-74.5 -50.5t-95.5 -24.5l-29 -139h-100z" />
    <glyph glyph-name="uni0499" unicode="&#x499;" horiz-adv-x="489" 
d="M136 -8q-50 8 -84 31.5t-56 59.5l70 59q20 -33 51 -50t76 -17q55 0 85.5 19t36.5 51q2 8 3 17t1 15q0 23 -18.5 37t-59.5 14h-98l16 79h97q33 0 59.5 15t31.5 44q3 16 3 26q0 24 -22 38.5t-64 14.5q-45 0 -78 -15t-64 -48l-60 61q39 44 89.5 66.5t120.5 22.5
q91 0 135.5 -36.5t44.5 -92.5q0 -53 -32.5 -87t-89.5 -43l-1 -4q44 -6 68 -31t24 -67q0 -37 -14.5 -68t-40 -54.5t-61 -39t-77.5 -19.5l-26 -130h-93z" />
    <glyph glyph-name="uni049A" unicode="&#x49a;" horiz-adv-x="660" 
d="M494 0q-29 1 -49 15.5t-37 56.5l-95 233h-111l-62 -305h-108l140 698h108l-59 -298h111l173 232q28 37 52.5 51.5t59.5 14.5h56l-19 -96h-55l-143 -192q-19 -26 -35.5 -36.5t-41.5 -15.5l-1 -5q18 -7 30 -19t23 -39l81 -199h103l-50 -246h-100z" />
    <glyph glyph-name="uni049B" unicode="&#x49b;" horiz-adv-x="556" 
d="M399 0q-29 4 -47.5 22.5t-32.5 52.5l-59 149h-84l-45 -224h-104l104 520h104l-42 -211h84l123 160q22 29 43.5 40t56.5 11h53l-18 -87h-53l-95 -123q-16 -20 -29.5 -28.5t-32.5 -11.5l-1 -5q17 -5 28.5 -16t21.5 -37l50 -125h86l-46 -227h-93z" />
    <glyph glyph-name="uni049C" unicode="&#x49c;" horiz-adv-x="697" 
d="M172 698h108l-59 -298h52l29 147h80l-29 -147h41l164 233q26 38 50.5 51.5t60.5 13.5h55l-19 -96h-55l-134 -190q-18 -26 -34 -37.5t-41 -16.5l-1 -5q18 -8 30 -21.5t23 -42.5l71 -193h57l-19 -96h-48q-38 0 -58.5 16.5t-35.5 57.5l-85 231h-42l-29 -147h-80l29 147h-51
l-62 -305h-108z" />
    <glyph glyph-name="uni049D" unicode="&#x49d;" horiz-adv-x="600" 
d="M131 520h104l-42 -211h42l24 118h70l-24 -118h33l113 158q22 31 43.5 42t56.5 11h53l-18 -87h-53l-83 -116q-18 -25 -32 -34.5t-32 -12.5l-1 -5q16 -4 26.5 -15.5t21.5 -40.5l42 -122h53l-17 -87h-47q-37 0 -57.5 19t-33.5 56l-52 149h-32l-24 -118h-70l24 118h-43
l-45 -224h-104z" />
    <glyph glyph-name="uni04A0" unicode="&#x4a0;" horiz-adv-x="745" 
d="M252 602h-163l19 96h271l-59 -298h111l173 232q28 37 52.5 51.5t59.5 14.5h56l-19 -96h-55l-143 -192q-19 -26 -35.5 -36.5t-41.5 -15.5l-1 -5q18 -7 30 -19t23 -39l81 -199h58l-19 -96h-49q-37 0 -57 15t-37 57l-95 233h-111l-62 -305h-108z" />
    <glyph glyph-name="uni04A1" unicode="&#x4a1;" horiz-adv-x="617" 
d="M182 433h-128l18 87h231l-42 -211h84l123 160q22 28 44 39.5t57 11.5h52l-18 -87h-53l-95 -123q-16 -20 -29.5 -28.5t-32.5 -11.5l-1 -5q18 -5 28.5 -16t21.5 -37l50 -125h53l-17 -87h-47q-36 0 -57.5 18.5t-36.5 56.5l-59 149h-84l-45 -224h-104z" />
    <glyph glyph-name="uni04A2" unicode="&#x4a2;" horiz-adv-x="735" 
d="M556 0h-110l62 304h-306l-62 -304h-108l140 698h108l-59 -298h306l59 298h108l-121 -602h103l-50 -246h-100z" />
    <glyph glyph-name="uni04A3" unicode="&#x4a3;" horiz-adv-x="604" 
d="M434 0h-98l44 223h-205l-44 -223h-104l104 520h104l-42 -210h205l42 210h104l-87 -433h88l-46 -227h-93z" />
    <glyph glyph-name="uni04A4" unicode="&#x4a4;" horiz-adv-x="884" 
d="M172 698h108l-59 -298h284l61 298h378l-19 -96h-270l-121 -602h-108l60 304h-284l-62 -304h-108z" />
    <glyph glyph-name="uni04A5" unicode="&#x4a5;" horiz-adv-x="718" 
d="M131 520h104l-42 -210h190l42 210h324l-18 -87h-219l-87 -433h-104l44 223h-190l-44 -223h-104z" />
    <glyph glyph-name="uni04AA" unicode="&#x4aa;" horiz-adv-x="616" 
d="M238 -6q-82 18 -132 87.5t-50 187.5q0 91 25.5 171.5t71 140.5t109 94.5t139.5 34.5q179 0 229 -164l-97 -42q-15 51 -47.5 80t-93.5 29q-76 0 -128.5 -53t-70.5 -142l-23 -113q-4 -17 -5 -31.5t-1 -27.5q0 -75 36.5 -118t104.5 -43q33 0 59 8.5t47 24t38 37.5t32 49
l90 -43q-41 -79 -98.5 -121t-135.5 -50l-28 -140h-100z" />
    <glyph glyph-name="uni04AB" unicode="&#x4ab;" horiz-adv-x="491" 
d="M181 -5q-64 16 -101.5 68.5t-37.5 142.5q0 68 19 127.5t54 103.5t83.5 69.5t107.5 25.5q72 0 118.5 -35t59.5 -92l-87 -35q-11 35 -32.5 54.5t-63.5 19.5q-54 0 -88 -34t-46 -97l-17 -86q-5 -25 -5 -44q0 -48 25 -77.5t77 -29.5q38 0 65.5 22t54.5 71l80 -38
q-29 -60 -72.5 -96t-100.5 -44l-27 -131h-93z" />
    <glyph glyph-name="uni04AE" unicode="&#x4ae;" horiz-adv-x="597" 
d="M191 0l55 272l-147 426h110l107 -321h5l229 321h122l-319 -431l-54 -267h-108z" />
    <glyph glyph-name="uni04AF" unicode="&#x4af;" horiz-adv-x="496" 
d="M141 0l-83 520h102l33 -233l18 -173h6l82 173l124 233h111l-289 -520l-40 -200h-104z" />
    <glyph glyph-name="uni04B0" unicode="&#x4b0;" horiz-adv-x="597" 
d="M229 188h-150l16 83h151l-147 427h110l106 -319h7l228 319h122l-316 -427h148l-17 -83h-150l-38 -188h-108z" />
    <glyph glyph-name="uni04B1" unicode="&#x4b1;" horiz-adv-x="496" 
d="M24 0h117l-83 520h102l33 -233l18 -173h6l82 173l124 233h111l-289 -520h118l-16 -75h-117l-25 -125h-104l25 125h-117z" />
    <glyph glyph-name="uni04B2" unicode="&#x4b2;" horiz-adv-x="642" 
d="M476 0h-56l-111 268h-6l-208 -268h-126l289 363l-144 335h115l109 -263h6l207 263h125l-290 -353l108 -249h102l-50 -246h-100z" />
    <glyph glyph-name="uni04B3" unicode="&#x4b3;" horiz-adv-x="524" 
d="M379 0h-52l-86 194h-5l-158 -194h-116l232 270l-120 250h112l80 -188h5l152 188h116l-226 -263l84 -170h93l-46 -227h-93z" />
    <glyph glyph-name="uni04B6" unicode="&#x4b6;" horiz-adv-x="682" 
d="M503 0h-110l54 266h-5q-27 -12 -65 -19.5t-81 -7.5q-100 0 -150.5 46.5t-50.5 133.5q0 23 3 47.5t10 57.5l35 174h108l-38 -190q-5 -22 -7.5 -40.5t-2.5 -32.5q0 -51 28.5 -75t90.5 -24q45 0 80.5 5.5t62.5 16.5l68 340h108l-121 -602h103l-50 -246h-100z" />
    <glyph glyph-name="uni04B7" unicode="&#x4b7;" horiz-adv-x="571" 
d="M401 0h-98l54 268h-6q-27 -51 -64 -76t-91 -25q-32 0 -57 9.5t-42 26t-26 38.5t-9 47q0 17 2 35t5 35l33 162h104l-32 -159q-2 -12 -3.5 -24t-1.5 -23q0 -27 17.5 -42t51.5 -15q30 0 54 9.5t41.5 25.5t28.5 37.5t16 44.5l29 146h104l-87 -433h88l-46 -227h-93z" />
    <glyph glyph-name="uni04B8" unicode="&#x4b8;" horiz-adv-x="646" 
d="M455 266h-5q-20 -8 -47 -15t-55 -9l-26 -133h-80l26 131q-88 8 -130.5 53.5t-42.5 125.5q0 23 3 47.5t10 57.5l35 174h108l-38 -190q-5 -22 -7.5 -40.5t-2.5 -32.5q0 -44 20.5 -67t64.5 -29l31 159h80l-32 -161q64 5 106 21l68 340h108l-140 -698h-108z" />
    <glyph glyph-name="uni04B9" unicode="&#x4b9;" horiz-adv-x="546" 
d="M364 261h-6q-15 -30 -36.5 -51.5t-48.5 -32.5l-19 -95h-70l17 85q-71 2 -105 36t-34 85q0 17 2 35t5 35l33 162h104l-32 -159q-2 -12 -3.5 -24t-1.5 -23q0 -47 50 -55l29 143h70l-29 -143q42 11 65 42t31 69l31 150h103l-104 -520h-104z" />
    <glyph glyph-name="uni04BA" unicode="&#x4ba;" horiz-adv-x="637" 
d="M172 698h108l-53 -266h5q27 12 64 19.5t81 7.5q100 0 150 -46.5t50 -133.5q0 -23 -3 -47.5t-10 -57.5l-35 -174h-108l39 190q4 22 7 40.5t3 32.5q0 51 -28.5 75t-90.5 24q-45 0 -80 -5.5t-62 -16.5l-69 -340h-108z" />
    <glyph glyph-name="uni04BB" unicode="&#x4bb;" horiz-adv-x="573" 
d="M175 740h104l-66 -331h5q29 60 68 91.5t97 31.5q65 0 97.5 -37t32.5 -103q0 -17 -2 -33.5t-6 -36.5l-47 -235h63l-17 -87h-79q-33 0 -52.5 17t-19.5 49q0 6 0.5 12.5t1.5 11.5l45 225q6 30 6 55q0 35 -16 53.5t-52 18.5q-52 0 -91 -44q-22 -24 -38 -55.5t-22 -62.5
l-56 -280h-104z" />
    <glyph glyph-name="uni04C0" unicode="&#x4c0;" horiz-adv-x="398" 
d="M3 0l18 90h90l104 518h-90l18 90h288l-18 -90h-90l-104 -518h90l-18 -90h-288z" />
    </font>
</defs>
</svg>
