<?xml version="1.0" standalone="no"?>
<!DOCTYPE svg PUBLIC "-//W3C//DTD SVG 1.1//EN" "http://www.w3.org/Graphics/SVG/1.1/DTD/svg11.dtd" >
<svg xmlns="http://www.w3.org/2000/svg" xmlns:xlink="http://www.w3.org/1999/xlink" version="1.1">
<metadata>
Created by FontForge 20170731 at Thu Jun 10 16:22:21 2021
 By Aleksey,,,
Copyright 2018 IBM Corp. All rights reserved.
</metadata>
<defs>
<font id="IBMPlexSans-SemiBoldItalic" horiz-adv-x="588" >
  <font-face 
    font-family="IBM Plex Sans SemiBold"
    font-weight="600"
    font-style="italic"
    font-stretch="normal"
    units-per-em="1000"
    panose-1="2 11 7 3 5 2 3 0 2 3"
    ascent="780"
    descent="-220"
    x-height="522"
    cap-height="698"
    bbox="-278 -266 1250 1142"
    underline-thickness="88"
    underline-position="-206"
    slope="-11"
    unicode-range="U+000D-FB02"
  />
<missing-glyph horiz-adv-x="472" 
d="M32 0v780h408v-780h-408zM120 88h232v604h-232v-604z" />
    <glyph glyph-name="fi" unicode="fi" horiz-adv-x="609" 
d="M82 522h75l16 79q14 68 55 103.5t117 35.5h71l-21 -99h-93l-24 -119h301l-84 -423h63l-20 -99h-84q-38 0 -60.5 20.5t-22.5 54.5q0 10 3 25l64 323h-180l-97 -484q-14 -68 -55 -103.5t-116 -35.5h-73l20 99h95l105 524h-74zM536 598q-33 0 -48 13t-15 34q0 15 5 38
q6 25 23.5 43.5t60.5 18.5q33 0 48 -13t15 -34q0 -15 -5 -38q-6 -25 -23.5 -43.5t-60.5 -18.5z" />
    <glyph glyph-name=".notdef" horiz-adv-x="472" 
d="M32 0v780h408v-780h-408zM120 88h232v604h-232v-604z" />
    <glyph glyph-name=".null" horiz-adv-x="0" 
 />
    <glyph glyph-name=".null" horiz-adv-x="0" 
 />
    <glyph glyph-name="uni000D" unicode="&#xd;" horiz-adv-x="234" 
 />
    <glyph glyph-name="space" unicode=" " horiz-adv-x="236" 
 />
    <glyph glyph-name="exclam" unicode="!" horiz-adv-x="302" 
d="M112 209l18 291l40 198h133l-40 -198l-96 -291h-55zM100 -12q-37 0 -53 15t-16 38q0 6 1 16t4 25q6 30 27 49.5t63 19.5q37 0 53 -15t16 -38q0 -6 -1 -15.5t-4 -25.5q-6 -30 -27 -49.5t-63 -19.5z" />
    <glyph glyph-name="quotedbl" unicode="&#x22;" horiz-adv-x="464" 
d="M103 427l63 313h114l-63 -313h-114zM313 427l63 313h114l-63 -313h-114z" />
    <glyph glyph-name="numbersign" unicode="#" horiz-adv-x="652" 
d="M354 183h-149l-68 -183h-84l68 183h-112l16 80h126l63 172h-112l16 80h126l68 183h84l-68 -183h149l68 183h84l-68 -183h112l-16 -80h-126l-63 -172h112l-16 -80h-126l-68 -183h-84zM383 263l65 172h-149l-65 -172h149z" />
    <glyph glyph-name="dollar" unicode="$" horiz-adv-x="566" 
d="M181 9q-60 10 -108 36.5t-73 68.5l83 74q20 -34 53 -54t73 -28l41 206q-86 19 -126.5 61.5t-40.5 111.5q0 43 15.5 79.5t45.5 64t74 44.5t100 20l18 87h95l-19 -93q53 -9 92.5 -32.5t62.5 -61.5l-85 -72q-14 24 -39 42.5t-59 26.5l-38 -188q83 -19 125.5 -60.5
t42.5 -110.5q0 -41 -15 -79.5t-45 -69.5t-74.5 -51t-103.5 -25l-18 -88h-95zM395 212q0 29 -15 50.5t-55 32.5l-38 -190q58 8 83 39t25 68zM202 499q0 -59 70 -79l35 174q-54 -6 -79.5 -32.5t-25.5 -62.5z" />
    <glyph glyph-name="percent" unicode="%" horiz-adv-x="928" 
d="M137 0l576 698h111l-576 -698h-111zM241 314q-67 0 -106.5 39t-39.5 117q0 53 16 97t43 76t63 49.5t77 17.5q67 0 106.5 -39t39.5 -117q0 -53 -16 -97t-43 -76t-63.5 -49.5t-76.5 -17.5zM247 389q29 0 46.5 24.5t27.5 72.5l11 54q2 10 3 20.5t1 18.5q0 26 -12.5 41
t-35.5 15q-29 0 -46.5 -24.5t-27.5 -72.5l-11 -54q-2 -10 -3 -20.5t-1 -18.5q0 -26 12.5 -41t35.5 -15zM667 -12q-67 0 -106.5 39t-39.5 117q0 53 16 97t43 76t63 49.5t77 17.5q67 0 106.5 -39t39.5 -117q0 -53 -16 -97t-43 -76t-63.5 -49.5t-76.5 -17.5zM673 63
q29 0 46.5 24.5t27.5 72.5l11 54q2 10 3 20.5t1 18.5q0 26 -12.5 41t-35.5 15q-29 0 -46.5 -24.5t-27.5 -72.5l-11 -54q-2 -10 -3 -20.5t-1 -18.5q0 -26 12.5 -41t35.5 -15z" />
    <glyph glyph-name="ampersand" unicode="&#x26;" horiz-adv-x="694" 
d="M434 65q-38 -33 -88.5 -55t-116.5 -22q-49 0 -85.5 12.5t-61 35t-37 53t-12.5 67.5q0 43 14 76.5t38 59.5t56.5 47t69.5 40q-19 28 -35 62t-16 74q0 42 16 77.5t44.5 62t69 41t88.5 14.5q36 0 67.5 -9t54.5 -27t36 -45t13 -63q0 -37 -15 -67t-40.5 -55t-58.5 -45t-68 -38
l93 -130q18 33 31 71t21 78h162l-21 -105h-76q-22 -69 -58 -127l106 -148h-144zM362 614q-30 0 -51 -18t-28 -47q-3 -12 -3 -29q0 -20 8.5 -39.5t28.5 -48.5q51 26 80.5 52.5t29.5 68.5q0 29 -18 45t-47 16zM259 92q37 0 67.5 12t56.5 33l-123 173q-38 -20 -64.5 -43.5
t-34.5 -62.5q-3 -12 -3 -28q0 -41 25.5 -62.5t75.5 -21.5z" />
    <glyph glyph-name="quotesingle" unicode="'" horiz-adv-x="254" 
d="M103 427l63 313h114l-63 -313h-114z" />
    <glyph glyph-name="parenleft" unicode="(" horiz-adv-x="346" 
d="M66 215q0 89 23.5 170t63.5 151t92 127t108 97h129q-51 -39 -97.5 -84t-84 -95t-63.5 -103.5t-37 -109.5l-20 -96q-3 -17 -4 -31.5t-1 -27.5q0 -106 35 -194t93 -157h-113q-25 29 -47.5 67.5t-39.5 83.5t-27 96t-10 106z" />
    <glyph glyph-name="parenright" unicode=")" horiz-adv-x="346" 
d="M304 407q0 -89 -23.5 -170t-63.5 -151t-92 -127t-108 -97h-129q51 39 97.5 84t84 95t63.5 103.5t37 109.5l20 96q3 17 4 31.5t1 27.5q0 106 -35 194t-93 157h113q25 -29 47.5 -67.5t39.5 -83.5t27 -96t10 -106z" />
    <glyph glyph-name="asterisk" unicode="*" horiz-adv-x="552" 
d="M182 281l-80 70l138 136l-150 48l45 101l149 -66l28 177h112l-41 -175l159 62l26 -99l-174 -54l82 -141l-93 -58l-71 150z" />
    <glyph glyph-name="plus" unicode="+" horiz-adv-x="600" 
d="M204 62l38 192h-174l20 101h175l38 192h110l-38 -192h174l-20 -101h-175l-38 -192h-110z" />
    <glyph glyph-name="comma" unicode="," horiz-adv-x="297" 
d="M123 154q38 0 53 -17.5t15 -41.5q0 -17 -5 -40q-5 -24 -16.5 -51t-28.5 -53t-39.5 -50t-49.5 -43h-94q41 32 69.5 64.5t47.5 70.5q-24 5 -34.5 19t-10.5 32q0 8 2 19l4 22q7 31 27.5 50t59.5 19z" />
    <glyph glyph-name="hyphen" unicode="-" horiz-adv-x="393" 
d="M52 245l24 119h282l-24 -119h-282z" />
    <glyph glyph-name="period" unicode="." horiz-adv-x="297" 
d="M98 -12q-37 0 -53 16.5t-16 38.5q0 8 2 19.5t4 22.5q6 29 27 49t60 20q37 0 53 -16.5t16 -38.5q0 -8 -2 -19.5t-4 -22.5q-6 -29 -27 -49t-60 -20z" />
    <glyph glyph-name="slash" unicode="/" horiz-adv-x="449" 
d="M-72 -151l461 891h111l-461 -891h-111z" />
    <glyph glyph-name="zero" unicode="0" horiz-adv-x="600" 
d="M260 -12q-60 0 -100 22t-64 57t-33.5 80t-9.5 92q0 87 20 171t59.5 151t98.5 108t136 41q60 0 100 -22t64 -57t33.5 -80.5t9.5 -91.5q0 -87 -20 -171t-60 -151t-98.5 -108t-135.5 -41zM272 93q31 0 55 14t41 40t29 61.5t21 79.5l24 118q5 23 6.5 41t1.5 37q0 57 -22 89
t-73 32q-32 0 -55.5 -14t-40.5 -40t-29 -62t-21 -79l-24 -118q-5 -23 -6.5 -41t-1.5 -37q0 -57 22 -89t73 -32z" />
    <glyph glyph-name="one" unicode="1" horiz-adv-x="600" 
d="M53 0l21 105h184l100 498h-9l-184 -180l-72 69l210 206h198l-119 -593h157l-21 -105h-465z" />
    <glyph glyph-name="two" unicode="2" horiz-adv-x="600" 
d="M483 0h-464l24 121l253 192q65 48 94.5 89t37.5 79q3 15 3 33q0 35 -22 60.5t-66 25.5q-49 0 -80.5 -30.5t-50.5 -75.5l-107 44q17 37 40 69t53.5 54.5t69 35.5t86.5 13q49 0 88 -14t66.5 -38.5t42 -59t14.5 -75.5q0 -45 -14.5 -82.5t-41.5 -72t-66 -67t-87 -68.5
l-171 -126h319z" />
    <glyph glyph-name="three" unicode="3" horiz-adv-x="600" 
d="M298 415q56 0 87.5 22.5t39.5 63.5q3 15 3 27q0 36 -24 56t-66 20q-43 0 -78 -19t-66 -64l-73 78q21 24 45 44.5t52.5 35.5t63 23t76.5 8q46 0 84 -11.5t65 -33t41.5 -51t14.5 -65.5q0 -72 -44.5 -118.5t-116.5 -62.5l-1 -5q52 -10 82 -48t30 -98q0 -50 -18 -91.5
t-52.5 -72.5t-84 -48t-113.5 -17q-48 0 -85 10.5t-64 28.5t-45 41.5t-28 49.5l93 66q16 -41 47 -65.5t90 -24.5q57 0 88 26t40 74q3 15 3 29q0 39 -26 62t-76 23h-72l21 107h67z" />
    <glyph glyph-name="four" unicode="4" horiz-adv-x="600" 
d="M298 0l27 135h-308l23 113l361 450h155l-93 -463h89l-20 -100h-89l-27 -135h-118zM144 235h201l65 322h-9z" />
    <glyph glyph-name="five" unicode="5" horiz-adv-x="600" 
d="M562 587h-303l-61 -239h9q28 50 62.5 75.5t94.5 25.5q78 0 126 -49t48 -140q0 -53 -18.5 -102t-54.5 -87t-88 -60.5t-119 -22.5q-51 0 -89 11t-65 29t-44.5 41.5t-27.5 49.5l101 66q14 -40 45 -65.5t87 -25.5q57 0 90 31.5t44 85.5q2 11 3.5 21.5t1.5 21.5q0 43 -24.5 67
t-72.5 24q-41 0 -69.5 -16.5t-49.5 -38.5l-99 14l100 394h395z" />
    <glyph glyph-name="six" unicode="6" horiz-adv-x="600" 
d="M264 -12q-103 0 -157.5 61t-54.5 168q0 76 27.5 147.5t73.5 134t104.5 113.5t120.5 86h179q-67 -42 -124 -82t-102 -83t-78 -89t-51 -100l7 -3q14 22 29.5 41.5t34.5 33t42.5 21.5t53.5 8q39 0 71 -13.5t54 -38.5t34 -60.5t12 -78.5q0 -54 -19.5 -102.5t-55.5 -84.5
t-87 -57.5t-114 -21.5zM274 90q55 0 88 30.5t44 84.5q2 10 3 20t1 21q0 47 -24.5 73t-73.5 26q-55 0 -88 -30.5t-44 -84.5q-2 -10 -3 -20t-1 -21q0 -47 24.5 -73t73.5 -26z" />
    <glyph glyph-name="seven" unicode="7" horiz-adv-x="600" 
d="M117 0l355 593h-237l-26 -129h-107l47 234h470l-22 -112l-346 -586h-134z" />
    <glyph glyph-name="eight" unicode="8" horiz-adv-x="600" 
d="M259 -12q-55 0 -96.5 13t-69 37t-41.5 57t-14 72q0 73 45 126.5t124 69.5l2 7q-86 35 -86 135q0 40 16 77t48 65.5t78.5 45.5t108.5 17q100 0 150.5 -44t50.5 -115q0 -63 -39.5 -112t-106.5 -71l-1 -8q49 -14 76 -50.5t27 -95.5q0 -45 -18.5 -86t-53 -72t-85.5 -49.5
t-115 -18.5zM268 88q54 0 87 26.5t43 74.5q2 11 3 19t1 19q0 40 -26 62.5t-76 22.5q-54 0 -87 -26.5t-43 -74.5q-2 -11 -3 -19t-1 -19q0 -40 26 -62.5t76 -22.5zM329 407q51 0 80.5 24.5t37.5 65.5q5 22 5 37q0 35 -23.5 55.5t-69.5 20.5q-51 0 -80.5 -24.5t-37.5 -65.5
q-5 -22 -5 -37q0 -35 23.5 -55.5t69.5 -20.5z" />
    <glyph glyph-name="nine" unicode="9" horiz-adv-x="600" 
d="M578 481q0 -76 -27.5 -147.5t-73.5 -134t-104.5 -113.5t-120.5 -86h-179q67 42 124 82t102 83t78 89t51 100l-7 3q-14 -23 -29.5 -42t-34.5 -32.5t-42.5 -21.5t-53.5 -8q-39 0 -71 13.5t-54 38.5t-34 60.5t-12 78.5q0 54 19.5 102.5t55.5 84.5t87 57.5t114 21.5
q103 0 157.5 -61t54.5 -168zM318 353q55 0 88 30.5t44 84.5q2 10 3 20t1 21q0 47 -24.5 73t-73.5 26q-55 0 -88 -30.5t-44 -84.5q-2 -10 -3 -20t-1 -21q0 -47 24.5 -73t73.5 -26z" />
    <glyph glyph-name="colon" unicode=":" horiz-adv-x="317" 
d="M108 -12q-37 0 -53 16.5t-16 38.5q0 8 2 19.5t4 22.5q6 29 27 49t60 20q37 0 53 -16.5t16 -38.5q0 -8 -2 -19.5t-4 -22.5q-6 -29 -27 -49t-60 -20zM185 367q-37 0 -53 16.5t-16 38.5q0 8 2 19.5t4 22.5q6 29 27 49t60 20q37 0 53 -16.5t16 -38.5q0 -8 -2 -19.5t-4 -22.5
q-6 -29 -27 -49t-60 -20z" />
    <glyph glyph-name="semicolon" unicode=";" horiz-adv-x="317" 
d="M133 154q38 0 53 -17.5t15 -41.5q0 -17 -5 -40q-5 -24 -16.5 -51t-28.5 -53t-39.5 -50t-49.5 -43h-94q41 32 69.5 64.5t47.5 70.5q-24 5 -34.5 19t-10.5 32q0 8 2 19l4 22q7 31 27.5 50t59.5 19zM185 367q-37 0 -53 16.5t-16 38.5q0 8 2 19.5t4 22.5q6 29 27 49t60 20
q37 0 53 -16.5t16 -38.5q0 -8 -2 -19.5t-4 -22.5q-6 -29 -27 -49t-60 -20z" />
    <glyph glyph-name="less" unicode="&#x3c;" horiz-adv-x="600" 
d="M97 253l17 84l449 255l-27 -137l-299 -165l-2 -8l233 -165l-25 -122z" />
    <glyph glyph-name="equal" unicode="=" horiz-adv-x="600" 
d="M92 367l20 101h459l-20 -101h-459zM48 144l20 101h459l-20 -101h-459z" />
    <glyph glyph-name="greater" unicode="&#x3e;" horiz-adv-x="600" 
d="M79 132l299 165l2 8l-233 165l25 122l346 -258l-17 -84l-449 -255z" />
    <glyph glyph-name="question" unicode="?" horiz-adv-x="484" 
d="M155 226l32 156q81 6 126.5 35t56.5 76q2 7 3.5 17.5t1.5 19.5q0 36 -23.5 54.5t-59.5 18.5q-45 0 -75 -27t-47 -71l-100 44q16 36 38 65.5t51.5 51t66 33t82.5 11.5q92 0 144 -44.5t52 -121.5q0 -42 -16 -80t-44 -69t-67 -53t-85 -31l-18 -85h-119zM174 -12
q-37 0 -53 15t-16 38q0 6 1 16t4 25q6 30 27 49.5t63 19.5q37 0 53 -15t16 -38q0 -6 -1 -15.5t-4 -25.5q-6 -30 -27 -49.5t-63 -19.5z" />
    <glyph glyph-name="at" unicode="@" horiz-adv-x="883" 
d="M377 -121q-74 0 -133 23.5t-99.5 66t-62 103t-21.5 134.5q0 24 2.5 51t8.5 58q17 87 57 159t98 124t132 81t161 29q69 0 127.5 -21.5t101.5 -61.5t67.5 -97.5t24.5 -129.5q0 -19 -1.5 -39t-6.5 -43q-10 -50 -30 -93.5t-48.5 -75.5t-64.5 -50.5t-77 -18.5q-51 0 -78 22.5
t-27 61.5v12h-4q-14 -38 -46.5 -66.5t-77.5 -28.5q-59 0 -95 38.5t-36 113.5q0 15 1.5 31.5t6.5 37.5q21 99 71.5 150t115.5 51q45 0 69 -20t32 -53h4l13 64h98l-55 -273q-3 -17 -3 -30q0 -33 32 -33q36 0 65 38.5t46 118.5l7 37q3 13 4 26.5t1 33.5q0 51 -18 92t-50.5 69.5
t-78 44t-100.5 15.5q-65 0 -122.5 -21.5t-102.5 -61.5t-76.5 -95.5t-44.5 -123.5l-9 -46q-4 -21 -6.5 -41t-2.5 -37q0 -57 16.5 -103t48 -78.5t77 -49.5t102.5 -17h201l-16 -78h-198zM416 161q18 0 34.5 7.5t29 19.5t21 26.5t11.5 29.5l21 106q5 27 -15 47.5t-57 20.5
q-38 0 -61.5 -24.5t-31.5 -64.5l-16 -78q-2 -8 -2 -13v-10q0 -32 16.5 -49.5t49.5 -17.5z" />
    <glyph glyph-name="A" unicode="A" horiz-adv-x="648" 
d="M448 0l-19 180h-237l-89 -180h-135l363 698h162l83 -698h-128zM392 583h-7l-142 -296h177z" />
    <glyph glyph-name="B" unicode="B" horiz-adv-x="644" 
d="M167 698h286q78 0 125 -36.5t47 -108.5q0 -67 -34.5 -119t-103.5 -70l-1 -5q53 -14 78 -47.5t25 -84.5q0 -50 -16 -91.5t-46 -71.5t-74 -47t-101 -17h-325zM352 109q39 0 64.5 19t33.5 59q5 26 7 38.5t2 19.5q0 26 -17 41t-52 15h-177l-38 -192h177zM384 405
q41 0 66.5 17t33.5 57q5 24 6.5 36t1.5 19q0 25 -16 40t-48 15h-157l-37 -184h150z" />
    <glyph glyph-name="C" unicode="C" horiz-adv-x="625" 
d="M301 -12q-54 0 -99 18t-77.5 53.5t-50.5 88.5t-18 122q0 92 26.5 172t73.5 139.5t111.5 94t140.5 34.5q91 0 149 -43t83 -124l-112 -48q-14 46 -43 74t-87 28q-73 0 -121 -50t-65 -135l-23 -112q-4 -17 -5 -30t-1 -24q0 -69 33 -107t96 -38q62 0 100 30.5t65 80.5
l105 -49q-47 -90 -118 -132.5t-163 -42.5z" />
    <glyph glyph-name="D" unicode="D" horiz-adv-x="673" 
d="M167 698h218q121 0 190.5 -66.5t69.5 -197.5q0 -89 -24 -168t-69.5 -138t-113 -93.5t-154.5 -34.5h-257zM293 112q75 0 127 45.5t70 136.5l20 100q3 16 4.5 32t1.5 27q0 69 -34 101t-91 32h-120l-96 -474h118z" />
    <glyph glyph-name="E" unicode="E" horiz-adv-x="574" 
d="M27 0l140 698h438l-23 -112h-311l-36 -179h276l-22 -112h-277l-36 -183h323l-22 -112h-450z" />
    <glyph glyph-name="F" unicode="F" horiz-adv-x="552" 
d="M27 0l140 698h426l-23 -112h-299l-36 -179h267l-23 -112h-267l-59 -295h-126z" />
    <glyph glyph-name="G" unicode="G" horiz-adv-x="689" 
d="M483 108h-7q-13 -25 -31 -46.5t-42 -38t-54.5 -26t-66.5 -9.5q-50 0 -91.5 17.5t-71.5 53t-46.5 87.5t-16.5 121q0 93 25.5 173.5t73 140.5t114.5 94.5t150 34.5q92 0 158 -42.5t89 -120.5l-107 -55q-14 51 -52.5 78t-96.5 27q-83 0 -132.5 -50t-66.5 -137l-21 -107
q-6 -29 -6 -58q0 -73 36.5 -108.5t93.5 -35.5q33 0 63 9.5t53.5 26.5t40 41t22.5 53l8 40h-133l21 107h254l-76 -378h-106z" />
    <glyph glyph-name="H" unicode="H" horiz-adv-x="695" 
d="M496 295h-284l-59 -295h-126l140 698h126l-58 -291h284l58 291h126l-140 -698h-126z" />
    <glyph glyph-name="I" unicode="I" horiz-adv-x="406" 
d="M0 0l21 104h88l98 490h-88l21 104h302l-21 -104h-88l-98 -490h88l-21 -104h-302z" />
    <glyph glyph-name="J" unicode="J" horiz-adv-x="524" 
d="M533 698l-102 -510q-19 -93 -76 -146.5t-153 -53.5q-47 0 -82.5 14t-60 38.5t-38.5 58t-17 73.5l120 24q3 -43 20.5 -69.5t58.5 -26.5t67.5 25.5t37.5 78.5l78 389h-213l21 105h339z" />
    <glyph glyph-name="K" unicode="K" horiz-adv-x="645" 
d="M311 312l-119 -118l-39 -194h-126l140 698h126l-68 -341h7l112 127l206 214h155l-296 -301l173 -397h-139z" />
    <glyph glyph-name="L" unicode="L" horiz-adv-x="504" 
d="M27 0l140 698h126l-117 -586h265l-22 -112h-392z" />
    <glyph glyph-name="M" unicode="M" horiz-adv-x="796" 
d="M643 498h-6l-91 -129l-173 -239l-82 249l-38 120h-5l-100 -499h-121l140 698h138l106 -346h4l242 346h147l-140 -698h-121z" />
    <glyph glyph-name="N" unicode="N" horiz-adv-x="695" 
d="M300 361l-46 147h-5l-102 -508h-120l140 698h138l125 -361l46 -147h5l102 508h120l-140 -698h-138z" />
    <glyph glyph-name="O" unicode="O" horiz-adv-x="691" 
d="M306 -12q-51 0 -96 16.5t-79.5 51t-54.5 87.5t-20 125q0 89 26 169.5t73.5 141t113.5 96t146 35.5q51 0 96 -17t79 -51.5t54 -87t20 -124.5q0 -89 -26 -169.5t-73 -141t-113 -96t-146 -35.5zM315 101q76 0 126 50.5t68 142.5l21 104q4 17 5 31.5t1 26.5q0 68 -33.5 104.5
t-97.5 36.5q-76 0 -126 -50.5t-68 -142.5l-21 -104q-4 -17 -5 -31.5t-1 -26.5q0 -68 33.5 -104.5t97.5 -36.5z" />
    <glyph glyph-name="P" unicode="P" horiz-adv-x="623" 
d="M27 0l140 698h259q101 0 153.5 -48.5t52.5 -132.5q0 -55 -19 -101t-53.5 -79t-82 -51.5t-105.5 -18.5h-165l-54 -267h-126zM229 379h160q38 0 65.5 20t35.5 61q5 26 8.5 41t3.5 24q0 26 -17.5 43.5t-56.5 17.5h-157z" />
    <glyph glyph-name="Q" unicode="Q" horiz-adv-x="691" 
d="M426 -178h-104q-54 0 -76 22t-22 60q0 11 2 22t4 23l10 47q-39 9 -72.5 30t-58.5 55t-39 80.5t-14 106.5q0 89 26 169.5t73.5 141t113.5 96t146 35.5q51 0 96 -17t79 -51.5t54 -87t20 -124.5q0 -83 -22.5 -158t-64 -134t-99.5 -98t-128 -49l-12 -64h108zM315 101
q76 0 126 50.5t68 142.5l21 104q4 17 5 31.5t1 26.5q0 68 -33.5 104.5t-97.5 36.5q-76 0 -126 -50.5t-68 -142.5l-21 -104q-4 -17 -5 -31.5t-1 -26.5q0 -68 33.5 -104.5t97.5 -36.5z" />
    <glyph glyph-name="R" unicode="R" horiz-adv-x="646" 
d="M153 0h-126l140 698h265q98 0 149 -47.5t51 -128.5q0 -40 -11.5 -77t-34 -68.5t-54.5 -55t-74 -35.5l89 -286h-135l-77 271h-128zM389 379q38 0 65 20t36 62q5 25 8.5 40t3.5 24q0 26 -17.5 43.5t-56.5 17.5h-158l-41 -207h160z" />
    <glyph glyph-name="S" unicode="S" horiz-adv-x="583" 
d="M253 -12q-85 0 -150.5 28.5t-102.5 96.5l96 74q27 -45 65 -65.5t92 -20.5q72 0 109.5 32.5t37.5 81.5q0 35 -23.5 55t-63.5 28l-53 11q-75 16 -118.5 59t-43.5 123q0 46 18.5 86t52 69.5t81.5 46.5t108 17q79 0 139.5 -26t95.5 -74l-91 -81q-26 35 -60 51.5t-89 16.5
q-60 0 -94 -25.5t-34 -69.5q0 -35 21 -53.5t63 -27.5l50 -10q79 -17 125 -61t46 -123q0 -45 -18.5 -88t-54 -76.5t-87 -54t-117.5 -20.5z" />
    <glyph glyph-name="T" unicode="T" horiz-adv-x="565" 
d="M411 586l-118 -586h-126l118 586h-193l22 112h510l-22 -112h-191z" />
    <glyph glyph-name="U" unicode="U" horiz-adv-x="671" 
d="M290 698l-85 -423q-4 -18 -6 -34t-2 -31q0 -54 28.5 -81.5t81.5 -27.5q69 0 106.5 41t55.5 131l85 425h126l-85 -423q-15 -76 -39 -130t-59.5 -89t-84 -51.5t-112.5 -16.5q-109 0 -167 55.5t-58 163.5q0 20 2 43t8 50l79 398h126z" />
    <glyph glyph-name="V" unicode="V" horiz-adv-x="620" 
d="M185 0l-82 698h127l28 -293l21 -272h6l118 255l155 310h134l-362 -698h-145z" />
    <glyph glyph-name="W" unicode="W" horiz-adv-x="918" 
d="M131 0l-19 698h125v-301l-6 -266h8l109 275l126 292h140l10 -286l-1 -287h8l93 249l127 324h128l-298 -698h-146l-11 314l-3 243h-7l-95 -230l-140 -327h-148z" />
    <glyph glyph-name="X" unicode="X" horiz-adv-x="628" 
d="M552 0h-135l-105 256h-7l-194 -256h-146l289 366l-145 332h135l102 -247h7l192 247h146l-289 -352z" />
    <glyph glyph-name="Y" unicode="Y" horiz-adv-x="610" 
d="M188 0l55 274l-148 424h129l100 -308h6l216 308h140l-319 -435l-53 -263h-126z" />
    <glyph glyph-name="Z" unicode="Z" horiz-adv-x="569" 
d="M482 0h-494l23 113l433 473h-325l22 112h476l-23 -113l-434 -473h344z" />
    <glyph glyph-name="bracketleft" unicode="[" horiz-adv-x="321" 
d="M0 -138l180 898h200l-17 -87h-90l-146 -724h90l-17 -87h-200z" />
    <glyph glyph-name="backslash" unicode="\" horiz-adv-x="449" 
d="M249 -151l-103 891h101l103 -891h-101z" />
    <glyph glyph-name="bracketright" unicode="]" horiz-adv-x="321" 
d="M341 760l-180 -898h-200l17 87h90l146 724h-90l17 87h200z" />
    <glyph glyph-name="asciicircum" unicode="^" horiz-adv-x="600" 
d="M474 285l-106 287h-9l-212 -287l-91 54l266 359h117l136 -373z" />
    <glyph glyph-name="underscore" unicode="_" horiz-adv-x="548" 
d="M-59 -180l20 103h491l-20 -103h-491z" />
    <glyph glyph-name="grave" unicode="`" 
d="M183 753l109 51l66 -189l-76 -34z" />
    <glyph glyph-name="a" unicode="a" 
d="M432 0q-36 0 -59 19t-23 53q0 8 1.5 17t2.5 14l3 16h-5q-32 -64 -71 -97.5t-99 -33.5q-36 0 -63.5 13.5t-45.5 38.5t-27 59t-9 76q0 76 18 141.5t50.5 114t78 76t99.5 27.5q53 0 89 -28t43 -73h5l18 89h121l-85 -423h63l-19 -99h-86zM237 89q29 0 52.5 14.5t40.5 34.5
q20 22 33 50.5t20 60.5l18 89q8 40 -17.5 67.5t-73.5 27.5q-103 0 -129 -129l-14 -72q-2 -11 -4 -27t-2 -28q0 -40 19.5 -64t56.5 -24z" />
    <glyph glyph-name="b" unicode="b" horiz-adv-x="580" 
d="M169 740h121l-67 -337h5q32 64 71 97.5t99 33.5q36 0 63.5 -14t45.5 -38.5t27 -59t9 -75.5q0 -76 -18 -141.5t-50.5 -114t-78 -76t-99.5 -27.5q-53 0 -89 28t-43 73h-5l-18 -89h-121zM270 89q103 0 129 129l14 72q2 11 4 27t2 28q0 40 -19.5 64t-56.5 24
q-29 0 -52.5 -14.5t-40.5 -34.5q-20 -22 -33 -50.5t-20 -60.5l-18 -89q-8 -40 17.5 -67.5t73.5 -27.5z" />
    <glyph glyph-name="c" unicode="c" horiz-adv-x="492" 
d="M237 -12q-43 0 -79.5 13.5t-63.5 40.5t-42 69t-15 99q0 69 20 128.5t56 103t86 68t109 24.5q73 0 122.5 -36t60.5 -95l-102 -40q-11 33 -29 52t-59 19q-98 0 -121 -121l-18 -87q-5 -23 -5 -43q0 -42 22 -68.5t69 -26.5q39 0 63.5 22.5t48.5 65.5l93 -44
q-34 -71 -88.5 -107.5t-127.5 -36.5z" />
    <glyph glyph-name="d" unicode="d" 
d="M432 0q-36 0 -59 19t-23 53q0 8 1.5 17t2.5 14l3 16h-5q-32 -64 -71 -97.5t-99 -33.5q-36 0 -63.5 13.5t-45.5 38.5t-27 59t-9 76q0 76 18 141.5t50.5 114t78 76t99.5 27.5q53 0 89 -28t43 -73h5l62 307h121l-129 -641h63l-19 -99h-86zM237 89q29 0 52.5 14.5t40.5 34.5
q20 22 33 50.5t20 60.5l18 89q8 40 -17.5 67.5t-73.5 27.5q-103 0 -129 -129l-14 -72q-2 -11 -4 -27t-2 -28q0 -40 19.5 -64t56.5 -24z" />
    <glyph glyph-name="e" unicode="e" horiz-adv-x="513" 
d="M250 -12q-106 0 -159.5 59t-53.5 164q0 63 20 121.5t56.5 103.5t88 71.5t115.5 26.5q31 0 63 -7.5t58 -24t43 -44.5t17 -68q0 -82 -80.5 -128t-257.5 -50q-3 -20 -3 -29q0 -43 24 -69t78 -26q39 0 71 17t66 59l75 -62q-49 -63 -102.5 -88.5t-118.5 -25.5zM309 440
q-50 0 -85 -33t-46 -90l-5 -25q64 3 104.5 10.5t63 18.5t30.5 26t8 34q0 18 -6.5 29.5t-16.5 18t-22.5 9t-24.5 2.5z" />
    <glyph glyph-name="f" unicode="f" horiz-adv-x="339" 
d="M161 -61q-14 -68 -55 -103.5t-116 -35.5h-73l20 99h95l105 524h-74l20 99h74l16 79q14 68 55 103.5t117 35.5h77l-21 -99h-99l-24 -119h103l-20 -99h-103z" />
    <glyph glyph-name="g" unicode="g" horiz-adv-x="528" 
d="M487 -27q0 -34 -13.5 -67t-46.5 -59.5t-90 -42.5t-144 -16q-62 0 -103.5 8.5t-67 24t-36.5 36.5t-11 46q0 47 30 72.5t81 38.5l1 7q-28 8 -41.5 27t-13.5 46q0 42 32 67.5t80 35.5l1 7q-74 39 -74 131q0 39 14.5 74.5t44 63.5t74 44.5t104.5 16.5q26 0 49 -4t43 -11l4 19
q15 76 83 76h77l-19 -97h-102l-5 -21q55 -40 55 -116q0 -39 -15 -74.5t-44.5 -63.5t-74 -44.5t-104.5 -16.5q-20 0 -36.5 1.5t-32.5 6.5q-23 -7 -37 -20.5t-14 -32.5q0 -17 13.5 -25.5t43.5 -8.5h125q88 0 129 -32.5t41 -96.5zM365 -53q0 23 -16 36t-59 13h-174
q-20 -12 -28.5 -29t-8.5 -34q0 -26 21 -42.5t74 -16.5h60q72 0 101.5 21t29.5 52zM267 267q45 0 70 21t33 58q4 20 4.5 28t0.5 13q0 62 -79 62q-45 0 -70 -21t-33 -58q-4 -20 -4.5 -28t-0.5 -13q0 -62 79 -62z" />
    <glyph glyph-name="h" unicode="h" horiz-adv-x="580" 
d="M169 740h121l-66 -334h5q29 62 69.5 95t100.5 33q63 0 95.5 -36t32.5 -102q0 -17 -2.5 -34.5t-6.5 -37.5l-45 -225h58l-20 -99h-84q-36 0 -57 18.5t-21 52.5q0 14 3 28l43 215q6 28 6 55q0 29 -14 45.5t-47 16.5q-26 0 -48 -12.5t-40 -33.5q-20 -23 -34.5 -51t-20.5 -59
l-55 -275h-121z" />
    <glyph glyph-name="i" unicode="i" horiz-adv-x="277" 
d="M204 598q-33 0 -48 13t-15 34q0 15 5 38q6 25 23.5 43.5t60.5 18.5q33 0 48 -13t15 -34q0 -15 -5 -38q-6 -25 -23.5 -43.5t-60.5 -18.5zM122 0q-38 0 -60.5 20.5t-22.5 54.5q0 10 3 25l84 422h121l-84 -423h63l-20 -99h-84z" />
    <glyph glyph-name="j" unicode="j" horiz-adv-x="270" 
d="M129 522h121l-119 -594q-13 -64 -47.5 -96t-102.5 -32h-75l20 99h78zM207 598q-33 0 -48 13t-15 34q0 15 5 38q6 25 23.5 43.5t60.5 18.5q33 0 48 -13t15 -34q0 -15 -5 -38q-6 -25 -23.5 -43.5t-60.5 -18.5z" />
    <glyph glyph-name="k" unicode="k" horiz-adv-x="541" 
d="M169 740h121l-88 -443h6l78 89l140 136h142l-218 -211l82 -212h61l-20 -99h-65q-70 0 -95 72l-58 158l-83 -78l-30 -152h-121z" />
    <glyph glyph-name="l" unicode="l" horiz-adv-x="276" 
d="M123 0q-39 0 -61.5 20.5t-22.5 54.5q0 6 0.5 10.5t2.5 13.5l128 641h121l-128 -641h67l-19 -99h-88z" />
    <glyph glyph-name="m" unicode="m" horiz-adv-x="869" 
d="M21 0l105 522h121l-23 -116h5q29 61 67.5 94.5t98.5 33.5q57 0 88 -34t33 -94h5q29 59 69 93.5t102 34.5q60 0 91 -36t31 -99q0 -21 -2.5 -41.5t-7.5 -42.5l-43 -216h58l-20 -99h-84q-36 0 -57 18.5t-21 52.5q0 14 3 28l43 215q3 15 5 29t2 26q0 29 -13 45.5t-42 16.5
q-23 0 -44.5 -12.5t-38.5 -32.5q-20 -23 -34.5 -52.5t-19.5 -58.5l-55 -275h-121l63 314q3 14 5 28.5t2 26.5q0 29 -13 45.5t-42 16.5q-26 0 -47 -13t-38 -33q-20 -23 -34.5 -51.5t-20.5 -58.5l-55 -275h-121z" />
    <glyph glyph-name="n" unicode="n" horiz-adv-x="580" 
d="M21 0l105 522h121l-23 -116h5q29 62 69.5 95t100.5 33q63 0 95.5 -36t32.5 -102q0 -17 -2.5 -34.5t-6.5 -37.5l-45 -225h58l-20 -99h-84q-36 0 -57 18.5t-21 52.5q0 14 3 28l43 215q6 28 6 55q0 29 -14 45.5t-47 16.5q-26 0 -48 -12.5t-40 -33.5q-20 -23 -34.5 -51
t-20.5 -59l-55 -275h-121z" />
    <glyph glyph-name="o" unicode="o" horiz-adv-x="545" 
d="M239 -12q-92 0 -147 56t-55 161q0 69 20 129t56 104.5t85 70t108 25.5q92 0 147 -56t55 -161q0 -69 -20 -129t-56 -104.5t-85.5 -70t-107.5 -25.5zM246 88q45 0 76.5 33t43.5 96l18 87q2 10 3 17.5t1 18.5q0 42 -22.5 68t-66.5 26q-45 0 -76.5 -33t-43.5 -96l-18 -88
q-2 -8 -3 -16t-1 -19q0 -42 22.5 -68t66.5 -26z" />
    <glyph glyph-name="p" unicode="p" horiz-adv-x="580" 
d="M126 522h121l-24 -119h5q32 64 71 97.5t99 33.5q36 0 63.5 -14t45.5 -38.5t27 -59t9 -75.5q0 -76 -18 -141.5t-50.5 -114t-78 -76t-99.5 -27.5q-53 0 -89 28t-43 73h-5l-58 -289h-121zM270 89q103 0 129 129l14 72q2 11 4 27t2 28q0 40 -19.5 64t-56.5 24
q-29 0 -52.5 -14.5t-40.5 -34.5q-20 -22 -33 -50.5t-20 -60.5l-18 -89q-8 -40 17.5 -67.5t73.5 -27.5z" />
    <glyph glyph-name="q" unicode="q" horiz-adv-x="580" 
d="M357 119h-5q-32 -64 -71 -97.5t-99 -33.5q-36 0 -63.5 13.5t-45.5 38.5t-27 59.5t-9 75.5q0 76 18 141.5t50.5 114t78 76t99.5 27.5q53 0 89 -28t43 -73h5l18 89h121l-144 -722h-121zM237 89q29 0 52.5 14.5t40.5 34.5q20 22 33 50.5t20 60.5l18 89q8 40 -17.5 67.5
t-73.5 27.5q-103 0 -129 -129l-14 -72q-2 -11 -4 -27t-2 -28q0 -40 19.5 -64t56.5 -24z" />
    <glyph glyph-name="r" unicode="r" horiz-adv-x="385" 
d="M21 0l105 522h121l-24 -120h6q9 21 23 42t33.5 38.5t44 28.5t55.5 11h27l-25 -119h-35q-68 0 -104.5 -28.5t-48.5 -89.5l-57 -285h-121z" />
    <glyph glyph-name="s" unicode="s" horiz-adv-x="489" 
d="M211 -12q-63 0 -117.5 23.5t-87.5 69.5l77 71q23 -31 54.5 -48t76.5 -17q49 0 73.5 20t24.5 49q0 19 -12 33t-45 19l-49 7q-65 10 -102 43t-37 96q0 36 12.5 68.5t38.5 57t65.5 39.5t92.5 15q122 0 188 -81l-78 -71q-19 24 -48.5 38.5t-67.5 14.5q-42 0 -63.5 -17.5
t-21.5 -46.5q0 -19 12 -33t44 -19l49 -7q66 -10 103 -43t37 -96q0 -38 -14.5 -72t-42.5 -59t-69 -39.5t-93 -14.5z" />
    <glyph glyph-name="t" unicode="t" horiz-adv-x="343" 
d="M170 0q-108 0 -108 89q0 8 1 18.5t3 21.5l59 294h-75l19 99h37q31 0 41.5 12.5t15.5 39.5l18 91h113l-28 -143h105l-20 -99h-105l-65 -324h99l-20 -99h-90z" />
    <glyph glyph-name="u" unicode="u" horiz-adv-x="576" 
d="M241 522l-63 -314q-6 -29 -6 -53q0 -30 13.5 -47t43.5 -17q26 0 47.5 12.5t39.5 33.5q42 48 54 110l55 275h121l-85 -423h63l-19 -99h-86q-36 0 -58.5 19t-22.5 54q0 8 1 16t2 14l3 13h-6q-29 -61 -68 -94.5t-97 -33.5q-62 0 -94 36t-32 102q0 18 2 35.5t6 37.5l65 323
h121z" />
    <glyph glyph-name="v" unicode="v" horiz-adv-x="504" 
d="M121 0l-69 522h120l23 -214l17 -198h6l90 198l106 214h130l-276 -522h-147z" />
    <glyph glyph-name="w" unicode="w" horiz-adv-x="776" 
d="M61 522h120l7 -208l4 -182h6l69 158l107 232h114l16 -210l11 -183h6l66 163l98 230h120l-239 -522h-131l-18 206l-12 161h-5l-65 -145l-104 -222h-134z" />
    <glyph glyph-name="x" unicode="x" horiz-adv-x="511" 
d="M-44 0l230 272l-116 250h131l71 -181h6l141 181h134l-228 -267l121 -255h-131l-75 183h-6l-144 -183h-134z" />
    <glyph glyph-name="y" unicode="y" horiz-adv-x="502" 
d="M417 522h129l-330 -616q-14 -27 -29.5 -47t-34.5 -33t-43.5 -19.5t-56.5 -6.5h-78l19 99h96l39 75l-76 548h120l25 -214l18 -194h5l90 194z" />
    <glyph glyph-name="z" unicode="z" horiz-adv-x="479" 
d="M-10 0l19 99l316 324h-248l19 99h395l-20 -98l-317 -325h265l-20 -99h-409z" />
    <glyph glyph-name="braceleft" unicode="{" horiz-adv-x="352" 
d="M131 -138q-35 0 -56 18.5t-21 52.5q0 6 0.5 12.5t2.5 17.5l40 197q3 15 3 29q0 71 -76 71l21 103q92 0 110 88l43 215q9 47 36.5 70.5t66.5 23.5h109l-18 -92h-81l-46 -229q-5 -23 -13.5 -44t-23.5 -38.5t-36.5 -28.5t-51.5 -13l-1 -8q35 -7 57 -31.5t22 -62.5
q0 -8 -1.5 -16.5t-3.5 -16.5l-46 -226h82l-19 -92h-99z" />
    <glyph glyph-name="bar" unicode="|" horiz-adv-x="369" 
d="M50 -138l180 898h109l-180 -898h-109z" />
    <glyph glyph-name="braceright" unicode="}" horiz-adv-x="352" 
d="M-21 -46h81l46 229q4 22 13 43.5t24 39t36.5 28.5t51.5 13l1 8q-35 7 -57 31.5t-22 62.5q0 8 1.5 16.5t3.5 16.5l46 226h-82l19 92h99q35 0 56 -18.5t21 -52.5q0 -6 -0.5 -12.5t-2.5 -17.5l-40 -197q-3 -15 -3 -29q0 -71 76 -71l-21 -103q-92 0 -110 -88l-43 -215
q-9 -47 -36.5 -70.5t-66.5 -23.5h-109z" />
    <glyph glyph-name="asciitilde" unicode="~" horiz-adv-x="600" 
d="M403 218q-39 0 -64 11.5t-54 27.5q-26 14 -48.5 24t-52.5 10q-23 0 -41.5 -7.5t-43.5 -22.5l-33 74q22 23 55 40t82 17q39 0 64 -11.5t54 -27.5q26 -14 48.5 -24t52.5 -10q23 0 41.5 7.5t43.5 22.5l33 -74q-22 -23 -55 -40t-82 -17z" />
    <glyph glyph-name="uni00A0" unicode="&#xa0;" horiz-adv-x="236" 
 />
    <glyph glyph-name="exclamdown" unicode="&#xa1;" horiz-adv-x="302" 
d="M-5 -176l40 198l96 291h55l-18 -291l-40 -198h-133zM172 371q-37 0 -53 15t-16 38q0 6 1 15.5t4 25.5q6 30 27 49.5t63 19.5q37 0 53 -15t16 -38q0 -6 -1 -16t-4 -25q-6 -30 -27 -49.5t-63 -19.5z" />
    <glyph glyph-name="cent" unicode="&#xa2;" horiz-adv-x="523" 
d="M179 -4q-66 17 -104 74t-38 145q0 58 17 111.5t49 95.5t78 69.5t104 34.5l21 104h98l-22 -108q50 -13 82.5 -44.5t46.5 -75.5l-97 -47q-6 25 -20.5 43t-38.5 27l-67 -336q30 8 53.5 28t43.5 51l83 -50q-33 -54 -79.5 -86.5t-112.5 -40.5l-21 -105h-98zM154 184
q0 -32 13 -55.5t39 -34.5l66 330q-38 -12 -63 -42.5t-34 -75.5l-17 -88q-4 -16 -4 -34z" />
    <glyph glyph-name="sterling" unicode="&#xa3;" horiz-adv-x="587" 
d="M29 0l25 125q54 23 78 69.5t24 95.5h-98l21 103h66q-2 14 -3.5 29t-1.5 31q0 54 19 101t54 81.5t83.5 54.5t108.5 20q78 0 128 -30.5t83 -88.5l-101 -66q-20 38 -47.5 55.5t-71.5 17.5q-61 0 -95.5 -40.5t-34.5 -112.5q0 -14 1 -27.5t3 -24.5h196l-21 -103h-162
q-2 -33 -11.5 -60t-24 -49t-32.5 -37.5t-35 -25.5l-2 -8h332l-22 -110h-459z" />
    <glyph glyph-name="currency" unicode="&#xa4;" horiz-adv-x="620" 
d="M290 111q-77 0 -128 34l-113 -94l-62 76l113 95q-12 31 -12 71q0 17 2 34t5 33q7 35 20 67.5t33 58.5l-80 98l80 65l77 -95q60 33 137 33t128 -34l113 94l62 -76l-113 -95q12 -32 12 -71q0 -17 -2 -34t-5 -33q-7 -35 -20 -67.5t-33 -58.5l80 -98l-80 -65l-77 95
q-60 -33 -137 -33zM297 205q51 0 85 30t45 85l12 58q2 9 3 18t1 18q0 38 -23 58.5t-65 20.5q-51 0 -85 -30t-45 -85l-12 -58q-2 -9 -3 -18t-1 -18q0 -38 23 -58.5t65 -20.5z" />
    <glyph glyph-name="yen" unicode="&#xa5;" horiz-adv-x="620" 
d="M347 138l-28 -138h-126l28 138h-164l16 82h164l16 77h-164l16 82h113l-104 319h134l86 -284h4l198 284h147l-235 -319h114l-17 -82h-166l-16 -77h167l-17 -82h-166z" />
    <glyph glyph-name="brokenbar" unicode="&#xa6;" horiz-adv-x="369" 
d="M158 403l72 357h109l-72 -357h-109zM50 -138l72 357h109l-72 -357h-109z" />
    <glyph glyph-name="section" unicode="&#xa7;" horiz-adv-x="556" 
d="M426 36q0 -43 -16.5 -79t-46 -61.5t-70 -40t-88.5 -14.5q-56 0 -105.5 17t-82.5 55l73 71q20 -25 51 -38t75 -13q41 0 69.5 23t28.5 59q0 29 -17 45.5t-54 28.5l-66 20q-65 20 -92.5 55.5t-27.5 77.5q0 56 32.5 96.5t98.5 59.5l2 9q-29 23 -41.5 51t-12.5 61
q0 43 16.5 78t46 60t70 39t88.5 14q56 0 105.5 -17t82.5 -55l-73 -71q-20 25 -51 38t-75 13q-42 0 -70 -21.5t-28 -56.5q0 -29 17 -45.5t54 -28.5l66 -20q65 -20 92.5 -55t27.5 -77q0 -56 -32.5 -97t-98.5 -60l-2 -9q29 -23 41.5 -51t12.5 -61zM396 272q0 29 -16.5 49
t-56.5 33l-66 20l-16.5 5.5t-12.5 6.5q-33 -21 -47.5 -47t-14.5 -55t16.5 -49.5t56.5 -33.5l66 -20l16.5 -5.5t12.5 -6.5q33 21 47.5 47.5t14.5 55.5z" />
    <glyph glyph-name="dieresis" unicode="&#xa8;" horiz-adv-x="587" 
d="M209 605q-30 0 -43.5 12.5t-13.5 31.5q0 5 1 13t4 22q5 25 22.5 41.5t54.5 16.5q30 0 43.5 -12.5t13.5 -31.5q0 -5 -1 -13t-4 -22q-5 -25 -22.5 -41.5t-54.5 -16.5zM404 605q-30 0 -43.5 12.5t-13.5 31.5q0 5 1 13t4 22q5 25 22.5 41.5t54.5 16.5q30 0 43.5 -12.5
t13.5 -31.5q0 -5 -1 -13t-4 -22q-5 -25 -22.5 -41.5t-54.5 -16.5z" />
    <glyph glyph-name="copyright" unicode="&#xa9;" horiz-adv-x="775" 
d="M352 -12q-66 0 -119.5 22t-91.5 62.5t-59 96.5t-21 124q0 89 30 165.5t82.5 132t125 87t156.5 31.5q66 0 119.5 -22t91.5 -62.5t59 -96.5t21 -124q0 -89 -30 -165.5t-82.5 -132t-125 -87t-156.5 -31.5zM356 49q57 0 107.5 19.5t91 53t68 78.5t38.5 96q7 33 11 61t4 47
q0 56 -16.5 101t-46.5 77t-71.5 49t-90.5 17q-57 0 -107.5 -19.5t-91 -53t-68.5 -78.5t-38 -96q-7 -33 -11 -61t-4 -47q0 -56 16.5 -101t46.5 -77t71 -49t91 -17zM381 140q-75 0 -119 45.5t-44 123.5q0 49 16 94.5t44.5 79.5t68 54.5t85.5 20.5q69 0 105 -31.5t50 -77.5
l-87 -38q-6 26 -22.5 42t-45.5 16q-37 0 -58 -22.5t-28 -57.5l-14 -71q-3 -15 -3 -27q0 -28 17 -45.5t49 -17.5q27 0 48 16.5t39 42.5l78 -44q-13 -21 -30 -39.5t-39 -32.5t-49.5 -22.5t-60.5 -8.5z" />
    <glyph glyph-name="ordfeminine" unicode="&#xaa;" horiz-adv-x="428" 
d="M401 336h-51q-57 0 -57 50v11h-4q-15 -31 -44 -49t-68 -18q-42 0 -70.5 23.5t-28.5 67.5q0 59 42.5 91.5t126.5 32.5h67l4 21q2 8 2.5 12t0.5 9q0 49 -57 49q-31 0 -52 -14t-39 -34l-51 44q24 30 61.5 51t93.5 21q60 0 98 -26.5t38 -79.5q0 -14 -3 -32l-33 -162h38z
M242 493q-64 0 -73 -45q-2 -9 -2 -14.5v-7.5q0 -17 13 -25.5t34 -8.5q30 0 52.5 15.5t28.5 42.5l8 43h-61z" />
    <glyph glyph-name="guillemotleft" unicode="&#xab;" horiz-adv-x="543" 
d="M188 58l-155 164l23 112l207 159l33 -83l-155 -141l97 -137zM423 58l-155 164l23 112l207 159l33 -83l-155 -141l97 -137z" />
    <glyph glyph-name="logicalnot" unicode="&#xac;" horiz-adv-x="600" 
d="M377 78l36 177h-345l20 102h449l-56 -279h-104z" />
    <glyph glyph-name="uni00AD" unicode="&#xad;" horiz-adv-x="393" 
d="M52 245l24 119h282l-24 -119h-282z" />
    <glyph glyph-name="registered" unicode="&#xae;" horiz-adv-x="458" 
d="M251 297q-39 0 -71.5 13t-56 36.5t-36.5 55t-13 69.5q0 52 17.5 96t48.5 75.5t72.5 49.5t88.5 18q39 0 71.5 -13t56 -36.5t36.5 -55.5t13 -69q0 -52 -18 -96t-48.5 -75.5t-72 -49.5t-88.5 -18zM257 339q30 0 57 10t49 28t37.5 43.5t21.5 57.5q5 25 6.5 39t1.5 22
q0 60 -38 94.5t-97 34.5q-60 0 -105.5 -37.5t-59.5 -101.5q-5 -25 -6.5 -39t-1.5 -22q0 -60 38 -94.5t97 -34.5zM231 400h-55l42 209h87q37 0 53.5 -17.5t16.5 -44.5q0 -23 -14 -43t-40 -27l29 -77h-58l-24 68h-23zM283 508q27 0 32 22q3 13 3 17q0 20 -23 20h-30l-12 -59
h30z" />
    <glyph glyph-name="macron" unicode="&#xaf;" 
d="M191 720h276l-19 -91h-276z" />
    <glyph glyph-name="degree" unicode="&#xb0;" horiz-adv-x="457" 
d="M263 343q-35 0 -64.5 12.5t-50.5 34.5t-33 52t-12 66q0 43 15.5 80t42.5 64t63 42.5t78 15.5q35 0 64.5 -12.5t50.5 -34.5t33 -52t12 -66q0 -44 -15.5 -81t-42.5 -64t-63 -42t-78 -15zM273 427q45 0 71.5 34t26.5 83q0 35 -20.5 58.5t-57.5 23.5q-45 0 -72 -34t-27 -83
q0 -35 21 -58.5t58 -23.5z" />
    <glyph glyph-name="plusminus" unicode="&#xb1;" horiz-adv-x="600" 
d="M228 175l35 177h-175l20 101h175l35 177h109l-35 -177h175l-20 -101h-175l-35 -177h-109zM19 0l20 101h458l-20 -101h-458z" />
    <glyph glyph-name="twosuperior" unicode="&#xb2;" horiz-adv-x="339" 
d="M315 329h-275l15 78l138 92q37 25 53.5 41.5t21.5 39.5q1 4 1.5 7t0.5 6q0 19 -13 28.5t-32 9.5q-27 0 -43 -15.5t-24 -34.5l-73 28q19 39 53.5 67t92.5 28q56 0 93 -26.5t37 -76.5q0 -26 -9.5 -47t-26.5 -39t-40.5 -34.5t-51.5 -33.5l-76 -48h172z" />
    <glyph glyph-name="threesuperior" unicode="&#xb3;" horiz-adv-x="334" 
d="M199 553q34 0 49 11.5t17 24.5q2 10 2 15q0 14 -12 23t-34 9q-23 0 -43 -10.5t-39 -33.5l-47 52q26 28 59 44t81 16q60 0 92 -25t32 -65q0 -35 -23.5 -60t-65.5 -33v-2q30 -6 46.5 -25t16.5 -49q0 -53 -41.5 -87.5t-115.5 -34.5q-59 0 -91 21.5t-45 50.5l62 44
q9 -21 26.5 -34.5t48.5 -13.5q26 0 43 11t22 34q1 4 1.5 7t0.5 6q0 35 -54 35h-41l14 69h39z" />
    <glyph glyph-name="acute" unicode="&#xb4;" horiz-adv-x="587" 
d="M319 581l-73 39l115 185l99 -53z" />
    <glyph glyph-name="mu" unicode="&#xb5;" horiz-adv-x="581" 
d="M-20 -200l145 722h121l-62 -310q-3 -14 -5 -30t-2 -27q0 -30 13.5 -47t43.5 -17q26 0 47.5 12.5t39.5 33.5q20 23 34 52t20 59l55 274h121l-85 -423h63l-19 -99h-86q-36 0 -58.5 19t-22.5 54q0 8 1 15.5t2 12.5l3 15h-6q-33 -71 -65 -99.5t-75 -28.5q-33 0 -51.5 19
t-23.5 54h-5l1 -147l-23 -114h-121z" />
    <glyph glyph-name="paragraph" unicode="&#xb6;" horiz-adv-x="641" 
d="M231 274q-33 0 -62 15t-50 40.5t-33.5 59t-12.5 71.5q0 49 18.5 92t52.5 75.5t80 51.5t102 19h336l-18 -93h-62l-151 -754h-93l151 754h-99l-151 -754h-93z" />
    <glyph glyph-name="periodcentered" unicode="&#xb7;" horiz-adv-x="341" 
d="M167 221q-37 0 -53 16.5t-16 37.5q0 8 2 20t4 22q5 29 26 49t61 20q37 0 53 -16.5t16 -37.5q0 -8 -2 -20t-4 -22q-5 -29 -26 -49t-61 -20z" />
    <glyph glyph-name="cedilla" unicode="&#xb8;" 
d="M272 -210q-41 0 -68.5 13t-39.5 30l48 48q7 -9 22 -18t37 -9q21 0 35 8.5t14 24.5q0 13 -14 23t-49 14l-23 2l39 101h61l-32 -84l2 -4q21 6 40 6q26 0 43.5 -14t17.5 -42q0 -24 -10 -42.5t-28 -31t-42.5 -19t-52.5 -6.5z" />
    <glyph glyph-name="onesuperior" unicode="&#xb9;" horiz-adv-x="342" 
d="M66 329l14 68h88l47 236h-6l-78 -81l-51 46l97 100h136l-60 -301h80l-14 -68h-253z" />
    <glyph glyph-name="ordmasculine" unicode="&#xba;" horiz-adv-x="416" 
d="M231 330q-65 0 -104.5 41t-39.5 111q0 30 6 56q7 35 23.5 65t41 52.5t57.5 35.5t73 13q65 0 104.5 -41t39.5 -111q0 -31 -6 -56q-7 -35 -23.5 -65t-41 -52.5t-57.5 -35.5t-73 -13zM241 399q34 0 56.5 24t30.5 66l12 60q2 8 2 13v10q0 29 -17 46t-46 17q-34 0 -57 -24
t-31 -66l-12 -60q-2 -8 -2 -13v-10q0 -29 17.5 -46t46.5 -17z" />
    <glyph glyph-name="guillemotright" unicode="&#xbb;" horiz-adv-x="543" 
d="M250 141l155 141l-97 137l50 74l155 -164l-23 -112l-207 -159zM15 141l155 141l-97 137l50 74l155 -164l-23 -112l-207 -159z" />
    <glyph glyph-name="onequarter" unicode="&#xbc;" horiz-adv-x="881" 
d="M66 329l14 68h88l47 236h-6l-78 -81l-51 46l97 100h136l-60 -301h80l-14 -68h-253zM89 0l643 698h102l-643 -698h-102zM634 0l14 71h-174l15 73l201 225h100l-47 -234h47l-14 -64h-46l-14 -71h-82zM688 270h-6l-121 -135h100z" />
    <glyph glyph-name="onehalf" unicode="&#xbd;" horiz-adv-x="876" 
d="M66 329l14 68h88l47 236h-6l-78 -81l-51 46l97 100h136l-60 -301h80l-14 -68h-253zM89 0l643 698h102l-643 -698h-102zM785 0h-275l15 78l138 92q37 25 53.5 41.5t21.5 39.5q1 4 1.5 7t0.5 6q0 19 -13 28.5t-32 9.5q-27 0 -43 -15.5t-24 -34.5l-73 28q19 39 53.5 67
t92.5 28q56 0 93 -26.5t37 -76.5q0 -26 -9.5 -47t-26.5 -39t-40.5 -34.5t-51.5 -33.5l-76 -48h172z" />
    <glyph glyph-name="threequarters" unicode="&#xbe;" horiz-adv-x="860" 
d="M199 553q34 0 49 11.5t17 24.5q2 10 2 15q0 14 -12 23t-34 9q-23 0 -43 -10.5t-39 -33.5l-47 52q26 28 59 44t81 16q60 0 92 -25t32 -65q0 -35 -23.5 -60t-65.5 -33v-2q30 -6 46.5 -25t16.5 -49q0 -53 -41.5 -87.5t-115.5 -34.5q-59 0 -91 21.5t-45 50.5l62 44
q9 -21 26.5 -34.5t48.5 -13.5q26 0 43 11t22 34q1 4 1.5 7t0.5 6q0 35 -54 35h-41l14 69h39zM68 0l643 698h102l-643 -698h-102zM613 0l14 71h-174l15 73l201 225h100l-47 -234h47l-14 -64h-46l-14 -71h-82zM667 270h-6l-121 -135h100z" />
    <glyph glyph-name="questiondown" unicode="&#xbf;" horiz-adv-x="485" 
d="M179 -188q-92 0 -144 44.5t-52 121.5q0 42 16 80t44 69t67 53t85 31l18 85h119l-32 -156q-81 -6 -126.5 -35t-56.5 -76q-2 -7 -3.5 -17.5t-1.5 -19.5q0 -36 23.5 -54.5t59.5 -18.5q45 0 75 27t47 71l100 -44q-32 -72 -89.5 -116.5t-148.5 -44.5zM287 371q-37 0 -53 15
t-16 38q0 6 1 15.5t4 25.5q6 30 27 49.5t63 19.5q37 0 53 -15t16 -38q0 -6 -1 -16t-4 -25q-6 -30 -27 -49.5t-63 -19.5z" />
    <glyph glyph-name="Agrave" unicode="&#xc0;" horiz-adv-x="648" 
d="M448 0l-19 180h-237l-89 -180h-135l363 698h162l83 -698h-128zM392 583h-7l-142 -296h177zM300 916l109 51l66 -189l-76 -34z" />
    <glyph glyph-name="Aacute" unicode="&#xc1;" horiz-adv-x="648" 
d="M448 0l-19 180h-237l-89 -180h-135l363 698h162l83 -698h-128zM392 583h-7l-142 -296h177zM433 744l-73 39l115 185l99 -53z" />
    <glyph glyph-name="Acircumflex" unicode="&#xc2;" horiz-adv-x="648" 
d="M448 0l-19 180h-237l-89 -180h-135l363 698h162l83 -698h-128zM392 583h-7l-142 -296h177zM505 948l95 -154l-65 -49l-94 115l-138 -115l-63 49l150 154h115z" />
    <glyph glyph-name="Atilde" unicode="&#xc3;" horiz-adv-x="648" 
d="M448 0l-19 180h-237l-89 -180h-135l363 698h162l83 -698h-128zM392 583h-7l-142 -296h177zM500 768q-23 0 -40 6.5t-35 15.5q-20 11 -36.5 16.5t-33.5 5.5t-29 -6t-29 -19l-39 59q21 26 48 43t62 17q23 0 40 -6.5t35 -15.5q20 -11 36.5 -16.5t33.5 -5.5t29 6t29 19
l39 -59q-21 -26 -48 -43t-62 -17z" />
    <glyph glyph-name="Adieresis" unicode="&#xc4;" horiz-adv-x="648" 
d="M448 0l-19 180h-237l-89 -180h-135l363 698h162l83 -698h-128zM392 583h-7l-142 -296h177zM323 768q-30 0 -43.5 12.5t-13.5 31.5q0 5 1 13t4 22q5 25 22.5 41.5t54.5 16.5q30 0 43.5 -12.5t13.5 -31.5q0 -5 -1 -13t-4 -22q-5 -25 -22.5 -41.5t-54.5 -16.5zM518 768
q-30 0 -43.5 12.5t-13.5 31.5q0 5 1 13t4 22q5 25 22.5 41.5t54.5 16.5q30 0 43.5 -12.5t13.5 -31.5q0 -5 -1 -13t-4 -22q-5 -25 -22.5 -41.5t-54.5 -16.5z" />
    <glyph glyph-name="Aring" unicode="&#xc5;" horiz-adv-x="648" 
d="M448 0l-19 180h-237l-89 -180h-135l363 698h162l83 -698h-128zM392 583h-7l-142 -296h177zM414 727q-52 0 -85.5 32.5t-33.5 83.5q0 35 12 63.5t33 48.5t49.5 31t60.5 11q52 0 85.5 -32.5t33.5 -83.5q0 -35 -12 -63.5t-33 -48.5t-49.5 -31t-60.5 -11zM420 794
q25 0 40 14.5t20 37.5q7 31 7 44q0 40 -43 40q-25 0 -40 -14.5t-20 -37.5q-7 -31 -7 -44q0 -40 43 -40z" />
    <glyph glyph-name="AE" unicode="&#xc6;" horiz-adv-x="910" 
d="M399 179h-202l-112 -179h-137l455 698h538l-23 -112h-311l-36 -179h276l-22 -112h-277l-36 -183h323l-22 -112h-450zM457 588l-190 -301h153l61 301h-24z" />
    <glyph glyph-name="Ccedilla" unicode="&#xc7;" horiz-adv-x="625" 
d="M398 597q-73 0 -121 -50t-65 -135l-23 -112q-4 -17 -5 -30t-1 -24q0 -69 33 -107t96 -38q62 0 100 30.5t65 80.5l105 -49q-45 -87 -112 -129.5t-155 -45.5l-17 -45l2 -4q21 6 40 6q26 0 43.5 -14t17.5 -42q0 -24 -10 -42.5t-28 -31t-42.5 -19t-52.5 -6.5q-41 0 -68.5 13
t-39.5 30l48 48q7 -9 22 -18t37 -9q21 0 35 8.5t14 24.5q0 13 -14 23t-49 14l-23 2l25 65q-45 7 -81.5 28.5t-62.5 56.5t-40.5 83.5t-14.5 110.5q0 92 26.5 172t73.5 139.5t111.5 94t140.5 34.5q91 0 149 -43t83 -124l-112 -48q-14 46 -43 74t-87 28z" />
    <glyph glyph-name="Egrave" unicode="&#xc8;" horiz-adv-x="574" 
d="M27 0l140 698h438l-23 -112h-311l-36 -179h276l-22 -112h-277l-36 -183h323l-22 -112h-450zM277 916l109 51l66 -189l-76 -34z" />
    <glyph glyph-name="Eacute" unicode="&#xc9;" horiz-adv-x="574" 
d="M27 0l140 698h438l-23 -112h-311l-36 -179h276l-22 -112h-277l-36 -183h323l-22 -112h-450zM410 744l-73 39l115 185l99 -53z" />
    <glyph glyph-name="Ecircumflex" unicode="&#xca;" horiz-adv-x="574" 
d="M27 0l140 698h438l-23 -112h-311l-36 -179h276l-22 -112h-277l-36 -183h323l-22 -112h-450zM482 948l95 -154l-65 -49l-94 115l-138 -115l-63 49l150 154h115z" />
    <glyph glyph-name="Edieresis" unicode="&#xcb;" horiz-adv-x="574" 
d="M27 0l140 698h438l-23 -112h-311l-36 -179h276l-22 -112h-277l-36 -183h323l-22 -112h-450zM300 768q-30 0 -43.5 12.5t-13.5 31.5q0 5 1 13t4 22q5 25 22.5 41.5t54.5 16.5q30 0 43.5 -12.5t13.5 -31.5q0 -5 -1 -13t-4 -22q-5 -25 -22.5 -41.5t-54.5 -16.5zM495 768
q-30 0 -43.5 12.5t-13.5 31.5q0 5 1 13t4 22q5 25 22.5 41.5t54.5 16.5q30 0 43.5 -12.5t13.5 -31.5q0 -5 -1 -13t-4 -22q-5 -25 -22.5 -41.5t-54.5 -16.5z" />
    <glyph glyph-name="Igrave" unicode="&#xcc;" horiz-adv-x="406" 
d="M0 0l21 104h88l98 490h-88l21 104h302l-21 -104h-88l-98 -490h88l-21 -104h-302zM184 916l109 51l66 -189l-76 -34z" />
    <glyph glyph-name="Iacute" unicode="&#xcd;" horiz-adv-x="406" 
d="M0 0l21 104h88l98 490h-88l21 104h302l-21 -104h-88l-98 -490h88l-21 -104h-302zM317 744l-73 39l115 185l99 -53z" />
    <glyph glyph-name="Icircumflex" unicode="&#xce;" horiz-adv-x="406" 
d="M0 0l21 104h88l98 490h-88l21 104h302l-21 -104h-88l-98 -490h88l-21 -104h-302zM389 948l95 -154l-65 -49l-94 115l-138 -115l-63 49l150 154h115z" />
    <glyph glyph-name="Idieresis" unicode="&#xcf;" horiz-adv-x="406" 
d="M0 0l21 104h88l98 490h-88l21 104h302l-21 -104h-88l-98 -490h88l-21 -104h-302zM207 768q-30 0 -43.5 12.5t-13.5 31.5q0 5 1 13t4 22q5 25 22.5 41.5t54.5 16.5q30 0 43.5 -12.5t13.5 -31.5q0 -5 -1 -13t-4 -22q-5 -25 -22.5 -41.5t-54.5 -16.5zM402 768
q-30 0 -43.5 12.5t-13.5 31.5q0 5 1 13t4 22q5 25 22.5 41.5t54.5 16.5q30 0 43.5 -12.5t13.5 -31.5q0 -5 -1 -13t-4 -22q-5 -25 -22.5 -41.5t-54.5 -16.5z" />
    <glyph glyph-name="Eth" unicode="&#xd0;" horiz-adv-x="678" 
d="M94 309h-76l20 97h76l58 292h218q121 0 190.5 -66.5t69.5 -197.5q0 -89 -24 -168t-69.5 -138t-113 -93.5t-154.5 -34.5h-257zM298 112q75 0 127 45.5t70 136.5l20 100q3 16 4.5 32t1.5 27q0 69 -34 101t-91 32h-120l-36 -180h118l-20 -97h-118l-40 -197h118z" />
    <glyph glyph-name="Ntilde" unicode="&#xd1;" horiz-adv-x="695" 
d="M300 361l-46 147h-5l-102 -508h-120l140 698h138l125 -361l46 -147h5l102 508h120l-140 -698h-138zM528 768q-23 0 -40 6.5t-35 15.5q-20 11 -36.5 16.5t-33.5 5.5t-29 -6t-29 -19l-39 59q21 26 48 43t62 17q23 0 40 -6.5t35 -15.5q20 -11 36.5 -16.5t33.5 -5.5t29 6
t29 19l39 -59q-21 -26 -48 -43t-62 -17z" />
    <glyph glyph-name="Ograve" unicode="&#xd2;" horiz-adv-x="691" 
d="M306 -12q-51 0 -96 16.5t-79.5 51t-54.5 87.5t-20 125q0 89 26 169.5t73.5 141t113.5 96t146 35.5q51 0 96 -17t79 -51.5t54 -87t20 -124.5q0 -89 -26 -169.5t-73 -141t-113 -96t-146 -35.5zM315 101q76 0 126 50.5t68 142.5l21 104q4 17 5 31.5t1 26.5q0 68 -33.5 104.5
t-97.5 36.5q-76 0 -126 -50.5t-68 -142.5l-21 -104q-4 -17 -5 -31.5t-1 -26.5q0 -68 33.5 -104.5t97.5 -36.5zM323 916l109 51l66 -189l-76 -34z" />
    <glyph glyph-name="Oacute" unicode="&#xd3;" horiz-adv-x="691" 
d="M306 -12q-51 0 -96 16.5t-79.5 51t-54.5 87.5t-20 125q0 89 26 169.5t73.5 141t113.5 96t146 35.5q51 0 96 -17t79 -51.5t54 -87t20 -124.5q0 -89 -26 -169.5t-73 -141t-113 -96t-146 -35.5zM315 101q76 0 126 50.5t68 142.5l21 104q4 17 5 31.5t1 26.5q0 68 -33.5 104.5
t-97.5 36.5q-76 0 -126 -50.5t-68 -142.5l-21 -104q-4 -17 -5 -31.5t-1 -26.5q0 -68 33.5 -104.5t97.5 -36.5zM456 744l-73 39l115 185l99 -53z" />
    <glyph glyph-name="Ocircumflex" unicode="&#xd4;" horiz-adv-x="691" 
d="M306 -12q-51 0 -96 16.5t-79.5 51t-54.5 87.5t-20 125q0 89 26 169.5t73.5 141t113.5 96t146 35.5q51 0 96 -17t79 -51.5t54 -87t20 -124.5q0 -89 -26 -169.5t-73 -141t-113 -96t-146 -35.5zM315 101q76 0 126 50.5t68 142.5l21 104q4 17 5 31.5t1 26.5q0 68 -33.5 104.5
t-97.5 36.5q-76 0 -126 -50.5t-68 -142.5l-21 -104q-4 -17 -5 -31.5t-1 -26.5q0 -68 33.5 -104.5t97.5 -36.5zM528 948l95 -154l-65 -49l-94 115l-138 -115l-63 49l150 154h115z" />
    <glyph glyph-name="Otilde" unicode="&#xd5;" horiz-adv-x="691" 
d="M306 -12q-51 0 -96 16.5t-79.5 51t-54.5 87.5t-20 125q0 89 26 169.5t73.5 141t113.5 96t146 35.5q51 0 96 -17t79 -51.5t54 -87t20 -124.5q0 -89 -26 -169.5t-73 -141t-113 -96t-146 -35.5zM315 101q76 0 126 50.5t68 142.5l21 104q4 17 5 31.5t1 26.5q0 68 -33.5 104.5
t-97.5 36.5q-76 0 -126 -50.5t-68 -142.5l-21 -104q-4 -17 -5 -31.5t-1 -26.5q0 -68 33.5 -104.5t97.5 -36.5zM523 768q-23 0 -40 6.5t-35 15.5q-20 11 -36.5 16.5t-33.5 5.5t-29 -6t-29 -19l-39 59q21 26 48 43t62 17q23 0 40 -6.5t35 -15.5q20 -11 36.5 -16.5t33.5 -5.5
t29 6t29 19l39 -59q-21 -26 -48 -43t-62 -17z" />
    <glyph glyph-name="Odieresis" unicode="&#xd6;" horiz-adv-x="691" 
d="M306 -12q-51 0 -96 16.5t-79.5 51t-54.5 87.5t-20 125q0 89 26 169.5t73.5 141t113.5 96t146 35.5q51 0 96 -17t79 -51.5t54 -87t20 -124.5q0 -89 -26 -169.5t-73 -141t-113 -96t-146 -35.5zM315 101q76 0 126 50.5t68 142.5l21 104q4 17 5 31.5t1 26.5q0 68 -33.5 104.5
t-97.5 36.5q-76 0 -126 -50.5t-68 -142.5l-21 -104q-4 -17 -5 -31.5t-1 -26.5q0 -68 33.5 -104.5t97.5 -36.5zM346 768q-30 0 -43.5 12.5t-13.5 31.5q0 5 1 13t4 22q5 25 22.5 41.5t54.5 16.5q30 0 43.5 -12.5t13.5 -31.5q0 -5 -1 -13t-4 -22q-5 -25 -22.5 -41.5
t-54.5 -16.5zM541 768q-30 0 -43.5 12.5t-13.5 31.5q0 5 1 13t4 22q5 25 22.5 41.5t54.5 16.5q30 0 43.5 -12.5t13.5 -31.5q0 -5 -1 -13t-4 -22q-5 -25 -22.5 -41.5t-54.5 -16.5z" />
    <glyph glyph-name="multiply" unicode="&#xd7;" horiz-adv-x="600" 
d="M301 230l-172 -149l-64 77l175 152l-114 149l83 70l114 -149l172 149l64 -77l-175 -152l114 -149l-83 -70z" />
    <glyph glyph-name="Oslash" unicode="&#xd8;" horiz-adv-x="691" 
d="M306 -12q-44 0 -83.5 12t-71.5 37l-79 -93l-69 60l89 104q-17 32 -26.5 71.5t-9.5 88.5q0 89 26 169.5t73.5 141t113.5 96t146 35.5q44 0 83 -12t71 -37l79 93l69 -60l-89 -104q17 -32 26.5 -71.5t9.5 -88.5q0 -89 -26 -169.5t-73 -141t-113 -96t-146 -35.5zM187 299
q-4 -17 -5.5 -32t-1.5 -28q0 -20 4 -35l314 364q-36 33 -92 33q-78 0 -128.5 -51t-69.5 -145zM314 97q78 0 128.5 51t69.5 145l21 106q4 17 5.5 32t1.5 28q0 20 -4 35l-314 -364q36 -33 92 -33z" />
    <glyph glyph-name="Ugrave" unicode="&#xd9;" horiz-adv-x="671" 
d="M290 698l-85 -423q-4 -18 -6 -34t-2 -31q0 -54 28.5 -81.5t81.5 -27.5q69 0 106.5 41t55.5 131l85 425h126l-85 -423q-15 -76 -39 -130t-59.5 -89t-84 -51.5t-112.5 -16.5q-109 0 -167 55.5t-58 163.5q0 20 2 43t8 50l79 398h126zM311 916l109 51l66 -189l-76 -34z" />
    <glyph glyph-name="Uacute" unicode="&#xda;" horiz-adv-x="671" 
d="M290 698l-85 -423q-4 -18 -6 -34t-2 -31q0 -54 28.5 -81.5t81.5 -27.5q69 0 106.5 41t55.5 131l85 425h126l-85 -423q-15 -76 -39 -130t-59.5 -89t-84 -51.5t-112.5 -16.5q-109 0 -167 55.5t-58 163.5q0 20 2 43t8 50l79 398h126zM444 744l-73 39l115 185l99 -53z" />
    <glyph glyph-name="Ucircumflex" unicode="&#xdb;" horiz-adv-x="671" 
d="M290 698l-85 -423q-4 -18 -6 -34t-2 -31q0 -54 28.5 -81.5t81.5 -27.5q69 0 106.5 41t55.5 131l85 425h126l-85 -423q-15 -76 -39 -130t-59.5 -89t-84 -51.5t-112.5 -16.5q-109 0 -167 55.5t-58 163.5q0 20 2 43t8 50l79 398h126zM516 948l95 -154l-65 -49l-94 115
l-138 -115l-63 49l150 154h115z" />
    <glyph glyph-name="Udieresis" unicode="&#xdc;" horiz-adv-x="671" 
d="M290 698l-85 -423q-4 -18 -6 -34t-2 -31q0 -54 28.5 -81.5t81.5 -27.5q69 0 106.5 41t55.5 131l85 425h126l-85 -423q-15 -76 -39 -130t-59.5 -89t-84 -51.5t-112.5 -16.5q-109 0 -167 55.5t-58 163.5q0 20 2 43t8 50l79 398h126zM334 768q-30 0 -43.5 12.5t-13.5 31.5
q0 5 1 13t4 22q5 25 22.5 41.5t54.5 16.5q30 0 43.5 -12.5t13.5 -31.5q0 -5 -1 -13t-4 -22q-5 -25 -22.5 -41.5t-54.5 -16.5zM529 768q-30 0 -43.5 12.5t-13.5 31.5q0 5 1 13t4 22q5 25 22.5 41.5t54.5 16.5q30 0 43.5 -12.5t13.5 -31.5q0 -5 -1 -13t-4 -22
q-5 -25 -22.5 -41.5t-54.5 -16.5z" />
    <glyph glyph-name="Yacute" unicode="&#xdd;" horiz-adv-x="610" 
d="M188 0l55 274l-148 424h129l100 -308h6l216 308h140l-319 -435l-53 -263h-126zM403 744l-73 39l115 185l99 -53z" />
    <glyph glyph-name="Thorn" unicode="&#xde;" horiz-adv-x="618" 
d="M27 0l140 698h126l-26 -128h133q101 0 153.5 -48.5t52.5 -132.5q0 -55 -19 -101t-53.5 -79t-82 -51.5t-105.5 -18.5h-165l-28 -139h-126zM203 251h160q38 0 65.5 20t35.5 61q5 26 8.5 41t3.5 24q0 26 -17.5 43.5t-56.5 17.5h-157z" />
    <glyph glyph-name="germandbls" unicode="&#xdf;" horiz-adv-x="661" 
d="M616 179q0 -38 -14 -73t-40.5 -61t-64 -41.5t-84.5 -15.5q-62 0 -109 21t-73 61l78 70q20 -29 46.5 -42.5t59.5 -13.5q39 0 62.5 21t23.5 56q0 23 -12 35t-42 26l-40 18q-38 17 -63.5 44t-25.5 78q0 67 48 112.5t138 53.5l1 5q2 11 3 20t1 19q0 42 -25 62.5t-73 20.5
q-60 0 -95 -28.5t-49 -96.5l-106 -530h-121l84 423h-77l20 99h77l2 9q24 107 95 164t178 57q48 0 86.5 -12.5t65.5 -35t41.5 -54t14.5 -69.5q0 -29 -8 -69l-14 -70h-67q-106 0 -106 -58q0 -21 13.5 -35t39.5 -26l39 -18q42 -19 67 -46.5t25 -79.5z" />
    <glyph glyph-name="agrave" unicode="&#xe0;" 
d="M432 0q-36 0 -59 19t-23 53q0 8 1.5 17t2.5 14l3 16h-5q-32 -64 -71 -97.5t-99 -33.5q-36 0 -63.5 13.5t-45.5 38.5t-27 59t-9 76q0 76 18 141.5t50.5 114t78 76t99.5 27.5q53 0 89 -28t43 -73h5l18 89h121l-85 -423h63l-19 -99h-86zM237 89q29 0 52.5 14.5t40.5 34.5
q20 22 33 50.5t20 60.5l18 89q8 40 -17.5 67.5t-73.5 27.5q-103 0 -129 -129l-14 -72q-2 -11 -4 -27t-2 -28q0 -40 19.5 -64t56.5 -24zM223 753l109 51l66 -189l-76 -34z" />
    <glyph glyph-name="aacute" unicode="&#xe1;" 
d="M432 0q-36 0 -59 19t-23 53q0 8 1.5 17t2.5 14l3 16h-5q-32 -64 -71 -97.5t-99 -33.5q-36 0 -63.5 13.5t-45.5 38.5t-27 59t-9 76q0 76 18 141.5t50.5 114t78 76t99.5 27.5q53 0 89 -28t43 -73h5l18 89h121l-85 -423h63l-19 -99h-86zM237 89q29 0 52.5 14.5t40.5 34.5
q20 22 33 50.5t20 60.5l18 89q8 40 -17.5 67.5t-73.5 27.5q-103 0 -129 -129l-14 -72q-2 -11 -4 -27t-2 -28q0 -40 19.5 -64t56.5 -24zM359 581l-73 39l115 185l99 -53z" />
    <glyph glyph-name="acircumflex" unicode="&#xe2;" 
d="M432 0q-36 0 -59 19t-23 53q0 8 1.5 17t2.5 14l3 16h-5q-32 -64 -71 -97.5t-99 -33.5q-36 0 -63.5 13.5t-45.5 38.5t-27 59t-9 76q0 76 18 141.5t50.5 114t78 76t99.5 27.5q53 0 89 -28t43 -73h5l18 89h121l-85 -423h63l-19 -99h-86zM237 89q29 0 52.5 14.5t40.5 34.5
q20 22 33 50.5t20 60.5l18 89q8 40 -17.5 67.5t-73.5 27.5q-103 0 -129 -129l-14 -72q-2 -11 -4 -27t-2 -28q0 -40 19.5 -64t56.5 -24zM430 786l95 -154l-65 -49l-94 115l-138 -115l-63 49l150 154h115z" />
    <glyph glyph-name="atilde" unicode="&#xe3;" 
d="M432 0q-36 0 -59 19t-23 53q0 8 1.5 17t2.5 14l3 16h-5q-32 -64 -71 -97.5t-99 -33.5q-36 0 -63.5 13.5t-45.5 38.5t-27 59t-9 76q0 76 18 141.5t50.5 114t78 76t99.5 27.5q53 0 89 -28t43 -73h5l18 89h121l-85 -423h63l-19 -99h-86zM237 89q29 0 52.5 14.5t40.5 34.5
q20 22 33 50.5t20 60.5l18 89q8 40 -17.5 67.5t-73.5 27.5q-103 0 -129 -129l-14 -72q-2 -11 -4 -27t-2 -28q0 -40 19.5 -64t56.5 -24zM425 605q-23 0 -40 6.5t-35 15.5q-20 11 -36.5 16.5t-33.5 5.5t-29 -6t-29 -19l-39 59q21 26 48 43t62 17q23 0 40 -6.5t35 -15.5
q20 -11 36.5 -16.5t33.5 -5.5t29 6t29 19l39 -59q-21 -26 -48 -43t-62 -17z" />
    <glyph glyph-name="adieresis" unicode="&#xe4;" 
d="M432 0q-36 0 -59 19t-23 53q0 8 1.5 17t2.5 14l3 16h-5q-32 -64 -71 -97.5t-99 -33.5q-36 0 -63.5 13.5t-45.5 38.5t-27 59t-9 76q0 76 18 141.5t50.5 114t78 76t99.5 27.5q53 0 89 -28t43 -73h5l18 89h121l-85 -423h63l-19 -99h-86zM237 89q29 0 52.5 14.5t40.5 34.5
q20 22 33 50.5t20 60.5l18 89q8 40 -17.5 67.5t-73.5 27.5q-103 0 -129 -129l-14 -72q-2 -11 -4 -27t-2 -28q0 -40 19.5 -64t56.5 -24zM249 605q-30 0 -43.5 12.5t-13.5 31.5q0 5 1 13t4 22q5 25 22.5 41.5t54.5 16.5q30 0 43.5 -12.5t13.5 -31.5q0 -5 -1 -13t-4 -22
q-5 -25 -22.5 -41.5t-54.5 -16.5zM444 605q-30 0 -43.5 12.5t-13.5 31.5q0 5 1 13t4 22q5 25 22.5 41.5t54.5 16.5q30 0 43.5 -12.5t13.5 -31.5q0 -5 -1 -13t-4 -22q-5 -25 -22.5 -41.5t-54.5 -16.5z" />
    <glyph glyph-name="aring" unicode="&#xe5;" 
d="M432 0q-36 0 -59 19t-23 53q0 8 1.5 17t2.5 14l3 16h-5q-32 -64 -71 -97.5t-99 -33.5q-36 0 -63.5 13.5t-45.5 38.5t-27 59t-9 76q0 76 18 141.5t50.5 114t78 76t99.5 27.5q53 0 89 -28t43 -73h5l18 89h121l-85 -423h63l-19 -99h-86zM237 89q29 0 52.5 14.5t40.5 34.5
q20 22 33 50.5t20 60.5l18 89q8 40 -17.5 67.5t-73.5 27.5q-103 0 -129 -129l-14 -72q-2 -11 -4 -27t-2 -28q0 -40 19.5 -64t56.5 -24zM340 563q-52 0 -85.5 32.5t-33.5 83.5q0 35 12 63.5t33 48.5t49.5 31t60.5 11q52 0 85.5 -32.5t33.5 -83.5q0 -35 -12 -63.5t-33 -48.5
t-49.5 -31t-60.5 -11zM346 630q25 0 40 14.5t20 37.5q7 31 7 44q0 40 -43 40q-25 0 -40 -14.5t-20 -37.5q-7 -31 -7 -44q0 -40 43 -40z" />
    <glyph glyph-name="ae" unicode="&#xe6;" horiz-adv-x="821" 
d="M218 79q20 0 39 5t34.5 15t26.5 24.5t15 33.5l13 64l-87 -4q-38 -2 -67 -12t-37 -42q-3 -14 -3.5 -23t-0.5 -11q0 -24 18 -37t49 -13zM618 440q-51 0 -86 -33.5t-46 -91.5l-4 -19q64 3 104 10t62.5 17.5t30.5 24.5t8 31q0 19 -6.5 31t-16.5 18.5t-22 9t-24 2.5zM179 -12
q-75 0 -114.5 36t-39.5 100q0 80 61.5 120.5t178.5 45.5l95 4l7 36q3 16 3 30q0 75 -88 75q-47 0 -75 -20t-51 -50l-71 69q33 46 86.5 73t121.5 27q59 0 97 -21.5t57 -59.5h7q32 38 74.5 59.5t97.5 21.5q30 0 61.5 -7.5t58 -24t43.5 -44t17 -67.5q0 -82 -81.5 -124.5
t-256.5 -46.5q-3 -24 -3 -38q0 -42 24 -68t78 -26q39 0 71 17t66 59l75 -62q-49 -63 -102.5 -88.5t-118.5 -25.5q-72 0 -120 27.5t-71 77.5h-7q-27 -55 -74.5 -80t-106.5 -25z" />
    <glyph glyph-name="ccedilla" unicode="&#xe7;" horiz-adv-x="492" 
d="M308 534q73 0 122.5 -36t60.5 -95l-102 -40q-11 33 -29 52t-59 19q-98 0 -121 -121l-18 -87q-5 -23 -5 -43q0 -42 22 -68.5t69 -26.5q39 0 63.5 22.5t48.5 65.5l93 -44q-63 -131 -191 -143l-17 -46l2 -4q21 6 40 6q26 0 43.5 -14t17.5 -42q0 -24 -10 -42.5t-28 -31
t-42.5 -19t-52.5 -6.5q-41 0 -68.5 13t-39.5 30l48 48q7 -9 22 -18t37 -9q21 0 35 8.5t14 24.5q0 13 -14 23t-49 14l-23 2l24 64q-72 10 -118 64t-46 156q0 69 20 128.5t56 103t86 68t109 24.5z" />
    <glyph glyph-name="egrave" unicode="&#xe8;" horiz-adv-x="513" 
d="M250 -12q-106 0 -159.5 59t-53.5 164q0 63 20 121.5t56.5 103.5t88 71.5t115.5 26.5q31 0 63 -7.5t58 -24t43 -44.5t17 -68q0 -82 -80.5 -128t-257.5 -50q-3 -20 -3 -29q0 -43 24 -69t78 -26q39 0 71 17t66 59l75 -62q-49 -63 -102.5 -88.5t-118.5 -25.5zM309 440
q-50 0 -85 -33t-46 -90l-5 -25q64 3 104.5 10.5t63 18.5t30.5 26t8 34q0 18 -6.5 29.5t-16.5 18t-22.5 9t-24.5 2.5zM213 753l109 51l66 -189l-76 -34z" />
    <glyph glyph-name="eacute" unicode="&#xe9;" horiz-adv-x="513" 
d="M250 -12q-106 0 -159.5 59t-53.5 164q0 63 20 121.5t56.5 103.5t88 71.5t115.5 26.5q31 0 63 -7.5t58 -24t43 -44.5t17 -68q0 -82 -80.5 -128t-257.5 -50q-3 -20 -3 -29q0 -43 24 -69t78 -26q39 0 71 17t66 59l75 -62q-49 -63 -102.5 -88.5t-118.5 -25.5zM309 440
q-50 0 -85 -33t-46 -90l-5 -25q64 3 104.5 10.5t63 18.5t30.5 26t8 34q0 18 -6.5 29.5t-16.5 18t-22.5 9t-24.5 2.5zM349 581l-73 39l115 185l99 -53z" />
    <glyph glyph-name="ecircumflex" unicode="&#xea;" horiz-adv-x="513" 
d="M250 -12q-106 0 -159.5 59t-53.5 164q0 63 20 121.5t56.5 103.5t88 71.5t115.5 26.5q31 0 63 -7.5t58 -24t43 -44.5t17 -68q0 -82 -80.5 -128t-257.5 -50q-3 -20 -3 -29q0 -43 24 -69t78 -26q39 0 71 17t66 59l75 -62q-49 -63 -102.5 -88.5t-118.5 -25.5zM309 440
q-50 0 -85 -33t-46 -90l-5 -25q64 3 104.5 10.5t63 18.5t30.5 26t8 34q0 18 -6.5 29.5t-16.5 18t-22.5 9t-24.5 2.5zM420 786l95 -154l-65 -49l-94 115l-138 -115l-63 49l150 154h115z" />
    <glyph glyph-name="edieresis" unicode="&#xeb;" horiz-adv-x="513" 
d="M250 -12q-106 0 -159.5 59t-53.5 164q0 63 20 121.5t56.5 103.5t88 71.5t115.5 26.5q31 0 63 -7.5t58 -24t43 -44.5t17 -68q0 -82 -80.5 -128t-257.5 -50q-3 -20 -3 -29q0 -43 24 -69t78 -26q39 0 71 17t66 59l75 -62q-49 -63 -102.5 -88.5t-118.5 -25.5zM309 440
q-50 0 -85 -33t-46 -90l-5 -25q64 3 104.5 10.5t63 18.5t30.5 26t8 34q0 18 -6.5 29.5t-16.5 18t-22.5 9t-24.5 2.5zM239 605q-30 0 -43.5 12.5t-13.5 31.5q0 5 1 13t4 22q5 25 22.5 41.5t54.5 16.5q30 0 43.5 -12.5t13.5 -31.5q0 -5 -1 -13t-4 -22q-5 -25 -22.5 -41.5
t-54.5 -16.5zM434 605q-30 0 -43.5 12.5t-13.5 31.5q0 5 1 13t4 22q5 25 22.5 41.5t54.5 16.5q30 0 43.5 -12.5t13.5 -31.5q0 -5 -1 -13t-4 -22q-5 -25 -22.5 -41.5t-54.5 -16.5z" />
    <glyph glyph-name="igrave" unicode="&#xec;" horiz-adv-x="277" 
d="M122 0q-38 0 -60.5 20.5t-22.5 54.5q0 10 3 25l84 422h121l-84 -423h63l-20 -99h-84zM80 753l109 51l66 -189l-76 -34z" />
    <glyph glyph-name="iacute" unicode="&#xed;" horiz-adv-x="277" 
d="M122 0q-38 0 -60.5 20.5t-22.5 54.5q0 10 3 25l84 422h121l-84 -423h63l-20 -99h-84zM216 581l-73 39l115 185l99 -53z" />
    <glyph glyph-name="icircumflex" unicode="&#xee;" horiz-adv-x="277" 
d="M122 0q-38 0 -60.5 20.5t-22.5 54.5q0 10 3 25l84 422h121l-84 -423h63l-20 -99h-84zM287 786l95 -154l-65 -49l-94 115l-138 -115l-63 49l150 154h115z" />
    <glyph glyph-name="idieresis" unicode="&#xef;" horiz-adv-x="277" 
d="M122 0q-38 0 -60.5 20.5t-22.5 54.5q0 10 3 25l84 422h121l-84 -423h63l-20 -99h-84zM106 605q-30 0 -43.5 12.5t-13.5 31.5q0 5 1 13t4 22q5 25 22.5 41.5t54.5 16.5q30 0 43.5 -12.5t13.5 -31.5q0 -5 -1 -13t-4 -22q-5 -25 -22.5 -41.5t-54.5 -16.5zM301 605
q-30 0 -43.5 12.5t-13.5 31.5q0 5 1 13t4 22q5 25 22.5 41.5t54.5 16.5q30 0 43.5 -12.5t13.5 -31.5q0 -5 -1 -13t-4 -22q-5 -25 -22.5 -41.5t-54.5 -16.5z" />
    <glyph glyph-name="eth" unicode="&#xf0;" horiz-adv-x="571" 
d="M438 647q42 -57 66 -132.5t24 -166.5q0 -92 -23 -159.5t-62.5 -112t-92 -66.5t-110.5 -22q-97 0 -150.5 58t-53.5 161q0 61 18 115t49.5 93.5t74 62.5t90.5 23q53 0 86.5 -26.5t47.5 -71.5h8q-8 53 -27.5 101t-47.5 87l-102 -55l-30 57l90 50q-30 32 -60.5 56t-57.5 41
h171q13 -10 25 -21t23 -22l97 55l31 -58zM250 84q48 0 79.5 35t44.5 95l11 53q2 12 3 22.5t1 19.5q0 45 -24 70t-67 25q-48 0 -79.5 -35t-44.5 -95l-11 -53q-2 -12 -3 -22.5t-1 -19.5q0 -45 24 -70t67 -25z" />
    <glyph glyph-name="ntilde" unicode="&#xf1;" horiz-adv-x="580" 
d="M21 0l105 522h121l-23 -116h5q29 62 69.5 95t100.5 33q63 0 95.5 -36t32.5 -102q0 -17 -2.5 -34.5t-6.5 -37.5l-45 -225h58l-20 -99h-84q-36 0 -57 18.5t-21 52.5q0 14 3 28l43 215q6 28 6 55q0 29 -14 45.5t-47 16.5q-26 0 -48 -12.5t-40 -33.5q-20 -23 -34.5 -51
t-20.5 -59l-55 -275h-121zM438 605q-23 0 -40 6.5t-35 15.5q-20 11 -36.5 16.5t-33.5 5.5t-29 -6t-29 -19l-39 59q21 26 48 43t62 17q23 0 40 -6.5t35 -15.5q20 -11 36.5 -16.5t33.5 -5.5t29 6t29 19l39 -59q-21 -26 -48 -43t-62 -17z" />
    <glyph glyph-name="ograve" unicode="&#xf2;" horiz-adv-x="545" 
d="M239 -12q-92 0 -147 56t-55 161q0 69 20 129t56 104.5t85 70t108 25.5q92 0 147 -56t55 -161q0 -69 -20 -129t-56 -104.5t-85.5 -70t-107.5 -25.5zM246 88q45 0 76.5 33t43.5 96l18 87q2 10 3 17.5t1 18.5q0 42 -22.5 68t-66.5 26q-45 0 -76.5 -33t-43.5 -96l-18 -88
q-2 -8 -3 -16t-1 -19q0 -42 22.5 -68t66.5 -26zM209 753l109 51l66 -189l-76 -34z" />
    <glyph glyph-name="oacute" unicode="&#xf3;" horiz-adv-x="545" 
d="M239 -12q-92 0 -147 56t-55 161q0 69 20 129t56 104.5t85 70t108 25.5q92 0 147 -56t55 -161q0 -69 -20 -129t-56 -104.5t-85.5 -70t-107.5 -25.5zM246 88q45 0 76.5 33t43.5 96l18 87q2 10 3 17.5t1 18.5q0 42 -22.5 68t-66.5 26q-45 0 -76.5 -33t-43.5 -96l-18 -88
q-2 -8 -3 -16t-1 -19q0 -42 22.5 -68t66.5 -26zM345 581l-73 39l115 185l99 -53z" />
    <glyph glyph-name="ocircumflex" unicode="&#xf4;" horiz-adv-x="545" 
d="M239 -12q-92 0 -147 56t-55 161q0 69 20 129t56 104.5t85 70t108 25.5q92 0 147 -56t55 -161q0 -69 -20 -129t-56 -104.5t-85.5 -70t-107.5 -25.5zM246 88q45 0 76.5 33t43.5 96l18 87q2 10 3 17.5t1 18.5q0 42 -22.5 68t-66.5 26q-45 0 -76.5 -33t-43.5 -96l-18 -88
q-2 -8 -3 -16t-1 -19q0 -42 22.5 -68t66.5 -26zM416 786l95 -154l-65 -49l-94 115l-138 -115l-63 49l150 154h115z" />
    <glyph glyph-name="otilde" unicode="&#xf5;" horiz-adv-x="545" 
d="M239 -12q-92 0 -147 56t-55 161q0 69 20 129t56 104.5t85 70t108 25.5q92 0 147 -56t55 -161q0 -69 -20 -129t-56 -104.5t-85.5 -70t-107.5 -25.5zM246 88q45 0 76.5 33t43.5 96l18 87q2 10 3 17.5t1 18.5q0 42 -22.5 68t-66.5 26q-45 0 -76.5 -33t-43.5 -96l-18 -88
q-2 -8 -3 -16t-1 -19q0 -42 22.5 -68t66.5 -26zM411 605q-23 0 -40 6.5t-35 15.5q-20 11 -36.5 16.5t-33.5 5.5t-29 -6t-29 -19l-39 59q21 26 48 43t62 17q23 0 40 -6.5t35 -15.5q20 -11 36.5 -16.5t33.5 -5.5t29 6t29 19l39 -59q-21 -26 -48 -43t-62 -17z" />
    <glyph glyph-name="odieresis" unicode="&#xf6;" horiz-adv-x="545" 
d="M239 -12q-92 0 -147 56t-55 161q0 69 20 129t56 104.5t85 70t108 25.5q92 0 147 -56t55 -161q0 -69 -20 -129t-56 -104.5t-85.5 -70t-107.5 -25.5zM246 88q45 0 76.5 33t43.5 96l18 87q2 10 3 17.5t1 18.5q0 42 -22.5 68t-66.5 26q-45 0 -76.5 -33t-43.5 -96l-18 -88
q-2 -8 -3 -16t-1 -19q0 -42 22.5 -68t66.5 -26zM235 605q-30 0 -43.5 12.5t-13.5 31.5q0 5 1 13t4 22q5 25 22.5 41.5t54.5 16.5q30 0 43.5 -12.5t13.5 -31.5q0 -5 -1 -13t-4 -22q-5 -25 -22.5 -41.5t-54.5 -16.5zM430 605q-30 0 -43.5 12.5t-13.5 31.5q0 5 1 13t4 22
q5 25 22.5 41.5t54.5 16.5q30 0 43.5 -12.5t13.5 -31.5q0 -5 -1 -13t-4 -22q-5 -25 -22.5 -41.5t-54.5 -16.5z" />
    <glyph glyph-name="divide" unicode="&#xf7;" horiz-adv-x="600" 
d="M69 255l21 102h459l-21 -102h-459zM259 36q-38 0 -53 14t-15 33q0 7 1.5 18.5t3.5 20.5q6 28 25.5 45t60.5 17q38 0 53 -13.5t15 -33.5q0 -7 -1.5 -18.5t-3.5 -20.5q-6 -28 -25.5 -45t-60.5 -17zM336 428q-38 0 -53 13.5t-15 33.5q0 7 1.5 18.5t3.5 20.5q6 28 25.5 45
t60.5 17q38 0 53 -14t15 -33q0 -7 -1.5 -18.5t-3.5 -20.5q-6 -28 -25.5 -45t-60.5 -17z" />
    <glyph glyph-name="oslash" unicode="&#xf8;" horiz-adv-x="545" 
d="M-29 14l85 87q-19 44 -19 104q0 69 20 129t56 104.5t85 70t108 25.5q82 0 134 -44l72 75l62 -56l-85 -88q19 -42 19 -104q0 -69 -20 -129t-56 -104.5t-85.5 -70t-107.5 -25.5q-81 0 -134 44l-72 -74zM245 84q45 0 78.5 34.5t45.5 97.5q2 10 4.5 23t5 25t4 20.5t1.5 10.5
q1 5 2 15t1 13l-209 -211q11 -13 28 -20.5t39 -7.5zM300 438q-45 0 -77.5 -34t-45.5 -98q-2 -10 -5 -23t-5 -25l-3.5 -21t-1.5 -11q-1 -3 -2.5 -13t-0.5 -15l208 213q-11 12 -28 19.5t-39 7.5z" />
    <glyph glyph-name="ugrave" unicode="&#xf9;" horiz-adv-x="576" 
d="M241 522l-63 -314q-6 -29 -6 -53q0 -30 13.5 -47t43.5 -17q26 0 47.5 12.5t39.5 33.5q42 48 54 110l55 275h121l-85 -423h63l-19 -99h-86q-36 0 -58.5 19t-22.5 54q0 8 1 16t2 14l3 13h-6q-29 -61 -68 -94.5t-97 -33.5q-62 0 -94 36t-32 102q0 18 2 35.5t6 37.5l65 323
h121zM224 753l109 51l66 -189l-76 -34z" />
    <glyph glyph-name="uacute" unicode="&#xfa;" horiz-adv-x="576" 
d="M241 522l-63 -314q-6 -29 -6 -53q0 -30 13.5 -47t43.5 -17q26 0 47.5 12.5t39.5 33.5q42 48 54 110l55 275h121l-85 -423h63l-19 -99h-86q-36 0 -58.5 19t-22.5 54q0 8 1 16t2 14l3 13h-6q-29 -61 -68 -94.5t-97 -33.5q-62 0 -94 36t-32 102q0 18 2 35.5t6 37.5l65 323
h121zM360 581l-73 39l115 185l99 -53z" />
    <glyph glyph-name="ucircumflex" unicode="&#xfb;" horiz-adv-x="576" 
d="M241 522l-63 -314q-6 -29 -6 -53q0 -30 13.5 -47t43.5 -17q26 0 47.5 12.5t39.5 33.5q42 48 54 110l55 275h121l-85 -423h63l-19 -99h-86q-36 0 -58.5 19t-22.5 54q0 8 1 16t2 14l3 13h-6q-29 -61 -68 -94.5t-97 -33.5q-62 0 -94 36t-32 102q0 18 2 35.5t6 37.5l65 323
h121zM431 786l95 -154l-65 -49l-94 115l-138 -115l-63 49l150 154h115z" />
    <glyph glyph-name="udieresis" unicode="&#xfc;" horiz-adv-x="576" 
d="M241 522l-63 -314q-6 -29 -6 -53q0 -30 13.5 -47t43.5 -17q26 0 47.5 12.5t39.5 33.5q42 48 54 110l55 275h121l-85 -423h63l-19 -99h-86q-36 0 -58.5 19t-22.5 54q0 8 1 16t2 14l3 13h-6q-29 -61 -68 -94.5t-97 -33.5q-62 0 -94 36t-32 102q0 18 2 35.5t6 37.5l65 323
h121zM250 605q-30 0 -43.5 12.5t-13.5 31.5q0 5 1 13t4 22q5 25 22.5 41.5t54.5 16.5q30 0 43.5 -12.5t13.5 -31.5q0 -5 -1 -13t-4 -22q-5 -25 -22.5 -41.5t-54.5 -16.5zM445 605q-30 0 -43.5 12.5t-13.5 31.5q0 5 1 13t4 22q5 25 22.5 41.5t54.5 16.5q30 0 43.5 -12.5
t13.5 -31.5q0 -5 -1 -13t-4 -22q-5 -25 -22.5 -41.5t-54.5 -16.5z" />
    <glyph glyph-name="yacute" unicode="&#xfd;" horiz-adv-x="502" 
d="M417 522h129l-330 -616q-14 -27 -29.5 -47t-34.5 -33t-43.5 -19.5t-56.5 -6.5h-78l19 99h96l39 75l-76 548h120l25 -214l18 -194h5l90 194zM317 581l-73 39l115 185l99 -53z" />
    <glyph glyph-name="thorn" unicode="&#xfe;" horiz-adv-x="580" 
d="M169 740h121l-67 -337h5q32 64 71 97.5t99 33.5q36 0 63.5 -14t45.5 -38.5t27 -59t9 -75.5q0 -76 -18 -141.5t-50.5 -114t-78 -76t-99.5 -27.5q-53 0 -89 28t-43 73h-5l-58 -289h-121zM270 89q103 0 129 129l14 72q2 11 4 27t2 28q0 40 -19.5 64t-56.5 24
q-29 0 -52.5 -14.5t-40.5 -34.5q-20 -22 -33 -50.5t-20 -60.5l-18 -89q-8 -40 17.5 -67.5t73.5 -27.5z" />
    <glyph glyph-name="ydieresis" unicode="&#xff;" horiz-adv-x="502" 
d="M417 522h129l-330 -616q-14 -27 -29.5 -47t-34.5 -33t-43.5 -19.5t-56.5 -6.5h-78l19 99h96l39 75l-76 548h120l25 -214l18 -194h5l90 194zM207 605q-30 0 -43.5 12.5t-13.5 31.5q0 5 1 13t4 22q5 25 22.5 41.5t54.5 16.5q30 0 43.5 -12.5t13.5 -31.5q0 -5 -1 -13t-4 -22
q-5 -25 -22.5 -41.5t-54.5 -16.5zM402 605q-30 0 -43.5 12.5t-13.5 31.5q0 5 1 13t4 22q5 25 22.5 41.5t54.5 16.5q30 0 43.5 -12.5t13.5 -31.5q0 -5 -1 -13t-4 -22q-5 -25 -22.5 -41.5t-54.5 -16.5z" />
    <glyph glyph-name="Amacron" unicode="&#x100;" horiz-adv-x="648" 
d="M448 0l-19 180h-237l-89 -180h-135l363 698h162l83 -698h-128zM392 583h-7l-142 -296h177zM305 884h276l-19 -91h-276z" />
    <glyph glyph-name="amacron" unicode="&#x101;" 
d="M432 0q-36 0 -59 19t-23 53q0 8 1.5 17t2.5 14l3 16h-5q-32 -64 -71 -97.5t-99 -33.5q-36 0 -63.5 13.5t-45.5 38.5t-27 59t-9 76q0 76 18 141.5t50.5 114t78 76t99.5 27.5q53 0 89 -28t43 -73h5l18 89h121l-85 -423h63l-19 -99h-86zM237 89q29 0 52.5 14.5t40.5 34.5
q20 22 33 50.5t20 60.5l18 89q8 40 -17.5 67.5t-73.5 27.5q-103 0 -129 -129l-14 -72q-2 -11 -4 -27t-2 -28q0 -40 19.5 -64t56.5 -24zM231 720h276l-19 -91h-276z" />
    <glyph glyph-name="Abreve" unicode="&#x102;" horiz-adv-x="648" 
d="M448 0l-19 180h-237l-89 -180h-135l363 698h162l83 -698h-128zM392 583h-7l-142 -296h177zM420 747q-41 0 -68.5 14.5t-45.5 37.5t-28.5 51.5t-15.5 56.5l70 35l15 -34q16 -34 32 -52.5t47 -18.5q27 0 48.5 17.5t50.5 55.5l25 32l73 -38q-16 -29 -35 -57t-43 -50t-55 -36
t-70 -14z" />
    <glyph glyph-name="abreve" unicode="&#x103;" 
d="M432 0q-36 0 -59 19t-23 53q0 8 1.5 17t2.5 14l3 16h-5q-32 -64 -71 -97.5t-99 -33.5q-36 0 -63.5 13.5t-45.5 38.5t-27 59t-9 76q0 76 18 141.5t50.5 114t78 76t99.5 27.5q53 0 89 -28t43 -73h5l18 89h121l-85 -423h63l-19 -99h-86zM237 89q29 0 52.5 14.5t40.5 34.5
q20 22 33 50.5t20 60.5l18 89q8 40 -17.5 67.5t-73.5 27.5q-103 0 -129 -129l-14 -72q-2 -11 -4 -27t-2 -28q0 -40 19.5 -64t56.5 -24zM345 584q-41 0 -68.5 14.5t-45.5 37.5t-28.5 51.5t-15.5 56.5l70 35l15 -34q16 -34 32 -52.5t47 -18.5q27 0 48.5 17.5t50.5 55.5l25 32
l73 -38q-16 -29 -35 -57t-43 -50t-55 -36t-70 -14z" />
    <glyph glyph-name="Aogonek" unicode="&#x104;" horiz-adv-x="648" 
d="M331 698h162l83 -698q-41 -25 -64.5 -43t-35.5 -31.5t-15 -23t-3 -16.5q0 -14 8 -22t26 -8q15 0 29 6t25 21l48 -48q-17 -20 -45 -32.5t-72 -12.5q-46 0 -79 19.5t-33 60.5q0 39 32.5 71.5t101.5 53.5l-1 5h-50l-19 180h-237l-89 -180h-135zM392 583h-7l-142 -296h177z
" />
    <glyph glyph-name="aogonek" unicode="&#x105;" 
d="M518 0q-41 -25 -64.5 -43t-35.5 -31.5t-15.5 -23t-3.5 -16.5q0 -14 8.5 -22t26.5 -8q14 0 28.5 6t25.5 21l47 -48q-17 -20 -44.5 -32.5t-71.5 -12.5q-46 0 -79 19.5t-33 60.5q0 39 32.5 71.5t101.5 53.5l-1 5h-8q-36 0 -59 19t-23 53q0 8 1.5 17t2.5 14l3 16h-5
q-32 -64 -71 -97.5t-99 -33.5q-36 0 -63.5 13.5t-45.5 38.5t-27 59t-9 76q0 76 18 141.5t50.5 114t78 76t99.5 27.5q53 0 89 -28t43 -73h5l18 89h121l-85 -423h63zM237 89q29 0 52.5 14.5t40.5 34.5q20 22 33 50.5t20 60.5l18 89q8 40 -17.5 67.5t-73.5 27.5
q-103 0 -129 -129l-14 -72q-2 -11 -4 -27t-2 -28q0 -40 19.5 -64t56.5 -24z" />
    <glyph glyph-name="Cacute" unicode="&#x106;" horiz-adv-x="625" 
d="M301 -12q-54 0 -99 18t-77.5 53.5t-50.5 88.5t-18 122q0 92 26.5 172t73.5 139.5t111.5 94t140.5 34.5q91 0 149 -43t83 -124l-112 -48q-14 46 -43 74t-87 28q-73 0 -121 -50t-65 -135l-23 -112q-4 -17 -5 -30t-1 -24q0 -69 33 -107t96 -38q62 0 100 30.5t65 80.5
l105 -49q-47 -90 -118 -132.5t-163 -42.5zM438 744l-73 39l115 185l99 -53z" />
    <glyph glyph-name="cacute" unicode="&#x107;" horiz-adv-x="492" 
d="M237 -12q-43 0 -79.5 13.5t-63.5 40.5t-42 69t-15 99q0 69 20 128.5t56 103t86 68t109 24.5q73 0 122.5 -36t60.5 -95l-102 -40q-11 33 -29 52t-59 19q-98 0 -121 -121l-18 -87q-5 -23 -5 -43q0 -42 22 -68.5t69 -26.5q39 0 63.5 22.5t48.5 65.5l93 -44
q-34 -71 -88.5 -107.5t-127.5 -36.5zM338 581l-73 39l115 185l99 -53z" />
    <glyph glyph-name="Ccircumflex" unicode="&#x108;" horiz-adv-x="625" 
d="M301 -12q-54 0 -99 18t-77.5 53.5t-50.5 88.5t-18 122q0 92 26.5 172t73.5 139.5t111.5 94t140.5 34.5q91 0 149 -43t83 -124l-112 -48q-14 46 -43 74t-87 28q-73 0 -121 -50t-65 -135l-23 -112q-4 -17 -5 -30t-1 -24q0 -69 33 -107t96 -38q62 0 100 30.5t65 80.5
l105 -49q-47 -90 -118 -132.5t-163 -42.5zM510 948l95 -154l-65 -49l-94 115l-138 -115l-63 49l150 154h115z" />
    <glyph glyph-name="ccircumflex" unicode="&#x109;" horiz-adv-x="492" 
d="M237 -12q-43 0 -79.5 13.5t-63.5 40.5t-42 69t-15 99q0 69 20 128.5t56 103t86 68t109 24.5q73 0 122.5 -36t60.5 -95l-102 -40q-11 33 -29 52t-59 19q-98 0 -121 -121l-18 -87q-5 -23 -5 -43q0 -42 22 -68.5t69 -26.5q39 0 63.5 22.5t48.5 65.5l93 -44
q-34 -71 -88.5 -107.5t-127.5 -36.5zM409 786l95 -154l-65 -49l-94 115l-138 -115l-63 49l150 154h115z" />
    <glyph glyph-name="Cdotaccent" unicode="&#x10a;" horiz-adv-x="625" 
d="M301 -12q-54 0 -99 18t-77.5 53.5t-50.5 88.5t-18 122q0 92 26.5 172t73.5 139.5t111.5 94t140.5 34.5q91 0 149 -43t83 -124l-112 -48q-14 46 -43 74t-87 28q-73 0 -121 -50t-65 -135l-23 -112q-4 -17 -5 -30t-1 -24q0 -69 33 -107t96 -38q62 0 100 30.5t65 80.5
l105 -49q-47 -90 -118 -132.5t-163 -42.5zM428 762q-36 0 -51 14.5t-15 37.5q0 5 1 12t5 24q6 28 23.5 45t58.5 17q36 0 51 -14.5t15 -37.5q0 -5 -1 -12t-5 -24q-6 -28 -23.5 -45t-58.5 -17z" />
    <glyph glyph-name="cdotaccent" unicode="&#x10b;" horiz-adv-x="492" 
d="M237 -12q-43 0 -79.5 13.5t-63.5 40.5t-42 69t-15 99q0 69 20 128.5t56 103t86 68t109 24.5q73 0 122.5 -36t60.5 -95l-102 -40q-11 33 -29 52t-59 19q-98 0 -121 -121l-18 -87q-5 -23 -5 -43q0 -42 22 -68.5t69 -26.5q39 0 63.5 22.5t48.5 65.5l93 -44
q-34 -71 -88.5 -107.5t-127.5 -36.5zM327 598q-36 0 -51 14.5t-15 37.5q0 5 1 12t5 24q6 28 23.5 45t58.5 17q36 0 51 -14.5t15 -37.5q0 -5 -1 -12t-5 -24q-6 -28 -23.5 -45t-58.5 -17z" />
    <glyph glyph-name="Ccaron" unicode="&#x10c;" horiz-adv-x="625" 
d="M301 -12q-54 0 -99 18t-77.5 53.5t-50.5 88.5t-18 122q0 92 26.5 172t73.5 139.5t111.5 94t140.5 34.5q91 0 149 -43t83 -124l-112 -48q-14 46 -43 74t-87 28q-73 0 -121 -50t-65 -135l-23 -112q-4 -17 -5 -30t-1 -24q0 -69 33 -107t96 -38q62 0 100 30.5t65 80.5
l105 -49q-47 -90 -118 -132.5t-163 -42.5zM366 754l-95 154l65 49l94 -115l138 115l63 -49l-150 -154h-115z" />
    <glyph glyph-name="ccaron" unicode="&#x10d;" horiz-adv-x="492" 
d="M237 -12q-43 0 -79.5 13.5t-63.5 40.5t-42 69t-15 99q0 69 20 128.5t56 103t86 68t109 24.5q73 0 122.5 -36t60.5 -95l-102 -40q-11 33 -29 52t-59 19q-98 0 -121 -121l-18 -87q-5 -23 -5 -43q0 -42 22 -68.5t69 -26.5q39 0 63.5 22.5t48.5 65.5l93 -44
q-34 -71 -88.5 -107.5t-127.5 -36.5zM265 591l-95 154l65 49l94 -115l138 115l63 -49l-150 -154h-115z" />
    <glyph glyph-name="Dcaron" unicode="&#x10e;" horiz-adv-x="673" 
d="M167 698h218q121 0 190.5 -66.5t69.5 -197.5q0 -89 -24 -168t-69.5 -138t-113 -93.5t-154.5 -34.5h-257zM293 112q75 0 127 45.5t70 136.5l20 100q3 16 4.5 32t1.5 27q0 69 -34 101t-91 32h-120l-96 -474h118zM343 754l-95 154l65 49l94 -115l138 115l63 -49l-150 -154
h-115z" />
    <glyph glyph-name="dcaron" unicode="&#x10f;" 
d="M432 0q-36 0 -59 19t-23 53q0 8 1.5 17t2.5 14l3 16h-5q-32 -64 -71 -97.5t-99 -33.5q-36 0 -63.5 13.5t-45.5 38.5t-27 59t-9 76q0 76 18 141.5t50.5 114t78 76t99.5 27.5q53 0 89 -28t43 -73h5l62 307h121l-129 -641h63l-19 -99h-86zM237 89q29 0 52.5 14.5t40.5 34.5
q20 22 33 50.5t20 60.5l18 89q8 40 -17.5 67.5t-73.5 27.5q-103 0 -129 -129l-14 -72q-2 -11 -4 -27t-2 -28q0 -40 19.5 -64t56.5 -24zM706 534h-84l45 206h138z" />
    <glyph glyph-name="Dcroat" unicode="&#x110;" horiz-adv-x="678" 
d="M94 309h-76l20 97h76l58 292h218q121 0 190.5 -66.5t69.5 -197.5q0 -89 -24 -168t-69.5 -138t-113 -93.5t-154.5 -34.5h-257zM298 112q75 0 127 45.5t70 136.5l20 100q3 16 4.5 32t1.5 27q0 69 -34 101t-91 32h-120l-36 -180h118l-20 -97h-118l-40 -197h118z" />
    <glyph glyph-name="dcroat" unicode="&#x111;" horiz-adv-x="591" 
d="M432 0q-36 0 -59 19t-23 53q0 8 1.5 17t2.5 14l3 16h-5q-32 -64 -71 -97.5t-99 -33.5q-36 0 -63.5 13.5t-45.5 38.5t-27 59t-9 76q0 76 18 141.5t50.5 114t78 76t99.5 27.5q53 0 89 -28t43 -73h5l33 163h-150l17 85h150l12 59h121l-12 -59h59l-18 -85h-58l-100 -497h63
l-19 -99h-86zM237 89q29 0 52.5 14.5t40.5 34.5q20 22 33 50.5t20 60.5l18 89q8 40 -17.5 67.5t-73.5 27.5q-103 0 -129 -129l-14 -72q-2 -11 -4 -27t-2 -28q0 -40 19.5 -64t56.5 -24z" />
    <glyph glyph-name="Emacron" unicode="&#x112;" horiz-adv-x="574" 
d="M27 0l140 698h438l-23 -112h-311l-36 -179h276l-22 -112h-277l-36 -183h323l-22 -112h-450zM282 884h276l-19 -91h-276z" />
    <glyph glyph-name="emacron" unicode="&#x113;" horiz-adv-x="513" 
d="M250 -12q-106 0 -159.5 59t-53.5 164q0 63 20 121.5t56.5 103.5t88 71.5t115.5 26.5q31 0 63 -7.5t58 -24t43 -44.5t17 -68q0 -82 -80.5 -128t-257.5 -50q-3 -20 -3 -29q0 -43 24 -69t78 -26q39 0 71 17t66 59l75 -62q-49 -63 -102.5 -88.5t-118.5 -25.5zM309 440
q-50 0 -85 -33t-46 -90l-5 -25q64 3 104.5 10.5t63 18.5t30.5 26t8 34q0 18 -6.5 29.5t-16.5 18t-22.5 9t-24.5 2.5zM221 720h276l-19 -91h-276z" />
    <glyph glyph-name="Ebreve" unicode="&#x114;" horiz-adv-x="574" 
d="M27 0l140 698h438l-23 -112h-311l-36 -179h276l-22 -112h-277l-36 -183h323l-22 -112h-450zM397 747q-41 0 -68.5 14.5t-45.5 37.5t-28.5 51.5t-15.5 56.5l70 35l15 -34q16 -34 32 -52.5t47 -18.5q27 0 48.5 17.5t50.5 55.5l25 32l73 -38q-16 -29 -35 -57t-43 -50
t-55 -36t-70 -14z" />
    <glyph glyph-name="ebreve" unicode="&#x115;" horiz-adv-x="513" 
d="M250 -12q-106 0 -159.5 59t-53.5 164q0 63 20 121.5t56.5 103.5t88 71.5t115.5 26.5q31 0 63 -7.5t58 -24t43 -44.5t17 -68q0 -82 -80.5 -128t-257.5 -50q-3 -20 -3 -29q0 -43 24 -69t78 -26q39 0 71 17t66 59l75 -62q-49 -63 -102.5 -88.5t-118.5 -25.5zM309 440
q-50 0 -85 -33t-46 -90l-5 -25q64 3 104.5 10.5t63 18.5t30.5 26t8 34q0 18 -6.5 29.5t-16.5 18t-22.5 9t-24.5 2.5zM335 584q-41 0 -68.5 14.5t-45.5 37.5t-28.5 51.5t-15.5 56.5l70 35l15 -34q16 -34 32 -52.5t47 -18.5q27 0 48.5 17.5t50.5 55.5l25 32l73 -38
q-16 -29 -35 -57t-43 -50t-55 -36t-70 -14z" />
    <glyph glyph-name="Edotaccent" unicode="&#x116;" horiz-adv-x="574" 
d="M27 0l140 698h438l-23 -112h-311l-36 -179h276l-22 -112h-277l-36 -183h323l-22 -112h-450zM400 762q-36 0 -51 14.5t-15 37.5q0 5 1 12t5 24q6 28 23.5 45t58.5 17q36 0 51 -14.5t15 -37.5q0 -5 -1 -12t-5 -24q-6 -28 -23.5 -45t-58.5 -17z" />
    <glyph glyph-name="edotaccent" unicode="&#x117;" horiz-adv-x="513" 
d="M250 -12q-106 0 -159.5 59t-53.5 164q0 63 20 121.5t56.5 103.5t88 71.5t115.5 26.5q31 0 63 -7.5t58 -24t43 -44.5t17 -68q0 -82 -80.5 -128t-257.5 -50q-3 -20 -3 -29q0 -43 24 -69t78 -26q39 0 71 17t66 59l75 -62q-49 -63 -102.5 -88.5t-118.5 -25.5zM309 440
q-50 0 -85 -33t-46 -90l-5 -25q64 3 104.5 10.5t63 18.5t30.5 26t8 34q0 18 -6.5 29.5t-16.5 18t-22.5 9t-24.5 2.5zM338 598q-36 0 -51 14.5t-15 37.5q0 5 1 12t5 24q6 28 23.5 45t58.5 17q36 0 51 -14.5t15 -37.5q0 -5 -1 -12t-5 -24q-6 -28 -23.5 -45t-58.5 -17z" />
    <glyph glyph-name="Eogonek" unicode="&#x118;" horiz-adv-x="574" 
d="M167 698h438l-23 -112h-311l-36 -179h276l-22 -112h-277l-36 -183h323l-22 -112q-41 -25 -64.5 -43t-35.5 -31.5t-15.5 -23t-3.5 -16.5q0 -14 8.5 -22t26.5 -8q14 0 28.5 6t25.5 21l47 -48q-17 -20 -44.5 -32.5t-71.5 -12.5q-46 0 -79 19.5t-33 60.5q0 39 32.5 71.5
t101.5 53.5l-1 5h-372z" />
    <glyph glyph-name="eogonek" unicode="&#x119;" horiz-adv-x="513" 
d="M233 -210q-46 0 -79 19.5t-33 60.5q0 36 30 66t87 49l-1 3q-100 4 -150 63t-50 160q0 63 20 121.5t56.5 103.5t88 71.5t115.5 26.5q31 0 63 -7.5t58 -24t43 -44.5t17 -68q0 -82 -80.5 -128t-257.5 -50q-3 -20 -3 -29q0 -43 24 -69t78 -26q39 0 71 17t66 59l75 -62
q-19 -25 -37 -41t-35.5 -27.5t-34.5 -20.5t-35 -18q-35 -19 -57.5 -34.5t-35 -29t-17.5 -25t-5 -20.5q0 -14 8.5 -22t25.5 -8q15 0 29 6t25 21l48 -48q-17 -20 -45 -32.5t-72 -12.5zM309 440q-50 0 -85 -33t-46 -90l-5 -25q64 3 104.5 10.5t63 18.5t30.5 26t8 34
q0 18 -6.5 29.5t-16.5 18t-22.5 9t-24.5 2.5z" />
    <glyph glyph-name="Ecaron" unicode="&#x11a;" horiz-adv-x="574" 
d="M27 0l140 698h438l-23 -112h-311l-36 -179h276l-22 -112h-277l-36 -183h323l-22 -112h-450zM338 754l-95 154l65 49l94 -115l138 115l63 -49l-150 -154h-115z" />
    <glyph glyph-name="ecaron" unicode="&#x11b;" horiz-adv-x="513" 
d="M250 -12q-106 0 -159.5 59t-53.5 164q0 63 20 121.5t56.5 103.5t88 71.5t115.5 26.5q31 0 63 -7.5t58 -24t43 -44.5t17 -68q0 -82 -80.5 -128t-257.5 -50q-3 -20 -3 -29q0 -43 24 -69t78 -26q39 0 71 17t66 59l75 -62q-49 -63 -102.5 -88.5t-118.5 -25.5zM309 440
q-50 0 -85 -33t-46 -90l-5 -25q64 3 104.5 10.5t63 18.5t30.5 26t8 34q0 18 -6.5 29.5t-16.5 18t-22.5 9t-24.5 2.5zM276 591l-95 154l65 49l94 -115l138 115l63 -49l-150 -154h-115z" />
    <glyph glyph-name="Gcircumflex" unicode="&#x11c;" horiz-adv-x="689" 
d="M483 108h-7q-13 -25 -31 -46.5t-42 -38t-54.5 -26t-66.5 -9.5q-50 0 -91.5 17.5t-71.5 53t-46.5 87.5t-16.5 121q0 93 25.5 173.5t73 140.5t114.5 94.5t150 34.5q92 0 158 -42.5t89 -120.5l-107 -55q-14 51 -52.5 78t-96.5 27q-83 0 -132.5 -50t-66.5 -137l-21 -107
q-6 -29 -6 -58q0 -73 36.5 -108.5t93.5 -35.5q33 0 63 9.5t53.5 26.5t40 41t22.5 53l8 40h-133l21 107h254l-76 -378h-106zM523 948l95 -154l-65 -49l-94 115l-138 -115l-63 49l150 154h115z" />
    <glyph glyph-name="gcircumflex" unicode="&#x11d;" horiz-adv-x="528" 
d="M397 786l95 -154l-65 -49l-94 115l-138 -115l-63 49l150 154h115zM487 -27q0 -34 -13.5 -67t-46.5 -59.5t-90 -42.5t-144 -16q-62 0 -103.5 8.5t-67 24t-36.5 36.5t-11 46q0 47 30 72.5t81 38.5l1 7q-28 8 -41.5 27t-13.5 46q0 42 32 67.5t80 35.5l1 7q-74 39 -74 131
q0 39 14.5 74.5t44 63.5t74 44.5t104.5 16.5q23 0 43 -3.5t37 -8.5h176l-17 -87h-67q13 -24 13 -55q0 -39 -15 -74.5t-44.5 -63.5t-74 -44.5t-104.5 -16.5q-20 0 -36.5 1.5t-32.5 6.5q-23 -7 -37 -20.5t-14 -32.5q0 -17 13.5 -25.5t43.5 -8.5h125q88 0 129 -32.5t41 -96.5z
M267 267q45 0 70 21t33 58q4 20 4.5 28t0.5 13q0 62 -79 62q-45 0 -70 -21t-33 -58q-4 -20 -4.5 -28t-0.5 -13q0 -62 79 -62zM365 -53q0 23 -16 36t-59 13h-174q-20 -12 -28.5 -29t-8.5 -34q0 -26 21 -42.5t74 -16.5h60q72 0 101.5 21t29.5 52z" />
    <glyph glyph-name="Gbreve" unicode="&#x11e;" horiz-adv-x="689" 
d="M483 108h-7q-13 -25 -31 -46.5t-42 -38t-54.5 -26t-66.5 -9.5q-50 0 -91.5 17.5t-71.5 53t-46.5 87.5t-16.5 121q0 93 25.5 173.5t73 140.5t114.5 94.5t150 34.5q92 0 158 -42.5t89 -120.5l-107 -55q-14 51 -52.5 78t-96.5 27q-83 0 -132.5 -50t-66.5 -137l-21 -107
q-6 -29 -6 -58q0 -73 36.5 -108.5t93.5 -35.5q33 0 63 9.5t53.5 26.5t40 41t22.5 53l8 40h-133l21 107h254l-76 -378h-106zM438 747q-41 0 -68.5 14.5t-45.5 37.5t-28.5 51.5t-15.5 56.5l70 35l15 -34q16 -34 32 -52.5t47 -18.5q27 0 48.5 17.5t50.5 55.5l25 32l73 -38
q-16 -29 -35 -57t-43 -50t-55 -36t-70 -14z" />
    <glyph glyph-name="gbreve" unicode="&#x11f;" horiz-adv-x="528" 
d="M312 584q-41 0 -68.5 14.5t-45.5 37.5t-28.5 51.5t-15.5 56.5l70 35l15 -34q16 -34 32 -52.5t47 -18.5q27 0 48.5 17.5t50.5 55.5l25 32l73 -38q-16 -29 -35 -57t-43 -50t-55 -36t-70 -14zM487 -27q0 -34 -13.5 -67t-46.5 -59.5t-90 -42.5t-144 -16q-62 0 -103.5 8.5
t-67 24t-36.5 36.5t-11 46q0 47 30 72.5t81 38.5l1 7q-28 8 -41.5 27t-13.5 46q0 42 32 67.5t80 35.5l1 7q-74 39 -74 131q0 39 14.5 74.5t44 63.5t74 44.5t104.5 16.5q23 0 43 -3.5t37 -8.5h176l-17 -87h-67q13 -24 13 -55q0 -39 -15 -74.5t-44.5 -63.5t-74 -44.5
t-104.5 -16.5q-20 0 -36.5 1.5t-32.5 6.5q-23 -7 -37 -20.5t-14 -32.5q0 -17 13.5 -25.5t43.5 -8.5h125q88 0 129 -32.5t41 -96.5zM267 267q45 0 70 21t33 58q4 20 4.5 28t0.5 13q0 62 -79 62q-45 0 -70 -21t-33 -58q-4 -20 -4.5 -28t-0.5 -13q0 -62 79 -62zM365 -53
q0 23 -16 36t-59 13h-174q-20 -12 -28.5 -29t-8.5 -34q0 -26 21 -42.5t74 -16.5h60q72 0 101.5 21t29.5 52z" />
    <glyph glyph-name="Gdotaccent" unicode="&#x120;" horiz-adv-x="689" 
d="M483 108h-7q-13 -25 -31 -46.5t-42 -38t-54.5 -26t-66.5 -9.5q-50 0 -91.5 17.5t-71.5 53t-46.5 87.5t-16.5 121q0 93 25.5 173.5t73 140.5t114.5 94.5t150 34.5q92 0 158 -42.5t89 -120.5l-107 -55q-14 51 -52.5 78t-96.5 27q-83 0 -132.5 -50t-66.5 -137l-21 -107
q-6 -29 -6 -58q0 -73 36.5 -108.5t93.5 -35.5q33 0 63 9.5t53.5 26.5t40 41t22.5 53l8 40h-133l21 107h254l-76 -378h-106zM441 762q-36 0 -51 14.5t-15 37.5q0 5 1 12t5 24q6 28 23.5 45t58.5 17q36 0 51 -14.5t15 -37.5q0 -5 -1 -12t-5 -24q-6 -28 -23.5 -45t-58.5 -17z
" />
    <glyph glyph-name="gdotaccent" unicode="&#x121;" horiz-adv-x="528" 
d="M487 -27q0 -34 -13.5 -67t-46.5 -59.5t-90 -42.5t-144 -16q-62 0 -103.5 8.5t-67 24t-36.5 36.5t-11 46q0 47 30 72.5t81 38.5l1 7q-28 8 -41.5 27t-13.5 46q0 42 32 67.5t80 35.5l1 7q-74 39 -74 131q0 39 14.5 74.5t44 63.5t74 44.5t104.5 16.5q23 0 43 -3.5t37 -8.5
h176l-17 -87h-67q13 -24 13 -55q0 -39 -15 -74.5t-44.5 -63.5t-74 -44.5t-104.5 -16.5q-20 0 -36.5 1.5t-32.5 6.5q-23 -7 -37 -20.5t-14 -32.5q0 -17 13.5 -25.5t43.5 -8.5h125q88 0 129 -32.5t41 -96.5zM267 267q45 0 70 21t33 58q4 20 4.5 28t0.5 13q0 62 -79 62
q-45 0 -70 -21t-33 -58q-4 -20 -4.5 -28t-0.5 -13q0 -62 79 -62zM365 -53q0 23 -16 36t-59 13h-174q-20 -12 -28.5 -29t-8.5 -34q0 -26 21 -42.5t74 -16.5h60q72 0 101.5 21t29.5 52zM315 598q-36 0 -51 14.5t-15 37.5q0 5 1 12t5 24q6 28 23.5 45t58.5 17q36 0 51 -14.5
t15 -37.5q0 -5 -1 -12t-5 -24q-6 -28 -23.5 -45t-58.5 -17z" />
    <glyph glyph-name="Gcommaaccent" unicode="&#x122;" horiz-adv-x="689" 
d="M483 108h-7q-13 -25 -31 -46.5t-42 -38t-54.5 -26t-66.5 -9.5q-50 0 -91.5 17.5t-71.5 53t-46.5 87.5t-16.5 121q0 93 25.5 173.5t73 140.5t114.5 94.5t150 34.5q92 0 158 -42.5t89 -120.5l-107 -55q-14 51 -52.5 78t-96.5 27q-83 0 -132.5 -50t-66.5 -137l-21 -107
q-6 -29 -6 -58q0 -73 36.5 -108.5t93.5 -35.5q33 0 63 9.5t53.5 26.5t40 41t22.5 53l8 40h-133l21 107h254l-76 -378h-106zM274 -49q57 0 57 -47q0 -5 -0.5 -10t-2.5 -16q-9 -41 -34 -81t-54 -63h-76q28 22 44.5 43t28.5 49q-20 2 -27.5 13t-7.5 28q0 4 0.5 9.5t2.5 16.5
q13 58 69 58z" />
    <glyph glyph-name="gcommaaccent" unicode="&#x123;" horiz-adv-x="528" 
d="M487 -27q0 -34 -13.5 -67t-46.5 -59.5t-90 -42.5t-144 -16q-62 0 -103.5 8.5t-67 24t-36.5 36.5t-11 46q0 47 30 72.5t81 38.5l1 7q-28 8 -41.5 27t-13.5 46q0 42 32 67.5t80 35.5l1 7q-74 39 -74 131q0 39 14.5 74.5t44 63.5t74 44.5t104.5 16.5q23 0 43 -3.5t37 -8.5
h176l-17 -87h-67q13 -24 13 -55q0 -39 -15 -74.5t-44.5 -63.5t-74 -44.5t-104.5 -16.5q-20 0 -36.5 1.5t-32.5 6.5q-23 -7 -37 -20.5t-14 -32.5q0 -17 13.5 -25.5t43.5 -8.5h125q88 0 129 -32.5t41 -96.5zM267 267q45 0 70 21t33 58q4 20 4.5 28t0.5 13q0 62 -79 62
q-45 0 -70 -21t-33 -58q-4 -20 -4.5 -28t-0.5 -13q0 -62 79 -62zM365 -53q0 23 -16 36t-59 13h-174q-20 -12 -28.5 -29t-8.5 -34q0 -26 21 -42.5t74 -16.5h60q72 0 101.5 21t29.5 52zM310 582q-57 0 -57 47q0 5 0.5 10t2.5 16q9 41 34 81t54 63h76q-28 -22 -44.5 -43
t-28.5 -49q20 -2 27.5 -13t7.5 -28q0 -4 -0.5 -9.5t-2.5 -16.5q-13 -58 -69 -58z" />
    <glyph glyph-name="Hcircumflex" unicode="&#x124;" horiz-adv-x="695" 
d="M496 295h-284l-59 -295h-126l140 698h126l-58 -291h284l58 291h126l-140 -698h-126zM526 948l95 -154l-65 -49l-94 115l-138 -115l-63 49l150 154h115z" />
    <glyph glyph-name="hcircumflex" unicode="&#x125;" horiz-adv-x="580" 
d="M169 740h121l-66 -334h5q29 62 69.5 95t100.5 33q63 0 95.5 -36t32.5 -102q0 -17 -2.5 -34.5t-6.5 -37.5l-45 -225h58l-20 -99h-84q-36 0 -57 18.5t-21 52.5q0 14 3 28l43 215q6 28 6 55q0 29 -14 45.5t-47 16.5q-26 0 -48 -12.5t-40 -33.5q-20 -23 -34.5 -51t-20.5 -59
l-55 -275h-121zM321 949l95 -154l-65 -49l-94 115l-138 -115l-63 49l150 154h115z" />
    <glyph glyph-name="Hbar" unicode="&#x126;" horiz-adv-x="702" 
d="M501 295h-284l-59 -295h-126l103 515h-71l19 94h71l18 89h126l-18 -89h284l18 89h126l-18 -89h69l-18 -94h-70l-103 -515h-126zM524 407l22 108h-284l-22 -108h284z" />
    <glyph glyph-name="hbar" unicode="&#x127;" horiz-adv-x="580" 
d="M140 596h-67l17 86h67l12 58h121l-11 -58h141l-17 -86h-141l-38 -190h5q29 62 69.5 95t100.5 33q63 0 95.5 -36t32.5 -102q0 -17 -2.5 -34.5t-6.5 -37.5l-45 -225h58l-20 -99h-84q-36 0 -57 18.5t-21 52.5q0 14 3 28l43 215q6 28 6 55q0 29 -14 45.5t-47 16.5
q-26 0 -48 -12.5t-40 -33.5q-20 -23 -34.5 -51t-20.5 -59l-55 -275h-121z" />
    <glyph glyph-name="Itilde" unicode="&#x128;" horiz-adv-x="406" 
d="M0 0l21 104h88l98 490h-88l21 104h302l-21 -104h-88l-98 -490h88l-21 -104h-302zM384 768q-23 0 -40 6.5t-35 15.5q-20 11 -36.5 16.5t-33.5 5.5t-29 -6t-29 -19l-39 59q21 26 48 43t62 17q23 0 40 -6.5t35 -15.5q20 -11 36.5 -16.5t33.5 -5.5t29 6t29 19l39 -59
q-21 -26 -48 -43t-62 -17z" />
    <glyph glyph-name="itilde" unicode="&#x129;" horiz-adv-x="277" 
d="M122 0q-38 0 -60.5 20.5t-22.5 54.5q0 10 3 25l84 422h121l-84 -423h63l-20 -99h-84zM282 605q-23 0 -40 6.5t-35 15.5q-20 11 -36.5 16.5t-33.5 5.5t-29 -6t-29 -19l-39 59q21 26 48 43t62 17q23 0 40 -6.5t35 -15.5q20 -11 36.5 -16.5t33.5 -5.5t29 6t29 19l39 -59
q-21 -26 -48 -43t-62 -17z" />
    <glyph glyph-name="Imacron" unicode="&#x12a;" horiz-adv-x="406" 
d="M0 0l21 104h88l98 490h-88l21 104h302l-21 -104h-88l-98 -490h88l-21 -104h-302zM189 884h276l-19 -91h-276z" />
    <glyph glyph-name="imacron" unicode="&#x12b;" horiz-adv-x="277" 
d="M122 0q-38 0 -60.5 20.5t-22.5 54.5q0 10 3 25l84 422h121l-84 -423h63l-20 -99h-84zM88 720h276l-19 -91h-276z" />
    <glyph glyph-name="Ibreve" unicode="&#x12c;" horiz-adv-x="406" 
d="M0 0l21 104h88l98 490h-88l21 104h302l-21 -104h-88l-98 -490h88l-21 -104h-302zM304 747q-41 0 -68.5 14.5t-45.5 37.5t-28.5 51.5t-15.5 56.5l70 35l15 -34q16 -34 32 -52.5t47 -18.5q27 0 48.5 17.5t50.5 55.5l25 32l73 -38q-16 -29 -35 -57t-43 -50t-55 -36t-70 -14z
" />
    <glyph glyph-name="ibreve" unicode="&#x12d;" horiz-adv-x="277" 
d="M122 0q-38 0 -60.5 20.5t-22.5 54.5q0 10 3 25l84 422h121l-84 -423h63l-20 -99h-84zM202 584q-41 0 -68.5 14.5t-45.5 37.5t-28.5 51.5t-15.5 56.5l70 35l15 -34q16 -34 32 -52.5t47 -18.5q27 0 48.5 17.5t50.5 55.5l25 32l73 -38q-16 -29 -35 -57t-43 -50t-55 -36
t-70 -14z" />
    <glyph glyph-name="Iogonek" unicode="&#x12e;" horiz-adv-x="406" 
d="M21 104h88l98 490h-88l21 104h302l-21 -104h-88l-98 -490h88l-21 -104q-41 -25 -64.5 -43t-35.5 -31.5t-15 -23t-3 -16.5q0 -14 8 -22t26 -8q15 0 29 6t25 21l48 -48q-17 -20 -45 -32.5t-72 -12.5q-46 0 -79 19.5t-33 60.5q0 39 33 71.5t101 53.5l-1 5h-224z" />
    <glyph glyph-name="iogonek" unicode="&#x12f;" horiz-adv-x="277" 
d="M206 0q-41 -25 -64.5 -43t-35.5 -31.5t-15 -23t-3 -16.5q0 -14 8 -22t26 -8q15 0 29 6t25 21l48 -48q-17 -20 -45 -32.5t-72 -12.5q-46 0 -79 19.5t-33 60.5q0 39 33.5 71.5t102.5 53.5l-1 5h-8q-38 0 -60.5 20.5t-22.5 54.5q0 10 3 25l84 422h121l-84 -423h63zM204 598
q-33 0 -48 13t-15 34q0 15 5 38q6 25 23.5 43.5t60.5 18.5q33 0 48 -13t15 -34q0 -15 -5 -38q-6 -25 -23.5 -43.5t-60.5 -18.5z" />
    <glyph glyph-name="Idotaccent" unicode="&#x130;" horiz-adv-x="406" 
d="M0 0l21 104h88l98 490h-88l21 104h302l-21 -104h-88l-98 -490h88l-21 -104h-302zM307 762q-36 0 -51 14.5t-15 37.5q0 5 1 12t5 24q6 28 23.5 45t58.5 17q36 0 51 -14.5t15 -37.5q0 -5 -1 -12t-5 -24q-6 -28 -23.5 -45t-58.5 -17z" />
    <glyph glyph-name="dotlessi" unicode="&#x131;" horiz-adv-x="277" 
d="M122 0q-38 0 -60.5 20.5t-22.5 54.5q0 10 3 25l84 422h121l-84 -423h63l-20 -99h-84z" />
    <glyph glyph-name="IJ" unicode="&#x132;" horiz-adv-x="640" 
d="M650 698l-96 -481q-22 -107 -92 -168t-181 -61q-48 0 -87 13.5t-67 38t-43.5 58.5t-16.5 76l120 23q0 -48 26.5 -72.5t75.5 -24.5q55 0 91 29t48 91l75 373h-109l21 105h235zM167 698h126l-79 -395h-126z" />
    <glyph glyph-name="ij" unicode="&#x133;" horiz-adv-x="545" 
d="M204 598q-33 0 -48 13t-15 34q0 15 5 38q6 25 23.5 43.5t60.5 18.5q33 0 48 -13t15 -34q0 -15 -5 -38q-6 -25 -23.5 -43.5t-60.5 -18.5zM122 0q-38 0 -60.5 20.5t-22.5 54.5q0 10 3 25l84 422h121l-84 -423h63l-20 -99h-84zM404 522h121l-119 -594q-13 -64 -47.5 -96
t-102.5 -32h-75l20 99h78zM482 598q-33 0 -48 13t-15 34q0 15 5 38q6 25 23.5 43.5t60.5 18.5q33 0 48 -13t15 -34q0 -15 -5 -38q-6 -25 -23.5 -43.5t-60.5 -18.5z" />
    <glyph glyph-name="Jcircumflex" unicode="&#x134;" horiz-adv-x="524" 
d="M533 698l-102 -510q-19 -93 -76 -146.5t-153 -53.5q-47 0 -82.5 14t-60 38.5t-38.5 58t-17 73.5l120 24q3 -43 20.5 -69.5t58.5 -26.5t67.5 25.5t37.5 78.5l78 389h-213l21 105h339zM464 948l95 -154l-65 -49l-94 115l-138 -115l-63 49l150 154h115z" />
    <glyph glyph-name="jcircumflex" unicode="&#x135;" horiz-adv-x="269" 
d="M-74 -101h78l125 623h121l-119 -594q-13 -64 -47.5 -96t-102.5 -32h-75zM291 786l95 -154l-65 -49l-94 115l-138 -115l-63 49l150 154h115z" />
    <glyph glyph-name="Kcommaaccent" unicode="&#x136;" horiz-adv-x="645" 
d="M311 312l-119 -118l-39 -194h-126l140 698h126l-68 -341h7l112 127l206 214h155l-296 -301l173 -397h-139zM274 -49q57 0 57 -47q0 -5 -0.5 -10t-2.5 -16q-9 -41 -34 -81t-54 -63h-76q28 22 44.5 43t28.5 49q-20 2 -27.5 13t-7.5 28q0 4 0.5 9.5t2.5 16.5q13 58 69 58z
" />
    <glyph glyph-name="kcommaaccent" unicode="&#x137;" horiz-adv-x="541" 
d="M169 740h121l-88 -443h6l78 89l140 136h142l-218 -211l82 -212h61l-20 -99h-65q-70 0 -95 72l-58 158l-83 -78l-30 -152h-121zM236 -49q57 0 57 -47q0 -5 -0.5 -10t-2.5 -16q-9 -41 -34 -81t-54 -63h-76q28 22 44.5 43t28.5 49q-20 2 -27.5 13t-7.5 28q0 4 0.5 9.5
t2.5 16.5q13 58 69 58z" />
    <glyph glyph-name="kgreenlandic" unicode="&#x138;" horiz-adv-x="550" 
d="M126 522h121l-47 -234h6l86 92l148 142h143l-226 -217l75 -206h61l-20 -99h-65q-36 0 -58.5 17.5t-35.5 54.5l-56 153l-87 -79l-29 -146h-121z" />
    <glyph glyph-name="Lacute" unicode="&#x139;" horiz-adv-x="504" 
d="M27 0l140 698h126l-117 -586h265l-22 -112h-392zM258 744l-73 39l115 185l99 -53z" />
    <glyph glyph-name="lacute" unicode="&#x13a;" horiz-adv-x="276" 
d="M123 0q-39 0 -61.5 20.5t-22.5 54.5q0 6 0.5 10.5t2.5 13.5l128 641h121l-128 -641h67l-19 -99h-88zM258 781l-73 39l115 185l99 -53z" />
    <glyph glyph-name="Lcommaaccent" unicode="&#x13b;" horiz-adv-x="504" 
d="M27 0l140 698h126l-117 -586h265l-22 -112h-392zM211 -49q57 0 57 -47q0 -5 -0.5 -10t-2.5 -16q-9 -41 -34 -81t-54 -63h-76q28 22 44.5 43t28.5 49q-20 2 -27.5 13t-7.5 28q0 4 0.5 9.5t2.5 16.5q13 58 69 58z" />
    <glyph glyph-name="lcommaaccent" unicode="&#x13c;" horiz-adv-x="276" 
d="M123 0q-39 0 -61.5 20.5t-22.5 54.5q0 6 0.5 10.5t2.5 13.5l128 641h121l-128 -641h67l-19 -99h-88zM114 -49q57 0 57 -47q0 -5 -0.5 -10t-2.5 -16q-9 -41 -34 -81t-54 -63h-76q28 22 44.5 43t28.5 49q-20 2 -27.5 13t-7.5 28q0 4 0.5 9.5t2.5 16.5q13 58 69 58z" />
    <glyph glyph-name="Lcaron" unicode="&#x13d;" horiz-adv-x="504" 
d="M27 0l140 698h126l-117 -586h265l-22 -112h-392zM415 534h-84l45 206h138z" />
    <glyph glyph-name="lcaron" unicode="&#x13e;" horiz-adv-x="276" 
d="M123 0q-39 0 -61.5 20.5t-22.5 54.5q0 6 0.5 10.5t2.5 13.5l128 641h121l-128 -641h67l-19 -99h-88zM396 534h-84l45 206h138z" />
    <glyph glyph-name="Ldot" unicode="&#x13f;" horiz-adv-x="504" 
d="M27 0l140 698h126l-117 -586h265l-22 -112h-392zM405 304q-36 0 -51 14.5t-15 37.5q0 5 1 12t5 24q6 28 23.5 45t58.5 17q36 0 51 -14.5t15 -37.5q0 -5 -1 -12t-5 -24q-6 -28 -23.5 -45t-58.5 -17z" />
    <glyph glyph-name="ldot" unicode="&#x140;" horiz-adv-x="396" 
d="M123 0q-39 0 -61.5 20.5t-22.5 54.5q0 6 0.5 10.5t2.5 13.5l128 641h121l-128 -641h67l-19 -99h-88zM336 268q-36 0 -51 14.5t-15 37.5q0 5 1 12t5 24q6 28 23.5 45t58.5 17q36 0 51 -14.5t15 -37.5q0 -5 -1 -12t-5 -24q-6 -28 -23.5 -45t-58.5 -17z" />
    <glyph glyph-name="Lslash" unicode="&#x141;" horiz-adv-x="514" 
d="M425 0h-392l51 254l-88 -26l20 98l88 27l69 345h126l-61 -305l175 54l-20 -101l-175 -53l-36 -181h265z" />
    <glyph glyph-name="lslash" unicode="&#x142;" horiz-adv-x="285" 
d="M216 0h-89q-39 0 -61 20.5t-22 54.5q0 10 3 25l41 204l-75 -25l19 95l75 25l68 341h121l-59 -297l103 34l-19 -95l-103 -34l-50 -249h67z" />
    <glyph glyph-name="Nacute" unicode="&#x143;" horiz-adv-x="695" 
d="M300 361l-46 147h-5l-102 -508h-120l140 698h138l125 -361l46 -147h5l102 508h120l-140 -698h-138zM461 744l-73 39l115 185l99 -53z" />
    <glyph glyph-name="nacute" unicode="&#x144;" horiz-adv-x="580" 
d="M21 0l105 522h121l-23 -116h5q29 62 69.5 95t100.5 33q63 0 95.5 -36t32.5 -102q0 -17 -2.5 -34.5t-6.5 -37.5l-45 -225h58l-20 -99h-84q-36 0 -57 18.5t-21 52.5q0 14 3 28l43 215q6 28 6 55q0 29 -14 45.5t-47 16.5q-26 0 -48 -12.5t-40 -33.5q-20 -23 -34.5 -51
t-20.5 -59l-55 -275h-121zM372 581l-73 39l115 185l99 -53z" />
    <glyph glyph-name="Ncommaaccent" unicode="&#x145;" horiz-adv-x="695" 
d="M300 361l-46 147h-5l-102 -508h-120l140 698h138l125 -361l46 -147h5l102 508h120l-140 -698h-138zM283 -49q57 0 57 -47q0 -5 -0.5 -10t-2.5 -16q-9 -41 -34 -81t-54 -63h-76q28 22 44.5 43t28.5 49q-20 2 -27.5 13t-7.5 28q0 4 0.5 9.5t2.5 16.5q13 58 69 58z" />
    <glyph glyph-name="ncommaaccent" unicode="&#x146;" horiz-adv-x="580" 
d="M21 0l105 522h121l-23 -116h5q29 62 69.5 95t100.5 33q63 0 95.5 -36t32.5 -102q0 -17 -2.5 -34.5t-6.5 -37.5l-45 -225h58l-20 -99h-84q-36 0 -57 18.5t-21 52.5q0 14 3 28l43 215q6 28 6 55q0 29 -14 45.5t-47 16.5q-26 0 -48 -12.5t-40 -33.5q-20 -23 -34.5 -51
t-20.5 -59l-55 -275h-121zM248 -49q57 0 57 -47q0 -5 -0.5 -10t-2.5 -16q-9 -41 -34 -81t-54 -63h-76q28 22 44.5 43t28.5 49q-20 2 -27.5 13t-7.5 28q0 4 0.5 9.5t2.5 16.5q13 58 69 58z" />
    <glyph glyph-name="Ncaron" unicode="&#x147;" horiz-adv-x="695" 
d="M300 361l-46 147h-5l-102 -508h-120l140 698h138l125 -361l46 -147h5l102 508h120l-140 -698h-138zM389 754l-95 154l65 49l94 -115l138 115l63 -49l-150 -154h-115z" />
    <glyph glyph-name="ncaron" unicode="&#x148;" horiz-adv-x="580" 
d="M21 0l105 522h121l-23 -116h5q29 62 69.5 95t100.5 33q63 0 95.5 -36t32.5 -102q0 -17 -2.5 -34.5t-6.5 -37.5l-45 -225h58l-20 -99h-84q-36 0 -57 18.5t-21 52.5q0 14 3 28l43 215q6 28 6 55q0 29 -14 45.5t-47 16.5q-26 0 -48 -12.5t-40 -33.5q-20 -23 -34.5 -51
t-20.5 -59l-55 -275h-121zM299 591l-95 154l65 49l94 -115l138 115l63 -49l-150 -154h-115z" />
    <glyph glyph-name="napostrophe" unicode="&#x149;" horiz-adv-x="852" 
d="M236 750q37 0 52.5 -17t15.5 -39q0 -16 -5 -39t-16.5 -49t-28.5 -51.5t-39.5 -49.5t-49.5 -43h-90q40 32 67 62.5t47 67.5q-24 5 -35 19.5t-11 31.5q0 7 2 18l4 22q6 29 26.5 48t60.5 19zM293 0l105 522h121l-23 -116h5q29 62 69.5 95t100.5 33q63 0 95.5 -36t32.5 -102
q0 -17 -2.5 -34.5t-6.5 -37.5l-45 -225h58l-20 -99h-84q-36 0 -57 18.5t-21 52.5q0 14 3 28l43 215q6 28 6 55q0 29 -14 45.5t-47 16.5q-26 0 -48 -12.5t-40 -33.5q-20 -23 -34.5 -51t-20.5 -59l-55 -275h-121z" />
    <glyph glyph-name="Eng" unicode="&#x14a;" horiz-adv-x="695" 
d="M27 0l140 698h138l125 -361l46 -147h5l102 508h120l-154 -766q-14 -68 -50.5 -100t-100.5 -32h-77l20 99h84l20 101h-20l-125 361l-46 147h-5l-102 -508h-120z" />
    <glyph glyph-name="eng" unicode="&#x14b;" horiz-adv-x="582" 
d="M312 -101l83 415q6 28 6 55q0 29 -14 45.5t-47 16.5q-26 0 -48 -12.5t-40 -33.5q-20 -23 -34.5 -51t-20.5 -59l-55 -275h-120l104 522h121l-23 -116h5q29 62 69.5 95t100.5 33q63 0 95.5 -36t32.5 -102q0 -17 -2.5 -34.5t-6.5 -37.5l-79 -396q-13 -64 -47.5 -96
t-102.5 -32h-75l20 99h78z" />
    <glyph glyph-name="Omacron" unicode="&#x14c;" horiz-adv-x="691" 
d="M306 -12q-51 0 -96 16.5t-79.5 51t-54.5 87.5t-20 125q0 89 26 169.5t73.5 141t113.5 96t146 35.5q51 0 96 -17t79 -51.5t54 -87t20 -124.5q0 -89 -26 -169.5t-73 -141t-113 -96t-146 -35.5zM315 101q76 0 126 50.5t68 142.5l21 104q4 17 5 31.5t1 26.5q0 68 -33.5 104.5
t-97.5 36.5q-76 0 -126 -50.5t-68 -142.5l-21 -104q-4 -17 -5 -31.5t-1 -26.5q0 -68 33.5 -104.5t97.5 -36.5zM328 884h276l-19 -91h-276z" />
    <glyph glyph-name="omacron" unicode="&#x14d;" horiz-adv-x="545" 
d="M239 -12q-92 0 -147 56t-55 161q0 69 20 129t56 104.5t85 70t108 25.5q92 0 147 -56t55 -161q0 -69 -20 -129t-56 -104.5t-85.5 -70t-107.5 -25.5zM246 88q45 0 76.5 33t43.5 96l18 87q2 10 3 17.5t1 18.5q0 42 -22.5 68t-66.5 26q-45 0 -76.5 -33t-43.5 -96l-18 -88
q-2 -8 -3 -16t-1 -19q0 -42 22.5 -68t66.5 -26zM217 720h276l-19 -91h-276z" />
    <glyph glyph-name="Obreve" unicode="&#x14e;" horiz-adv-x="691" 
d="M306 -12q-51 0 -96 16.5t-79.5 51t-54.5 87.5t-20 125q0 89 26 169.5t73.5 141t113.5 96t146 35.5q51 0 96 -17t79 -51.5t54 -87t20 -124.5q0 -89 -26 -169.5t-73 -141t-113 -96t-146 -35.5zM315 101q76 0 126 50.5t68 142.5l21 104q4 17 5 31.5t1 26.5q0 68 -33.5 104.5
t-97.5 36.5q-76 0 -126 -50.5t-68 -142.5l-21 -104q-4 -17 -5 -31.5t-1 -26.5q0 -68 33.5 -104.5t97.5 -36.5zM443 747q-41 0 -68.5 14.5t-45.5 37.5t-28.5 51.5t-15.5 56.5l70 35l15 -34q16 -34 32 -52.5t47 -18.5q27 0 48.5 17.5t50.5 55.5l25 32l73 -38q-16 -29 -35 -57
t-43 -50t-55 -36t-70 -14z" />
    <glyph glyph-name="obreve" unicode="&#x14f;" horiz-adv-x="545" 
d="M239 -12q-92 0 -147 56t-55 161q0 69 20 129t56 104.5t85 70t108 25.5q92 0 147 -56t55 -161q0 -69 -20 -129t-56 -104.5t-85.5 -70t-107.5 -25.5zM246 88q45 0 76.5 33t43.5 96l18 87q2 10 3 17.5t1 18.5q0 42 -22.5 68t-66.5 26q-45 0 -76.5 -33t-43.5 -96l-18 -88
q-2 -8 -3 -16t-1 -19q0 -42 22.5 -68t66.5 -26zM331 584q-41 0 -68.5 14.5t-45.5 37.5t-28.5 51.5t-15.5 56.5l70 35l15 -34q16 -34 32 -52.5t47 -18.5q27 0 48.5 17.5t50.5 55.5l25 32l73 -38q-16 -29 -35 -57t-43 -50t-55 -36t-70 -14z" />
    <glyph glyph-name="Ohungarumlaut" unicode="&#x150;" horiz-adv-x="691" 
d="M306 -12q-51 0 -96 16.5t-79.5 51t-54.5 87.5t-20 125q0 89 26 169.5t73.5 141t113.5 96t146 35.5q51 0 96 -17t79 -51.5t54 -87t20 -124.5q0 -89 -26 -169.5t-73 -141t-113 -96t-146 -35.5zM315 101q76 0 126 50.5t68 142.5l21 104q4 17 5 31.5t1 26.5q0 68 -33.5 104.5
t-97.5 36.5q-76 0 -126 -50.5t-68 -142.5l-21 -104q-4 -17 -5 -31.5t-1 -26.5q0 -68 33.5 -104.5t97.5 -36.5zM355 745l-68 33l111 187l93 -50zM540 745l-68 33l111 187l93 -50z" />
    <glyph glyph-name="ohungarumlaut" unicode="&#x151;" horiz-adv-x="545" 
d="M239 -12q-92 0 -147 56t-55 161q0 69 20 129t56 104.5t85 70t108 25.5q92 0 147 -56t55 -161q0 -69 -20 -129t-56 -104.5t-85.5 -70t-107.5 -25.5zM246 88q45 0 76.5 33t43.5 96l18 87q2 10 3 17.5t1 18.5q0 42 -22.5 68t-66.5 26q-45 0 -76.5 -33t-43.5 -96l-18 -88
q-2 -8 -3 -16t-1 -19q0 -42 22.5 -68t66.5 -26zM251 582l-68 33l111 187l93 -50zM436 582l-68 33l111 187l93 -50z" />
    <glyph glyph-name="OE" unicode="&#x152;" horiz-adv-x="952" 
d="M407 0q-26 -5 -51.5 -8.5t-49.5 -3.5q-51 0 -96 16.5t-79.5 51t-54.5 87.5t-20 125q0 89 26 169.5t73.5 141t113.5 96t146 35.5q33 0 66 -3t68 -9h434l-23 -112h-311l-36 -179h276l-22 -112h-276l-37 -183h323l-22 -112h-448zM320 101q27 0 55 3t53 10l94 470
q-22 6 -53 9.5t-54 3.5q-88 0 -136.5 -50.5t-67.5 -142.5l-21 -104q-4 -17 -5 -31.5t-1 -26.5q0 -68 34 -104.5t102 -36.5z" />
    <glyph glyph-name="oe" unicode="&#x153;" horiz-adv-x="850" 
d="M246 88q45 0 76.5 33t43.5 96l18 88q2 8 3 16t1 19q0 43 -23 68.5t-66 25.5q-45 0 -76.5 -33t-43.5 -96l-18 -88q-2 -8 -3 -16t-1 -19q0 -42 22.5 -68t66.5 -26zM645 440q-50 0 -85 -33t-46 -90l-5 -25q64 3 104.5 10.5t63 18.5t30.5 26t8 34q0 18 -6.5 29.5t-16.5 18
t-22.5 9t-24.5 2.5zM586 -12q-61 0 -102.5 22t-65.5 70h-6q-33 -46 -74.5 -69t-98.5 -23q-92 0 -147 56t-55 161q0 69 20 129t56 104.5t85 70t108 25.5q53 0 93.5 -21t63.5 -72h6q69 93 184 93q31 0 63 -7.5t58 -24t43 -44.5t17 -68q0 -82 -80.5 -128t-257.5 -50
q-3 -20 -3 -29q0 -43 24 -69t78 -26q39 0 71 17t66 59l75 -62q-49 -63 -102.5 -88.5t-118.5 -25.5z" />
    <glyph glyph-name="Racute" unicode="&#x154;" horiz-adv-x="646" 
d="M153 0h-126l140 698h265q98 0 149 -47.5t51 -128.5q0 -40 -11.5 -77t-34 -68.5t-54.5 -55t-74 -35.5l89 -286h-135l-77 271h-128zM389 379q38 0 65 20t36 62q5 25 8.5 40t3.5 24q0 26 -17.5 43.5t-56.5 17.5h-158l-41 -207h160zM415 744l-73 39l115 185l99 -53z" />
    <glyph glyph-name="racute" unicode="&#x155;" horiz-adv-x="385" 
d="M21 0l105 522h121l-24 -120h6q9 21 23 42t33.5 38.5t44 28.5t55.5 11h27l-25 -119h-35q-68 0 -104.5 -28.5t-48.5 -89.5l-57 -285h-121zM285 581l-73 39l115 185l99 -53z" />
    <glyph glyph-name="Rcommaaccent" unicode="&#x156;" horiz-adv-x="646" 
d="M153 0h-126l140 698h265q98 0 149 -47.5t51 -128.5q0 -40 -11.5 -77t-34 -68.5t-54.5 -55t-74 -35.5l89 -286h-135l-77 271h-128zM389 379q38 0 65 20t36 62q5 25 8.5 40t3.5 24q0 26 -17.5 43.5t-56.5 17.5h-158l-41 -207h160zM268 -49q57 0 57 -47q0 -5 -0.5 -10
t-2.5 -16q-9 -41 -34 -81t-54 -63h-76q28 22 44.5 43t28.5 49q-20 2 -27.5 13t-7.5 28q0 4 0.5 9.5t2.5 16.5q13 58 69 58z" />
    <glyph glyph-name="rcommaaccent" unicode="&#x157;" horiz-adv-x="385" 
d="M21 0l105 522h121l-24 -120h6q9 21 23 42t33.5 38.5t44 28.5t55.5 11h27l-25 -119h-35q-68 0 -104.5 -28.5t-48.5 -89.5l-57 -285h-121zM68 -49q57 0 57 -47q0 -5 -0.5 -10t-2.5 -16q-9 -41 -34 -81t-54 -63h-76q28 22 44.5 43t28.5 49q-20 2 -27.5 13t-7.5 28
q0 4 0.5 9.5t2.5 16.5q13 58 69 58z" />
    <glyph glyph-name="Rcaron" unicode="&#x158;" horiz-adv-x="646" 
d="M153 0h-126l140 698h265q98 0 149 -47.5t51 -128.5q0 -40 -11.5 -77t-34 -68.5t-54.5 -55t-74 -35.5l89 -286h-135l-77 271h-128zM389 379q38 0 65 20t36 62q5 25 8.5 40t3.5 24q0 26 -17.5 43.5t-56.5 17.5h-158l-41 -207h160zM343 754l-95 154l65 49l94 -115l138 115
l63 -49l-150 -154h-115z" />
    <glyph glyph-name="rcaron" unicode="&#x159;" horiz-adv-x="385" 
d="M21 0l105 522h121l-24 -120h6q9 21 23 42t33.5 38.5t44 28.5t55.5 11h27l-25 -119h-35q-68 0 -104.5 -28.5t-48.5 -89.5l-57 -285h-121zM212 591l-95 154l65 49l94 -115l138 115l63 -49l-150 -154h-115z" />
    <glyph glyph-name="Sacute" unicode="&#x15a;" horiz-adv-x="583" 
d="M253 -12q-85 0 -150.5 28.5t-102.5 96.5l96 74q27 -45 65 -65.5t92 -20.5q72 0 109.5 32.5t37.5 81.5q0 35 -23.5 55t-63.5 28l-53 11q-75 16 -118.5 59t-43.5 123q0 46 18.5 86t52 69.5t81.5 46.5t108 17q79 0 139.5 -26t95.5 -74l-91 -81q-26 35 -60 51.5t-89 16.5
q-60 0 -94 -25.5t-34 -69.5q0 -35 21 -53.5t63 -27.5l50 -10q79 -17 125 -61t46 -123q0 -45 -18.5 -88t-54 -76.5t-87 -54t-117.5 -20.5zM380 744l-73 39l115 185l99 -53z" />
    <glyph glyph-name="sacute" unicode="&#x15b;" horiz-adv-x="489" 
d="M211 -12q-63 0 -117.5 23.5t-87.5 69.5l77 71q23 -31 54.5 -48t76.5 -17q49 0 73.5 20t24.5 49q0 19 -12 33t-45 19l-49 7q-65 10 -102 43t-37 96q0 36 12.5 68.5t38.5 57t65.5 39.5t92.5 15q122 0 188 -81l-78 -71q-19 24 -48.5 38.5t-67.5 14.5q-42 0 -63.5 -17.5
t-21.5 -46.5q0 -19 12 -33t44 -19l49 -7q66 -10 103 -43t37 -96q0 -38 -14.5 -72t-42.5 -59t-69 -39.5t-93 -14.5zM307 581l-73 39l115 185l99 -53z" />
    <glyph glyph-name="Scircumflex" unicode="&#x15c;" horiz-adv-x="583" 
d="M253 -12q-85 0 -150.5 28.5t-102.5 96.5l96 74q27 -45 65 -65.5t92 -20.5q72 0 109.5 32.5t37.5 81.5q0 35 -23.5 55t-63.5 28l-53 11q-75 16 -118.5 59t-43.5 123q0 46 18.5 86t52 69.5t81.5 46.5t108 17q79 0 139.5 -26t95.5 -74l-91 -81q-26 35 -60 51.5t-89 16.5
q-60 0 -94 -25.5t-34 -69.5q0 -35 21 -53.5t63 -27.5l50 -10q79 -17 125 -61t46 -123q0 -45 -18.5 -88t-54 -76.5t-87 -54t-117.5 -20.5zM452 948l95 -154l-65 -49l-94 115l-138 -115l-63 49l150 154h115z" />
    <glyph glyph-name="scircumflex" unicode="&#x15d;" horiz-adv-x="489" 
d="M211 -12q-63 0 -117.5 23.5t-87.5 69.5l77 71q23 -31 54.5 -48t76.5 -17q49 0 73.5 20t24.5 49q0 19 -12 33t-45 19l-49 7q-65 10 -102 43t-37 96q0 36 12.5 68.5t38.5 57t65.5 39.5t92.5 15q122 0 188 -81l-78 -71q-19 24 -48.5 38.5t-67.5 14.5q-42 0 -63.5 -17.5
t-21.5 -46.5q0 -19 12 -33t44 -19l49 -7q66 -10 103 -43t37 -96q0 -38 -14.5 -72t-42.5 -59t-69 -39.5t-93 -14.5zM378 786l95 -154l-65 -49l-94 115l-138 -115l-63 49l150 154h115z" />
    <glyph glyph-name="Scedilla" unicode="&#x15e;" horiz-adv-x="583" 
d="M353 597q-60 0 -94 -25.5t-34 -69.5q0 -35 21 -53.5t63 -27.5l50 -10q79 -17 125 -61t46 -123q0 -44 -17.5 -85.5t-50.5 -74.5t-80.5 -54.5t-108.5 -24.5l-18 -45l2 -4q21 6 40 6q26 0 43.5 -14t17.5 -42q0 -24 -10 -42.5t-28 -31t-42.5 -19t-52.5 -6.5q-41 0 -68.5 13
t-39.5 30l48 48q7 -9 22 -18t37 -9q21 0 35 8.5t14 24.5q0 13 -14 23t-49 14l-23 2l25 64q-70 6 -125 34.5t-87 88.5l96 74q27 -45 65 -65.5t92 -20.5q72 0 109.5 32.5t37.5 81.5q0 35 -23.5 55t-63.5 28l-53 11q-75 16 -118.5 59t-43.5 123q0 46 18.5 86t52 69.5t81.5 46.5
t108 17q79 0 139.5 -26t95.5 -74l-91 -81q-26 35 -60 51.5t-89 16.5z" />
    <glyph glyph-name="scedilla" unicode="&#x15f;" horiz-adv-x="489" 
d="M173 -210q-41 0 -68.5 13t-39.5 30l48 48q7 -9 22 -18t37 -9q21 0 35 8.5t14 24.5q0 13 -14 23t-49 14l-23 2l26 65q-48 8 -88.5 31t-66.5 59l77 71q23 -31 54.5 -48t76.5 -17q49 0 73.5 20t24.5 49q0 19 -12 33t-45 19l-49 7q-65 10 -102 43t-37 96q0 36 12.5 68.5
t38.5 57t65.5 39.5t92.5 15q122 0 188 -81l-78 -71q-19 24 -48.5 38.5t-67.5 14.5q-42 0 -63.5 -17.5t-21.5 -46.5q0 -19 12 -33t44 -19l49 -7q66 -10 103 -43t37 -96q0 -38 -14 -71t-41 -58t-66 -40t-89 -16l-17 -45l2 -4q21 6 40 6q26 0 43.5 -14t17.5 -42
q0 -24 -10 -42.5t-28 -31t-42.5 -19t-52.5 -6.5z" />
    <glyph glyph-name="Scaron" unicode="&#x160;" horiz-adv-x="583" 
d="M253 -12q-85 0 -150.5 28.5t-102.5 96.5l96 74q27 -45 65 -65.5t92 -20.5q72 0 109.5 32.5t37.5 81.5q0 35 -23.5 55t-63.5 28l-53 11q-75 16 -118.5 59t-43.5 123q0 46 18.5 86t52 69.5t81.5 46.5t108 17q79 0 139.5 -26t95.5 -74l-91 -81q-26 35 -60 51.5t-89 16.5
q-60 0 -94 -25.5t-34 -69.5q0 -35 21 -53.5t63 -27.5l50 -10q79 -17 125 -61t46 -123q0 -45 -18.5 -88t-54 -76.5t-87 -54t-117.5 -20.5zM308 754l-95 154l65 49l94 -115l138 115l63 -49l-150 -154h-115z" />
    <glyph glyph-name="scaron" unicode="&#x161;" horiz-adv-x="489" 
d="M211 -12q-63 0 -117.5 23.5t-87.5 69.5l77 71q23 -31 54.5 -48t76.5 -17q49 0 73.5 20t24.5 49q0 19 -12 33t-45 19l-49 7q-65 10 -102 43t-37 96q0 36 12.5 68.5t38.5 57t65.5 39.5t92.5 15q122 0 188 -81l-78 -71q-19 24 -48.5 38.5t-67.5 14.5q-42 0 -63.5 -17.5
t-21.5 -46.5q0 -19 12 -33t44 -19l49 -7q66 -10 103 -43t37 -96q0 -38 -14.5 -72t-42.5 -59t-69 -39.5t-93 -14.5zM234 591l-95 154l65 49l94 -115l138 115l63 -49l-150 -154h-115z" />
    <glyph glyph-name="uni0162" unicode="&#x162;" horiz-adv-x="565" 
d="M210 -210q-41 0 -68.5 13t-39.5 30l48 48q7 -9 22 -18t37 -9q21 0 35 8.5t14 24.5q0 13 -14 23t-49 14l-23 2l28 74h-33l118 586h-193l22 112h510l-22 -112h-191l-118 -586h-32l-21 -57l2 -4q21 6 40 6q26 0 43.5 -14t17.5 -42q0 -24 -10 -42.5t-28 -31t-42.5 -19
t-52.5 -6.5z" />
    <glyph glyph-name="uni0163" unicode="&#x163;" horiz-adv-x="343" 
d="M128 -210q-41 0 -68.5 13t-39.5 30l48 48q7 -9 22 -18t37 -9q21 0 35 8.5t14 24.5q0 13 -14 23t-49 14l-23 2l31 80q-59 16 -59 83q0 8 1 18.5t3 21.5l59 294h-75l19 99h37q31 0 41.5 12.5t15.5 39.5l18 91h113l-28 -143h105l-20 -99h-105l-65 -324h99l-20 -99h-81
l-21 -57l2 -4q21 6 40 6q26 0 43.5 -14t17.5 -42q0 -24 -10 -42.5t-28 -31t-42.5 -19t-52.5 -6.5z" />
    <glyph glyph-name="Tcaron" unicode="&#x164;" horiz-adv-x="565" 
d="M411 586l-118 -586h-126l118 586h-193l22 112h510l-22 -112h-191zM324 754l-95 154l65 49l94 -115l138 115l63 -49l-150 -154h-115z" />
    <glyph glyph-name="tcaron" unicode="&#x165;" horiz-adv-x="343" 
d="M170 0q-108 0 -108 89q0 8 1 18.5t3 21.5l59 294h-75l19 99h37q31 0 41.5 12.5t15.5 39.5l18 91h113l-28 -143h105l-20 -99h-105l-65 -324h99l-20 -99h-90zM416 574h-84l45 206h138z" />
    <glyph glyph-name="Tbar" unicode="&#x166;" horiz-adv-x="565" 
d="M353 296l-60 -296h-126l60 296h-146l19 94h145l40 196h-193l22 112h510l-22 -112h-191l-40 -196h147l-19 -94h-146z" />
    <glyph glyph-name="tbar" unicode="&#x167;" horiz-adv-x="351" 
d="M263 0h-90q-108 0 -108 89q0 8 1 18.5t3 21.5l21 104h-61l16 83h62l21 107h-75l19 99h37q31 0 41.5 12.5t15.5 39.5l18 91h113l-28 -143h105l-20 -99h-105l-22 -107h91l-16 -83h-91l-27 -134h99z" />
    <glyph glyph-name="Utilde" unicode="&#x168;" horiz-adv-x="671" 
d="M290 698l-85 -423q-4 -18 -6 -34t-2 -31q0 -54 28.5 -81.5t81.5 -27.5q69 0 106.5 41t55.5 131l85 425h126l-85 -423q-15 -76 -39 -130t-59.5 -89t-84 -51.5t-112.5 -16.5q-109 0 -167 55.5t-58 163.5q0 20 2 43t8 50l79 398h126zM511 768q-23 0 -40 6.5t-35 15.5
q-20 11 -36.5 16.5t-33.5 5.5t-29 -6t-29 -19l-39 59q21 26 48 43t62 17q23 0 40 -6.5t35 -15.5q20 -11 36.5 -16.5t33.5 -5.5t29 6t29 19l39 -59q-21 -26 -48 -43t-62 -17z" />
    <glyph glyph-name="utilde" unicode="&#x169;" horiz-adv-x="576" 
d="M241 522l-63 -314q-6 -29 -6 -53q0 -30 13.5 -47t43.5 -17q26 0 47.5 12.5t39.5 33.5q42 48 54 110l55 275h121l-85 -423h63l-19 -99h-86q-36 0 -58.5 19t-22.5 54q0 8 1 16t2 14l3 13h-6q-29 -61 -68 -94.5t-97 -33.5q-62 0 -94 36t-32 102q0 18 2 35.5t6 37.5l65 323
h121zM426 605q-23 0 -40 6.5t-35 15.5q-20 11 -36.5 16.5t-33.5 5.5t-29 -6t-29 -19l-39 59q21 26 48 43t62 17q23 0 40 -6.5t35 -15.5q20 -11 36.5 -16.5t33.5 -5.5t29 6t29 19l39 -59q-21 -26 -48 -43t-62 -17z" />
    <glyph glyph-name="Umacron" unicode="&#x16a;" horiz-adv-x="671" 
d="M290 698l-85 -423q-4 -18 -6 -34t-2 -31q0 -54 28.5 -81.5t81.5 -27.5q69 0 106.5 41t55.5 131l85 425h126l-85 -423q-15 -76 -39 -130t-59.5 -89t-84 -51.5t-112.5 -16.5q-109 0 -167 55.5t-58 163.5q0 20 2 43t8 50l79 398h126zM316 884h276l-19 -91h-276z" />
    <glyph glyph-name="umacron" unicode="&#x16b;" horiz-adv-x="576" 
d="M241 522l-63 -314q-6 -29 -6 -53q0 -30 13.5 -47t43.5 -17q26 0 47.5 12.5t39.5 33.5q42 48 54 110l55 275h121l-85 -423h63l-19 -99h-86q-36 0 -58.5 19t-22.5 54q0 8 1 16t2 14l3 13h-6q-29 -61 -68 -94.5t-97 -33.5q-62 0 -94 36t-32 102q0 18 2 35.5t6 37.5l65 323
h121zM232 720h276l-19 -91h-276z" />
    <glyph glyph-name="Ubreve" unicode="&#x16c;" horiz-adv-x="671" 
d="M290 698l-85 -423q-4 -18 -6 -34t-2 -31q0 -54 28.5 -81.5t81.5 -27.5q69 0 106.5 41t55.5 131l85 425h126l-85 -423q-15 -76 -39 -130t-59.5 -89t-84 -51.5t-112.5 -16.5q-109 0 -167 55.5t-58 163.5q0 20 2 43t8 50l79 398h126zM431 747q-41 0 -68.5 14.5t-45.5 37.5
t-28.5 51.5t-15.5 56.5l70 35l15 -34q16 -34 32 -52.5t47 -18.5q27 0 48.5 17.5t50.5 55.5l25 32l73 -38q-16 -29 -35 -57t-43 -50t-55 -36t-70 -14z" />
    <glyph glyph-name="ubreve" unicode="&#x16d;" horiz-adv-x="576" 
d="M241 522l-63 -314q-6 -29 -6 -53q0 -30 13.5 -47t43.5 -17q26 0 47.5 12.5t39.5 33.5q42 48 54 110l55 275h121l-85 -423h63l-19 -99h-86q-36 0 -58.5 19t-22.5 54q0 8 1 16t2 14l3 13h-6q-29 -61 -68 -94.5t-97 -33.5q-62 0 -94 36t-32 102q0 18 2 35.5t6 37.5l65 323
h121zM346 584q-41 0 -68.5 14.5t-45.5 37.5t-28.5 51.5t-15.5 56.5l70 35l15 -34q16 -34 32 -52.5t47 -18.5q27 0 48.5 17.5t50.5 55.5l25 32l73 -38q-16 -29 -35 -57t-43 -50t-55 -36t-70 -14z" />
    <glyph glyph-name="Uring" unicode="&#x16e;" horiz-adv-x="671" 
d="M290 698l-85 -423q-4 -18 -6 -34t-2 -31q0 -54 28.5 -81.5t81.5 -27.5q69 0 106.5 41t55.5 131l85 425h126l-85 -423q-15 -76 -39 -130t-59.5 -89t-84 -51.5t-112.5 -16.5q-109 0 -167 55.5t-58 163.5q0 20 2 43t8 50l79 398h126zM425 727q-52 0 -85.5 32.5t-33.5 83.5
q0 35 12 63.5t33 48.5t49.5 31t60.5 11q52 0 85.5 -32.5t33.5 -83.5q0 -35 -12 -63.5t-33 -48.5t-49.5 -31t-60.5 -11zM431 794q25 0 40 14.5t20 37.5q7 31 7 44q0 40 -43 40q-25 0 -40 -14.5t-20 -37.5q-7 -31 -7 -44q0 -40 43 -40z" />
    <glyph glyph-name="uring" unicode="&#x16f;" horiz-adv-x="576" 
d="M241 522l-63 -314q-6 -29 -6 -53q0 -30 13.5 -47t43.5 -17q26 0 47.5 12.5t39.5 33.5q42 48 54 110l55 275h121l-85 -423h63l-19 -99h-86q-36 0 -58.5 19t-22.5 54q0 8 1 16t2 14l3 13h-6q-29 -61 -68 -94.5t-97 -33.5q-62 0 -94 36t-32 102q0 18 2 35.5t6 37.5l65 323
h121zM341 563q-52 0 -85.5 32.5t-33.5 83.5q0 35 12 63.5t33 48.5t49.5 31t60.5 11q52 0 85.5 -32.5t33.5 -83.5q0 -35 -12 -63.5t-33 -48.5t-49.5 -31t-60.5 -11zM347 630q25 0 40 14.5t20 37.5q7 31 7 44q0 40 -43 40q-25 0 -40 -14.5t-20 -37.5q-7 -31 -7 -44
q0 -40 43 -40z" />
    <glyph glyph-name="Uhungarumlaut" unicode="&#x170;" horiz-adv-x="671" 
d="M290 698l-85 -423q-4 -18 -6 -34t-2 -31q0 -54 28.5 -81.5t81.5 -27.5q69 0 106.5 41t55.5 131l85 425h126l-85 -423q-15 -76 -39 -130t-59.5 -89t-84 -51.5t-112.5 -16.5q-109 0 -167 55.5t-58 163.5q0 20 2 43t8 50l79 398h126zM343 745l-68 33l111 187l93 -50z
M528 745l-68 33l111 187l93 -50z" />
    <glyph glyph-name="uhungarumlaut" unicode="&#x171;" horiz-adv-x="576" 
d="M241 522l-63 -314q-6 -29 -6 -53q0 -30 13.5 -47t43.5 -17q26 0 47.5 12.5t39.5 33.5q42 48 54 110l55 275h121l-85 -423h63l-19 -99h-86q-36 0 -58.5 19t-22.5 54q0 8 1 16t2 14l3 13h-6q-29 -61 -68 -94.5t-97 -33.5q-62 0 -94 36t-32 102q0 18 2 35.5t6 37.5l65 323
h121zM266 582l-68 33l111 187l93 -50zM451 582l-68 33l111 187l93 -50z" />
    <glyph glyph-name="Uogonek" unicode="&#x172;" horiz-adv-x="671" 
d="M290 698l-85 -423q-4 -18 -6 -34t-2 -31q0 -54 28.5 -81.5t81.5 -27.5q69 0 106.5 41t55.5 131l85 425h126l-85 -423q-15 -77 -35.5 -124t-46.5 -76.5t-58 -47.5t-71 -38q-34 -17 -55.5 -32.5t-33.5 -28.5t-16.5 -24t-4.5 -18q0 -14 8 -22t26 -8q15 0 29 6t25 21l48 -48
q-17 -20 -45 -32.5t-72 -12.5q-46 0 -79 19.5t-33 60.5q0 35 27.5 65.5t84.5 48.5l-1 4q-106 2 -161.5 57.5t-55.5 161.5q0 20 2 43t8 50l79 398h126z" />
    <glyph glyph-name="uogonek" unicode="&#x173;" horiz-adv-x="576" 
d="M241 522l-63 -314q-6 -29 -6 -53q0 -30 13.5 -47t43.5 -17q26 0 47.5 12.5t39.5 33.5q42 48 54 110l55 275h121l-85 -423h63l-19 -99q-41 -25 -64.5 -43t-35.5 -31.5t-15 -23t-3 -16.5q0 -14 8 -22t26 -8q15 0 29 6t25 21l48 -48q-17 -20 -45 -32.5t-72 -12.5
q-46 0 -79 19.5t-33 60.5q0 39 31.5 71.5t100.5 53.5l-1 5q-40 0 -63.5 20t-23.5 53q0 8 1 16t2 14l3 13h-6q-29 -61 -68 -94.5t-97 -33.5q-62 0 -94 36t-32 102q0 18 2 35.5t6 37.5l65 323h121z" />
    <glyph glyph-name="Wcircumflex" unicode="&#x174;" horiz-adv-x="918" 
d="M131 0l-19 698h125v-301l-6 -266h8l109 275l126 292h140l10 -286l-1 -287h8l93 249l127 324h128l-298 -698h-146l-11 314l-3 243h-7l-95 -230l-140 -327h-148zM642 948l95 -154l-65 -49l-94 115l-138 -115l-63 49l150 154h115z" />
    <glyph glyph-name="wcircumflex" unicode="&#x175;" horiz-adv-x="776" 
d="M61 522h120l7 -208l4 -182h6l69 158l107 232h114l16 -210l11 -183h6l66 163l98 230h120l-239 -522h-131l-18 206l-12 161h-5l-65 -145l-104 -222h-134zM531 786l95 -154l-65 -49l-94 115l-138 -115l-63 49l150 154h115z" />
    <glyph glyph-name="Ycircumflex" unicode="&#x176;" horiz-adv-x="610" 
d="M188 0l55 274l-148 424h129l100 -308h6l216 308h140l-319 -435l-53 -263h-126zM475 948l95 -154l-65 -49l-94 115l-138 -115l-63 49l150 154h115z" />
    <glyph glyph-name="ycircumflex" unicode="&#x177;" horiz-adv-x="502" 
d="M417 522h129l-330 -616q-14 -27 -29.5 -47t-34.5 -33t-43.5 -19.5t-56.5 -6.5h-78l19 99h96l39 75l-76 548h120l25 -214l18 -194h5l90 194zM388 786l95 -154l-65 -49l-94 115l-138 -115l-63 49l150 154h115z" />
    <glyph glyph-name="Ydieresis" unicode="&#x178;" horiz-adv-x="610" 
d="M188 0l55 274l-148 424h129l100 -308h6l216 308h140l-319 -435l-53 -263h-126zM293 768q-30 0 -43.5 12.5t-13.5 31.5q0 5 1 13t4 22q5 25 22.5 41.5t54.5 16.5q30 0 43.5 -12.5t13.5 -31.5q0 -5 -1 -13t-4 -22q-5 -25 -22.5 -41.5t-54.5 -16.5zM488 768
q-30 0 -43.5 12.5t-13.5 31.5q0 5 1 13t4 22q5 25 22.5 41.5t54.5 16.5q30 0 43.5 -12.5t13.5 -31.5q0 -5 -1 -13t-4 -22q-5 -25 -22.5 -41.5t-54.5 -16.5z" />
    <glyph glyph-name="Zacute" unicode="&#x179;" horiz-adv-x="569" 
d="M482 0h-494l23 113l433 473h-325l22 112h476l-23 -113l-434 -473h344zM399 744l-73 39l115 185l99 -53z" />
    <glyph glyph-name="zacute" unicode="&#x17a;" horiz-adv-x="479" 
d="M-10 0l19 99l316 324h-248l19 99h395l-20 -98l-317 -325h265l-20 -99h-409zM320 581l-73 39l115 185l99 -53z" />
    <glyph glyph-name="Zdotaccent" unicode="&#x17b;" horiz-adv-x="569" 
d="M482 0h-494l23 113l433 473h-325l22 112h476l-23 -113l-434 -473h344zM389 762q-36 0 -51 14.5t-15 37.5q0 5 1 12t5 24q6 28 23.5 45t58.5 17q36 0 51 -14.5t15 -37.5q0 -5 -1 -12t-5 -24q-6 -28 -23.5 -45t-58.5 -17z" />
    <glyph glyph-name="zdotaccent" unicode="&#x17c;" horiz-adv-x="479" 
d="M-10 0l19 99l316 324h-248l19 99h395l-20 -98l-317 -325h265l-20 -99h-409zM309 598q-36 0 -51 14.5t-15 37.5q0 5 1 12t5 24q6 28 23.5 45t58.5 17q36 0 51 -14.5t15 -37.5q0 -5 -1 -12t-5 -24q-6 -28 -23.5 -45t-58.5 -17z" />
    <glyph glyph-name="Zcaron" unicode="&#x17d;" horiz-adv-x="569" 
d="M482 0h-494l23 113l433 473h-325l22 112h476l-23 -113l-434 -473h344zM327 754l-95 154l65 49l94 -115l138 115l63 -49l-150 -154h-115z" />
    <glyph glyph-name="zcaron" unicode="&#x17e;" horiz-adv-x="479" 
d="M-10 0l19 99l316 324h-248l19 99h395l-20 -98l-317 -325h265l-20 -99h-409zM247 591l-95 154l65 49l94 -115l138 115l63 -49l-150 -154h-115z" />
    <glyph glyph-name="uni017F" unicode="&#x17f;" horiz-adv-x="299" 
d="M161 -61q-14 -68 -55 -103.5t-116 -35.5h-73l20 99h95l105 524h-74l20 99h74l16 79q14 68 55 103.5t117 35.5h77l-21 -99h-99z" />
    <glyph glyph-name="uni018F" unicode="&#x18f;" horiz-adv-x="691" 
d="M305 -12q-53 0 -98.5 17t-79 51.5t-52.5 86t-19 120.5q0 22 3 43.5t7 42.5l8 38h453q5 22 6 39t1 30q0 65 -36 103t-107 38q-57 0 -98 -29.5t-71 -92.5l-110 49q21 41 50.5 75t67 59t82.5 38.5t96 13.5q57 0 104 -18t80.5 -53t52.5 -85.5t19 -115.5q0 -92 -25.5 -173.5
t-72 -143t-113 -97.5t-148.5 -36zM316 101q149 0 190 185h-319q-2 -11 -3 -23t-1 -23q0 -66 33.5 -102.5t99.5 -36.5z" />
    <glyph glyph-name="florin" unicode="&#x192;" horiz-adv-x="475" 
d="M-40 -35h124l83 304h-107l21 102h113l53 193q17 62 60 98t116 36h107l-20 -99h-130l-62 -228h143l-20 -102h-150l-74 -269q-17 -62 -60 -98t-116 -36h-101z" />
    <glyph glyph-name="Ohorn" unicode="&#x1a0;" horiz-adv-x="691" 
d="M760 806l-20 -99q-9 -46 -31.5 -66t-74.5 -20h-27q27 -35 42 -82.5t15 -108.5q0 -89 -26 -169.5t-73 -141t-113 -96t-146 -35.5q-51 0 -96 16.5t-79.5 51t-54.5 87.5t-20 125q0 89 26 169.5t73.5 141t113.5 96t146 35.5q43 0 82 -12h133l22 108h108zM315 101
q76 0 126 50.5t68 142.5l21 104q4 19 5 32.5t1 25.5q0 68 -33.5 104.5t-97.5 36.5q-76 0 -126 -50.5t-68 -142.5l-21 -104q-4 -19 -5 -32.5t-1 -25.5q0 -68 33.5 -104.5t97.5 -36.5z" />
    <glyph glyph-name="ohorn" unicode="&#x1a1;" horiz-adv-x="545" 
d="M239 -12q-92 0 -147 56t-55 161q0 69 20 129t56 104.5t85 70t108 25.5q42 0 77 -12h82l22 108h107l-19 -96q-9 -42 -27 -64.5t-62 -22.5h-10q32 -53 32 -130q0 -69 -20 -129t-56 -104.5t-85.5 -70t-107.5 -25.5zM246 88q45 0 76.5 33t43.5 96l18 87q2 8 3 16.5t1 19.5
q0 42 -22.5 68t-66.5 26q-45 0 -76.5 -33t-43.5 -96l-18 -88q-2 -6 -3 -15t-1 -20q0 -42 22.5 -68t66.5 -26z" />
    <glyph glyph-name="Uhorn" unicode="&#x1af;" horiz-adv-x="671" 
d="M290 698l-85 -423q-4 -18 -6 -34t-2 -31q0 -54 28.5 -81.5t81.5 -27.5q69 0 106.5 41t55.5 131l85 425h98l22 108h108l-20 -100q-8 -42 -28 -63.5t-69 -21.5l-70 -346q-15 -76 -39 -130t-59.5 -89t-84 -51.5t-112.5 -16.5q-109 0 -167 55.5t-58 163.5q0 20 2 43t8 50
l79 398h126z" />
    <glyph glyph-name="uhorn" unicode="&#x1b0;" horiz-adv-x="579" 
d="M419 0q-36 0 -58.5 19t-22.5 54q0 8 1 16t2 14l3 13h-6q-29 -61 -68 -94.5t-97 -33.5q-62 0 -94 36t-32 102q0 18 2 35.5t6 37.5l65 323h121l-63 -314q-6 -29 -6 -53q0 -30 13.5 -47t43.5 -17q26 0 47.5 12.5t39.5 33.5q42 48 54 110l55 275h95l21 108h108l-20 -100
q-8 -41 -27 -63t-63 -22h-8l-70 -346h63l-19 -99h-86z" />
    <glyph glyph-name="uni01CD" unicode="&#x1cd;" horiz-adv-x="648" 
d="M448 0l-19 180h-237l-89 -180h-135l363 698h162l83 -698h-128zM392 583h-7l-142 -296h177zM361 754l-95 154l65 49l94 -115l138 115l63 -49l-150 -154h-115z" />
    <glyph glyph-name="uni01CE" unicode="&#x1ce;" 
d="M432 0q-36 0 -59 19t-23 53q0 8 1.5 17t2.5 14l3 16h-5q-32 -64 -71 -97.5t-99 -33.5q-36 0 -63.5 13.5t-45.5 38.5t-27 59t-9 76q0 76 18 141.5t50.5 114t78 76t99.5 27.5q53 0 89 -28t43 -73h5l18 89h121l-85 -423h63l-19 -99h-86zM237 89q29 0 52.5 14.5t40.5 34.5
q20 22 33 50.5t20 60.5l18 89q8 40 -17.5 67.5t-73.5 27.5q-103 0 -129 -129l-14 -72q-2 -11 -4 -27t-2 -28q0 -40 19.5 -64t56.5 -24zM286 591l-95 154l65 49l94 -115l138 115l63 -49l-150 -154h-115z" />
    <glyph glyph-name="uni01CF" unicode="&#x1cf;" horiz-adv-x="406" 
d="M0 0l21 104h88l98 490h-88l21 104h302l-21 -104h-88l-98 -490h88l-21 -104h-302zM245 754l-95 154l65 49l94 -115l138 115l63 -49l-150 -154h-115z" />
    <glyph glyph-name="uni01D0" unicode="&#x1d0;" horiz-adv-x="277" 
d="M122 0q-38 0 -60.5 20.5t-22.5 54.5q0 10 3 25l84 422h121l-84 -423h63l-20 -99h-84zM143 591l-95 154l65 49l94 -115l138 115l63 -49l-150 -154h-115z" />
    <glyph glyph-name="uni01D1" unicode="&#x1d1;" horiz-adv-x="691" 
d="M306 -12q-51 0 -96 16.5t-79.5 51t-54.5 87.5t-20 125q0 89 26 169.5t73.5 141t113.5 96t146 35.5q51 0 96 -17t79 -51.5t54 -87t20 -124.5q0 -89 -26 -169.5t-73 -141t-113 -96t-146 -35.5zM315 101q76 0 126 50.5t68 142.5l21 104q4 17 5 31.5t1 26.5q0 68 -33.5 104.5
t-97.5 36.5q-76 0 -126 -50.5t-68 -142.5l-21 -104q-4 -17 -5 -31.5t-1 -26.5q0 -68 33.5 -104.5t97.5 -36.5zM384 754l-95 154l65 49l94 -115l138 115l63 -49l-150 -154h-115z" />
    <glyph glyph-name="uni01D2" unicode="&#x1d2;" horiz-adv-x="545" 
d="M239 -12q-92 0 -147 56t-55 161q0 69 20 129t56 104.5t85 70t108 25.5q92 0 147 -56t55 -161q0 -69 -20 -129t-56 -104.5t-85.5 -70t-107.5 -25.5zM246 88q45 0 76.5 33t43.5 96l18 87q2 10 3 17.5t1 18.5q0 42 -22.5 68t-66.5 26q-45 0 -76.5 -33t-43.5 -96l-18 -88
q-2 -8 -3 -16t-1 -19q0 -42 22.5 -68t66.5 -26zM271 591l-95 154l65 49l94 -115l138 115l63 -49l-150 -154h-115z" />
    <glyph glyph-name="uni01D3" unicode="&#x1d3;" horiz-adv-x="671" 
d="M290 698l-85 -423q-4 -18 -6 -34t-2 -31q0 -54 28.5 -81.5t81.5 -27.5q69 0 106.5 41t55.5 131l85 425h126l-85 -423q-15 -76 -39 -130t-59.5 -89t-84 -51.5t-112.5 -16.5q-109 0 -167 55.5t-58 163.5q0 20 2 43t8 50l79 398h126zM372 754l-95 154l65 49l94 -115l138 115
l63 -49l-150 -154h-115z" />
    <glyph glyph-name="uni01D4" unicode="&#x1d4;" horiz-adv-x="576" 
d="M241 522l-63 -314q-6 -29 -6 -53q0 -30 13.5 -47t43.5 -17q26 0 47.5 12.5t39.5 33.5q42 48 54 110l55 275h121l-85 -423h63l-19 -99h-86q-36 0 -58.5 19t-22.5 54q0 8 1 16t2 14l3 13h-6q-29 -61 -68 -94.5t-97 -33.5q-62 0 -94 36t-32 102q0 18 2 35.5t6 37.5l65 323
h121zM287 591l-95 154l65 49l94 -115l138 115l63 -49l-150 -154h-115z" />
    <glyph glyph-name="uni01D5" unicode="&#x1d5;" horiz-adv-x="671" 
d="M290 698l-85 -423q-4 -18 -6 -34t-2 -31q0 -54 28.5 -81.5t81.5 -27.5q69 0 106.5 41t55.5 131l85 425h126l-85 -423q-15 -76 -39 -130t-59.5 -89t-84 -51.5t-112.5 -16.5q-109 0 -167 55.5t-58 163.5q0 20 2 43t8 50l79 398h126zM345 1031h275l-18 -91h-275zM328 754
q-34 0 -46.5 12.5t-12.5 31.5q0 5 1.5 13t4.5 23q5 24 22 39.5t55 15.5q34 0 46.5 -12.5t12.5 -31.5q0 -5 -1.5 -13t-4.5 -23q-5 -24 -22 -39.5t-55 -15.5zM532 754q-34 0 -46.5 12.5t-12.5 31.5q0 5 1.5 13t4.5 23q5 24 22 39.5t55 15.5q34 0 46.5 -12.5t12.5 -31.5
q0 -5 -1.5 -13t-4.5 -23q-5 -24 -22 -39.5t-55 -15.5z" />
    <glyph glyph-name="uni01D6" unicode="&#x1d6;" horiz-adv-x="576" 
d="M241 522l-63 -314q-6 -29 -6 -53q0 -30 13.5 -47t43.5 -17q26 0 47.5 12.5t39.5 33.5q42 48 54 110l55 275h121l-85 -423h63l-19 -99h-86q-36 0 -58.5 19t-22.5 54q0 8 1 16t2 14l3 13h-6q-29 -61 -68 -94.5t-97 -33.5q-62 0 -94 36t-32 102q0 18 2 35.5t6 37.5l65 323
h121zM261 868h275l-18 -91h-275zM244 591q-34 0 -46.5 12.5t-12.5 31.5q0 5 1.5 13t4.5 23q5 24 22 39.5t55 15.5q34 0 46.5 -12.5t12.5 -31.5q0 -5 -1.5 -13t-4.5 -23q-5 -24 -22 -39.5t-55 -15.5zM448 591q-34 0 -46.5 12.5t-12.5 31.5q0 5 1.5 13t4.5 23q5 24 22 39.5
t55 15.5q34 0 46.5 -12.5t12.5 -31.5q0 -5 -1.5 -13t-4.5 -23q-5 -24 -22 -39.5t-55 -15.5z" />
    <glyph glyph-name="uni01D7" unicode="&#x1d7;" horiz-adv-x="671" 
d="M290 698l-85 -423q-4 -18 -6 -34t-2 -31q0 -54 28.5 -81.5t81.5 -27.5q69 0 106.5 41t55.5 131l85 425h126l-85 -423q-15 -76 -39 -130t-59.5 -89t-84 -51.5t-112.5 -16.5q-109 0 -167 55.5t-58 163.5q0 20 2 43t8 50l79 398h126zM464 885l-66 36l106 186l93 -50z
M328 754q-34 0 -46.5 12.5t-12.5 31.5q0 5 1.5 13t4.5 23q5 24 22 39.5t55 15.5q34 0 46.5 -12.5t12.5 -31.5q0 -5 -1.5 -13t-4.5 -23q-5 -24 -22 -39.5t-55 -15.5zM532 754q-34 0 -46.5 12.5t-12.5 31.5q0 5 1.5 13t4.5 23q5 24 22 39.5t55 15.5q34 0 46.5 -12.5
t12.5 -31.5q0 -5 -1.5 -13t-4.5 -23q-5 -24 -22 -39.5t-55 -15.5z" />
    <glyph glyph-name="uni01D8" unicode="&#x1d8;" horiz-adv-x="576" 
d="M241 522l-63 -314q-6 -29 -6 -53q0 -30 13.5 -47t43.5 -17q26 0 47.5 12.5t39.5 33.5q42 48 54 110l55 275h121l-85 -423h63l-19 -99h-86q-36 0 -58.5 19t-22.5 54q0 8 1 16t2 14l3 13h-6q-29 -61 -68 -94.5t-97 -33.5q-62 0 -94 36t-32 102q0 18 2 35.5t6 37.5l65 323
h121zM380 722l-66 36l106 186l93 -50zM244 591q-34 0 -46.5 12.5t-12.5 31.5q0 5 1.5 13t4.5 23q5 24 22 39.5t55 15.5q34 0 46.5 -12.5t12.5 -31.5q0 -5 -1.5 -13t-4.5 -23q-5 -24 -22 -39.5t-55 -15.5zM448 591q-34 0 -46.5 12.5t-12.5 31.5q0 5 1.5 13t4.5 23
q5 24 22 39.5t55 15.5q34 0 46.5 -12.5t12.5 -31.5q0 -5 -1.5 -13t-4.5 -23q-5 -24 -22 -39.5t-55 -15.5z" />
    <glyph glyph-name="uni01D9" unicode="&#x1d9;" horiz-adv-x="671" 
d="M290 698l-85 -423q-4 -18 -6 -34t-2 -31q0 -54 28.5 -81.5t81.5 -27.5q69 0 106.5 41t55.5 131l85 425h126l-85 -423q-15 -76 -39 -130t-59.5 -89t-84 -51.5t-112.5 -16.5q-109 0 -167 55.5t-58 163.5q0 20 2 43t8 50l79 398h126zM412 911l-106 144l63 53l98 -105
l138 105l57 -53l-158 -144h-92zM328 754q-34 0 -46.5 12.5t-12.5 31.5q0 5 1.5 13t4.5 23q5 24 22 39.5t55 15.5q34 0 46.5 -12.5t12.5 -31.5q0 -5 -1.5 -13t-4.5 -23q-5 -24 -22 -39.5t-55 -15.5zM532 754q-34 0 -46.5 12.5t-12.5 31.5q0 5 1.5 13t4.5 23q5 24 22 39.5
t55 15.5q34 0 46.5 -12.5t12.5 -31.5q0 -5 -1.5 -13t-4.5 -23q-5 -24 -22 -39.5t-55 -15.5z" />
    <glyph glyph-name="uni01DA" unicode="&#x1da;" horiz-adv-x="576" 
d="M241 522l-63 -314q-6 -29 -6 -53q0 -30 13.5 -47t43.5 -17q26 0 47.5 12.5t39.5 33.5q42 48 54 110l55 275h121l-85 -423h63l-19 -99h-86q-36 0 -58.5 19t-22.5 54q0 8 1 16t2 14l3 13h-6q-29 -61 -68 -94.5t-97 -33.5q-62 0 -94 36t-32 102q0 18 2 35.5t6 37.5l65 323
h121zM328 748l-106 144l63 53l98 -105l138 105l57 -53l-158 -144h-92zM244 591q-34 0 -46.5 12.5t-12.5 31.5q0 5 1.5 13t4.5 23q5 24 22 39.5t55 15.5q34 0 46.5 -12.5t12.5 -31.5q0 -5 -1.5 -13t-4.5 -23q-5 -24 -22 -39.5t-55 -15.5zM448 591q-34 0 -46.5 12.5
t-12.5 31.5q0 5 1.5 13t4.5 23q5 24 22 39.5t55 15.5q34 0 46.5 -12.5t12.5 -31.5q0 -5 -1.5 -13t-4.5 -23q-5 -24 -22 -39.5t-55 -15.5z" />
    <glyph glyph-name="uni01DB" unicode="&#x1db;" horiz-adv-x="671" 
d="M290 698l-85 -423q-4 -18 -6 -34t-2 -31q0 -54 28.5 -81.5t81.5 -27.5q69 0 106.5 41t55.5 131l85 425h126l-85 -423q-15 -76 -39 -130t-59.5 -89t-84 -51.5t-112.5 -16.5q-109 0 -167 55.5t-58 163.5q0 20 2 43t8 50l79 398h126zM350 1058l104 49l60 -188l-71 -33z
M328 754q-34 0 -46.5 12.5t-12.5 31.5q0 5 1.5 13t4.5 23q5 24 22 39.5t55 15.5q34 0 46.5 -12.5t12.5 -31.5q0 -5 -1.5 -13t-4.5 -23q-5 -24 -22 -39.5t-55 -15.5zM532 754q-34 0 -46.5 12.5t-12.5 31.5q0 5 1.5 13t4.5 23q5 24 22 39.5t55 15.5q34 0 46.5 -12.5
t12.5 -31.5q0 -5 -1.5 -13t-4.5 -23q-5 -24 -22 -39.5t-55 -15.5z" />
    <glyph glyph-name="uni01DC" unicode="&#x1dc;" horiz-adv-x="576" 
d="M241 522l-63 -314q-6 -29 -6 -53q0 -30 13.5 -47t43.5 -17q26 0 47.5 12.5t39.5 33.5q42 48 54 110l55 275h121l-85 -423h63l-19 -99h-86q-36 0 -58.5 19t-22.5 54q0 8 1 16t2 14l3 13h-6q-29 -61 -68 -94.5t-97 -33.5q-62 0 -94 36t-32 102q0 18 2 35.5t6 37.5l65 323
h121zM266 895l104 49l60 -188l-71 -33zM244 591q-34 0 -46.5 12.5t-12.5 31.5q0 5 1.5 13t4.5 23q5 24 22 39.5t55 15.5q34 0 46.5 -12.5t12.5 -31.5q0 -5 -1.5 -13t-4.5 -23q-5 -24 -22 -39.5t-55 -15.5zM448 591q-34 0 -46.5 12.5t-12.5 31.5q0 5 1.5 13t4.5 23
q5 24 22 39.5t55 15.5q34 0 46.5 -12.5t12.5 -31.5q0 -5 -1.5 -13t-4.5 -23q-5 -24 -22 -39.5t-55 -15.5z" />
    <glyph glyph-name="Aringacute" unicode="&#x1fa;" horiz-adv-x="648" 
d="M448 0l-19 180h-237l-89 -180h-135l363 698h162l83 -698h-128zM392 583h-7l-142 -296h177zM461 977l-43 48l128 117l59 -67zM416 728q-52 0 -85.5 27t-33.5 74q0 31 12 56.5t33.5 42.5t50 26.5t61.5 9.5q52 0 85.5 -27t33.5 -74q0 -32 -12 -57t-33.5 -42t-50 -26.5
t-61.5 -9.5zM426 790q52 0 60 47q2 9 3 16.5t1 11.5q0 37 -46 37q-52 0 -60 -47q-2 -9 -3 -16.5t-1 -11.5q0 -37 46 -37z" />
    <glyph glyph-name="aringacute" unicode="&#x1fb;" 
d="M432 0q-36 0 -59 19t-23 53q0 8 1.5 17t2.5 14l3 16h-5q-32 -64 -71 -97.5t-99 -33.5q-36 0 -63.5 13.5t-45.5 38.5t-27 59t-9 76q0 76 18 141.5t50.5 114t78 76t99.5 27.5q53 0 89 -28t43 -73h5l18 89h121l-85 -423h63l-19 -99h-86zM237 89q29 0 52.5 14.5t40.5 34.5
q20 22 33 50.5t20 60.5l18 89q8 40 -17.5 67.5t-73.5 27.5q-103 0 -129 -129l-14 -72q-2 -11 -4 -27t-2 -28q0 -40 19.5 -64t56.5 -24zM387 814l-43 48l128 117l59 -67zM342 565q-52 0 -85.5 27t-33.5 74q0 31 12 56.5t33.5 42.5t50 26.5t61.5 9.5q52 0 85.5 -27t33.5 -74
q0 -32 -12 -57t-33.5 -42t-50 -26.5t-61.5 -9.5zM352 627q52 0 60 47q2 9 3 16.5t1 11.5q0 37 -46 37q-52 0 -60 -47q-2 -9 -3 -16.5t-1 -11.5q0 -37 46 -37z" />
    <glyph glyph-name="AEacute" unicode="&#x1fc;" horiz-adv-x="910" 
d="M399 179h-202l-112 -179h-137l455 698h538l-23 -112h-311l-36 -179h276l-22 -112h-277l-36 -183h323l-22 -112h-450zM457 588l-190 -301h153l61 301h-24zM594 739l-73 39l115 185l99 -53z" />
    <glyph glyph-name="aeacute" unicode="&#x1fd;" horiz-adv-x="821" 
d="M218 79q20 0 39 5t34.5 15t26.5 24.5t15 33.5l13 64l-87 -4q-38 -2 -67 -12t-37 -42q-3 -14 -3.5 -23t-0.5 -11q0 -24 18 -37t49 -13zM618 440q-51 0 -86 -33.5t-46 -91.5l-4 -19q64 3 104 10t62.5 17.5t30.5 24.5t8 31q0 19 -6.5 31t-16.5 18.5t-22 9t-24 2.5zM179 -12
q-75 0 -114.5 36t-39.5 100q0 80 61.5 120.5t178.5 45.5l95 4l7 36q3 16 3 30q0 75 -88 75q-47 0 -75 -20t-51 -50l-71 69q33 46 86.5 73t121.5 27q59 0 97 -21.5t57 -59.5h7q32 38 74.5 59.5t97.5 21.5q30 0 61.5 -7.5t58 -24t43.5 -44t17 -67.5q0 -82 -81.5 -124.5
t-256.5 -46.5q-3 -24 -3 -38q0 -42 24 -68t78 -26q39 0 71 17t66 59l75 -62q-49 -63 -102.5 -88.5t-118.5 -25.5q-72 0 -120 27.5t-71 77.5h-7q-27 -55 -74.5 -80t-106.5 -25zM500 581l-73 39l115 185l99 -53z" />
    <glyph glyph-name="Oslashacute" unicode="&#x1fe;" horiz-adv-x="691" 
d="M306 -12q-44 0 -83.5 12t-71.5 37l-79 -93l-69 60l89 104q-17 32 -26.5 71.5t-9.5 88.5q0 89 26 169.5t73.5 141t113.5 96t146 35.5q44 0 83 -12t71 -37l79 93l69 -60l-89 -104q17 -32 26.5 -71.5t9.5 -88.5q0 -89 -26 -169.5t-73 -141t-113 -96t-146 -35.5zM187 299
q-4 -17 -5.5 -32t-1.5 -28q0 -20 4 -35l314 364q-36 33 -92 33q-78 0 -128.5 -51t-69.5 -145zM314 97q78 0 128.5 51t69.5 145l21 106q4 17 5.5 32t1.5 28q0 20 -4 35l-314 -364q36 -33 92 -33zM446 744l-73 39l115 185l99 -53z" />
    <glyph glyph-name="oslashacute" unicode="&#x1ff;" horiz-adv-x="545" 
d="M-29 14l85 87q-19 44 -19 104q0 69 20 129t56 104.5t85 70t108 25.5q82 0 134 -44l72 75l62 -56l-85 -88q19 -42 19 -104q0 -69 -20 -129t-56 -104.5t-85.5 -70t-107.5 -25.5q-81 0 -134 44l-72 -74zM245 84q45 0 78.5 34.5t45.5 97.5q2 10 4.5 23t5 25t4 20.5t1.5 10.5
q1 5 2 15t1 13l-209 -211q11 -13 28 -20.5t39 -7.5zM300 438q-45 0 -77.5 -34t-45.5 -98q-2 -10 -5 -23t-5 -25l-3.5 -21t-1.5 -11q-1 -3 -2.5 -13t-0.5 -15l208 213q-11 12 -28 19.5t-39 7.5zM344 581l-73 39l115 185l99 -53z" />
    <glyph glyph-name="Scommaaccent" unicode="&#x218;" horiz-adv-x="583" 
d="M253 -12q-85 0 -150.5 28.5t-102.5 96.5l96 74q27 -45 65 -65.5t92 -20.5q72 0 109.5 32.5t37.5 81.5q0 35 -23.5 55t-63.5 28l-53 11q-75 16 -118.5 59t-43.5 123q0 46 18.5 86t52 69.5t81.5 46.5t108 17q79 0 139.5 -26t95.5 -74l-91 -81q-26 35 -60 51.5t-89 16.5
q-60 0 -94 -25.5t-34 -69.5q0 -35 21 -53.5t63 -27.5l50 -10q79 -17 125 -61t46 -123q0 -45 -18.5 -88t-54 -76.5t-87 -54t-117.5 -20.5zM233 -49q57 0 57 -47q0 -5 -0.5 -10t-2.5 -16q-9 -41 -34 -81t-54 -63h-76q28 22 44.5 43t28.5 49q-20 2 -27.5 13t-7.5 28
q0 4 0.5 9.5t2.5 16.5q13 58 69 58z" />
    <glyph glyph-name="scommaaccent" unicode="&#x219;" horiz-adv-x="489" 
d="M211 -12q-63 0 -117.5 23.5t-87.5 69.5l77 71q23 -31 54.5 -48t76.5 -17q49 0 73.5 20t24.5 49q0 19 -12 33t-45 19l-49 7q-65 10 -102 43t-37 96q0 36 12.5 68.5t38.5 57t65.5 39.5t92.5 15q122 0 188 -81l-78 -71q-19 24 -48.5 38.5t-67.5 14.5q-42 0 -63.5 -17.5
t-21.5 -46.5q0 -19 12 -33t44 -19l49 -7q66 -10 103 -43t37 -96q0 -38 -14.5 -72t-42.5 -59t-69 -39.5t-93 -14.5zM181 -49q57 0 57 -47q0 -5 -0.5 -10t-2.5 -16q-9 -41 -34 -81t-54 -63h-76q28 22 44.5 43t28.5 49q-20 2 -27.5 13t-7.5 28q0 4 0.5 9.5t2.5 16.5
q13 58 69 58z" />
    <glyph glyph-name="uni021A" unicode="&#x21a;" horiz-adv-x="565" 
d="M411 586l-118 -586h-126l118 586h-193l22 112h510l-22 -112h-191zM217 -49q57 0 57 -47q0 -5 -0.5 -10t-2.5 -16q-9 -41 -34 -81t-54 -63h-76q28 22 44.5 43t28.5 49q-20 2 -27.5 13t-7.5 28q0 4 0.5 9.5t2.5 16.5q13 58 69 58z" />
    <glyph glyph-name="uni021B" unicode="&#x21b;" horiz-adv-x="343" 
d="M170 0q-108 0 -108 89q0 8 1 18.5t3 21.5l59 294h-75l19 99h37q31 0 41.5 12.5t15.5 39.5l18 91h113l-28 -143h105l-20 -99h-105l-65 -324h99l-20 -99h-90zM137 -49q57 0 57 -47q0 -5 -0.5 -10t-2.5 -16q-9 -41 -34 -81t-54 -63h-76q28 22 44.5 43t28.5 49
q-20 2 -27.5 13t-7.5 28q0 4 0.5 9.5t2.5 16.5q13 58 69 58z" />
    <glyph glyph-name="uni0237" unicode="&#x237;" horiz-adv-x="269" 
d="M-74 -101h78l125 623h121l-119 -594q-13 -64 -47.5 -96t-102.5 -32h-75z" />
    <glyph glyph-name="uni0259" unicode="&#x259;" horiz-adv-x="513" 
d="M197 -12q-31 0 -63 7.5t-58.5 24t-43 44t-16.5 68.5q0 82 80.5 127.5t257.5 50.5q3 19 3 29q0 43 -24 69t-78 26q-39 0 -71 -17t-66 -59l-75 62q49 63 102.5 88.5t118.5 25.5q106 0 159.5 -59t53.5 -164q0 -63 -20 -121.5t-56.5 -103.5t-88 -71.5t-115.5 -26.5zM205 82
q50 0 85 33t46 90l5 25q-64 -3 -104.5 -10.5t-63 -18.5t-30.5 -26t-8 -34q0 -18 6.5 -29.5t16.5 -18t22.5 -9t24.5 -2.5z" />
    <glyph glyph-name="uni02BB" unicode="&#x2bb;" horiz-adv-x="600" 
d="M310 582q-57 0 -57 47q0 5 0.5 10t2.5 16q9 41 34 81t54 63h76q-28 -22 -44.5 -43t-28.5 -49q20 -2 27.5 -13t7.5 -28q0 -4 -0.5 -9.5t-2.5 -16.5q-13 -58 -69 -58z" />
    <glyph glyph-name="uni02BC" unicode="&#x2bc;" 
d="M338 534h-84l45 206h138z" />
    <glyph glyph-name="circumflex" unicode="&#x2c6;" 
d="M390 786l95 -154l-65 -49l-94 115l-138 -115l-63 49l150 154h115z" />
    <glyph glyph-name="caron" unicode="&#x2c7;" horiz-adv-x="587" 
d="M246 591l-95 154l65 49l94 -115l138 115l63 -49l-150 -154h-115z" />
    <glyph glyph-name="breve" unicode="&#x2d8;" 
d="M305 584q-41 0 -68.5 14.5t-45.5 37.5t-28.5 51.5t-15.5 56.5l70 35l15 -34q16 -34 32 -52.5t47 -18.5q27 0 48.5 17.5t50.5 55.5l25 32l73 -38q-16 -29 -35 -57t-43 -50t-55 -36t-70 -14z" />
    <glyph glyph-name="dotaccent" unicode="&#x2d9;" horiz-adv-x="587" 
d="M308 598q-36 0 -51 14.5t-15 37.5q0 5 1 12t5 24q6 28 23.5 45t58.5 17q36 0 51 -14.5t15 -37.5q0 -5 -1 -12t-5 -24q-6 -28 -23.5 -45t-58.5 -17z" />
    <glyph glyph-name="ring" unicode="&#x2da;" 
d="M300 563q-52 0 -85.5 32.5t-33.5 83.5q0 35 12 63.5t33 48.5t49.5 31t60.5 11q52 0 85.5 -32.5t33.5 -83.5q0 -35 -12 -63.5t-33 -48.5t-49.5 -31t-60.5 -11zM306 630q25 0 40 14.5t20 37.5q7 31 7 44q0 40 -43 40q-25 0 -40 -14.5t-20 -37.5q-7 -31 -7 -44q0 -40 43 -40
z" />
    <glyph glyph-name="ogonek" unicode="&#x2db;" horiz-adv-x="587" 
d="M194 -210q-23 0 -43.5 5t-36 15t-24.5 25t-9 35q0 39 33 71.5t102 53.5l-3 17l63 6l16 -18q-41 -25 -64.5 -43t-35.5 -31.5t-15 -23t-3 -16.5q0 -14 8.5 -22t25.5 -8q15 0 29 6t25 21l48 -48q-17 -20 -45 -32.5t-71 -12.5z" />
    <glyph glyph-name="tilde" unicode="&#x2dc;" 
d="M385 605q-23 0 -40 6.5t-35 15.5q-20 11 -36.5 16.5t-33.5 5.5t-29 -6t-29 -19l-39 59q21 26 48 43t62 17q23 0 40 -6.5t35 -15.5q20 -11 36.5 -16.5t33.5 -5.5t29 6t29 19l39 -59q-21 -26 -48 -43t-62 -17z" />
    <glyph glyph-name="hungarumlaut" unicode="&#x2dd;" 
d="M225 582l-68 33l111 187l93 -50zM410 582l-68 33l111 187l93 -50z" />
    <glyph glyph-name="uni0300" unicode="&#x300;" horiz-adv-x="0" 
d="M-108 753l109 51l66 -189l-76 -34z" />
    <glyph glyph-name="uni0301" unicode="&#x301;" horiz-adv-x="0" 
d="M28 581l-73 39l115 185l99 -53z" />
    <glyph glyph-name="uni0302" unicode="&#x302;" horiz-adv-x="0" 
d="M99 786l95 -154l-65 -49l-94 115l-138 -115l-63 49l150 154h115z" />
    <glyph glyph-name="uni0303" unicode="&#x303;" horiz-adv-x="0" 
d="M94 605q-23 0 -40 6.5t-35 15.5q-20 11 -36.5 16.5t-33.5 5.5t-29 -6t-29 -19l-39 59q21 26 48 43t62 17q23 0 40 -6.5t35 -15.5q20 -11 36.5 -16.5t33.5 -5.5t29 6t29 19l39 -59q-21 -26 -48 -43t-62 -17z" />
    <glyph glyph-name="uni0304" unicode="&#x304;" horiz-adv-x="0" 
d="M-100 720h276l-19 -91h-276z" />
    <glyph glyph-name="uni0306" unicode="&#x306;" horiz-adv-x="0" 
d="M14 584q-41 0 -68.5 14.5t-45.5 37.5t-28.5 51.5t-15.5 56.5l70 35l15 -34q16 -34 32 -52.5t47 -18.5q27 0 48.5 17.5t50.5 55.5l25 32l73 -38q-16 -29 -35 -57t-43 -50t-55 -36t-70 -14z" />
    <glyph glyph-name="uni0307" unicode="&#x307;" horiz-adv-x="0" 
d="M17 598q-36 0 -51 14.5t-15 37.5q0 5 1 12t5 24q6 28 23.5 45t58.5 17q36 0 51 -14.5t15 -37.5q0 -5 -1 -12t-5 -24q-6 -28 -23.5 -45t-58.5 -17z" />
    <glyph glyph-name="uni0308" unicode="&#x308;" horiz-adv-x="0" 
d="M-82 605q-30 0 -43.5 12.5t-13.5 31.5q0 5 1 13t4 22q5 25 22.5 41.5t54.5 16.5q30 0 43.5 -12.5t13.5 -31.5q0 -5 -1 -13t-4 -22q-5 -25 -22.5 -41.5t-54.5 -16.5zM113 605q-30 0 -43.5 12.5t-13.5 31.5q0 5 1 13t4 22q5 25 22.5 41.5t54.5 16.5q30 0 43.5 -12.5
t13.5 -31.5q0 -5 -1 -13t-4 -22q-5 -25 -22.5 -41.5t-54.5 -16.5z" />
    <glyph glyph-name="uni0309" unicode="&#x309;" horiz-adv-x="0" 
d="M-59 791h134q38 0 55.5 -16t17.5 -38q0 -30 -15.5 -55t-38.5 -54l-48 -55l-60 30l55 98h-117z" />
    <glyph glyph-name="uni030A" unicode="&#x30a;" horiz-adv-x="0" 
d="M9 563q-52 0 -85.5 32.5t-33.5 83.5q0 35 12 63.5t33 48.5t49.5 31t60.5 11q52 0 85.5 -32.5t33.5 -83.5q0 -35 -12 -63.5t-33 -48.5t-49.5 -31t-60.5 -11zM15 630q25 0 40 14.5t20 37.5q7 31 7 44q0 40 -43 40q-25 0 -40 -14.5t-20 -37.5q-7 -31 -7 -44q0 -40 43 -40z
" />
    <glyph glyph-name="uni030B" unicode="&#x30b;" horiz-adv-x="0" 
d="M-66 582l-68 33l111 187l93 -50zM119 582l-68 33l111 187l93 -50z" />
    <glyph glyph-name="uni030C" unicode="&#x30c;" horiz-adv-x="0" 
d="M-45 591l-95 154l65 49l94 -115l138 115l63 -49l-150 -154h-115z" />
    <glyph glyph-name="uni0312" unicode="&#x312;" horiz-adv-x="0" 
d="M11 582q-57 0 -57 47q0 5 0.5 10t2.5 16q9 41 34 81t54 63h76q-28 -22 -44.5 -43t-28.5 -49q20 -2 27.5 -13t7.5 -28q0 -4 -0.5 -9.5t-2.5 -16.5q-13 -58 -69 -58z" />
    <glyph glyph-name="uni0315" unicode="&#x315;" horiz-adv-x="0" 
d="M47 534h-84l45 206h138z" />
    <glyph glyph-name="uni031B" unicode="&#x31b;" horiz-adv-x="0" 
d="M115 530q-8 -42 -28.5 -63.5t-69.5 -21.5h-138l16 77h110l22 108h108z" />
    <glyph glyph-name="uni0323" unicode="&#x323;" horiz-adv-x="0" 
d="M-34 -193q-32 0 -47 13t-15 35q0 5 1 11.5t4 21.5q5 25 22.5 40t52.5 15q32 0 47 -13t15 -35q0 -5 -1 -11.5t-4 -21.5q-5 -25 -22.5 -40t-52.5 -15z" />
    <glyph glyph-name="uni0326" unicode="&#x326;" horiz-adv-x="0" 
d="M-12 -49q57 0 57 -47q0 -5 -0.5 -10t-2.5 -16q-9 -41 -34 -81t-54 -63h-76q28 22 44.5 43t28.5 49q-20 2 -27.5 13t-7.5 28q0 4 0.5 9.5t2.5 16.5q13 58 69 58z" />
    <glyph glyph-name="uni0327" unicode="&#x327;" horiz-adv-x="0" 
d="M-19 -210q-41 0 -68.5 13t-39.5 30l48 48q7 -9 22 -18t37 -9q21 0 35 8.5t14 24.5q0 13 -14 23t-49 14l-23 2l39 101h61l-32 -84l2 -4q21 6 40 6q26 0 43.5 -14t17.5 -42q0 -24 -10 -42.5t-28 -31t-42.5 -19t-52.5 -6.5z" />
    <glyph glyph-name="uni0328" unicode="&#x328;" horiz-adv-x="0" 
d="M-97 -210q-23 0 -43.5 5t-36 15t-24.5 25t-9 35q0 39 33 71.5t102 53.5l-3 17l63 6l16 -18q-41 -25 -64.5 -43t-35.5 -31.5t-15 -23t-3 -16.5q0 -14 8.5 -22t25.5 -8q15 0 29 6t25 21l48 -48q-17 -20 -45 -32.5t-71 -12.5z" />
    <glyph glyph-name="uni037E" unicode="&#x37e;" horiz-adv-x="317" 
d="M133 154q38 0 53 -17.5t15 -41.5q0 -17 -5 -40q-5 -24 -16.5 -51t-28.5 -53t-39.5 -50t-49.5 -43h-94q41 32 69.5 64.5t47.5 70.5q-24 5 -34.5 19t-10.5 32q0 8 2 19l4 22q7 31 27.5 50t59.5 19zM185 367q-37 0 -53 16.5t-16 38.5q0 8 2 19.5t4 22.5q6 29 27 49t60 20
q37 0 53 -16.5t16 -38.5q0 -8 -2 -19.5t-4 -22.5q-6 -29 -27 -49t-60 -20z" />
    <glyph glyph-name="tonos" unicode="&#x384;" horiz-adv-x="589" 
d="M392 581l-78 24l70 200l110 -27z" />
    <glyph glyph-name="dieresistonos" unicode="&#x385;" horiz-adv-x="589" 
d="M381 581l-55 18l67 206l86 -24zM248 609q-24 0 -36.5 11.5t-12.5 30.5q0 5 1.5 12t3.5 19q5 25 20.5 41t44.5 16q25 0 37 -12t12 -30q0 -5 -1 -12t-4 -20q-4 -24 -19.5 -40t-45.5 -16zM513 609q-24 0 -36.5 11.5t-12.5 30.5q0 5 1.5 12t3.5 19q5 25 20.5 41t44.5 16
q25 0 37 -12t12 -30q0 -5 -1 -12t-4 -20q-4 -24 -19.5 -40t-45.5 -16z" />
    <glyph glyph-name="Alphatonos" unicode="&#x386;" horiz-adv-x="648" 
d="M448 0l-19 180h-237l-89 -180h-135l363 698h162l83 -698h-128zM392 583h-7l-142 -296h177zM182 581l-78 24l70 200l110 -27z" />
    <glyph glyph-name="anoteleia" unicode="&#x387;" horiz-adv-x="317" 
d="M185 367q-37 0 -53 16.5t-16 38.5q0 8 2 19.5t4 22.5q6 29 27 49t60 20q37 0 53 -16.5t16 -38.5q0 -8 -2 -19.5t-4 -22.5q-6 -29 -27 -49t-60 -20z" />
    <glyph glyph-name="Epsilontonos" unicode="&#x388;" horiz-adv-x="647" 
d="M100 0l140 698h438l-23 -112h-311l-36 -179h276l-22 -112h-277l-36 -183h323l-22 -112h-450zM131 581l-78 24l70 200l110 -27z" />
    <glyph glyph-name="Etatonos" unicode="&#x389;" horiz-adv-x="769" 
d="M570 295h-284l-59 -295h-126l140 698h126l-58 -291h284l58 291h126l-140 -698h-126zM131 581l-78 24l70 200l110 -27z" />
    <glyph glyph-name="Iotatonos" unicode="&#x38a;" horiz-adv-x="509" 
d="M102 0l21 104h88l98 490h-88l21 104h302l-21 -104h-88l-98 -490h88l-21 -104h-302zM131 581l-78 24l70 200l110 -27z" />
    <glyph glyph-name="Omicrontonos" unicode="&#x38c;" horiz-adv-x="733" 
d="M348 -12q-51 0 -96 16.5t-79.5 51t-54.5 87.5t-20 125q0 89 26 169.5t73.5 141t113.5 96t146 35.5q51 0 96 -17t79 -51.5t54 -87t20 -124.5q0 -89 -26 -169.5t-73 -141t-113 -96t-146 -35.5zM357 101q76 0 126 50.5t68 142.5l21 104q4 17 5 31.5t1 26.5q0 68 -33.5 104.5
t-97.5 36.5q-76 0 -126 -50.5t-68 -142.5l-21 -104q-4 -17 -5 -31.5t-1 -26.5q0 -68 33.5 -104.5t97.5 -36.5zM131 581l-78 24l70 200l110 -27z" />
    <glyph glyph-name="Upsilontonos" unicode="&#x38e;" horiz-adv-x="736" 
d="M314 0l55 274l-148 424h129l100 -308h6l216 308h140l-319 -435l-53 -263h-126zM131 581l-78 24l70 200l110 -27z" />
    <glyph glyph-name="Omegatonos" unicode="&#x38f;" horiz-adv-x="738" 
d="M62 112h156l2 11q-50 30 -74 86.5t-24 134.5q0 75 25 141.5t71 116.5t111 79t144 29q56 0 101 -19t77 -53t49.5 -81.5t17.5 -104.5q0 -52 -12 -101.5t-37 -92.5t-64.5 -78t-93.5 -57l-2 -11h156l-23 -112h-250l35 168q57 17 93 61.5t47 101.5l18 93q5 22 5 44
q0 26 -8.5 49t-25.5 40.5t-42.5 27.5t-59.5 10q-40 0 -72 -13.5t-55.5 -36.5t-39 -53.5t-21.5 -65.5l-15 -75q-2 -14 -3.5 -27.5t-1.5 -26.5q0 -43 21.5 -79t56.5 -50l-35 -168h-249zM131 581l-78 24l70 200l110 -27z" />
    <glyph glyph-name="iotadieresistonos" unicode="&#x390;" horiz-adv-x="302" 
d="M217 581l-55 18l67 206l86 -24zM84 609q-24 0 -36.5 11.5t-12.5 30.5q0 5 1.5 12t3.5 19q5 25 20.5 41t44.5 16q25 0 37 -12t12 -30q0 -5 -1 -12t-4 -20q-4 -24 -19.5 -40t-45.5 -16zM349 609q-24 0 -36.5 11.5t-12.5 30.5q0 5 1.5 12t3.5 19q5 25 20.5 41t44.5 16
q25 0 37 -12t12 -30q0 -5 -1 -12t-4 -20q-4 -24 -19.5 -40t-45.5 -16zM240 0h-90q-107 0 -107 88q0 7 1 17.5t3 21.5l79 395h121l-84 -423h96z" />
    <glyph glyph-name="Alpha" unicode="&#x391;" horiz-adv-x="648" 
d="M448 0l-19 180h-237l-89 -180h-135l363 698h162l83 -698h-128zM392 583h-7l-142 -296h177z" />
    <glyph glyph-name="Beta" unicode="&#x392;" horiz-adv-x="644" 
d="M167 698h286q78 0 125 -36.5t47 -108.5q0 -67 -34.5 -119t-103.5 -70l-1 -5q53 -14 78 -47.5t25 -84.5q0 -50 -16 -91.5t-46 -71.5t-74 -47t-101 -17h-325zM352 109q39 0 64.5 19t33.5 59q5 26 7 38.5t2 19.5q0 26 -17 41t-52 15h-177l-38 -192h177zM384 405
q41 0 66.5 17t33.5 57q5 24 6.5 36t1.5 19q0 25 -16 40t-48 15h-157l-37 -184h150z" />
    <glyph glyph-name="Gamma" unicode="&#x393;" horiz-adv-x="493" 
d="M167 698h387l-22 -112h-261l-118 -586h-126z" />
    <glyph glyph-name="uni0394" unicode="&#x394;" horiz-adv-x="659" 
d="M14 107l321 591h162l85 -591l-21 -107h-568zM397 583h-7l-241 -471h307z" />
    <glyph glyph-name="Epsilon" unicode="&#x395;" horiz-adv-x="574" 
d="M27 0l140 698h438l-23 -112h-311l-36 -179h276l-22 -112h-277l-36 -183h323l-22 -112h-450z" />
    <glyph glyph-name="Zeta" unicode="&#x396;" horiz-adv-x="569" 
d="M482 0h-494l23 113l433 473h-325l22 112h476l-23 -113l-434 -473h344z" />
    <glyph glyph-name="Eta" unicode="&#x397;" horiz-adv-x="695" 
d="M496 295h-284l-59 -295h-126l140 698h126l-58 -291h284l58 291h126l-140 -698h-126z" />
    <glyph glyph-name="Theta" unicode="&#x398;" horiz-adv-x="697" 
d="M309 -12q-52 0 -98 16.5t-80.5 51t-54.5 87.5t-20 125q0 89 26 169.5t74 141t114.5 96t147.5 35.5q52 0 98 -17t80 -51.5t54 -87t20 -124.5q0 -89 -26 -169.5t-73.5 -141t-114 -96t-147.5 -35.5zM317 101q80 0 129.5 50.5t68.5 142.5l21 104q4 17 5 31.5t1 26.5
q0 68 -34 104.5t-100 36.5q-80 0 -129 -50.5t-68 -142.5l-21 -104q-4 -17 -5 -31.5t-1 -26.5q0 -68 33.5 -104.5t99.5 -36.5zM243 295l24 112h217l-24 -112h-217z" />
    <glyph glyph-name="Iota" unicode="&#x399;" horiz-adv-x="406" 
d="M0 0l21 104h88l98 490h-88l21 104h302l-21 -104h-88l-98 -490h88l-21 -104h-302z" />
    <glyph glyph-name="Kappa" unicode="&#x39a;" horiz-adv-x="645" 
d="M311 312l-119 -118l-39 -194h-126l140 698h126l-68 -341h7l112 127l206 214h155l-296 -301l173 -397h-139z" />
    <glyph glyph-name="Lambda" unicode="&#x39b;" horiz-adv-x="632" 
d="M476 698l84 -698h-127l-30 293l-22 274h-6l-120 -257l-154 -310h-134l363 698h146z" />
    <glyph glyph-name="Mu" unicode="&#x39c;" horiz-adv-x="796" 
d="M643 498h-6l-91 -129l-173 -239l-82 249l-38 120h-5l-100 -499h-121l140 698h138l106 -346h4l242 346h147l-140 -698h-121z" />
    <glyph glyph-name="Nu" unicode="&#x39d;" horiz-adv-x="695" 
d="M300 361l-46 147h-5l-102 -508h-120l140 698h138l125 -361l46 -147h5l102 508h120l-140 -698h-138z" />
    <glyph glyph-name="Xi" unicode="&#x39e;" horiz-adv-x="587" 
d="M144 698h473l-23 -112h-473zM144 407h357l-23 -112h-357zM27 112h473l-23 -112h-473z" />
    <glyph glyph-name="Omicron" unicode="&#x39f;" horiz-adv-x="691" 
d="M306 -12q-51 0 -96 16.5t-79.5 51t-54.5 87.5t-20 125q0 89 26 169.5t73.5 141t113.5 96t146 35.5q51 0 96 -17t79 -51.5t54 -87t20 -124.5q0 -89 -26 -169.5t-73 -141t-113 -96t-146 -35.5zM315 101q76 0 126 50.5t68 142.5l21 104q4 17 5 31.5t1 26.5q0 68 -33.5 104.5
t-97.5 36.5q-76 0 -126 -50.5t-68 -142.5l-21 -104q-4 -17 -5 -31.5t-1 -26.5q0 -68 33.5 -104.5t97.5 -36.5z" />
    <glyph glyph-name="Pi" unicode="&#x3a0;" horiz-adv-x="680" 
d="M167 698h521l-141 -698h-126l118 586h-268l-118 -586h-126z" />
    <glyph glyph-name="Rho" unicode="&#x3a1;" horiz-adv-x="623" 
d="M27 0l140 698h259q101 0 153.5 -48.5t52.5 -132.5q0 -55 -19 -101t-53.5 -79t-82 -51.5t-105.5 -18.5h-165l-54 -267h-126zM229 379h160q38 0 65.5 20t35.5 61q5 26 8.5 41t3.5 24q0 26 -17.5 43.5t-56.5 17.5h-157z" />
    <glyph glyph-name="Sigma" unicode="&#x3a3;" horiz-adv-x="583" 
d="M-9 0l23 113l272 242l-169 230l23 113h477l-23 -111h-337l178 -242l-264 -234h333l-22 -111h-491z" />
    <glyph glyph-name="Tau" unicode="&#x3a4;" horiz-adv-x="565" 
d="M411 586l-118 -586h-126l118 586h-193l22 112h510l-22 -112h-191z" />
    <glyph glyph-name="Upsilon" unicode="&#x3a5;" horiz-adv-x="610" 
d="M188 0l55 274l-148 424h129l100 -308h6l216 308h140l-319 -435l-53 -263h-126z" />
    <glyph glyph-name="Phi" unicode="&#x3a6;" horiz-adv-x="813" 
d="M295 32h-4q-55 0 -99.5 17t-76.5 48.5t-49.5 77t-17.5 102.5q0 88 25 161.5t72.5 126t117 82t158.5 29.5h3l12 60h126l-12 -60h4q55 0 100 -17t77 -48.5t49 -77t17 -102.5q0 -88 -24.5 -161.5t-72 -126t-117 -82t-159.5 -29.5h-3l-14 -72h-126zM405 572h-3
q-82 0 -137 -46t-75 -145l-10 -47q-2 -14 -3.5 -28.5t-1.5 -31.5q0 -72 34.5 -105t105.5 -33h3zM443 136q82 0 137 46t75 145l10 47q2 14 3.5 28.5t1.5 31.5q0 72 -34.5 105t-105.5 33h-3l-87 -436h3z" />
    <glyph glyph-name="Chi" unicode="&#x3a7;" horiz-adv-x="628" 
d="M552 0h-135l-105 256h-7l-194 -256h-146l289 366l-145 332h135l102 -247h7l192 247h146l-289 -352z" />
    <glyph glyph-name="Psi" unicode="&#x3a8;" horiz-adv-x="796" 
d="M319 184q-51 0 -91.5 15.5t-68.5 43.5t-43 66t-15 82q0 49 13 111l39 196h126l-42 -209q-8 -37 -9.5 -58.5t-1.5 -37.5q0 -105 114 -105l82 410h126l-82 -410q36 0 64.5 9t50.5 31t38 58.5t28 91.5l44 220h126l-45 -226q-30 -148 -107.5 -218t-219.5 -70l-37 -184h-126z
" />
    <glyph glyph-name="uni03A9" unicode="&#x3a9;" horiz-adv-x="688" 
d="M12 112h156l2 11q-50 30 -74 86.5t-24 134.5q0 75 25 141.5t71 116.5t111 79t144 29q56 0 101 -19t77 -53t49.5 -81.5t17.5 -104.5q0 -52 -12 -101.5t-37 -92.5t-64.5 -78t-93.5 -57l-2 -11h156l-23 -112h-250l35 168q57 17 93 61.5t47 101.5l18 93q5 22 5 44
q0 26 -8.5 49t-25.5 40.5t-42.5 27.5t-59.5 10q-40 0 -72 -13.5t-55.5 -36.5t-39 -53.5t-21.5 -65.5l-15 -75q-2 -14 -3.5 -27.5t-1.5 -26.5q0 -43 21.5 -79t56.5 -50l-35 -168h-249z" />
    <glyph glyph-name="Iotadieresis" unicode="&#x3aa;" horiz-adv-x="407" 
d="M0 0l21 104h88l98 490h-88l21 104h302l-21 -104h-88l-98 -490h88l-21 -104h-302zM208 768q-30 0 -43.5 12.5t-13.5 31.5q0 5 1 13t4 22q5 25 22.5 41.5t54.5 16.5q30 0 43.5 -12.5t13.5 -31.5q0 -5 -1 -13t-4 -22q-5 -25 -22.5 -41.5t-54.5 -16.5zM403 768
q-30 0 -43.5 12.5t-13.5 31.5q0 5 1 13t4 22q5 25 22.5 41.5t54.5 16.5q30 0 43.5 -12.5t13.5 -31.5q0 -5 -1 -13t-4 -22q-5 -25 -22.5 -41.5t-54.5 -16.5z" />
    <glyph glyph-name="Upsilondieresis" unicode="&#x3ab;" horiz-adv-x="610" 
d="M188 0l55 274l-148 424h129l100 -308h6l216 308h140l-319 -435l-53 -263h-126zM292 768q-30 0 -43.5 12.5t-13.5 31.5q0 5 1 13t4 22q5 25 22.5 41.5t54.5 16.5q30 0 43.5 -12.5t13.5 -31.5q0 -5 -1 -13t-4 -22q-5 -25 -22.5 -41.5t-54.5 -16.5zM487 768
q-30 0 -43.5 12.5t-13.5 31.5q0 5 1 13t4 22q5 25 22.5 41.5t54.5 16.5q30 0 43.5 -12.5t13.5 -31.5q0 -5 -1 -13t-4 -22q-5 -25 -22.5 -41.5t-54.5 -16.5z" />
    <glyph glyph-name="alphatonos" unicode="&#x3ac;" horiz-adv-x="642" 
d="M375 581l-78 24l70 200l110 -27zM567 0h-68q-41 0 -64.5 23.5t-22.5 68.5v67h-3q-26 -50 -50.5 -83t-50 -52.5t-53 -27.5t-57.5 -8q-77 0 -119 46.5t-42 139.5q0 78 18 144t51 114t78.5 75t100.5 27q76 0 114 -40t45 -130h4l39 83l39 75h135l-164 -259l30 -164h59z
M223 90q11 0 22.5 4.5t24.5 15.5t27.5 30.5t31.5 49.5l41 72l-10 70q-9 59 -26 80t-44 21q-35 0 -65 -31.5t-44 -97.5l-14 -72q-6 -30 -6 -61q0 -44 16.5 -62.5t45.5 -18.5z" />
    <glyph glyph-name="epsilontonos" unicode="&#x3ad;" horiz-adv-x="521" 
d="M474 96q-48 -58 -105.5 -83t-139.5 -25q-50 0 -87.5 10.5t-62.5 29t-37 44t-12 54.5q0 57 36.5 95t106.5 47l1 4q-43 10 -64 35.5t-21 60.5q0 31 15 61t44 53.5t73 37.5t101 14q129 0 197 -80l-78 -72q-23 26 -53 39.5t-72 13.5q-50 0 -75 -16t-31 -42q-1 -5 -1.5 -10.5
t-0.5 -12.5q0 -20 15 -31.5t49 -11.5h107l-18 -88h-119q-39 0 -62 -15.5t-29 -42.5q-1 -4 -1.5 -9t-0.5 -13q0 -25 21 -40.5t72 -15.5t86.5 15t70.5 55zM372 581l-78 24l70 200l110 -27z" />
    <glyph glyph-name="etatonos" unicode="&#x3ae;" horiz-adv-x="590" 
d="M396 581l-78 24l70 200l110 -27zM31 0l84 423h-62l20 99h86q36 0 58.5 -19t22.5 -54q0 -7 -0.5 -15.5t-2.5 -13.5l-3 -14h5q29 62 69.5 95t100.5 33q63 0 95.5 -36t32.5 -102q0 -17 -2.5 -34.5t-6.5 -37.5l-104 -524h-121l102 514q6 28 6 55q0 29 -14 45.5t-47 16.5
q-26 0 -48 -12.5t-40 -33.5q-20 -23 -34.5 -51t-20.5 -59l-55 -275h-121z" />
    <glyph glyph-name="iotatonos" unicode="&#x3af;" horiz-adv-x="302" 
d="M238 581l-78 24l70 200l110 -27zM240 0h-90q-107 0 -107 88q0 7 1 17.5t3 21.5l79 395h121l-84 -423h96z" />
    <glyph glyph-name="upsilondieresistonos" unicode="&#x3b0;" horiz-adv-x="559" 
d="M356 581l-55 18l67 206l86 -24zM223 609q-24 0 -36.5 11.5t-12.5 30.5q0 5 1.5 12t3.5 19q5 25 20.5 41t44.5 16q25 0 37 -12t12 -30q0 -5 -1 -12t-4 -20q-4 -24 -19.5 -40t-45.5 -16zM488 609q-24 0 -36.5 11.5t-12.5 30.5q0 5 1.5 12t3.5 19q5 25 20.5 41t44.5 16
q25 0 37 -12t12 -30q0 -5 -1 -12t-4 -20q-4 -24 -19.5 -40t-45.5 -16zM181 242q-5 -26 -7.5 -42t-2.5 -33q0 -79 78 -79q22 0 39.5 6t32 22t26 44.5t20.5 73.5l58 288h121l-59 -294q-26 -122 -86 -181t-159 -59q-44 0 -79 13.5t-59.5 37t-37.5 55.5t-13 70q0 20 2 40.5
t7 46.5l54 271h121z" />
    <glyph glyph-name="alpha" unicode="&#x3b1;" horiz-adv-x="642" 
d="M567 0h-68q-41 0 -64.5 23.5t-22.5 68.5v67h-3q-26 -50 -50.5 -83t-50 -52.5t-53 -27.5t-57.5 -8q-77 0 -119 46.5t-42 139.5q0 78 18 144t51 114t78.5 75t100.5 27q76 0 114 -40t45 -130h4l39 83l39 75h135l-164 -259l30 -164h59zM223 90q11 0 22.5 4.5t24.5 15.5
t27.5 30.5t31.5 49.5l41 72l-10 70q-9 59 -26 80t-44 21q-35 0 -65 -31.5t-44 -97.5l-14 -72q-6 -30 -6 -61q0 -44 16.5 -62.5t45.5 -18.5z" />
    <glyph glyph-name="beta" unicode="&#x3b2;" horiz-adv-x="571" 
d="M122 509q25 123 92.5 183t164.5 60q88 0 135 -44.5t47 -125.5q0 -40 -11.5 -72t-31.5 -55.5t-47.5 -39.5t-60.5 -25l-1 -5q57 -12 87.5 -49.5t30.5 -105.5q0 -46 -16 -89.5t-45.5 -77.5t-71 -54.5t-92.5 -20.5q-58 0 -94.5 28t-43.5 73h-5l-58 -289h-121zM291 435h38
q42 0 67 23t35 67q5 21 6.5 34.5t1.5 24.5q0 31 -18 49.5t-53 18.5q-41 0 -74 -30.5t-49 -106.5l-64 -319q-11 -50 12 -79t80 -29q51 0 83 24.5t42 79.5q4 20 5.5 33.5t1.5 26.5q0 85 -92 85h-42z" />
    <glyph glyph-name="gamma" unicode="&#x3b3;" horiz-adv-x="528" 
d="M157 0l-58 423h-58l20 99h68q38 0 59.5 -18.5t24.5 -53.5l17 -158l11 -162h7q54 87 100 186.5t76 205.5h128q-35 -119 -102.5 -252t-170.5 -270l-40 -200h-122z" />
    <glyph glyph-name="delta" unicode="&#x3b4;" horiz-adv-x="544" 
d="M371 641l-92 8l-1 -4l90 -72q40 -32 67 -61.5t43.5 -60t23 -63t6.5 -69.5q0 -70 -20 -130.5t-55.5 -105t-85 -70t-107.5 -25.5q-93 0 -148 56t-55 161q0 69 22 124t57 92.5t78 57.5t86 20l1 6l-117 107l25 128h371l-19 -99h-170zM385 337q0 32 -10.5 58.5t-41.5 59.5
q-63 -7 -102 -49.5t-53 -108.5q-11 -45 -15.5 -73t-4.5 -42q0 -42 22 -68t66 -26q45 0 75 31.5t44 91.5q11 47 15.5 76.5t4.5 49.5z" />
    <glyph glyph-name="epsilon" unicode="&#x3b5;" horiz-adv-x="521" 
d="M474 96q-48 -58 -105.5 -83t-139.5 -25q-50 0 -87.5 10.5t-62.5 29t-37 44t-12 54.5q0 57 36.5 95t106.5 47l1 4q-43 10 -64 35.5t-21 60.5q0 31 15 61t44 53.5t73 37.5t101 14q129 0 197 -80l-78 -72q-23 26 -53 39.5t-72 13.5q-50 0 -75 -16t-31 -42q-1 -5 -1.5 -10.5
t-0.5 -12.5q0 -20 15 -31.5t49 -11.5h107l-18 -88h-119q-39 0 -62 -15.5t-29 -42.5q-1 -4 -1.5 -9t-0.5 -13q0 -25 21 -40.5t72 -15.5t86.5 15t70.5 55z" />
    <glyph glyph-name="zeta" unicode="&#x3b6;" horiz-adv-x="430" 
d="M158 740h356l-20 -98l-206 -204q-41 -40 -67 -72t-41 -59t-20.5 -50.5t-5.5 -47.5q0 -34 22 -58t76 -42l41 -13q72 -24 72 -83q0 -16 -4.5 -30.5t-12.5 -32.5l-59 -123l-100 41l57 120l-38 12q-91 31 -133 79.5t-42 124.5q0 34 7.5 66.5t26 67t50 72t79.5 81.5l163 153
l1 5l-82 -8h-139z" />
    <glyph glyph-name="eta" unicode="&#x3b7;" horiz-adv-x="590" 
d="M31 0l84 423h-62l20 99h86q36 0 58.5 -19t22.5 -54q0 -7 -0.5 -15.5t-2.5 -13.5l-3 -14h5q29 62 69.5 95t100.5 33q63 0 95.5 -36t32.5 -102q0 -17 -2.5 -34.5t-6.5 -37.5l-104 -524h-121l102 514q6 28 6 55q0 29 -14 45.5t-47 16.5q-26 0 -48 -12.5t-40 -33.5
q-20 -23 -34.5 -51t-20.5 -59l-55 -275h-121z" />
    <glyph glyph-name="theta" unicode="&#x3b8;" horiz-adv-x="607" 
d="M131 381q38 0 60.5 -20t22.5 -52q0 -8 -1.5 -20t-3.5 -18l-8 -39q-3 -14 -5 -29t-2 -26q0 -42 20 -65.5t62 -23.5q48 0 79.5 35t47.5 113l24 123h-68q-53 0 -91.5 13t-64 36t-37.5 54t-12 67q0 39 17 82t49 75t72.5 49t91.5 17q93 0 144.5 -55.5t51.5 -154.5
q0 -32 -4.5 -75t-13 -89.5t-21 -94.5t-28.5 -91t-35 -78.5t-41 -57.5q-34 -34 -75 -51t-92 -17q-46 0 -82 14.5t-61 40t-38 61.5t-13 80q0 16 2 33t7 39l5 26h-60l19 99h82zM275 527q0 -33 20 -51t73 -18h79l5 23q4 19 6 38t2 44q0 42 -20 65.5t-62 23.5q-43 0 -66.5 -25
t-31.5 -61q-2 -13 -3.5 -21.5t-1.5 -17.5z" />
    <glyph glyph-name="iota" unicode="&#x3b9;" horiz-adv-x="302" 
d="M240 0h-90q-107 0 -107 88q0 7 1 17.5t3 21.5l79 395h121l-84 -423h96z" />
    <glyph glyph-name="kappa" unicode="&#x3ba;" horiz-adv-x="549" 
d="M251 223l-78 -69l-31 -154h-121l104 522h121l-47 -232h7l81 87l119 112q20 19 40 26t51 7h64l-21 -99h-58l-138 -124l143 -299h-140z" />
    <glyph glyph-name="lambda" unicode="&#x3bb;" horiz-adv-x="523" 
d="M240 641h-91l19 99h99q41 0 61 -20t25 -55l67 -566h64l-19 -99h-72q-40 0 -60.5 20t-25.5 55l-18 155l-6 148h-9l-64 -148l-123 -230h-129l296 522z" />
    <glyph glyph-name="uni03BC" unicode="&#x3bc;" horiz-adv-x="581" 
d="M-20 -200l145 722h121l-62 -310q-3 -14 -5 -30t-2 -27q0 -30 13.5 -47t43.5 -17q26 0 47.5 12.5t39.5 33.5q20 23 34 52t20 59l55 274h121l-85 -423h63l-19 -99h-86q-36 0 -58.5 19t-22.5 54q0 8 1 15.5t2 12.5l3 15h-6q-33 -71 -65 -99.5t-75 -28.5q-33 0 -51.5 19
t-23.5 54h-5l1 -147l-23 -114h-121z" />
    <glyph glyph-name="nu" unicode="&#x3bd;" horiz-adv-x="534" 
d="M143 0l-44 423h-58l20 99h68q38 0 60 -18.5t24 -53.5l13 -142l8 -197h6q67 108 113.5 207t76.5 204h128q-35 -119 -101.5 -249.5t-169.5 -272.5h-144z" />
    <glyph glyph-name="xi" unicode="&#x3be;" horiz-adv-x="430" 
d="M376 641q-48 0 -81.5 -25t-43.5 -76q-2 -8 -3 -18t-1 -21q0 -72 80 -72h62l-20 -99h-78q-60 0 -92 -25t-40 -70q-4 -15 -4 -33q0 -32 20 -55t70 -40l36 -11q73 -24 73 -83q0 -16 -4.5 -30.5t-12.5 -32.5l-59 -123l-100 41l57 120l-34 11q-87 29 -127.5 76t-40.5 120
q0 36 12 68t35.5 56.5t58.5 41t81 20.5l1 4q-95 28 -95 116q0 46 26 80.5t74 51.5l2 8h-118l20 99h389l-19 -99h-124z" />
    <glyph glyph-name="omicron" unicode="&#x3bf;" horiz-adv-x="545" 
d="M239 -12q-92 0 -147 56t-55 161q0 69 20 129t56 104.5t85 70t108 25.5q92 0 147 -56t55 -161q0 -69 -20 -129t-56 -104.5t-85.5 -70t-107.5 -25.5zM246 88q45 0 76.5 33t43.5 96l18 87q2 10 3 17.5t1 18.5q0 42 -22.5 68t-66.5 26q-45 0 -76.5 -33t-43.5 -96l-18 -88
q-2 -8 -3 -16t-1 -19q0 -42 22.5 -68t66.5 -26z" />
    <glyph glyph-name="pi" unicode="&#x3c0;" horiz-adv-x="634" 
d="M454 0q-107 0 -107 88q0 16 5 39l59 296h-151l-84 -423h-121l84 423h-84l20 99h577l-20 -99h-100l-65 -324h69l-19 -99h-63z" />
    <glyph glyph-name="rho" unicode="&#x3c1;" horiz-adv-x="549" 
d="M58 281q26 125 91 189t162 64t149.5 -53t52.5 -156q0 -67 -17 -128t-48 -107.5t-74.5 -74t-96.5 -27.5q-54 0 -89 28t-42 73h-5l-58 -289h-121zM248 88q51 0 80 31.5t42 94.5l18 87q2 8 3.5 18t1.5 22q0 42 -23.5 67.5t-65.5 25.5q-44 0 -75 -32.5t-44 -95.5l-22 -110
q-5 -22 -2.5 -41.5t12.5 -34.5t28.5 -23.5t46.5 -8.5z" />
    <glyph glyph-name="sigma1" unicode="&#x3c2;" horiz-adv-x="483" 
d="M257 -12l-42 13q-48 16 -81.5 36t-55.5 46t-32 58.5t-10 74.5q0 68 20 126.5t55.5 101t85 66.5t109.5 24q74 0 123 -36t60 -95l-102 -41q-10 34 -28.5 53t-58.5 19q-50 0 -82.5 -31.5t-47.5 -103.5q-5 -25 -8.5 -44.5t-3.5 -36.5q0 -40 21.5 -64t79.5 -44l44 -14
q73 -24 73 -83q0 -16 -4.5 -30.5t-12.5 -32.5l-59 -123l-100 41z" />
    <glyph glyph-name="sigma" unicode="&#x3c3;" horiz-adv-x="569" 
d="M461 423l-1 -7q25 -24 36.5 -54t11.5 -73q0 -57 -20 -111.5t-55.5 -96.5t-85 -67.5t-107.5 -25.5q-93 0 -148 56t-55 161q0 71 21 129.5t59 100t90.5 64.5t115.5 23h275l-20 -99h-117zM315 423q-112 0 -136 -119l-18 -86q-2 -8 -3 -16.5t-1 -19.5q0 -42 22.5 -68
t66.5 -26q45 0 76.5 33t43.5 96l15 74q3 15 5 28.5t2 27.5q0 25 -5 42.5t-19 33.5h-49z" />
    <glyph glyph-name="tau" unicode="&#x3c4;" horiz-adv-x="475" 
d="M241 0q-107 0 -107 88q0 7 1 17.5t3 21.5l59 296h-143l19 99h425l-20 -99h-160l-64 -324h106l-19 -99h-100z" />
    <glyph glyph-name="upsilon" unicode="&#x3c5;" horiz-adv-x="559" 
d="M181 242q-5 -26 -7.5 -42t-2.5 -33q0 -79 78 -79q22 0 39.5 6t32 22t26 44.5t20.5 73.5l58 288h121l-59 -294q-26 -122 -86 -181t-159 -59q-44 0 -79 13.5t-59.5 37t-37.5 55.5t-13 70q0 20 2 40.5t7 46.5l54 271h121z" />
    <glyph glyph-name="phi" unicode="&#x3c6;" horiz-adv-x="728" 
d="M243 -12q-51 0 -90 15t-64.5 41t-38.5 61t-13 75q0 56 11.5 109t35.5 99.5t59.5 83.5t83.5 62l62 -80q-48 -28 -75 -69.5t-39 -102.5l-12 -56q-4 -18 -5 -30t-1 -23q0 -42 24.5 -64t81.5 -22l39 195q26 130 79.5 191t151.5 61q78 0 118 -46t40 -128q0 -87 -21.5 -156
t-63 -117t-103 -73.5t-141.5 -25.5l-37 -188h-119zM382 87q68 0 109.5 35t57.5 113l15 76q4 19 5.5 36t1.5 30q0 59 -55 59q-31 0 -52.5 -24t-33.5 -84z" />
    <glyph glyph-name="chi" unicode="&#x3c7;" horiz-adv-x="524" 
d="M145 522q40 0 61.5 -18t26.5 -59l28 -186h4l157 263h134l-236 -359l51 -264h69l-19 -99h-77q-38 0 -60.5 18t-27.5 60l-29 203h-5l-166 -281h-134l246 377l-49 246h-69l19 99h76z" />
    <glyph glyph-name="psi" unicode="&#x3c8;" horiz-adv-x="723" 
d="M209 -200l37 188q-43 0 -78.5 13t-61 36.5t-39.5 56t-14 71.5q0 20 2 40.5t7 46.5l54 270h121l-56 -281q-6 -26 -8 -41t-2 -29q0 -44 23 -64t72 -20l125 623h119l-125 -623q31 0 55 6.5t41 23t29.5 46t21.5 74.5l57 285h121l-60 -293q-13 -65 -36 -110.5t-58 -74.5
t-82.5 -42.5t-108.5 -13.5l-37 -188h-119z" />
    <glyph glyph-name="omega" unicode="&#x3c9;" horiz-adv-x="731" 
d="M418 206q-4 -20 -5 -34.5t-1 -24.5q0 -59 53 -59q29 0 50.5 22.5t33.5 83.5l18 90q3 14 5 29t2 27q0 36 -12 65.5t-39 54.5l88 74q42 -38 62.5 -84t20.5 -107q0 -79 -16.5 -144.5t-45.5 -112t-70.5 -72.5t-90.5 -26q-63 0 -95 31t-33 103h-4q-23 -72 -61.5 -103
t-91.5 -31q-69 0 -109 46t-40 129q0 61 12 117.5t36.5 104.5t60.5 86t84 63l62 -80q-48 -28 -75 -69.5t-39 -102.5l-14 -69q-4 -19 -5.5 -36t-1.5 -30q0 -59 53 -59q31 0 51.5 23t32.5 83l34 169h121z" />
    <glyph glyph-name="iotadieresis" unicode="&#x3ca;" horiz-adv-x="302" 
d="M115 605q-30 0 -43.5 12.5t-13.5 31.5q0 5 1 13t4 22q5 25 22.5 41.5t54.5 16.5q30 0 43.5 -12.5t13.5 -31.5q0 -5 -1 -13t-4 -22q-5 -25 -22.5 -41.5t-54.5 -16.5zM310 605q-30 0 -43.5 12.5t-13.5 31.5q0 5 1 13t4 22q5 25 22.5 41.5t54.5 16.5q30 0 43.5 -12.5
t13.5 -31.5q0 -5 -1 -13t-4 -22q-5 -25 -22.5 -41.5t-54.5 -16.5zM240 0h-90q-107 0 -107 88q0 7 1 17.5t3 21.5l79 395h121l-84 -423h96z" />
    <glyph glyph-name="upsilondieresis" unicode="&#x3cb;" horiz-adv-x="559" 
d="M251 605q-30 0 -43.5 12.5t-13.5 31.5q0 5 1 13t4 22q5 25 22.5 41.5t54.5 16.5q30 0 43.5 -12.5t13.5 -31.5q0 -5 -1 -13t-4 -22q-5 -25 -22.5 -41.5t-54.5 -16.5zM446 605q-30 0 -43.5 12.5t-13.5 31.5q0 5 1 13t4 22q5 25 22.5 41.5t54.5 16.5q30 0 43.5 -12.5
t13.5 -31.5q0 -5 -1 -13t-4 -22q-5 -25 -22.5 -41.5t-54.5 -16.5zM181 242q-5 -26 -7.5 -42t-2.5 -33q0 -79 78 -79q22 0 39.5 6t32 22t26 44.5t20.5 73.5l58 288h121l-59 -294q-26 -122 -86 -181t-159 -59q-44 0 -79 13.5t-59.5 37t-37.5 55.5t-13 70q0 20 2 40.5t7 46.5
l54 271h121z" />
    <glyph glyph-name="omicrontonos" unicode="&#x3cc;" horiz-adv-x="545" 
d="M359 581l-78 24l70 200l110 -27zM239 -12q-92 0 -147 56t-55 161q0 69 20 129t56 104.5t85 70t108 25.5q92 0 147 -56t55 -161q0 -69 -20 -129t-56 -104.5t-85.5 -70t-107.5 -25.5zM246 88q45 0 76.5 33t43.5 96l18 87q2 10 3 17.5t1 18.5q0 42 -22.5 68t-66.5 26
q-45 0 -76.5 -33t-43.5 -96l-18 -88q-2 -8 -3 -16t-1 -19q0 -42 22.5 -68t66.5 -26z" />
    <glyph glyph-name="upsilontonos" unicode="&#x3cd;" horiz-adv-x="559" 
d="M376 581l-78 24l70 200l110 -27zM181 242q-5 -26 -7.5 -42t-2.5 -33q0 -79 78 -79q22 0 39.5 6t32 22t26 44.5t20.5 73.5l58 288h121l-59 -294q-26 -122 -86 -181t-159 -59q-44 0 -79 13.5t-59.5 37t-37.5 55.5t-13 70q0 20 2 40.5t7 46.5l54 271h121z" />
    <glyph glyph-name="omegatonos" unicode="&#x3ce;" horiz-adv-x="731" 
d="M418 206q-4 -20 -5 -34.5t-1 -24.5q0 -59 53 -59q29 0 50.5 22.5t33.5 83.5l18 90q3 14 5 29t2 27q0 36 -12 65.5t-39 54.5l88 74q42 -38 62.5 -84t20.5 -107q0 -79 -16.5 -144.5t-45.5 -112t-70.5 -72.5t-90.5 -26q-63 0 -95 31t-33 103h-4q-23 -72 -61.5 -103
t-91.5 -31q-69 0 -109 46t-40 129q0 61 12 117.5t36.5 104.5t60.5 86t84 63l62 -80q-48 -28 -75 -69.5t-39 -102.5l-14 -69q-4 -19 -5.5 -36t-1.5 -30q0 -59 53 -59q31 0 51.5 23t32.5 83l34 169h121zM466 581l-78 24l70 200l110 -27z" />
    <glyph glyph-name="uni0400" unicode="&#x400;" horiz-adv-x="574" 
d="M27 0l140 698h438l-23 -112h-311l-36 -179h276l-22 -112h-277l-36 -183h323l-22 -112h-450zM277 916l109 51l66 -189l-76 -34z" />
    <glyph glyph-name="uni0401" unicode="&#x401;" horiz-adv-x="574" 
d="M27 0l140 698h438l-23 -112h-311l-36 -179h276l-22 -112h-277l-36 -183h323l-22 -112h-450zM300 768q-30 0 -43.5 12.5t-13.5 31.5q0 5 1 13t4 22q5 25 22.5 41.5t54.5 16.5q30 0 43.5 -12.5t13.5 -31.5q0 -5 -1 -13t-4 -22q-5 -25 -22.5 -41.5t-54.5 -16.5zM495 768
q-30 0 -43.5 12.5t-13.5 31.5q0 5 1 13t4 22q5 25 22.5 41.5t54.5 16.5q30 0 43.5 -12.5t13.5 -31.5q0 -5 -1 -13t-4 -22q-5 -25 -22.5 -41.5t-54.5 -16.5z" />
    <glyph glyph-name="uni0402" unicode="&#x402;" horiz-adv-x="778" 
d="M406 -62h93q18 19 34 54t25 80l21 105q4 18 6.5 34.5t2.5 30.5q0 47 -25 68.5t-79 21.5q-39 0 -70.5 -5.5t-58.5 -15.5l-62 -311h-126l117 586h-192l22 112h510l-22 -112h-192l-34 -169h5q25 12 61 19.5t77 7.5q95 0 145 -46.5t50 -134.5q0 -19 -2.5 -41.5t-7.5 -47.5
l-21 -105q-24 -116 -84 -181.5t-166 -65.5h-50z" />
    <glyph glyph-name="uni0403" unicode="&#x403;" horiz-adv-x="493" 
d="M167 698h387l-22 -112h-261l-118 -586h-126zM384 744l-73 39l115 185l99 -53z" />
    <glyph glyph-name="uni0404" unicode="&#x404;" horiz-adv-x="642" 
d="M310 -12q-58 0 -105 18t-80 53.5t-51 88.5t-18 122q0 92 26.5 172t74 139.5t113.5 94t146 34.5q98 0 154.5 -40.5t85.5 -120.5l-110 -51q-8 22 -18.5 40t-26.5 31t-39 20.5t-56 7.5q-81 0 -129 -51t-66 -137h247l-21 -112h-249q-2 -15 -3 -27.5t-1 -23.5q0 -69 32 -107
t104 -38q34 0 59.5 7t45.5 20.5t36.5 34t31.5 46.5l106 -51q-54 -89 -122.5 -129.5t-166.5 -40.5z" />
    <glyph glyph-name="uni0405" unicode="&#x405;" horiz-adv-x="583" 
d="M253 -12q-85 0 -150.5 28.5t-102.5 96.5l96 74q27 -45 65 -65.5t92 -20.5q72 0 109.5 32.5t37.5 81.5q0 35 -23.5 55t-63.5 28l-53 11q-75 16 -118.5 59t-43.5 123q0 46 18.5 86t52 69.5t81.5 46.5t108 17q79 0 139.5 -26t95.5 -74l-91 -81q-26 35 -60 51.5t-89 16.5
q-60 0 -94 -25.5t-34 -69.5q0 -35 21 -53.5t63 -27.5l50 -10q79 -17 125 -61t46 -123q0 -45 -18.5 -88t-54 -76.5t-87 -54t-117.5 -20.5z" />
    <glyph glyph-name="uni0406" unicode="&#x406;" horiz-adv-x="406" 
d="M0 0l21 104h88l98 490h-88l21 104h302l-21 -104h-88l-98 -490h88l-21 -104h-302z" />
    <glyph glyph-name="uni0407" unicode="&#x407;" horiz-adv-x="406" 
d="M0 0l21 104h88l98 490h-88l21 104h302l-21 -104h-88l-98 -490h88l-21 -104h-302zM207 768q-30 0 -43.5 12.5t-13.5 31.5q0 5 1 13t4 22q5 25 22.5 41.5t54.5 16.5q30 0 43.5 -12.5t13.5 -31.5q0 -5 -1 -13t-4 -22q-5 -25 -22.5 -41.5t-54.5 -16.5zM402 768
q-30 0 -43.5 12.5t-13.5 31.5q0 5 1 13t4 22q5 25 22.5 41.5t54.5 16.5q30 0 43.5 -12.5t13.5 -31.5q0 -5 -1 -13t-4 -22q-5 -25 -22.5 -41.5t-54.5 -16.5z" />
    <glyph glyph-name="uni0408" unicode="&#x408;" horiz-adv-x="524" 
d="M533 698l-102 -510q-19 -93 -76 -146.5t-153 -53.5q-47 0 -82.5 14t-60 38.5t-38.5 58t-17 73.5l120 24q3 -43 20.5 -69.5t58.5 -26.5t67.5 25.5t37.5 78.5l78 389h-213l21 105h339z" />
    <glyph glyph-name="uni0409" unicode="&#x409;" horiz-adv-x="1014" 
d="M-9 112h77q19 17 37 42.5t35.5 66.5t34 100t33.5 142l47 235h431l-52 -262h139q102 0 153.5 -48.5t51.5 -134.5q0 -57 -19 -103.5t-53.5 -79.5t-82.5 -51.5t-106 -18.5h-297l117 586h-182l-25 -123q-19 -96 -38 -163.5t-38 -114t-38.5 -76t-38.5 -48.5
q-36 -36 -75.5 -50.5t-87.5 -14.5h-47zM735 112q38 0 64.5 19t36.5 61q5 23 8.5 42.5t3.5 30.5q0 27 -16.5 43t-54.5 16h-166l-42 -212h166z" />
    <glyph glyph-name="uni040A" unicode="&#x40a;" horiz-adv-x="1011" 
d="M167 698h126l-58 -291h263l58 291h126l-52 -262h141q101 0 152 -49t51 -134q0 -57 -19 -103.5t-53.5 -79.5t-82 -51.5t-105.5 -18.5h-298l59 295h-262l-60 -295h-126zM731 112q38 0 64.5 19t36.5 61q5 23 8.5 42.5t3.5 30.5q0 27 -16.5 43t-54.5 16h-166l-42 -212h166z
" />
    <glyph glyph-name="uni040B" unicode="&#x40b;" horiz-adv-x="788" 
d="M284 586h-192l22 112h510l-22 -112h-192l-34 -169h5q25 12 61.5 19.5t81.5 7.5q99 0 149.5 -46.5t50.5 -134.5q0 -21 -2.5 -44.5t-8.5 -52.5l-34 -166h-126l36 176q4 19 7 35.5t3 30.5q0 47 -26 68.5t-84 21.5q-43 0 -75 -5.5t-59 -15.5l-62 -311h-126z" />
    <glyph glyph-name="uni040C" unicode="&#x40c;" horiz-adv-x="652" 
d="M167 698h126l-58 -290h106l161 221q27 37 53 53t67 16h59l-22 -112h-54l-122 -167q-20 -29 -39.5 -41.5t-45.5 -17.5l-1 -6q19 -7 32 -22t24 -43l66 -177h57l-22 -112h-49q-22 0 -38 4t-28 13t-21 24.5t-18 38.5l-81 217h-106l-60 -297h-126zM440 744l-73 39l115 185
l99 -53z" />
    <glyph glyph-name="uni040D" unicode="&#x40d;" horiz-adv-x="695" 
d="M167 698h123l-75 -373l-42 -142h3l91 131l322 384h114l-140 -698h-123l75 373l42 142h-3l-91 -130l-322 -385h-114zM328 916l109 51l66 -189l-76 -34z" />
    <glyph glyph-name="uni040E" unicode="&#x40e;" horiz-adv-x="593" 
d="M94 112h108l30 51l-130 535h127l58 -249l28 -151h7l70 147l141 253h133l-351 -608q-30 -52 -61 -71t-77 -19h-105zM386 748q-51 0 -85 23.5t-53 78.5l-16 48l101 39l18 -96q8 -3 21 -4.5t25 -1.5q14 0 25.5 1.5t18.5 4.5l47 96l97 -41l-29 -46q-32 -52 -73.5 -77
t-96.5 -25z" />
    <glyph glyph-name="uni040F" unicode="&#x40f;" horiz-adv-x="679" 
d="M228 0h-201l140 698h126l-118 -586h268l118 586h126l-140 -698h-201l-30 -150h-118z" />
    <glyph glyph-name="uni0410" unicode="&#x410;" horiz-adv-x="648" 
d="M448 0l-19 180h-237l-89 -180h-135l363 698h162l83 -698h-128zM392 583h-7l-142 -296h177z" />
    <glyph glyph-name="uni0411" unicode="&#x411;" horiz-adv-x="621" 
d="M167 698h441l-22 -112h-315l-32 -160h134q101 0 152.5 -48.5t51.5 -130.5q0 -54 -18.5 -99.5t-52.5 -78.5t-81.5 -51t-105.5 -18h-292zM337 112q38 0 64.5 19t34.5 57q11 49 11 69q0 24 -16.5 40.5t-54.5 16.5h-159l-41 -202h161z" />
    <glyph glyph-name="uni0412" unicode="&#x412;" horiz-adv-x="644" 
d="M167 698h286q78 0 125 -36.5t47 -108.5q0 -67 -34.5 -119t-103.5 -70l-1 -5q53 -14 78 -47.5t25 -84.5q0 -50 -16 -91.5t-46 -71.5t-74 -47t-101 -17h-325zM352 109q39 0 64.5 19t33.5 59q5 26 7 38.5t2 19.5q0 26 -17 41t-52 15h-177l-38 -192h177zM384 405
q41 0 66.5 17t33.5 57q5 24 6.5 36t1.5 19q0 25 -16 40t-48 15h-157l-37 -184h150z" />
    <glyph glyph-name="uni0413" unicode="&#x413;" horiz-adv-x="493" 
d="M167 698h387l-22 -112h-261l-118 -586h-126z" />
    <glyph glyph-name="uni0414" unicode="&#x414;" horiz-adv-x="762" 
d="M-12 112h81q20 18 38.5 44t36 67.5t34.5 101t34 144.5l46 229h462l-118 -586h107l-53 -262h-118l30 150h-485l-30 -150h-118zM476 112l95 474h-213l-23 -117q-17 -85 -33 -144t-31 -99t-30 -65.5t-31 -44.5l-1 -4h267z" />
    <glyph glyph-name="uni0415" unicode="&#x415;" horiz-adv-x="574" 
d="M27 0l140 698h438l-23 -112h-311l-36 -179h276l-22 -112h-277l-36 -183h323l-22 -112h-450z" />
    <glyph glyph-name="uni0416" unicode="&#x416;" horiz-adv-x="972" 
d="M15 112h58l107 165q22 34 47 53t57 24l1 5q-17 7 -28.5 20.5t-20.5 40.5l-56 166h-58l22 112h39q43 0 66.5 -17t38.5 -62l71 -211h91l58 290h129l-58 -290h91l151 222q25 37 53 52.5t73 15.5h53l-22 -112h-54l-113 -166q-21 -31 -39.5 -43t-44.5 -17l-1 -6q18 -7 31 -22
t23 -45l56 -175h58l-23 -112h-48q-45 0 -68 17t-37 61l-70 219h-91l-60 -297h-129l60 297h-91l-146 -225q-26 -40 -55.5 -56t-71.5 -16h-71z" />
    <glyph glyph-name="uni0417" unicode="&#x417;" horiz-adv-x="596" 
d="M249 -12q-85 0 -145 30t-102 94l97 75q28 -44 64 -65.5t86 -21.5q58 0 93.5 21.5t46.5 68.5q2 9 4 19.5t2 18.5q0 35 -24.5 53t-78.5 18h-98l23 111h93q59 0 90.5 19.5t39.5 57.5q5 22 5 42q0 31 -25 50t-76 19q-53 0 -94 -19.5t-71 -51.5l-75 85q47 46 109.5 72
t143.5 26q108 0 164 -43.5t56 -120.5q0 -72 -39.5 -120t-111.5 -65l-1 -5q55 -12 78 -47t23 -82q0 -52 -20 -96t-57 -75.5t-88 -49.5t-112 -18z" />
    <glyph glyph-name="uni0418" unicode="&#x418;" horiz-adv-x="695" 
d="M167 698h123l-75 -373l-42 -142h3l91 131l322 384h114l-140 -698h-123l75 373l42 142h-3l-91 -130l-322 -385h-114z" />
    <glyph glyph-name="uni0419" unicode="&#x419;" horiz-adv-x="695" 
d="M167 698h123l-75 -373l-42 -142h3l91 131l322 384h114l-140 -698h-123l75 373l42 142h-3l-91 -130l-322 -385h-114zM447 748q-51 0 -85 23.5t-53 78.5l-16 48l101 39l18 -96q8 -3 21 -4.5t25 -1.5q14 0 25.5 1.5t18.5 4.5l47 96l97 -41l-29 -46q-32 -52 -73.5 -77
t-96.5 -25z" />
    <glyph glyph-name="uni041A" unicode="&#x41a;" horiz-adv-x="652" 
d="M167 698h126l-58 -290h106l161 221q27 37 53 53t67 16h59l-22 -112h-54l-122 -167q-20 -29 -39.5 -41.5t-45.5 -17.5l-1 -6q19 -7 32 -22t24 -43l66 -177h57l-22 -112h-49q-22 0 -38 4t-28 13t-21 24.5t-18 38.5l-81 217h-106l-60 -297h-126z" />
    <glyph glyph-name="uni041B" unicode="&#x41b;" horiz-adv-x="704" 
d="M-9 112h77q19 17 37 42.5t35.5 66.5t34 100t33.5 142l47 235h457l-140 -698h-126l117 586h-208l-25 -123q-19 -96 -38 -163.5t-38 -114t-38.5 -76t-38.5 -48.5q-36 -36 -75.5 -50.5t-87.5 -14.5h-47z" />
    <glyph glyph-name="uni041C" unicode="&#x41c;" horiz-adv-x="796" 
d="M643 498h-6l-91 -129l-173 -239l-82 249l-38 120h-5l-100 -499h-121l140 698h138l106 -346h4l242 346h147l-140 -698h-121z" />
    <glyph glyph-name="uni041D" unicode="&#x41d;" horiz-adv-x="695" 
d="M496 295h-284l-59 -295h-126l140 698h126l-58 -291h284l58 291h126l-140 -698h-126z" />
    <glyph glyph-name="uni041E" unicode="&#x41e;" horiz-adv-x="691" 
d="M306 -12q-51 0 -96 16.5t-79.5 51t-54.5 87.5t-20 125q0 89 26 169.5t73.5 141t113.5 96t146 35.5q51 0 96 -17t79 -51.5t54 -87t20 -124.5q0 -89 -26 -169.5t-73 -141t-113 -96t-146 -35.5zM315 101q76 0 126 50.5t68 142.5l21 104q4 17 5 31.5t1 26.5q0 68 -33.5 104.5
t-97.5 36.5q-76 0 -126 -50.5t-68 -142.5l-21 -104q-4 -17 -5 -31.5t-1 -26.5q0 -68 33.5 -104.5t97.5 -36.5z" />
    <glyph glyph-name="uni041F" unicode="&#x41f;" horiz-adv-x="680" 
d="M167 698h521l-141 -698h-126l118 586h-268l-118 -586h-126z" />
    <glyph glyph-name="uni0420" unicode="&#x420;" horiz-adv-x="623" 
d="M27 0l140 698h259q101 0 153.5 -48.5t52.5 -132.5q0 -55 -19 -101t-53.5 -79t-82 -51.5t-105.5 -18.5h-165l-54 -267h-126zM229 379h160q38 0 65.5 20t35.5 61q5 26 8.5 41t3.5 24q0 26 -17.5 43.5t-56.5 17.5h-157z" />
    <glyph glyph-name="uni0421" unicode="&#x421;" horiz-adv-x="625" 
d="M301 -12q-54 0 -99 18t-77.5 53.5t-50.5 88.5t-18 122q0 92 26.5 172t73.5 139.5t111.5 94t140.5 34.5q91 0 149 -43t83 -124l-112 -48q-14 46 -43 74t-87 28q-73 0 -121 -50t-65 -135l-23 -112q-4 -17 -5 -30t-1 -24q0 -69 33 -107t96 -38q62 0 100 30.5t65 80.5
l105 -49q-47 -90 -118 -132.5t-163 -42.5z" />
    <glyph glyph-name="uni0422" unicode="&#x422;" horiz-adv-x="565" 
d="M411 586l-118 -586h-126l118 586h-193l22 112h510l-22 -112h-191z" />
    <glyph glyph-name="uni0423" unicode="&#x423;" horiz-adv-x="593" 
d="M94 112h108l30 51l-130 535h127l58 -249l28 -151h7l70 147l141 253h133l-351 -608q-30 -52 -61 -71t-77 -19h-105z" />
    <glyph glyph-name="uni0424" unicode="&#x424;" horiz-adv-x="852" 
d="M321 50h-33q-61 0 -106.5 19.5t-75.5 52.5t-45 76t-15 90q0 72 23.5 137t69.5 114t112.5 78t152.5 29h36l18 90h126l-18 -90h33q61 0 106.5 -19.5t75.5 -52.5t45 -76t15 -90q0 -72 -23.5 -137t-69.5 -114t-112.5 -78t-152.5 -29h-36l-18 -90h-126zM344 154l77 388h-37
q-41 0 -73.5 -12.5t-57.5 -34.5t-41 -52t-23 -64l-11 -56q-2 -14 -3 -26.5t-1 -23.5q0 -24 8 -45.5t25 -38t42 -26t60 -9.5h35zM503 154q40 0 73 12.5t58 34.5t41 52t23 64l11 56q2 14 3 26.5t1 23.5q0 24 -8 45.5t-25 38t-42.5 26t-59.5 9.5h-35l-77 -388h37z" />
    <glyph glyph-name="uni0425" unicode="&#x425;" horiz-adv-x="628" 
d="M552 0h-135l-105 256h-7l-194 -256h-146l289 366l-145 332h135l102 -247h7l192 247h146l-289 -352z" />
    <glyph glyph-name="uni0426" unicode="&#x426;" horiz-adv-x="731" 
d="M537 0h-510l140 698h126l-117 -586h268l117 586h126l-117 -586h108l-53 -262h-118z" />
    <glyph glyph-name="uni0427" unicode="&#x427;" horiz-adv-x="647" 
d="M441 259h-5q-25 -12 -61 -19.5t-81 -7.5q-99 0 -149.5 46.5t-50.5 134.5q0 21 2.5 44.5t8.5 52.5l38 188h126l-39 -196q-4 -19 -7 -37t-3 -32q0 -46 25.5 -67.5t83.5 -21.5q43 0 75 5.5t58 15.5l67 333h126l-140 -698h-126z" />
    <glyph glyph-name="uni0428" unicode="&#x428;" horiz-adv-x="974" 
d="M167 698h126l-117 -586h218l117 586h126l-117 -586h218l117 586h126l-139 -698h-815z" />
    <glyph glyph-name="uni0429" unicode="&#x429;" horiz-adv-x="1025" 
d="M831 0h-804l140 698h126l-117 -586h218l117 586h126l-117 -586h218l117 586h126l-117 -586h108l-53 -262h-118z" />
    <glyph glyph-name="uni042A" unicode="&#x42a;" horiz-adv-x="718" 
d="M238 586h-155l22 112h281l-52 -262h143q101 0 152.5 -48.5t51.5 -134.5q0 -57 -19 -103.5t-53.5 -79.5t-82.5 -51.5t-106 -18.5h-300zM437 112q38 0 66 19.5t36 61.5q5 23 8.5 42t3.5 30q0 27 -16.5 43t-54.5 16h-169l-42 -212h168z" />
    <glyph glyph-name="uni042B" unicode="&#x42b;" horiz-adv-x="894" 
d="M167 698h126l-52 -262h140q102 0 153 -48.5t51 -134.5q0 -57 -19 -103.5t-53.5 -79.5t-82.5 -51.5t-106 -18.5h-297zM341 112q38 0 66 19.5t36 61.5q5 23 8.5 42t3.5 30q0 27 -16.5 43t-54.5 16h-166l-42 -212h165zM776 698h126l-140 -698h-126z" />
    <glyph glyph-name="uni042C" unicode="&#x42c;" horiz-adv-x="625" 
d="M167 698h126l-52 -262h143q101 0 152.5 -48.5t51.5 -134.5q0 -57 -19 -103.5t-53.5 -79.5t-82.5 -51.5t-106 -18.5h-300zM344 112q38 0 66 19.5t36 61.5q5 23 8.5 42t3.5 30q0 27 -16.5 43t-54.5 16h-169l-42 -212h168z" />
    <glyph glyph-name="uni042D" unicode="&#x42d;" horiz-adv-x="643" 
d="M236 409h248q2 12 3 23t1 20q0 69 -33.5 107t-105.5 38q-62 0 -99.5 -26.5t-66.5 -76.5l-105 50q48 81 114.5 123.5t164.5 42.5q57 0 104 -17t81.5 -51.5t53.5 -88t19 -125.5q0 -94 -26.5 -174.5t-74 -139.5t-113.5 -92.5t-145 -33.5q-98 0 -155 42t-88 124l107 54
q20 -54 53 -80.5t93 -26.5q77 0 127 47t67 138l2 11h-247z" />
    <glyph glyph-name="uni042E" unicode="&#x42e;" horiz-adv-x="973" 
d="M592 -12q-51 0 -95.5 16.5t-77.5 51t-52 87.5t-19 125v11.5t1 15.5h-136l-60 -295h-126l140 698h126l-58 -291h131q16 66 48 122t75.5 96t97.5 62.5t115 22.5q51 0 95.5 -17t77.5 -51.5t52 -87t19 -124.5q0 -89 -26 -169.5t-73 -141t-112 -96t-143 -35.5zM602 100
q73 0 122.5 51t68.5 144l21 104q3 15 4 30t1 27q0 142 -126 142q-73 0 -122.5 -51t-68.5 -144l-21 -104q-3 -15 -4 -30t-1 -27q0 -142 126 -142z" />
    <glyph glyph-name="uni042F" unicode="&#x42f;" horiz-adv-x="648" 
d="M23 112h57l79 114q20 27 40.5 41t46.5 17l1 6q-69 11 -103.5 52t-34.5 105q0 56 19 102t53.5 79t82.5 51.5t105 18.5h287l-140 -698h-126l53 268h-109l-141 -201q-28 -38 -56 -52.5t-69 -14.5h-68zM352 586q-38 0 -66 -19.5t-36 -61.5q-5 -22 -8 -39.5t-3 -28.5
q0 -26 16 -43.5t54 -17.5h157l42 210h-156z" />
    <glyph glyph-name="uni0430" unicode="&#x430;" 
d="M432 0q-36 0 -59 19t-23 53q0 8 1.5 17t2.5 14l3 16h-5q-32 -64 -71 -97.5t-99 -33.5q-36 0 -63.5 13.5t-45.5 38.5t-27 59t-9 76q0 76 18 141.5t50.5 114t78 76t99.5 27.5q53 0 89 -28t43 -73h5l18 89h121l-85 -423h63l-19 -99h-86zM237 89q29 0 52.5 14.5t40.5 34.5
q20 22 33 50.5t20 60.5l18 89q8 40 -17.5 67.5t-73.5 27.5q-103 0 -129 -129l-14 -72q-2 -11 -4 -27t-2 -28q0 -40 19.5 -64t56.5 -24z" />
    <glyph glyph-name="uni0431" unicode="&#x431;" horiz-adv-x="544" 
d="M239 -12q-92 0 -146.5 57t-54.5 160q0 38 9.5 97t29 122t49 122.5t68.5 98.5q40 40 92.5 61.5t133.5 29.5l149 15l-25 -121l-155 -14q-38 -3 -67 -15.5t-52 -37.5t-40.5 -63t-32.5 -92h6q27 56 62.5 80t89.5 24q32 0 60 -13t48.5 -37t32.5 -58.5t12 -77.5q0 -73 -20 -135
t-55.5 -107t-85 -70.5t-108.5 -25.5zM247 88q45 0 78 32t46 97l11 58q2 11 3.5 24t1.5 29q0 39 -20.5 61.5t-66.5 22.5q-47 0 -80.5 -32t-46.5 -97l-10 -51q-6 -27 -6 -50q0 -45 23 -69.5t67 -24.5z" />
    <glyph glyph-name="uni0432" unicode="&#x432;" horiz-adv-x="548" 
d="M126 522h254q63 0 98.5 -31.5t35.5 -85.5q0 -51 -32.5 -86.5t-86.5 -45.5l-1 -4q48 -9 68.5 -35.5t20.5 -62.5t-12.5 -67.5t-36 -54.5t-56.5 -36t-73 -13h-283zM281 91q66 0 78 53q2 10 3.5 21t1.5 16q0 23 -15 34t-41 11h-123l-27 -135h123zM314 304q30 0 50.5 13.5
t26.5 41.5q2 8 3 17t1 14q0 21 -14.5 31t-39.5 10h-114l-25 -127h112z" />
    <glyph glyph-name="uni0433" unicode="&#x433;" horiz-adv-x="428" 
d="M126 522h332l-20 -99h-210l-85 -423h-121z" />
    <glyph glyph-name="uni0434" unicode="&#x434;" horiz-adv-x="554" 
d="M234 -12q-44 0 -80.5 14.5t-62.5 42t-40.5 68t-14.5 92.5q0 68 18.5 126t50.5 100.5t74.5 66.5t89.5 24q49 0 78.5 -23t42.5 -66h6v27q0 101 -41 142t-109 41q-51 0 -84 -10l23 112q28 7 74 7q63 0 107.5 -16.5t76.5 -48.5q36 -36 55 -93.5t19 -145.5q0 -110 -20 -196
t-57 -144.5t-89.5 -89t-116.5 -30.5zM239 88q49 0 78.5 35t46.5 114l10 51q2 13 4 24.5t2 23.5q0 40 -21 63t-63 23q-43 0 -75 -32.5t-46 -97.5l-15 -75q-1 -6 -2 -15t-1 -20q0 -42 21.5 -68t60.5 -26z" />
    <glyph glyph-name="uni0435" unicode="&#x435;" horiz-adv-x="513" 
d="M250 -12q-106 0 -159.5 59t-53.5 164q0 63 20 121.5t56.5 103.5t88 71.5t115.5 26.5q31 0 63 -7.5t58 -24t43 -44.5t17 -68q0 -82 -80.5 -128t-257.5 -50q-3 -20 -3 -29q0 -43 24 -69t78 -26q39 0 71 17t66 59l75 -62q-49 -63 -102.5 -88.5t-118.5 -25.5zM309 440
q-50 0 -85 -33t-46 -90l-5 -25q64 3 104.5 10.5t63 18.5t30.5 26t8 34q0 18 -6.5 29.5t-16.5 18t-22.5 9t-24.5 2.5z" />
    <glyph glyph-name="uni0436" unicode="&#x436;" horiz-adv-x="812" 
d="M10 99h93q14 15 28 48.5t27 96.5q8 42 11.5 72t3.5 50q0 37 -9 57h-78l20 99h46q63 0 93.5 -35t30.5 -119q0 -27 -3 -54h85l42 208h116l-42 -208h83q28 113 74.5 160.5t117.5 47.5h60l-20 -99h-81q-14 -15 -28 -48.5t-26 -96.5q-8 -42 -11 -72t-3 -49t2 -33t7 -25h88
l-20 -99h-56q-64 0 -94.5 35.5t-30.5 119.5q0 14 1 32t3 32h-85l-44 -219h-116l44 219h-83q-14 -60 -32.5 -101.5t-42 -68t-53 -38t-65.5 -11.5h-73z" />
    <glyph glyph-name="uni0437" unicode="&#x437;" horiz-adv-x="497" 
d="M195 -12q-72 0 -121.5 23.5t-80.5 68.5l79 70q40 -62 125 -62q50 0 77.5 16.5t35.5 45.5q2 7 2.5 15t0.5 14q0 20 -15.5 32t-49.5 12h-100l18 88h97q29 0 50 11.5t29 36.5q2 8 3 14.5t1 11.5q0 22 -20.5 35.5t-62.5 13.5t-75 -14.5t-62 -46.5l-69 68q42 47 94 70t125 23
q96 0 142 -37.5t46 -93.5q0 -54 -31.5 -87.5t-88.5 -42.5l-1 -5q42 -7 65.5 -32t23.5 -66t-18.5 -74.5t-50.5 -57.5t-75 -37t-93 -13z" />
    <glyph glyph-name="uni0438" unicode="&#x438;" horiz-adv-x="576" 
d="M241 522l-63 -314q-6 -29 -6 -53q0 -30 13.5 -47t43.5 -17q26 0 47.5 12.5t39.5 33.5q42 48 54 110l55 275h121l-85 -423h63l-19 -99h-86q-36 0 -58.5 19t-22.5 54q0 8 1 16t2 14l3 13h-6q-29 -61 -68 -94.5t-97 -33.5q-62 0 -94 36t-32 102q0 18 2 35.5t6 37.5l65 323
h121z" />
    <glyph glyph-name="uni0439" unicode="&#x439;" horiz-adv-x="576" 
d="M241 522l-63 -314q-6 -29 -6 -53q0 -30 13.5 -47t43.5 -17q26 0 47.5 12.5t39.5 33.5q42 48 54 110l55 275h121l-85 -423h63l-19 -99h-86q-36 0 -58.5 19t-22.5 54q0 8 1 16t2 14l3 13h-6q-29 -61 -68 -94.5t-97 -33.5q-62 0 -94 36t-32 102q0 18 2 35.5t6 37.5l65 323
h121zM344 584q-51 0 -85 23.5t-53 78.5l-16 48l101 39l18 -96q8 -3 21 -4.5t25 -1.5q14 0 25.5 1.5t18.5 4.5l47 96l97 -41l-29 -46q-32 -52 -73.5 -77t-96.5 -25z" />
    <glyph glyph-name="uni043A" unicode="&#x43a;" horiz-adv-x="559" 
d="M126 522h121l-41 -206h79l112 152q23 30 46 42t61 12h60l-20 -99h-53l-82 -111q-15 -20 -30 -29t-34 -12l-1 -6q17 -5 28.5 -15.5t20.5 -34.5l45 -116h53l-20 -99h-53q-38 0 -61 19.5t-37 57.5l-55 141h-78l-44 -218h-121z" />
    <glyph glyph-name="uni043B" unicode="&#x43b;" horiz-adv-x="577" 
d="M-20 99h66q13 16 26 39t25 54.5t23.5 74t22.5 98.5l31 157h383l-105 -522h-121l84 423h-145l-11 -55q-15 -76 -29.5 -130t-29.5 -91t-30.5 -60.5t-31.5 -39.5q-29 -29 -62 -40t-75 -11h-42z" />
    <glyph glyph-name="uni043C" unicode="&#x43c;" horiz-adv-x="699" 
d="M127 522h135l88 -238h2l185 238h142l-104 -522h-118l74 369h-5l-51 -69l-157 -202l-74 201l-25 70h-5l-74 -369h-118z" />
    <glyph glyph-name="uni043D" unicode="&#x43d;" horiz-adv-x="575" 
d="M126 522h121l-41 -206h187l41 206h121l-104 -522h-121l43 217h-187l-43 -217h-121z" />
    <glyph glyph-name="uni043E" unicode="&#x43e;" horiz-adv-x="545" 
d="M239 -12q-92 0 -147 56t-55 161q0 69 20 129t56 104.5t85 70t108 25.5q92 0 147 -56t55 -161q0 -69 -20 -129t-56 -104.5t-85.5 -70t-107.5 -25.5zM246 88q45 0 76.5 33t43.5 96l18 87q2 10 3 17.5t1 18.5q0 42 -22.5 68t-66.5 26q-45 0 -76.5 -33t-43.5 -96l-18 -88
q-2 -8 -3 -16t-1 -19q0 -42 22.5 -68t66.5 -26z" />
    <glyph glyph-name="uni043F" unicode="&#x43f;" horiz-adv-x="580" 
d="M21 0l105 522h121l-23 -116h5q29 62 69.5 95t100.5 33q63 0 95.5 -36t32.5 -102q0 -17 -2.5 -34.5t-6.5 -37.5l-45 -225h58l-20 -99h-84q-36 0 -57 18.5t-21 52.5q0 14 3 28l43 215q6 28 6 55q0 29 -14 45.5t-47 16.5q-26 0 -48 -12.5t-40 -33.5q-20 -23 -34.5 -51
t-20.5 -59l-55 -275h-121z" />
    <glyph glyph-name="uni0440" unicode="&#x440;" horiz-adv-x="580" 
d="M126 522h121l-24 -119h5q32 64 71 97.5t99 33.5q36 0 63.5 -14t45.5 -38.5t27 -59t9 -75.5q0 -76 -18 -141.5t-50.5 -114t-78 -76t-99.5 -27.5q-53 0 -89 28t-43 73h-5l-58 -289h-121zM270 89q103 0 129 129l14 72q2 11 4 27t2 28q0 40 -19.5 64t-56.5 24
q-29 0 -52.5 -14.5t-40.5 -34.5q-20 -22 -33 -50.5t-20 -60.5l-18 -89q-8 -40 17.5 -67.5t73.5 -27.5z" />
    <glyph glyph-name="uni0441" unicode="&#x441;" horiz-adv-x="492" 
d="M237 -12q-43 0 -79.5 13.5t-63.5 40.5t-42 69t-15 99q0 69 20 128.5t56 103t86 68t109 24.5q73 0 122.5 -36t60.5 -95l-102 -40q-11 33 -29 52t-59 19q-98 0 -121 -121l-18 -87q-5 -23 -5 -43q0 -42 22 -68.5t69 -26.5q39 0 63.5 22.5t48.5 65.5l93 -44
q-34 -71 -88.5 -107.5t-127.5 -36.5z" />
    <glyph glyph-name="uni0442" unicode="&#x442;" horiz-adv-x="470" 
d="M206 423h-152l19 99h427l-20 -99h-152l-85 -423h-121z" />
    <glyph glyph-name="uni0443" unicode="&#x443;" horiz-adv-x="502" 
d="M417 522h129l-330 -616q-14 -27 -29.5 -47t-34.5 -33t-43.5 -19.5t-56.5 -6.5h-78l19 99h96l39 75l-76 548h120l25 -214l18 -194h5l90 194z" />
    <glyph glyph-name="uni0444" unicode="&#x444;" horiz-adv-x="784" 
d="M296 85l-4 1q-29 -53 -59 -75.5t-74 -22.5q-57 0 -88 39.5t-31 115.5q0 79 16 150t45.5 124.5t71 85t91.5 31.5q41 0 67 -24t32 -71h4l54 271h121l-54 -273l4 -1q29 53 59 75.5t74 22.5q57 0 88 -39.5t31 -115.5q0 -79 -16 -150t-45.5 -124.5t-71 -85t-91.5 -31.5
q-41 0 -67 24t-32 71h-4l-57 -283h-121zM212 80q32 0 58 26q38 38 50 100l27 133q10 47 -3 75t-47 28q-42 0 -69.5 -34t-43.5 -108l-14 -69q-5 -25 -7.5 -46.5t-2.5 -39.5q0 -65 52 -65zM487 80q42 0 69.5 34t43.5 108l14 69q5 25 7.5 46.5t2.5 39.5q0 65 -52 65
q-32 0 -58 -26q-38 -38 -50 -100l-27 -133q-10 -47 3 -75t47 -28z" />
    <glyph glyph-name="uni0445" unicode="&#x445;" horiz-adv-x="511" 
d="M-44 0l230 272l-116 250h131l71 -181h6l141 181h134l-228 -267l121 -255h-131l-75 183h-6l-144 -183h-134z" />
    <glyph glyph-name="uni0446" unicode="&#x446;" horiz-adv-x="612" 
d="M422 0h-5q-33 0 -56 18.5t-23 53.5q0 19 3 31l3 13h-6q-29 -61 -68 -94.5t-97 -33.5q-62 0 -94 36t-32 102q0 18 2 35.5t6 37.5l65 323h121l-62 -313q-3 -15 -5 -28.5t-2 -24.5q0 -31 13.5 -48t44.5 -17q26 0 47 12.5t39 33.5q42 48 54 110l55 275h122l-85 -423h88
l-48 -239h-108z" />
    <glyph glyph-name="uni0447" unicode="&#x447;" horiz-adv-x="548" 
d="M355 263h-5q-29 -53 -65.5 -77.5t-89.5 -24.5q-66 0 -100 35.5t-34 89.5q0 19 2 36.5t5 34.5l33 165h121l-31 -159q-2 -11 -3 -23t-1 -23q0 -53 63 -53q54 0 85.5 29.5t41.5 79.5l30 149h121l-104 -522h-121z" />
    <glyph glyph-name="uni0448" unicode="&#x448;" horiz-adv-x="850" 
d="M165 -12q-58 0 -88 35.5t-30 97.5q0 23 3 43.5t7 43.5l63 314h121l-62 -314q-3 -14 -6 -30t-3 -28q0 -27 12 -43t41 -16q21 0 41 12.5t38 32.5q19 22 33 52t20 59l55 275h121l-63 -313q-3 -15 -5.5 -31t-2.5 -28q0 -27 11.5 -43t38.5 -16q22 0 42 12.5t37 32.5
q20 23 35 53t20 58l55 275h121l-85 -423h64l-20 -99h-86q-36 0 -59 19t-23 54q0 8 1 16.5t3 15.5l2 11h-5q-29 -60 -67.5 -94t-95.5 -34q-54 0 -82 34t-30 94h-6q-29 -59 -69 -93.5t-97 -34.5z" />
    <glyph glyph-name="uni0449" unicode="&#x449;" horiz-adv-x="885" 
d="M696 0h-3q-36 0 -59 19t-23 54q0 8 1 16.5t3 15.5l2 11h-5q-29 -60 -67.5 -94t-95.5 -34q-54 0 -82 34t-30 94h-6q-29 -59 -69 -93.5t-97 -34.5q-58 0 -88 35.5t-30 97.5q0 23 3 43.5t7 43.5l63 314h121l-62 -314q-3 -14 -6 -30t-3 -28q0 -27 12 -43t41 -16q21 0 41 12.5
t38 32.5q19 22 33 52t20 59l55 275h121l-63 -313q-3 -15 -5.5 -31t-2.5 -28q0 -27 11.5 -43t38.5 -16q22 0 42 12.5t37 32.5q20 23 35 53t20 58l55 275h121l-85 -423h89l-48 -239h-108z" />
    <glyph glyph-name="uni044A" unicode="&#x44a;" horiz-adv-x="605" 
d="M179 423h-125l19 99h247l-33 -165h127q72 0 108.5 -38t36.5 -104q0 -55 -17.5 -95.5t-47 -67t-67.5 -39.5t-80 -13h-252zM338 92q36 0 62 21t34 58q4 17 4 37q0 26 -16 41.5t-50 15.5h-103l-34 -173h103z" />
    <glyph glyph-name="uni044B" unicode="&#x44b;" horiz-adv-x="749" 
d="M126 522h121l-33 -165h118q72 0 109 -38t37 -104q0 -55 -17.5 -95.5t-47 -67t-68 -39.5t-79.5 -13h-244zM256 92q37 0 63 21t34 58q4 17 4 37q0 26 -16.5 41.5t-50.5 15.5h-94l-35 -173h95zM608 522h121l-104 -522h-121z" />
    <glyph glyph-name="uni044C" unicode="&#x44c;" horiz-adv-x="534" 
d="M126 522h121l-33 -165h127q72 0 109 -38t37 -104q0 -55 -17.5 -95.5t-47 -67t-68 -39.5t-79.5 -13h-253zM266 92q36 0 62 21t34 58q4 17 4 37q0 26 -16.5 41.5t-50.5 15.5h-103l-35 -173h105z" />
    <glyph glyph-name="uni044D" unicode="&#x44d;" horiz-adv-x="507" 
d="M173 309h175q3 15 3 33q0 42 -23 66.5t-77 24.5q-40 0 -67.5 -17.5t-50.5 -55.5l-90 56q41 58 91.5 88t127.5 30q46 0 84.5 -13.5t66 -40.5t43 -69t15.5 -99q0 -69 -20 -128.5t-56.5 -103t-87.5 -68t-114 -24.5q-80 0 -128 35t-67 95l98 46q15 -41 38.5 -58.5t64.5 -17.5
q57 0 87 31.5t42 91.5l2 10h-176z" />
    <glyph glyph-name="uni044E" unicode="&#x44e;" horiz-adv-x="783" 
d="M483 -12q-92 0 -144 55.5t-52 161.5v12h-101l-43 -217h-121l104 522h121l-41 -206h94q13 48 36 88t55.5 69t72.5 45t86 16q92 0 144 -55.5t52 -161.5q0 -69 -19 -129.5t-54 -104.5t-83.5 -69.5t-106.5 -25.5zM489 88q90 0 116 128l17 89q2 11 3 21.5t1 18.5
q0 40 -20 64.5t-62 24.5q-90 0 -116 -128l-17 -89q-2 -11 -3 -21.5t-1 -18.5q0 -40 20 -64.5t62 -24.5z" />
    <glyph glyph-name="uni044F" unicode="&#x44f;" horiz-adv-x="552" 
d="M13 99h53l43 64q26 38 64 41l1 5q-49 8 -77 39.5t-28 87.5q0 40 15 74t43 59t67 39t86 14h252l-104 -522h-121l37 188h-86l-78 -117q-26 -39 -52.5 -55t-64.5 -16h-70zM289 430q-41 0 -65.5 -18.5t-31.5 -49.5q-2 -7 -2 -12.5v-11.5q0 -26 16.5 -42t50.5 -16h106l30 150
h-104z" />
    <glyph glyph-name="uni0450" unicode="&#x450;" horiz-adv-x="513" 
d="M250 -12q-106 0 -159.5 59t-53.5 164q0 63 20 121.5t56.5 103.5t88 71.5t115.5 26.5q31 0 63 -7.5t58 -24t43 -44.5t17 -68q0 -82 -80.5 -128t-257.5 -50q-3 -20 -3 -29q0 -43 24 -69t78 -26q39 0 71 17t66 59l75 -62q-49 -63 -102.5 -88.5t-118.5 -25.5zM309 440
q-50 0 -85 -33t-46 -90l-5 -25q64 3 104.5 10.5t63 18.5t30.5 26t8 34q0 18 -6.5 29.5t-16.5 18t-22.5 9t-24.5 2.5zM213 753l109 51l66 -189l-76 -34z" />
    <glyph glyph-name="uni0451" unicode="&#x451;" horiz-adv-x="513" 
d="M250 -12q-106 0 -159.5 59t-53.5 164q0 63 20 121.5t56.5 103.5t88 71.5t115.5 26.5q31 0 63 -7.5t58 -24t43 -44.5t17 -68q0 -82 -80.5 -128t-257.5 -50q-3 -20 -3 -29q0 -43 24 -69t78 -26q39 0 71 17t66 59l75 -62q-49 -63 -102.5 -88.5t-118.5 -25.5zM309 440
q-50 0 -85 -33t-46 -90l-5 -25q64 3 104.5 10.5t63 18.5t30.5 26t8 34q0 18 -6.5 29.5t-16.5 18t-22.5 9t-24.5 2.5zM239 605q-30 0 -43.5 12.5t-13.5 31.5q0 5 1 13t4 22q5 25 22.5 41.5t54.5 16.5q30 0 43.5 -12.5t13.5 -31.5q0 -5 -1 -13t-4 -22q-5 -25 -22.5 -41.5
t-54.5 -16.5zM434 605q-30 0 -43.5 12.5t-13.5 31.5q0 5 1 13t4 22q5 25 22.5 41.5t54.5 16.5q30 0 43.5 -12.5t13.5 -31.5q0 -5 -1 -13t-4 -22q-5 -25 -22.5 -41.5t-54.5 -16.5z" />
    <glyph glyph-name="uni0452" unicode="&#x452;" horiz-adv-x="578" 
d="M234 -101h77l84 415q6 28 6 55q0 29 -14.5 45.5t-46.5 16.5q-26 0 -47.5 -12.5t-40.5 -33.5q-20 -22 -34.5 -50.5t-20.5 -59.5l-55 -275h-121l119 596h-67l17 86h67l12 58h121l-12 -58h142l-17 -86h-142l-37 -190h5q29 62 69 95t100 33q63 0 96 -36t33 -102
q0 -17 -2.5 -34.5t-6.5 -37.5l-80 -396q-13 -64 -47 -96t-101 -32h-76z" />
    <glyph glyph-name="uni0453" unicode="&#x453;" horiz-adv-x="428" 
d="M126 522h332l-20 -99h-210l-85 -423h-121zM316 581l-73 39l115 185l99 -53z" />
    <glyph glyph-name="uni0454" unicode="&#x454;" horiz-adv-x="507" 
d="M245 -12q-94 0 -151 54t-57 168q0 69 19.5 128.5t56 103t88 68t115.5 24.5q81 0 127 -33.5t63 -88.5l-101 -47q-11 35 -31 52t-64 17q-59 0 -88.5 -30t-41.5 -90l-1 -5h175l-18 -88h-175q-2 -9 -3 -19.5t-1 -18.5q0 -42 22 -68.5t77 -26.5q39 0 65.5 18t53.5 66l93 -50
q-39 -67 -91 -100.5t-132 -33.5z" />
    <glyph glyph-name="uni0455" unicode="&#x455;" horiz-adv-x="489" 
d="M211 -12q-63 0 -117.5 23.5t-87.5 69.5l77 71q23 -31 54.5 -48t76.5 -17q49 0 73.5 20t24.5 49q0 19 -12 33t-45 19l-49 7q-65 10 -102 43t-37 96q0 36 12.5 68.5t38.5 57t65.5 39.5t92.5 15q122 0 188 -81l-78 -71q-19 24 -48.5 38.5t-67.5 14.5q-42 0 -63.5 -17.5
t-21.5 -46.5q0 -19 12 -33t44 -19l49 -7q66 -10 103 -43t37 -96q0 -38 -14.5 -72t-42.5 -59t-69 -39.5t-93 -14.5z" />
    <glyph glyph-name="uni0456" unicode="&#x456;" horiz-adv-x="277" 
d="M204 598q-33 0 -48 13t-15 34q0 15 5 38q6 25 23.5 43.5t60.5 18.5q33 0 48 -13t15 -34q0 -15 -5 -38q-6 -25 -23.5 -43.5t-60.5 -18.5zM122 0q-38 0 -60.5 20.5t-22.5 54.5q0 10 3 25l84 422h121l-84 -423h63l-20 -99h-84z" />
    <glyph glyph-name="uni0457" unicode="&#x457;" horiz-adv-x="277" 
d="M122 0q-38 0 -60.5 20.5t-22.5 54.5q0 10 3 25l84 422h121l-84 -423h63l-20 -99h-84zM106 605q-30 0 -43.5 12.5t-13.5 31.5q0 5 1 13t4 22q5 25 22.5 41.5t54.5 16.5q30 0 43.5 -12.5t13.5 -31.5q0 -5 -1 -13t-4 -22q-5 -25 -22.5 -41.5t-54.5 -16.5zM301 605
q-30 0 -43.5 12.5t-13.5 31.5q0 5 1 13t4 22q5 25 22.5 41.5t54.5 16.5q30 0 43.5 -12.5t13.5 -31.5q0 -5 -1 -13t-4 -22q-5 -25 -22.5 -41.5t-54.5 -16.5z" />
    <glyph glyph-name="uni0458" unicode="&#x458;" horiz-adv-x="270" 
d="M129 522h121l-119 -594q-13 -64 -47.5 -96t-102.5 -32h-75l20 99h78zM207 598q-33 0 -48 13t-15 34q0 15 5 38q6 25 23.5 43.5t60.5 18.5q33 0 48 -13t15 -34q0 -15 -5 -38q-6 -25 -23.5 -43.5t-60.5 -18.5z" />
    <glyph glyph-name="uni0459" unicode="&#x459;" horiz-adv-x="820" 
d="M-20 99h66q13 16 26 39t25 54.5t23.5 74t22.5 98.5l31 157h368l-33 -165h117q72 0 109.5 -38t37.5 -104q0 -55 -17.5 -95.5t-47 -67t-68 -39.5t-80.5 -13h-243l84 423h-131l-11 -55q-15 -76 -29.5 -130t-29.5 -91t-30.5 -60.5t-31.5 -39.5q-29 -29 -62 -40t-75 -11h-42z
M551 92q37 0 63 21t34 58q4 17 4 37q0 26 -17 41.5t-50 15.5h-94l-35 -173h95z" />
    <glyph glyph-name="uni045A" unicode="&#x45a;" horiz-adv-x="821" 
d="M126 522h121l-41 -206h176l41 206h121l-33 -165h117q72 0 109.5 -38t37.5 -104q0 -55 -18 -95.5t-47.5 -67t-68 -39.5t-80.5 -13h-242l43 217h-176l-43 -217h-121zM552 92q37 0 63.5 21t34.5 58q4 17 4 37q0 26 -17 41.5t-51 15.5h-93l-35 -173h94z" />
    <glyph glyph-name="uni045B" unicode="&#x45b;" horiz-adv-x="580" 
d="M140 596h-67l17 86h67l12 58h121l-11 -58h141l-17 -86h-141l-38 -190h5q29 62 69.5 95t100.5 33q63 0 95.5 -36t32.5 -102q0 -17 -2.5 -34.5t-6.5 -37.5l-45 -225h58l-20 -99h-84q-36 0 -57 18.5t-21 52.5q0 14 3 28l43 215q6 28 6 55q0 29 -14 45.5t-47 16.5
q-26 0 -48 -12.5t-40 -33.5q-20 -23 -34.5 -51t-20.5 -59l-55 -275h-121z" />
    <glyph glyph-name="uni045C" unicode="&#x45c;" horiz-adv-x="559" 
d="M126 522h121l-41 -206h79l112 152q23 30 46 42t61 12h60l-20 -99h-53l-82 -111q-15 -20 -30 -29t-34 -12l-1 -6q17 -5 28.5 -15.5t20.5 -34.5l45 -116h53l-20 -99h-53q-38 0 -61 19.5t-37 57.5l-55 141h-78l-44 -218h-121zM367 581l-73 39l115 185l99 -53z" />
    <glyph glyph-name="uni045D" unicode="&#x45d;" horiz-adv-x="576" 
d="M241 522l-63 -314q-6 -29 -6 -53q0 -30 13.5 -47t43.5 -17q26 0 47.5 12.5t39.5 33.5q42 48 54 110l55 275h121l-85 -423h63l-19 -99h-86q-36 0 -58.5 19t-22.5 54q0 8 1 16t2 14l3 13h-6q-29 -61 -68 -94.5t-97 -33.5q-62 0 -94 36t-32 102q0 18 2 35.5t6 37.5l65 323
h121zM224 753l109 51l66 -189l-76 -34z" />
    <glyph glyph-name="uni045E" unicode="&#x45e;" horiz-adv-x="502" 
d="M417 522h129l-330 -616q-14 -27 -29.5 -47t-34.5 -33t-43.5 -19.5t-56.5 -6.5h-78l19 99h96l39 75l-76 548h120l25 -214l18 -194h5l90 194zM301 584q-51 0 -85 23.5t-53 78.5l-16 48l101 39l18 -96q8 -3 21 -4.5t25 -1.5q14 0 25.5 1.5t18.5 4.5l47 96l97 -41l-29 -46
q-32 -52 -73.5 -77t-96.5 -25z" />
    <glyph glyph-name="uni045F" unicode="&#x45f;" horiz-adv-x="576" 
d="M173 -12q-62 0 -94 36t-32 102q0 18 2 35.5t6 37.5l65 323h121l-62 -314q-3 -14 -5 -28t-2 -25q0 -30 13.5 -47t43.5 -17q26 0 47.5 12.5t39.5 33.5q20 23 34 52t20 59l55 274h122l-85 -423h63l-20 -99h-86q-36 0 -58.5 19t-22.5 54q0 8 1 16t2 14l3 13h-6
q-29 -61 -68 -94.5t-97 -33.5zM163 -50h108l-30 -150h-108z" />
    <glyph glyph-name="uni0472" unicode="&#x472;" horiz-adv-x="691" 
d="M305 -12q-51 0 -96 16.5t-79 51t-54 87.5t-20 125q0 89 26 169.5t73.5 141t113.5 96t146 35.5q51 0 96 -17t79 -51.5t54 -87t20 -124.5q0 -89 -26 -169.5t-73.5 -141t-113.5 -96t-146 -35.5zM313 93q81 0 133 53t71 149h-336q-2 -16 -3 -30.5t-1 -25.5q0 -69 34 -107.5
t102 -38.5zM407 605q-80 0 -132 -52t-72 -146h336q2 14 3 27.5t1 24.5q0 69 -34 107.5t-102 38.5z" />
    <glyph glyph-name="uni0473" unicode="&#x473;" horiz-adv-x="545" 
d="M239 -12q-93 0 -148 56t-55 161q0 69 20 129.5t56 104.5t85.5 69.5t108.5 25.5q93 0 147.5 -56t54.5 -161q0 -69 -20 -129.5t-55.5 -104.5t-85 -69.5t-108.5 -25.5zM244 81q48 0 81 34.5t47 100.5l1 5h-219l-1 -5q-3 -18 -3 -37q0 -44 23 -71t71 -27zM391 306q3 18 3 37
q0 44 -23 71t-71 27t-81.5 -34t-46.5 -101h219z" />
    <glyph glyph-name="uni0490" unicode="&#x490;" horiz-adv-x="494" 
d="M167 698h269l31 151h118l-53 -263h-261l-118 -586h-126z" />
    <glyph glyph-name="uni0491" unicode="&#x491;" horiz-adv-x="428" 
d="M126 522h224l28 140h108l-48 -239h-210l-85 -423h-121z" />
    <glyph glyph-name="uni0492" unicode="&#x492;" horiz-adv-x="525" 
d="M119 300h-87l19 95h87l61 303h387l-22 -112h-261l-38 -191h173l-19 -95h-174l-60 -300h-126z" />
    <glyph glyph-name="uni0493" unicode="&#x493;" horiz-adv-x="442" 
d="M79 213h-65l17 86h66l44 223h332l-20 -99h-210l-25 -124h133l-17 -86h-133l-43 -213h-121z" />
    <glyph glyph-name="uni0494" unicode="&#x494;" horiz-adv-x="638" 
d="M252 -62h93q26 20 45.5 55t29.5 83l11 54q4 19 6.5 35.5t2.5 30.5q0 47 -25.5 68.5t-79.5 21.5q-39 0 -71 -5.5t-58 -15.5l-53 -265h-126l140 698h387l-22 -112h-261l-43 -216h4q25 12 61 20t77 8q95 0 145 -47t50 -134q0 -40 -9 -89l-11 -54q-14 -65 -39 -112.5
t-59.5 -78.5t-77 -46t-90.5 -15h-50z" />
    <glyph glyph-name="uni0495" unicode="&#x495;" horiz-adv-x="545" 
d="M194 -99h84q16 14 28.5 39t19.5 62l22 106q2 11 3 22t1 22q0 53 -64 53q-53 0 -84 -27t-40 -73l-21 -105h-121l104 522h332l-20 -99h-210l-42 -207h6q29 46 64 69t87 23q66 0 100.5 -35.5t34.5 -89.5q0 -19 -2.5 -36.5t-5.5 -34.5l-24 -120q-20 -100 -75 -146t-138 -46
h-59z" />
    <glyph glyph-name="uni0496" unicode="&#x496;" horiz-adv-x="991" 
d="M803 1q-28 2 -49 17.5t-36 59.5l-70 219h-91l-60 -297h-129l60 297h-91l-146 -225q-26 -40 -55.5 -56t-71.5 -16h-71l22 112h58l107 165q22 34 47 53t57 24l1 5q-17 7 -28.5 20.5t-20.5 40.5l-56 166h-58l22 112h39q43 0 66.5 -17t38.5 -62l71 -211h91l58 290h129
l-58 -290h91l151 222q25 37 53 52.5t73 15.5h53l-22 -112h-54l-113 -166q-21 -31 -39.5 -43t-44.5 -17l-1 -6q18 -7 31 -22t23 -45l56 -175h108l-53 -262h-118z" />
    <glyph glyph-name="uni0497" unicode="&#x497;" horiz-adv-x="820" 
d="M642 0q-54 5 -80 41t-26 114q0 14 1 32t3 32h-85l-44 -219h-116l44 219h-83q-14 -60 -32.5 -101.5t-42 -68t-53 -38t-65.5 -11.5h-73l20 99h93q14 15 28 48.5t27 96.5q8 42 11.5 72t3.5 50q0 37 -9 57h-78l20 99h46q63 0 93.5 -35t30.5 -119q0 -27 -3 -54h85l42 208h116
l-42 -208h83q28 113 74.5 160.5t117.5 47.5h60l-20 -99h-81q-14 -15 -28 -48.5t-26 -96.5q-8 -42 -11 -72t-3 -49t2 -33t7 -25h121l-48 -239h-108z" />
    <glyph glyph-name="uni0498" unicode="&#x498;" horiz-adv-x="596" 
d="M172 -5q-108 22 -170 117l97 75q28 -44 64 -65.5t86 -21.5q58 0 93.5 21.5t46.5 68.5q2 9 4 19.5t2 18.5q0 35 -24.5 53t-78.5 18h-98l23 111h93q59 0 90.5 19.5t39.5 57.5q5 22 5 42q0 31 -25 50t-76 19q-53 0 -94 -19.5t-71 -51.5l-75 85q47 46 109.5 72t143.5 26
q108 0 164 -43.5t56 -120.5q0 -72 -39.5 -120t-111.5 -65l-1 -5q55 -12 78 -47t23 -82q0 -48 -17 -88.5t-48 -72t-75 -51t-97 -25.5l-27 -140h-118z" />
    <glyph glyph-name="uni0499" unicode="&#x499;" horiz-adv-x="497" 
d="M134 -7q-92 17 -141 87l79 70q40 -62 125 -62q50 0 77.5 16.5t35.5 45.5q2 7 2.5 15t0.5 14q0 20 -15.5 32t-49.5 12h-100l18 88h97q29 0 50 11.5t29 36.5q2 8 3 14.5t1 11.5q0 22 -20.5 35.5t-62.5 13.5t-75 -14.5t-62 -46.5l-69 68q42 47 94 70t125 23q96 0 142 -37.5
t46 -93.5q0 -54 -31.5 -87.5t-88.5 -42.5l-1 -5q42 -7 65.5 -32t23.5 -66q0 -36 -14.5 -66.5t-40 -53.5t-60.5 -38t-76 -21l-26 -131h-108z" />
    <glyph glyph-name="uni049A" unicode="&#x49a;" horiz-adv-x="671" 
d="M485 1q-28 3 -43.5 14t-25 28t-16.5 37l-81 217h-106l-60 -297h-126l140 698h126l-58 -290h106l161 221q27 37 53 53t67 16h59l-22 -112h-54l-122 -167q-20 -29 -39.5 -41.5t-45.5 -17.5l-1 -6q19 -7 32 -22t24 -43l66 -177h107l-54 -262h-117z" />
    <glyph glyph-name="uni049B" unicode="&#x49b;" horiz-adv-x="568" 
d="M398 1q-29 5 -47.5 24t-30.5 52l-55 141h-78l-44 -218h-121l104 522h121l-41 -206h79l112 152q23 30 46 42t61 12h60l-20 -99h-53l-82 -111q-15 -20 -30 -29t-34 -12l-1 -6q17 -5 28.5 -15.5t20.5 -34.5l45 -116h88l-48 -239h-109z" />
    <glyph glyph-name="uni049C" unicode="&#x49c;" horiz-adv-x="716" 
d="M167 698h126l-58 -290h50l28 140h94l-28 -140h37l152 222q26 38 52 53t67 15h60l-23 -112h-54l-114 -166q-20 -29 -37.5 -42t-45.5 -18l-1 -6q20 -8 32 -22.5t22 -44.5l58 -175h57l-23 -112h-48q-44 0 -67 18t-37 61l-72 218h-38l-28 -143h-94l28 143h-49l-60 -297h-126z
" />
    <glyph glyph-name="uni049D" unicode="&#x49d;" horiz-adv-x="624" 
d="M126 522h121l-41 -206h44l23 116h78l-23 -116h32l105 152q22 31 44 42.5t61 11.5h60l-20 -99h-53l-72 -104q-17 -25 -31.5 -35t-33.5 -13l-1 -6q17 -4 27.5 -16t19.5 -40l37 -110h53l-20 -99h-53q-38 0 -60 20t-35 58l-47 140h-33l-24 -117h-78l24 117h-43l-44 -218h-121
z" />
    <glyph glyph-name="uni04A0" unicode="&#x4a0;" horiz-adv-x="745" 
d="M238 586h-155l22 112h281l-58 -290h106l161 221q27 37 53 53t67 16h59l-22 -112h-54l-122 -167q-20 -29 -39.5 -41.5t-45.5 -17.5l-1 -6q19 -7 32 -22t24 -43l66 -177h57l-22 -112h-49q-22 0 -38 4t-28 13t-21 24.5t-18 38.5l-81 217h-106l-60 -297h-126z" />
    <glyph glyph-name="uni04A1" unicode="&#x4a1;" horiz-adv-x="632" 
d="M179 423h-125l19 99h247l-41 -206h79l113 153q23 30 46 41.5t61 11.5h59l-20 -99h-53l-82 -111q-15 -20 -29.5 -29t-34.5 -12l-1 -6q17 -5 28.5 -15.5t20.5 -34.5l45 -116h53l-20 -99h-53q-37 0 -60 19t-38 58l-55 141h-78l-44 -218h-121z" />
    <glyph glyph-name="uni04A2" unicode="&#x4a2;" horiz-adv-x="746" 
d="M551 0h-114l59 295h-283l-60 -295h-126l140 698h126l-58 -291h284l58 291h126l-118 -586h108l-54 -262h-118z" />
    <glyph glyph-name="uni04A3" unicode="&#x4a3;" horiz-adv-x="622" 
d="M432 0h-102l43 217h-187l-43 -217h-121l104 522h121l-41 -206h187l41 206h121l-84 -423h89l-48 -239h-108z" />
    <glyph glyph-name="uni04A4" unicode="&#x4a4;" horiz-adv-x="884" 
d="M167 698h126l-58 -291h263l58 291h388l-22 -112h-262l-118 -586h-126l59 295h-262l-60 -295h-126z" />
    <glyph glyph-name="uni04A5" unicode="&#x4a5;" horiz-adv-x="726" 
d="M126 522h121l-41 -206h176l41 206h333l-20 -99h-211l-85 -423h-121l43 217h-176l-43 -217h-121z" />
    <glyph glyph-name="uni04AA" unicode="&#x4aa;" horiz-adv-x="625" 
d="M235 -4q-81 20 -130 88.5t-49 185.5q0 92 26.5 172t73.5 139.5t111.5 94t140.5 34.5q91 0 149 -43t83 -124l-112 -48q-14 46 -43 74t-87 28q-73 0 -121 -50t-65 -135l-23 -111q-4 -17 -5 -30.5t-1 -24.5q0 -69 33 -107t96 -38q62 0 100 30.5t65 80.5l105 -49
q-40 -77 -98 -119t-132 -52l-28 -142h-118z" />
    <glyph glyph-name="uni04AB" unicode="&#x4ab;" horiz-adv-x="492" 
d="M173 -4q-61 17 -98.5 69.5t-37.5 144.5q0 69 20 128.5t56 103t86 68t109 24.5q73 0 122.5 -36t60.5 -95l-102 -40q-11 33 -29 52t-59 19q-98 0 -121 -121l-18 -87q-5 -23 -5 -43q0 -42 22 -68.5t69 -26.5q39 0 63.5 22.5t48.5 65.5l93 -44q-58 -122 -173 -140l-26 -132
h-109z" />
    <glyph glyph-name="uni04AE" unicode="&#x4ae;" horiz-adv-x="610" 
d="M188 0l55 274l-148 424h129l100 -308h6l216 308h140l-319 -435l-53 -263h-126z" />
    <glyph glyph-name="uni04AF" unicode="&#x4af;" horiz-adv-x="504" 
d="M134 0l-82 522h120l28 -216l16 -176h6l81 176l111 216h130l-289 -522l-40 -200h-121z" />
    <glyph glyph-name="uni04B0" unicode="&#x4b0;" horiz-adv-x="610" 
d="M223 176h-144l19 94h145l-148 428h129l100 -308h6l216 308h140l-314 -428h141l-19 -94h-145l-35 -176h-126z" />
    <glyph glyph-name="uni04B1" unicode="&#x4b1;" horiz-adv-x="504" 
d="M18 0h116l-82 522h120l28 -216l16 -176h6l81 176l111 216h130l-289 -522h116l-17 -85h-116l-23 -115h-121l23 115h-116z" />
    <glyph glyph-name="uni04B2" unicode="&#x4b2;" horiz-adv-x="652" 
d="M470 0h-53l-105 256h-7l-194 -256h-146l289 366l-145 332h135l102 -247h7l192 247h146l-289 -352l102 -234h106l-52 -262h-118z" />
    <glyph glyph-name="uni04B3" unicode="&#x4b3;" horiz-adv-x="527" 
d="M367 0h-52l-76 183h-5l-144 -183h-134l230 272l-116 250h131l71 -181h6l141 181h134l-228 -267l74 -156h97l-49 -239h-108z" />
    <glyph glyph-name="uni04B6" unicode="&#x4b6;" horiz-adv-x="698" 
d="M504 0h-115l52 259h-5q-25 -12 -61 -19.5t-81 -7.5q-99 0 -149.5 46.5t-50.5 134.5q0 21 2.5 44.5t8.5 52.5l38 188h126l-39 -196q-4 -19 -7 -37t-3 -32q0 -46 25.5 -67.5t83.5 -21.5q43 0 75 5.5t58 15.5l67 333h126l-118 -586h108l-54 -262h-117z" />
    <glyph glyph-name="uni04B7" unicode="&#x4b7;" horiz-adv-x="593" 
d="M404 0h-101l52 263h-5q-29 -53 -65.5 -77.5t-89.5 -24.5q-66 0 -100 35.5t-34 89.5q0 19 2 36.5t5 34.5l33 165h121l-31 -159q-2 -11 -3 -23t-1 -23q0 -53 63 -53q54 0 85.5 29.5t41.5 79.5l30 149h121l-84 -423h88l-48 -239h-108z" />
    <glyph glyph-name="uni04B8" unicode="&#x4b8;" horiz-adv-x="661" 
d="M455 259h-5q-17 -8 -39 -14t-48 -9l-25 -130h-93l25 127q-89 8 -132.5 53.5t-43.5 126.5q0 21 2.5 44.5t8.5 52.5l38 188h126l-40 -198q-4 -19 -6.5 -36t-2.5 -31q0 -38 16.5 -59t55.5 -27l31 154h93l-32 -155q56 5 92 19l67 333h126l-140 -698h-126z" />
    </font>
</defs>
</svg>
