<?xml version="1.0" standalone="no"?>
<!DOCTYPE svg PUBLIC "-//W3C//DTD SVG 1.1//EN" "http://www.w3.org/Graphics/SVG/1.1/DTD/svg11.dtd" >
<svg xmlns="http://www.w3.org/2000/svg" xmlns:xlink="http://www.w3.org/1999/xlink" version="1.1">
<metadata>
Created by FontForge 20170731 at Thu Jun 10 16:22:19 2021
 By Aleksey,,,
Copyright 2018 IBM Corp. All rights reserved.
</metadata>
<defs>
<font id="IBMPlexSans-BoldItalic" horiz-adv-x="0" >
  <font-face 
    font-family="IBM Plex Sans"
    font-weight="700"
    font-style="italic"
    font-stretch="normal"
    units-per-em="1000"
    panose-1="2 11 8 3 5 2 3 0 2 3"
    ascent="780"
    descent="-220"
    x-height="525"
    cap-height="698"
    bbox="-292 -275 1278 1148"
    underline-thickness="100"
    underline-position="-216"
    slope="-11"
    unicode-range="U+000D-FB02"
  />
<missing-glyph horiz-adv-x="472" 
d="M32 0v780h408v-780h-408zM132 100h208v580h-208v-580z" />
    <glyph glyph-name="fi" unicode="fi" horiz-adv-x="633" 
d="M86 525h69l13 65q16 74 59 112t117 38h84l-24 -112h-89l-20 -103h315l-81 -413h59l-22 -112h-97q-38 0 -62 21.5t-24 56.5q0 8 1 15.5t2 11.5l62 308h-175l-92 -463q-15 -76 -63 -113t-121 -37h-84l24 112h97l99 501h-69zM553 584q-37 0 -53.5 15.5t-16.5 39.5q0 5 1 12
t5 26q6 31 28.5 51.5t65.5 20.5q37 0 53.5 -15.5t16.5 -39.5q0 -5 -1 -12.5t-5 -25.5q-8 -31 -29.5 -51.5t-64.5 -20.5z" />
    <glyph glyph-name=".notdef" horiz-adv-x="472" 
d="M32 0v780h408v-780h-408zM132 100h208v580h-208v-580z" />
    <glyph glyph-name=".null" 
 />
    <glyph glyph-name=".null" 
 />
    <glyph glyph-name="uni000D" unicode="&#xd;" horiz-adv-x="236" 
 />
    <glyph glyph-name="space" unicode=" " horiz-adv-x="236" 
 />
    <glyph glyph-name="exclam" unicode="!" horiz-adv-x="314" 
d="M119 220l11 284l38 194h152l-38 -194l-101 -284h-62zM104 -12q-42 0 -59.5 16.5t-17.5 41.5q0 5 0.5 12.5t5.5 29.5q7 35 31.5 55.5t69.5 20.5q42 0 59.5 -16.5t17.5 -41.5q0 -5 -0.5 -12.5t-5.5 -29.5q-7 -35 -31.5 -55.5t-69.5 -20.5z" />
    <glyph glyph-name="quotedbl" unicode="&#x22;" horiz-adv-x="488" 
d="M96 414l65 326h132l-65 -326h-132zM321 414l65 326h132l-65 -326h-132z" />
    <glyph glyph-name="numbersign" unicode="#" horiz-adv-x="640" 
d="M348 174h-157l-65 -174h-90l65 174h-108l18 88h123l65 174h-109l18 88h123l65 174h90l-65 -174h157l65 174h90l-65 -174h108l-18 -88h-123l-65 -174h109l-18 -88h-123l-65 -174h-90zM380 262l65 174h-156l-65 -174h156z" />
    <glyph glyph-name="dollar" unicode="$" horiz-adv-x="561" 
d="M173 13q-60 11 -107 36t-71 62l93 85q18 -29 50 -48t69 -27l37 183q-88 20 -129 63t-41 112q0 44 16 81t46.5 65t74 45t98.5 20l18 90h110l-20 -96q51 -10 90 -32t61 -56l-93 -82q-14 21 -37 37.5t-55 24.5l-34 -168q81 -20 124 -61t43 -111q0 -40 -14.5 -78t-44 -69
t-73.5 -52.5t-102 -27.5l-17 -91h-110zM380 213q0 23 -11.5 42t-43.5 30l-31 -165q50 10 68 36.5t18 56.5zM210 496q0 -49 58 -68l29 151q-48 -7 -67.5 -31t-19.5 -52z" />
    <glyph glyph-name="percent" unicode="%" horiz-adv-x="939" 
d="M144 0l564 698h124l-564 -698h-124zM247 314q-71 0 -113 40t-42 121q0 54 17 97.5t45.5 74t65 47t75.5 16.5q71 0 113 -40t42 -121q0 -54 -17 -97.5t-45.5 -74t-65 -47t-75.5 -16.5zM253 398q26 0 40 21.5t23 66.5l10 50q5 25 5 40q0 24 -11 37t-31 13q-26 0 -40 -21.5
t-23 -66.5l-10 -50q-5 -25 -5 -40q0 -24 11 -37t31 -13zM681 -12q-71 0 -113 40t-42 121q0 54 17 97.5t45.5 74t65 47t75.5 16.5q71 0 113 -40t42 -121q0 -54 -17 -97.5t-45.5 -74t-65 -47t-75.5 -16.5zM687 72q26 0 40 21.5t23 66.5l10 50q5 25 5 40q0 24 -11 37t-31 13
q-26 0 -40 -21.5t-23 -66.5l-10 -50q-5 -25 -5 -40q0 -24 11 -37t31 -13z" />
    <glyph glyph-name="ampersand" unicode="&#x26;" horiz-adv-x="704" 
d="M435 57q-35 -29 -83.5 -49t-115.5 -20q-51 0 -89.5 13t-64 35.5t-38.5 53.5t-13 68q0 43 13 75.5t36 58.5t55.5 47t70.5 41q-19 28 -35.5 63t-16.5 73q0 44 17 79.5t48 61t72.5 39.5t91.5 14q40 0 73 -9.5t57 -28.5t37.5 -47t13.5 -64t-14.5 -65t-39 -53t-56.5 -44
t-67 -38l83 -117q17 31 28.5 67t19.5 74h173l-24 -120h-79q-17 -62 -51 -115l106 -150h-167zM363 602q-25 0 -43 -14t-23 -37q-2 -5 -2.5 -13.5t-0.5 -15.5q0 -18 8.5 -36.5t27.5 -44.5q47 25 70 48t23 59q0 25 -16.5 39.5t-43.5 14.5zM272 107q59 0 106 31l-116 163
q-32 -17 -54 -38t-29 -54q-3 -12 -3 -27q0 -75 96 -75z" />
    <glyph glyph-name="quotesingle" unicode="'" horiz-adv-x="263" 
d="M96 414l65 326h132l-65 -326h-132z" />
    <glyph glyph-name="parenleft" unicode="(" horiz-adv-x="353" 
d="M62 222q0 87 24 167.5t64.5 149.5t93.5 125.5t111 95.5h151q-53 -38 -101 -82.5t-87 -94t-66.5 -104t-39.5 -112.5l-20 -100q-3 -15 -3.5 -25.5t-0.5 -19.5q0 -112 38.5 -201t101.5 -158h-133q-27 30 -51 69t-42 85.5t-29 98t-11 106.5z" />
    <glyph glyph-name="parenright" unicode=")" horiz-adv-x="353" 
d="M316 401q0 -87 -24 -167.5t-64.5 -149.5t-93.5 -125.5t-111 -95.5h-151q53 38 101 82.5t87 94t66.5 104t39.5 112.5l20 100q3 15 3.5 25.5t0.5 19.5q0 112 -38.5 201t-101.5 158h133q27 -30 51 -69t42 -85.5t29 -98t11 -106.5z" />
    <glyph glyph-name="asterisk" unicode="*" horiz-adv-x="595" 
d="M187 239l-92 81l147 142l-157 54l51 115l158 -71l29 187h130l-43 -185l165 66l32 -112l-185 -60l88 -151l-108 -66l-76 160z" />
    <glyph glyph-name="plus" unicode="+" horiz-adv-x="600" 
d="M196 63l37 185h-169l23 116h169l36 185h126l-37 -185h169l-23 -116h-169l-36 -185h-126z" />
    <glyph glyph-name="comma" unicode="," horiz-adv-x="307" 
d="M129 169q43 0 60 -20t17 -46q0 -8 -2 -20.5t-4 -23.5q-11 -53 -47.5 -109.5t-93.5 -96.5h-106q42 33 73.5 66t51.5 73q-28 6 -39.5 22.5t-11.5 34.5q0 8 2.5 21.5t4.5 24.5q7 34 30.5 54t64.5 20z" />
    <glyph glyph-name="hyphen" unicode="-" horiz-adv-x="395" 
d="M45 238l27 134h295l-27 -134h-295z" />
    <glyph glyph-name="period" unicode="." horiz-adv-x="307" 
d="M102 -11q-42 0 -59 19t-17 41q0 8 2.5 21.5t4.5 24.5q6 33 30.5 53.5t66.5 20.5t59 -19t17 -41q0 -8 -2.5 -21.5t-4.5 -24.5q-6 -33 -30.5 -53.5t-66.5 -20.5z" />
    <glyph glyph-name="slash" unicode="/" horiz-adv-x="479" 
d="M-73 -151l474 891h128l-474 -891h-128z" />
    <glyph glyph-name="zero" unicode="0" horiz-adv-x="600" 
d="M262 -12q-66 0 -108 23.5t-65.5 61t-32.5 82.5t-9 89q0 89 21 173t61 149t99 104.5t136 39.5q66 0 108 -23.5t65.5 -61t32.5 -83t9 -88.5q0 -89 -21 -173t-61 -149t-99.5 -104.5t-135.5 -39.5zM275 106q29 0 50 13t36 37t25.5 57.5t18.5 73.5l25 124q4 20 6 37.5t2 34.5
q0 51 -19.5 80t-67.5 29q-29 0 -50 -13t-36 -37t-25.5 -57.5t-18.5 -73.5l-25 -124q-4 -20 -6 -37.5t-2 -34.5q0 -51 19.5 -80t67.5 -29z" />
    <glyph glyph-name="one" unicode="1" horiz-adv-x="600" 
d="M57 0l23 118h180l93 471h-9l-175 -186l-85 75l207 220h226l-116 -580h144l-23 -118h-465z" />
    <glyph glyph-name="two" unicode="2" horiz-adv-x="600" 
d="M488 0h-476l27 134l250 185q32 24 54.5 44.5t37.5 40t23.5 37.5t12.5 37q3 15 3 27q0 36 -23 58t-60 22q-45 0 -74.5 -30t-45.5 -70l-122 49q17 37 40.5 69.5t54.5 56t70.5 37t88.5 13.5q52 0 93 -14t70 -39.5t44.5 -61t15.5 -78.5q0 -45 -15 -82t-42.5 -70.5t-67.5 -66
t-90 -68.5l-152 -109h307z" />
    <glyph glyph-name="three" unicode="3" horiz-adv-x="600" 
d="M296 421q55 0 84.5 20.5t35.5 50.5q2 8 3 15t1 13q0 33 -23 52t-63 19t-74.5 -18.5t-66.5 -63.5l-80 90q23 25 48 45.5t54.5 35t64.5 22.5t79 8q49 0 88.5 -12t67.5 -33.5t43 -51.5t15 -67q0 -70 -43.5 -116t-118.5 -63l-1 -5q53 -10 82 -48t29 -98q0 -49 -18.5 -91
t-53.5 -72.5t-87 -47.5t-118 -17q-51 0 -88.5 11t-64.5 29.5t-45 42.5t-29 50l105 75q15 -40 45 -65t86 -25q50 0 80 23.5t38 65.5q2 8 2 13.5v12.5q0 37 -24.5 58t-69.5 21h-72l24 121h65z" />
    <glyph glyph-name="four" unicode="4" horiz-adv-x="600" 
d="M289 0l27 134h-305l25 127l356 437h172l-91 -452h86l-23 -112h-85l-27 -134h-135zM154 246h184l58 288h-11z" />
    <glyph glyph-name="five" unicode="5" horiz-adv-x="600" 
d="M564 572h-308l-57 -226h9q29 52 65 80.5t98 28.5q79 0 126.5 -49.5t47.5 -143.5q0 -52 -19 -101t-56 -87.5t-91 -62t-124 -23.5q-54 0 -93 11t-66.5 30t-45 43.5t-28.5 50.5l116 74q12 -39 42.5 -64.5t81.5 -25.5q54 0 84 30t39 75q2 11 3.5 20.5t1.5 20.5q0 40 -24 62
t-66 22q-39 0 -66 -15.5t-44 -34.5l-113 16l102 395h410z" />
    <glyph glyph-name="six" unicode="6" horiz-adv-x="600" 
d="M264 -12q-105 0 -162 63.5t-57 171.5q0 77 28 148t73.5 131.5t104 110.5t119.5 85h207q-69 -43 -127 -82.5t-103.5 -81t-79 -87t-52.5 -100.5l8 -3q13 20 27.5 39t33.5 33.5t43.5 23.5t56.5 9q39 0 69.5 -14t52 -39t33 -60.5t11.5 -78.5q0 -53 -19.5 -102t-56.5 -86
t-90 -59t-120 -22zM277 102q50 0 79.5 27.5t39.5 76.5q2 11 3.5 21.5t1.5 21.5q0 41 -22 64.5t-67 23.5q-51 0 -80 -27.5t-39 -76.5q-2 -11 -3.5 -21.5t-1.5 -21.5q0 -41 22 -64.5t67 -23.5z" />
    <glyph glyph-name="seven" unicode="7" horiz-adv-x="600" 
d="M112 0l347 579h-220l-25 -127h-121l49 246h484l-25 -126l-335 -572h-154z" />
    <glyph glyph-name="eight" unicode="8" horiz-adv-x="600" 
d="M257 -12q-115 0 -170.5 49.5t-55.5 127.5q0 75 45 127t122 69l1 7q-41 17 -62.5 51.5t-21.5 85.5q0 38 16 75t48 66t81 46.5t115 17.5q52 0 91 -12t64.5 -33t38 -50.5t12.5 -64.5q0 -65 -40 -111.5t-104 -70.5l-1 -8q48 -15 74.5 -51t26.5 -99q0 -42 -18.5 -81.5
t-54.5 -71t-88 -50.5t-119 -19zM267 100q49 0 79 24t38 66q2 11 3 18.5t1 17.5q0 36 -22.5 56.5t-66.5 20.5q-49 0 -79 -24t-38 -66q-2 -11 -3 -18.5t-1 -17.5q0 -36 22.5 -56.5t66.5 -20.5zM328 411q48 0 74.5 23.5t33.5 57.5q2 11 4 21.5t2 17.5q0 30 -21 48.5t-64 18.5
q-48 0 -74.5 -23.5t-33.5 -57.5q-2 -11 -4 -21.5t-2 -17.5q0 -30 21 -48.5t64 -18.5z" />
    <glyph glyph-name="nine" unicode="9" horiz-adv-x="600" 
d="M584 475q0 -77 -28 -148t-73.5 -131.5t-104 -110.5t-119.5 -85h-207q69 43 127 82.5t103.5 81t78.5 87t53 100.5l-8 3q-13 -20 -27.5 -39t-33.5 -33.5t-43.5 -23.5t-56.5 -9q-39 0 -69.5 14t-52 39t-33 60.5t-11.5 78.5q0 53 19.5 102t56.5 86t90 59t120 22
q105 0 162 -63.5t57 -171.5zM317 361q51 0 80 27.5t39 76.5q2 11 3.5 21.5t1.5 21.5q0 41 -22 64.5t-67 23.5q-50 0 -79.5 -27.5t-39.5 -76.5q-2 -11 -3.5 -21.5t-1.5 -21.5q0 -41 22 -64.5t67 -23.5z" />
    <glyph glyph-name="colon" unicode=":" horiz-adv-x="327" 
d="M112 -11q-42 0 -59 19t-17 41q0 8 2.5 21.5t4.5 24.5q6 33 30.5 53.5t66.5 20.5t59 -19t17 -41q0 -8 -2.5 -21.5t-4.5 -24.5q-6 -33 -30.5 -53.5t-66.5 -20.5zM187 356q-42 0 -59 19t-17 41q0 8 2.5 21.5t4.5 24.5q6 33 30.5 53.5t66.5 20.5t59 -19t17 -41
q0 -8 -2.5 -21.5t-4.5 -24.5q-6 -33 -30.5 -53.5t-66.5 -20.5z" />
    <glyph glyph-name="semicolon" unicode=";" horiz-adv-x="327" 
d="M139 169q43 0 60 -20t17 -46q0 -8 -2 -20.5t-4 -23.5q-11 -53 -47.5 -109.5t-93.5 -96.5h-106q42 33 73.5 66t51.5 73q-28 6 -39.5 22.5t-11.5 34.5q0 8 2.5 21.5t4.5 24.5q7 34 30.5 54t64.5 20zM187 356q-42 0 -59 19t-17 41q0 8 2.5 21.5t4.5 24.5q6 33 30.5 53.5
t66.5 20.5t59 -19t17 -41q0 -8 -2.5 -21.5t-4.5 -24.5q-6 -33 -30.5 -53.5t-66.5 -20.5z" />
    <glyph glyph-name="less" unicode="&#x3c;" horiz-adv-x="600" 
d="M98 258l18 87l446 258l-32 -159l-268 -149l-2 -7l208 -150l-28 -139z" />
    <glyph glyph-name="equal" unicode="=" horiz-adv-x="600" 
d="M89 363l23 116h463l-23 -116h-463zM43 132l23 116h463l-23 -116h-463z" />
    <glyph glyph-name="greater" unicode="&#x3e;" horiz-adv-x="600" 
d="M87 158l268 149l2 7l-208 150l28 139l342 -259l-18 -87l-446 -258z" />
    <glyph glyph-name="question" unicode="?" horiz-adv-x="490" 
d="M149 233l32 153q81 8 123.5 33t53.5 69q2 7 3.5 16.5t1.5 19.5q0 33 -22 48.5t-52 15.5q-40 0 -67.5 -24.5t-43.5 -64.5l-114 51q16 36 39 65.5t53 50.5t68 32.5t85 11.5q96 0 149.5 -45.5t53.5 -122.5q0 -42 -16 -80t-44 -69t-66.5 -53t-82.5 -31l-17 -76h-137zM175 -12
q-42 0 -59.5 16.5t-17.5 41.5q0 5 0.5 12.5t5.5 29.5q7 35 31.5 55.5t69.5 20.5q42 0 59.5 -16.5t17.5 -41.5q0 -5 -0.5 -12.5t-5.5 -29.5q-7 -35 -31.5 -55.5t-69.5 -20.5z" />
    <glyph glyph-name="at" unicode="@" horiz-adv-x="891" 
d="M384 -121q-75 0 -135.5 24.5t-102.5 68t-64.5 104.5t-22.5 135q0 26 2.5 52.5t8.5 56.5q17 86 57.5 157.5t99 123t134 80t162.5 28.5q68 0 128 -22t104.5 -62.5t70 -99.5t25.5 -132q0 -39 -8 -79q-10 -49 -31.5 -91t-51 -73.5t-66 -49.5t-76.5 -18q-54 0 -83 22.5
t-29 59.5v11h-5q-6 -18 -17 -34t-26 -29t-34 -20.5t-41 -7.5q-62 0 -96.5 37.5t-34.5 111.5q0 32 7 66q10 49 28.5 86.5t43.5 62.5t54 37.5t59 12.5q45 0 67 -19t30 -48h4l12 58h110l-52 -262q-3 -17 -3 -26q0 -33 31 -33q32 0 60 34.5t44 113.5l6 30q3 15 4.5 31.5
t1.5 30.5q0 51 -19 91.5t-52.5 68t-79.5 42t-99 14.5q-63 0 -119 -21t-100 -59.5t-74.5 -92t-43.5 -119.5l-8 -40q-5 -23 -7.5 -43t-2.5 -40q0 -57 17.5 -102t49.5 -77t77.5 -49t102.5 -17h189l-17 -85h-189zM424 174q16 0 30 7t25.5 17.5t19 23t9.5 23.5l20 100
q5 27 -13.5 45t-50.5 18q-35 0 -55 -23t-28 -61l-14 -70q-2 -8 -2 -12v-9q0 -59 59 -59z" />
    <glyph glyph-name="A" unicode="A" horiz-adv-x="658" 
d="M441 0l-16 170h-223l-82 -170h-155l359 698h185l79 -698h-147zM394 567h-8l-127 -276h156z" />
    <glyph glyph-name="B" unicode="B" horiz-adv-x="651" 
d="M162 698h298q38 0 70 -8.5t55 -26.5t36 -45t13 -63q0 -69 -33.5 -121.5t-102.5 -71.5l-1 -5q55 -15 79.5 -50.5t24.5 -84.5q0 -50 -15 -90.5t-45.5 -70t-75.5 -45.5t-105 -16h-338zM360 124q70 0 83 65q5 26 7 38t2 19q0 20 -13 32.5t-42 12.5h-171l-33 -167h167z
M391 410q35 0 55.5 14t27.5 48q5 26 7 37t2 18q0 21 -13 34t-41 13h-146l-33 -164h141z" />
    <glyph glyph-name="C" unicode="C" horiz-adv-x="635" 
d="M306 -12q-56 0 -101.5 18t-78.5 53.5t-51 88.5t-18 124q0 92 27.5 172t75.5 139t113.5 93t141.5 34q94 0 152.5 -44.5t83.5 -125.5l-129 -54q-6 20 -15 37.5t-22.5 30t-33 20t-47.5 7.5q-70 0 -113.5 -48t-59.5 -127l-22 -110q-3 -15 -4 -27.5t-1 -22.5q0 -129 115 -129
q59 0 94.5 29t58.5 75l121 -55q-47 -91 -121.5 -134.5t-165.5 -43.5z" />
    <glyph glyph-name="D" unicode="D" horiz-adv-x="682" 
d="M162 698h224q125 0 196.5 -66t71.5 -195q0 -93 -24 -173t-70.5 -138.5t-115 -92t-156.5 -33.5h-266zM300 128q68 0 116 41t65 127l19 94q4 19 5.5 36t1.5 26q0 63 -30.5 90.5t-81.5 27.5h-113l-89 -442h107z" />
    <glyph glyph-name="E" unicode="E" horiz-adv-x="578" 
d="M22 0l140 698h449l-26 -128h-303l-31 -153h268l-26 -128h-268l-32 -161h314l-26 -128h-459z" />
    <glyph glyph-name="F" unicode="F" horiz-adv-x="557" 
d="M22 0l140 698h437l-26 -128h-292l-31 -153h257l-26 -128h-257l-57 -289h-145z" />
    <glyph glyph-name="G" unicode="G" horiz-adv-x="700" 
d="M482 111h-8q-26 -51 -73 -87t-118 -36q-50 0 -91.5 17.5t-71.5 52.5t-46.5 87.5t-16.5 122.5q0 94 26.5 175t75 140.5t116 93t150.5 33.5q46 0 87 -10.5t73.5 -31.5t56 -52t35.5 -71l-121 -64q-12 49 -48.5 74.5t-90.5 25.5q-81 0 -125.5 -46.5t-60.5 -127.5l-22 -110
q-6 -30 -6 -56q0 -33 9 -56.5t25 -38.5t37 -22t44 -7q32 0 60.5 8.5t51 24t37.5 36t20 44.5l7 34h-126l24 122h264l-77 -386h-119z" />
    <glyph glyph-name="H" unicode="H" horiz-adv-x="700" 
d="M485 289h-260l-58 -289h-145l140 698h145l-56 -281h260l56 281h145l-140 -698h-145z" />
    <glyph glyph-name="I" unicode="I" horiz-adv-x="415" 
d="M-4 0l24 118h86l93 462h-86l23 118h318l-24 -118h-86l-93 -462h86l-23 -118h-318z" />
    <glyph glyph-name="J" unicode="J" horiz-adv-x="536" 
d="M549 698l-102 -508q-18 -91 -75.5 -146t-156.5 -55q-51 0 -88.5 15t-63.5 41t-40 60.5t-18 74.5l139 28q4 -42 18.5 -67.5t52.5 -25.5q31 0 55.5 21t34.5 69l75 375h-203l24 118h348z" />
    <glyph glyph-name="K" unicode="K" horiz-adv-x="657" 
d="M319 299l-116 -120l-36 -179h-145l140 698h145l-67 -334h7l110 131l188 203h176l-288 -300l163 -398h-160z" />
    <glyph glyph-name="L" unicode="L" horiz-adv-x="510" 
d="M22 0l140 698h145l-114 -570h256l-26 -128h-401z" />
    <glyph glyph-name="M" unicode="M" horiz-adv-x="801" 
d="M628 461h-6l-96 -134l-155 -212l-74 227l-39 121h-5l-93 -463h-138l140 698h152l101 -332h4l233 332h161l-140 -698h-138z" />
    <glyph glyph-name="N" unicode="N" horiz-adv-x="700" 
d="M302 336l-42 139h-6l-95 -475h-137l140 698h157l113 -336l42 -139h6l95 475h137l-140 -698h-157z" />
    <glyph glyph-name="O" unicode="O" horiz-adv-x="695" 
d="M308 -12q-50 0 -95.5 16.5t-80 51t-55 88t-20.5 127.5q0 90 27 170t75 140t114 94.5t144 34.5q50 0 95.5 -16.5t80 -51t55 -88t20.5 -127.5q0 -90 -27 -170t-75 -140t-114 -94.5t-144 -34.5zM318 117q70 0 115 47t62 132l21 105q3 16 4 28.5t1 23.5q0 128 -114 128
q-70 0 -115 -47t-62 -132l-21 -105q-3 -15 -4 -28t-1 -24q0 -128 114 -128z" />
    <glyph glyph-name="P" unicode="P" horiz-adv-x="637" 
d="M22 0l140 698h263q105 0 162.5 -49t57.5 -138q0 -57 -20 -104.5t-56 -81t-86 -52t-109 -18.5h-156l-51 -255h-145zM244 383h149q34 0 58.5 18t32.5 55q5 23 8 37.5t3 22.5q0 23 -15.5 38.5t-48.5 15.5h-150z" />
    <glyph glyph-name="Q" unicode="Q" horiz-adv-x="695" 
d="M438 -183h-110q-60 0 -84 23.5t-24 66.5q0 13 2 26t5 27l8 38q-38 10 -70.5 31t-56.5 55t-37.5 80.5t-13.5 106.5q0 90 27 170t75 140t114 94.5t144 34.5q50 0 95.5 -16.5t80 -51t55 -88t20.5 -127.5q0 -83 -22.5 -157t-63 -132t-97.5 -96t-125 -49l-11 -58h111zM318 117
q70 0 115 47t62 132l21 105q3 16 4 28.5t1 23.5q0 128 -114 128q-70 0 -115 -47t-62 -132l-21 -105q-3 -16 -4 -28.5t-1 -23.5q0 -128 114 -128z" />
    <glyph glyph-name="R" unicode="R" horiz-adv-x="655" 
d="M167 0h-145l140 698h272q100 0 155.5 -47t55.5 -133q0 -39 -11 -76.5t-33 -70t-53.5 -57t-73.5 -38.5l84 -276h-155l-69 259h-115zM393 383q34 0 58.5 18t32.5 55q5 23 8 37.5t3 22.5q0 23 -15.5 38.5t-48.5 15.5h-150l-37 -187h149z" />
    <glyph glyph-name="S" unicode="S" horiz-adv-x="586" 
d="M255 -12q-87 0 -154.5 28t-105.5 96l111 87q26 -42 60.5 -62t88.5 -20q63 0 98 28t35 72q0 32 -23 48t-57 24l-46 10q-38 8 -69 22.5t-53 37t-33.5 53.5t-11.5 73q0 48 19.5 89t54.5 71t85 47.5t110 17.5q78 0 140.5 -24.5t98.5 -72.5l-105 -94q-24 33 -55.5 47.5
t-84.5 14.5q-54 0 -85.5 -23t-31.5 -60q0 -30 19.5 -45t55.5 -23l44 -10q40 -9 73 -24t56 -37.5t36 -53.5t13 -72q0 -45 -19.5 -89t-56 -78.5t-89 -56t-118.5 -21.5z" />
    <glyph glyph-name="T" unicode="T" horiz-adv-x="569" 
d="M418 570l-114 -570h-145l114 570h-184l26 128h513l-26 -128h-184z" />
    <glyph glyph-name="U" unicode="U" horiz-adv-x="678" 
d="M303 698l-84 -418q-3 -14 -5 -31.5t-2 -31.5q0 -100 102 -100q60 0 95 36t51 114l87 431h143l-85 -423q-15 -74 -38.5 -128t-59.5 -89t-85 -52.5t-114 -17.5q-115 0 -175.5 57t-60.5 169q0 20 2 41.5t7 47.5l79 395h143z" />
    <glyph glyph-name="V" unicode="V" horiz-adv-x="631" 
d="M181 0l-82 698h146l25 -269l18 -275h7l113 251l143 293h154l-361 -698h-163z" />
    <glyph glyph-name="W" unicode="W" horiz-adv-x="941" 
d="M130 0l-14 698h143l-4 -279l-11 -275h10l97 257l126 297h159l7 -282l-7 -282h10l87 250l118 314h146l-291 -698h-168l-8 291v245h-9l-89 -224l-130 -312h-172z" />
    <glyph glyph-name="X" unicode="X" horiz-adv-x="641" 
d="M571 0h-157l-99 243h-8l-179 -243h-168l290 369l-146 329h156l95 -230h8l175 230h168l-287 -351z" />
    <glyph glyph-name="Y" unicode="Y" horiz-adv-x="624" 
d="M185 0l54 271l-148 427h148l94 -294h7l201 294h160l-319 -440l-52 -258h-145z" />
    <glyph glyph-name="Z" unicode="Z" horiz-adv-x="573" 
d="M486 0h-497l26 128l410 442h-306l26 128h478l-26 -128l-410 -442h325z" />
    <glyph glyph-name="bracketleft" unicode="[" horiz-adv-x="323" 
d="M-5 -138l180 898h217l-19 -97h-90l-142 -704h91l-19 -97h-218z" />
    <glyph glyph-name="backslash" unicode="\" horiz-adv-x="479" 
d="M265 -151l-117 891h114l117 -891h-114z" />
    <glyph glyph-name="bracketright" unicode="]" horiz-adv-x="323" 
d="M347 760l-180 -898h-217l19 97h90l142 704h-91l19 97h218z" />
    <glyph glyph-name="asciicircum" unicode="^" horiz-adv-x="600" 
d="M466 280l-102 271h-11l-199 -271l-105 63l264 355h131l140 -373z" />
    <glyph glyph-name="underscore" unicode="_" horiz-adv-x="548" 
d="M-62 -187l23 119h493l-23 -119h-493z" />
    <glyph glyph-name="grave" unicode="`" horiz-adv-x="585" 
d="M174 756l126 59l68 -196l-89 -39z" />
    <glyph glyph-name="a" unicode="a" horiz-adv-x="591" 
d="M430 0q-38 0 -63 20t-25 57q0 8 1 17t2 13l3 15h-6q-31 -64 -70 -99t-101 -35q-37 0 -63.5 13.5t-43.5 38t-25 58t-8 72.5q0 84 19.5 151.5t52.5 115.5t77.5 74t94.5 26q55 0 90.5 -30t40.5 -73h5l18 91h140l-83 -413h59l-22 -112h-93zM240 103q27 0 49 14t38 34
q17 20 29.5 47.5t18.5 56.5l16 80q8 37 -15 62t-67 25q-91 0 -115 -117l-14 -70q-2 -11 -4 -28t-2 -29q0 -35 17.5 -55t48.5 -20z" />
    <glyph glyph-name="b" unicode="b" horiz-adv-x="583" 
d="M162 740h140l-67 -337h6q31 64 70 99t101 35q37 0 63.5 -13.5t43.5 -38t25 -58t8 -72.5q0 -84 -19.5 -151.5t-52.5 -115.5t-77.5 -74t-94.5 -26q-55 0 -90.5 30t-40.5 73h-5l-18 -91h-140zM274 103q91 0 115 117l14 70q2 11 4 28t2 29q0 35 -17.5 55t-48.5 20
q-27 0 -49 -14t-38 -34q-17 -20 -29.5 -47.5t-18.5 -56.5l-16 -80q-8 -40 15 -63.5t67 -23.5z" />
    <glyph glyph-name="c" unicode="c" horiz-adv-x="494" 
d="M237 -12q-43 0 -80.5 12.5t-65.5 40t-44 70.5t-16 104q0 70 21 129t58.5 102t88.5 67t111 24q37 0 69.5 -9.5t57 -27.5t40.5 -43t21 -56l-118 -45q-9 31 -24.5 49.5t-53.5 18.5q-87 0 -109 -110l-18 -89q-5 -23 -5 -42q0 -37 18.5 -59.5t60.5 -22.5q20 0 35 6t26.5 17
t21.5 26t21 34l107 -50q-35 -73 -91.5 -109.5t-131.5 -36.5z" />
    <glyph glyph-name="d" unicode="d" horiz-adv-x="591" 
d="M430 0q-38 0 -63 20t-25 57q0 8 1 17t2 13l3 15h-6q-31 -64 -70 -99t-101 -35q-37 0 -63.5 13.5t-43.5 38t-25 58t-8 72.5q0 84 19.5 151.5t52.5 115.5t77.5 74t94.5 26q55 0 90.5 -30t40.5 -73h5l61 306h140l-126 -628h59l-22 -112h-93zM240 103q27 0 49 14t38 34
q17 20 29.5 47.5t18.5 56.5l16 80q8 40 -15 63.5t-67 23.5q-91 0 -115 -117l-14 -70q-2 -11 -4 -28t-2 -29q0 -35 17.5 -55t48.5 -20z" />
    <glyph glyph-name="e" unicode="e" horiz-adv-x="515" 
d="M253 -12q-112 0 -167 60.5t-55 165.5q0 63 20 121.5t57 103t90 71.5t118 27q30 0 63 -7t60.5 -23.5t46 -44.5t18.5 -71q0 -41 -19 -73.5t-59 -56t-103 -37t-151 -16.5q-2 -9 -2 -14v-9q0 -38 20.5 -61t72.5 -23q34 0 63.5 14.5t64.5 58.5l86 -68q-49 -65 -102.5 -91.5
t-121.5 -26.5zM308 430q-45 0 -76.5 -29.5t-40.5 -80.5l-4 -23q56 3 91.5 10t55.5 17.5t27 23.5t7 29q0 17 -6 27.5t-15 16t-19.5 7.5t-19.5 2z" />
    <glyph glyph-name="f" unicode="f" horiz-adv-x="353" 
d="M181 -50q-30 -150 -192 -150h-76l24 112h96l100 501h-69l22 112h69l13 65q30 150 192 150h76l-24 -112h-96l-20 -103h102l-22 -112h-103z" />
    <glyph glyph-name="g" unicode="g" horiz-adv-x="535" 
d="M497 -22q0 -34 -13.5 -68t-48 -61t-93 -44t-149.5 -17q-66 0 -109 9t-68.5 25t-35.5 37t-10 45t9 42t24.5 31t36.5 21.5t45 14.5v7q-29 6 -44 26.5t-15 49.5q0 22 9.5 39.5t25.5 31t37 22t43 13.5l1 7q-37 19 -56.5 52t-19.5 79q0 36 14 71.5t44 63.5t76 45t111 17
q26 0 48 -3.5t42 -9.5l5 23q8 41 30 59.5t58 18.5h79l-22 -108h-107l-3 -13q31 -20 47.5 -50.5t16.5 -72.5q0 -36 -14 -71.5t-44 -63.5t-76.5 -45t-110.5 -17q-47 0 -81 10q-17 -7 -27.5 -20t-10.5 -29q0 -33 53 -33h129q174 0 174 -134zM357 -52q0 21 -15 32t-56 11h-173
q-15 -11 -21 -26.5t-6 -28.5q0 -24 20 -38t70 -14h65q66 0 91 19t25 45zM272 280q42 0 65 18.5t30 53.5q3 15 3.5 22t0.5 11q0 56 -73 56q-42 0 -65 -18.5t-30 -53.5q-3 -15 -3.5 -22t-0.5 -11q0 -56 73 -56z" />
    <glyph glyph-name="h" unicode="h" horiz-adv-x="588" 
d="M162 740h140l-67 -337h6q30 63 71 98.5t103 35.5q61 0 93.5 -35.5t32.5 -100.5q0 -19 -2.5 -36.5t-6.5 -37.5l-43 -215h53l-22 -112h-91q-40 0 -62 20.5t-22 55.5q0 9 1 16.5t2 11.5l41 208q3 14 5 27.5t2 28.5q0 23 -12 37.5t-41 14.5q-26 0 -47 -14t-38 -34
q-18 -21 -31 -46.5t-19 -55.5l-54 -270h-140z" />
    <glyph glyph-name="i" unicode="i" horiz-adv-x="281" 
d="M202 583q-37 0 -54.5 14t-17.5 38q0 9 2 20t4 20q3 13 9 26t17 23t28 16.5t42 6.5q37 0 54.5 -14t17.5 -38q0 -9 -2 -20t-4 -20q-3 -13 -9 -26t-17 -23t-28 -16.5t-42 -6.5zM122 0q-41 0 -65.5 22t-24.5 58q0 10 3 25l84 420h140l-83 -413h59l-22 -112h-91z" />
    <glyph glyph-name="j" unicode="j" horiz-adv-x="276" 
d="M123 525h140l-119 -586q-14 -69 -51.5 -104t-110.5 -35h-79l22 112h75zM206 583q-37 0 -54.5 14t-17.5 38q0 9 2 20t4 20q3 13 9 26t17 23t28 16.5t42 6.5q37 0 54.5 -14t17.5 -38q0 -9 -2 -20t-4 -20q-3 -13 -9 -26t-17 -23t-28 -16.5t-42 -6.5z" />
    <glyph glyph-name="k" unicode="k" horiz-adv-x="550" 
d="M162 740h140l-87 -435h7l72 90l126 130h163l-213 -213l72 -200h61l-24 -112h-75q-74 0 -99 79l-44 137l-79 -74l-28 -142h-140z" />
    <glyph glyph-name="l" unicode="l" horiz-adv-x="281" 
d="M122 0q-41 0 -65.5 22t-24.5 58q0 10 3 25l127 635h140l-126 -628h62l-22 -112h-94z" />
    <glyph glyph-name="m" unicode="m" horiz-adv-x="877" 
d="M14 0l105 525h140l-24 -122h6q29 62 69 98t100 36q59 0 90 -35.5t32 -98.5h5q29 59 70 96.5t104 37.5q58 0 88.5 -35.5t30.5 -97.5q0 -23 -3.5 -45.5t-8.5 -45.5l-40 -201h53l-22 -112h-91q-40 0 -62 20.5t-22 55.5q0 9 1 16.5t2 11.5l41 208q3 14 5.5 28t2.5 27
q0 24 -10.5 38.5t-33.5 14.5t-44 -13.5t-38 -33.5t-30 -48t-18 -55l-54 -270h-140l62 312q3 14 5 28t2 26q0 25 -10.5 39.5t-36.5 14.5t-46.5 -13.5t-37.5 -34.5q-36 -44 -48 -102l-54 -270h-140z" />
    <glyph glyph-name="n" unicode="n" horiz-adv-x="588" 
d="M14 0l105 525h140l-24 -122h6q30 63 71 98.5t103 35.5q61 0 93.5 -35.5t32.5 -100.5q0 -19 -2.5 -36.5t-6.5 -37.5l-43 -215h53l-22 -112h-91q-40 0 -62 20.5t-22 55.5q0 9 1 16.5t2 11.5l41 208q3 14 5 27.5t2 28.5q0 23 -12 37.5t-41 14.5q-26 0 -47 -14t-38 -34
q-18 -21 -31 -46.5t-19 -55.5l-54 -270h-140z" />
    <glyph glyph-name="o" unicode="o" horiz-adv-x="542" 
d="M240 -12q-97 0 -153 57.5t-56 161.5q0 71 20.5 131.5t56.5 104.5t85.5 69t108.5 25q97 0 153 -57.5t56 -161.5q0 -71 -20.5 -131.5t-56.5 -104.5t-86 -69t-108 -25zM245 101q82 0 105 115l19 94q1 5 2 13t1 18q0 38 -19 60.5t-56 22.5q-82 0 -105 -115l-19 -94
q-1 -5 -2 -13t-1 -18q0 -38 19 -60.5t56 -22.5z" />
    <glyph glyph-name="p" unicode="p" horiz-adv-x="583" 
d="M119 525h140l-24 -122h6q31 64 70 99t101 35q37 0 63.5 -13.5t43.5 -38t25 -58t8 -72.5q0 -84 -19.5 -151.5t-52.5 -115.5t-77.5 -74t-94.5 -26q-55 0 -90.5 30t-40.5 73h-5l-58 -291h-140zM274 103q91 0 115 117l14 70q2 11 4 28t2 29q0 35 -17.5 55t-48.5 20
q-27 0 -49 -14t-38 -34q-17 -20 -29.5 -47.5t-18.5 -56.5l-16 -80q-8 -40 15 -63.5t67 -23.5z" />
    <glyph glyph-name="q" unicode="q" horiz-adv-x="583" 
d="M348 122h-6q-31 -64 -70 -99t-101 -35q-37 0 -63.5 13.5t-43.5 38t-25 58t-8 72.5q0 84 19.5 151.5t52.5 115.5t77.5 74t94.5 26q55 0 90.5 -30t40.5 -73h5l18 91h140l-145 -725h-140zM240 103q27 0 49 14t38 34q17 20 29.5 47.5t18.5 56.5l16 80q8 40 -15 63.5t-67 23.5
q-91 0 -115 -117l-14 -70q-2 -11 -4 -28t-2 -29q0 -35 17.5 -55t48.5 -20z" />
    <glyph glyph-name="r" unicode="r" horiz-adv-x="394" 
d="M14 0l105 525h140l-26 -131h7q8 21 22.5 44.5t34 42.5t45 31.5t55.5 12.5h25l-28 -136h-35q-67 0 -102 -24.5t-48 -88.5l-55 -276h-140z" />
    <glyph glyph-name="s" unicode="s" horiz-adv-x="497" 
d="M213 -12q-66 0 -121 23t-90 69l88 82q22 -29 51.5 -45.5t74.5 -16.5q49 0 69.5 17.5t20.5 40.5q0 15 -10.5 27t-38.5 16l-53 7q-68 9 -104 43.5t-36 97.5q0 37 13 71t40 60t68 41.5t97 15.5q61 0 110.5 -20.5t84.5 -62.5l-88 -82q-19 24 -48.5 38.5t-64.5 14.5
t-55.5 -15.5t-20.5 -39.5q0 -15 10.5 -27t38.5 -16l53 -7q68 -9 104 -43.5t36 -96.5q0 -38 -14.5 -73t-43.5 -61.5t-72 -42t-99 -15.5z" />
    <glyph glyph-name="t" unicode="t" horiz-adv-x="354" 
d="M182 0q-123 0 -123 99q0 8 1 20t3 23l54 271h-74l22 112h36q32 0 43 13t16 40l18 89h130l-28 -142h105l-23 -112h-105l-60 -301h95l-22 -112h-88z" />
    <glyph glyph-name="u" unicode="u" horiz-adv-x="582" 
d="M254 525l-62 -312q-3 -14 -5 -28t-2 -25q0 -26 11.5 -40.5t37.5 -14.5t46.5 13.5t37.5 34.5q36 44 48 102l54 270h140l-83 -413h59l-22 -112h-93q-38 0 -63 20t-25 57q0 8 1 17t2 13l3 15h-6q-29 -62 -69 -98t-100 -36t-92 35.5t-32 100.5q0 20 2.5 38t6.5 38l65 325h140
z" />
    <glyph glyph-name="v" unicode="v" horiz-adv-x="512" 
d="M111 0l-65 525h139l17 -198l15 -202h7l88 202l93 198h149l-273 -525h-170z" />
    <glyph glyph-name="w" unicode="w" horiz-adv-x="791" 
d="M54 525h139l7 -190l3 -178h6l65 152l98 216h130l14 -190l11 -185h6l62 159l90 216h138l-240 -525h-147l-15 175l-13 174h-6l-68 -151l-91 -198h-149z" />
    <glyph glyph-name="x" unicode="x" horiz-adv-x="518" 
d="M-51 0l228 274l-112 251h151l62 -175h6l130 175h153l-229 -273l115 -252h-151l-64 172h-6l-130 -172h-153z" />
    <glyph glyph-name="y" unicode="y" horiz-adv-x="509" 
d="M408 525h149l-322 -610q-15 -29 -32 -50.5t-39 -36t-50 -21.5t-65 -7h-78l23 112h97l28 58l-74 555h139l20 -198l16 -196h6l88 196z" />
    <glyph glyph-name="z" unicode="z" horiz-adv-x="492" 
d="M-11 0l22 112l306 301h-241l22 112h409l-22 -112l-307 -301h258l-22 -112h-425z" />
    <glyph glyph-name="braceleft" unicode="{" horiz-adv-x="361" 
d="M138 -138q-36 0 -58.5 19.5t-22.5 55.5q0 14 2 24l38 190q3 15 3 30q0 74 -77 74l23 113q45 0 74 21.5t38 66.5l41 205q10 49 39 74t71 25h117l-21 -104h-77l-44 -220q-5 -23 -14 -44t-24.5 -38.5t-37.5 -28.5t-52 -12v-4q34 -7 57.5 -32.5t23.5 -65.5q0 -7 -1 -14.5
t-3 -15.5l-43 -215h77l-21 -104h-108z" />
    <glyph glyph-name="bar" unicode="|" horiz-adv-x="395" 
d="M54 -138l180 898h126l-180 -898h-126z" />
    <glyph glyph-name="braceright" unicode="}" horiz-adv-x="361" 
d="M-26 -34h77l44 220q4 22 13.5 43.5t25 39t37.5 28t52 12.5v4q-34 7 -57.5 32.5t-23.5 65.5q0 7 1 14.5t3 15.5l43 215h-77l21 104h108q36 0 58.5 -19.5t22.5 -55.5q0 -14 -2 -24l-38 -190q-3 -15 -3 -30q0 -74 77 -74l-23 -113q-45 0 -74 -21.5t-38 -66.5l-41 -205
q-10 -49 -39 -74t-71 -25h-117z" />
    <glyph glyph-name="asciitilde" unicode="~" horiz-adv-x="600" 
d="M400 211q-41 0 -66 11.5t-53 27.5q-25 14 -48.5 24t-53.5 10q-23 0 -41 -7t-42 -22l-37 87q21 23 55.5 40.5t85.5 17.5q21 0 36.5 -3t29 -8.5t26.5 -12.5t27 -15q25 -14 48.5 -24t53.5 -10q23 0 41 7t42 22l37 -87q-21 -23 -55.5 -40.5t-85.5 -17.5z" />
    <glyph glyph-name="uni00A0" unicode="&#xa0;" horiz-adv-x="236" 
 />
    <glyph glyph-name="exclamdown" unicode="&#xa1;" horiz-adv-x="314" 
d="M-9 -173l39 194l102 284h63l-9 -284l-39 -194h-156zM175 361q-42 0 -59.5 16.5t-17.5 41.5q0 5 0.5 12.5t5.5 29.5q7 35 31.5 55.5t69.5 20.5q42 0 59.5 -16.5t17.5 -41.5q0 -5 -0.5 -12.5t-5.5 -29.5q-7 -35 -31.5 -55.5t-69.5 -20.5z" />
    <glyph glyph-name="cent" unicode="&#xa2;" horiz-adv-x="532" 
d="M182 -4q-68 18 -108.5 76.5t-40.5 149.5q0 56 17.5 107.5t50.5 92t80 68t106 35.5l21 105h110l-22 -109q51 -13 85 -45.5t46 -76.5l-108 -53q-5 22 -18.5 39.5t-35.5 26.5l-62 -309q27 9 49 28t39 42l92 -59q-33 -48 -79.5 -80t-112.5 -42l-21 -106h-110zM168 186
q0 -59 45 -80l61 304q-33 -13 -55 -40.5t-30 -66.5l-18 -90q-3 -15 -3 -27z" />
    <glyph glyph-name="sterling" unicode="&#xa3;" horiz-adv-x="591" 
d="M30 0l27 134q48 20 75 62t27 95h-103l24 117h64q-3 22 -3 47q0 53 19 99.5t54.5 81t85 54.5t110.5 20q79 0 130.5 -30t86.5 -90l-115 -76q-20 37 -46 52.5t-67 15.5q-54 0 -84 -36.5t-30 -98.5q0 -21 3 -39h191l-24 -117h-150q-2 -31 -11.5 -56.5t-24 -45t-31.5 -33
t-33 -22.5l-2 -9h325l-25 -125h-473z" />
    <glyph glyph-name="currency" unicode="&#xa4;" horiz-adv-x="624" 
d="M293 108q-77 0 -127 29l-113 -94l-69 87l109 92q-12 33 -12 73q0 17 2 34.5t5 32.5q6 31 18.5 64t32.5 59l-77 95l91 74l75 -93q57 29 134 29t127 -29l113 94l69 -87l-109 -92q12 -33 12 -73q0 -17 -2 -34.5t-5 -32.5q-6 -31 -18.5 -64t-32.5 -59l77 -95l-91 -74l-75 93
q-57 -29 -134 -29zM300 213q47 0 78 29t41 79l11 56q2 8 3 17.5t1 18.5q0 32 -20.5 52t-58.5 20q-47 0 -78 -29t-41 -79l-11 -56q-2 -8 -3 -17.5t-1 -18.5q0 -32 20.5 -52t58.5 -20z" />
    <glyph glyph-name="yen" unicode="&#xa5;" horiz-adv-x="626" 
d="M360 134l-27 -134h-146l26 134h-161l18 88h161l14 71h-161l18 88h105l-99 317h155l79 -272h4l184 272h168l-229 -317h105l-18 -88h-164l-14 -71h164l-18 -88h-164z" />
    <glyph glyph-name="brokenbar" unicode="&#xa6;" horiz-adv-x="395" 
d="M162 401l72 359h126l-72 -359h-126zM54 -138l72 359h126l-72 -359h-126z" />
    <glyph glyph-name="section" unicode="&#xa7;" horiz-adv-x="557" 
d="M435 38q0 -44 -16.5 -80.5t-46.5 -63t-72 -41t-92 -14.5q-57 0 -109.5 17.5t-85.5 57.5l82 82q20 -26 50 -40.5t76 -14.5q38 0 63.5 21.5t25.5 52.5q0 28 -17.5 42t-52.5 25l-69 21q-63 20 -90.5 55.5t-27.5 77.5q0 52 30.5 93t98.5 63l2 10q-29 23 -42 50.5t-13 61.5
q0 43 16.5 79.5t46.5 62t72 40t92 14.5q57 0 109 -18t86 -59l-82 -80q-20 26 -50 40.5t-76 14.5q-38 0 -63.5 -20t-25.5 -49q0 -26 17.5 -40.5t52.5 -25.5l69 -21q63 -20 90.5 -56t27.5 -78q0 -52 -30 -93.5t-99 -62.5l-2 -10q29 -23 42 -51t13 -63zM390 270q0 24 -14.5 44
t-49.5 32l-69 20q-11 4 -19 6.5t-14 6.5q-29 -22 -39.5 -45.5t-10.5 -49.5q0 -24 14.5 -44t49.5 -32l69 -20q11 -4 19 -6.5t14 -6.5q29 22 39.5 45.5t10.5 49.5z" />
    <glyph glyph-name="dieresis" unicode="&#xa8;" horiz-adv-x="585" 
d="M207 600q-35 0 -50 14t-15 34q0 5 1.5 14t4.5 26q5 26 24 44.5t61 18.5q35 0 50 -14t15 -34q0 -5 -1.5 -14t-4.5 -26q-5 -26 -24 -44.5t-61 -18.5zM407 600q-35 0 -50 14t-15 34q0 5 1.5 14t4.5 26q5 26 24 44.5t61 18.5q35 0 50 -14t15 -34q0 -5 -1.5 -14t-4.5 -26
q-5 -26 -24 -44.5t-61 -18.5z" />
    <glyph glyph-name="copyright" unicode="&#xa9;" horiz-adv-x="771" 
d="M349 -12q-66 0 -119.5 22.5t-91.5 62.5t-59 96t-21 124q0 90 30 166t82.5 132t125 87.5t156.5 31.5q66 0 119.5 -22.5t91.5 -62.5t59 -96.5t21 -123.5q0 -90 -30 -166t-82.5 -132t-125 -87.5t-156.5 -31.5zM353 51q56 0 106.5 19.5t91 52.5t68 78t37.5 96q7 32 11 60.5
t4 47.5q0 55 -16.5 100t-46 76.5t-70.5 48.5t-90 17q-56 0 -106.5 -19.5t-91 -52.5t-68 -78t-37.5 -96q-7 -32 -11 -60.5t-4 -47.5q0 -56 16.5 -100.5t46 -76t70.5 -48.5t90 -17zM382 134q-40 0 -73 13t-56 36t-36 56t-13 74q0 49 17 94.5t47.5 80t71.5 55.5t89 21
q75 0 112.5 -32t53.5 -82l-99 -44q-6 26 -21.5 41.5t-44.5 15.5q-34 0 -54 -19.5t-26 -49.5l-15 -77q-2 -8 -2 -13.5v-11.5q0 -26 16.5 -42t48.5 -16q28 0 47.5 16.5t34.5 39.5l90 -46q-13 -22 -30.5 -42t-40.5 -35t-52 -24t-65 -9z" />
    <glyph glyph-name="ordfeminine" unicode="&#xaa;" horiz-adv-x="444" 
d="M415 330h-59q-29 0 -44.5 14t-15.5 40v10h-4q-16 -34 -44.5 -52t-66.5 -18q-42 0 -72.5 24.5t-30.5 71.5q0 58 43 91t129 33h65l4 20q2 8 2.5 11t0.5 8q0 46 -55 46q-31 0 -50 -13t-38 -33l-57 48q26 32 63.5 52.5t96.5 20.5q63 0 104 -26.5t41 -79.5q0 -14 -3 -29
l-33 -165h39zM247 489q-57 0 -66 -44q-2 -8 -2 -13.5v-7.5q0 -16 13 -24.5t33 -8.5q26 0 45.5 14.5t24.5 40.5l9 43h-57z" />
    <glyph glyph-name="guillemotleft" unicode="&#xab;" horiz-adv-x="562" 
d="M190 49l-156 160l26 128l203 157l41 -93l-151 -138l94 -131zM440 49l-156 160l26 128l203 157l41 -93l-151 -138l94 -131z" />
    <glyph glyph-name="logicalnot" unicode="&#xac;" horiz-adv-x="600" 
d="M358 79l34 169h-326l23 116h445l-57 -285h-119z" />
    <glyph glyph-name="uni00AD" unicode="&#xad;" horiz-adv-x="395" 
d="M45 238l27 134h295l-27 -134h-295z" />
    <glyph glyph-name="registered" unicode="&#xae;" horiz-adv-x="453" 
d="M246 298q-41 0 -74 13t-56 36t-36 54.5t-13 69.5q0 53 18.5 97t50 75.5t73.5 49t89 17.5q40 0 73.5 -13t56.5 -36t36 -54.5t13 -69.5q0 -53 -18.5 -97t-50 -75.5t-73.5 -49t-89 -17.5zM252 342q28 0 55.5 9.5t50 27t38.5 42.5t22 57q6 30 7.5 43t1.5 21q0 60 -38 92
t-97 32q-29 0 -56 -9.5t-49.5 -27t-38.5 -42.5t-22 -57q-6 -30 -7.5 -43t-1.5 -21q0 -60 38 -92t97 -32zM230 400h-62l42 209h89q41 0 59 -18.5t18 -47.5q0 -21 -14 -41.5t-41 -28.5l28 -73h-64l-24 63h-19zM277 506q28 0 33 23q2 10 2 13q0 21 -25 21h-25l-11 -57h26z" />
    <glyph glyph-name="macron" unicode="&#xaf;" horiz-adv-x="585" 
d="M191 727h278l-20 -102h-278z" />
    <glyph glyph-name="degree" unicode="&#xb0;" horiz-adv-x="459" 
d="M263 334q-37 0 -68 13t-53 36t-34 54.5t-12 67.5q0 44 16 81.5t44 65t65.5 43t79.5 15.5q37 0 68 -13t53 -36t34 -54.5t12 -67.5q0 -44 -16 -81.5t-44 -65t-65.5 -43t-79.5 -15.5zM273 426q42 0 68 32.5t26 79.5q0 34 -20.5 57t-55.5 23q-42 0 -68 -32.5t-26 -79.5
q0 -34 20.5 -57t55.5 -23z" />
    <glyph glyph-name="plusminus" unicode="&#xb1;" horiz-adv-x="600" 
d="M221 184l33 167h-169l23 116h169l33 167h125l-33 -167h169l-23 -116h-169l-33 -167h-125zM16 0l23 116h463l-23 -116h-463z" />
    <glyph glyph-name="twosuperior" unicode="&#xb2;" horiz-adv-x="340" 
d="M318 329h-281l17 85l140 91q38 24 51.5 39t17.5 34q1 5 1 10q0 17 -11.5 26t-28.5 9q-25 0 -39.5 -15t-21.5 -32l-82 31q19 40 55.5 68.5t95.5 28.5q58 0 96 -28t38 -78q0 -48 -32 -81t-95 -69l-69 -40h164z" />
    <glyph glyph-name="threesuperior" unicode="&#xb3;" horiz-adv-x="332" 
d="M195 556q30 0 45 9t17 20q2 10 2 14q0 13 -12 21t-32 8t-38.5 -10t-38.5 -33l-52 60q28 28 61 43.5t82 15.5q63 0 97 -24.5t34 -65.5q0 -34 -22.5 -59t-67.5 -33v-2q64 -14 64 -74q0 -54 -43 -88.5t-120 -34.5q-61 0 -92.5 22t-44.5 51l69 49q8 -20 24.5 -33t44.5 -13
q21 0 37.5 9t20.5 28q2 10 2 14q0 29 -48 29h-40l15 77h36z" />
    <glyph glyph-name="acute" unicode="&#xb4;" horiz-adv-x="585" 
d="M321 579l-84 46l119 190l112 -60z" />
    <glyph glyph-name="mu" unicode="&#xb5;" horiz-adv-x="587" 
d="M-26 -200l145 725h140l-62 -310q-3 -14 -5 -29t-2 -26q0 -26 11.5 -40.5t37.5 -14.5t46.5 13.5t37.5 34.5q36 44 48 102l54 270h140l-83 -413h59l-22 -112h-93q-38 0 -63 20t-25 57q0 8 1 17t2 13l3 15h-6q-18 -38 -34.5 -64t-33.5 -41.5t-35 -22t-38 -6.5q-52 0 -64 56
h-5l5 -147l-19 -97h-140z" />
    <glyph glyph-name="paragraph" unicode="&#xb6;" horiz-adv-x="646" 
d="M225 263q-34 0 -63.5 15t-51 41t-34 60.5t-12.5 73.5q0 49 18.5 93t53 78t83 54t108.5 20h346l-21 -104h-60l-149 -743h-103l149 743h-95l-149 -743h-103z" />
    <glyph glyph-name="periodcentered" unicode="&#xb7;" horiz-adv-x="350" 
d="M169 213q-42 0 -59 19t-17 41q0 8 2.5 21.5t4.5 24.5q6 33 30.5 53.5t66.5 20.5t59 -19t17 -41q0 -8 -2.5 -21.5t-4.5 -24.5q-6 -33 -30.5 -53.5t-66.5 -20.5z" />
    <glyph glyph-name="cedilla" unicode="&#xb8;" horiz-adv-x="585" 
d="M269 -212q-42 0 -70 13.5t-41 32.5l52 52q6 -9 21 -18.5t37 -9.5q21 0 35.5 7t14.5 24q0 12 -14 22t-52 14l-22 2l44 103h66l-34 -85l2 -4q22 7 43 7q26 0 44 -15t18 -41t-11.5 -45.5t-31 -32.5t-45.5 -19.5t-56 -6.5z" />
    <glyph glyph-name="onesuperior" unicode="&#xb9;" horiz-adv-x="344" 
d="M67 329l15 76h81l44 220h-6l-72 -83l-59 49l92 107h156l-59 -293h73l-15 -76h-250z" />
    <glyph glyph-name="ordmasculine" unicode="&#xba;" horiz-adv-x="427" 
d="M235 324q-68 0 -109.5 42.5t-41.5 118.5q0 13 1.5 26t3.5 25q7 35 24 66t43.5 53.5t60.5 35.5t76 13q68 0 109.5 -42.5t41.5 -118.5q0 -13 -1.5 -26t-3.5 -25q-7 -35 -24 -66t-43.5 -53.5t-60.5 -35.5t-76 -13zM245 401q32 0 54 22t30 64l12 61q2 8 2 12.5v8.5
q0 28 -17 43t-43 15q-32 0 -54 -22t-30 -64l-12 -61q-2 -8 -2 -12.5v-8.5q0 -28 17 -43t43 -15z" />
    <glyph glyph-name="guillemotright" unicode="&#xbb;" horiz-adv-x="562" 
d="M261 143l151 138l-94 131l57 83l156 -160l-26 -128l-203 -157zM11 143l151 138l-94 131l57 83l156 -160l-26 -128l-203 -157z" />
    <glyph glyph-name="onequarter" unicode="&#xbc;" horiz-adv-x="891" 
d="M67 329l15 76h81l44 220h-6l-72 -83l-59 49l92 107h156l-59 -293h73l-15 -76h-250zM77 0l657 698h114l-657 -698h-114zM629 0l14 70h-170l18 81l194 218h112l-46 -228h45l-16 -71h-44l-14 -70h-93zM682 258h-7l-106 -117h89z" />
    <glyph glyph-name="onehalf" unicode="&#xbd;" horiz-adv-x="888" 
d="M67 329l15 76h81l44 220h-6l-72 -83l-59 49l92 107h156l-59 -293h73l-15 -76h-250zM77 0l657 698h114l-657 -698h-114zM794 0h-281l17 85l140 91q38 24 51.5 39t17.5 34q1 5 1 10q0 17 -11.5 26t-28.5 9q-25 0 -39.5 -15t-21.5 -32l-82 31q19 40 55.5 68.5t95.5 28.5
q58 0 96 -28t38 -78q0 -48 -32 -81t-95 -69l-69 -40h164z" />
    <glyph glyph-name="threequarters" unicode="&#xbe;" horiz-adv-x="869" 
d="M195 556q30 0 45 9t17 20q2 10 2 14q0 13 -12 21t-32 8t-38.5 -10t-38.5 -33l-52 60q28 28 61 43.5t82 15.5q63 0 97 -24.5t34 -65.5q0 -34 -22.5 -59t-67.5 -33v-2q64 -14 64 -74q0 -54 -43 -88.5t-120 -34.5q-61 0 -92.5 22t-44.5 51l69 49q8 -20 24.5 -33t44.5 -13
q21 0 37.5 9t20.5 28q2 10 2 14q0 29 -48 29h-40l15 77h36zM55 0l657 698h114l-657 -698h-114zM607 0l14 70h-170l18 81l194 218h112l-46 -228h45l-16 -71h-44l-14 -70h-93zM660 258h-7l-106 -117h89z" />
    <glyph glyph-name="questiondown" unicode="&#xbf;" horiz-adv-x="490" 
d="M185 -185q-96 0 -149.5 45.5t-53.5 122.5q0 42 16 80t44 69t66.5 53t82.5 31l17 76h137l-32 -153q-81 -8 -123.5 -33t-53.5 -69q-2 -7 -3.5 -16.5t-1.5 -19.5q0 -33 22 -48.5t52 -15.5q40 0 67.5 24.5t43.5 64.5l114 -51q-17 -36 -39.5 -65.5t-52.5 -50.5t-68 -32.5
t-85 -11.5zM288 361q-42 0 -59.5 16.5t-17.5 41.5q0 5 0.5 12.5t5.5 29.5q7 35 31.5 55.5t69.5 20.5q42 0 59.5 -16.5t17.5 -41.5q0 -5 -0.5 -12.5t-5.5 -29.5q-7 -35 -31.5 -55.5t-69.5 -20.5z" />
    <glyph glyph-name="Agrave" unicode="&#xc0;" horiz-adv-x="658" 
d="M441 0l-16 170h-223l-82 -170h-155l359 698h185l79 -698h-147zM394 567h-8l-127 -276h156zM292 916l126 59l68 -196l-89 -39z" />
    <glyph glyph-name="Aacute" unicode="&#xc1;" horiz-adv-x="658" 
d="M441 0l-16 170h-223l-82 -170h-155l359 698h185l79 -698h-147zM394 567h-8l-127 -276h156zM439 739l-84 46l119 190l112 -60z" />
    <glyph glyph-name="Acircumflex" unicode="&#xc2;" horiz-adv-x="658" 
d="M441 0l-16 170h-223l-82 -170h-155l359 698h185l79 -698h-147zM394 567h-8l-127 -276h156zM514 954l100 -158l-75 -57l-99 115l-134 -115l-70 57l156 158h122z" />
    <glyph glyph-name="Atilde" unicode="&#xc3;" horiz-adv-x="658" 
d="M441 0l-16 170h-223l-82 -170h-155l359 698h185l79 -698h-147zM394 567h-8l-127 -276h156zM505 761q-22 0 -39 6t-37 15q-19 9 -35.5 15.5t-36.5 6.5q-17 0 -29 -6t-29 -19l-43 69q23 29 51.5 45.5t63.5 16.5q22 0 39 -6t37 -15q19 -9 35.5 -15.5t36.5 -6.5q17 0 29 6
t29 19l43 -69q-23 -29 -51.5 -45.5t-63.5 -16.5z" />
    <glyph glyph-name="Adieresis" unicode="&#xc4;" horiz-adv-x="658" 
d="M441 0l-16 170h-223l-82 -170h-155l359 698h185l79 -698h-147zM394 567h-8l-127 -276h156zM325 760q-35 0 -50 14.5t-15 34.5q0 5 1.5 13t4.5 26q5 26 24 44.5t61 18.5q35 0 50 -14.5t15 -34.5q0 -5 -1.5 -13t-4.5 -26q-5 -26 -24 -44.5t-61 -18.5zM525 760
q-35 0 -50 14.5t-15 34.5q0 5 1.5 13t4.5 26q5 26 24 44.5t61 18.5q35 0 50 -14.5t15 -34.5q0 -5 -1.5 -13t-4.5 -26q-5 -26 -24 -44.5t-61 -18.5z" />
    <glyph glyph-name="Aring" unicode="&#xc5;" horiz-adv-x="658" 
d="M441 0l-16 170h-223l-82 -170h-155l359 698h185l79 -698h-147zM394 567h-8l-127 -276h156zM416 719q-56 0 -92 34.5t-36 87.5q0 37 13.5 67.5t36 52t52.5 33t63 11.5q56 0 92 -34.5t36 -87.5q0 -38 -13.5 -68t-36 -51.5t-52.5 -33t-63 -11.5zM422 793q23 0 38 14t20 38
l6 28.5t2 18.5q0 39 -41 39q-23 0 -38 -14t-20 -38l-6 -28.5t-2 -18.5q0 -39 41 -39z" />
    <glyph glyph-name="AE" unicode="&#xc6;" horiz-adv-x="920" 
d="M398 169h-197l-101 -169h-156l444 698h565l-26 -128h-303l-31 -153h268l-26 -128h-268l-32 -161h314l-26 -128h-459zM449 570l-171 -279h144l56 279h-29z" />
    <glyph glyph-name="Ccedilla" unicode="&#xc7;" horiz-adv-x="635" 
d="M404 581q-70 0 -113.5 -48.5t-59.5 -126.5l-22 -110q-3 -15 -4 -27.5t-1 -22.5q0 -129 116 -129q58 0 93.5 29t58.5 75l121 -55q-45 -88 -115 -131.5t-157 -46.5l-17 -43l2 -4q22 7 43 7q26 0 44 -15t18 -41t-11.5 -45.5t-31 -32.5t-45.5 -19.5t-56 -6.5q-42 0 -70 13.5
t-41 32.5l52 52q6 -9 21 -18.5t37 -9.5q21 0 35.5 7t14.5 24q0 12 -14 22t-52 14l-22 2l28 65q-90 15 -144.5 85t-54.5 195q0 92 27.5 172t76 139t114 93t141.5 34q94 0 152 -44.5t83 -125.5l-129 -54q-6 19 -15 36.5t-22.5 30.5t-33 20.5t-47.5 7.5z" />
    <glyph glyph-name="Egrave" unicode="&#xc8;" horiz-adv-x="578" 
d="M22 0l140 698h449l-26 -128h-303l-31 -153h268l-26 -128h-268l-32 -161h314l-26 -128h-459zM267 916l126 59l68 -196l-89 -39z" />
    <glyph glyph-name="Eacute" unicode="&#xc9;" horiz-adv-x="578" 
d="M22 0l140 698h449l-26 -128h-303l-31 -153h268l-26 -128h-268l-32 -161h314l-26 -128h-459zM414 739l-84 46l119 190l112 -60z" />
    <glyph glyph-name="Ecircumflex" unicode="&#xca;" horiz-adv-x="578" 
d="M22 0l140 698h449l-26 -128h-303l-31 -153h268l-26 -128h-268l-32 -161h314l-26 -128h-459zM489 954l100 -158l-75 -57l-99 115l-134 -115l-70 57l156 158h122z" />
    <glyph glyph-name="Edieresis" unicode="&#xcb;" horiz-adv-x="578" 
d="M22 0l140 698h449l-26 -128h-303l-31 -153h268l-26 -128h-268l-32 -161h314l-26 -128h-459zM300 760q-35 0 -50 14.5t-15 34.5q0 5 1.5 13t4.5 26q5 26 24 44.5t61 18.5q35 0 50 -14.5t15 -34.5q0 -5 -1.5 -13t-4.5 -26q-5 -26 -24 -44.5t-61 -18.5zM500 760
q-35 0 -50 14.5t-15 34.5q0 5 1.5 13t4.5 26q5 26 24 44.5t61 18.5q35 0 50 -14.5t15 -34.5q0 -5 -1.5 -13t-4.5 -26q-5 -26 -24 -44.5t-61 -18.5z" />
    <glyph glyph-name="Igrave" unicode="&#xcc;" horiz-adv-x="415" 
d="M-4 0l24 118h86l93 462h-86l23 118h318l-24 -118h-86l-93 -462h86l-23 -118h-318zM176 916l126 59l68 -196l-89 -39z" />
    <glyph glyph-name="Iacute" unicode="&#xcd;" horiz-adv-x="415" 
d="M-4 0l24 118h86l93 462h-86l23 118h318l-24 -118h-86l-93 -462h86l-23 -118h-318zM323 739l-84 46l119 190l112 -60z" />
    <glyph glyph-name="Icircumflex" unicode="&#xce;" horiz-adv-x="415" 
d="M-4 0l24 118h86l93 462h-86l23 118h318l-24 -118h-86l-93 -462h86l-23 -118h-318zM398 954l100 -158l-75 -57l-99 115l-134 -115l-70 57l156 158h122z" />
    <glyph glyph-name="Idieresis" unicode="&#xcf;" horiz-adv-x="415" 
d="M-4 0l24 118h86l93 462h-86l23 118h318l-24 -118h-86l-93 -462h86l-23 -118h-318zM209 760q-35 0 -50 14.5t-15 34.5q0 5 1.5 13t4.5 26q5 26 24 44.5t61 18.5q35 0 50 -14.5t15 -34.5q0 -5 -1.5 -13t-4.5 -26q-5 -26 -24 -44.5t-61 -18.5zM409 760q-35 0 -50 14.5
t-15 34.5q0 5 1.5 13t4.5 26q5 26 24 44.5t61 18.5q35 0 50 -14.5t15 -34.5q0 -5 -1.5 -13t-4.5 -26q-5 -26 -24 -44.5t-61 -18.5z" />
    <glyph glyph-name="Eth" unicode="&#xd0;" horiz-adv-x="687" 
d="M88 298h-78l23 112h76l58 288h224q125 0 196.5 -66t71.5 -195q0 -93 -24 -173t-70.5 -138.5t-115 -92t-156.5 -33.5h-266zM305 128q69 0 116.5 41.5t64.5 126.5l19 94q4 18 5.5 35.5t1.5 26.5q0 63 -30.5 90.5t-81.5 27.5h-114l-32 -160h113l-23 -112h-113l-33 -170h107z
" />
    <glyph glyph-name="Ntilde" unicode="&#xd1;" horiz-adv-x="700" 
d="M302 336l-42 139h-6l-95 -475h-137l140 698h157l113 -336l42 -139h6l95 475h137l-140 -698h-157zM530 761q-22 0 -39 6t-37 15q-19 9 -35.5 15.5t-36.5 6.5q-17 0 -29 -6t-29 -19l-43 69q23 29 51.5 45.5t63.5 16.5q22 0 39 -6t37 -15q19 -9 35.5 -15.5t36.5 -6.5
q17 0 29 6t29 19l43 -69q-23 -29 -51.5 -45.5t-63.5 -16.5z" />
    <glyph glyph-name="Ograve" unicode="&#xd2;" horiz-adv-x="695" 
d="M308 -12q-50 0 -95.5 16.5t-80 51t-55 88t-20.5 127.5q0 90 27 170t75 140t114 94.5t144 34.5q50 0 95.5 -16.5t80 -51t55 -88t20.5 -127.5q0 -90 -27 -170t-75 -140t-114 -94.5t-144 -34.5zM318 117q70 0 115 47t62 132l21 105q3 16 4 28.5t1 23.5q0 128 -114 128
q-70 0 -115 -47t-62 -132l-21 -105q-3 -15 -4 -28t-1 -24q0 -128 114 -128zM320 916l126 59l68 -196l-89 -39z" />
    <glyph glyph-name="Oacute" unicode="&#xd3;" horiz-adv-x="695" 
d="M308 -12q-50 0 -95.5 16.5t-80 51t-55 88t-20.5 127.5q0 90 27 170t75 140t114 94.5t144 34.5q50 0 95.5 -16.5t80 -51t55 -88t20.5 -127.5q0 -90 -27 -170t-75 -140t-114 -94.5t-144 -34.5zM318 117q70 0 115 47t62 132l21 105q3 16 4 28.5t1 23.5q0 128 -114 128
q-70 0 -115 -47t-62 -132l-21 -105q-3 -15 -4 -28t-1 -24q0 -128 114 -128zM467 739l-84 46l119 190l112 -60z" />
    <glyph glyph-name="Ocircumflex" unicode="&#xd4;" horiz-adv-x="695" 
d="M308 -12q-50 0 -95.5 16.5t-80 51t-55 88t-20.5 127.5q0 90 27 170t75 140t114 94.5t144 34.5q50 0 95.5 -16.5t80 -51t55 -88t20.5 -127.5q0 -90 -27 -170t-75 -140t-114 -94.5t-144 -34.5zM318 117q70 0 115 47t62 132l21 105q3 16 4 28.5t1 23.5q0 128 -114 128
q-70 0 -115 -47t-62 -132l-21 -105q-3 -15 -4 -28t-1 -24q0 -128 114 -128zM542 954l100 -158l-75 -57l-99 115l-134 -115l-70 57l156 158h122z" />
    <glyph glyph-name="Otilde" unicode="&#xd5;" horiz-adv-x="695" 
d="M308 -12q-50 0 -95.5 16.5t-80 51t-55 88t-20.5 127.5q0 90 27 170t75 140t114 94.5t144 34.5q50 0 95.5 -16.5t80 -51t55 -88t20.5 -127.5q0 -90 -27 -170t-75 -140t-114 -94.5t-144 -34.5zM318 117q70 0 115 47t62 132l21 105q3 16 4 28.5t1 23.5q0 128 -114 128
q-70 0 -115 -47t-62 -132l-21 -105q-3 -15 -4 -28t-1 -24q0 -128 114 -128zM533 761q-22 0 -39 6t-37 15q-19 9 -35.5 15.5t-36.5 6.5q-17 0 -29 -6t-29 -19l-43 69q23 29 51.5 45.5t63.5 16.5q22 0 39 -6t37 -15q19 -9 35.5 -15.5t36.5 -6.5q17 0 29 6t29 19l43 -69
q-23 -29 -51.5 -45.5t-63.5 -16.5z" />
    <glyph glyph-name="Odieresis" unicode="&#xd6;" horiz-adv-x="695" 
d="M308 -12q-50 0 -95.5 16.5t-80 51t-55 88t-20.5 127.5q0 90 27 170t75 140t114 94.5t144 34.5q50 0 95.5 -16.5t80 -51t55 -88t20.5 -127.5q0 -90 -27 -170t-75 -140t-114 -94.5t-144 -34.5zM318 117q70 0 115 47t62 132l21 105q3 16 4 28.5t1 23.5q0 128 -114 128
q-70 0 -115 -47t-62 -132l-21 -105q-3 -15 -4 -28t-1 -24q0 -128 114 -128zM353 760q-35 0 -50 14.5t-15 34.5q0 5 1.5 13t4.5 26q5 26 24 44.5t61 18.5q35 0 50 -14.5t15 -34.5q0 -5 -1.5 -13t-4.5 -26q-5 -26 -24 -44.5t-61 -18.5zM553 760q-35 0 -50 14.5t-15 34.5
q0 5 1.5 13t4.5 26q5 26 24 44.5t61 18.5q35 0 50 -14.5t15 -34.5q0 -5 -1.5 -13t-4.5 -26q-5 -26 -24 -44.5t-61 -18.5z" />
    <glyph glyph-name="multiply" unicode="&#xd7;" horiz-adv-x="600" 
d="M302 220l-167 -144l-75 87l171 148l-112 143l96 80l110 -144l167 144l75 -87l-171 -148l112 -143l-96 -80z" />
    <glyph glyph-name="Oslash" unicode="&#xd8;" horiz-adv-x="695" 
d="M308 -12q-42 0 -80 11t-70 34l-79 -93l-77 67l89 104q-16 32 -25 71.5t-9 88.5q0 90 27 170t75 140t114 94.5t144 34.5q42 0 80 -11t70 -34l79 93l77 -67l-89 -104q16 -32 25 -71.5t9 -88.5q0 -90 -27 -170t-75 -140t-114 -94.5t-144 -34.5zM205 296q-3 -15 -5 -29.5
t-2 -26.5v-9t1 -10l289 337q-32 29 -80 29q-72 0 -118 -47t-63 -135zM317 111q72 0 118 47t63 135l22 109q3 15 5 29.5t2 26.5v9t-1 10l-289 -337q32 -29 80 -29z" />
    <glyph glyph-name="Ugrave" unicode="&#xd9;" horiz-adv-x="678" 
d="M303 698l-84 -418q-3 -14 -5 -31.5t-2 -31.5q0 -100 102 -100q60 0 95 36t51 114l87 431h143l-85 -423q-15 -74 -38.5 -128t-59.5 -89t-85 -52.5t-114 -17.5q-115 0 -175.5 57t-60.5 169q0 20 2 41.5t7 47.5l79 395h143zM302 916l126 59l68 -196l-89 -39z" />
    <glyph glyph-name="Uacute" unicode="&#xda;" horiz-adv-x="678" 
d="M303 698l-84 -418q-3 -14 -5 -31.5t-2 -31.5q0 -100 102 -100q60 0 95 36t51 114l87 431h143l-85 -423q-15 -74 -38.5 -128t-59.5 -89t-85 -52.5t-114 -17.5q-115 0 -175.5 57t-60.5 169q0 20 2 41.5t7 47.5l79 395h143zM449 739l-84 46l119 190l112 -60z" />
    <glyph glyph-name="Ucircumflex" unicode="&#xdb;" horiz-adv-x="678" 
d="M303 698l-84 -418q-3 -14 -5 -31.5t-2 -31.5q0 -100 102 -100q60 0 95 36t51 114l87 431h143l-85 -423q-15 -74 -38.5 -128t-59.5 -89t-85 -52.5t-114 -17.5q-115 0 -175.5 57t-60.5 169q0 20 2 41.5t7 47.5l79 395h143zM524 954l100 -158l-75 -57l-99 115l-134 -115
l-70 57l156 158h122z" />
    <glyph glyph-name="Udieresis" unicode="&#xdc;" horiz-adv-x="678" 
d="M303 698l-84 -418q-3 -14 -5 -31.5t-2 -31.5q0 -100 102 -100q60 0 95 36t51 114l87 431h143l-85 -423q-15 -74 -38.5 -128t-59.5 -89t-85 -52.5t-114 -17.5q-115 0 -175.5 57t-60.5 169q0 20 2 41.5t7 47.5l79 395h143zM335 760q-35 0 -50 14.5t-15 34.5q0 5 1.5 13
t4.5 26q5 26 24 44.5t61 18.5q35 0 50 -14.5t15 -34.5q0 -5 -1.5 -13t-4.5 -26q-5 -26 -24 -44.5t-61 -18.5zM535 760q-35 0 -50 14.5t-15 34.5q0 5 1.5 13t4.5 26q5 26 24 44.5t61 18.5q35 0 50 -14.5t15 -34.5q0 -5 -1.5 -13t-4.5 -26q-5 -26 -24 -44.5t-61 -18.5z" />
    <glyph glyph-name="Yacute" unicode="&#xdd;" horiz-adv-x="624" 
d="M185 0l54 271l-148 427h148l94 -294h7l201 294h160l-319 -440l-52 -258h-145zM410 739l-84 46l119 190l112 -60z" />
    <glyph glyph-name="Thorn" unicode="&#xde;" horiz-adv-x="634" 
d="M22 0l140 698h145l-24 -121h120q105 0 162.5 -49t57.5 -138q0 -57 -20 -104.5t-56 -81t-86 -52t-109 -18.5h-159l-25 -134h-146zM220 262h150q34 0 58.5 17.5t32.5 52.5q7 28 9.5 41.5t2.5 21.5q0 23 -15.5 38.5t-49.5 15.5h-152z" />
    <glyph glyph-name="germandbls" unicode="&#xdf;" horiz-adv-x="669" 
d="M628 189q0 -38 -14.5 -74.5t-41.5 -64.5t-66.5 -45t-89.5 -17q-63 0 -108 19.5t-68 57.5l88 79q17 -26 39.5 -37t51.5 -11q36 0 56.5 20t20.5 49q0 22 -12.5 33t-41.5 26l-40 20q-33 17 -55 44t-22 73q0 68 44.5 113t131.5 56l1 6q2 9 2.5 16t0.5 15q0 75 -92 75
q-55 0 -87.5 -26.5t-44.5 -84.5l-106 -531h-140l82 410h-74l23 115h74l1 5q10 52 35 93.5t61 70t82.5 43.5t100.5 15q52 0 93 -13t69.5 -36t43.5 -54.5t15 -68.5q0 -17 -1.5 -34.5t-6.5 -37.5l-15 -74h-76q-86 0 -86 -44q0 -19 14 -32t38 -25l39 -20q39 -20 60 -48t21 -76z
" />
    <glyph glyph-name="agrave" unicode="&#xe0;" horiz-adv-x="591" 
d="M430 0q-38 0 -63 20t-25 57q0 8 1 17t2 13l3 15h-6q-31 -64 -70 -99t-101 -35q-37 0 -63.5 13.5t-43.5 38t-25 58t-8 72.5q0 84 19.5 151.5t52.5 115.5t77.5 74t94.5 26q55 0 90.5 -30t40.5 -73h5l18 91h140l-83 -413h59l-22 -112h-93zM240 103q27 0 49 14t38 34
q17 20 29.5 47.5t18.5 56.5l16 80q8 37 -15 62t-67 25q-91 0 -115 -117l-14 -70q-2 -11 -4 -28t-2 -29q0 -35 17.5 -55t48.5 -20zM214 756l126 59l68 -196l-89 -39z" />
    <glyph glyph-name="aacute" unicode="&#xe1;" horiz-adv-x="591" 
d="M430 0q-38 0 -63 20t-25 57q0 8 1 17t2 13l3 15h-6q-31 -64 -70 -99t-101 -35q-37 0 -63.5 13.5t-43.5 38t-25 58t-8 72.5q0 84 19.5 151.5t52.5 115.5t77.5 74t94.5 26q55 0 90.5 -30t40.5 -73h5l18 91h140l-83 -413h59l-22 -112h-93zM240 103q27 0 49 14t38 34
q17 20 29.5 47.5t18.5 56.5l16 80q8 37 -15 62t-67 25q-91 0 -115 -117l-14 -70q-2 -11 -4 -28t-2 -29q0 -35 17.5 -55t48.5 -20zM361 579l-84 46l119 190l112 -60z" />
    <glyph glyph-name="acircumflex" unicode="&#xe2;" horiz-adv-x="591" 
d="M430 0q-38 0 -63 20t-25 57q0 8 1 17t2 13l3 15h-6q-31 -64 -70 -99t-101 -35q-37 0 -63.5 13.5t-43.5 38t-25 58t-8 72.5q0 84 19.5 151.5t52.5 115.5t77.5 74t94.5 26q55 0 90.5 -30t40.5 -73h5l18 91h140l-83 -413h59l-22 -112h-93zM240 103q27 0 49 14t38 34
q17 20 29.5 47.5t18.5 56.5l16 80q8 37 -15 62t-67 25q-91 0 -115 -117l-14 -70q-2 -11 -4 -28t-2 -29q0 -35 17.5 -55t48.5 -20zM436 794l100 -158l-75 -57l-99 115l-134 -115l-70 57l156 158h122z" />
    <glyph glyph-name="atilde" unicode="&#xe3;" horiz-adv-x="591" 
d="M430 0q-38 0 -63 20t-25 57q0 8 1 17t2 13l3 15h-6q-31 -64 -70 -99t-101 -35q-37 0 -63.5 13.5t-43.5 38t-25 58t-8 72.5q0 84 19.5 151.5t52.5 115.5t77.5 74t94.5 26q55 0 90.5 -30t40.5 -73h5l18 91h140l-83 -413h59l-22 -112h-93zM240 103q27 0 49 14t38 34
q17 20 29.5 47.5t18.5 56.5l16 80q8 37 -15 62t-67 25q-91 0 -115 -117l-14 -70q-2 -11 -4 -28t-2 -29q0 -35 17.5 -55t48.5 -20zM427 601q-22 0 -39 6t-37 15q-19 9 -35.5 15.5t-36.5 6.5q-17 0 -29 -6t-29 -19l-43 69q23 29 51.5 45.5t63.5 16.5q22 0 39 -6t37 -15
q19 -9 35.5 -15.5t36.5 -6.5q17 0 29 6t29 19l43 -69q-23 -29 -51.5 -45.5t-63.5 -16.5z" />
    <glyph glyph-name="adieresis" unicode="&#xe4;" horiz-adv-x="591" 
d="M430 0q-38 0 -63 20t-25 57q0 8 1 17t2 13l3 15h-6q-31 -64 -70 -99t-101 -35q-37 0 -63.5 13.5t-43.5 38t-25 58t-8 72.5q0 84 19.5 151.5t52.5 115.5t77.5 74t94.5 26q55 0 90.5 -30t40.5 -73h5l18 91h140l-83 -413h59l-22 -112h-93zM240 103q27 0 49 14t38 34
q17 20 29.5 47.5t18.5 56.5l16 80q8 37 -15 62t-67 25q-91 0 -115 -117l-14 -70q-2 -11 -4 -28t-2 -29q0 -35 17.5 -55t48.5 -20zM247 600q-35 0 -50 14t-15 34q0 5 1.5 14t4.5 26q5 26 24 44.5t61 18.5q35 0 50 -14t15 -34q0 -5 -1.5 -14t-4.5 -26q-5 -26 -24 -44.5
t-61 -18.5zM447 600q-35 0 -50 14t-15 34q0 5 1.5 14t4.5 26q5 26 24 44.5t61 18.5q35 0 50 -14t15 -34q0 -5 -1.5 -14t-4.5 -26q-5 -26 -24 -44.5t-61 -18.5z" />
    <glyph glyph-name="aring" unicode="&#xe5;" horiz-adv-x="591" 
d="M430 0q-38 0 -63 20t-25 57q0 8 1 17t2 13l3 15h-6q-31 -64 -70 -99t-101 -35q-37 0 -63.5 13.5t-43.5 38t-25 58t-8 72.5q0 84 19.5 151.5t52.5 115.5t77.5 74t94.5 26q55 0 90.5 -30t40.5 -73h5l18 91h140l-83 -413h59l-22 -112h-93zM240 103q27 0 49 14t38 34
q17 20 29.5 47.5t18.5 56.5l16 80q8 37 -15 62t-67 25q-91 0 -115 -117l-14 -70q-2 -11 -4 -28t-2 -29q0 -35 17.5 -55t48.5 -20zM338 558q-56 0 -92 34.5t-36 87.5q0 37 13.5 67.5t36 52t52.5 33t63 11.5q56 0 92 -34.5t36 -87.5q0 -38 -13.5 -68t-36 -51.5t-52.5 -33
t-63 -11.5zM344 632q23 0 38 14t20 38q4 19 6 29t2 18q0 39 -41 39q-23 0 -38 -14t-20 -38q-4 -19 -6 -29t-2 -18q0 -39 41 -39z" />
    <glyph glyph-name="ae" unicode="&#xe6;" horiz-adv-x="827" 
d="M231 89q34 0 63 17.5t37 53.5l12 57l-81 -4q-31 -2 -55 -10.5t-32 -37.5q-3 -11 -3.5 -20.5t-0.5 -10.5q0 -23 16.5 -34t43.5 -11zM620 430q-45 0 -76.5 -29.5t-40.5 -80.5l-4 -19q56 3 91.5 10t55.5 16.5t27 22t7 27.5q0 17 -6 27.5t-15 16t-19.5 7.5t-19.5 2zM182 -12
q-78 0 -117.5 37t-39.5 100q0 82 64 123t179 46l91 4l5 27q3 18 3 30q0 70 -81 70q-23 0 -41.5 -5.5t-33 -14.5t-26 -21.5t-21.5 -26.5l-82 79q37 48 91.5 74.5t123.5 26.5q114 0 157 -76h7q32 35 73.5 55.5t95.5 20.5q29 0 61.5 -7t60.5 -23.5t46 -44.5t18 -70
q0 -80 -78.5 -125.5t-253.5 -50.5q-2 -12 -2 -19v-12q0 -38 20.5 -61t73.5 -23q34 0 63 14.5t64 58.5l86 -68q-49 -65 -102.5 -91.5t-121.5 -26.5q-75 0 -123.5 27t-73.5 77h-7q-26 -56 -73 -80t-106 -24z" />
    <glyph glyph-name="ccedilla" unicode="&#xe7;" horiz-adv-x="494" 
d="M310 537q37 0 69.5 -9.5t57 -27.5t40.5 -43t21 -56l-118 -45q-9 31 -24.5 49.5t-53.5 18.5q-87 0 -109 -110l-18 -89q-5 -23 -5 -42q0 -37 18.5 -59.5t60.5 -22.5q20 0 35 6t26.5 17t21.5 26t21 34l107 -50q-32 -66 -81 -102t-114 -42l-18 -45l2 -4q22 7 43 7
q26 0 44 -15t18 -41t-11.5 -45.5t-31 -32.5t-45.5 -19.5t-56 -6.5q-42 0 -70 13.5t-41 32.5l52 52q6 -9 21 -18.5t37 -9.5q21 0 35.5 7t14.5 24q0 12 -14 22t-52 14l-22 2l27 64q-36 5 -66.5 20.5t-53 42.5t-35 67t-12.5 94q0 70 21 129t58.5 102t88.5 67t111 24z" />
    <glyph glyph-name="egrave" unicode="&#xe8;" horiz-adv-x="515" 
d="M253 -12q-112 0 -167 60.5t-55 165.5q0 63 20 121.5t57 103t90 71.5t118 27q30 0 63 -7t60.5 -23.5t46 -44.5t18.5 -71q0 -41 -19 -73.5t-59 -56t-103 -37t-151 -16.5q-2 -9 -2 -14v-9q0 -38 20.5 -61t72.5 -23q34 0 63.5 14.5t64.5 58.5l86 -68q-49 -65 -102.5 -91.5
t-121.5 -26.5zM308 430q-45 0 -76.5 -29.5t-40.5 -80.5l-4 -23q56 3 91.5 10t55.5 17.5t27 23.5t7 29q0 17 -6 27.5t-15 16t-19.5 7.5t-19.5 2zM204 756l126 59l68 -196l-89 -39z" />
    <glyph glyph-name="eacute" unicode="&#xe9;" horiz-adv-x="515" 
d="M253 -12q-112 0 -167 60.5t-55 165.5q0 63 20 121.5t57 103t90 71.5t118 27q30 0 63 -7t60.5 -23.5t46 -44.5t18.5 -71q0 -41 -19 -73.5t-59 -56t-103 -37t-151 -16.5q-2 -9 -2 -14v-9q0 -38 20.5 -61t72.5 -23q34 0 63.5 14.5t64.5 58.5l86 -68q-49 -65 -102.5 -91.5
t-121.5 -26.5zM308 430q-45 0 -76.5 -29.5t-40.5 -80.5l-4 -23q56 3 91.5 10t55.5 17.5t27 23.5t7 29q0 17 -6 27.5t-15 16t-19.5 7.5t-19.5 2zM351 579l-84 46l119 190l112 -60z" />
    <glyph glyph-name="ecircumflex" unicode="&#xea;" horiz-adv-x="515" 
d="M253 -12q-112 0 -167 60.5t-55 165.5q0 63 20 121.5t57 103t90 71.5t118 27q30 0 63 -7t60.5 -23.5t46 -44.5t18.5 -71q0 -41 -19 -73.5t-59 -56t-103 -37t-151 -16.5q-2 -9 -2 -14v-9q0 -38 20.5 -61t72.5 -23q34 0 63.5 14.5t64.5 58.5l86 -68q-49 -65 -102.5 -91.5
t-121.5 -26.5zM308 430q-45 0 -76.5 -29.5t-40.5 -80.5l-4 -23q56 3 91.5 10t55.5 17.5t27 23.5t7 29q0 17 -6 27.5t-15 16t-19.5 7.5t-19.5 2zM426 794l100 -158l-75 -57l-99 115l-134 -115l-70 57l156 158h122z" />
    <glyph glyph-name="edieresis" unicode="&#xeb;" horiz-adv-x="515" 
d="M253 -12q-112 0 -167 60.5t-55 165.5q0 63 20 121.5t57 103t90 71.5t118 27q30 0 63 -7t60.5 -23.5t46 -44.5t18.5 -71q0 -41 -19 -73.5t-59 -56t-103 -37t-151 -16.5q-2 -9 -2 -14v-9q0 -38 20.5 -61t72.5 -23q34 0 63.5 14.5t64.5 58.5l86 -68q-49 -65 -102.5 -91.5
t-121.5 -26.5zM308 430q-45 0 -76.5 -29.5t-40.5 -80.5l-4 -23q56 3 91.5 10t55.5 17.5t27 23.5t7 29q0 17 -6 27.5t-15 16t-19.5 7.5t-19.5 2zM237 600q-35 0 -50 14t-15 34q0 5 1.5 14t4.5 26q5 26 24 44.5t61 18.5q35 0 50 -14t15 -34q0 -5 -1.5 -14t-4.5 -26
q-5 -26 -24 -44.5t-61 -18.5zM437 600q-35 0 -50 14t-15 34q0 5 1.5 14t4.5 26q5 26 24 44.5t61 18.5q35 0 50 -14t15 -34q0 -5 -1.5 -14t-4.5 -26q-5 -26 -24 -44.5t-61 -18.5z" />
    <glyph glyph-name="igrave" unicode="&#xec;" horiz-adv-x="281" 
d="M122 0q-41 0 -65.5 22t-24.5 58q0 10 3 25l84 420h140l-83 -413h59l-22 -112h-91zM71 756l126 59l68 -196l-89 -39z" />
    <glyph glyph-name="iacute" unicode="&#xed;" horiz-adv-x="281" 
d="M122 0q-41 0 -65.5 22t-24.5 58q0 10 3 25l84 420h140l-83 -413h59l-22 -112h-91zM218 579l-84 46l119 190l112 -60z" />
    <glyph glyph-name="icircumflex" unicode="&#xee;" horiz-adv-x="281" 
d="M122 0q-41 0 -65.5 22t-24.5 58q0 10 3 25l84 420h140l-83 -413h59l-22 -112h-91zM293 794l100 -158l-75 -57l-99 115l-134 -115l-70 57l156 158h122z" />
    <glyph glyph-name="idieresis" unicode="&#xef;" horiz-adv-x="281" 
d="M122 0q-41 0 -65.5 22t-24.5 58q0 10 3 25l84 420h140l-83 -413h59l-22 -112h-91zM104 600q-35 0 -50 14t-15 34q0 5 1.5 14t4.5 26q5 26 24 44.5t61 18.5q35 0 50 -14t15 -34q0 -5 -1.5 -14t-4.5 -26q-5 -26 -24 -44.5t-61 -18.5zM304 600q-35 0 -50 14t-15 34
q0 5 1.5 14t4.5 26q5 26 24 44.5t61 18.5q35 0 50 -14t15 -34q0 -5 -1.5 -14t-4.5 -26q-5 -26 -24 -44.5t-61 -18.5z" />
    <glyph glyph-name="eth" unicode="&#xf0;" horiz-adv-x="573" 
d="M447 645q44 -60 66 -137t22 -164q0 -95 -24.5 -162t-65.5 -110.5t-94 -63.5t-109 -20q-100 0 -155.5 58t-55.5 165q0 61 18 114t49 92t72 61t87 22q53 0 86 -28.5t48 -73.5h9q-8 52 -28.5 99t-46.5 84l-107 -55l-32 62l94 49q-33 35 -65 60.5t-57 42.5h195q13 -10 24 -20
t22 -21l99 52l32 -63zM250 96q43 0 70.5 31t39.5 88l10 48q2 13 3 23t1 18q0 41 -20.5 63.5t-56.5 22.5q-43 0 -70.5 -31t-39.5 -88l-10 -48q-2 -13 -3 -23t-1 -18q0 -41 20.5 -63.5t56.5 -22.5z" />
    <glyph glyph-name="ntilde" unicode="&#xf1;" horiz-adv-x="588" 
d="M14 0l105 525h140l-24 -122h6q30 63 71 98.5t103 35.5q61 0 93.5 -35.5t32.5 -100.5q0 -19 -2.5 -36.5t-6.5 -37.5l-43 -215h53l-22 -112h-91q-40 0 -62 20.5t-22 55.5q0 9 1 16.5t2 11.5l41 208q3 14 5 27.5t2 28.5q0 23 -12 37.5t-41 14.5q-26 0 -47 -14t-38 -34
q-18 -21 -31 -46.5t-19 -55.5l-54 -270h-140zM442 601q-22 0 -39 6t-37 15q-19 9 -35.5 15.5t-36.5 6.5q-17 0 -29 -6t-29 -19l-43 69q23 29 51.5 45.5t63.5 16.5q22 0 39 -6t37 -15q19 -9 35.5 -15.5t36.5 -6.5q17 0 29 6t29 19l43 -69q-23 -29 -51.5 -45.5t-63.5 -16.5z
" />
    <glyph glyph-name="ograve" unicode="&#xf2;" horiz-adv-x="542" 
d="M240 -12q-97 0 -153 57.5t-56 161.5q0 71 20.5 131.5t56.5 104.5t85.5 69t108.5 25q97 0 153 -57.5t56 -161.5q0 -71 -20.5 -131.5t-56.5 -104.5t-86 -69t-108 -25zM245 101q82 0 105 115l19 94q1 5 2 13t1 18q0 38 -19 60.5t-56 22.5q-82 0 -105 -115l-19 -94
q-1 -5 -2 -13t-1 -18q0 -38 19 -60.5t56 -22.5zM198 756l126 59l68 -196l-89 -39z" />
    <glyph glyph-name="oacute" unicode="&#xf3;" horiz-adv-x="542" 
d="M240 -12q-97 0 -153 57.5t-56 161.5q0 71 20.5 131.5t56.5 104.5t85.5 69t108.5 25q97 0 153 -57.5t56 -161.5q0 -71 -20.5 -131.5t-56.5 -104.5t-86 -69t-108 -25zM245 101q82 0 105 115l19 94q1 5 2 13t1 18q0 38 -19 60.5t-56 22.5q-82 0 -105 -115l-19 -94
q-1 -5 -2 -13t-1 -18q0 -38 19 -60.5t56 -22.5zM345 579l-84 46l119 190l112 -60z" />
    <glyph glyph-name="ocircumflex" unicode="&#xf4;" horiz-adv-x="542" 
d="M240 -12q-97 0 -153 57.5t-56 161.5q0 71 20.5 131.5t56.5 104.5t85.5 69t108.5 25q97 0 153 -57.5t56 -161.5q0 -71 -20.5 -131.5t-56.5 -104.5t-86 -69t-108 -25zM245 101q82 0 105 115l19 94q1 5 2 13t1 18q0 38 -19 60.5t-56 22.5q-82 0 -105 -115l-19 -94
q-1 -5 -2 -13t-1 -18q0 -38 19 -60.5t56 -22.5zM420 794l100 -158l-75 -57l-99 115l-134 -115l-70 57l156 158h122z" />
    <glyph glyph-name="otilde" unicode="&#xf5;" horiz-adv-x="542" 
d="M240 -12q-97 0 -153 57.5t-56 161.5q0 71 20.5 131.5t56.5 104.5t85.5 69t108.5 25q97 0 153 -57.5t56 -161.5q0 -71 -20.5 -131.5t-56.5 -104.5t-86 -69t-108 -25zM245 101q82 0 105 115l19 94q1 5 2 13t1 18q0 38 -19 60.5t-56 22.5q-82 0 -105 -115l-19 -94
q-1 -5 -2 -13t-1 -18q0 -38 19 -60.5t56 -22.5zM411 601q-22 0 -39 6t-37 15q-19 9 -35.5 15.5t-36.5 6.5q-17 0 -29 -6t-29 -19l-43 69q23 29 51.5 45.5t63.5 16.5q22 0 39 -6t37 -15q19 -9 35.5 -15.5t36.5 -6.5q17 0 29 6t29 19l43 -69q-23 -29 -51.5 -45.5t-63.5 -16.5z
" />
    <glyph glyph-name="odieresis" unicode="&#xf6;" horiz-adv-x="542" 
d="M240 -12q-97 0 -153 57.5t-56 161.5q0 71 20.5 131.5t56.5 104.5t85.5 69t108.5 25q97 0 153 -57.5t56 -161.5q0 -71 -20.5 -131.5t-56.5 -104.5t-86 -69t-108 -25zM245 101q82 0 105 115l19 94q1 5 2 13t1 18q0 38 -19 60.5t-56 22.5q-82 0 -105 -115l-19 -94
q-1 -5 -2 -13t-1 -18q0 -38 19 -60.5t56 -22.5zM231 600q-35 0 -50 14t-15 34q0 5 1.5 14t4.5 26q5 26 24 44.5t61 18.5q35 0 50 -14t15 -34q0 -5 -1.5 -14t-4.5 -26q-5 -26 -24 -44.5t-61 -18.5zM431 600q-35 0 -50 14t-15 34q0 5 1.5 14t4.5 26q5 26 24 44.5t61 18.5
q35 0 50 -14t15 -34q0 -5 -1.5 -14t-4.5 -26q-5 -26 -24 -44.5t-61 -18.5z" />
    <glyph glyph-name="divide" unicode="&#xf7;" horiz-adv-x="600" 
d="M66 248l23 116h463l-23 -116h-463zM258 30q-42 0 -59 15t-17 35q0 8 2 21.5t4 22.5q7 29 28.5 47.5t66.5 18.5q42 0 59 -15t17 -35q0 -8 -2 -21.5t-4 -22.5q-7 -29 -28.5 -47.5t-66.5 -18.5zM335 422q-42 0 -59 15t-17 35q0 8 2 21.5t4 22.5q7 29 28.5 47.5t66.5 18.5
q42 0 59 -15t17 -35q0 -8 -2 -21.5t-4 -22.5q-7 -29 -28.5 -47.5t-66.5 -18.5z" />
    <glyph glyph-name="oslash" unicode="&#xf8;" horiz-adv-x="543" 
d="M-34 21l83 86q-18 43 -18 100q0 71 20.5 131.5t57 104.5t86 69t108.5 25q81 0 133 -40l69 71l72 -64l-83 -86q18 -44 18 -100q0 -71 -20.5 -131.5t-57 -104.5t-86.5 -69t-108 -25q-81 0 -133 40l-69 -71zM245 95q40 0 68.5 31.5t39.5 88.5l13 63l5 27l-184 -187
q8 -10 24 -16.5t34 -6.5zM298 430q-40 0 -68.5 -31.5t-39.5 -88.5l-13 -63l-6 -28l185 188q-8 10 -24 16.5t-34 6.5z" />
    <glyph glyph-name="ugrave" unicode="&#xf9;" horiz-adv-x="582" 
d="M254 525l-62 -312q-3 -14 -5 -28t-2 -25q0 -26 11.5 -40.5t37.5 -14.5t46.5 13.5t37.5 34.5q36 44 48 102l54 270h140l-83 -413h59l-22 -112h-93q-38 0 -63 20t-25 57q0 8 1 17t2 13l3 15h-6q-29 -62 -69 -98t-100 -36t-92 35.5t-32 100.5q0 20 2.5 38t6.5 38l65 325h140
zM217 756l126 59l68 -196l-89 -39z" />
    <glyph glyph-name="uacute" unicode="&#xfa;" horiz-adv-x="582" 
d="M254 525l-62 -312q-3 -14 -5 -28t-2 -25q0 -26 11.5 -40.5t37.5 -14.5t46.5 13.5t37.5 34.5q36 44 48 102l54 270h140l-83 -413h59l-22 -112h-93q-38 0 -63 20t-25 57q0 8 1 17t2 13l3 15h-6q-29 -62 -69 -98t-100 -36t-92 35.5t-32 100.5q0 20 2.5 38t6.5 38l65 325h140
zM364 579l-84 46l119 190l112 -60z" />
    <glyph glyph-name="ucircumflex" unicode="&#xfb;" horiz-adv-x="582" 
d="M254 525l-62 -312q-3 -14 -5 -28t-2 -25q0 -26 11.5 -40.5t37.5 -14.5t46.5 13.5t37.5 34.5q36 44 48 102l54 270h140l-83 -413h59l-22 -112h-93q-38 0 -63 20t-25 57q0 8 1 17t2 13l3 15h-6q-29 -62 -69 -98t-100 -36t-92 35.5t-32 100.5q0 20 2.5 38t6.5 38l65 325h140
zM439 794l100 -158l-75 -57l-99 115l-134 -115l-70 57l156 158h122z" />
    <glyph glyph-name="udieresis" unicode="&#xfc;" horiz-adv-x="582" 
d="M254 525l-62 -312q-3 -14 -5 -28t-2 -25q0 -26 11.5 -40.5t37.5 -14.5t46.5 13.5t37.5 34.5q36 44 48 102l54 270h140l-83 -413h59l-22 -112h-93q-38 0 -63 20t-25 57q0 8 1 17t2 13l3 15h-6q-29 -62 -69 -98t-100 -36t-92 35.5t-32 100.5q0 20 2.5 38t6.5 38l65 325h140
zM250 600q-35 0 -50 14t-15 34q0 5 1.5 14t4.5 26q5 26 24 44.5t61 18.5q35 0 50 -14t15 -34q0 -5 -1.5 -14t-4.5 -26q-5 -26 -24 -44.5t-61 -18.5zM450 600q-35 0 -50 14t-15 34q0 5 1.5 14t4.5 26q5 26 24 44.5t61 18.5q35 0 50 -14t15 -34q0 -5 -1.5 -14t-4.5 -26
q-5 -26 -24 -44.5t-61 -18.5z" />
    <glyph glyph-name="yacute" unicode="&#xfd;" horiz-adv-x="509" 
d="M408 525h149l-322 -610q-15 -29 -32 -50.5t-39 -36t-50 -21.5t-65 -7h-78l23 112h97l28 58l-74 555h139l20 -198l16 -196h6l88 196zM315 579l-84 46l119 190l112 -60z" />
    <glyph glyph-name="thorn" unicode="&#xfe;" horiz-adv-x="583" 
d="M162 740h140l-67 -337h6q31 64 70 99t101 35q37 0 63.5 -13.5t43.5 -38t25 -58t8 -72.5q0 -84 -19.5 -151.5t-52.5 -115.5t-77.5 -74t-94.5 -26q-55 0 -90.5 30t-40.5 73h-5l-58 -291h-140zM274 103q91 0 115 117l14 70q2 11 4 28t2 29q0 35 -17.5 55t-48.5 20
q-27 0 -49 -14t-38 -34q-17 -20 -29.5 -47.5t-18.5 -56.5l-16 -80q-8 -40 15 -63.5t67 -23.5z" />
    <glyph glyph-name="ydieresis" unicode="&#xff;" horiz-adv-x="509" 
d="M408 525h149l-322 -610q-15 -29 -32 -50.5t-39 -36t-50 -21.5t-65 -7h-78l23 112h97l28 58l-74 555h139l20 -198l16 -196h6l88 196zM201 600q-35 0 -50 14t-15 34q0 5 1.5 14t4.5 26q5 26 24 44.5t61 18.5q35 0 50 -14t15 -34q0 -5 -1.5 -14t-4.5 -26q-5 -26 -24 -44.5
t-61 -18.5zM401 600q-35 0 -50 14t-15 34q0 5 1.5 14t4.5 26q5 26 24 44.5t61 18.5q35 0 50 -14t15 -34q0 -5 -1.5 -14t-4.5 -26q-5 -26 -24 -44.5t-61 -18.5z" />
    <glyph glyph-name="Amacron" unicode="&#x100;" horiz-adv-x="658" 
d="M441 0l-16 170h-223l-82 -170h-155l359 698h185l79 -698h-147zM394 567h-8l-127 -276h156zM309 887h278l-20 -102h-278z" />
    <glyph glyph-name="amacron" unicode="&#x101;" horiz-adv-x="591" 
d="M430 0q-38 0 -63 20t-25 57q0 8 1 17t2 13l3 15h-6q-31 -64 -70 -99t-101 -35q-37 0 -63.5 13.5t-43.5 38t-25 58t-8 72.5q0 84 19.5 151.5t52.5 115.5t77.5 74t94.5 26q55 0 90.5 -30t40.5 -73h5l18 91h140l-83 -413h59l-22 -112h-93zM240 103q27 0 49 14t38 34
q17 20 29.5 47.5t18.5 56.5l16 80q8 37 -15 62t-67 25q-91 0 -115 -117l-14 -70q-2 -11 -4 -28t-2 -29q0 -35 17.5 -55t48.5 -20zM231 727h278l-20 -102h-278z" />
    <glyph glyph-name="Abreve" unicode="&#x102;" horiz-adv-x="658" 
d="M441 0l-16 170h-223l-82 -170h-155l359 698h185l79 -698h-147zM394 567h-8l-127 -276h156zM423 739q-42 0 -71.5 15t-49.5 39t-31.5 54.5t-17.5 61.5l80 42l18 -39q16 -34 32 -53t48 -19q27 0 48.5 18.5t49.5 55.5l28 37l83 -46q-18 -32 -39 -62t-47 -53t-58 -37t-73 -14
z" />
    <glyph glyph-name="abreve" unicode="&#x103;" horiz-adv-x="591" 
d="M430 0q-38 0 -63 20t-25 57q0 8 1 17t2 13l3 15h-6q-31 -64 -70 -99t-101 -35q-37 0 -63.5 13.5t-43.5 38t-25 58t-8 72.5q0 84 19.5 151.5t52.5 115.5t77.5 74t94.5 26q55 0 90.5 -30t40.5 -73h5l18 91h140l-83 -413h59l-22 -112h-93zM240 103q27 0 49 14t38 34
q17 20 29.5 47.5t18.5 56.5l16 80q8 37 -15 62t-67 25q-91 0 -115 -117l-14 -70q-2 -11 -4 -28t-2 -29q0 -35 17.5 -55t48.5 -20zM345 579q-42 0 -71.5 15t-49.5 39t-31.5 54.5t-17.5 61.5l80 42l18 -39q16 -34 32 -53t48 -19q27 0 48.5 18.5t49.5 55.5l28 37l83 -46
q-18 -32 -39 -62t-47 -53t-58 -37t-73 -14z" />
    <glyph glyph-name="Aogonek" unicode="&#x104;" horiz-adv-x="658" 
d="M324 698h185l79 -698q-41 -25 -65 -42.5t-36 -30.5t-15 -22t-3 -16q0 -12 7.5 -20.5t27.5 -8.5q16 0 30 5.5t24 21.5l52 -49q-19 -23 -48 -36.5t-77 -13.5q-50 0 -84.5 21t-34.5 62q0 38 32.5 71.5t105.5 53.5l-1 4h-62l-16 170h-223l-82 -170h-155zM394 567h-8
l-127 -276h156z" />
    <glyph glyph-name="aogonek" unicode="&#x105;" horiz-adv-x="591" 
d="M523 0q-41 -25 -65 -42.5t-36 -30.5t-15 -22t-3 -16q0 -12 7.5 -20.5t27.5 -8.5q16 0 30 5.5t24 21.5l52 -49q-19 -23 -48 -36.5t-77 -13.5q-50 0 -84.5 21t-34.5 62q0 38 32.5 71.5t105.5 53.5l-1 4h-8q-38 0 -63 20t-25 57q0 8 1 17t2 13l3 15h-6q-31 -64 -70 -99
t-101 -35q-37 0 -63.5 13.5t-43.5 38t-25 58t-8 72.5q0 84 19.5 151.5t52.5 115.5t77.5 74t94.5 26q55 0 90.5 -30t40.5 -73h5l18 91h140l-83 -413h59zM240 103q27 0 49 14t38 34q17 20 29.5 47.5t18.5 56.5l16 80q8 37 -15 62t-67 25q-91 0 -115 -117l-14 -70
q-2 -11 -4 -28t-2 -29q0 -35 17.5 -55t48.5 -20z" />
    <glyph glyph-name="Cacute" unicode="&#x106;" horiz-adv-x="635" 
d="M306 -12q-56 0 -101.5 18t-78.5 53.5t-51 88.5t-18 124q0 92 27.5 172t75.5 139t113.5 93t141.5 34q94 0 152.5 -44.5t83.5 -125.5l-129 -54q-6 20 -15 37.5t-22.5 30t-33 20t-47.5 7.5q-70 0 -113.5 -48t-59.5 -127l-22 -110q-3 -15 -4 -27.5t-1 -22.5q0 -129 115 -129
q59 0 94.5 29t58.5 75l121 -55q-47 -91 -121.5 -134.5t-165.5 -43.5zM447 739l-84 46l119 190l112 -60z" />
    <glyph glyph-name="cacute" unicode="&#x107;" horiz-adv-x="494" 
d="M237 -12q-43 0 -80.5 12.5t-65.5 40t-44 70.5t-16 104q0 70 21 129t58.5 102t88.5 67t111 24q37 0 69.5 -9.5t57 -27.5t40.5 -43t21 -56l-118 -45q-9 31 -24.5 49.5t-53.5 18.5q-87 0 -109 -110l-18 -89q-5 -23 -5 -42q0 -37 18.5 -59.5t60.5 -22.5q20 0 35 6t26.5 17
t21.5 26t21 34l107 -50q-35 -73 -91.5 -109.5t-131.5 -36.5zM341 579l-84 46l119 190l112 -60z" />
    <glyph glyph-name="Ccircumflex" unicode="&#x108;" horiz-adv-x="635" 
d="M306 -12q-56 0 -101.5 18t-78.5 53.5t-51 88.5t-18 124q0 92 27.5 172t75.5 139t113.5 93t141.5 34q94 0 152.5 -44.5t83.5 -125.5l-129 -54q-6 20 -15 37.5t-22.5 30t-33 20t-47.5 7.5q-70 0 -113.5 -48t-59.5 -127l-22 -110q-3 -15 -4 -27.5t-1 -22.5q0 -129 115 -129
q59 0 94.5 29t58.5 75l121 -55q-47 -91 -121.5 -134.5t-165.5 -43.5zM522 954l100 -158l-75 -57l-99 115l-134 -115l-70 57l156 158h122z" />
    <glyph glyph-name="ccircumflex" unicode="&#x109;" horiz-adv-x="494" 
d="M237 -12q-43 0 -80.5 12.5t-65.5 40t-44 70.5t-16 104q0 70 21 129t58.5 102t88.5 67t111 24q37 0 69.5 -9.5t57 -27.5t40.5 -43t21 -56l-118 -45q-9 31 -24.5 49.5t-53.5 18.5q-87 0 -109 -110l-18 -89q-5 -23 -5 -42q0 -37 18.5 -59.5t60.5 -22.5q20 0 35 6t26.5 17
t21.5 26t21 34l107 -50q-35 -73 -91.5 -109.5t-131.5 -36.5zM416 794l100 -158l-75 -57l-99 115l-134 -115l-70 57l156 158h122z" />
    <glyph glyph-name="Cdotaccent" unicode="&#x10a;" horiz-adv-x="635" 
d="M306 -12q-56 0 -101.5 18t-78.5 53.5t-51 88.5t-18 124q0 92 27.5 172t75.5 139t113.5 93t141.5 34q94 0 152.5 -44.5t83.5 -125.5l-129 -54q-6 20 -15 37.5t-22.5 30t-33 20t-47.5 7.5q-70 0 -113.5 -48t-59.5 -127l-22 -110q-3 -15 -4 -27.5t-1 -22.5q0 -129 115 -129
q59 0 94.5 29t58.5 75l121 -55q-47 -91 -121.5 -134.5t-165.5 -43.5zM434 751q-43 0 -59.5 16.5t-16.5 42.5q0 6 1.5 13.5t5.5 28.5q5 29 25.5 48t68.5 19q43 0 59.5 -16.5t16.5 -42.5q0 -6 -1.5 -13.5t-5.5 -28.5q-5 -29 -25.5 -48t-68.5 -19z" />
    <glyph glyph-name="cdotaccent" unicode="&#x10b;" horiz-adv-x="494" 
d="M237 -12q-43 0 -80.5 12.5t-65.5 40t-44 70.5t-16 104q0 70 21 129t58.5 102t88.5 67t111 24q37 0 69.5 -9.5t57 -27.5t40.5 -43t21 -56l-118 -45q-9 31 -24.5 49.5t-53.5 18.5q-87 0 -109 -110l-18 -89q-5 -23 -5 -42q0 -37 18.5 -59.5t60.5 -22.5q20 0 35 6t26.5 17
t21.5 26t21 34l107 -50q-35 -73 -91.5 -109.5t-131.5 -36.5zM327 591q-43 0 -59.5 16.5t-16.5 42.5q0 6 1.5 13.5t5.5 28.5q5 29 25.5 48t68.5 19q43 0 59.5 -16.5t16.5 -42.5q0 -6 -1.5 -13.5t-5.5 -28.5q-5 -29 -25.5 -48t-68.5 -19z" />
    <glyph glyph-name="Ccaron" unicode="&#x10c;" horiz-adv-x="635" 
d="M306 -12q-56 0 -101.5 18t-78.5 53.5t-51 88.5t-18 124q0 92 27.5 172t75.5 139t113.5 93t141.5 34q94 0 152.5 -44.5t83.5 -125.5l-129 -54q-6 20 -15 37.5t-22.5 30t-33 20t-47.5 7.5q-70 0 -113.5 -48t-59.5 -127l-22 -110q-3 -15 -4 -27.5t-1 -22.5q0 -129 115 -129
q59 0 94.5 29t58.5 75l121 -55q-47 -91 -121.5 -134.5t-165.5 -43.5zM367 748l-101 158l74 57l96 -115l137 115l72 -57l-155 -158h-123z" />
    <glyph glyph-name="ccaron" unicode="&#x10d;" horiz-adv-x="494" 
d="M237 -12q-43 0 -80.5 12.5t-65.5 40t-44 70.5t-16 104q0 70 21 129t58.5 102t88.5 67t111 24q37 0 69.5 -9.5t57 -27.5t40.5 -43t21 -56l-118 -45q-9 31 -24.5 49.5t-53.5 18.5q-87 0 -109 -110l-18 -89q-5 -23 -5 -42q0 -37 18.5 -59.5t60.5 -22.5q20 0 35 6t26.5 17
t21.5 26t21 34l107 -50q-35 -73 -91.5 -109.5t-131.5 -36.5zM261 588l-101 158l74 57l96 -115l137 115l72 -57l-155 -158h-123z" />
    <glyph glyph-name="Dcaron" unicode="&#x10e;" horiz-adv-x="682" 
d="M162 698h224q125 0 196.5 -66t71.5 -195q0 -93 -24 -173t-70.5 -138.5t-115 -92t-156.5 -33.5h-266zM300 128q68 0 116 41t65 127l19 94q4 19 5.5 36t1.5 26q0 63 -30.5 90.5t-81.5 27.5h-113l-89 -442h107zM341 748l-101 158l74 57l96 -115l137 115l72 -57l-155 -158
h-123z" />
    <glyph glyph-name="dcaron" unicode="&#x10f;" horiz-adv-x="660" 
d="M430 0q-38 0 -63 20t-25 57q0 8 1 17t2 13l3 15h-6q-31 -64 -70 -99t-101 -35q-37 0 -63.5 13.5t-43.5 38t-25 58t-8 72.5q0 84 19.5 151.5t52.5 115.5t77.5 74t94.5 26q55 0 90.5 -30t40.5 -73h5l61 306h140l-126 -628h59l-22 -112h-93zM240 103q27 0 49 14t38 34
q17 20 29.5 47.5t18.5 56.5l16 80q8 40 -15 63.5t-67 23.5q-91 0 -115 -117l-14 -70q-2 -11 -4 -28t-2 -29q0 -35 17.5 -55t48.5 -20zM723 525h-97l50 215h156z" />
    <glyph glyph-name="Dcroat" unicode="&#x110;" horiz-adv-x="687" 
d="M88 298h-78l23 112h76l58 288h224q125 0 196.5 -66t71.5 -195q0 -93 -24 -173t-70.5 -138.5t-115 -92t-156.5 -33.5h-266zM305 128q69 0 116.5 41.5t64.5 126.5l19 94q4 18 5.5 35.5t1.5 26.5q0 63 -30.5 90.5t-81.5 27.5h-114l-32 -160h113l-23 -112h-113l-33 -170h107z
" />
    <glyph glyph-name="dcroat" unicode="&#x111;" horiz-adv-x="594" 
d="M430 0q-38 0 -63 20t-25 57q0 8 1 17t2 13l3 15h-6q-31 -64 -70 -99t-101 -35q-37 0 -63.5 13.5t-43.5 38t-25 58t-8 72.5q0 84 19.5 151.5t52.5 115.5t77.5 74t94.5 26q55 0 90.5 -30t40.5 -73h5l32 158h-151l19 96h151l10 52h140l-10 -52h58l-20 -96h-57l-97 -480h59
l-22 -112h-93zM240 103q27 0 49 14t38 34q17 20 29.5 47.5t18.5 56.5l16 80q8 40 -15 63.5t-67 23.5q-91 0 -115 -117l-14 -70q-2 -11 -4 -28t-2 -29q0 -35 17.5 -55t48.5 -20z" />
    <glyph glyph-name="Emacron" unicode="&#x112;" horiz-adv-x="578" 
d="M22 0l140 698h449l-26 -128h-303l-31 -153h268l-26 -128h-268l-32 -161h314l-26 -128h-459zM284 887h278l-20 -102h-278z" />
    <glyph glyph-name="emacron" unicode="&#x113;" horiz-adv-x="515" 
d="M253 -12q-112 0 -167 60.5t-55 165.5q0 63 20 121.5t57 103t90 71.5t118 27q30 0 63 -7t60.5 -23.5t46 -44.5t18.5 -71q0 -41 -19 -73.5t-59 -56t-103 -37t-151 -16.5q-2 -9 -2 -14v-9q0 -38 20.5 -61t72.5 -23q34 0 63.5 14.5t64.5 58.5l86 -68q-49 -65 -102.5 -91.5
t-121.5 -26.5zM308 430q-45 0 -76.5 -29.5t-40.5 -80.5l-4 -23q56 3 91.5 10t55.5 17.5t27 23.5t7 29q0 17 -6 27.5t-15 16t-19.5 7.5t-19.5 2zM221 727h278l-20 -102h-278z" />
    <glyph glyph-name="Ebreve" unicode="&#x114;" horiz-adv-x="578" 
d="M22 0l140 698h449l-26 -128h-303l-31 -153h268l-26 -128h-268l-32 -161h314l-26 -128h-459zM398 739q-42 0 -71.5 15t-49.5 39t-31.5 54.5t-17.5 61.5l80 42l18 -39q16 -34 32 -53t48 -19q27 0 48.5 18.5t49.5 55.5l28 37l83 -46q-18 -32 -39 -62t-47 -53t-58 -37
t-73 -14z" />
    <glyph glyph-name="ebreve" unicode="&#x115;" horiz-adv-x="515" 
d="M253 -12q-112 0 -167 60.5t-55 165.5q0 63 20 121.5t57 103t90 71.5t118 27q30 0 63 -7t60.5 -23.5t46 -44.5t18.5 -71q0 -41 -19 -73.5t-59 -56t-103 -37t-151 -16.5q-2 -9 -2 -14v-9q0 -38 20.5 -61t72.5 -23q34 0 63.5 14.5t64.5 58.5l86 -68q-49 -65 -102.5 -91.5
t-121.5 -26.5zM308 430q-45 0 -76.5 -29.5t-40.5 -80.5l-4 -23q56 3 91.5 10t55.5 17.5t27 23.5t7 29q0 17 -6 27.5t-15 16t-19.5 7.5t-19.5 2zM335 579q-42 0 -71.5 15t-49.5 39t-31.5 54.5t-17.5 61.5l80 42l18 -39q16 -34 32 -53t48 -19q27 0 48.5 18.5t49.5 55.5l28 37
l83 -46q-18 -32 -39 -62t-47 -53t-58 -37t-73 -14z" />
    <glyph glyph-name="Edotaccent" unicode="&#x116;" horiz-adv-x="578" 
d="M22 0l140 698h449l-26 -128h-303l-31 -153h268l-26 -128h-268l-32 -161h314l-26 -128h-459zM401 751q-43 0 -59.5 16.5t-16.5 42.5q0 6 1.5 13.5t5.5 28.5q5 29 25.5 48t68.5 19q43 0 59.5 -16.5t16.5 -42.5q0 -6 -1.5 -13.5t-5.5 -28.5q-5 -29 -25.5 -48t-68.5 -19z" />
    <glyph glyph-name="edotaccent" unicode="&#x117;" horiz-adv-x="515" 
d="M253 -12q-112 0 -167 60.5t-55 165.5q0 63 20 121.5t57 103t90 71.5t118 27q30 0 63 -7t60.5 -23.5t46 -44.5t18.5 -71q0 -41 -19 -73.5t-59 -56t-103 -37t-151 -16.5q-2 -9 -2 -14v-9q0 -38 20.5 -61t72.5 -23q34 0 63.5 14.5t64.5 58.5l86 -68q-49 -65 -102.5 -91.5
t-121.5 -26.5zM308 430q-45 0 -76.5 -29.5t-40.5 -80.5l-4 -23q56 3 91.5 10t55.5 17.5t27 23.5t7 29q0 17 -6 27.5t-15 16t-19.5 7.5t-19.5 2zM337 591q-43 0 -59.5 16.5t-16.5 42.5q0 6 1.5 13.5t5.5 28.5q5 29 25.5 48t68.5 19q43 0 59.5 -16.5t16.5 -42.5
q0 -6 -1.5 -13.5t-5.5 -28.5q-5 -29 -25.5 -48t-68.5 -19z" />
    <glyph glyph-name="Eogonek" unicode="&#x118;" horiz-adv-x="578" 
d="M162 698h449l-26 -128h-303l-31 -153h268l-26 -128h-268l-32 -161h314l-26 -128q-41 -25 -65 -42.5t-36 -30.5t-15 -22t-3 -16q0 -12 7.5 -20.5t27.5 -8.5q16 0 30 5.5t24 21.5l52 -49q-19 -23 -48 -36.5t-77 -13.5q-50 0 -84.5 21t-34.5 62q0 38 32.5 71.5t105.5 53.5
l-1 4h-374z" />
    <glyph glyph-name="eogonek" unicode="&#x119;" horiz-adv-x="515" 
d="M234 -212q-50 0 -84.5 21t-34.5 62q0 35 29.5 66t89.5 48l-1 4q-103 5 -152.5 66t-49.5 159q0 63 20 121.5t57 103t90 71.5t118 27q30 0 63 -7t60.5 -23.5t46 -44.5t18.5 -71q0 -41 -19 -73.5t-59 -56t-103 -37t-151 -16.5q-2 -9 -2 -14v-9q0 -38 20.5 -61t72.5 -23
q34 0 63.5 14.5t64.5 58.5l86 -68q-20 -27 -38.5 -44t-36 -29t-34 -20t-33.5 -17q-41 -22 -64 -39t-35 -30t-15 -22.5t-3 -15.5q0 -12 7.5 -20.5t27.5 -8.5q16 0 30 5.5t24 21.5l52 -49q-19 -23 -48 -36.5t-77 -13.5zM308 430q-45 0 -76.5 -29.5t-40.5 -80.5l-4 -23
q56 3 91.5 10t55.5 17.5t27 23.5t7 29q0 17 -6 27.5t-15 16t-19.5 7.5t-19.5 2z" />
    <glyph glyph-name="Ecaron" unicode="&#x11a;" horiz-adv-x="578" 
d="M22 0l140 698h449l-26 -128h-303l-31 -153h268l-26 -128h-268l-32 -161h314l-26 -128h-459zM334 748l-101 158l74 57l96 -115l137 115l72 -57l-155 -158h-123z" />
    <glyph glyph-name="ecaron" unicode="&#x11b;" horiz-adv-x="515" 
d="M253 -12q-112 0 -167 60.5t-55 165.5q0 63 20 121.5t57 103t90 71.5t118 27q30 0 63 -7t60.5 -23.5t46 -44.5t18.5 -71q0 -41 -19 -73.5t-59 -56t-103 -37t-151 -16.5q-2 -9 -2 -14v-9q0 -38 20.5 -61t72.5 -23q34 0 63.5 14.5t64.5 58.5l86 -68q-49 -65 -102.5 -91.5
t-121.5 -26.5zM308 430q-45 0 -76.5 -29.5t-40.5 -80.5l-4 -23q56 3 91.5 10t55.5 17.5t27 23.5t7 29q0 17 -6 27.5t-15 16t-19.5 7.5t-19.5 2zM271 588l-101 158l74 57l96 -115l137 115l72 -57l-155 -158h-123z" />
    <glyph glyph-name="Gcircumflex" unicode="&#x11c;" horiz-adv-x="700" 
d="M482 111h-8q-26 -51 -73 -87t-118 -36q-50 0 -91.5 17.5t-71.5 52.5t-46.5 87.5t-16.5 122.5q0 94 26.5 175t75 140.5t116 93t150.5 33.5q46 0 87 -10.5t73.5 -31.5t56 -52t35.5 -71l-121 -64q-12 49 -48.5 74.5t-90.5 25.5q-81 0 -125.5 -46.5t-60.5 -127.5l-22 -110
q-6 -30 -6 -56q0 -33 9 -56.5t25 -38.5t37 -22t44 -7q32 0 60.5 8.5t51 24t37.5 36t20 44.5l7 34h-126l24 122h264l-77 -386h-119zM533 954l100 -158l-75 -57l-99 115l-134 -115l-70 57l156 158h122z" />
    <glyph glyph-name="gcircumflex" unicode="&#x11d;" horiz-adv-x="540" 
d="M401 794l100 -158l-75 -57l-99 115l-134 -115l-70 57l156 158h122zM497 -22q0 -34 -13.5 -68t-48 -61t-93 -44t-149.5 -17q-66 0 -109 9t-68.5 25t-35.5 37t-10 45t9 42t24.5 31t36.5 21.5t45 14.5v7q-29 6 -44 26.5t-15 49.5q0 22 9.5 39.5t25.5 31t37 22t43 13.5l1 7
q-37 19 -56.5 52t-19.5 79q0 36 14 71.5t44 63.5t76 45t111 17q23 0 44 -3.5t39 -8.5h185l-19 -98h-65q10 -20 10 -46q0 -36 -14 -71.5t-44 -63.5t-76.5 -45t-110.5 -17q-47 0 -81 10q-17 -7 -27.5 -20t-10.5 -29q0 -33 53 -33h129q174 0 174 -134zM272 280q42 0 65 18.5
t30 53.5q3 15 3.5 22t0.5 11q0 56 -73 56q-42 0 -65 -18.5t-30 -53.5q-3 -15 -3.5 -22t-0.5 -11q0 -56 73 -56zM357 -52q0 21 -15 32t-56 11h-173q-15 -11 -21 -26.5t-6 -28.5q0 -24 20 -38t70 -14h65q66 0 91 19t25 45z" />
    <glyph glyph-name="Gbreve" unicode="&#x11e;" horiz-adv-x="700" 
d="M482 111h-8q-26 -51 -73 -87t-118 -36q-50 0 -91.5 17.5t-71.5 52.5t-46.5 87.5t-16.5 122.5q0 94 26.5 175t75 140.5t116 93t150.5 33.5q46 0 87 -10.5t73.5 -31.5t56 -52t35.5 -71l-121 -64q-12 49 -48.5 74.5t-90.5 25.5q-81 0 -125.5 -46.5t-60.5 -127.5l-22 -110
q-6 -30 -6 -56q0 -33 9 -56.5t25 -38.5t37 -22t44 -7q32 0 60.5 8.5t51 24t37.5 36t20 44.5l7 34h-126l24 122h264l-77 -386h-119zM442 739q-42 0 -71.5 15t-49.5 39t-31.5 54.5t-17.5 61.5l80 42l18 -39q16 -34 32 -53t48 -19q27 0 48.5 18.5t49.5 55.5l28 37l83 -46
q-18 -32 -39 -62t-47 -53t-58 -37t-73 -14z" />
    <glyph glyph-name="gbreve" unicode="&#x11f;" horiz-adv-x="540" 
d="M310 579q-42 0 -71.5 15t-49.5 39t-31.5 54.5t-17.5 61.5l80 42l18 -39q16 -34 32 -53t48 -19q27 0 48.5 18.5t49.5 55.5l28 37l83 -46q-18 -32 -39 -62t-47 -53t-58 -37t-73 -14zM497 -22q0 -34 -13.5 -68t-48 -61t-93 -44t-149.5 -17q-66 0 -109 9t-68.5 25t-35.5 37
t-10 45t9 42t24.5 31t36.5 21.5t45 14.5v7q-29 6 -44 26.5t-15 49.5q0 22 9.5 39.5t25.5 31t37 22t43 13.5l1 7q-37 19 -56.5 52t-19.5 79q0 36 14 71.5t44 63.5t76 45t111 17q23 0 44 -3.5t39 -8.5h185l-19 -98h-65q10 -20 10 -46q0 -36 -14 -71.5t-44 -63.5t-76.5 -45
t-110.5 -17q-47 0 -81 10q-17 -7 -27.5 -20t-10.5 -29q0 -33 53 -33h129q174 0 174 -134zM272 280q42 0 65 18.5t30 53.5q3 15 3.5 22t0.5 11q0 56 -73 56q-42 0 -65 -18.5t-30 -53.5q-3 -15 -3.5 -22t-0.5 -11q0 -56 73 -56zM357 -52q0 21 -15 32t-56 11h-173
q-15 -11 -21 -26.5t-6 -28.5q0 -24 20 -38t70 -14h65q66 0 91 19t25 45z" />
    <glyph glyph-name="Gdotaccent" unicode="&#x120;" horiz-adv-x="700" 
d="M482 111h-8q-26 -51 -73 -87t-118 -36q-50 0 -91.5 17.5t-71.5 52.5t-46.5 87.5t-16.5 122.5q0 94 26.5 175t75 140.5t116 93t150.5 33.5q46 0 87 -10.5t73.5 -31.5t56 -52t35.5 -71l-121 -64q-12 49 -48.5 74.5t-90.5 25.5q-81 0 -125.5 -46.5t-60.5 -127.5l-22 -110
q-6 -30 -6 -56q0 -33 9 -56.5t25 -38.5t37 -22t44 -7q32 0 60.5 8.5t51 24t37.5 36t20 44.5l7 34h-126l24 122h264l-77 -386h-119zM445 751q-43 0 -59.5 16.5t-16.5 42.5q0 6 1.5 13.5t5.5 28.5q5 29 25.5 48t68.5 19q43 0 59.5 -16.5t16.5 -42.5q0 -6 -1.5 -13.5
t-5.5 -28.5q-5 -29 -25.5 -48t-68.5 -19z" />
    <glyph glyph-name="gdotaccent" unicode="&#x121;" horiz-adv-x="540" 
d="M497 -22q0 -34 -13.5 -68t-48 -61t-93 -44t-149.5 -17q-66 0 -109 9t-68.5 25t-35.5 37t-10 45t9 42t24.5 31t36.5 21.5t45 14.5v7q-29 6 -44 26.5t-15 49.5q0 22 9.5 39.5t25.5 31t37 22t43 13.5l1 7q-37 19 -56.5 52t-19.5 79q0 36 14 71.5t44 63.5t76 45t111 17
q23 0 44 -3.5t39 -8.5h185l-19 -98h-65q10 -20 10 -46q0 -36 -14 -71.5t-44 -63.5t-76.5 -45t-110.5 -17q-47 0 -81 10q-17 -7 -27.5 -20t-10.5 -29q0 -33 53 -33h129q174 0 174 -134zM272 280q42 0 65 18.5t30 53.5q3 15 3.5 22t0.5 11q0 56 -73 56q-42 0 -65 -18.5
t-30 -53.5q-3 -15 -3.5 -22t-0.5 -11q0 -56 73 -56zM357 -52q0 21 -15 32t-56 11h-173q-15 -11 -21 -26.5t-6 -28.5q0 -24 20 -38t70 -14h65q66 0 91 19t25 45zM312 591q-43 0 -59.5 16.5t-16.5 42.5q0 6 1.5 13.5t5.5 28.5q5 29 25.5 48t68.5 19q43 0 59.5 -16.5
t16.5 -42.5q0 -6 -1.5 -13.5t-5.5 -28.5q-5 -29 -25.5 -48t-68.5 -19z" />
    <glyph glyph-name="Gcommaaccent" unicode="&#x122;" horiz-adv-x="700" 
d="M482 111h-8q-26 -51 -73 -87t-118 -36q-50 0 -91.5 17.5t-71.5 52.5t-46.5 87.5t-16.5 122.5q0 94 26.5 175t75 140.5t116 93t150.5 33.5q46 0 87 -10.5t73.5 -31.5t56 -52t35.5 -71l-121 -64q-12 49 -48.5 74.5t-90.5 25.5q-81 0 -125.5 -46.5t-60.5 -127.5l-22 -110
q-6 -30 -6 -56q0 -33 9 -56.5t25 -38.5t37 -22t44 -7q32 0 60.5 8.5t51 24t37.5 36t20 44.5l7 34h-126l24 122h264l-77 -386h-119zM278 -42q63 0 63 -51q0 -6 -0.5 -11t-2.5 -16q-5 -23 -14.5 -45.5t-22 -42.5t-28 -37.5t-31.5 -29.5h-83q29 22 47.5 45.5t32.5 53.5
q-23 2 -31 14.5t-8 30.5q0 7 4 27q6 30 25.5 46t48.5 16z" />
    <glyph glyph-name="gcommaaccent" unicode="&#x123;" horiz-adv-x="540" 
d="M497 -22q0 -34 -13.5 -68t-48 -61t-93 -44t-149.5 -17q-66 0 -109 9t-68.5 25t-35.5 37t-10 45t9 42t24.5 31t36.5 21.5t45 14.5v7q-29 6 -44 26.5t-15 49.5q0 22 9.5 39.5t25.5 31t37 22t43 13.5l1 7q-37 19 -56.5 52t-19.5 79q0 36 14 71.5t44 63.5t76 45t111 17
q23 0 44 -3.5t39 -8.5h185l-19 -98h-65q10 -20 10 -46q0 -36 -14 -71.5t-44 -63.5t-76.5 -45t-110.5 -17q-47 0 -81 10q-17 -7 -27.5 -20t-10.5 -29q0 -33 53 -33h129q174 0 174 -134zM272 280q42 0 65 18.5t30 53.5q3 15 3.5 22t0.5 11q0 56 -73 56q-42 0 -65 -18.5
t-30 -53.5q-3 -15 -3.5 -22t-0.5 -11q0 -56 73 -56zM357 -52q0 21 -15 32t-56 11h-173q-15 -11 -21 -26.5t-6 -28.5q0 -24 20 -38t70 -14h65q66 0 91 19t25 45zM307 576q-63 0 -63 51q0 6 0.5 11t2.5 16q4 22 14 45t22.5 43t28 37.5t31.5 29.5h83q-29 -22 -47.5 -45.5
t-32.5 -53.5q23 -2 31 -14.5t8 -30.5q0 -7 -4 -27q-6 -30 -25.5 -46t-48.5 -16z" />
    <glyph glyph-name="Hcircumflex" unicode="&#x124;" horiz-adv-x="700" 
d="M485 289h-260l-58 -289h-145l140 698h145l-56 -281h260l56 281h145l-140 -698h-145zM528 954l100 -158l-75 -57l-99 115l-134 -115l-70 57l156 158h122z" />
    <glyph glyph-name="hcircumflex" unicode="&#x125;" horiz-adv-x="588" 
d="M162 740h140l-67 -337h6q30 63 71 98.5t103 35.5q61 0 93.5 -35.5t32.5 -100.5q0 -19 -2.5 -36.5t-6.5 -37.5l-43 -215h53l-22 -112h-91q-40 0 -62 20.5t-22 55.5q0 9 1 16.5t2 11.5l41 208q3 14 5 27.5t2 28.5q0 23 -12 37.5t-41 14.5q-26 0 -47 -14t-38 -34
q-18 -21 -31 -46.5t-19 -55.5l-54 -270h-140zM327 952l100 -158l-75 -57l-99 115l-134 -115l-70 57l156 158h122z" />
    <glyph glyph-name="Hbar" unicode="&#x126;" horiz-adv-x="710" 
d="M490 289h-260l-58 -289h-145l103 513h-72l21 107h72l16 78h145l-16 -78h260l16 78h145l-16 -78h72l-21 -107h-72l-103 -513h-145zM516 417l19 96h-260l-19 -96h260z" />
    <glyph glyph-name="hbar" unicode="&#x127;" horiz-adv-x="588" 
d="M132 592h-69l20 96h68l11 52h140l-11 -52h141l-20 -96h-140l-37 -189h6q30 63 71 98.5t103 35.5q61 0 93.5 -35.5t32.5 -100.5q0 -19 -2.5 -36.5t-6.5 -37.5l-43 -215h53l-22 -112h-91q-40 0 -62 20.5t-22 55.5q0 9 1 16.5t2 11.5l41 208q3 14 5 27.5t2 28.5
q0 23 -12 37.5t-41 14.5q-26 0 -47 -14t-38 -34q-18 -21 -31 -46.5t-19 -55.5l-54 -270h-140z" />
    <glyph glyph-name="Itilde" unicode="&#x128;" horiz-adv-x="415" 
d="M-4 0l24 118h86l93 462h-86l23 118h318l-24 -118h-86l-93 -462h86l-23 -118h-318zM389 761q-22 0 -39 6t-37 15q-19 9 -35.5 15.5t-36.5 6.5q-17 0 -29 -6t-29 -19l-43 69q23 29 51.5 45.5t63.5 16.5q22 0 39 -6t37 -15q19 -9 35.5 -15.5t36.5 -6.5q17 0 29 6t29 19
l43 -69q-23 -29 -51.5 -45.5t-63.5 -16.5z" />
    <glyph glyph-name="itilde" unicode="&#x129;" horiz-adv-x="281" 
d="M122 0q-41 0 -65.5 22t-24.5 58q0 10 3 25l84 420h140l-83 -413h59l-22 -112h-91zM284 601q-22 0 -39 6t-37 15q-19 9 -35.5 15.5t-36.5 6.5q-17 0 -29 -6t-29 -19l-43 69q23 29 51.5 45.5t63.5 16.5q22 0 39 -6t37 -15q19 -9 35.5 -15.5t36.5 -6.5q17 0 29 6t29 19
l43 -69q-23 -29 -51.5 -45.5t-63.5 -16.5z" />
    <glyph glyph-name="Imacron" unicode="&#x12a;" horiz-adv-x="415" 
d="M-4 0l24 118h86l93 462h-86l23 118h318l-24 -118h-86l-93 -462h86l-23 -118h-318zM193 887h278l-20 -102h-278z" />
    <glyph glyph-name="imacron" unicode="&#x12b;" horiz-adv-x="281" 
d="M122 0q-41 0 -65.5 22t-24.5 58q0 10 3 25l84 420h140l-83 -413h59l-22 -112h-91zM88 727h278l-20 -102h-278z" />
    <glyph glyph-name="Ibreve" unicode="&#x12c;" horiz-adv-x="415" 
d="M-4 0l24 118h86l93 462h-86l23 118h318l-24 -118h-86l-93 -462h86l-23 -118h-318zM307 739q-42 0 -71.5 15t-49.5 39t-31.5 54.5t-17.5 61.5l80 42l18 -39q16 -34 32 -53t48 -19q27 0 48.5 18.5t49.5 55.5l28 37l83 -46q-18 -32 -39 -62t-47 -53t-58 -37t-73 -14z" />
    <glyph glyph-name="ibreve" unicode="&#x12d;" horiz-adv-x="281" 
d="M122 0q-41 0 -65.5 22t-24.5 58q0 10 3 25l84 420h140l-83 -413h59l-22 -112h-91zM202 579q-42 0 -71.5 15t-49.5 39t-31.5 54.5t-17.5 61.5l80 42l18 -39q16 -34 32 -53t48 -19q27 0 48.5 18.5t49.5 55.5l28 37l83 -46q-18 -32 -39 -62t-47 -53t-58 -37t-73 -14z" />
    <glyph glyph-name="Iogonek" unicode="&#x12e;" horiz-adv-x="415" 
d="M20 118h86l93 462h-86l23 118h318l-24 -118h-86l-93 -462h86l-23 -118q-41 -25 -65 -42.5t-36 -30.5t-15 -22t-3 -16q0 -12 7.5 -20.5t27.5 -8.5q16 0 30 5.5t24 21.5l52 -49q-19 -23 -48 -36.5t-77 -13.5q-50 0 -84.5 21t-34.5 62q0 38 32.5 71.5t105.5 53.5l-1 4h-233z
" />
    <glyph glyph-name="iogonek" unicode="&#x12f;" horiz-adv-x="281" 
d="M213 0q-41 -25 -65 -42.5t-36 -30.5t-15 -22t-3 -16q0 -12 7.5 -20.5t27.5 -8.5q16 0 30 5.5t24 21.5l52 -49q-19 -23 -48 -36.5t-77 -13.5q-50 0 -84.5 21t-34.5 62q0 38 33.5 71.5t106.5 53.5l-1 4h-8q-41 0 -65.5 22t-24.5 58q0 10 3 25l84 420h140l-83 -413h59z
M202 583q-37 0 -54.5 14t-17.5 38q0 9 2 20t4 20q3 13 9 26t17 23t28 16.5t42 6.5q37 0 54.5 -14t17.5 -38q0 -9 -2 -20t-4 -20q-3 -13 -9 -26t-17 -23t-28 -16.5t-42 -6.5z" />
    <glyph glyph-name="Idotaccent" unicode="&#x130;" horiz-adv-x="415" 
d="M-4 0l24 118h86l93 462h-86l23 118h318l-24 -118h-86l-93 -462h86l-23 -118h-318zM310 751q-43 0 -59.5 16.5t-16.5 42.5q0 6 1.5 13.5t5.5 28.5q5 29 25.5 48t68.5 19q43 0 59.5 -16.5t16.5 -42.5q0 -6 -1.5 -13.5t-5.5 -28.5q-5 -29 -25.5 -48t-68.5 -19z" />
    <glyph glyph-name="dotlessi" unicode="&#x131;" horiz-adv-x="281" 
d="M122 0q-41 0 -65.5 22t-24.5 58q0 10 3 25l84 420h140l-83 -413h59l-22 -112h-91z" />
    <glyph glyph-name="IJ" unicode="&#x132;" horiz-adv-x="642" 
d="M654 698l-97 -486q-21 -104 -91.5 -163.5t-181.5 -59.5q-49 0 -89 13.5t-68.5 39t-45 61.5t-17.5 80l138 28q-1 -45 23.5 -68.5t67.5 -23.5q47 0 78.5 24t42.5 78l72 360h-89l24 117h233zM161 698h144l-78 -390h-145z" />
    <glyph glyph-name="ij" unicode="&#x133;" horiz-adv-x="560" 
d="M202 583q-37 0 -54.5 14t-17.5 38q0 9 2 20t4 20q3 13 9 26t17 23t28 16.5t42 6.5q37 0 54.5 -14t17.5 -38q0 -9 -2 -20t-4 -20q-3 -13 -9 -26t-17 -23t-28 -16.5t-42 -6.5zM122 0q-41 0 -65.5 22t-24.5 58q0 10 3 25l84 420h140l-83 -413h59l-22 -112h-91zM407 525h140
l-119 -586q-14 -69 -51.5 -104t-110.5 -35h-79l22 112h75zM490 583q-37 0 -54.5 14t-17.5 38q0 9 2 20t4 20q3 13 9 26t17 23t28 16.5t42 6.5q37 0 54.5 -14t17.5 -38q0 -9 -2 -20t-4 -20q-3 -13 -9 -26t-17 -23t-28 -16.5t-42 -6.5z" />
    <glyph glyph-name="Jcircumflex" unicode="&#x134;" horiz-adv-x="536" 
d="M549 698l-102 -508q-18 -91 -75.5 -146t-156.5 -55q-51 0 -88.5 15t-63.5 41t-40 60.5t-18 74.5l139 28q4 -42 18.5 -67.5t52.5 -25.5q31 0 55.5 21t34.5 69l75 375h-203l24 118h348zM485 954l100 -158l-75 -57l-99 115l-134 -115l-70 57l156 158h122z" />
    <glyph glyph-name="jcircumflex" unicode="&#x135;" horiz-adv-x="276" 
d="M-75 -88h75l123 613h140l-119 -586q-14 -69 -51.5 -104t-110.5 -35h-79zM300 794l100 -158l-75 -57l-99 115l-134 -115l-70 57l156 158h122z" />
    <glyph glyph-name="Kcommaaccent" unicode="&#x136;" horiz-adv-x="657" 
d="M319 299l-116 -120l-36 -179h-145l140 698h145l-67 -334h7l110 131l188 203h176l-288 -300l163 -398h-160zM286 -42q63 0 63 -51q0 -6 -0.5 -11t-2.5 -16q-5 -23 -14.5 -45.5t-22 -42.5t-28 -37.5t-31.5 -29.5h-83q29 22 47.5 45.5t32.5 53.5q-23 2 -31 14.5t-8 30.5
q0 7 4 27q6 30 25.5 46t48.5 16z" />
    <glyph glyph-name="kcommaaccent" unicode="&#x137;" horiz-adv-x="550" 
d="M162 740h140l-87 -435h7l72 90l126 130h163l-213 -213l72 -200h61l-24 -112h-75q-74 0 -99 79l-44 137l-79 -74l-28 -142h-140zM241 -42q63 0 63 -51q0 -6 -0.5 -11t-2.5 -16q-5 -23 -14.5 -45.5t-22 -42.5t-28 -37.5t-31.5 -29.5h-83q29 22 47.5 45.5t32.5 53.5
q-23 2 -31 14.5t-8 30.5q0 7 4 27q6 30 25.5 46t48.5 16z" />
    <glyph glyph-name="kgreenlandic" unicode="&#x138;" horiz-adv-x="555" 
d="M119 525h140l-44 -220h7l78 89l130 131h163l-217 -214l66 -199h61l-24 -112h-75q-72 0 -98 80l-43 136l-81 -74l-28 -142h-140z" />
    <glyph glyph-name="Lacute" unicode="&#x139;" horiz-adv-x="510" 
d="M22 0l140 698h145l-114 -570h256l-26 -128h-401zM263 739l-84 46l119 190l112 -60z" />
    <glyph glyph-name="lacute" unicode="&#x13a;" horiz-adv-x="281" 
d="M122 0q-41 0 -65.5 22t-24.5 58q0 10 3 25l127 635h140l-126 -628h62l-22 -112h-94zM263 779l-84 46l119 190l112 -60z" />
    <glyph glyph-name="Lcommaaccent" unicode="&#x13b;" horiz-adv-x="510" 
d="M22 0l140 698h145l-114 -570h256l-26 -128h-401zM211 -42q63 0 63 -51q0 -6 -0.5 -11t-2.5 -16q-5 -23 -14.5 -45.5t-22 -42.5t-28 -37.5t-31.5 -29.5h-83q29 22 47.5 45.5t32.5 53.5q-23 2 -31 14.5t-8 30.5q0 7 4 27q6 30 25.5 46t48.5 16z" />
    <glyph glyph-name="lcommaaccent" unicode="&#x13c;" horiz-adv-x="281" 
d="M122 0q-41 0 -65.5 22t-24.5 58q0 10 3 25l127 635h140l-126 -628h62l-22 -112h-94zM118 -42q63 0 63 -51q0 -6 -0.5 -11t-2.5 -16q-5 -23 -14.5 -45.5t-22 -42.5t-28 -37.5t-31.5 -29.5h-83q29 22 47.5 45.5t32.5 53.5q-23 2 -31 14.5t-8 30.5q0 7 4 27q6 30 25.5 46
t48.5 16z" />
    <glyph glyph-name="Lcaron" unicode="&#x13d;" horiz-adv-x="510" 
d="M22 0l140 698h145l-114 -570h256l-26 -128h-401zM434 525h-97l50 215h156z" />
    <glyph glyph-name="lcaron" unicode="&#x13e;" horiz-adv-x="350" 
d="M122 0q-41 0 -65.5 22t-24.5 58q0 10 3 25l127 635h140l-126 -628h62l-22 -112h-94zM413 525h-97l50 215h156z" />
    <glyph glyph-name="Ldot" unicode="&#x13f;" horiz-adv-x="511" 
d="M22 0l140 698h145l-114 -570h256l-26 -128h-401zM418 310q-43 0 -59.5 16.5t-16.5 42.5q0 6 1.5 13.5t5.5 28.5q5 29 25.5 48t68.5 19q43 0 59.5 -16.5t16.5 -42.5q0 -6 -1.5 -13.5t-5.5 -28.5q-5 -29 -25.5 -48t-68.5 -19z" />
    <glyph glyph-name="ldot" unicode="&#x140;" horiz-adv-x="421" 
d="M122 0q-41 0 -65.5 22t-24.5 58q0 10 3 25l127 635h140l-126 -628h62l-22 -112h-94zM353 273q-43 0 -59.5 16.5t-16.5 42.5q0 6 1.5 13.5t5.5 28.5q5 29 25.5 48t68.5 19q43 0 59.5 -16.5t16.5 -42.5q0 -6 -1.5 -13.5t-5.5 -28.5q-5 -29 -25.5 -48t-68.5 -19z" />
    <glyph glyph-name="Lslash" unicode="&#x141;" horiz-adv-x="521" 
d="M429 0h-401l49 246l-80 -23l24 111l78 23l69 341h145l-59 -295l170 51l-22 -113l-171 -50l-32 -163h256z" />
    <glyph glyph-name="lslash" unicode="&#x142;" horiz-adv-x="294" 
d="M224 0h-97q-41 0 -65 22t-24 58q0 11 3 25l38 191l-78 -26l21 107l78 26l68 337h141l-58 -286l98 33l-20 -107l-99 -33l-46 -235h62z" />
    <glyph glyph-name="Nacute" unicode="&#x143;" horiz-adv-x="700" 
d="M302 336l-42 139h-6l-95 -475h-137l140 698h157l113 -336l42 -139h6l95 475h137l-140 -698h-157zM464 739l-84 46l119 190l112 -60z" />
    <glyph glyph-name="nacute" unicode="&#x144;" horiz-adv-x="588" 
d="M14 0l105 525h140l-24 -122h6q30 63 71 98.5t103 35.5q61 0 93.5 -35.5t32.5 -100.5q0 -19 -2.5 -36.5t-6.5 -37.5l-43 -215h53l-22 -112h-91q-40 0 -62 20.5t-22 55.5q0 9 1 16.5t2 11.5l41 208q3 14 5 27.5t2 28.5q0 23 -12 37.5t-41 14.5q-26 0 -47 -14t-38 -34
q-18 -21 -31 -46.5t-19 -55.5l-54 -270h-140zM376 579l-84 46l119 190l112 -60z" />
    <glyph glyph-name="Ncommaaccent" unicode="&#x145;" horiz-adv-x="700" 
d="M302 336l-42 139h-6l-95 -475h-137l140 698h157l113 -336l42 -139h6l95 475h137l-140 -698h-157zM286 -42q63 0 63 -51q0 -6 -0.5 -11t-2.5 -16q-5 -23 -14.5 -45.5t-22 -42.5t-28 -37.5t-31.5 -29.5h-83q29 22 47.5 45.5t32.5 53.5q-23 2 -31 14.5t-8 30.5q0 7 4 27
q6 30 25.5 46t48.5 16z" />
    <glyph glyph-name="ncommaaccent" unicode="&#x146;" horiz-adv-x="588" 
d="M14 0l105 525h140l-24 -122h6q30 63 71 98.5t103 35.5q61 0 93.5 -35.5t32.5 -100.5q0 -19 -2.5 -36.5t-6.5 -37.5l-43 -215h53l-22 -112h-91q-40 0 -62 20.5t-22 55.5q0 9 1 16.5t2 11.5l41 208q3 14 5 27.5t2 28.5q0 23 -12 37.5t-41 14.5q-26 0 -47 -14t-38 -34
q-18 -21 -31 -46.5t-19 -55.5l-54 -270h-140zM252 -42q63 0 63 -51q0 -6 -0.5 -11t-2.5 -16q-5 -23 -14.5 -45.5t-22 -42.5t-28 -37.5t-31.5 -29.5h-83q29 22 47.5 45.5t32.5 53.5q-23 2 -31 14.5t-8 30.5q0 7 4 27q6 30 25.5 46t48.5 16z" />
    <glyph glyph-name="Ncaron" unicode="&#x147;" horiz-adv-x="700" 
d="M302 336l-42 139h-6l-95 -475h-137l140 698h157l113 -336l42 -139h6l95 475h137l-140 -698h-157zM384 748l-101 158l74 57l96 -115l137 115l72 -57l-155 -158h-123z" />
    <glyph glyph-name="ncaron" unicode="&#x148;" horiz-adv-x="588" 
d="M14 0l105 525h140l-24 -122h6q30 63 71 98.5t103 35.5q61 0 93.5 -35.5t32.5 -100.5q0 -19 -2.5 -36.5t-6.5 -37.5l-43 -215h53l-22 -112h-91q-40 0 -62 20.5t-22 55.5q0 9 1 16.5t2 11.5l41 208q3 14 5 27.5t2 28.5q0 23 -12 37.5t-41 14.5q-26 0 -47 -14t-38 -34
q-18 -21 -31 -46.5t-19 -55.5l-54 -270h-140zM296 588l-101 158l74 57l96 -115l137 115l72 -57l-155 -158h-123z" />
    <glyph glyph-name="napostrophe" unicode="&#x149;" horiz-adv-x="874" 
d="M237 750q42 0 58.5 -19.5t16.5 -41.5q0 -9 -2 -20.5t-4 -22.5q-5 -23 -17 -49t-30.5 -52t-42.5 -51t-51 -44h-99q42 32 70 62t49 68q-28 6 -39.5 22t-11.5 33q0 8 2.5 20.5t4.5 23.5q6 30 30 50.5t66 20.5zM300 0l105 525h140l-24 -122h6q30 63 71 98.5t103 35.5
q61 0 93.5 -35.5t32.5 -100.5q0 -19 -2.5 -36.5t-6.5 -37.5l-43 -215h53l-22 -112h-91q-40 0 -62 20.5t-22 55.5q0 9 1 16.5t2 11.5l41 208q3 14 5 27.5t2 28.5q0 23 -12 37.5t-41 14.5q-26 0 -47 -14t-38 -34q-18 -21 -31 -46.5t-19 -55.5l-54 -270h-140z" />
    <glyph glyph-name="Eng" unicode="&#x14a;" horiz-adv-x="700" 
d="M22 0l140 698h157l113 -336l42 -139h6l95 475h137l-151 -753q-15 -75 -56.5 -110t-110.5 -35h-76l22 111h81l18 89h-24l-113 336l-42 139h-6l-95 -475h-137z" />
    <glyph glyph-name="eng" unicode="&#x14b;" horiz-adv-x="586" 
d="M310 -89l80 406q2 13 4 23.5t2 20.5q0 59 -52 59q-26 0 -49 -15t-39 -35q-14 -16 -27 -38.5t-18 -48.5l-57 -283h-140l105 525h140l-24 -122h6q29 60 71 97t102 37q66 0 96.5 -36t30.5 -102q0 -17 -2.5 -34.5t-6.5 -37.5l-78 -388q-14 -69 -52 -104t-110 -35h-80l22 111
h76z" />
    <glyph glyph-name="Omacron" unicode="&#x14c;" horiz-adv-x="695" 
d="M308 -12q-50 0 -95.5 16.5t-80 51t-55 88t-20.5 127.5q0 90 27 170t75 140t114 94.5t144 34.5q50 0 95.5 -16.5t80 -51t55 -88t20.5 -127.5q0 -90 -27 -170t-75 -140t-114 -94.5t-144 -34.5zM318 117q70 0 115 47t62 132l21 105q3 16 4 28.5t1 23.5q0 128 -114 128
q-70 0 -115 -47t-62 -132l-21 -105q-3 -15 -4 -28t-1 -24q0 -128 114 -128zM337 887h278l-20 -102h-278z" />
    <glyph glyph-name="omacron" unicode="&#x14d;" horiz-adv-x="542" 
d="M240 -12q-97 0 -153 57.5t-56 161.5q0 71 20.5 131.5t56.5 104.5t85.5 69t108.5 25q97 0 153 -57.5t56 -161.5q0 -71 -20.5 -131.5t-56.5 -104.5t-86 -69t-108 -25zM245 101q82 0 105 115l19 94q1 5 2 13t1 18q0 38 -19 60.5t-56 22.5q-82 0 -105 -115l-19 -94
q-1 -5 -2 -13t-1 -18q0 -38 19 -60.5t56 -22.5zM215 727h278l-20 -102h-278z" />
    <glyph glyph-name="Obreve" unicode="&#x14e;" horiz-adv-x="695" 
d="M308 -12q-50 0 -95.5 16.5t-80 51t-55 88t-20.5 127.5q0 90 27 170t75 140t114 94.5t144 34.5q50 0 95.5 -16.5t80 -51t55 -88t20.5 -127.5q0 -90 -27 -170t-75 -140t-114 -94.5t-144 -34.5zM318 117q70 0 115 47t62 132l21 105q3 16 4 28.5t1 23.5q0 128 -114 128
q-70 0 -115 -47t-62 -132l-21 -105q-3 -15 -4 -28t-1 -24q0 -128 114 -128zM451 739q-42 0 -71.5 15t-49.5 39t-31.5 54.5t-17.5 61.5l80 42l18 -39q16 -34 32 -53t48 -19q27 0 48.5 18.5t49.5 55.5l28 37l83 -46q-18 -32 -39 -62t-47 -53t-58 -37t-73 -14z" />
    <glyph glyph-name="obreve" unicode="&#x14f;" horiz-adv-x="542" 
d="M240 -12q-97 0 -153 57.5t-56 161.5q0 71 20.5 131.5t56.5 104.5t85.5 69t108.5 25q97 0 153 -57.5t56 -161.5q0 -71 -20.5 -131.5t-56.5 -104.5t-86 -69t-108 -25zM245 101q82 0 105 115l19 94q1 5 2 13t1 18q0 38 -19 60.5t-56 22.5q-82 0 -105 -115l-19 -94
q-1 -5 -2 -13t-1 -18q0 -38 19 -60.5t56 -22.5zM329 579q-42 0 -71.5 15t-49.5 39t-31.5 54.5t-17.5 61.5l80 42l18 -39q16 -34 32 -53t48 -19q27 0 48.5 18.5t49.5 55.5l28 37l83 -46q-18 -32 -39 -62t-47 -53t-58 -37t-73 -14z" />
    <glyph glyph-name="Ohungarumlaut" unicode="&#x150;" horiz-adv-x="695" 
d="M308 -12q-50 0 -95.5 16.5t-80 51t-55 88t-20.5 127.5q0 90 27 170t75 140t114 94.5t144 34.5q50 0 95.5 -16.5t80 -51t55 -88t20.5 -127.5q0 -90 -27 -170t-75 -140t-114 -94.5t-144 -34.5zM318 117q70 0 115 47t62 132l21 105q3 16 4 28.5t1 23.5q0 128 -114 128
q-70 0 -115 -47t-62 -132l-21 -105q-3 -15 -4 -28t-1 -24q0 -128 114 -128zM366 740l-77 38l113 193l105 -56zM561 740l-76 38l113 193l105 -56z" />
    <glyph glyph-name="ohungarumlaut" unicode="&#x151;" horiz-adv-x="542" 
d="M240 -12q-97 0 -153 57.5t-56 161.5q0 71 20.5 131.5t56.5 104.5t85.5 69t108.5 25q97 0 153 -57.5t56 -161.5q0 -71 -20.5 -131.5t-56.5 -104.5t-86 -69t-108 -25zM245 101q82 0 105 115l19 94q1 5 2 13t1 18q0 38 -19 60.5t-56 22.5q-82 0 -105 -115l-19 -94
q-1 -5 -2 -13t-1 -18q0 -38 19 -60.5t56 -22.5zM244 580l-77 38l113 193l105 -56zM439 580l-76 38l113 193l105 -56z" />
    <glyph glyph-name="OE" unicode="&#x152;" horiz-adv-x="957" 
d="M405 0q-26 -6 -52.5 -9t-50.5 -3q-52 0 -97 17.5t-78 54t-51.5 92.5t-18.5 133q0 91 27.5 169t76.5 135t115 89t143 32q29 0 63.5 -3t64.5 -9h443l-26 -128h-303l-31 -153h268l-26 -128h-268l-32 -161h314l-26 -128h-455zM334 117q19 0 44.5 3t48.5 10l88 437
q-20 6 -49 10t-52 4q-80 0 -123.5 -48.5t-59.5 -130.5l-21 -105q-2 -13 -3.5 -24t-1.5 -25q0 -60 31 -95.5t98 -35.5z" />
    <glyph glyph-name="oe" unicode="&#x153;" horiz-adv-x="840" 
d="M245 101q82 0 105 115l19 94q1 5 2 13t1 18q0 38 -19 60.5t-56 22.5q-82 0 -105 -115l-19 -94q-1 -5 -2 -13t-1 -18q0 -38 19 -60.5t56 -22.5zM633 430q-45 0 -76.5 -29.5t-40.5 -80.5l-4 -23q56 3 91.5 10t55.5 17.5t27 23.5t7 29q0 17 -6 27.5t-15 16t-19.5 7.5
t-19.5 2zM581 -12q-60 0 -101 19.5t-67 64.5h-6q-33 -44 -76.5 -64t-97.5 -20q-44 0 -81 15t-64 43t-42 68.5t-15 92.5q0 71 20.5 131.5t56.5 104.5t86 69t110 25q51 0 89.5 -19t63.5 -67h6q34 45 78.5 65.5t100.5 20.5q29 0 62 -7t60.5 -23.5t46 -44.5t18.5 -71
q0 -41 -19 -73.5t-59 -56t-103 -37t-151 -16.5q-2 -9 -2 -14v-9q0 -38 20.5 -61t73.5 -23q34 0 63 14.5t64 58.5l86 -68q-49 -65 -102.5 -91.5t-118.5 -26.5z" />
    <glyph glyph-name="Racute" unicode="&#x154;" horiz-adv-x="655" 
d="M167 0h-145l140 698h272q100 0 155.5 -47t55.5 -133q0 -39 -11 -76.5t-33 -70t-53.5 -57t-73.5 -38.5l84 -276h-155l-69 259h-115zM393 383q34 0 58.5 18t32.5 55q5 23 8 37.5t3 22.5q0 23 -15.5 38.5t-48.5 15.5h-150l-37 -187h149zM415 739l-84 46l119 190l112 -60z
" />
    <glyph glyph-name="racute" unicode="&#x155;" horiz-adv-x="394" 
d="M14 0l105 525h140l-26 -131h7q8 21 22.5 44.5t34 42.5t45 31.5t55.5 12.5h25l-28 -136h-35q-67 0 -102 -24.5t-48 -88.5l-55 -276h-140zM283 579l-84 46l119 190l112 -60z" />
    <glyph glyph-name="Rcommaaccent" unicode="&#x156;" horiz-adv-x="655" 
d="M167 0h-145l140 698h272q100 0 155.5 -47t55.5 -133q0 -39 -11 -76.5t-33 -70t-53.5 -57t-73.5 -38.5l84 -276h-155l-69 259h-115zM393 383q34 0 58.5 18t32.5 55q5 23 8 37.5t3 22.5q0 23 -15.5 38.5t-48.5 15.5h-150l-37 -187h149zM273 -42q63 0 63 -51q0 -6 -0.5 -11
t-2.5 -16q-5 -23 -14.5 -45.5t-22 -42.5t-28 -37.5t-31.5 -29.5h-83q29 22 47.5 45.5t32.5 53.5q-23 2 -31 14.5t-8 30.5q0 7 4 27q6 30 25.5 46t48.5 16z" />
    <glyph glyph-name="rcommaaccent" unicode="&#x157;" horiz-adv-x="394" 
d="M14 0l105 525h140l-26 -131h7q8 21 22.5 44.5t34 42.5t45 31.5t55.5 12.5h25l-28 -136h-35q-67 0 -102 -24.5t-48 -88.5l-55 -276h-140zM72 -42q63 0 63 -51q0 -6 -0.5 -11t-2.5 -16q-5 -23 -14.5 -45.5t-22 -42.5t-28 -37.5t-31.5 -29.5h-83q29 22 47.5 45.5t32.5 53.5
q-23 2 -31 14.5t-8 30.5q0 7 4 27q6 30 25.5 46t48.5 16z" />
    <glyph glyph-name="Rcaron" unicode="&#x158;" horiz-adv-x="655" 
d="M167 0h-145l140 698h272q100 0 155.5 -47t55.5 -133q0 -39 -11 -76.5t-33 -70t-53.5 -57t-73.5 -38.5l84 -276h-155l-69 259h-115zM393 383q34 0 58.5 18t32.5 55q5 23 8 37.5t3 22.5q0 23 -15.5 38.5t-48.5 15.5h-150l-37 -187h149zM335 748l-101 158l74 57l96 -115
l137 115l72 -57l-155 -158h-123z" />
    <glyph glyph-name="rcaron" unicode="&#x159;" horiz-adv-x="394" 
d="M14 0l105 525h140l-26 -131h7q8 21 22.5 44.5t34 42.5t45 31.5t55.5 12.5h25l-28 -136h-35q-67 0 -102 -24.5t-48 -88.5l-55 -276h-140zM203 588l-101 158l74 57l96 -115l137 115l72 -57l-155 -158h-123z" />
    <glyph glyph-name="Sacute" unicode="&#x15a;" horiz-adv-x="586" 
d="M255 -12q-87 0 -154.5 28t-105.5 96l111 87q26 -42 60.5 -62t88.5 -20q63 0 98 28t35 72q0 32 -23 48t-57 24l-46 10q-38 8 -69 22.5t-53 37t-33.5 53.5t-11.5 73q0 48 19.5 89t54.5 71t85 47.5t110 17.5q78 0 140.5 -24.5t98.5 -72.5l-105 -94q-24 33 -55.5 47.5
t-84.5 14.5q-54 0 -85.5 -23t-31.5 -60q0 -30 19.5 -45t55.5 -23l44 -10q40 -9 73 -24t56 -37.5t36 -53.5t13 -72q0 -45 -19.5 -89t-56 -78.5t-89 -56t-118.5 -21.5zM383 739l-84 46l119 190l112 -60z" />
    <glyph glyph-name="sacute" unicode="&#x15b;" horiz-adv-x="497" 
d="M213 -12q-66 0 -121 23t-90 69l88 82q22 -29 51.5 -45.5t74.5 -16.5q49 0 69.5 17.5t20.5 40.5q0 15 -10.5 27t-38.5 16l-53 7q-68 9 -104 43.5t-36 97.5q0 37 13 71t40 60t68 41.5t97 15.5q61 0 110.5 -20.5t84.5 -62.5l-88 -82q-19 24 -48.5 38.5t-64.5 14.5
t-55.5 -15.5t-20.5 -39.5q0 -15 10.5 -27t38.5 -16l53 -7q68 -9 104 -43.5t36 -96.5q0 -38 -14.5 -73t-43.5 -61.5t-72 -42t-99 -15.5zM314 579l-84 46l119 190l112 -60z" />
    <glyph glyph-name="Scircumflex" unicode="&#x15c;" horiz-adv-x="586" 
d="M255 -12q-87 0 -154.5 28t-105.5 96l111 87q26 -42 60.5 -62t88.5 -20q63 0 98 28t35 72q0 32 -23 48t-57 24l-46 10q-38 8 -69 22.5t-53 37t-33.5 53.5t-11.5 73q0 48 19.5 89t54.5 71t85 47.5t110 17.5q78 0 140.5 -24.5t98.5 -72.5l-105 -94q-24 33 -55.5 47.5
t-84.5 14.5q-54 0 -85.5 -23t-31.5 -60q0 -30 19.5 -45t55.5 -23l44 -10q40 -9 73 -24t56 -37.5t36 -53.5t13 -72q0 -45 -19.5 -89t-56 -78.5t-89 -56t-118.5 -21.5zM458 954l100 -158l-75 -57l-99 115l-134 -115l-70 57l156 158h122z" />
    <glyph glyph-name="scircumflex" unicode="&#x15d;" horiz-adv-x="497" 
d="M213 -12q-66 0 -121 23t-90 69l88 82q22 -29 51.5 -45.5t74.5 -16.5q49 0 69.5 17.5t20.5 40.5q0 15 -10.5 27t-38.5 16l-53 7q-68 9 -104 43.5t-36 97.5q0 37 13 71t40 60t68 41.5t97 15.5q61 0 110.5 -20.5t84.5 -62.5l-88 -82q-19 24 -48.5 38.5t-64.5 14.5
t-55.5 -15.5t-20.5 -39.5q0 -15 10.5 -27t38.5 -16l53 -7q68 -9 104 -43.5t36 -96.5q0 -38 -14.5 -73t-43.5 -61.5t-72 -42t-99 -15.5zM389 794l100 -158l-75 -57l-99 115l-134 -115l-70 57l156 158h122z" />
    <glyph glyph-name="Scedilla" unicode="&#x15e;" horiz-adv-x="586" 
d="M358 581q-54 0 -85.5 -23t-31.5 -60q0 -30 19.5 -45t55.5 -23l44 -10q40 -9 73 -24t56 -37.5t36 -53.5t13 -72q0 -43 -17.5 -85t-51 -76t-82 -56.5t-109.5 -26.5l-18 -44l2 -4q22 7 43 7q26 0 44 -15t18 -41t-11.5 -45.5t-31 -32.5t-45.5 -19.5t-56 -6.5q-42 0 -70 13.5
t-41 32.5l52 52q6 -9 21 -18.5t37 -9.5q21 0 35.5 7t14.5 24q0 12 -14 22t-52 14l-22 2l27 63q-72 6 -127.5 34t-88.5 88l111 87q26 -42 60.5 -62t88.5 -20q63 0 98 28t35 72q0 32 -23 48t-57 24l-46 10q-38 8 -69 22.5t-53 37t-33.5 53.5t-11.5 73q0 48 19.5 89t54.5 71
t85 47.5t110 17.5q78 0 140.5 -24.5t98.5 -72.5l-105 -94q-24 33 -55.5 47.5t-84.5 14.5z" />
    <glyph glyph-name="scedilla" unicode="&#x15f;" horiz-adv-x="497" 
d="M169 -212q-42 0 -70 13.5t-41 32.5l52 52q6 -9 21 -18.5t37 -9.5q21 0 35.5 7t14.5 24q0 12 -14 22t-52 14l-22 2l28 65q-49 8 -89 30t-67 58l88 82q22 -29 51.5 -45.5t74.5 -16.5q49 0 69.5 17.5t20.5 40.5q0 15 -10.5 27t-38.5 16l-53 7q-68 9 -104 43.5t-36 97.5
q0 37 13 71t40 60t68 41.5t97 15.5q61 0 110.5 -20.5t84.5 -62.5l-88 -82q-19 24 -48.5 38.5t-64.5 14.5t-55.5 -15.5t-20.5 -39.5q0 -15 10.5 -27t38.5 -16l53 -7q68 -9 104 -43.5t36 -96.5q0 -38 -14 -72t-42 -60t-68.5 -42.5t-94.5 -17.5l-17 -43l2 -4q22 7 43 7
q26 0 44 -15t18 -41t-11.5 -45.5t-31 -32.5t-45.5 -19.5t-56 -6.5z" />
    <glyph glyph-name="Scaron" unicode="&#x160;" horiz-adv-x="586" 
d="M255 -12q-87 0 -154.5 28t-105.5 96l111 87q26 -42 60.5 -62t88.5 -20q63 0 98 28t35 72q0 32 -23 48t-57 24l-46 10q-38 8 -69 22.5t-53 37t-33.5 53.5t-11.5 73q0 48 19.5 89t54.5 71t85 47.5t110 17.5q78 0 140.5 -24.5t98.5 -72.5l-105 -94q-24 33 -55.5 47.5
t-84.5 14.5q-54 0 -85.5 -23t-31.5 -60q0 -30 19.5 -45t55.5 -23l44 -10q40 -9 73 -24t56 -37.5t36 -53.5t13 -72q0 -45 -19.5 -89t-56 -78.5t-89 -56t-118.5 -21.5zM303 748l-101 158l74 57l96 -115l137 115l72 -57l-155 -158h-123z" />
    <glyph glyph-name="scaron" unicode="&#x161;" horiz-adv-x="497" 
d="M213 -12q-66 0 -121 23t-90 69l88 82q22 -29 51.5 -45.5t74.5 -16.5q49 0 69.5 17.5t20.5 40.5q0 15 -10.5 27t-38.5 16l-53 7q-68 9 -104 43.5t-36 97.5q0 37 13 71t40 60t68 41.5t97 15.5q61 0 110.5 -20.5t84.5 -62.5l-88 -82q-19 24 -48.5 38.5t-64.5 14.5
t-55.5 -15.5t-20.5 -39.5q0 -15 10.5 -27t38.5 -16l53 -7q68 -9 104 -43.5t36 -96.5q0 -38 -14.5 -73t-43.5 -61.5t-72 -42t-99 -15.5zM234 588l-101 158l74 57l96 -115l137 115l72 -57l-155 -158h-123z" />
    <glyph glyph-name="uni0162" unicode="&#x162;" horiz-adv-x="569" 
d="M207 -212q-42 0 -70 13.5t-41 32.5l52 52q6 -9 21 -18.5t37 -9.5q21 0 35.5 7t14.5 24q0 12 -14 22t-52 14l-22 2l31 73h-40l114 570h-184l26 128h513l-26 -128h-184l-114 -570h-38l-22 -55l2 -4q22 7 43 7q26 0 44 -15t18 -41t-11.5 -45.5t-31 -32.5t-45.5 -19.5
t-56 -6.5z" />
    <glyph glyph-name="uni0163" unicode="&#x163;" horiz-adv-x="354" 
d="M126 -212q-42 0 -70 13.5t-41 32.5l52 52q6 -9 21 -18.5t37 -9.5q21 0 35.5 7t14.5 24q0 12 -14 22t-52 14l-22 2l34 81q-62 21 -62 91q0 8 1 20t3 23l54 271h-74l22 112h36q32 0 43 13t16 40l18 89h130l-28 -142h105l-23 -112h-105l-60 -301h95l-22 -112h-85l-22 -55
l2 -4q22 7 43 7q26 0 44 -15t18 -41t-11.5 -45.5t-31 -32.5t-45.5 -19.5t-56 -6.5z" />
    <glyph glyph-name="Tcaron" unicode="&#x164;" horiz-adv-x="569" 
d="M418 570l-114 -570h-145l114 570h-184l26 128h513l-26 -128h-184zM319 748l-101 158l74 57l96 -115l137 115l72 -57l-155 -158h-123z" />
    <glyph glyph-name="tcaron" unicode="&#x165;" horiz-adv-x="364" 
d="M182 0q-123 0 -123 99q0 8 1 20t3 23l54 271h-74l22 112h36q32 0 43 13t16 40l18 89h130l-28 -142h105l-23 -112h-105l-60 -301h95l-22 -112h-88zM433 576h-97l50 215h156z" />
    <glyph glyph-name="Tbar" unicode="&#x166;" horiz-adv-x="569" 
d="M361 280l-56 -280h-145l56 280h-141l22 106h141l36 184h-184l26 128h513l-26 -128h-184l-36 -184h142l-22 -106h-142z" />
    <glyph glyph-name="tbar" unicode="&#x167;" horiz-adv-x="364" 
d="M274 0h-88q-123 0 -123 99q0 8 1 20t3 23l16 82h-67l19 96h67l19 93h-74l22 112h36q32 0 43 13t16 40l18 89h130l-28 -142h105l-23 -112h-105l-19 -93h91l-19 -96h-91l-22 -112h95z" />
    <glyph glyph-name="Utilde" unicode="&#x168;" horiz-adv-x="678" 
d="M303 698l-84 -418q-3 -14 -5 -31.5t-2 -31.5q0 -100 102 -100q60 0 95 36t51 114l87 431h143l-85 -423q-15 -74 -38.5 -128t-59.5 -89t-85 -52.5t-114 -17.5q-115 0 -175.5 57t-60.5 169q0 20 2 41.5t7 47.5l79 395h143zM515 761q-22 0 -39 6t-37 15q-19 9 -35.5 15.5
t-36.5 6.5q-17 0 -29 -6t-29 -19l-43 69q23 29 51.5 45.5t63.5 16.5q22 0 39 -6t37 -15q19 -9 35.5 -15.5t36.5 -6.5q17 0 29 6t29 19l43 -69q-23 -29 -51.5 -45.5t-63.5 -16.5z" />
    <glyph glyph-name="utilde" unicode="&#x169;" horiz-adv-x="582" 
d="M254 525l-62 -312q-3 -14 -5 -28t-2 -25q0 -26 11.5 -40.5t37.5 -14.5t46.5 13.5t37.5 34.5q36 44 48 102l54 270h140l-83 -413h59l-22 -112h-93q-38 0 -63 20t-25 57q0 8 1 17t2 13l3 15h-6q-29 -62 -69 -98t-100 -36t-92 35.5t-32 100.5q0 20 2.5 38t6.5 38l65 325h140
zM430 601q-22 0 -39 6t-37 15q-19 9 -35.5 15.5t-36.5 6.5q-17 0 -29 -6t-29 -19l-43 69q23 29 51.5 45.5t63.5 16.5q22 0 39 -6t37 -15q19 -9 35.5 -15.5t36.5 -6.5q17 0 29 6t29 19l43 -69q-23 -29 -51.5 -45.5t-63.5 -16.5z" />
    <glyph glyph-name="Umacron" unicode="&#x16a;" horiz-adv-x="678" 
d="M303 698l-84 -418q-3 -14 -5 -31.5t-2 -31.5q0 -100 102 -100q60 0 95 36t51 114l87 431h143l-85 -423q-15 -74 -38.5 -128t-59.5 -89t-85 -52.5t-114 -17.5q-115 0 -175.5 57t-60.5 169q0 20 2 41.5t7 47.5l79 395h143zM319 887h278l-20 -102h-278z" />
    <glyph glyph-name="umacron" unicode="&#x16b;" horiz-adv-x="582" 
d="M254 525l-62 -312q-3 -14 -5 -28t-2 -25q0 -26 11.5 -40.5t37.5 -14.5t46.5 13.5t37.5 34.5q36 44 48 102l54 270h140l-83 -413h59l-22 -112h-93q-38 0 -63 20t-25 57q0 8 1 17t2 13l3 15h-6q-29 -62 -69 -98t-100 -36t-92 35.5t-32 100.5q0 20 2.5 38t6.5 38l65 325h140
zM234 727h278l-20 -102h-278z" />
    <glyph glyph-name="Ubreve" unicode="&#x16c;" horiz-adv-x="678" 
d="M303 698l-84 -418q-3 -14 -5 -31.5t-2 -31.5q0 -100 102 -100q60 0 95 36t51 114l87 431h143l-85 -423q-15 -74 -38.5 -128t-59.5 -89t-85 -52.5t-114 -17.5q-115 0 -175.5 57t-60.5 169q0 20 2 41.5t7 47.5l79 395h143zM433 739q-42 0 -71.5 15t-49.5 39t-31.5 54.5
t-17.5 61.5l80 42l18 -39q16 -34 32 -53t48 -19q27 0 48.5 18.5t49.5 55.5l28 37l83 -46q-18 -32 -39 -62t-47 -53t-58 -37t-73 -14z" />
    <glyph glyph-name="ubreve" unicode="&#x16d;" horiz-adv-x="582" 
d="M254 525l-62 -312q-3 -14 -5 -28t-2 -25q0 -26 11.5 -40.5t37.5 -14.5t46.5 13.5t37.5 34.5q36 44 48 102l54 270h140l-83 -413h59l-22 -112h-93q-38 0 -63 20t-25 57q0 8 1 17t2 13l3 15h-6q-29 -62 -69 -98t-100 -36t-92 35.5t-32 100.5q0 20 2.5 38t6.5 38l65 325h140
zM348 579q-42 0 -71.5 15t-49.5 39t-31.5 54.5t-17.5 61.5l80 42l18 -39q16 -34 32 -53t48 -19q27 0 48.5 18.5t49.5 55.5l28 37l83 -46q-18 -32 -39 -62t-47 -53t-58 -37t-73 -14z" />
    <glyph glyph-name="Uring" unicode="&#x16e;" horiz-adv-x="678" 
d="M303 698l-84 -418q-3 -14 -5 -31.5t-2 -31.5q0 -100 102 -100q60 0 95 36t51 114l87 431h143l-85 -423q-15 -74 -38.5 -128t-59.5 -89t-85 -52.5t-114 -17.5q-115 0 -175.5 57t-60.5 169q0 20 2 41.5t7 47.5l79 395h143zM426 719q-56 0 -92 34.5t-36 87.5q0 37 13.5 67.5
t36 52t52.5 33t63 11.5q56 0 92 -34.5t36 -87.5q0 -38 -13.5 -68t-36 -51.5t-52.5 -33t-63 -11.5zM432 793q23 0 38 14t20 38l6 28.5t2 18.5q0 39 -41 39q-23 0 -38 -14t-20 -38l-6 -28.5t-2 -18.5q0 -39 41 -39z" />
    <glyph glyph-name="uring" unicode="&#x16f;" horiz-adv-x="582" 
d="M254 525l-62 -312q-3 -14 -5 -28t-2 -25q0 -26 11.5 -40.5t37.5 -14.5t46.5 13.5t37.5 34.5q36 44 48 102l54 270h140l-83 -413h59l-22 -112h-93q-38 0 -63 20t-25 57q0 8 1 17t2 13l3 15h-6q-29 -62 -69 -98t-100 -36t-92 35.5t-32 100.5q0 20 2.5 38t6.5 38l65 325h140
zM341 558q-56 0 -92 34.5t-36 87.5q0 37 13.5 67.5t36 52t52.5 33t63 11.5q56 0 92 -34.5t36 -87.5q0 -38 -13.5 -68t-36 -51.5t-52.5 -33t-63 -11.5zM347 632q23 0 38 14t20 38q4 19 6 29t2 18q0 39 -41 39q-23 0 -38 -14t-20 -38q-4 -19 -6 -29t-2 -18q0 -39 41 -39z" />
    <glyph glyph-name="Uhungarumlaut" unicode="&#x170;" horiz-adv-x="678" 
d="M303 698l-84 -418q-3 -14 -5 -31.5t-2 -31.5q0 -100 102 -100q60 0 95 36t51 114l87 431h143l-85 -423q-15 -74 -38.5 -128t-59.5 -89t-85 -52.5t-114 -17.5q-115 0 -175.5 57t-60.5 169q0 20 2 41.5t7 47.5l79 395h143zM348 740l-77 38l113 193l105 -56zM543 740l-76 38
l113 193l105 -56z" />
    <glyph glyph-name="uhungarumlaut" unicode="&#x171;" horiz-adv-x="582" 
d="M254 525l-62 -312q-3 -14 -5 -28t-2 -25q0 -26 11.5 -40.5t37.5 -14.5t46.5 13.5t37.5 34.5q36 44 48 102l54 270h140l-83 -413h59l-22 -112h-93q-38 0 -63 20t-25 57q0 8 1 17t2 13l3 15h-6q-29 -62 -69 -98t-100 -36t-92 35.5t-32 100.5q0 20 2.5 38t6.5 38l65 325h140
zM263 580l-77 38l113 193l105 -56zM458 580l-76 38l113 193l105 -56z" />
    <glyph glyph-name="Uogonek" unicode="&#x172;" horiz-adv-x="678" 
d="M303 698l-84 -418q-3 -14 -5 -31.5t-2 -31.5q0 -100 102 -100q60 0 95 36t51 114l87 431h143l-85 -423q-15 -74 -34 -119.5t-44.5 -75.5t-58.5 -49.5t-75 -40.5q-34 -16 -55.5 -31t-33.5 -28t-16.5 -24t-4.5 -18q0 -12 7.5 -20.5t27.5 -8.5q16 0 30 5.5t24 21.5l52 -49
q-19 -23 -48 -36.5t-77 -13.5q-50 0 -84.5 21t-34.5 62q0 34 26.5 65t86.5 48l-1 4q-107 4 -163.5 60.5t-56.5 165.5q0 20 2 41.5t7 47.5l79 395h143z" />
    <glyph glyph-name="uogonek" unicode="&#x173;" horiz-adv-x="582" 
d="M254 525l-62 -312q-3 -14 -5 -28t-2 -25q0 -26 11.5 -40.5t37.5 -14.5t46.5 13.5t37.5 34.5q36 44 48 102l54 270h140l-83 -413h59l-22 -112q-41 -25 -65 -42.5t-36 -30.5t-15 -22t-3 -16q0 -12 7.5 -20.5t27.5 -8.5q16 0 30 5.5t24 21.5l52 -49q-19 -23 -48 -36.5
t-77 -13.5q-50 0 -84.5 21t-34.5 62q0 38 32.5 71.5t105.5 53.5l-1 4q-42 0 -69 19t-27 54q0 9 1 19t2 15l3 15h-6q-29 -62 -69 -98t-100 -36t-92 35.5t-32 100.5q0 20 2.5 38t6.5 38l65 325h140z" />
    <glyph glyph-name="Wcircumflex" unicode="&#x174;" horiz-adv-x="941" 
d="M130 0l-14 698h143l-4 -279l-11 -275h10l97 257l126 297h159l7 -282l-7 -282h10l87 250l118 314h146l-291 -698h-168l-8 291v245h-9l-89 -224l-130 -312h-172zM660 954l100 -158l-75 -57l-99 115l-134 -115l-70 57l156 158h122z" />
    <glyph glyph-name="wcircumflex" unicode="&#x175;" horiz-adv-x="791" 
d="M54 525h139l7 -190l3 -178h6l65 152l98 216h130l14 -190l11 -185h6l62 159l90 216h138l-240 -525h-147l-15 175l-13 174h-6l-68 -151l-91 -198h-149zM543 794l100 -158l-75 -57l-99 115l-134 -115l-70 57l156 158h122z" />
    <glyph glyph-name="Ycircumflex" unicode="&#x176;" horiz-adv-x="624" 
d="M185 0l54 271l-148 427h148l94 -294h7l201 294h160l-319 -440l-52 -258h-145zM485 954l100 -158l-75 -57l-99 115l-134 -115l-70 57l156 158h122z" />
    <glyph glyph-name="ycircumflex" unicode="&#x177;" horiz-adv-x="509" 
d="M408 525h149l-322 -610q-15 -29 -32 -50.5t-39 -36t-50 -21.5t-65 -7h-78l23 112h97l28 58l-74 555h139l20 -198l16 -196h6l88 196zM390 794l100 -158l-75 -57l-99 115l-134 -115l-70 57l156 158h122z" />
    <glyph glyph-name="Ydieresis" unicode="&#x178;" horiz-adv-x="624" 
d="M185 0l54 271l-148 427h148l94 -294h7l201 294h160l-319 -440l-52 -258h-145zM296 760q-35 0 -50 14.5t-15 34.5q0 5 1.5 13t4.5 26q5 26 24 44.5t61 18.5q35 0 50 -14.5t15 -34.5q0 -5 -1.5 -13t-4.5 -26q-5 -26 -24 -44.5t-61 -18.5zM496 760q-35 0 -50 14.5t-15 34.5
q0 5 1.5 13t4.5 26q5 26 24 44.5t61 18.5q35 0 50 -14.5t15 -34.5q0 -5 -1.5 -13t-4.5 -26q-5 -26 -24 -44.5t-61 -18.5z" />
    <glyph glyph-name="Zacute" unicode="&#x179;" horiz-adv-x="573" 
d="M486 0h-497l26 128l410 442h-306l26 128h478l-26 -128l-410 -442h325zM409 739l-84 46l119 190l112 -60z" />
    <glyph glyph-name="zacute" unicode="&#x17a;" horiz-adv-x="492" 
d="M-11 0l22 112l306 301h-241l22 112h409l-22 -112l-307 -301h258l-22 -112h-425zM327 579l-84 46l119 190l112 -60z" />
    <glyph glyph-name="Zdotaccent" unicode="&#x17b;" horiz-adv-x="573" 
d="M486 0h-497l26 128l410 442h-306l26 128h478l-26 -128l-410 -442h325zM396 751q-43 0 -59.5 16.5t-16.5 42.5q0 6 1.5 13.5t5.5 28.5q5 29 25.5 48t68.5 19q43 0 59.5 -16.5t16.5 -42.5q0 -6 -1.5 -13.5t-5.5 -28.5q-5 -29 -25.5 -48t-68.5 -19z" />
    <glyph glyph-name="zdotaccent" unicode="&#x17c;" horiz-adv-x="492" 
d="M-11 0l22 112l306 301h-241l22 112h409l-22 -112l-307 -301h258l-22 -112h-425zM313 591q-43 0 -59.5 16.5t-16.5 42.5q0 6 1.5 13.5t5.5 28.5q5 29 25.5 48t68.5 19q43 0 59.5 -16.5t16.5 -42.5q0 -6 -1.5 -13.5t-5.5 -28.5q-5 -29 -25.5 -48t-68.5 -19z" />
    <glyph glyph-name="Zcaron" unicode="&#x17d;" horiz-adv-x="573" 
d="M486 0h-497l26 128l410 442h-306l26 128h478l-26 -128l-410 -442h325zM329 748l-101 158l74 57l96 -115l137 115l72 -57l-155 -158h-123z" />
    <glyph glyph-name="zcaron" unicode="&#x17e;" horiz-adv-x="492" 
d="M-11 0l22 112l306 301h-241l22 112h409l-22 -112l-307 -301h258l-22 -112h-425zM247 588l-101 158l74 57l96 -115l137 115l72 -57l-155 -158h-123z" />
    <glyph glyph-name="uni017F" unicode="&#x17f;" horiz-adv-x="310" 
d="M181 -50q-30 -150 -192 -150h-76l24 112h96l100 501h-69l22 112h69l13 65q30 150 192 150h76l-24 -112h-96z" />
    <glyph glyph-name="uni018F" unicode="&#x18f;" horiz-adv-x="696" 
d="M309 -12q-53 0 -99 16.5t-80 50.5t-53.5 87t-19.5 125q0 21 3 42t7 41l9 44h437q5 20 6 34t1 27q0 59 -33 92t-99 33q-57 0 -91.5 -30t-57.5 -84l-130 55q21 41 50.5 75.5t67.5 60t84 39.5t99 14q55 0 102.5 -17.5t82 -51.5t54.5 -85.5t20 -118.5q0 -95 -26 -177
t-73.5 -142.5t-114 -95t-146.5 -34.5zM323 118q63 0 105.5 39.5t61.5 121.5h-285q-2 -10 -2 -18.5v-17.5q0 -125 120 -125z" />
    <glyph glyph-name="florin" unicode="&#x192;" horiz-adv-x="472" 
d="M-32 -22h115l76 278h-98l23 114h106l50 184q18 66 65.5 105t126.5 39h102l-23 -112h-121l-58 -216h133l-23 -114h-140l-67 -247q-18 -66 -66.5 -104.5t-126.5 -38.5h-97z" />
    <glyph glyph-name="Ohorn" unicode="&#x1a0;" horiz-adv-x="695" 
d="M769 804l-19 -95q-6 -29 -14.5 -48t-22.5 -30t-34.5 -16t-50.5 -5h-11q23 -34 37 -78.5t14 -104.5q0 -90 -27 -170t-75 -140t-114 -94.5t-144 -34.5q-50 0 -95.5 16.5t-80 51t-55 88t-20.5 127.5q0 90 27 170t75 140t114 94.5t144 34.5q44 0 83 -12h123l21 106h125z
M318 117q70 0 115 47t62 132l21 105q3 16 4 28.5t1 23.5q0 128 -114 128q-70 0 -115 -47t-62 -132l-21 -105q-3 -16 -4 -28.5t-1 -23.5q0 -128 114 -128z" />
    <glyph glyph-name="ohorn" unicode="&#x1a1;" horiz-adv-x="542" 
d="M240 -12q-97 0 -153 57.5t-56 161.5q0 71 20.5 131.5t56.5 104.5t85.5 69t108.5 25q44 0 79 -12h77l21 106h125l-19 -94q-5 -24 -12 -42.5t-18 -31t-27 -19t-40 -6.5h-4q13 -25 20 -55t7 -65q0 -71 -20.5 -131.5t-56.5 -104.5t-86 -69t-108 -25zM245 101q82 0 105 115
l19 94q1 5 2 13t1 18q0 38 -19 60.5t-56 22.5q-82 0 -105 -115l-19 -94q-1 -5 -2 -13t-1 -18q0 -38 19 -60.5t56 -22.5z" />
    <glyph glyph-name="Uhorn" unicode="&#x1af;" horiz-adv-x="678" 
d="M303 698l-84 -418q-3 -14 -5 -31.5t-2 -31.5q0 -100 102 -100q60 0 95 36t51 114l87 431h83l21 106h125l-19 -96q-9 -48 -31 -71.5t-53 -23.5l-68 -338q-15 -74 -38.5 -128t-59.5 -89t-85 -52.5t-114 -17.5q-115 0 -175.5 57t-60.5 169q0 20 2 41.5t7 47.5l79 395h143z
" />
    <glyph glyph-name="uhorn" unicode="&#x1b0;" horiz-adv-x="585" 
d="M421 0q-38 0 -63 20t-25 57q0 8 1 17t2 13l3 15h-6q-29 -62 -69 -98t-100 -36t-92 35.5t-32 100.5q0 20 2.5 38t6.5 38l65 325h140l-62 -312q-3 -14 -5 -28t-2 -25q0 -26 11.5 -40.5t37.5 -14.5t46.5 13.5t37.5 34.5q36 44 48 102l54 270h99l21 106h125l-20 -99
q-10 -48 -31 -71.5t-69 -23.5h-3l-65 -325h59l-22 -112h-93z" />
    <glyph glyph-name="uni01CD" unicode="&#x1cd;" horiz-adv-x="658" 
d="M441 0l-16 170h-223l-82 -170h-155l359 698h185l79 -698h-147zM394 567h-8l-127 -276h156zM359 748l-101 158l74 57l96 -115l137 115l72 -57l-155 -158h-123z" />
    <glyph glyph-name="uni01CE" unicode="&#x1ce;" horiz-adv-x="591" 
d="M430 0q-38 0 -63 20t-25 57q0 8 1 17t2 13l3 15h-6q-31 -64 -70 -99t-101 -35q-37 0 -63.5 13.5t-43.5 38t-25 58t-8 72.5q0 84 19.5 151.5t52.5 115.5t77.5 74t94.5 26q55 0 90.5 -30t40.5 -73h5l18 91h140l-83 -413h59l-22 -112h-93zM240 103q27 0 49 14t38 34
q17 20 29.5 47.5t18.5 56.5l16 80q8 37 -15 62t-67 25q-91 0 -115 -117l-14 -70q-2 -11 -4 -28t-2 -29q0 -35 17.5 -55t48.5 -20zM281 588l-101 158l74 57l96 -115l137 115l72 -57l-155 -158h-123z" />
    <glyph glyph-name="uni01CF" unicode="&#x1cf;" horiz-adv-x="415" 
d="M-4 0l24 118h86l93 462h-86l23 118h318l-24 -118h-86l-93 -462h86l-23 -118h-318zM243 748l-101 158l74 57l96 -115l137 115l72 -57l-155 -158h-123z" />
    <glyph glyph-name="uni01D0" unicode="&#x1d0;" horiz-adv-x="281" 
d="M122 0q-41 0 -65.5 22t-24.5 58q0 10 3 25l84 420h140l-83 -413h59l-22 -112h-91zM138 588l-101 158l74 57l96 -115l137 115l72 -57l-155 -158h-123z" />
    <glyph glyph-name="uni01D1" unicode="&#x1d1;" horiz-adv-x="695" 
d="M308 -12q-50 0 -95.5 16.5t-80 51t-55 88t-20.5 127.5q0 90 27 170t75 140t114 94.5t144 34.5q50 0 95.5 -16.5t80 -51t55 -88t20.5 -127.5q0 -90 -27 -170t-75 -140t-114 -94.5t-144 -34.5zM318 117q70 0 115 47t62 132l21 105q3 16 4 28.5t1 23.5q0 128 -114 128
q-70 0 -115 -47t-62 -132l-21 -105q-3 -15 -4 -28t-1 -24q0 -128 114 -128zM387 748l-101 158l74 57l96 -115l137 115l72 -57l-155 -158h-123z" />
    <glyph glyph-name="uni01D2" unicode="&#x1d2;" horiz-adv-x="542" 
d="M240 -12q-97 0 -153 57.5t-56 161.5q0 71 20.5 131.5t56.5 104.5t85.5 69t108.5 25q97 0 153 -57.5t56 -161.5q0 -71 -20.5 -131.5t-56.5 -104.5t-86 -69t-108 -25zM245 101q82 0 105 115l19 94q1 5 2 13t1 18q0 38 -19 60.5t-56 22.5q-82 0 -105 -115l-19 -94
q-1 -5 -2 -13t-1 -18q0 -38 19 -60.5t56 -22.5zM265 588l-101 158l74 57l96 -115l137 115l72 -57l-155 -158h-123z" />
    <glyph glyph-name="uni01D3" unicode="&#x1d3;" horiz-adv-x="678" 
d="M303 698l-84 -418q-3 -14 -5 -31.5t-2 -31.5q0 -100 102 -100q60 0 95 36t51 114l87 431h143l-85 -423q-15 -74 -38.5 -128t-59.5 -89t-85 -52.5t-114 -17.5q-115 0 -175.5 57t-60.5 169q0 20 2 41.5t7 47.5l79 395h143zM369 748l-101 158l74 57l96 -115l137 115l72 -57
l-155 -158h-123z" />
    <glyph glyph-name="uni01D4" unicode="&#x1d4;" horiz-adv-x="582" 
d="M254 525l-62 -312q-3 -14 -5 -28t-2 -25q0 -26 11.5 -40.5t37.5 -14.5t46.5 13.5t37.5 34.5q36 44 48 102l54 270h140l-83 -413h59l-22 -112h-93q-38 0 -63 20t-25 57q0 8 1 17t2 13l3 15h-6q-29 -62 -69 -98t-100 -36t-92 35.5t-32 100.5q0 20 2.5 38t6.5 38l65 325h140
zM284 588l-101 158l74 57l96 -115l137 115l72 -57l-155 -158h-123z" />
    <glyph glyph-name="uni01D5" unicode="&#x1d5;" horiz-adv-x="678" 
d="M303 698l-84 -418q-3 -14 -5 -31.5t-2 -31.5q0 -100 102 -100q60 0 95 36t51 114l87 431h143l-85 -423q-15 -74 -38.5 -128t-59.5 -89t-85 -52.5t-114 -17.5q-115 0 -175.5 57t-60.5 169q0 20 2 41.5t7 47.5l79 395h143zM351 1049h276l-20 -102h-276zM323 748
q-38 0 -51.5 14t-13.5 34q0 5 1.5 13.5t4.5 26.5q5 26 24 43.5t64 17.5q37 0 51 -14t14 -34q0 -5 -1.5 -13.5t-4.5 -26.5q-5 -26 -24.5 -43.5t-63.5 -17.5zM536 748q-38 0 -51.5 14t-13.5 34q0 5 1.5 13.5t4.5 26.5q5 26 23.5 43.5t63.5 17.5q38 0 52 -14t14 -34
q0 -5 -1.5 -13.5t-4.5 -26.5q-5 -26 -24 -43.5t-64 -17.5z" />
    <glyph glyph-name="uni01D6" unicode="&#x1d6;" horiz-adv-x="582" 
d="M254 525l-62 -312q-3 -14 -5 -28t-2 -25q0 -26 11.5 -40.5t37.5 -14.5t46.5 13.5t37.5 34.5q36 44 48 102l54 270h140l-83 -413h59l-22 -112h-93q-38 0 -63 20t-25 57q0 8 1 17t2 13l3 15h-6q-29 -62 -69 -98t-100 -36t-92 35.5t-32 100.5q0 20 2.5 38t6.5 38l65 325h140
zM268 889h276l-20 -102h-276zM240 588q-38 0 -51.5 14t-13.5 34q0 5 1.5 13.5t4.5 26.5q5 26 24 43.5t64 17.5q37 0 51 -14t14 -34q0 -5 -1.5 -13.5t-4.5 -26.5q-5 -26 -24.5 -43.5t-63.5 -17.5zM453 588q-38 0 -51.5 14t-13.5 34q0 5 1.5 13.5t4.5 26.5q5 26 23.5 43.5
t63.5 17.5q38 0 52 -14t14 -34q0 -5 -1.5 -13.5t-4.5 -26.5q-5 -26 -24 -43.5t-64 -17.5z" />
    <glyph glyph-name="uni01D7" unicode="&#x1d7;" horiz-adv-x="678" 
d="M303 698l-84 -418q-3 -14 -5 -31.5t-2 -31.5q0 -100 102 -100q60 0 95 36t51 114l87 431h143l-85 -423q-15 -74 -38.5 -128t-59.5 -89t-85 -52.5t-114 -17.5q-115 0 -175.5 57t-60.5 169q0 20 2 41.5t7 47.5l79 395h143zM470 892l-75 40l107 194l105 -58zM323 748
q-38 0 -51.5 14t-13.5 34q0 5 1.5 13.5t4.5 26.5q5 26 24 43.5t64 17.5q38 0 51.5 -14t13.5 -34q0 -5 -1.5 -13.5t-4.5 -26.5q-5 -26 -24.5 -43.5t-63.5 -17.5zM536 748q-38 0 -51.5 14t-13.5 34q0 5 1.5 13.5t4.5 26.5q5 26 23.5 43.5t63.5 17.5q38 0 52 -14t14 -34
q0 -5 -1.5 -13.5t-4.5 -26.5q-5 -26 -24 -43.5t-64 -17.5z" />
    <glyph glyph-name="uni01D8" unicode="&#x1d8;" horiz-adv-x="582" 
d="M254 525l-62 -312q-3 -14 -5 -28t-2 -25q0 -26 11.5 -40.5t37.5 -14.5t46.5 13.5t37.5 34.5q36 44 48 102l54 270h140l-83 -413h59l-22 -112h-93q-38 0 -63 20t-25 57q0 8 1 17t2 13l3 15h-6q-29 -62 -69 -98t-100 -36t-92 35.5t-32 100.5q0 20 2.5 38t6.5 38l65 325h140
zM387 732l-75 40l107 194l105 -58zM240 588q-38 0 -51.5 14t-13.5 34q0 5 1.5 13.5t4.5 26.5q5 26 24 43.5t64 17.5q38 0 51.5 -14t13.5 -34q0 -5 -1.5 -13.5t-4.5 -26.5q-5 -26 -24.5 -43.5t-63.5 -17.5zM453 588q-38 0 -51.5 14t-13.5 34q0 5 1.5 13.5t4.5 26.5
q5 26 23.5 43.5t63.5 17.5q38 0 52 -14t14 -34q0 -5 -1.5 -13.5t-4.5 -26.5q-5 -26 -24 -43.5t-64 -17.5z" />
    <glyph glyph-name="uni01D9" unicode="&#x1d9;" horiz-adv-x="678" 
d="M303 698l-84 -418q-3 -14 -5 -31.5t-2 -31.5q0 -100 102 -100q60 0 95 36t51 114l87 431h143l-85 -423q-15 -74 -38.5 -128t-59.5 -89t-85 -52.5t-114 -17.5q-115 0 -175.5 57t-60.5 169q0 20 2 41.5t7 47.5l79 395h143zM418 917l-113 148l71 63l98 -105l142 105l63 -63
l-171 -148h-90zM323 748q-38 0 -51.5 14t-13.5 34q0 5 1.5 13.5t4.5 26.5q5 26 24 43.5t64 17.5q38 0 51.5 -14t13.5 -34q0 -5 -1.5 -13.5t-4.5 -26.5q-5 -26 -24.5 -43.5t-63.5 -17.5zM536 748q-38 0 -51.5 14t-13.5 34q0 5 1.5 13.5t4.5 26.5q5 26 23.5 43.5t63.5 17.5
q38 0 52 -14t14 -34q0 -5 -1.5 -13.5t-4.5 -26.5q-5 -26 -24 -43.5t-64 -17.5z" />
    <glyph glyph-name="uni01DA" unicode="&#x1da;" horiz-adv-x="582" 
d="M254 525l-62 -312q-3 -14 -5 -28t-2 -25q0 -26 11.5 -40.5t37.5 -14.5t46.5 13.5t37.5 34.5q36 44 48 102l54 270h140l-83 -413h59l-22 -112h-93q-38 0 -63 20t-25 57q0 8 1 17t2 13l3 15h-6q-29 -62 -69 -98t-100 -36t-92 35.5t-32 100.5q0 20 2.5 38t6.5 38l65 325h140
zM335 757l-113 148l71 63l98 -105l142 105l63 -63l-171 -148h-90zM240 588q-38 0 -51.5 14t-13.5 34q0 5 1.5 13.5t4.5 26.5q5 26 24 43.5t64 17.5q38 0 51.5 -14t13.5 -34q0 -5 -1.5 -13.5t-4.5 -26.5q-5 -26 -24.5 -43.5t-63.5 -17.5zM453 588q-38 0 -51.5 14t-13.5 34
q0 5 1.5 13.5t4.5 26.5q5 26 23.5 43.5t63.5 17.5q38 0 52 -14t14 -34q0 -5 -1.5 -13.5t-4.5 -26.5q-5 -26 -24 -43.5t-64 -17.5z" />
    <glyph glyph-name="uni01DB" unicode="&#x1db;" horiz-adv-x="678" 
d="M303 698l-84 -418q-3 -14 -5 -31.5t-2 -31.5q0 -100 102 -100q60 0 95 36t51 114l87 431h143l-85 -423q-15 -74 -38.5 -128t-59.5 -89t-85 -52.5t-114 -17.5q-115 0 -175.5 57t-60.5 169q0 20 2 41.5t7 47.5l79 395h143zM348 1069l120 56l59 -193l-81 -38zM323 748
q-38 0 -51.5 14t-13.5 34q0 5 1.5 13.5t4.5 26.5q5 26 24 43.5t64 17.5q38 0 51.5 -14t13.5 -34q0 -5 -1.5 -13.5t-4.5 -26.5q-5 -26 -24.5 -43.5t-63.5 -17.5zM536 748q-38 0 -51.5 14t-13.5 34q0 5 1.5 13.5t4.5 26.5q5 26 23.5 43.5t63.5 17.5q38 0 52 -14t14 -34
q0 -5 -1.5 -13.5t-4.5 -26.5q-5 -26 -24 -43.5t-64 -17.5z" />
    <glyph glyph-name="uni01DC" unicode="&#x1dc;" horiz-adv-x="582" 
d="M254 525l-62 -312q-3 -14 -5 -28t-2 -25q0 -26 11.5 -40.5t37.5 -14.5t46.5 13.5t37.5 34.5q36 44 48 102l54 270h140l-83 -413h59l-22 -112h-93q-38 0 -63 20t-25 57q0 8 1 17t2 13l3 15h-6q-29 -62 -69 -98t-100 -36t-92 35.5t-32 100.5q0 20 2.5 38t6.5 38l65 325h140
zM265 909l120 56l59 -193l-81 -38zM240 588q-38 0 -51.5 14t-13.5 34q0 5 1.5 13.5t4.5 26.5q5 26 24 43.5t64 17.5q38 0 51.5 -14t13.5 -34q0 -5 -1.5 -13.5t-4.5 -26.5q-5 -26 -24.5 -43.5t-63.5 -17.5zM453 588q-38 0 -51.5 14t-13.5 34q0 5 1.5 13.5t4.5 26.5
q5 26 23.5 43.5t63.5 17.5q38 0 52 -14t14 -34q0 -5 -1.5 -13.5t-4.5 -26.5q-5 -26 -24 -43.5t-64 -17.5z" />
    <glyph glyph-name="Aringacute" unicode="&#x1fa;" horiz-adv-x="658" 
d="M441 0l-16 170h-223l-82 -170h-155l359 698h185l79 -698h-147zM394 567h-8l-127 -276h156zM466 975l-46 56l145 117l61 -79zM419 725q-55 0 -91 27t-36 75q0 33 13.5 58.5t36.5 43t53.5 27t65.5 9.5q55 0 91 -27t36 -76q0 -32 -13.5 -57.5t-36.5 -43t-54 -27t-65 -9.5z
M430 794q50 0 59 44q2 8 3 14.5t1 9.5q0 34 -43 34q-50 0 -59 -45q-2 -8 -3 -14.5t-1 -9.5q0 -33 43 -33z" />
    <glyph glyph-name="aringacute" unicode="&#x1fb;" horiz-adv-x="591" 
d="M430 0q-38 0 -63 20t-25 57q0 8 1 17t2 13l3 15h-6q-31 -64 -70 -99t-101 -35q-37 0 -63.5 13.5t-43.5 38t-25 58t-8 72.5q0 84 19.5 151.5t52.5 115.5t77.5 74t94.5 26q55 0 90.5 -30t40.5 -73h5l18 91h140l-83 -413h59l-22 -112h-93zM240 103q27 0 49 14t38 34
q17 20 29.5 47.5t18.5 56.5l16 80q8 37 -15 62t-67 25q-91 0 -115 -117l-14 -70q-2 -11 -4 -28t-2 -29q0 -35 17.5 -55t48.5 -20zM388 815l-46 56l145 117l61 -79zM341 564q-55 0 -91 27t-36 76q0 32 13.5 57.5t36.5 43t53.5 27t65.5 9.5q55 0 91 -27t36 -75
q0 -33 -13.5 -58.5t-36.5 -43t-54 -27t-65 -9.5zM352 633q50 0 59 45q2 8 3 14t1 10q0 33 -43 33q-50 0 -59 -44q-2 -8 -3 -14t-1 -10q0 -34 43 -34z" />
    <glyph glyph-name="AEacute" unicode="&#x1fc;" horiz-adv-x="920" 
d="M398 169h-197l-101 -169h-156l444 698h565l-26 -128h-303l-31 -153h268l-26 -128h-268l-32 -161h314l-26 -128h-459zM449 570l-171 -279h144l56 279h-29zM718 739l-84 46l119 190l112 -60z" />
    <glyph glyph-name="aeacute" unicode="&#x1fd;" horiz-adv-x="827" 
d="M231 89q34 0 63 17.5t37 53.5l12 57l-81 -4q-31 -2 -55 -10.5t-32 -37.5q-3 -11 -3.5 -20.5t-0.5 -10.5q0 -23 16.5 -34t43.5 -11zM620 430q-45 0 -76.5 -29.5t-40.5 -80.5l-4 -19q56 3 91.5 10t55.5 16.5t27 22t7 27.5q0 17 -6 27.5t-15 16t-19.5 7.5t-19.5 2zM182 -12
q-78 0 -117.5 37t-39.5 100q0 82 64 123t179 46l91 4l5 27q3 18 3 30q0 70 -81 70q-23 0 -41.5 -5.5t-33 -14.5t-26 -21.5t-21.5 -26.5l-82 79q37 48 91.5 74.5t123.5 26.5q114 0 157 -76h7q32 35 73.5 55.5t95.5 20.5q29 0 61.5 -7t60.5 -23.5t46 -44.5t18 -70
q0 -80 -78.5 -125.5t-253.5 -50.5q-2 -12 -2 -19v-12q0 -38 20.5 -61t73.5 -23q34 0 63 14.5t64 58.5l86 -68q-49 -65 -102.5 -91.5t-121.5 -26.5q-75 0 -123.5 27t-73.5 77h-7q-26 -56 -73 -80t-106 -24zM511 579l-84 46l119 190l112 -60z" />
    <glyph glyph-name="Oslashacute" unicode="&#x1fe;" horiz-adv-x="695" 
d="M308 -12q-42 0 -80 11t-70 34l-79 -93l-77 67l89 104q-16 32 -25 71.5t-9 88.5q0 90 27 170t75 140t114 94.5t144 34.5q42 0 80 -11t70 -34l79 93l77 -67l-89 -104q16 -32 25 -71.5t9 -88.5q0 -90 -27 -170t-75 -140t-114 -94.5t-144 -34.5zM205 296q-3 -15 -5 -29.5
t-2 -26.5v-9t1 -10l289 337q-32 29 -80 29q-72 0 -118 -47t-63 -135zM317 111q72 0 118 47t63 135l22 109q3 15 5 29.5t2 26.5v9t-1 10l-289 -337q32 -29 80 -29zM465 739l-84 46l119 190l112 -60z" />
    <glyph glyph-name="oslashacute" unicode="&#x1ff;" horiz-adv-x="543" 
d="M-34 21l83 86q-18 43 -18 100q0 71 20.5 131.5t57 104.5t86 69t108.5 25q81 0 133 -40l69 71l72 -64l-83 -86q18 -44 18 -100q0 -71 -20.5 -131.5t-57 -104.5t-86.5 -69t-108 -25q-81 0 -133 40l-69 -71zM245 95q40 0 68.5 31.5t39.5 88.5l13 63l5 27l-184 -187
q8 -10 24 -16.5t34 -6.5zM298 430q-40 0 -68.5 -31.5t-39.5 -88.5l-13 -63l-6 -28l185 188q-8 10 -24 16.5t-34 6.5zM342 579l-84 46l119 190l112 -60z" />
    <glyph glyph-name="Scommaaccent" unicode="&#x218;" horiz-adv-x="586" 
d="M255 -12q-87 0 -154.5 28t-105.5 96l111 87q26 -42 60.5 -62t88.5 -20q63 0 98 28t35 72q0 32 -23 48t-57 24l-46 10q-38 8 -69 22.5t-53 37t-33.5 53.5t-11.5 73q0 48 19.5 89t54.5 71t85 47.5t110 17.5q78 0 140.5 -24.5t98.5 -72.5l-105 -94q-24 33 -55.5 47.5
t-84.5 14.5q-54 0 -85.5 -23t-31.5 -60q0 -30 19.5 -45t55.5 -23l44 -10q40 -9 73 -24t56 -37.5t36 -53.5t13 -72q0 -45 -19.5 -89t-56 -78.5t-89 -56t-118.5 -21.5zM236 -42q63 0 63 -51q0 -6 -0.5 -11t-2.5 -16q-5 -23 -14.5 -45.5t-22 -42.5t-28 -37.5t-31.5 -29.5h-83
q29 22 47.5 45.5t32.5 53.5q-23 2 -31 14.5t-8 30.5q0 7 4 27q6 30 25.5 46t48.5 16z" />
    <glyph glyph-name="scommaaccent" unicode="&#x219;" horiz-adv-x="497" 
d="M213 -12q-66 0 -121 23t-90 69l88 82q22 -29 51.5 -45.5t74.5 -16.5q49 0 69.5 17.5t20.5 40.5q0 15 -10.5 27t-38.5 16l-53 7q-68 9 -104 43.5t-36 97.5q0 37 13 71t40 60t68 41.5t97 15.5q61 0 110.5 -20.5t84.5 -62.5l-88 -82q-19 24 -48.5 38.5t-64.5 14.5
t-55.5 -15.5t-20.5 -39.5q0 -15 10.5 -27t38.5 -16l53 -7q68 -9 104 -43.5t36 -96.5q0 -38 -14.5 -73t-43.5 -61.5t-72 -42t-99 -15.5zM182 -42q63 0 63 -51q0 -6 -0.5 -11t-2.5 -16q-5 -23 -14.5 -45.5t-22 -42.5t-28 -37.5t-31.5 -29.5h-83q29 22 47.5 45.5t32.5 53.5
q-23 2 -31 14.5t-8 30.5q0 7 4 27q6 30 25.5 46t48.5 16z" />
    <glyph glyph-name="uni021A" unicode="&#x21a;" horiz-adv-x="569" 
d="M418 570l-114 -570h-145l114 570h-184l26 128h513l-26 -128h-184zM220 -42q63 0 63 -51q0 -6 -0.5 -11t-2.5 -16q-5 -23 -14.5 -45.5t-22 -42.5t-28 -37.5t-31.5 -29.5h-83q29 22 47.5 45.5t32.5 53.5q-23 2 -31 14.5t-8 30.5q0 7 4 27q6 30 25.5 46t48.5 16z" />
    <glyph glyph-name="uni021B" unicode="&#x21b;" horiz-adv-x="354" 
d="M182 0q-123 0 -123 99q0 8 1 20t3 23l54 271h-74l22 112h36q32 0 43 13t16 40l18 89h130l-28 -142h105l-23 -112h-105l-60 -301h95l-22 -112h-88zM139 -42q63 0 63 -51q0 -6 -0.5 -11t-2.5 -16q-5 -23 -14.5 -45.5t-22 -42.5t-28 -37.5t-31.5 -29.5h-83q29 22 47.5 45.5
t32.5 53.5q-23 2 -31 14.5t-8 30.5q0 7 4 27q6 30 25.5 46t48.5 16z" />
    <glyph glyph-name="uni0237" unicode="&#x237;" horiz-adv-x="276" 
d="M-75 -88h75l123 613h140l-119 -586q-14 -69 -51.5 -104t-110.5 -35h-79z" />
    <glyph glyph-name="uni0259" unicode="&#x259;" horiz-adv-x="515" 
d="M199 -12q-30 0 -63 7t-60.5 23.5t-46 44.5t-18.5 71q0 40 19 73t59 56.5t103 37t151 16.5q2 9 2 14v9q0 38 -20.5 61t-72.5 23q-17 0 -32.5 -3t-31 -11.5t-31 -22.5t-33.5 -36l-86 68q49 65 102.5 91.5t121.5 26.5q112 0 167 -60.5t55 -165.5q0 -63 -20 -121.5t-57 -103
t-90 -71.5t-118 -27zM207 95q45 0 76.5 29.5t40.5 80.5l4 23q-56 -3 -91.5 -10t-55.5 -17.5t-27 -23.5t-7 -29q0 -17 6 -27.5t15 -16t19.5 -7.5t19.5 -2z" />
    <glyph glyph-name="uni02BB" unicode="&#x2bb;" horiz-adv-x="600" 
d="M308 576q-63 0 -63 51q0 6 0.5 11t2.5 16q4 22 14 45t22.5 43t28 37.5t31.5 29.5h83q-29 -22 -47.5 -45.5t-32.5 -53.5q23 -2 31 -14.5t8 -30.5q0 -7 -4 -27q-6 -30 -25.5 -46t-48.5 -16z" />
    <glyph glyph-name="uni02BC" unicode="&#x2bc;" horiz-adv-x="585" 
d="M348 525h-97l50 215h156z" />
    <glyph glyph-name="circumflex" unicode="&#x2c6;" horiz-adv-x="585" 
d="M396 794l100 -158l-75 -57l-99 115l-134 -115l-70 57l156 158h122z" />
    <glyph glyph-name="caron" unicode="&#x2c7;" horiz-adv-x="585" 
d="M241 588l-101 158l74 57l96 -115l137 115l72 -57l-155 -158h-123z" />
    <glyph glyph-name="breve" unicode="&#x2d8;" horiz-adv-x="585" 
d="M305 579q-42 0 -71.5 15t-49.5 39t-31.5 54.5t-17.5 61.5l80 42l18 -39q16 -34 32 -53t48 -19q27 0 48.5 18.5t49.5 55.5l28 37l83 -46q-18 -32 -39 -62t-47 -53t-58 -37t-73 -14z" />
    <glyph glyph-name="dotaccent" unicode="&#x2d9;" horiz-adv-x="585" 
d="M307 591q-43 0 -59.5 16.5t-16.5 42.5q0 6 1.5 13.5t5.5 28.5q5 29 25.5 48t68.5 19q43 0 59.5 -16.5t16.5 -42.5q0 -6 -1.5 -13.5t-5.5 -28.5q-5 -29 -25.5 -48t-68.5 -19z" />
    <glyph glyph-name="ring" unicode="&#x2da;" horiz-adv-x="585" 
d="M298 558q-56 0 -92 34.5t-36 87.5q0 37 13.5 67.5t36 52t52.5 33t63 11.5q56 0 92 -34.5t36 -87.5q0 -38 -13.5 -68t-36 -51.5t-52.5 -33t-63 -11.5zM304 632q23 0 38 14t20 38q4 19 6 29t2 18q0 39 -41 39q-23 0 -38 -14t-20 -38q-4 -19 -6 -29t-2 -18q0 -39 41 -39z
" />
    <glyph glyph-name="ogonek" unicode="&#x2db;" horiz-adv-x="585" 
d="M191 -212q-50 0 -84.5 21t-34.5 62q0 38 32.5 71.5t105.5 53.5l-3 17l68 6l19 -19q-41 -25 -65 -42.5t-36 -30.5t-15 -22t-3 -16q0 -12 7.5 -20.5t27.5 -8.5q16 0 30 5.5t24 21.5l52 -49q-19 -23 -48 -36.5t-77 -13.5z" />
    <glyph glyph-name="tilde" unicode="&#x2dc;" horiz-adv-x="585" 
d="M387 601q-22 0 -39 6t-37 15q-19 9 -35.5 15.5t-36.5 6.5q-17 0 -29 -6t-29 -19l-43 69q23 29 51.5 45.5t63.5 16.5q22 0 39 -6t37 -15q19 -9 35.5 -15.5t36.5 -6.5q17 0 29 6t29 19l43 -69q-23 -29 -51.5 -45.5t-63.5 -16.5z" />
    <glyph glyph-name="hungarumlaut" unicode="&#x2dd;" horiz-adv-x="585" 
d="M220 580l-77 38l113 193l105 -56zM415 580l-76 38l113 193l105 -56z" />
    <glyph glyph-name="uni0300" unicode="&#x300;" 
d="M-118 756l126 59l68 -196l-89 -39z" />
    <glyph glyph-name="uni0301" unicode="&#x301;" 
d="M29 579l-84 46l119 190l112 -60z" />
    <glyph glyph-name="uni0302" unicode="&#x302;" 
d="M104 794l100 -158l-75 -57l-99 115l-134 -115l-70 57l156 158h122z" />
    <glyph glyph-name="uni0303" unicode="&#x303;" 
d="M95 601q-22 0 -39 6t-37 15q-19 9 -35.5 15.5t-36.5 6.5q-17 0 -29 -6t-29 -19l-43 69q23 29 51.5 45.5t63.5 16.5q22 0 39 -6t37 -15q19 -9 35.5 -15.5t36.5 -6.5q17 0 29 6t29 19l43 -69q-23 -29 -51.5 -45.5t-63.5 -16.5z" />
    <glyph glyph-name="uni0304" unicode="&#x304;" 
d="M-101 727h278l-20 -102h-278z" />
    <glyph glyph-name="uni0306" unicode="&#x306;" 
d="M13 579q-42 0 -71.5 15t-49.5 39t-31.5 54.5t-17.5 61.5l80 42l18 -39q16 -34 32 -53t48 -19q27 0 48.5 18.5t49.5 55.5l28 37l83 -46q-18 -32 -39 -62t-47 -53t-58 -37t-73 -14z" />
    <glyph glyph-name="uni0307" unicode="&#x307;" 
d="M15 591q-43 0 -59.5 16.5t-16.5 42.5q0 6 1.5 13.5t5.5 28.5q5 29 25.5 48t68.5 19q43 0 59.5 -16.5t16.5 -42.5q0 -6 -1.5 -13.5t-5.5 -28.5q-5 -29 -25.5 -48t-68.5 -19z" />
    <glyph glyph-name="uni0308" unicode="&#x308;" 
d="M-85 600q-35 0 -50 14t-15 34q0 5 1.5 14t4.5 26q5 26 24 44.5t61 18.5q35 0 50 -14t15 -34q0 -5 -1.5 -14t-4.5 -26q-5 -26 -24 -44.5t-61 -18.5zM115 600q-35 0 -50 14t-15 34q0 5 1.5 14t4.5 26q5 26 24 44.5t61 18.5q35 0 50 -14t15 -34q0 -5 -1.5 -14t-4.5 -26
q-5 -26 -24 -44.5t-61 -18.5z" />
    <glyph glyph-name="uni0309" unicode="&#x309;" 
d="M-64 802h146q39 0 58.5 -16.5t19.5 -40.5q0 -32 -15 -56.5t-36 -51.5l-56 -66l-69 34l49 93h-117z" />
    <glyph glyph-name="uni030A" unicode="&#x30a;" 
d="M6 558q-56 0 -92 34.5t-36 87.5q0 37 13.5 67.5t36 52t52.5 33t63 11.5q56 0 92 -34.5t36 -87.5q0 -38 -13.5 -68t-36 -51.5t-52.5 -33t-63 -11.5zM12 632q23 0 38 14t20 38q4 19 6 29t2 18q0 39 -41 39q-23 0 -38 -14t-20 -38q-4 -19 -6 -29t-2 -18q0 -39 41 -39z" />
    <glyph glyph-name="uni030B" unicode="&#x30b;" 
d="M-72 580l-77 38l113 193l105 -56zM123 580l-76 38l113 193l105 -56z" />
    <glyph glyph-name="uni030C" unicode="&#x30c;" 
d="M-51 588l-101 158l74 57l96 -115l137 115l72 -57l-155 -158h-123z" />
    <glyph glyph-name="uni0312" unicode="&#x312;" 
d="M9 576q-63 0 -63 51q0 6 0.5 11t2.5 16q4 22 14 45t22.5 43t28 37.5t31.5 29.5h83q-29 -22 -47.5 -45.5t-32.5 -53.5q23 -2 31 -14.5t8 -30.5q0 -7 -4 -27q-6 -30 -25.5 -46t-48.5 -16z" />
    <glyph glyph-name="uni0315" unicode="&#x315;" 
d="M56 525h-97l50 215h156z" />
    <glyph glyph-name="uni031B" unicode="&#x31b;" 
d="M133 531q-9 -47 -33 -70.5t-79 -23.5h-154l18 88h122l21 106h125z" />
    <glyph glyph-name="uni0323" unicode="&#x323;" 
d="M-35 -202q-38 0 -54 14.5t-16 37.5q0 5 1.5 12.5t4.5 25.5q5 26 23.5 42t60.5 16q37 0 53 -14.5t16 -37.5q0 -5 -1.5 -12.5t-4.5 -25.5q-5 -26 -23.5 -42t-59.5 -16z" />
    <glyph glyph-name="uni0326" unicode="&#x326;" 
d="M-11 -42q63 0 63 -51q0 -6 -0.5 -11t-2.5 -16q-5 -23 -14.5 -45.5t-22 -42.5t-28 -37.5t-31.5 -29.5h-83q29 22 47.5 45.5t32.5 53.5q-23 2 -31 14.5t-8 30.5q0 7 4 27q6 30 25.5 46t48.5 16z" />
    <glyph glyph-name="uni0327" unicode="&#x327;" 
d="M-23 -212q-42 0 -70 13.5t-41 32.5l52 52q6 -9 21 -18.5t37 -9.5q21 0 35.5 7t14.5 24q0 12 -14 22t-52 14l-22 2l44 103h66l-34 -85l2 -4q22 7 43 7q26 0 44 -15t18 -41t-11.5 -45.5t-31 -32.5t-45.5 -19.5t-56 -6.5z" />
    <glyph glyph-name="uni0328" unicode="&#x328;" 
d="M-102 -212q-50 0 -84.5 21t-34.5 62q0 38 32.5 71.5t105.5 53.5l-3 17l68 6l19 -19q-41 -25 -65 -42.5t-36 -30.5t-15 -22t-3 -16q0 -12 7.5 -20.5t27.5 -8.5q16 0 30 5.5t24 21.5l52 -49q-19 -23 -48 -36.5t-77 -13.5z" />
    <glyph glyph-name="uni037E" unicode="&#x37e;" horiz-adv-x="327" 
d="M139 169q43 0 60 -20t17 -46q0 -8 -2 -20.5t-4 -23.5q-11 -53 -47.5 -109.5t-93.5 -96.5h-106q42 33 73.5 66t51.5 73q-28 6 -39.5 22.5t-11.5 34.5q0 8 2.5 21.5t4.5 24.5q7 34 30.5 54t64.5 20zM187 356q-42 0 -59 19t-17 41q0 8 2.5 21.5t4.5 24.5q6 33 30.5 53.5
t66.5 20.5t59 -19t17 -41q0 -8 -2.5 -21.5t-4.5 -24.5q-6 -33 -30.5 -53.5t-66.5 -20.5z" />
    <glyph glyph-name="tonos" unicode="&#x384;" horiz-adv-x="588" 
d="M417 579l-89 29l73 207l125 -31z" />
    <glyph glyph-name="dieresistonos" unicode="&#x385;" horiz-adv-x="588" 
d="M403 579l-60 21l69 216l95 -27zM260 605q-29 0 -41.5 13t-12.5 32q0 5 1.5 13.5t3.5 22.5q5 25 21.5 42.5t50.5 17.5q29 0 41.5 -13t12.5 -32q0 -8 -6 -36q-4 -25 -20.5 -42.5t-50.5 -17.5zM543 605q-29 0 -41.5 13t-12.5 32q0 5 1.5 13.5t3.5 22.5q5 25 21.5 42.5
t50.5 17.5q29 0 41.5 -13t12.5 -32q0 -8 -6 -36q-4 -25 -20.5 -42.5t-50.5 -17.5z" />
    <glyph glyph-name="Alphatonos" unicode="&#x386;" horiz-adv-x="658" 
d="M441 0l-16 170h-223l-82 -170h-155l359 698h185l79 -698h-147zM394 567h-8l-127 -276h156zM194 579l-89 29l73 207l125 -31z" />
    <glyph glyph-name="anoteleia" unicode="&#x387;" horiz-adv-x="327" 
d="M187 356q-42 0 -59 19t-17 41q0 8 2.5 21.5t4.5 24.5q6 33 30.5 53.5t66.5 20.5t59 -19t17 -41q0 -8 -2.5 -21.5t-4.5 -24.5q-6 -33 -30.5 -53.5t-66.5 -20.5z" />
    <glyph glyph-name="Epsilontonos" unicode="&#x388;" horiz-adv-x="666" 
d="M110 0l140 698h449l-26 -128h-303l-31 -153h268l-26 -128h-268l-32 -161h314l-26 -128h-459zM138 579l-89 29l73 207l125 -31z" />
    <glyph glyph-name="Etatonos" unicode="&#x389;" horiz-adv-x="789" 
d="M574 289h-260l-58 -289h-145l140 698h145l-56 -281h260l56 281h145l-140 -698h-145zM138 579l-89 29l73 207l125 -31z" />
    <glyph glyph-name="Iotatonos" unicode="&#x38a;" horiz-adv-x="530" 
d="M111 0l24 118h86l93 462h-86l23 118h318l-24 -118h-86l-93 -462h86l-23 -118h-318zM138 579l-89 29l73 207l125 -31z" />
    <glyph glyph-name="Omicrontonos" unicode="&#x38c;" horiz-adv-x="740" 
d="M353 -12q-50 0 -95.5 16.5t-80 51t-55 88t-20.5 127.5q0 90 27 170t75 140t114 94.5t144 34.5q50 0 95.5 -16.5t80 -51t55 -88t20.5 -127.5q0 -90 -27 -170t-75 -140t-114 -94.5t-144 -34.5zM363 117q70 0 115 47t62 132l21 105q3 16 4 28.5t1 23.5q0 128 -114 128
q-70 0 -115 -47t-62 -132l-21 -105q-3 -15 -4 -28t-1 -24q0 -128 114 -128zM138 579l-89 29l73 207l125 -31z" />
    <glyph glyph-name="Upsilontonos" unicode="&#x38e;" horiz-adv-x="765" 
d="M326 0l54 271l-148 427h148l94 -294h7l201 294h160l-319 -440l-52 -258h-145zM138 579l-89 29l73 207l125 -31z" />
    <glyph glyph-name="Omegatonos" unicode="&#x38f;" horiz-adv-x="753" 
d="M75 128h155l2 10q-49 31 -75 86.5t-26 136.5q0 71 24.5 134.5t70 111t109 75.5t141.5 28q61 0 109 -19.5t81 -54t50.5 -81.5t17.5 -102q0 -52 -12.5 -99.5t-38.5 -88t-65 -73t-91 -54.5l-2 -10h155l-26 -128h-260l40 190q55 17 88 60.5t43 94.5l16 87q2 8 2.5 17t0.5 17
q0 22 -7.5 42.5t-22.5 36t-38 24.5t-55 9q-37 0 -66.5 -12.5t-50.5 -33t-34 -47t-18 -53.5l-12 -67q-3 -16 -4.5 -30t-1.5 -26q0 -37 20 -71.5t55 -47.5l-40 -190h-260zM138 579l-89 29l73 207l125 -31z" />
    <glyph glyph-name="iotadieresistonos" unicode="&#x390;" horiz-adv-x="311" 
d="M250 0h-88q-123 0 -123 99q0 8 1 20t3 23l77 383h140l-83 -413h95zM221 579l-60 21l69 216l95 -27zM78 605q-29 0 -41.5 13t-12.5 32q0 5 1.5 13.5t3.5 22.5q5 25 21.5 42.5t50.5 17.5q29 0 41.5 -13t12.5 -32q0 -8 -6 -36q-4 -25 -20.5 -42.5t-50.5 -17.5zM361 605
q-29 0 -41.5 13t-12.5 32q0 5 1.5 13.5t3.5 22.5q5 25 21.5 42.5t50.5 17.5q29 0 41.5 -13t12.5 -32q0 -8 -6 -36q-4 -25 -20.5 -42.5t-50.5 -17.5z" />
    <glyph glyph-name="Alpha" unicode="&#x391;" horiz-adv-x="658" 
d="M441 0l-16 170h-223l-82 -170h-155l359 698h185l79 -698h-147zM394 567h-8l-127 -276h156z" />
    <glyph glyph-name="Beta" unicode="&#x392;" horiz-adv-x="651" 
d="M162 698h298q38 0 70 -8.5t55 -26.5t36 -45t13 -63q0 -69 -33.5 -121.5t-102.5 -71.5l-1 -5q55 -15 79.5 -50.5t24.5 -84.5q0 -50 -15 -90.5t-45.5 -70t-75.5 -45.5t-105 -16h-338zM360 124q70 0 83 65q5 26 7 38t2 19q0 20 -13 32.5t-42 12.5h-171l-33 -167h167z
M391 410q35 0 55.5 14t27.5 48q5 26 7 37t2 18q0 21 -13 34t-41 13h-146l-33 -164h141z" />
    <glyph glyph-name="Gamma" unicode="&#x393;" horiz-adv-x="497" 
d="M162 698h397l-26 -128h-252l-114 -570h-145z" />
    <glyph glyph-name="uni0394" unicode="&#x394;" horiz-adv-x="674" 
d="M17 119l314 579h185l82 -579l-24 -119h-580zM401 567h-8l-221 -439h281z" />
    <glyph glyph-name="Epsilon" unicode="&#x395;" horiz-adv-x="578" 
d="M22 0l140 698h449l-26 -128h-303l-31 -153h268l-26 -128h-268l-32 -161h314l-26 -128h-459z" />
    <glyph glyph-name="Zeta" unicode="&#x396;" horiz-adv-x="573" 
d="M486 0h-497l26 128l410 442h-306l26 128h478l-26 -128l-410 -442h325z" />
    <glyph glyph-name="Eta" unicode="&#x397;" horiz-adv-x="700" 
d="M485 289h-260l-58 -289h-145l140 698h145l-56 -281h260l56 281h145l-140 -698h-145z" />
    <glyph glyph-name="Theta" unicode="&#x398;" horiz-adv-x="705" 
d="M313 -12q-52 0 -98.5 16.5t-81.5 51t-55.5 88t-20.5 127.5q0 90 27 170t75.5 140t115.5 94.5t147 34.5q52 0 98.5 -16.5t81.5 -51t55.5 -88t20.5 -127.5q0 -90 -27 -170t-75.5 -140t-115.5 -94.5t-147 -34.5zM323 117q74 0 119.5 47t62.5 132l21 105q3 16 4 28.5t1 23.5
q0 128 -119 128q-74 0 -119.5 -47t-62.5 -132l-21 -105q-3 -16 -4 -28.5t-1 -23.5q0 -128 119 -128zM261 289l26 128h188l-26 -128h-188z" />
    <glyph glyph-name="Iota" unicode="&#x399;" horiz-adv-x="415" 
d="M-4 0l24 118h86l93 462h-86l23 118h318l-24 -118h-86l-93 -462h86l-23 -118h-318z" />
    <glyph glyph-name="Kappa" unicode="&#x39a;" horiz-adv-x="657" 
d="M319 299l-116 -120l-36 -179h-145l140 698h145l-67 -334h7l110 131l188 203h176l-288 -300l163 -398h-160z" />
    <glyph glyph-name="Lambda" unicode="&#x39b;" horiz-adv-x="640" 
d="M488 698l82 -698h-146l-25 269l-18 275h-7l-113 -251l-143 -293h-154l361 698h163z" />
    <glyph glyph-name="Mu" unicode="&#x39c;" horiz-adv-x="801" 
d="M628 461h-6l-96 -134l-155 -212l-74 227l-39 121h-5l-93 -463h-138l140 698h152l101 -332h4l233 332h161l-140 -698h-138z" />
    <glyph glyph-name="Nu" unicode="&#x39d;" horiz-adv-x="700" 
d="M302 336l-42 139h-6l-95 -475h-137l140 698h157l113 -336l42 -139h6l95 475h137l-140 -698h-157z" />
    <glyph glyph-name="Xi" unicode="&#x39e;" horiz-adv-x="588" 
d="M141 698h480l-26 -128h-480zM144 417h362l-26 -128h-362zM27 128h480l-26 -128h-480z" />
    <glyph glyph-name="Omicron" unicode="&#x39f;" horiz-adv-x="695" 
d="M308 -12q-50 0 -95.5 16.5t-80 51t-55 88t-20.5 127.5q0 90 27 170t75 140t114 94.5t144 34.5q50 0 95.5 -16.5t80 -51t55 -88t20.5 -127.5q0 -90 -27 -170t-75 -140t-114 -94.5t-144 -34.5zM318 117q70 0 115 47t62 132l21 105q3 16 4 28.5t1 23.5q0 128 -114 128
q-70 0 -115 -47t-62 -132l-21 -105q-3 -15 -4 -28t-1 -24q0 -128 114 -128z" />
    <glyph glyph-name="Pi" unicode="&#x3a0;" horiz-adv-x="685" 
d="M162 698h535l-140 -698h-145l114 569h-245l-114 -569h-145z" />
    <glyph glyph-name="Rho" unicode="&#x3a1;" horiz-adv-x="637" 
d="M22 0l140 698h263q105 0 162.5 -49t57.5 -138q0 -57 -20 -104.5t-56 -81t-86 -52t-109 -18.5h-156l-51 -255h-145zM244 383h149q34 0 58.5 18t32.5 55q5 23 8 37.5t3 22.5q0 23 -15.5 38.5t-48.5 15.5h-150z" />
    <glyph glyph-name="Sigma" unicode="&#x3a3;" horiz-adv-x="600" 
d="M-9 0l26 128l266 227l-168 215l26 128h495l-26 -128h-334l177 -226l-253 -216h322l-26 -128h-505z" />
    <glyph glyph-name="Tau" unicode="&#x3a4;" horiz-adv-x="569" 
d="M418 570l-114 -570h-145l114 570h-184l26 128h513l-26 -128h-184z" />
    <glyph glyph-name="Upsilon" unicode="&#x3a5;" horiz-adv-x="624" 
d="M185 0l54 271l-148 427h148l94 -294h7l201 294h160l-319 -440l-52 -258h-145z" />
    <glyph glyph-name="Phi" unicode="&#x3a6;" horiz-adv-x="821" 
d="M290 32h-1q-52 0 -96.5 16.5t-76.5 48t-50.5 77t-18.5 103.5q0 92 25 166t72.5 125.5t116.5 79.5t158 28h1l13 64h145l-13 -64h1q52 0 96.5 -16.5t77 -48t50.5 -77t18 -103.5q0 -92 -25 -166t-72.5 -126t-116.5 -79.5t-158 -27.5h-1l-15 -76h-145zM398 557h-1
q-72 0 -120 -40.5t-68 -134.5l-9 -44q-6 -30 -6 -61q0 -68 31 -97t91 -29h1zM458 151q72 0 120 40t68 135l9 44q6 30 6 61q0 68 -31 97t-91 29h-1l-81 -406h1z" />
    <glyph glyph-name="Chi" unicode="&#x3a7;" horiz-adv-x="641" 
d="M571 0h-157l-99 243h-8l-179 -243h-168l290 369l-146 329h156l95 -230h8l175 230h168l-287 -351z" />
    <glyph glyph-name="Psi" unicode="&#x3a8;" horiz-adv-x="809" 
d="M314 176q-47 0 -86.5 15.5t-68 43.5t-44 66.5t-15.5 85.5q0 21 2.5 46t8.5 55l42 210h145l-44 -220q-8 -36 -9.5 -56t-1.5 -35q0 -45 24.5 -68.5t70.5 -23.5l81 403h145l-81 -403q30 0 54 7.5t43 27t33 52.5t25 84l47 232h145l-47 -233q-15 -74 -41 -128.5t-65 -90
t-93 -53t-125 -17.5l-35 -176h-145z" />
    <glyph glyph-name="uni03A9" unicode="&#x3a9;" horiz-adv-x="696" 
d="M18 128h155l2 10q-49 31 -75 86.5t-26 136.5q0 71 24.5 134.5t70 111t109 75.5t141.5 28q61 0 109 -19.5t81 -54t50.5 -81.5t17.5 -102q0 -52 -12.5 -99.5t-38.5 -88t-65 -73t-91 -54.5l-2 -10h155l-26 -128h-260l40 190q55 17 88 60.5t43 94.5l16 87q2 8 2.5 17t0.5 17
q0 22 -7.5 42.5t-22.5 36t-38 24.5t-55 9q-37 0 -66.5 -12.5t-50.5 -33t-34 -47t-18 -53.5l-12 -67q-3 -16 -4.5 -30t-1.5 -26q0 -37 20 -71.5t55 -47.5l-40 -190h-260z" />
    <glyph glyph-name="Iotadieresis" unicode="&#x3aa;" horiz-adv-x="415" 
d="M-4 0l24 118h86l93 462h-86l23 118h318l-24 -118h-86l-93 -462h86l-23 -118h-318zM209 760q-35 0 -50 14.5t-15 34.5q0 5 1.5 13t4.5 26q5 26 24 44.5t61 18.5q35 0 50 -14.5t15 -34.5q0 -5 -1.5 -13t-4.5 -26q-5 -26 -24 -44.5t-61 -18.5zM409 760q-35 0 -50 14.5
t-15 34.5q0 5 1.5 13t4.5 26q5 26 24 44.5t61 18.5q35 0 50 -14.5t15 -34.5q0 -5 -1.5 -13t-4.5 -26q-5 -26 -24 -44.5t-61 -18.5z" />
    <glyph glyph-name="Upsilondieresis" unicode="&#x3ab;" horiz-adv-x="624" 
d="M185 0l54 271l-148 427h148l94 -294h7l201 294h160l-319 -440l-52 -258h-145zM296 760q-35 0 -50 14.5t-15 34.5q0 5 1.5 13t4.5 26q5 26 24 44.5t61 18.5q35 0 50 -14.5t15 -34.5q0 -5 -1.5 -13t-4.5 -26q-5 -26 -24 -44.5t-61 -18.5zM496 760q-35 0 -50 14.5t-15 34.5
q0 5 1.5 13t4.5 26q5 26 24 44.5t61 18.5q35 0 50 -14.5t15 -34.5q0 -5 -1.5 -13t-4.5 -26q-5 -26 -24 -44.5t-61 -18.5z" />
    <glyph glyph-name="alphatonos" unicode="&#x3ac;" horiz-adv-x="648" 
d="M572 0h-74q-44 0 -69.5 25.5t-25.5 73.5v49h-3q-24 -47 -48 -77.5t-49 -49t-52 -26t-58 -7.5q-76 0 -119 45t-43 137q0 85 19 153t52 115.5t78 73t98 25.5q76 0 113.5 -37.5t46.5 -122.5h4l32 70l40 78h155l-166 -259l32 -154h59zM223 103q10 0 20 4.5t21.5 15t24.5 28.5
t28 46l36 66l-9 64q-8 54 -22.5 74.5t-36.5 20.5q-28 0 -53 -27t-38 -90l-14 -70q-4 -20 -5 -33.5t-1 -31.5q0 -36 13.5 -51.5t35.5 -15.5zM381 579l-89 29l73 207l125 -31z" />
    <glyph glyph-name="epsilontonos" unicode="&#x3ad;" horiz-adv-x="525" 
d="M483 101q-47 -59 -105.5 -86t-145.5 -27q-52 0 -90.5 10.5t-64 29.5t-38 44.5t-12.5 54.5q0 57 36 94.5t105 46.5l1 5q-42 11 -62.5 37t-20.5 59q0 32 15.5 62.5t45.5 54t74.5 37.5t103.5 14q65 0 116 -20.5t86 -61.5l-88 -83q-46 52 -120 52q-44 0 -65.5 -13t-27.5 -36
q-3 -12 -3 -22q0 -37 50 -37h107l-20 -98h-119q-32 0 -51 -12.5t-24 -35.5q-1 -3 -1.5 -7.5t-0.5 -13.5q0 -21 18.5 -34.5t65.5 -13.5q49 0 82.5 14.5t66.5 53.5zM380 579l-89 29l73 207l125 -31z" />
    <glyph glyph-name="etatonos" unicode="&#x3ae;" horiz-adv-x="596" 
d="M24 0l83 413h-59l22 112h93q38 0 63 -20t25 -57q0 -8 -1 -17t-2 -13l-3 -15h6q30 63 71 98.5t103 35.5q61 0 93.5 -35.5t32.5 -100.5q0 -19 -2.5 -36.5t-6.5 -37.5l-105 -527h-140l102 512q3 14 5 27.5t2 28.5q0 23 -12 37.5t-41 14.5q-26 0 -47 -14t-38 -34
q-18 -21 -31 -46.5t-19 -55.5l-54 -270h-140zM403 579l-89 29l73 207l125 -31z" />
    <glyph glyph-name="iotatonos" unicode="&#x3af;" horiz-adv-x="311" 
d="M250 0h-88q-123 0 -123 99q0 8 1 20t3 23l77 383h140l-83 -413h95zM244 579l-89 29l73 207l125 -31z" />
    <glyph glyph-name="upsilondieresistonos" unicode="&#x3b0;" horiz-adv-x="560" 
d="M192 239q-5 -26 -7.5 -39.5t-2.5 -25.5q0 -73 68 -73q19 0 35 5.5t29 20t23.5 40t18.5 66.5l59 292h140l-61 -300q-24 -118 -86.5 -177.5t-162.5 -59.5q-47 0 -83.5 14t-62.5 38t-39.5 56.5t-13.5 69.5q0 21 1.5 40t6.5 43l55 276h140zM357 579l-60 21l69 216l95 -27z
M214 605q-29 0 -41.5 13t-12.5 32q0 5 1.5 13.5t3.5 22.5q5 25 21.5 42.5t50.5 17.5q29 0 41.5 -13t12.5 -32q0 -8 -6 -36q-4 -25 -20.5 -42.5t-50.5 -17.5zM497 605q-29 0 -41.5 13t-12.5 32q0 5 1.5 13.5t3.5 22.5q5 25 21.5 42.5t50.5 17.5q29 0 41.5 -13t12.5 -32
q0 -8 -6 -36q-4 -25 -20.5 -42.5t-50.5 -17.5z" />
    <glyph glyph-name="alpha" unicode="&#x3b1;" horiz-adv-x="648" 
d="M572 0h-74q-44 0 -69.5 25.5t-25.5 73.5v49h-3q-24 -47 -48 -77.5t-49 -49t-52 -26t-58 -7.5q-76 0 -119 45t-43 137q0 85 19 153t52 115.5t78 73t98 25.5q76 0 113.5 -37.5t46.5 -122.5h4l32 70l40 78h155l-166 -259l32 -154h59zM223 103q10 0 20 4.5t21.5 15t24.5 28.5
t28 46l36 66l-9 64q-8 54 -22.5 74.5t-36.5 20.5q-28 0 -53 -27t-38 -90l-14 -70q-4 -20 -5 -33.5t-1 -31.5q0 -36 13.5 -51.5t35.5 -15.5z" />
    <glyph glyph-name="beta" unicode="&#x3b2;" horiz-adv-x="580" 
d="M115 506q13 64 38 110.5t59.5 76.5t77.5 44.5t91 14.5q94 0 142 -46.5t48 -131.5q0 -77 -40.5 -124t-105.5 -67l-1 -5q54 -12 84 -48t30 -99q0 -43 -15.5 -86t-44.5 -78t-70 -57t-92 -22q-63 0 -99 30t-41 73h-5l-58 -291h-140zM299 434h39q29 0 52.5 20.5t32.5 61.5
q5 24 7 37t2 24q0 29 -16.5 45.5t-45.5 16.5q-19 0 -36 -6t-32 -21t-27 -40t-19 -62l-62 -306q-21 -103 84 -103q48 0 76 22t37 70q5 24 6.5 37t1.5 24q0 33 -18.5 51t-59.5 18h-45z" />
    <glyph glyph-name="gamma" unicode="&#x3b3;" horiz-adv-x="544" 
d="M157 0l-58 413h-59l22 112h79q41 0 64 -20.5t26 -56.5l13 -142l9 -159h7q47 80 88 176t71 202h149q-38 -125 -106 -261.5t-165 -263.5l-40 -200h-140z" />
    <glyph glyph-name="delta" unicode="&#x3b4;" horiz-adv-x="542" 
d="M382 628l-96 9l-1 -4l85 -63q41 -30 68 -59.5t43.5 -59.5t23 -63t6.5 -70q0 -71 -20.5 -131.5t-56.5 -104.5t-86 -69t-108 -25q-97 0 -153 57.5t-56 161.5q0 72 22.5 125.5t57 89t75 53t76.5 17.5l1 5l-110 98l29 145h377l-22 -112h-155zM368 339q0 29 -9 51.5t-35 50.5
q-57 -6 -89 -43t-44 -95q-11 -49 -16 -77t-5 -42q0 -38 19 -60.5t56 -22.5q81 0 105 114q11 51 14.5 78t3.5 46z" />
    <glyph glyph-name="epsilon" unicode="&#x3b5;" horiz-adv-x="525" 
d="M483 101q-47 -59 -105.5 -86t-145.5 -27q-52 0 -90.5 10.5t-64 29.5t-38 44.5t-12.5 54.5q0 57 36 94.5t105 46.5l1 5q-42 11 -62.5 37t-20.5 59q0 32 15.5 62.5t45.5 54t74.5 37.5t103.5 14q65 0 116 -20.5t86 -61.5l-88 -83q-46 52 -120 52q-44 0 -65.5 -13t-27.5 -36
q-3 -12 -3 -22q0 -37 50 -37h107l-20 -98h-119q-32 0 -51 -12.5t-24 -35.5q-1 -3 -1.5 -7.5t-0.5 -13.5q0 -21 18.5 -34.5t65.5 -13.5q49 0 82.5 14.5t66.5 53.5z" />
    <glyph glyph-name="zeta" unicode="&#x3b6;" horiz-adv-x="438" 
d="M154 740h366l-22 -112l-203 -197q-39 -38 -63.5 -67.5t-38 -54t-18.5 -46t-5 -43.5q0 -33 21.5 -56.5t78.5 -43.5l25 -9q40 -14 60.5 -36t20.5 -57q0 -17 -4.5 -32.5t-13.5 -33.5l-62 -127l-114 46l57 117l-25 9q-95 34 -139 84.5t-44 131.5q0 34 6.5 65.5t24 64t47 68
t75.5 76.5l161 145l1 5l-81 -9h-133z" />
    <glyph glyph-name="eta" unicode="&#x3b7;" horiz-adv-x="596" 
d="M24 0l83 413h-59l22 112h93q38 0 63 -20t25 -57q0 -8 -1 -17t-2 -13l-3 -15h6q30 63 71 98.5t103 35.5q61 0 93.5 -35.5t32.5 -100.5q0 -19 -2.5 -36.5t-6.5 -37.5l-105 -527h-140l102 512q3 14 5 27.5t2 28.5q0 23 -12 37.5t-41 14.5q-26 0 -47 -14t-38 -34
q-18 -21 -31 -46.5t-19 -55.5l-54 -270h-140z" />
    <glyph glyph-name="theta" unicode="&#x3b8;" horiz-adv-x="629" 
d="M142 375q41 0 65.5 -21.5t24.5 -54.5q0 -9 -2 -20t-5 -25l-5 -25q-2 -9 -3.5 -22.5t-1.5 -22.5q0 -38 18 -60.5t56 -22.5q39 0 67.5 28t40.5 87l27 135h-54q-53 0 -93 13.5t-67 36.5t-41 55t-14 70q0 41 17 83t50 75q32 32 73.5 50t94.5 18q97 0 152.5 -57.5t55.5 -161.5
q0 -29 -4.5 -69.5t-12.5 -86t-20.5 -92.5t-28 -90t-35 -78.5t-41.5 -57.5q-34 -34 -76.5 -52.5t-95.5 -18.5q-97 0 -151 55.5t-54 147.5q0 15 2 31t5 31l2 10h-59l22 112h91zM294 526q0 -29 18 -46t65 -17h70l5 23q4 18 5.5 33.5t1.5 36.5q0 38 -18 60.5t-56 22.5
q-39 0 -59 -23.5t-27 -54.5q-2 -11 -3.5 -18.5t-1.5 -16.5z" />
    <glyph glyph-name="iota" unicode="&#x3b9;" horiz-adv-x="311" 
d="M250 0h-88q-123 0 -123 99q0 8 1 20t3 23l77 383h140l-83 -413h95z" />
    <glyph glyph-name="kappa" unicode="&#x3ba;" horiz-adv-x="555" 
d="M261 214l-78 -69l-29 -145h-140l105 525h140l-46 -226h7l71 83l112 107q23 21 44 28.5t54 7.5h70l-23 -112h-59l-121 -109l136 -304h-161z" />
    <glyph glyph-name="lambda" unicode="&#x3bb;" horiz-adv-x="536" 
d="M238 628h-86l22 112h101q44 0 66 -21.5t27 -59.5l66 -547h64l-22 -112h-79q-44 0 -66 21.5t-27 59.5l-16 137l-4 138h-11l-54 -138l-112 -218h-149l292 525z" />
    <glyph glyph-name="uni03BC" unicode="&#x3bc;" horiz-adv-x="587" 
d="M-26 -200l145 725h140l-62 -310q-3 -14 -5 -29t-2 -26q0 -26 11.5 -40.5t37.5 -14.5t46.5 13.5t37.5 34.5q36 44 48 102l54 270h140l-83 -413h59l-22 -112h-93q-38 0 -63 20t-25 57q0 8 1 17t2 13l3 15h-6q-18 -38 -34.5 -64t-33.5 -41.5t-35 -22t-38 -6.5q-52 0 -64 56
h-5l5 -147l-19 -97h-140z" />
    <glyph glyph-name="nu" unicode="&#x3bd;" horiz-adv-x="551" 
d="M138 0l-39 413h-59l22 112h79q41 0 64.5 -20.5t25.5 -56.5l7 -121l6 -202h7q31 53 56.5 102.5t47 98t39 97.5t32.5 102h149q-38 -125 -104 -258t-163 -267h-170z" />
    <glyph glyph-name="xi" unicode="&#x3be;" horiz-adv-x="426" 
d="M371 628q-42 0 -70.5 -21t-37.5 -66q-2 -8 -3 -18t-1 -21q0 -70 76 -70h53l-23 -111h-75q-54 0 -83 -21.5t-37 -59.5q-3 -15 -3 -31q0 -30 20.5 -51.5t68.5 -39.5l19 -7q40 -14 60.5 -36t20.5 -57q0 -17 -4.5 -32.5t-13.5 -33.5l-62 -127l-114 46l57 117l-19 7
q-88 32 -130 80t-42 124q0 36 12 67t36 55t59 39t80 19l1 5q-50 15 -73 44t-23 74q0 42 25 73t69 45l2 8h-113l23 112h398l-22 -112h-131z" />
    <glyph glyph-name="omicron" unicode="&#x3bf;" horiz-adv-x="542" 
d="M240 -12q-97 0 -153 57.5t-56 161.5q0 71 20.5 131.5t56.5 104.5t85.5 69t108.5 25q97 0 153 -57.5t56 -161.5q0 -71 -20.5 -131.5t-56.5 -104.5t-86 -69t-108 -25zM245 101q82 0 105 115l19 94q1 5 2 13t1 18q0 38 -19 60.5t-56 22.5q-82 0 -105 -115l-19 -94
q-1 -5 -2 -13t-1 -18q0 -38 19 -60.5t56 -22.5z" />
    <glyph glyph-name="pi" unicode="&#x3c0;" horiz-adv-x="645" 
d="M467 0q-123 0 -123 99q0 8 1 20t3 23l54 271h-129l-83 -413h-140l83 413h-80l22 112h586l-22 -112h-96l-61 -301h68l-22 -112h-61z" />
    <glyph glyph-name="rho" unicode="&#x3c1;" horiz-adv-x="550" 
d="M54 281q26 130 93 193t163 63q103 0 156 -53.5t53 -157.5q0 -73 -17.5 -135t-48.5 -107t-72.5 -70.5t-90.5 -25.5q-56 0 -90 30t-39 73h-5l-58 -291h-140zM252 101q47 0 70.5 28t35.5 87l19 94q1 5 2 13t1 18q0 38 -19 60.5t-56 22.5q-82 0 -105 -115l-21 -105
q-4 -21 -2.5 -39.5t10 -33t24.5 -22.5t41 -8z" />
    <glyph glyph-name="sigma1" unicode="&#x3c2;" horiz-adv-x="486" 
d="M245 -12l-30 11q-50 18 -84.5 39t-57 46.5t-32.5 57.5t-10 73q0 72 21 131.5t58.5 102t88.5 65.5t111 23q37 0 69.5 -9.5t57 -27.5t40.5 -43t21 -56l-118 -45q-9 31 -24.5 49.5t-53.5 18.5q-45 0 -75.5 -29t-46.5 -102q-5 -24 -7.5 -38.5t-2.5 -32.5q0 -17 4.5 -30.5
t16 -25.5t31 -22.5t49.5 -21.5l30 -11q40 -14 60.5 -36t20.5 -57q0 -17 -4.5 -32.5t-13.5 -33.5l-62 -127l-114 46z" />
    <glyph glyph-name="sigma" unicode="&#x3c3;" horiz-adv-x="568" 
d="M466 413l-1 -8q24 -24 35 -52.5t11 -69.5q0 -56 -20.5 -109.5t-56.5 -94.5t-86 -66t-108 -25q-97 0 -153 57.5t-56 161.5q0 75 22 134t61 100t93 62.5t119 21.5h276l-22 -112h-114zM315 413q-54 0 -83 -26t-40 -77l-19 -95q-1 -5 -2 -13t-1 -18q0 -38 19 -60.5t56 -22.5
q82 0 105 115l16 80q3 17 4.5 31t1.5 29q0 17 -4 30t-15 27h-38z" />
    <glyph glyph-name="tau" unicode="&#x3c4;" horiz-adv-x="485" 
d="M254 0q-123 0 -123 99q0 8 1 20t3 23l54 271h-136l22 112h432l-22 -112h-156l-60 -301h105l-22 -112h-98z" />
    <glyph glyph-name="upsilon" unicode="&#x3c5;" horiz-adv-x="560" 
d="M192 239q-5 -26 -7.5 -39.5t-2.5 -25.5q0 -73 68 -73q19 0 35 5.5t29 20t23.5 40t18.5 66.5l59 292h140l-61 -300q-24 -118 -86.5 -177.5t-162.5 -59.5q-47 0 -83.5 14t-62.5 38t-39.5 56.5t-13.5 69.5q0 21 1.5 40t6.5 43l55 276h140z" />
    <glyph glyph-name="phi" unicode="&#x3c6;" horiz-adv-x="738" 
d="M240 -12q-53 0 -92.5 16t-65.5 43t-38.5 62t-12.5 73q0 121 46.5 211t138.5 144l74 -89q-42 -29 -66 -67.5t-35 -91.5l-13 -63q-4 -20 -5 -31.5t-1 -20.5q0 -36 21.5 -55.5t70.5 -19.5l36 182q13 65 32.5 113.5t48.5 80t68.5 47t92.5 15.5q83 0 125 -49t42 -127
q0 -89 -22 -158t-64 -117t-103.5 -73t-140.5 -25l-38 -188h-137zM399 99q57 0 94 30.5t52 106.5l17 81q7 34 7 62q0 47 -49 47q-26 0 -44 -18.5t-29 -71.5z" />
    <glyph glyph-name="chi" unicode="&#x3c7;" horiz-adv-x="544" 
d="M157 525q44 0 67 -21t29 -69l20 -166h4l146 256h153l-233 -363l45 -250h69l-22 -112h-84q-42 0 -66.5 21t-29.5 69l-21 181h-4l-154 -271h-153l243 379l-46 234h-69l22 112h84z" />
    <glyph glyph-name="psi" unicode="&#x3c8;" horiz-adv-x="729" 
d="M203 -200l38 188q-42 0 -77.5 13t-62 37t-41 56.5t-14.5 71.5q0 21 1.5 40t6.5 43l55 276h140l-58 -286q-5 -26 -7 -39.5t-2 -25.5q0 -39 20 -57t61 -18l122 611h137l-122 -611q26 0 46 5.5t34.5 20.5t25.5 41t19 67l59 292h140l-61 -300q-13 -62 -35.5 -107t-57.5 -74
t-82.5 -42.5t-109.5 -13.5l-38 -188h-137z" />
    <glyph glyph-name="omega" unicode="&#x3c9;" horiz-adv-x="734" 
d="M428 200q-4 -20 -5 -31.5t-1 -20.5q0 -47 46 -47q26 0 42.5 17t24.5 59l22 112q3 14 5 28t2 26q0 30 -10 58.5t-34 52.5l103 82q80 -74 80 -187q0 -89 -18 -156t-48.5 -113t-72 -69t-88.5 -23q-63 0 -97 31t-34 106h-4q-23 -75 -62.5 -106t-93.5 -31q-35 0 -63.5 13
t-48.5 36t-31 55.5t-11 71.5q0 60 11.5 115.5t35 104t59 87.5t83.5 66l74 -89q-42 -29 -66 -67.5t-35 -91.5l-18 -89q-3 -17 -4 -30t-1 -22q0 -47 46 -47q26 0 42.5 17t24.5 59l39 192h140z" />
    <glyph glyph-name="iotadieresis" unicode="&#x3ca;" horiz-adv-x="311" 
d="M250 0h-88q-123 0 -123 99q0 8 1 20t3 23l77 383h140l-83 -413h95zM114 600q-35 0 -50 14t-15 34q0 5 1.5 14t4.5 26q5 26 24 44.5t61 18.5q35 0 50 -14t15 -34q0 -5 -1.5 -14t-4.5 -26q-5 -26 -24 -44.5t-61 -18.5zM314 600q-35 0 -50 14t-15 34q0 5 1.5 14t4.5 26
q5 26 24 44.5t61 18.5q35 0 50 -14t15 -34q0 -5 -1.5 -14t-4.5 -26q-5 -26 -24 -44.5t-61 -18.5z" />
    <glyph glyph-name="upsilondieresis" unicode="&#x3cb;" horiz-adv-x="560" 
d="M192 239q-5 -26 -7.5 -39.5t-2.5 -25.5q0 -73 68 -73q19 0 35 5.5t29 20t23.5 40t18.5 66.5l59 292h140l-61 -300q-24 -118 -86.5 -177.5t-162.5 -59.5q-47 0 -83.5 14t-62.5 38t-39.5 56.5t-13.5 69.5q0 21 1.5 40t6.5 43l55 276h140zM249 600q-35 0 -50 14t-15 34
q0 5 1.5 14t4.5 26q5 26 24 44.5t61 18.5q35 0 50 -14t15 -34q0 -5 -1.5 -14t-4.5 -26q-5 -26 -24 -44.5t-61 -18.5zM449 600q-35 0 -50 14t-15 34q0 5 1.5 14t4.5 26q5 26 24 44.5t61 18.5q35 0 50 -14t15 -34q0 -5 -1.5 -14t-4.5 -26q-5 -26 -24 -44.5t-61 -18.5z" />
    <glyph glyph-name="omicrontonos" unicode="&#x3cc;" horiz-adv-x="542" 
d="M240 -12q-97 0 -153 57.5t-56 161.5q0 71 20.5 131.5t56.5 104.5t85.5 69t108.5 25q97 0 153 -57.5t56 -161.5q0 -71 -20.5 -131.5t-56.5 -104.5t-86 -69t-108 -25zM245 101q82 0 105 115l19 94q1 5 2 13t1 18q0 38 -19 60.5t-56 22.5q-82 0 -105 -115l-19 -94
q-1 -5 -2 -13t-1 -18q0 -38 19 -60.5t56 -22.5zM362 579l-89 29l73 207l125 -31z" />
    <glyph glyph-name="upsilontonos" unicode="&#x3cd;" horiz-adv-x="560" 
d="M192 239q-5 -26 -7.5 -39.5t-2.5 -25.5q0 -73 68 -73q19 0 35 5.5t29 20t23.5 40t18.5 66.5l59 292h140l-61 -300q-24 -118 -86.5 -177.5t-162.5 -59.5q-47 0 -83.5 14t-62.5 38t-39.5 56.5t-13.5 69.5q0 21 1.5 40t6.5 43l55 276h140zM380 579l-89 29l73 207l125 -31z
" />
    <glyph glyph-name="omegatonos" unicode="&#x3ce;" horiz-adv-x="734" 
d="M428 200q-4 -20 -5 -31.5t-1 -20.5q0 -47 46 -47q26 0 42.5 17t24.5 59l22 112q3 14 5 28t2 26q0 30 -10 58.5t-34 52.5l103 82q80 -74 80 -187q0 -89 -18 -156t-48.5 -113t-72 -69t-88.5 -23q-63 0 -97 31t-34 106h-4q-23 -75 -62.5 -106t-93.5 -31q-35 0 -63.5 13
t-48.5 36t-31 55.5t-11 71.5q0 60 11.5 115.5t35 104t59 87.5t83.5 66l74 -89q-42 -29 -66 -67.5t-35 -91.5l-18 -89q-3 -17 -4 -30t-1 -22q0 -47 46 -47q26 0 42.5 17t24.5 59l39 192h140zM471 579l-89 29l73 207l125 -31z" />
    <glyph glyph-name="uni0400" unicode="&#x400;" horiz-adv-x="578" 
d="M22 0l140 698h449l-26 -128h-303l-31 -153h268l-26 -128h-268l-32 -161h314l-26 -128h-459zM267 916l126 59l68 -196l-89 -39z" />
    <glyph glyph-name="uni0401" unicode="&#x401;" horiz-adv-x="578" 
d="M22 0l140 698h449l-26 -128h-303l-31 -153h268l-26 -128h-268l-32 -161h314l-26 -128h-459zM300 760q-35 0 -50 14.5t-15 34.5q0 5 1.5 13t4.5 26q5 26 24 44.5t61 18.5q35 0 50 -14.5t15 -34.5q0 -5 -1.5 -13t-4.5 -26q-5 -26 -24 -44.5t-61 -18.5zM500 760
q-35 0 -50 14.5t-15 34.5q0 5 1.5 13t4.5 26q5 26 24 44.5t61 18.5q35 0 50 -14.5t15 -34.5q0 -5 -1.5 -13t-4.5 -26q-5 -26 -24 -44.5t-61 -18.5z" />
    <glyph glyph-name="uni0402" unicode="&#x402;" horiz-adv-x="786" 
d="M403 -49h96q14 18 27 52t21 72l22 104q3 15 5.5 30.5t2.5 28.5q0 41 -21.5 60t-72.5 19q-37 0 -65 -5t-54 -14l-60 -298h-145l114 570h-184l26 128h513l-26 -128h-184l-30 -152h5q23 12 57.5 20t76.5 8q94 0 144.5 -47t50.5 -135q0 -20 -2 -43t-7 -46l-22 -104
q-12 -56 -33 -103t-52.5 -81t-75.5 -52.5t-102 -18.5h-52z" />
    <glyph glyph-name="uni0403" unicode="&#x403;" horiz-adv-x="497" 
d="M162 698h397l-26 -128h-252l-114 -570h-145zM390 739l-84 46l119 190l112 -60z" />
    <glyph glyph-name="uni0404" unicode="&#x404;" horiz-adv-x="655" 
d="M316 -12q-120 0 -189.5 71.5t-69.5 212.5q0 92 27.5 172t76 139t116 93t148.5 34q100 0 157 -41.5t87 -120.5l-125 -58q-7 19 -16 35.5t-24 29t-37 19.5t-53 7q-77 0 -120.5 -45t-60.5 -119h234l-25 -128h-234q-2 -11 -3 -23t-1 -20q0 -64 28.5 -96.5t96.5 -32.5
q31 0 55 6.5t43 19t34.5 31t30.5 43.5l121 -59q-57 -90 -128 -130t-169 -40z" />
    <glyph glyph-name="uni0405" unicode="&#x405;" horiz-adv-x="586" 
d="M255 -12q-87 0 -154.5 28t-105.5 96l111 87q26 -42 60.5 -62t88.5 -20q63 0 98 28t35 72q0 32 -23 48t-57 24l-46 10q-38 8 -69 22.5t-53 37t-33.5 53.5t-11.5 73q0 48 19.5 89t54.5 71t85 47.5t110 17.5q78 0 140.5 -24.5t98.5 -72.5l-105 -94q-24 33 -55.5 47.5
t-84.5 14.5q-54 0 -85.5 -23t-31.5 -60q0 -30 19.5 -45t55.5 -23l44 -10q40 -9 73 -24t56 -37.5t36 -53.5t13 -72q0 -45 -19.5 -89t-56 -78.5t-89 -56t-118.5 -21.5z" />
    <glyph glyph-name="uni0406" unicode="&#x406;" horiz-adv-x="415" 
d="M-4 0l24 118h86l93 462h-86l23 118h318l-24 -118h-86l-93 -462h86l-23 -118h-318z" />
    <glyph glyph-name="uni0407" unicode="&#x407;" horiz-adv-x="415" 
d="M-4 0l24 118h86l93 462h-86l23 118h318l-24 -118h-86l-93 -462h86l-23 -118h-318zM209 760q-35 0 -50 14.5t-15 34.5q0 5 1.5 13t4.5 26q5 26 24 44.5t61 18.5q35 0 50 -14.5t15 -34.5q0 -5 -1.5 -13t-4.5 -26q-5 -26 -24 -44.5t-61 -18.5zM409 760q-35 0 -50 14.5
t-15 34.5q0 5 1.5 13t4.5 26q5 26 24 44.5t61 18.5q35 0 50 -14.5t15 -34.5q0 -5 -1.5 -13t-4.5 -26q-5 -26 -24 -44.5t-61 -18.5z" />
    <glyph glyph-name="uni0408" unicode="&#x408;" horiz-adv-x="536" 
d="M549 698l-102 -508q-18 -91 -75.5 -146t-156.5 -55q-51 0 -88.5 15t-63.5 41t-40 60.5t-18 74.5l139 28q4 -42 18.5 -67.5t52.5 -25.5q31 0 55.5 21t34.5 69l75 375h-203l24 118h348z" />
    <glyph glyph-name="uni0409" unicode="&#x409;" horiz-adv-x="1033" 
d="M-3 129h82q18 16 35 41.5t33 64t31.5 91.5t29.5 124l50 248h449l-51 -255h126q105 0 161 -48.5t56 -136.5q0 -59 -20.5 -106.5t-56.5 -81t-86 -52t-109 -18.5h-306l115 569h-163l-23 -116q-18 -90 -37 -155t-38.5 -111t-38.5 -75t-38 -48q-39 -39 -82 -54.5t-94 -15.5
h-52zM746 128q33 0 58.5 17t33.5 56q5 21 8 37.5t3 26.5q0 23 -14.5 36.5t-46.5 13.5h-159l-37 -187h154z" />
    <glyph glyph-name="uni040A" unicode="&#x40a;" horiz-adv-x="1019" 
d="M162 698h145l-56 -281h240l57 281h145l-51 -255h126q105 0 161 -48.5t56 -136.5q0 -59 -20.5 -106.5t-56.5 -81t-86 -52t-109 -18.5h-306l58 289h-240l-58 -289h-145zM732 128q33 0 58.5 17t33.5 56q5 21 8 37.5t3 26.5q0 23 -14.5 36.5t-46.5 13.5h-159l-37 -187h154z
" />
    <glyph glyph-name="uni040B" unicode="&#x40b;" horiz-adv-x="796" 
d="M273 570h-184l26 128h513l-26 -128h-184l-30 -152h5q23 12 58.5 20t80.5 8q97 0 148.5 -47t51.5 -135q0 -20 -2 -41.5t-7 -47.5l-36 -175h-145l37 179q3 15 5.5 30.5t2.5 28.5q0 41 -22.5 60t-76.5 19q-41 0 -69.5 -5t-54.5 -14l-60 -298h-145z" />
    <glyph glyph-name="uni040C" unicode="&#x40c;" horiz-adv-x="660" 
d="M162 698h145l-57 -281h100l148 210q27 38 54.5 54.5t73.5 16.5h64l-26 -129h-53l-99 -141q-23 -32 -44 -46t-50 -19l-1 -6q20 -8 33.5 -23t22.5 -43l52 -162h59l-26 -129h-51q-26 0 -44 4t-31.5 14t-23 26.5t-17.5 40.5l-66 204h-100l-58 -289h-145zM451 739l-84 46
l119 190l112 -60z" />
    <glyph glyph-name="uni040D" unicode="&#x40d;" horiz-adv-x="700" 
d="M162 698h141l-69 -345l-44 -143h3l92 133l296 355h131l-140 -698h-141l69 345l44 143h-3l-92 -133l-296 -355h-131zM319 916l126 59l68 -196l-89 -39z" />
    <glyph glyph-name="uni040E" unicode="&#x40e;" horiz-adv-x="611" 
d="M97 129h113l21 36l-131 533h146l51 -225l30 -158h7l70 152l127 231h154l-348 -600q-32 -55 -66 -76.5t-81 -21.5h-119zM390 740q-52 0 -89 26t-57 86l-17 51l115 43l16 -101q8 -3 20.5 -5t24.5 -2q29 0 43 7l46 101l111 -43l-30 -51q-33 -57 -78 -84.5t-105 -27.5z" />
    <glyph glyph-name="uni040F" unicode="&#x40f;" horiz-adv-x="685" 
d="M222 0h-200l140 698h145l-114 -569h245l114 569h145l-140 -698h-198l-31 -150h-136z" />
    <glyph glyph-name="uni0410" unicode="&#x410;" horiz-adv-x="658" 
d="M441 0l-16 170h-223l-82 -170h-155l359 698h185l79 -698h-147zM394 567h-8l-127 -276h156z" />
    <glyph glyph-name="uni0411" unicode="&#x411;" horiz-adv-x="625" 
d="M163 698h454l-26 -128h-309l-28 -141h117q105 0 161 -48t56 -132q0 -55 -19.5 -101t-55 -79t-85 -51t-108.5 -18h-298zM339 128q32 0 56 16t32 50q5 21 8 36.5t3 23.5q0 19 -14.5 33t-46.5 14h-149l-35 -173h146z" />
    <glyph glyph-name="uni0412" unicode="&#x412;" horiz-adv-x="651" 
d="M162 698h298q38 0 70 -8.5t55 -26.5t36 -45t13 -63q0 -69 -33.5 -121.5t-102.5 -71.5l-1 -5q55 -15 79.5 -50.5t24.5 -84.5q0 -50 -15 -90.5t-45.5 -70t-75.5 -45.5t-105 -16h-338zM360 124q70 0 83 65q5 26 7 38t2 19q0 20 -13 32.5t-42 12.5h-171l-33 -167h167z
M391 410q35 0 55.5 14t27.5 48q5 26 7 37t2 18q0 21 -13 34t-41 13h-146l-33 -164h141z" />
    <glyph glyph-name="uni0413" unicode="&#x413;" horiz-adv-x="497" 
d="M162 698h397l-26 -128h-252l-114 -570h-145z" />
    <glyph glyph-name="uni0414" unicode="&#x414;" horiz-adv-x="791" 
d="M-5 129h83q19 17 37 42.5t34.5 63.5t32 91t29.5 124l50 248h485l-114 -569h112l-57 -279h-136l30 150h-475l-31 -150h-136zM487 129l88 440h-199l-23 -116q-15 -75 -29 -127.5t-27.5 -89t-28.5 -60.5t-31 -43l-1 -4h251z" />
    <glyph glyph-name="uni0415" unicode="&#x415;" horiz-adv-x="578" 
d="M22 0l140 698h449l-26 -128h-303l-31 -153h268l-26 -128h-268l-32 -161h314l-26 -128h-459z" />
    <glyph glyph-name="uni0416" unicode="&#x416;" horiz-adv-x="991" 
d="M20 129h59l91 146q23 37 49 56.5t62 25.5l1 6q-19 8 -30.5 21t-20.5 36l-56 149h-59l26 129h37q48 0 73.5 -18.5t42.5 -65.5l74 -197h81l57 281h149l-57 -281h82l148 210q27 37 56.5 54t76.5 17h59l-26 -129h-53l-99 -141q-23 -32 -44 -46t-50 -19l-1 -6q20 -8 33.5 -23
t22.5 -43l52 -162h59l-26 -129h-51q-26 0 -44 4t-31.5 14t-23 26.5t-17.5 40.5l-66 204h-82l-58 -289h-149l58 289h-81l-134 -214q-26 -41 -57 -58t-75 -17h-84z" />
    <glyph glyph-name="uni0417" unicode="&#x417;" horiz-adv-x="607" 
d="M250 -12q-87 0 -146.5 29.5t-105.5 94.5l111 87q27 -41 60 -61.5t81 -20.5q57 0 88.5 18t42.5 57q2 8 4 18t2 17q0 31 -21.5 46.5t-72.5 15.5h-98l26 128h97q53 0 80.5 15t35.5 47q5 22 5 42q0 26 -23 43t-71 17q-51 0 -91 -17.5t-70 -47.5l-84 99q50 45 114 70t147 25
q112 0 170.5 -44.5t58.5 -122.5q0 -72 -40 -119.5t-111 -62.5l-1 -5q28 -6 47 -18.5t30.5 -29.5t16.5 -38.5t5 -43.5q0 -51 -21 -94.5t-58.5 -75.5t-90.5 -50t-117 -18z" />
    <glyph glyph-name="uni0418" unicode="&#x418;" horiz-adv-x="700" 
d="M162 698h141l-69 -345l-44 -143h3l92 133l296 355h131l-140 -698h-141l69 345l44 143h-3l-92 -133l-296 -355h-131z" />
    <glyph glyph-name="uni0419" unicode="&#x419;" horiz-adv-x="700" 
d="M162 698h141l-69 -345l-44 -143h3l92 133l296 355h131l-140 -698h-141l69 345l44 143h-3l-92 -133l-296 -355h-131zM448 740q-52 0 -89 26t-57 86l-17 51l115 43l16 -101q8 -3 20.5 -5t24.5 -2q29 0 43 7l46 101l111 -43l-30 -51q-33 -57 -78 -84.5t-105 -27.5z" />
    <glyph glyph-name="uni041A" unicode="&#x41a;" horiz-adv-x="660" 
d="M162 698h145l-57 -281h100l148 210q27 38 54.5 54.5t73.5 16.5h64l-26 -129h-53l-99 -141q-23 -32 -44 -46t-50 -19l-1 -6q20 -8 33.5 -23t22.5 -43l52 -162h59l-26 -129h-51q-26 0 -44 4t-31.5 14t-23 26.5t-17.5 40.5l-66 204h-100l-58 -289h-145z" />
    <glyph glyph-name="uni041B" unicode="&#x41b;" horiz-adv-x="723" 
d="M-3 129h82q18 16 35 41.5t33 64t31.5 91.5t29.5 124l50 248h477l-140 -698h-145l114 569h-191l-23 -116q-18 -90 -37 -155t-38.5 -111t-38.5 -75t-38 -48q-39 -39 -82 -54.5t-94 -15.5h-52z" />
    <glyph glyph-name="uni041C" unicode="&#x41c;" horiz-adv-x="801" 
d="M628 461h-6l-96 -134l-155 -212l-74 227l-39 121h-5l-93 -463h-138l140 698h152l101 -332h4l233 332h161l-140 -698h-138z" />
    <glyph glyph-name="uni041D" unicode="&#x41d;" horiz-adv-x="700" 
d="M485 289h-260l-58 -289h-145l140 698h145l-56 -281h260l56 281h145l-140 -698h-145z" />
    <glyph glyph-name="uni041E" unicode="&#x41e;" horiz-adv-x="695" 
d="M308 -12q-50 0 -95.5 16.5t-80 51t-55 88t-20.5 127.5q0 90 27 170t75 140t114 94.5t144 34.5q50 0 95.5 -16.5t80 -51t55 -88t20.5 -127.5q0 -90 -27 -170t-75 -140t-114 -94.5t-144 -34.5zM318 117q70 0 115 47t62 132l21 105q3 16 4 28.5t1 23.5q0 128 -114 128
q-70 0 -115 -47t-62 -132l-21 -105q-3 -15 -4 -28t-1 -24q0 -128 114 -128z" />
    <glyph glyph-name="uni041F" unicode="&#x41f;" horiz-adv-x="685" 
d="M162 698h535l-140 -698h-145l114 569h-245l-114 -569h-145z" />
    <glyph glyph-name="uni0420" unicode="&#x420;" horiz-adv-x="637" 
d="M22 0l140 698h263q105 0 162.5 -49t57.5 -138q0 -57 -20 -104.5t-56 -81t-86 -52t-109 -18.5h-156l-51 -255h-145zM244 383h149q34 0 58.5 18t32.5 55q5 23 8 37.5t3 22.5q0 23 -15.5 38.5t-48.5 15.5h-150z" />
    <glyph glyph-name="uni0421" unicode="&#x421;" horiz-adv-x="635" 
d="M306 -12q-56 0 -101.5 18t-78.5 53.5t-51 88.5t-18 124q0 92 27.5 172t75.5 139t113.5 93t141.5 34q94 0 152.5 -44.5t83.5 -125.5l-129 -54q-6 20 -15 37.5t-22.5 30t-33 20t-47.5 7.5q-70 0 -113.5 -48t-59.5 -127l-22 -110q-3 -15 -4 -27.5t-1 -22.5q0 -129 115 -129
q59 0 94.5 29t58.5 75l121 -55q-47 -91 -121.5 -134.5t-165.5 -43.5z" />
    <glyph glyph-name="uni0422" unicode="&#x422;" horiz-adv-x="569" 
d="M418 570l-114 -570h-145l114 570h-184l26 128h513l-26 -128h-184z" />
    <glyph glyph-name="uni0423" unicode="&#x423;" horiz-adv-x="611" 
d="M97 129h113l21 36l-131 533h146l51 -225l30 -158h7l70 152l127 231h154l-348 -600q-32 -55 -66 -76.5t-81 -21.5h-119z" />
    <glyph glyph-name="uni0424" unicode="&#x424;" horiz-adv-x="883" 
d="M325 46h-35q-64 0 -110 20.5t-76 54.5t-44 77.5t-14 90.5q0 73 24 139t70 115t113 78t154 29h40l18 90h145l-18 -90h35q64 0 110 -20.5t76 -54.5t44 -78t14 -90q0 -74 -24 -139.5t-70 -114.5t-113 -78t-154 -29h-40l-18 -90h-145zM352 165l73 366h-41q-38 0 -67.5 -12
t-51.5 -32.5t-36 -48.5t-20 -59l-11 -56q-3 -15 -4 -28t-1 -24q0 -20 7 -39t21.5 -34t37 -24t53.5 -9h40zM533 165q38 0 67.5 12t51.5 32.5t36 48t20 59.5l11 56q3 15 4 28t1 24q0 20 -7 39t-21.5 34t-37 24t-53.5 9h-40l-73 -366h41z" />
    <glyph glyph-name="uni0425" unicode="&#x425;" horiz-adv-x="641" 
d="M571 0h-157l-99 243h-8l-179 -243h-168l290 369l-146 329h156l95 -230h8l175 230h168l-287 -351z" />
    <glyph glyph-name="uni0426" unicode="&#x426;" horiz-adv-x="742" 
d="M532 0h-510l140 698h145l-114 -569h245l114 569h145l-114 -569h112l-57 -279h-136z" />
    <glyph glyph-name="uni0427" unicode="&#x427;" horiz-adv-x="658" 
d="M436 252h-5q-23 -12 -58.5 -20t-80.5 -8q-97 0 -148.5 47t-51.5 135q0 20 2 41.5t7 47.5l41 203h145l-42 -207q-3 -15 -5.5 -30.5t-2.5 -28.5q0 -41 22.5 -60t76.5 -19q41 0 69.5 5t54.5 14l65 326h145l-140 -698h-145z" />
    <glyph glyph-name="uni0428" unicode="&#x428;" horiz-adv-x="999" 
d="M162 698h145l-114 -569h207l114 569h145l-114 -569h207l114 569h145l-140 -698h-849z" />
    <glyph glyph-name="uni0429" unicode="&#x429;" horiz-adv-x="1056" 
d="M846 0h-824l140 698h145l-114 -569h207l114 569h145l-114 -569h207l114 569h145l-114 -569h112l-57 -279h-136z" />
    <glyph glyph-name="uni042A" unicode="&#x42a;" horiz-adv-x="721" 
d="M224 570h-148l26 128h293l-51 -255h126q105 0 161 -48.5t56 -136.5q0 -59 -20.5 -106.5t-56.5 -81t-86 -52t-109 -18.5h-306zM434 128q33 0 58.5 17t33.5 56q5 21 8 37.5t3 26.5q0 23 -14.5 36.5t-46.5 13.5h-159l-37 -187h154z" />
    <glyph glyph-name="uni042B" unicode="&#x42b;" horiz-adv-x="916" 
d="M163 698h145l-51 -255h126q105 0 161 -48.5t56 -136.5q0 -59 -20.5 -106.5t-56.5 -81t-86 -52t-109 -18.5h-306zM347 128q33 0 58.5 17t33.5 56q5 21 8 37.5t3 26.5q0 23 -14.5 36.5t-46.5 13.5h-159l-37 -187h154zM783 698h145l-140 -698h-145z" />
    <glyph glyph-name="uni042C" unicode="&#x42c;" horiz-adv-x="634" 
d="M163 698h145l-51 -255h126q105 0 161 -48.5t56 -136.5q0 -59 -20.5 -106.5t-56.5 -81t-86 -52t-109 -18.5h-306zM347 128q33 0 58.5 17t33.5 56q5 21 8 37.5t3 26.5q0 23 -14.5 36.5t-46.5 13.5h-159l-37 -187h154z" />
    <glyph glyph-name="uni042D" unicode="&#x42d;" horiz-adv-x="655" 
d="M244 417h234q3 19 3 35q0 64 -30 96.5t-99 32.5q-59 0 -94.5 -25.5t-59.5 -69.5l-122 57q48 81 117.5 124t167.5 43q58 0 107.5 -16.5t84.5 -51t55 -88t20 -127.5q0 -95 -27.5 -175t-76 -139t-116 -92t-147.5 -33q-51 0 -90.5 11t-69.5 32.5t-51.5 52t-37.5 69.5l122 62
q19 -49 50.5 -73.5t86.5 -24.5q75 0 120 43t62 129h-234z" />
    <glyph glyph-name="uni042E" unicode="&#x42e;" horiz-adv-x="995" 
d="M608 -12q-50 0 -95.5 16.5t-80 51t-55 88t-20.5 127.5v18h-132l-58 -289h-145l140 698h145l-56 -281h126q17 64 49.5 118t76.5 93t98.5 60.5t115.5 21.5q50 0 95.5 -16.5t80 -51t55 -88t20.5 -127.5q0 -90 -27 -170t-75 -140t-114 -94.5t-144 -34.5zM618 117q70 0 115 47
t62 132l21 105q3 16 4 28.5t1 23.5q0 128 -114 128q-70 0 -115 -47t-62 -132l-21 -105q-3 -15 -4 -28t-1 -24q0 -128 114 -128z" />
    <glyph glyph-name="uni042F" unicode="&#x42f;" horiz-adv-x="660" 
d="M26 129h59l64 88q20 27 41 40.5t48 16.5l1 6q-66 14 -101 55.5t-35 104.5q0 58 20.5 106t56.5 81.5t86 52t109 18.5h297l-141 -698h-145l51 255h-93l-135 -187q-29 -39 -58.5 -53.5t-70.5 -14.5h-80zM356 570q-33 0 -58.5 -17t-33.5 -56q-5 -21 -8 -38t-3 -28
q0 -21 14 -36.5t46 -15.5h150l38 191h-145z" />
    <glyph glyph-name="uni0430" unicode="&#x430;" horiz-adv-x="591" 
d="M430 0q-38 0 -63 20t-25 57q0 8 1 17t2 13l3 15h-6q-31 -64 -70 -99t-101 -35q-37 0 -63.5 13.5t-43.5 38t-25 58t-8 72.5q0 84 19.5 151.5t52.5 115.5t77.5 74t94.5 26q55 0 90.5 -30t40.5 -73h5l18 91h140l-83 -413h59l-22 -112h-93zM240 103q27 0 49 14t38 34
q17 20 29.5 47.5t18.5 56.5l16 80q8 37 -15 62t-67 25q-91 0 -115 -117l-14 -70q-2 -11 -4 -28t-2 -29q0 -35 17.5 -55t48.5 -20z" />
    <glyph glyph-name="uni0431" unicode="&#x431;" horiz-adv-x="542" 
d="M240 -12q-97 0 -152 59t-55 160q0 37 9 94.5t28 120t48.5 122t69.5 99.5q42 42 98.5 65t143.5 31l146 13l-28 -138l-155 -13q-37 -3 -65.5 -15.5t-51 -36t-38.5 -58.5t-27 -84h6q27 57 61.5 80t85.5 23q31 0 58 -13t47 -36.5t31 -57t11 -75.5q0 -75 -20 -137.5
t-56 -107.5t-86 -70t-109 -25zM247 101q40 0 69 28t40 87l11 56q2 11 3.5 25t1.5 32q0 32 -16.5 50t-56.5 18q-44 0 -73.5 -28t-40.5 -87l-9 -46q-6 -30 -6 -52q0 -42 20 -62.5t57 -20.5z" />
    <glyph glyph-name="uni0432" unicode="&#x432;" horiz-adv-x="553" 
d="M119 525h267q64 0 100.5 -32t36.5 -88q0 -25 -8.5 -47t-24 -39.5t-37.5 -29.5t-49 -16l-1 -5q51 -9 70 -36.5t19 -62.5q0 -38 -13 -69t-36.5 -53.5t-56.5 -34.5t-74 -12h-298zM282 102q58 0 67 42q2 10 4 21.5t2 17.5q0 21 -13.5 30t-36.5 9h-110l-24 -120h111zM313 306
q58 0 68 46q2 7 3.5 16.5t1.5 15.5q0 21 -13.5 30t-36.5 9h-101l-23 -117h101z" />
    <glyph glyph-name="uni0433" unicode="&#x433;" horiz-adv-x="432" 
d="M119 525h343l-22 -112h-203l-83 -413h-140z" />
    <glyph glyph-name="uni0434" unicode="&#x434;" horiz-adv-x="553" 
d="M233 -12q-91 0 -146.5 57.5t-55.5 161.5q0 71 18.5 129.5t50 100.5t72.5 65t86 23q48 0 76 -22t42 -67h6v26q0 42 -9 74.5t-30 53.5q-38 38 -102 38q-52 0 -88 -12l26 128q17 5 35.5 6.5t45.5 1.5q63 0 108 -16t78 -49q36 -36 56 -95.5t20 -137.5q0 -125 -23.5 -213
t-63 -144.5t-92 -82.5t-110.5 -26zM236 101q46 0 70.5 33t40.5 107l12 58q2 8 3.5 18.5t1.5 22.5q0 34 -18 53t-54 19q-79 0 -103 -118l-16 -79q-1 -5 -2 -13t-1 -18q0 -38 18 -60.5t48 -22.5z" />
    <glyph glyph-name="uni0435" unicode="&#x435;" horiz-adv-x="515" 
d="M253 -12q-112 0 -167 60.5t-55 165.5q0 63 20 121.5t57 103t90 71.5t118 27q30 0 63 -7t60.5 -23.5t46 -44.5t18.5 -71q0 -41 -19 -73.5t-59 -56t-103 -37t-151 -16.5q-2 -9 -2 -14v-9q0 -38 20.5 -61t72.5 -23q34 0 63.5 14.5t64.5 58.5l86 -68q-49 -65 -102.5 -91.5
t-121.5 -26.5zM308 430q-45 0 -76.5 -29.5t-40.5 -80.5l-4 -23q56 3 91.5 10t55.5 17.5t27 23.5t7 29q0 17 -6 27.5t-15 16t-19.5 7.5t-19.5 2z" />
    <glyph glyph-name="uni0436" unicode="&#x436;" horiz-adv-x="837" 
d="M12 112h97q14 14 26.5 44.5t24.5 90.5q8 41 11 69.5t3 46.5q0 34 -8 50h-81l23 112h51q69 0 100.5 -36.5t31.5 -121.5q0 -13 -0.5 -24t-1.5 -22h74l41 204h134l-41 -204h72q29 109 77 156.5t121 47.5h67l-23 -112h-83q-14 -14 -26.5 -44.5t-24.5 -90.5q-8 -41 -11 -69.5
t-3 -46.5q0 -34 8 -50h93l-23 -112h-63q-69 0 -100.5 36.5t-31.5 121.5v28t2 27h-73l-43 -213h-134l43 213h-71q-29 -114 -78 -163.5t-122 -49.5h-81z" />
    <glyph glyph-name="uni0437" unicode="&#x437;" horiz-adv-x="505" 
d="M198 -12q-71 0 -122 22.5t-86 66.5l88 82q20 -27 50.5 -42.5t72.5 -15.5q89 0 103 54q3 12 3 26q0 17 -12 27t-41 10h-102l20 98h98q25 0 43 9t25 32q3 10 3 21q0 20 -18.5 33.5t-60.5 13.5q-81 0 -131 -62l-80 77q45 50 99 73.5t130 23.5q102 0 150 -38.5t48 -95.5
q0 -54 -31 -88t-88 -43l-1 -5q39 -8 62.5 -32.5t23.5 -66.5t-19.5 -75t-53 -56.5t-78 -36t-95.5 -12.5z" />
    <glyph glyph-name="uni0438" unicode="&#x438;" horiz-adv-x="582" 
d="M254 525l-62 -312q-3 -14 -5 -28t-2 -25q0 -26 11.5 -40.5t37.5 -14.5t46.5 13.5t37.5 34.5q36 44 48 102l54 270h140l-83 -413h59l-22 -112h-93q-38 0 -63 20t-25 57q0 8 1 17t2 13l3 15h-6q-29 -62 -69 -98t-100 -36t-92 35.5t-32 100.5q0 20 2.5 38t6.5 38l65 325h140
z" />
    <glyph glyph-name="uni0439" unicode="&#x439;" horiz-adv-x="582" 
d="M254 525l-62 -312q-3 -14 -5 -28t-2 -25q0 -26 11.5 -40.5t37.5 -14.5t46.5 13.5t37.5 34.5q36 44 48 102l54 270h140l-83 -413h59l-22 -112h-93q-38 0 -63 20t-25 57q0 8 1 17t2 13l3 15h-6q-29 -62 -69 -98t-100 -36t-92 35.5t-32 100.5q0 20 2.5 38t6.5 38l65 325h140
zM345 579q-52 0 -89 26t-57 86l-17 51l115 43l16 -101q8 -3 20.5 -5t24.5 -2q29 0 43 7l46 101l111 -43l-30 -51q-33 -57 -78 -84.5t-105 -27.5z" />
    <glyph glyph-name="uni043A" unicode="&#x43a;" horiz-adv-x="571" 
d="M119 525h140l-41 -202h75l102 144q12 16 23 27t24 18t29.5 10t37.5 3h65l-23 -112h-50l-70 -99q-15 -21 -30 -30t-35 -12l-1 -6q17 -5 29 -15.5t20 -33.5l39 -105h52l-23 -112h-59q-74 0 -103 79l-49 132h-75l-42 -211h-140z" />
    <glyph glyph-name="uni043B" unicode="&#x43b;" horiz-adv-x="594" 
d="M-15 112h67q25 30 47 86.5t43 161.5l33 165h405l-105 -525h-140l83 413h-132l-10 -51q-15 -75 -29.5 -127t-29 -88t-29.5 -59t-31 -39q-32 -32 -68 -43.5t-81 -11.5h-47z" />
    <glyph glyph-name="uni043C" unicode="&#x43c;" horiz-adv-x="705" 
d="M119 525h151l84 -225h2l174 225h161l-105 -525h-136l70 350h-5l-56 -75l-140 -181l-67 179l-27 77h-5l-70 -350h-136z" />
    <glyph glyph-name="uni043D" unicode="&#x43d;" horiz-adv-x="583" 
d="M119 525h140l-41 -202h170l41 202h140l-105 -525h-140l42 211h-170l-42 -211h-140z" />
    <glyph glyph-name="uni043E" unicode="&#x43e;" horiz-adv-x="542" 
d="M240 -12q-97 0 -153 57.5t-56 161.5q0 71 20.5 131.5t56.5 104.5t85.5 69t108.5 25q97 0 153 -57.5t56 -161.5q0 -71 -20.5 -131.5t-56.5 -104.5t-86 -69t-108 -25zM245 101q82 0 105 115l19 94q1 5 2 13t1 18q0 38 -19 60.5t-56 22.5q-82 0 -105 -115l-19 -94
q-1 -5 -2 -13t-1 -18q0 -38 19 -60.5t56 -22.5z" />
    <glyph glyph-name="uni043F" unicode="&#x43f;" horiz-adv-x="588" 
d="M14 0l105 525h140l-24 -122h6q30 63 71 98.5t103 35.5q61 0 93.5 -35.5t32.5 -100.5q0 -19 -2.5 -36.5t-6.5 -37.5l-43 -215h53l-22 -112h-91q-40 0 -62 20.5t-22 55.5q0 9 1 16.5t2 11.5l41 208q3 14 5 27.5t2 28.5q0 23 -12 37.5t-41 14.5q-26 0 -47 -14t-38 -34
q-18 -21 -31 -46.5t-19 -55.5l-54 -270h-140z" />
    <glyph glyph-name="uni0440" unicode="&#x440;" horiz-adv-x="583" 
d="M119 525h140l-24 -122h6q31 64 70 99t101 35q37 0 63.5 -13.5t43.5 -38t25 -58t8 -72.5q0 -84 -19.5 -151.5t-52.5 -115.5t-77.5 -74t-94.5 -26q-55 0 -90.5 30t-40.5 73h-5l-58 -291h-140zM274 103q91 0 115 117l14 70q2 11 4 28t2 29q0 35 -17.5 55t-48.5 20
q-27 0 -49 -14t-38 -34q-17 -20 -29.5 -47.5t-18.5 -56.5l-16 -80q-8 -40 15 -63.5t67 -23.5z" />
    <glyph glyph-name="uni0441" unicode="&#x441;" horiz-adv-x="494" 
d="M237 -12q-43 0 -80.5 12.5t-65.5 40t-44 70.5t-16 104q0 70 21 129t58.5 102t88.5 67t111 24q37 0 69.5 -9.5t57 -27.5t40.5 -43t21 -56l-118 -45q-9 31 -24.5 49.5t-53.5 18.5q-87 0 -109 -110l-18 -89q-5 -23 -5 -42q0 -37 18.5 -59.5t60.5 -22.5q20 0 35 6t26.5 17
t21.5 26t21 34l107 -50q-35 -73 -91.5 -109.5t-131.5 -36.5z" />
    <glyph glyph-name="uni0442" unicode="&#x442;" horiz-adv-x="477" 
d="M198 413h-145l22 112h432l-22 -112h-147l-82 -413h-140z" />
    <glyph glyph-name="uni0443" unicode="&#x443;" horiz-adv-x="509" 
d="M408 525h149l-322 -610q-15 -29 -32 -50.5t-39 -36t-50 -21.5t-65 -7h-78l23 112h97l28 58l-74 555h139l20 -198l16 -196h6l88 196z" />
    <glyph glyph-name="uni0444" unicode="&#x444;" horiz-adv-x="789" 
d="M289 87h-6q-29 -55 -59.5 -77t-74.5 -22q-56 0 -85 38t-29 115q0 88 17 160.5t46.5 125t70.5 81.5t89 29q42 0 67 -25.5t30 -73.5h5l54 272h140l-54 -272h6q29 55 59.5 77t74.5 22q56 0 85 -38t29 -115q0 -88 -17 -160.5t-46.5 -125t-70.5 -81.5t-89 -29q-42 0 -67 25.5
t-30 73.5h-5l-57 -287h-140zM215 89q27 0 49 22q39 39 51 104l24 120q10 47 0.5 74t-41.5 27q-38 0 -62.5 -31.5t-39.5 -105.5l-14 -69q-5 -21 -7.5 -42t-2.5 -38q0 -61 43 -61zM491 89q38 0 62.5 31.5t39.5 105.5l14 69q5 21 7.5 42t2.5 38q0 61 -43 61q-14 0 -25.5 -5
t-23.5 -17q-39 -39 -51 -104l-24 -120q-10 -47 -0.5 -74t41.5 -27z" />
    <glyph glyph-name="uni0445" unicode="&#x445;" horiz-adv-x="518" 
d="M-51 0l228 274l-112 251h151l62 -175h6l130 175h153l-229 -273l115 -252h-151l-64 172h-6l-130 -172h-153z" />
    <glyph glyph-name="uni0446" unicode="&#x446;" horiz-adv-x="630" 
d="M420 0h-2q-33 0 -59 19.5t-26 57.5q0 8 1 17t2 13l3 15h-6q-29 -62 -69 -98t-100 -36t-92 35.5t-32 100.5q0 20 2.5 38t6.5 38l65 325h140l-62 -312q-3 -14 -5 -28t-2 -25q0 -26 11.5 -40.5t37.5 -14.5t46.5 13.5t37.5 34.5q36 44 48 102l54 270h140l-83 -413h90
l-51 -252h-124z" />
    <glyph glyph-name="uni0447" unicode="&#x447;" horiz-adv-x="561" 
d="M354 257h-6q-29 -54 -65.5 -78.5t-87.5 -24.5q-67 0 -101 35.5t-34 93.5q0 20 2 39t5 34l34 169h140l-32 -161q-2 -9 -3 -21t-1 -23q0 -49 58 -49q48 0 75 23.5t38 76.5l31 154h140l-105 -525h-140z" />
    <glyph glyph-name="uni0448" unicode="&#x448;" horiz-adv-x="859" 
d="M155 -12q-55 0 -85 35t-30 94q0 26 3.5 49t8.5 46l62 313h140l-62 -312q-3 -14 -5.5 -28.5t-2.5 -30.5q0 -21 10 -35t32 -14q20 0 40.5 13.5t37.5 33.5t30 48t18 55l54 270h139l-62 -312q-3 -14 -5.5 -28.5t-2.5 -30.5q0 -21 10 -35t32 -14q20 0 40.5 13.5t37.5 33.5
t30 48t18 55l54 270h140l-83 -413h59l-22 -112h-93q-38 0 -63 20t-25 57q0 8 1 17t2 13l3 15h-6q-29 -60 -69.5 -97t-97.5 -37q-54 0 -83 35.5t-29 98.5h-5q-29 -59 -71 -96.5t-100 -37.5z" />
    <glyph glyph-name="uni0449" unicode="&#x449;" horiz-adv-x="907" 
d="M697 0q-38 0 -62.5 20t-24.5 57q0 8 1 17t2 13l3 15h-6q-29 -60 -69.5 -97t-97.5 -37q-54 0 -83 35.5t-29 98.5h-5q-29 -59 -71 -96.5t-100 -37.5q-55 0 -85 35t-30 94q0 26 3.5 49t8.5 46l62 313h140l-62 -312q-3 -14 -5.5 -28.5t-2.5 -30.5q0 -21 10 -35t32 -14
q20 0 40.5 13.5t37.5 33.5t30 48t18 55l54 270h139l-62 -312q-3 -14 -5.5 -28.5t-2.5 -30.5q0 -21 10 -35t32 -14q20 0 40.5 13.5t37.5 33.5t30 48t18 55l54 270h140l-83 -413h90l-51 -252h-124z" />
    <glyph glyph-name="uni044A" unicode="&#x44a;" horiz-adv-x="627" 
d="M176 413h-123l22 112h263l-32 -156h128q70 0 108 -39.5t38 -108.5q0 -61 -19.5 -103t-50.5 -68.5t-70.5 -38t-78.5 -11.5h-268zM348 102q32 0 57.5 21.5t32.5 55.5q3 15 3 32q0 24 -16 40t-45 16h-94l-33 -165h95z" />
    <glyph glyph-name="uni044B" unicode="&#x44b;" horiz-adv-x="770" 
d="M119 525h140l-32 -156h117q70 0 108 -39.5t38 -108.5q0 -61 -19.5 -103t-50.5 -68.5t-70.5 -38t-78.5 -11.5h-257zM258 102q32 0 57.5 21.5t32.5 55.5q3 15 3 32q0 24 -16 40t-45 16h-83l-33 -165h84zM616 525h140l-105 -525h-140z" />
    <glyph glyph-name="uni044C" unicode="&#x44c;" horiz-adv-x="548" 
d="M119 525h140l-32 -156h128q70 0 108 -39.5t38 -108.5q0 -61 -19.5 -103t-50.5 -68.5t-70.5 -38t-78.5 -11.5h-268zM269 102q32 0 57.5 21.5t32.5 55.5q3 15 3 32q0 24 -16 40t-45 16h-94l-33 -165h95z" />
    <glyph glyph-name="uni044D" unicode="&#x44d;" horiz-adv-x="512" 
d="M179 316h161q1 7 1.5 14t0.5 16q0 35 -20 57t-68 22q-38 0 -63 -18t-45 -56l-107 60q22 32 44.5 56t49.5 39.5t59.5 23t73.5 7.5q46 0 85.5 -12.5t68 -40t45 -70.5t16.5 -104q0 -70 -21 -129t-58.5 -102t-90.5 -67t-116 -24q-85 0 -133 34.5t-68 96.5l113 52
q15 -39 36 -54.5t60 -15.5q52 0 79.5 28.5t37.5 88.5h-161z" />
    <glyph glyph-name="uni044E" unicode="&#x44e;" horiz-adv-x="790" 
d="M495 -12q-97 0 -149.5 56.5t-52.5 162.5v4h-97l-42 -211h-140l105 525h140l-41 -202h89q13 48 36.5 87.5t56 67.5t72 43.5t85.5 15.5q97 0 149.5 -56.5t52.5 -162.5q0 -71 -19.5 -131.5t-54 -104.5t-83.5 -69t-107 -25zM500 101q40 0 63.5 29t34.5 86l19 94q3 15 3 39
q0 33 -17 54t-51 21q-40 0 -63.5 -29t-34.5 -86l-19 -94q-3 -15 -3 -39q0 -33 17 -54t51 -21z" />
    <glyph glyph-name="uni044F" unicode="&#x44f;" horiz-adv-x="566" 
d="M12 112h54l34 52q12 18 28.5 27.5t34.5 11.5l1 6q-45 9 -71.5 40t-26.5 88q0 42 16.5 76.5t45.5 59t69 38.5t87 14h268l-105 -525h-140l37 183h-79l-71 -108q-28 -42 -55.5 -58.5t-67.5 -16.5h-81zM297 423q-35 0 -59 -16.5t-31 -48.5q-2 -10 -2 -19q0 -22 16 -37.5
t45 -15.5h99l27 137h-95z" />
    <glyph glyph-name="uni0450" unicode="&#x450;" horiz-adv-x="515" 
d="M253 -12q-112 0 -167 60.5t-55 165.5q0 63 20 121.5t57 103t90 71.5t118 27q30 0 63 -7t60.5 -23.5t46 -44.5t18.5 -71q0 -41 -19 -73.5t-59 -56t-103 -37t-151 -16.5q-2 -9 -2 -14v-9q0 -38 20.5 -61t72.5 -23q34 0 63.5 14.5t64.5 58.5l86 -68q-49 -65 -102.5 -91.5
t-121.5 -26.5zM308 430q-45 0 -76.5 -29.5t-40.5 -80.5l-4 -23q56 3 91.5 10t55.5 17.5t27 23.5t7 29q0 17 -6 27.5t-15 16t-19.5 7.5t-19.5 2zM204 756l126 59l68 -196l-89 -39z" />
    <glyph glyph-name="uni0451" unicode="&#x451;" horiz-adv-x="515" 
d="M253 -12q-112 0 -167 60.5t-55 165.5q0 63 20 121.5t57 103t90 71.5t118 27q30 0 63 -7t60.5 -23.5t46 -44.5t18.5 -71q0 -41 -19 -73.5t-59 -56t-103 -37t-151 -16.5q-2 -9 -2 -14v-9q0 -38 20.5 -61t72.5 -23q34 0 63.5 14.5t64.5 58.5l86 -68q-49 -65 -102.5 -91.5
t-121.5 -26.5zM308 430q-45 0 -76.5 -29.5t-40.5 -80.5l-4 -23q56 3 91.5 10t55.5 17.5t27 23.5t7 29q0 17 -6 27.5t-15 16t-19.5 7.5t-19.5 2zM237 600q-35 0 -50 14t-15 34q0 5 1.5 14t4.5 26q5 26 24 44.5t61 18.5q35 0 50 -14t15 -34q0 -5 -1.5 -14t-4.5 -26
q-5 -26 -24 -44.5t-61 -18.5zM437 600q-35 0 -50 14t-15 34q0 5 1.5 14t4.5 26q5 26 24 44.5t61 18.5q35 0 50 -14t15 -34q0 -5 -1.5 -14t-4.5 -26q-5 -26 -24 -44.5t-61 -18.5z" />
    <glyph glyph-name="uni0452" unicode="&#x452;" horiz-adv-x="585" 
d="M234 -88h75l80 400q3 14 5 27.5t2 28.5q0 23 -12 37.5t-41 14.5q-26 0 -47 -14t-38 -34q-18 -21 -31 -46.5t-19 -55.5l-54 -270h-140l118 592h-69l20 96h68l11 52h140l-11 -52h141l-20 -96h-140l-37 -189h6q30 63 71 98.5t103 35.5q61 0 93.5 -35.5t32.5 -100.5
q0 -19 -2.5 -36.5t-6.5 -37.5l-79 -388q-14 -69 -51.5 -104t-110.5 -35h-79z" />
    <glyph glyph-name="uni0453" unicode="&#x453;" horiz-adv-x="432" 
d="M119 525h343l-22 -112h-203l-83 -413h-140zM322 579l-84 46l119 190l112 -60z" />
    <glyph glyph-name="uni0454" unicode="&#x454;" horiz-adv-x="512" 
d="M247 -12q-47 0 -87 12.5t-68.5 40t-44.5 70.5t-16 104q0 70 21 129t59 102t91 67t118 24q85 0 132 -33.5t64 -89.5l-116 -54q-5 16 -11.5 28t-16.5 20t-24.5 12t-35.5 4q-55 0 -81.5 -27t-37.5 -81h161l-20 -98h-161q-3 -18 -3 -35q0 -37 19 -59.5t70 -22.5q19 0 34.5 4
t29 13t25.5 24t25 38l105 -59q-42 -68 -95.5 -100.5t-135.5 -32.5z" />
    <glyph glyph-name="uni0455" unicode="&#x455;" horiz-adv-x="497" 
d="M213 -12q-66 0 -121 23t-90 69l88 82q22 -29 51.5 -45.5t74.5 -16.5q49 0 69.5 17.5t20.5 40.5q0 15 -10.5 27t-38.5 16l-53 7q-68 9 -104 43.5t-36 97.5q0 37 13 71t40 60t68 41.5t97 15.5q61 0 110.5 -20.5t84.5 -62.5l-88 -82q-19 24 -48.5 38.5t-64.5 14.5
t-55.5 -15.5t-20.5 -39.5q0 -15 10.5 -27t38.5 -16l53 -7q68 -9 104 -43.5t36 -96.5q0 -38 -14.5 -73t-43.5 -61.5t-72 -42t-99 -15.5z" />
    <glyph glyph-name="uni0456" unicode="&#x456;" horiz-adv-x="281" 
d="M202 583q-37 0 -54.5 14t-17.5 38q0 9 2 20t4 20q3 13 9 26t17 23t28 16.5t42 6.5q37 0 54.5 -14t17.5 -38q0 -9 -2 -20t-4 -20q-3 -13 -9 -26t-17 -23t-28 -16.5t-42 -6.5zM122 0q-41 0 -65.5 22t-24.5 58q0 10 3 25l84 420h140l-83 -413h59l-22 -112h-91z" />
    <glyph glyph-name="uni0457" unicode="&#x457;" horiz-adv-x="281" 
d="M122 0q-41 0 -65.5 22t-24.5 58q0 10 3 25l84 420h140l-83 -413h59l-22 -112h-91zM104 600q-35 0 -50 14t-15 34q0 5 1.5 14t4.5 26q5 26 24 44.5t61 18.5q35 0 50 -14t15 -34q0 -5 -1.5 -14t-4.5 -26q-5 -26 -24 -44.5t-61 -18.5zM304 600q-35 0 -50 14t-15 34
q0 5 1.5 14t4.5 26q5 26 24 44.5t61 18.5q35 0 50 -14t15 -34q0 -5 -1.5 -14t-4.5 -26q-5 -26 -24 -44.5t-61 -18.5z" />
    <glyph glyph-name="uni0458" unicode="&#x458;" horiz-adv-x="276" 
d="M123 525h140l-119 -586q-14 -69 -51.5 -104t-110.5 -35h-79l22 112h75zM206 583q-37 0 -54.5 14t-17.5 38q0 9 2 20t4 20q3 13 9 26t17 23t28 16.5t42 6.5q37 0 54.5 -14t17.5 -38q0 -9 -2 -20t-4 -20q-3 -13 -9 -26t-17 -23t-28 -16.5t-42 -6.5z" />
    <glyph glyph-name="uni0459" unicode="&#x459;" horiz-adv-x="847" 
d="M-15 112h67q25 30 47 86.5t43 161.5l33 165h394l-32 -156h117q70 0 108 -39.5t38 -108.5q0 -61 -19.5 -103t-50.5 -68.5t-70.5 -38t-78.5 -11.5h-257l82 413h-120l-10 -51q-15 -75 -29.5 -127t-29 -88t-29.5 -59t-31 -39q-32 -32 -68 -43.5t-81 -11.5h-47zM568 102
q32 0 57.5 21.5t32.5 55.5q3 15 3 32q0 24 -16 40t-45 16h-83l-33 -165h84z" />
    <glyph glyph-name="uni045A" unicode="&#x45a;" horiz-adv-x="839" 
d="M119 525h140l-41 -202h162l41 202h140l-32 -156h117q70 0 108 -39.5t38 -108.5q0 -61 -19.5 -103t-50.5 -68.5t-70.5 -38t-78.5 -11.5h-257l42 211h-162l-42 -211h-140zM560 102q32 0 57.5 21.5t32.5 55.5q3 15 3 32q0 24 -16 40t-45 16h-83l-33 -165h84z" />
    <glyph glyph-name="uni045B" unicode="&#x45b;" horiz-adv-x="588" 
d="M132 592h-69l20 96h68l11 52h140l-11 -52h141l-20 -96h-140l-37 -189h6q30 63 71 98.5t103 35.5q61 0 93.5 -35.5t32.5 -100.5q0 -19 -2.5 -36.5t-6.5 -37.5l-43 -215h53l-22 -112h-91q-40 0 -62 20.5t-22 55.5q0 9 1 16.5t2 11.5l41 208q3 14 5 27.5t2 28.5
q0 23 -12 37.5t-41 14.5q-26 0 -47 -14t-38 -34q-18 -21 -31 -46.5t-19 -55.5l-54 -270h-140z" />
    <glyph glyph-name="uni045C" unicode="&#x45c;" horiz-adv-x="571" 
d="M119 525h140l-41 -202h75l102 144q12 16 23 27t24 18t29.5 10t37.5 3h65l-23 -112h-50l-70 -99q-15 -21 -30 -30t-35 -12l-1 -6q17 -5 29 -15.5t20 -33.5l39 -105h52l-23 -112h-59q-74 0 -103 79l-49 132h-75l-42 -211h-140zM378 579l-84 46l119 190l112 -60z" />
    <glyph glyph-name="uni045D" unicode="&#x45d;" horiz-adv-x="582" 
d="M254 525l-62 -312q-3 -14 -5 -28t-2 -25q0 -26 11.5 -40.5t37.5 -14.5t46.5 13.5t37.5 34.5q36 44 48 102l54 270h140l-83 -413h59l-22 -112h-93q-38 0 -63 20t-25 57q0 8 1 17t2 13l3 15h-6q-29 -62 -69 -98t-100 -36t-92 35.5t-32 100.5q0 20 2.5 38t6.5 38l65 325h140
zM217 756l126 59l68 -196l-89 -39z" />
    <glyph glyph-name="uni045E" unicode="&#x45e;" horiz-adv-x="509" 
d="M408 525h149l-322 -610q-15 -29 -32 -50.5t-39 -36t-50 -21.5t-65 -7h-78l23 112h97l28 58l-74 555h139l20 -198l16 -196h6l88 196zM296 579q-52 0 -89 26t-57 86l-17 51l115 43l16 -101q8 -3 20.5 -5t24.5 -2q29 0 43 7l46 101l111 -43l-30 -51q-33 -57 -78 -84.5
t-105 -27.5z" />
    <glyph glyph-name="uni045F" unicode="&#x45f;" horiz-adv-x="582" 
d="M164 -12q-60 0 -92 35.5t-32 100.5q0 20 2.5 38t6.5 38l65 325h140l-62 -312q-3 -14 -5 -28t-2 -25q0 -26 11.5 -40.5t37.5 -14.5t46.5 13.5t37.5 34.5q36 44 48 102l54 270h140l-83 -413h59l-22 -112h-93q-38 0 -63 20t-25 57q0 8 1 17t2 13l3 15h-6q-29 -62 -69 -98
t-100 -36zM159 -50h124l-30 -150h-124z" />
    <glyph glyph-name="uni0472" unicode="&#x472;" horiz-adv-x="695" 
d="M308 -12q-50 0 -95.5 16.5t-80 51t-55 88t-20.5 127.5q0 90 27 170t75 140t114 94.5t144 34.5q50 0 95.5 -16.5t80 -51t55 -88t20.5 -127.5q0 -90 -27 -170t-75 -140t-114 -94.5t-144 -34.5zM316 107q74 0 120.5 47t66.5 132h-305q-2 -13 -3 -25t-1 -21q0 -65 30 -99
t92 -34zM409 591q-73 0 -120.5 -46t-66.5 -131h306q3 25 3 44q0 65 -30 99t-92 34z" />
    <glyph glyph-name="uni0473" unicode="&#x473;" horiz-adv-x="542" 
d="M240 -12q-97 0 -153 57.5t-56 161.5q0 71 20.5 131.5t56.5 104.5t85.5 69t108.5 25q97 0 153 -57.5t56 -161.5q0 -71 -20.5 -131.5t-56.5 -104.5t-86 -69t-108 -25zM244 91q45 0 74.5 31.5t41.5 93.5h-196q-2 -8 -3 -17t-1 -20q0 -39 20.5 -63.5t63.5 -24.5zM298 434
q-45 0 -74 -31t-41 -91h196q1 6 2 14.5t1 19.5q0 39 -20.5 63.5t-63.5 24.5z" />
    <glyph glyph-name="uni0490" unicode="&#x490;" horiz-adv-x="497" 
d="M162 698h260l32 151h136l-57 -279h-252l-114 -570h-145z" />
    <glyph glyph-name="uni0491" unicode="&#x491;" horiz-adv-x="432" 
d="M119 525h219l28 140h124l-50 -252h-203l-83 -413h-140z" />
    <glyph glyph-name="uni0492" unicode="&#x492;" horiz-adv-x="532" 
d="M114 286h-84l22 106h84l61 306h397l-26 -128h-252l-36 -178h169l-22 -106h-168l-57 -286h-145z" />
    <glyph glyph-name="uni0493" unicode="&#x493;" horiz-adv-x="449" 
d="M72 206h-63l19 96h63l45 223h343l-22 -112h-203l-22 -111h123l-19 -96h-124l-41 -206h-140z" />
    <glyph glyph-name="uni0494" unicode="&#x494;" horiz-adv-x="649" 
d="M250 -49h96q23 20 40 51.5t25 72.5l11 54q3 15 5.5 30.5t2.5 28.5q0 41 -21.5 60t-72.5 19q-37 0 -65 -5t-54 -14l-50 -248h-145l140 698h397l-26 -128h-252l-40 -202h5q23 12 57.5 20t76.5 8q94 0 144.5 -47t50.5 -135q0 -20 -2 -43t-7 -46l-11 -54q-14 -65 -40.5 -113
t-63 -79.5t-81.5 -47t-95 -15.5h-52z" />
    <glyph glyph-name="uni0495" unicode="&#x495;" horiz-adv-x="554" 
d="M192 -85h84q14 11 26 32.5t18 51.5l22 105q2 9 2.5 20t0.5 22q0 49 -58 49q-94 0 -112 -91l-21 -104h-140l105 525h343l-22 -112h-203l-39 -194h6q29 47 64.5 70t86.5 23q67 0 101 -35.5t34 -93.5q0 -20 -2 -39t-5 -34l-25 -121q-20 -96 -78.5 -142.5t-147.5 -46.5h-63z
" />
    <glyph glyph-name="uni0496" unicode="&#x496;" horiz-adv-x="1014" 
d="M805 2q-28 5 -42 15.5t-23.5 27t-17.5 40.5l-66 204h-82l-58 -289h-149l58 289h-81l-134 -214q-26 -41 -57 -58t-75 -17h-84l26 129h59l91 146q23 37 49 56.5t62 25.5l1 6q-19 8 -30.5 21t-20.5 36l-56 149h-59l26 129h37q48 0 73.5 -18.5t42.5 -65.5l74 -197h81l57 281
h149l-57 -281h82l148 210q27 37 56.5 54t76.5 17h59l-26 -129h-53l-99 -141q-23 -32 -44 -46t-50 -19l-1 -6q20 -8 33.5 -23t22.5 -43l52 -162h112l-57 -279h-136z" />
    <glyph glyph-name="uni0497" unicode="&#x497;" horiz-adv-x="845" 
d="M652 1q-55 7 -80.5 44t-25.5 113v28t2 27h-73l-43 -213h-134l43 213h-71q-29 -114 -78 -163.5t-122 -49.5h-81l23 112h97q14 14 26.5 44.5t24.5 90.5q8 41 11 69.5t3 46.5q0 34 -8 50h-81l23 112h51q69 0 100.5 -36.5t31.5 -121.5q0 -13 -0.5 -24t-1.5 -22h74l41 204h134
l-41 -204h72q29 109 77 156.5t121 47.5h67l-23 -112h-83q-14 -14 -26.5 -44.5t-24.5 -90.5q-8 -41 -11 -69.5t-3 -46.5q0 -34 8 -50h128l-51 -252h-124z" />
    <glyph glyph-name="uni0498" unicode="&#x498;" horiz-adv-x="607" 
d="M166 -4q-54 12 -94 40t-74 76l111 87q27 -41 60 -61.5t81 -20.5q57 0 88.5 18t42.5 57q2 8 4 18t2 17q0 31 -21.5 46.5t-72.5 15.5h-98l26 128h97q53 0 80.5 15t35.5 47q5 22 5 42q0 26 -23 43t-71 17q-51 0 -91 -17.5t-70 -47.5l-84 99q50 45 114 70t147 25
q112 0 170.5 -44.5t58.5 -122.5q0 -72 -40 -119.5t-111 -62.5l-1 -5q28 -6 47 -18.5t30.5 -29.5t16.5 -38.5t5 -43.5q0 -46 -17 -86t-47.5 -70.5t-74 -51t-96.5 -27.5l-29 -141h-136z" />
    <glyph glyph-name="uni0499" unicode="&#x499;" horiz-adv-x="505" 
d="M131 -6q-45 8 -80 29.5t-61 53.5l88 82q20 -27 50.5 -42.5t72.5 -15.5q89 0 103 54q3 12 3 26q0 17 -12 27t-41 10h-102l20 98h98q25 0 43 9t25 32q3 10 3 21q0 20 -18.5 33.5t-60.5 13.5q-81 0 -131 -62l-80 77q45 50 99 73.5t130 23.5q102 0 150 -38.5t48 -95.5
q0 -54 -31 -88t-88 -43l-1 -5q39 -8 62.5 -32.5t23.5 -66.5q0 -36 -14.5 -66t-40 -52.5t-60 -37t-75.5 -20.5l-26 -132h-124z" />
    <glyph glyph-name="uni049A" unicode="&#x49a;" horiz-adv-x="683" 
d="M474 2q-26 4 -41 15t-24.5 27.5t-17.5 40.5l-66 204h-100l-58 -289h-145l140 698h145l-57 -281h100l148 210q27 38 54.5 54.5t73.5 16.5h64l-26 -129h-53l-99 -141q-23 -32 -44 -46t-50 -19l-1 -6q20 -8 33.5 -23t22.5 -43l52 -162h112l-57 -279h-136z" />
    <glyph glyph-name="uni049B" unicode="&#x49b;" horiz-adv-x="581" 
d="M396 2q-53 12 -76 77l-49 132h-75l-42 -211h-140l105 525h140l-41 -202h75l102 144q12 16 23 27t24 18t29.5 10t37.5 3h65l-23 -112h-50l-70 -99q-15 -21 -30 -30t-35 -12l-1 -6q17 -5 29 -15.5t20 -33.5l39 -105h90l-51 -252h-124z" />
    <glyph glyph-name="uni049C" unicode="&#x49c;" horiz-adv-x="740" 
d="M162 698h145l-56 -281h47l27 137h107l-27 -137h35l140 211q24 36 52 53t74 17h64l-26 -129h-53l-92 -138q-21 -32 -41 -47.5t-50 -20.5l-1 -6q21 -8 34.5 -24t21.5 -47l42 -157h59l-26 -129h-51q-51 0 -77.5 19t-39.5 66l-55 204h-36l-27 -135h-107l27 135h-46l-59 -289
h-145z" />
    <glyph glyph-name="uni049D" unicode="&#x49d;" horiz-adv-x="651" 
d="M119 525h140l-41 -202h46l23 115h87l-23 -115h32l96 146q11 16 21.5 27t23 17.5t28.5 9t37 2.5h65l-23 -112h-50l-61 -92q-17 -26 -30.5 -36t-33.5 -13l-1 -6q17 -5 28 -17.5t19 -38.5l31 -98h52l-23 -112h-59q-40 0 -64.5 21t-36.5 59l-41 131h-33l-23 -116h-87l23 116
h-45l-42 -211h-140z" />
    <glyph glyph-name="uni04A0" unicode="&#x4a0;" horiz-adv-x="748" 
d="M224 570h-148l26 128h293l-57 -281h100l148 210q27 38 54.5 54.5t73.5 16.5h64l-26 -129h-53l-99 -141q-23 -32 -44 -46t-50 -19l-1 -6q20 -8 33.5 -23t22.5 -43l52 -162h59l-26 -129h-51q-26 0 -44 4t-31.5 14t-23 26.5t-17.5 40.5l-66 204h-100l-58 -289h-145z" />
    <glyph glyph-name="uni04A1" unicode="&#x4a1;" horiz-adv-x="650" 
d="M176 413h-123l22 112h263l-41 -202h75l102 144q12 16 23 27t24 18t29.5 10t37.5 3h65l-23 -112h-50l-70 -99q-15 -21 -30 -30t-35 -12l-1 -6q17 -5 29 -15.5t20 -33.5l39 -105h52l-23 -112h-59q-74 0 -103 79l-49 132h-75l-42 -211h-140z" />
    <glyph glyph-name="uni04A2" unicode="&#x4a2;" horiz-adv-x="757" 
d="M547 0h-120l58 289h-260l-58 -289h-145l140 698h145l-56 -281h260l56 281h145l-114 -569h112l-57 -279h-136z" />
    <glyph glyph-name="uni04A3" unicode="&#x4a3;" horiz-adv-x="640" 
d="M430 0h-106l42 211h-170l-42 -211h-140l105 525h140l-41 -202h170l41 202h140l-82 -413h90l-51 -252h-124z" />
    <glyph glyph-name="uni04A4" unicode="&#x4a4;" horiz-adv-x="883" 
d="M162 698h145l-56 -281h240l57 281h397l-26 -128h-252l-114 -570h-145l58 289h-241l-58 -289h-145z" />
    <glyph glyph-name="uni04A5" unicode="&#x4a5;" horiz-adv-x="734" 
d="M119 525h140l-41 -202h162l41 202h343l-22 -112h-203l-83 -413h-140l42 211h-162l-42 -211h-140z" />
    <glyph glyph-name="uni04AA" unicode="&#x4aa;" horiz-adv-x="635" 
d="M233 -3q-81 20 -128.5 88.5t-47.5 186.5q0 92 27.5 172t75.5 139t113.5 93t141.5 34q94 0 152.5 -44.5t83.5 -125.5l-129 -54q-6 20 -15 37.5t-22.5 30t-33 20t-47.5 7.5q-70 0 -113.5 -48t-59.5 -127l-22 -110q-3 -15 -4 -27.5t-1 -22.5q0 -129 115 -129q59 0 94.5 29
t58.5 75l121 -55q-38 -75 -95.5 -117.5t-128.5 -54.5l-29 -144h-136z" />
    <glyph glyph-name="uni04AB" unicode="&#x4ab;" horiz-adv-x="494" 
d="M164 -2q-59 17 -96 69.5t-37 147.5q0 70 21 129t58.5 102t88.5 67t111 24q37 0 69.5 -9.5t57 -27.5t40.5 -43t21 -56l-118 -45q-9 31 -24.5 49.5t-53.5 18.5q-87 0 -109 -110l-18 -89q-5 -23 -5 -42q0 -37 18.5 -59.5t60.5 -22.5q20 0 35 6t26.5 17t21.5 26t21 34
l107 -50q-58 -121 -173 -141l-27 -133h-124z" />
    <glyph glyph-name="uni04AE" unicode="&#x4ae;" horiz-adv-x="624" 
d="M185 0l54 271l-148 427h148l94 -294h7l201 294h160l-319 -440l-52 -258h-145z" />
    <glyph glyph-name="uni04AF" unicode="&#x4af;" horiz-adv-x="512" 
d="M126 0l-80 525h139l22 -198l14 -180h7l79 180l98 198h149l-288 -525l-40 -200h-140z" />
    <glyph glyph-name="uni04B0" unicode="&#x4b0;" horiz-adv-x="624" 
d="M217 163h-138l21 106h138l-147 429h148l93 -290h7l202 290h160l-317 -429h138l-22 -106h-137l-33 -163h-145z" />
    <glyph glyph-name="uni04B1" unicode="&#x4b1;" horiz-adv-x="512" 
d="M10 0h116l-80 525h139l22 -198l14 -180h7l79 180l98 198h149l-288 -525h116l-19 -96h-116l-21 -104h-140l21 104h-117z" />
    <glyph glyph-name="uni04B2" unicode="&#x4b2;" horiz-adv-x="663" 
d="M464 0h-50l-99 243h-8l-179 -243h-168l290 369l-146 329h156l95 -230h8l175 230h168l-287 -351l96 -218h112l-57 -279h-136z" />
    </font>
</defs>
</svg>
